<svg width="24" height="23" viewBox="0 0 24 23" fill="none" xmlns="http://www.w3.org/2000/svg">
<path d="M14.181 22.0749C12.6841 22.2587 11.1962 22.1464 9.75935 21.7393C8.36941 21.3457 7.08772 20.7015 5.94767 19.8155C5.31175 19.3229 5.19967 18.4101 5.69752 17.7782C6.19538 17.1464 7.11578 17.0334 7.75171 17.526C8.59484 18.1791 9.5424 18.6559 10.5674 18.9469C12.6841 19.5462 15.0249 19.2588 16.9369 18.1648C17.8614 17.6377 18.6651 16.9427 19.3252 16.105C19.9853 15.2673 20.4678 14.3263 20.7631 13.3089C21.067 12.2553 21.1532 11.1674 21.0187 10.0714C20.8841 8.97537 20.5372 7.94069 19.9875 6.99182C19.458 6.07575 18.759 5.27987 17.9158 4.62674C17.0727 3.9736 16.1251 3.49681 15.1002 3.20585C12.9803 2.60689 10.6458 2.89352 8.73063 3.98793C7.80612 4.51505 7.00244 5.21008 6.34236 6.04778C5.68228 6.88549 5.19974 7.82644 4.90758 8.8434C4.68545 9.61451 3.87739 10.0632 3.09733 9.84478C2.32045 9.62596 1.87295 8.82485 2.09151 8.05098C2.48828 6.6749 3.14301 5.39861 4.03842 4.26589C4.93065 3.13357 6.01804 2.1953 7.27147 1.47711C9.86921 -0.0089023 13.0221 -0.396033 15.9022 0.417388C17.2918 0.807855 18.5738 1.45519 19.7139 2.34118C20.8567 3.22363 21.7976 4.30402 22.5187 5.54284C23.2651 6.82985 23.7349 8.23418 23.9168 9.71555C24.0987 11.1969 23.9825 12.6732 23.5697 14.1025C23.1733 15.4818 22.5182 16.7549 21.6228 17.8876C20.7309 19.0231 19.6399 19.9586 18.3897 20.6764C17.0908 21.4194 15.6774 21.8879 14.1806 22.0717L14.181 22.0749Z" fill="#EF7C2E"/>
<path d="M8.86883 7.86127L1.18722 13.6148L0 4.14118L8.86883 7.86127Z" fill="#EF7C2E"/>
</svg>
