<svg width="283" height="73" viewBox="0 0 283 73" fill="none" xmlns="http://www.w3.org/2000/svg">
<g filter="url(#filter0_d_46_14380)">
<rect x="3" y="3" width="275" height="65" rx="32.5" fill="#EF7C2E"/>
</g>
<path d="M105.879 44.225C105.263 44.225 104.763 44.0833 104.379 43.8C103.996 43.5 103.696 43.0417 103.479 42.425L98.6042 28.85C98.3375 28.1 98.3792 27.4667 98.7292 26.95C99.0959 26.4167 99.7375 26.15 100.654 26.15C101.271 26.15 101.754 26.3 102.104 26.6C102.454 26.8833 102.729 27.3333 102.929 27.95L106.654 39.125H105.479L109.479 27.95C109.713 27.3333 110.004 26.8833 110.354 26.6C110.704 26.3 111.154 26.15 111.704 26.15C112.254 26.15 112.696 26.3 113.029 26.6C113.363 26.8833 113.638 27.3417 113.854 27.975L117.604 39.125H116.604L120.429 27.95C120.629 27.3333 120.896 26.8833 121.229 26.6C121.579 26.3 122.063 26.15 122.679 26.15C123.446 26.15 124.004 26.4167 124.354 26.95C124.721 27.4667 124.763 28.1 124.479 28.85L119.554 42.45C119.338 43.05 119.038 43.5 118.654 43.8C118.288 44.0833 117.796 44.225 117.179 44.225C116.546 44.225 116.038 44.0833 115.654 43.8C115.288 43.5 114.996 43.0417 114.779 42.425L111.254 32.525H111.879L108.279 42.45C108.046 43.05 107.746 43.5 107.379 43.8C107.013 44.0833 106.513 44.225 105.879 44.225ZM132.443 44.275C130.943 44.275 129.643 44.0167 128.543 43.5C127.46 42.9667 126.626 42.2167 126.043 41.25C125.46 40.2833 125.168 39.1417 125.168 37.825C125.168 36.5583 125.443 35.45 125.993 34.5C126.56 33.5333 127.326 32.7833 128.293 32.25C129.276 31.7 130.393 31.425 131.643 31.425C132.56 31.425 133.393 31.575 134.143 31.875C134.893 32.1583 135.535 32.5833 136.068 33.15C136.601 33.7 137.001 34.3667 137.268 35.15C137.551 35.9333 137.693 36.8083 137.693 37.775C137.693 38.1083 137.601 38.3583 137.418 38.525C137.235 38.675 136.943 38.75 136.543 38.75H128.893V36.65H134.443L134.043 36.975C134.043 36.3583 133.96 35.8583 133.793 35.475C133.626 35.0917 133.376 34.8 133.043 34.6C132.726 34.4 132.326 34.3 131.843 34.3C131.326 34.3 130.876 34.425 130.493 34.675C130.126 34.9083 129.843 35.2583 129.643 35.725C129.443 36.1917 129.343 36.775 129.343 37.475V37.7C129.343 38.8833 129.601 39.7333 130.118 40.25C130.651 40.75 131.468 41 132.568 41C132.935 41 133.351 40.9583 133.818 40.875C134.301 40.775 134.76 40.6417 135.193 40.475C135.626 40.3083 136.001 40.2833 136.318 40.4C136.635 40.5 136.876 40.6833 137.043 40.95C137.226 41.2 137.326 41.4917 137.343 41.825C137.36 42.1417 137.285 42.4583 137.118 42.775C136.951 43.075 136.676 43.3083 136.293 43.475C135.71 43.7417 135.085 43.9417 134.418 44.075C133.768 44.2083 133.11 44.275 132.443 44.275ZM142.31 44.225C141.61 44.225 141.068 44.0167 140.685 43.6C140.302 43.1833 140.11 42.5833 140.11 41.8V33.9C140.11 33.1167 140.302 32.5167 140.685 32.1C141.068 31.6833 141.61 31.475 142.31 31.475C143.027 31.475 143.577 31.6833 143.96 32.1C144.36 32.5167 144.56 33.1167 144.56 33.9V41.8C144.56 42.5833 144.368 43.1833 143.985 43.6C143.602 44.0167 143.043 44.225 142.31 44.225ZM142.31 29.7C141.527 29.7 140.918 29.5167 140.485 29.15C140.068 28.7833 139.86 28.25 139.86 27.55C139.86 26.8667 140.068 26.3417 140.485 25.975C140.918 25.6083 141.527 25.425 142.31 25.425C143.127 25.425 143.743 25.6083 144.16 25.975C144.577 26.3417 144.785 26.8667 144.785 27.55C144.785 28.25 144.577 28.7833 144.16 29.15C143.743 29.5167 143.127 29.7 142.31 29.7ZM154.091 44.275C152.841 44.275 151.808 44.0833 150.991 43.7C150.191 43.3167 149.591 42.7417 149.191 41.975C148.791 41.1917 148.591 40.2167 148.591 39.05V34.975H147.741C147.208 34.975 146.791 34.8333 146.491 34.55C146.208 34.2667 146.066 33.8583 146.066 33.325C146.066 32.7917 146.208 32.3917 146.491 32.125C146.791 31.8417 147.208 31.7 147.741 31.7H148.591V30.15C148.591 29.4167 148.783 28.8583 149.166 28.475C149.55 28.0917 150.1 27.9 150.816 27.9C151.533 27.9 152.083 28.0917 152.466 28.475C152.85 28.8583 153.041 29.4167 153.041 30.15V31.7H155.091C155.641 31.7 156.058 31.8417 156.341 32.125C156.641 32.3917 156.791 32.7917 156.791 33.325C156.791 33.8583 156.641 34.2667 156.341 34.55C156.058 34.8333 155.641 34.975 155.091 34.975H153.041V38.9C153.041 39.5167 153.183 39.975 153.466 40.275C153.766 40.5583 154.233 40.7 154.866 40.7C155.1 40.7 155.325 40.675 155.541 40.625C155.758 40.575 155.958 40.55 156.141 40.55C156.408 40.5333 156.625 40.6167 156.791 40.8C156.958 40.9667 157.041 41.3583 157.041 41.975C157.041 42.475 156.966 42.9 156.816 43.25C156.666 43.5833 156.4 43.825 156.016 43.975C155.783 44.0583 155.466 44.125 155.066 44.175C154.666 44.2417 154.341 44.275 154.091 44.275ZM165.364 44.275C163.864 44.275 162.564 44.0167 161.464 43.5C160.38 42.9667 159.547 42.2167 158.964 41.25C158.38 40.2833 158.089 39.1417 158.089 37.825C158.089 36.5583 158.364 35.45 158.914 34.5C159.48 33.5333 160.247 32.7833 161.214 32.25C162.197 31.7 163.314 31.425 164.564 31.425C165.48 31.425 166.314 31.575 167.064 31.875C167.814 32.1583 168.455 32.5833 168.989 33.15C169.522 33.7 169.922 34.3667 170.189 35.15C170.472 35.9333 170.614 36.8083 170.614 37.775C170.614 38.1083 170.522 38.3583 170.339 38.525C170.155 38.675 169.864 38.75 169.464 38.75H161.814V36.65H167.364L166.964 36.975C166.964 36.3583 166.88 35.8583 166.714 35.475C166.547 35.0917 166.297 34.8 165.964 34.6C165.647 34.4 165.247 34.3 164.764 34.3C164.247 34.3 163.797 34.425 163.414 34.675C163.047 34.9083 162.764 35.2583 162.564 35.725C162.364 36.1917 162.264 36.775 162.264 37.475V37.7C162.264 38.8833 162.522 39.7333 163.039 40.25C163.572 40.75 164.389 41 165.489 41C165.855 41 166.272 40.9583 166.739 40.875C167.222 40.775 167.68 40.6417 168.114 40.475C168.547 40.3083 168.922 40.2833 169.239 40.4C169.555 40.5 169.797 40.6833 169.964 40.95C170.147 41.2 170.247 41.4917 170.264 41.825C170.28 42.1417 170.205 42.4583 170.039 42.775C169.872 43.075 169.597 43.3083 169.214 43.475C168.63 43.7417 168.005 43.9417 167.339 44.075C166.689 44.2083 166.03 44.275 165.364 44.275ZM175.306 44.225C174.573 44.225 174.006 44.0333 173.606 43.65C173.223 43.2667 173.031 42.7083 173.031 41.975V33.7C173.031 32.9833 173.214 32.4333 173.581 32.05C173.964 31.6667 174.506 31.475 175.206 31.475C175.906 31.475 176.439 31.6667 176.806 32.05C177.173 32.4333 177.356 32.9833 177.356 33.7V34.725H177.106C177.273 33.725 177.698 32.9333 178.381 32.35C179.081 31.7667 179.948 31.4583 180.981 31.425C181.464 31.4083 181.823 31.5333 182.056 31.8C182.306 32.05 182.439 32.525 182.456 33.225C182.456 33.825 182.331 34.3 182.081 34.65C181.831 35 181.356 35.2083 180.656 35.275L180.081 35.325C179.198 35.4083 178.556 35.6583 178.156 36.075C177.756 36.475 177.556 37.075 177.556 37.875V41.975C177.556 42.7083 177.364 43.2667 176.981 43.65C176.598 44.0333 176.039 44.225 175.306 44.225Z" fill="white"/>
<defs>
<filter id="filter0_d_46_14380" x="0" y="0" width="283" height="73" filterUnits="userSpaceOnUse" color-interpolation-filters="sRGB">
<feFlood flood-opacity="0" result="BackgroundImageFix"/>
<feColorMatrix in="SourceAlpha" type="matrix" values="0 0 0 0 0 0 0 0 0 0 0 0 0 0 0 0 0 0 127 0" result="hardAlpha"/>
<feOffset dx="1" dy="1"/>
<feGaussianBlur stdDeviation="2"/>
<feComposite in2="hardAlpha" operator="out"/>
<feColorMatrix type="matrix" values="0 0 0 0 0 0 0 0 0 0 0 0 0 0 0 0 0 0 0.25 0"/>
<feBlend mode="normal" in2="BackgroundImageFix" result="effect1_dropShadow_46_14380"/>
<feBlend mode="normal" in="SourceGraphic" in2="effect1_dropShadow_46_14380" result="shape"/>
</filter>
</defs>
</svg>
