<svg width="187" height="187" viewBox="0 0 187 187" fill="none" xmlns="http://www.w3.org/2000/svg">
<g filter="url(#filter0_d_0_9)">
<path d="M87.7485 148.202C121.234 148.202 148.38 121.096 148.38 87.6597C148.38 54.2232 121.234 27.1175 87.7485 27.1175C54.2628 27.1175 27.1174 54.2232 27.1174 87.6597C27.1174 121.096 54.2628 148.202 87.7485 148.202Z" fill="#287D7F"/>
</g>
<path d="M115.669 96.6204L114.594 98.3177L111.846 96.5829C111.846 96.5829 111.843 96.5829 111.84 96.5795H111.833L109.362 95.015L110.437 93.3177C110.522 93.3279 110.665 93.3654 110.822 93.4643L115.369 96.3375C115.526 96.4363 115.622 96.5488 115.666 96.6238L115.669 96.6204ZM108.498 96.3784L96.9063 114.678C97.5036 115.056 98.1009 115.431 98.6983 115.809L110.293 97.5099L108.501 96.3784H108.498ZM98.5037 117.602L96.6947 116.46L96.9438 120.4L100.613 118.938L98.5208 117.616C98.5208 117.616 98.5174 117.616 98.5139 117.612C98.5105 117.612 98.5071 117.609 98.5037 117.605V117.602ZM100.064 116.675C100.757 117.111 101.446 117.548 102.136 117.984L113.731 99.6811L111.659 98.3723L100.064 116.672V116.675ZM103.071 119.531L105.068 116.378V128.587H72.0469C69.7668 128.587 67.9134 126.736 67.9134 124.46V80.1036L71.593 80.1002H100.934C103.214 80.1002 105.068 81.9509 105.068 84.2277V98.7642L95.104 114.497C95.0119 114.64 94.9675 114.811 94.9811 114.981L95.401 121.614C95.418 121.873 95.5546 122.108 95.7765 122.244C95.9096 122.326 96.0598 122.37 96.2099 122.37C96.3123 122.37 96.4147 122.35 96.5103 122.312L102.692 119.848C102.849 119.787 102.985 119.674 103.074 119.531H103.071ZM79.174 96.7499C79.174 97.1964 79.5358 97.5577 79.9829 97.5577H92.998C93.4451 97.5577 93.807 97.1964 93.807 96.7499V86.4669C93.807 86.1943 93.6704 86.3851 93.4451 86.2352L86.9359 81.9475C86.6663 81.7703 86.3147 81.7703 86.045 81.9475L79.5358 86.2352C79.3105 86.3851 79.174 86.6408 79.174 86.91V96.7499ZM72.4053 100.605C72.4053 101.051 72.7671 101.412 73.2143 101.412H99.77C100.217 101.412 100.579 101.051 100.579 100.605C100.579 100.158 100.217 99.8856 99.77 99.8856H73.2143C72.7671 99.8856 72.4053 100.158 72.4053 100.605ZM72.4053 104.293C72.4053 104.739 72.7671 105.1 73.2143 105.1H99.77C100.217 105.1 100.579 104.739 100.579 104.293C100.579 103.846 100.217 103.573 99.77 103.573H73.2143C72.7671 103.573 72.4053 103.846 72.4053 104.293ZM72.4053 107.987C72.4053 108.434 72.7671 108.795 73.2143 108.795H97.4319C97.8791 108.795 98.2409 108.434 98.2409 107.987C98.2409 107.541 97.8791 107.268 97.4319 107.268H73.2143C72.7671 107.268 72.4053 107.541 72.4053 107.987ZM73.2143 112.486H89.0249C89.472 112.486 89.8338 112.125 89.8338 111.678C89.8338 111.232 89.472 110.959 89.0249 110.959H73.2143C72.7671 110.959 72.4053 111.232 72.4053 111.678C72.4053 112.125 72.7671 112.486 73.2143 112.486ZM94.691 122.231C94.5613 121.801 94.1108 121.559 93.6841 121.685L90.5984 122.606C90.3868 122.67 89.9294 122.807 89.5198 122.909C89.6598 122.633 89.8372 122.312 90.0079 121.995L90.1445 121.743C91.0558 120.07 90.6633 119.255 90.1752 118.867C88.7552 117.738 85.9597 119.954 84.8265 120.956C84.6046 121.15 84.4135 121.314 84.2462 121.45C84.5432 120.83 85.0313 119.95 85.7958 118.761C86.1884 118.154 87.0042 116.89 86.2054 116.123C85.5501 115.496 84.4681 115.765 82.0685 117.152C80.6042 117.997 78.7166 119.235 76.4604 120.83C76.4058 120.871 76.3512 120.905 76.3 120.942C76.7471 120.237 77.3547 119.385 77.9247 118.652C78.2012 118.301 78.1363 117.793 77.7848 117.517C77.4332 117.244 76.9246 117.306 76.6481 117.657C76.6174 117.698 75.8869 118.631 75.2077 119.651C74.1052 121.304 73.6273 122.326 74.2656 122.994C74.9824 123.744 76.1532 123.021 77.3922 122.149C81.5735 119.197 83.6113 118.086 84.5671 117.67C84.5261 117.735 84.4817 117.807 84.4339 117.882C83.6386 119.119 83.0208 120.213 82.6522 121.045C82.2562 121.934 81.9422 122.919 82.5942 123.478C83.3656 124.139 84.4305 123.464 85.9017 122.162C87.5742 120.68 88.6221 120.264 89.0522 120.182C89.018 120.336 88.9327 120.588 88.7245 120.97L88.588 121.222C87.7073 122.841 87.3045 123.58 87.8473 124.245C88.0828 124.535 88.39 124.654 88.8064 124.654C89.3525 124.654 90.0796 124.449 91.066 124.153L94.1483 123.233C94.5784 123.103 94.8207 122.653 94.6944 122.227L94.691 122.231ZM84.9732 95.9387H88.0111V91.3511H84.9732V95.9387ZM83.3519 90.5433C83.3519 90.0968 83.7137 89.7355 84.1609 89.7355H88.8167C89.2638 89.7355 89.6256 90.0968 89.6256 90.5433V95.9387H92.189V87.3429L86.4888 83.5903L80.7919 87.3429V95.9387H83.3519V90.5433Z" fill="white"/>
<path d="M81.4303 67.7209C80.3073 67.7209 79.4949 67.4585 78.9965 66.937C78.4982 66.4155 78.249 65.6418 78.249 64.6228C78.249 63.9104 78.4095 63.2696 78.7269 62.7107C79.0443 62.1517 79.4608 61.603 79.9728 61.0644L86.6766 54.0637C87.6732 52.9935 88.3798 52.0733 88.8031 51.3098C89.2229 50.5429 89.4345 49.7795 89.4345 49.016C89.4345 48.048 89.1137 47.3186 88.4754 46.8346C87.8371 46.3507 86.9189 46.1087 85.7174 46.1087C85.103 46.1087 84.4545 46.1905 83.765 46.3575C83.0755 46.5245 82.3348 46.8108 81.5429 47.2198C80.8534 47.5265 80.2322 47.6152 79.686 47.489C79.1365 47.3629 78.6757 47.08 78.307 46.6472C77.935 46.2143 77.7063 45.7167 77.6176 45.1543C77.5288 44.592 77.6107 44.0398 77.8667 43.4911C78.1227 42.9423 78.5801 42.489 79.2457 42.1346C80.4199 41.4972 81.6385 41.0371 82.9048 40.7576C84.1678 40.4781 85.4409 40.335 86.7175 40.335C88.8099 40.335 90.5678 40.6417 91.9843 41.2518C93.4008 41.8619 94.4795 42.7515 95.2201 43.9103C95.9608 45.0725 96.3295 46.5074 96.3295 48.215C96.3295 49.2852 96.169 50.3316 95.8516 51.3507C95.5308 52.3698 95.0222 53.3923 94.319 54.4114C93.6159 55.4305 92.6772 56.5143 91.503 57.6629L85.2976 63.7843V62.0256H94.7593C95.7048 62.0256 96.425 62.2676 96.9234 62.7516C97.4217 63.2356 97.6709 63.9377 97.6709 64.8545C97.6709 65.7714 97.4217 66.4803 96.9234 66.9779C96.425 67.4755 95.7048 67.7243 94.7593 67.7243H81.4268L81.4303 67.7209Z" fill="white"/>
<defs>
<filter id="filter0_d_0_9" x="-1.52629e-05" y="0.000106841" width="187" height="186.822" filterUnits="userSpaceOnUse" color-interpolation-filters="sRGB">
<feFlood flood-opacity="0" result="BackgroundImageFix"/>
<feColorMatrix in="SourceAlpha" type="matrix" values="0 0 0 0 0 0 0 0 0 0 0 0 0 0 0 0 0 0 127 0" result="hardAlpha"/>
<feOffset dx="5.75" dy="5.75"/>
<feGaussianBlur stdDeviation="16.43"/>
<feColorMatrix type="matrix" values="0 0 0 0 0 0 0 0 0 0 0 0 0 0 0 0 0 0 0.3 0"/>
<feBlend mode="normal" in2="BackgroundImageFix" result="effect1_dropShadow_0_9"/>
<feBlend mode="normal" in="SourceGraphic" in2="effect1_dropShadow_0_9" result="shape"/>
</filter>
</defs>
</svg>
