<svg width="307" height="160" viewBox="0 0 307 160" fill="none" xmlns="http://www.w3.org/2000/svg">
<path d="M275.615 89.7975C272.247 88.9037 268.662 88.9736 265.361 90.1278C268.009 68.2451 248.371 45.2005 227.925 58.1373C226.505 48.3055 221.998 38.6485 214.33 33.0991C206.661 27.5497 195.629 27.0096 188.443 33.2623C188.221 22.4628 181.856 12.4638 173.316 6.79398C164.777 1.12414 154.363 -0.601255 144.358 0.175967C133.329 1.0348 122.41 5.59708 114.166 13.618C104.476 23.0457 102.788 35.524 103.511 49.2187C98.2849 48.1111 92.7864 47.7381 87.7 49.4363C73.2226 54.2706 70.625 75.6287 74.2647 89.1795C65.1225 87.1704 55.4165 85.4955 46.6359 88.8959C37.8554 92.2962 30.6731 102.559 33.3757 112.174C28.1999 109.896 22.8996 107.607 17.3156 107.3C11.7315 106.997 5.72352 109.038 2.46484 113.93C-1.92933 120.533 0.0616405 130.03 4.44025 136.645C10.2966 145.493 19.7615 151.046 29.6153 153.382C46.6282 157.412 65.3208 152.084 78.2506 139.512C75.8319 141.864 96.2511 154.346 98.1994 155.038C106.397 157.948 114.734 160.987 123.409 158.698C132.758 156.234 140.85 149.5 146.504 141.114C166.181 158.108 197.208 157.358 216.158 139.431C234.5 155.702 264.132 154.536 281.319 136.862C288.459 139.897 297.434 141.238 303.111 135.677C307.463 131.418 308.283 123.587 304.92 118.391C301.56 113.196 294.455 111.307 289.237 114.226C290.878 107.289 288.759 99.47 283.909 94.5774C281.592 92.2379 278.691 90.6097 275.607 89.7897L275.615 89.7975Z" fill="white"/>
<path d="M103.515 49.2226C102.788 35.5279 104.475 23.0496 114.17 13.6219C122.414 5.60098 133.337 1.0387 144.361 0.179874C154.367 -0.597349 164.78 1.12805 173.32 6.79789C156.397 4.17476 137.715 5.03748 124.21 16.3227C120.769 19.1985 117.728 22.7077 115.675 26.8503C113.369 31.5058 112.381 36.8492 112.478 42.1265C112.708 54.3872 118.836 66.0922 127.768 73.6973C136.701 81.3024 148.184 85.002 159.57 85.2779C147.954 88.1886 135.336 86.1445 125.031 79.6858C114.726 73.2271 104.192 62.0429 103.515 49.2265V49.2226Z" fill="#F5FBFF"/>
<path d="M188.443 33.2624C195.629 27.0096 206.661 27.5498 214.329 33.0991C221.998 38.6485 226.505 48.3055 227.924 58.1374C228.877 64.7321 222.927 70.3864 217.464 73.5341C212 76.6819 205.514 77.3503 199.378 76.4098C205.417 75.7492 210.32 70.4369 212.673 64.4134C215.683 56.715 215.115 47.3456 210.662 40.506C206.21 33.6665 195.971 31.261 188.443 33.2624Z" fill="#F5FBFF"/>
<path d="M265.361 90.1278C268.658 88.9736 272.247 88.9037 275.615 89.7975C278.699 90.6174 281.6 92.2418 283.917 94.5851C288.766 99.4816 290.886 107.297 289.245 114.233C294.463 111.315 301.568 113.204 304.928 118.399C308.287 123.595 307.471 131.425 303.119 135.685C297.442 141.246 288.467 139.905 281.327 136.87C264.14 154.544 234.508 155.714 216.165 139.439C197.216 157.365 166.192 158.115 146.512 141.121C140.854 149.508 132.766 156.242 123.417 158.706C114.742 160.995 106.404 157.956 98.2072 155.045C96.259 154.354 75.8397 141.871 78.2584 139.52C65.3287 152.092 46.636 157.42 29.6232 153.39C19.7694 151.054 10.3044 145.501 4.4481 136.652C0.0694851 130.038 -1.92153 120.541 2.47264 113.938C5.73132 109.045 11.7393 107.005 17.3234 107.308C22.9075 107.611 28.2116 109.9 33.3835 112.181C30.677 102.563 37.8632 92.304 46.6438 88.9037C55.4243 85.5033 65.1304 87.1782 74.2726 89.1873C70.6328 75.6326 73.2265 54.2745 87.7079 49.4441C90.7177 48.4414 93.8713 48.1733 97.0289 48.3404C94.9135 59.8472 95.9595 72.3605 102.022 82.0563C108.423 92.2962 121.181 98.3003 131.926 93.9945C142.74 104.537 157.968 109.617 172.422 107.506C186.876 105.396 200.3 96.1357 208.116 82.8763C216.259 88.8065 228.469 88.1964 235.049 80.3309C241.858 72.1895 238.478 63.9587 234.734 55.8057C234.636 55.5958 234.566 55.3937 234.489 55.1916C252.353 50.1902 267.729 70.6156 265.368 90.1356L265.361 90.1278Z" fill="#F5FBFF"/>
<path d="M275.615 89.7975C272.247 88.9037 268.662 88.9736 265.36 90.1278C267.721 70.604 252.345 50.1786 234.48 55.1839C241.227 55.6385 247.749 59.2332 252.042 64.8564C256.339 70.4796 258.567 77.7816 258.676 85.0603C258.718 87.8894 258.442 90.7612 257.459 93.3844C254.857 100.317 247.994 104.102 241.523 106.815C247.655 108.315 253.858 104.806 258.897 100.756C263.937 96.707 269.548 91.5929 275.611 89.7975H275.615Z" fill="#DFF2FD"/>
<path d="M78.2545 139.524C65.3248 152.096 46.6321 157.424 29.6192 153.394C19.7654 151.058 10.3005 145.505 4.44416 136.656C0.0655472 130.042 -1.92542 120.544 2.46875 113.942C2.41819 126.82 14.0647 137.636 25.575 141.125C37.0854 144.619 49.568 141.615 60.359 136.069C65.5387 133.407 70.5628 130.073 74.1637 125.258C77.7607 120.447 79.7594 113.942 78.3245 107.957C82.602 117.327 81.031 129.521 78.2506 139.524H78.2545Z" fill="#DFF2FD"/>
<path d="M146.512 141.125C166.188 158.119 197.216 157.369 216.165 139.443C234.508 155.714 264.139 154.548 281.327 136.874C288.467 139.909 297.442 141.25 303.119 135.689C307.471 131.429 308.291 123.599 304.927 118.403C301.949 129.047 287.724 133.454 279.344 126.964C281.903 122.938 283.229 118.022 283.069 113.145C273.908 124.349 259.391 130.182 245.653 128.188C231.914 126.191 219.354 116.425 213.276 103.006C212.922 111.773 214.069 120.607 216.647 128.931C198.608 148.474 169.311 153.635 146.508 141.125H146.512Z" fill="#DFF2FD"/>
</svg>
