<svg width="187" height="187" viewBox="0 0 187 187" fill="none" xmlns="http://www.w3.org/2000/svg">
<g filter="url(#filter0_d_0_15)">
<path d="M87.7485 148.202C121.234 148.202 148.38 121.096 148.38 87.6597C148.38 54.2232 121.234 27.1175 87.7485 27.1175C54.2629 27.1175 27.1175 54.2232 27.1175 87.6597C27.1175 121.096 54.2629 148.202 87.7485 148.202Z" fill="#287D7F"/>
</g>
<path d="M117.598 121.774L116.911 122.35C116.481 122.711 115.84 122.656 115.478 122.227L109.597 115.267C110.153 114.926 110.686 114.538 111.194 114.108C111.44 113.9 111.679 113.686 111.904 113.464L117.714 120.342C118.075 120.768 118.017 121.412 117.591 121.774H117.598ZM109.324 98.372C110.829 100.155 111.549 102.411 111.351 104.735C111.153 107.056 110.064 109.163 108.279 110.666C104.596 113.767 99.0768 113.297 95.9707 109.623C92.8645 105.949 93.3356 100.434 97.0152 97.3324C98.7969 95.8294 101.06 95.1102 103.384 95.3079C105.709 95.5056 107.818 96.5928 109.324 98.372ZM107.156 100.359C106.849 100.103 106.392 100.144 106.136 100.454L101.562 105.942L99.1656 103.103C98.9061 102.796 98.4522 102.759 98.145 103.018C97.8378 103.277 97.8002 103.73 98.0596 104.037L101.012 107.537C101.149 107.701 101.354 107.796 101.569 107.796C101.784 107.796 101.985 107.701 102.122 107.537L107.248 101.382C107.504 101.075 107.463 100.618 107.156 100.362V100.359ZM71.8998 129.572C70.6471 129.541 69.4969 128.883 68.9064 128.14C68.1862 127.237 67.8209 126.106 67.8209 124.954V79.9499H106.108V91.2145C105.351 91.01 104.569 90.8736 103.77 90.8055C103.388 90.7748 103.006 90.7578 102.627 90.7578C99.5069 90.7578 96.5134 91.845 94.1036 93.8798C91.3729 96.1804 89.8062 99.357 89.4717 102.653H86.1778C85.8126 102.653 85.4849 102.912 85.4337 103.273C85.3723 103.72 85.717 104.101 86.1539 104.101H89.4034C89.4034 104.555 89.4341 105.008 89.4819 105.461H86.1642C85.8501 105.461 85.5566 105.656 85.4644 105.956C85.3074 106.453 85.6795 106.91 86.1539 106.91H89.7243C90.1749 108.917 91.1033 110.85 92.5198 112.527C94.8033 115.23 98.005 116.883 101.531 117.183C101.913 117.213 102.296 117.23 102.674 117.23C103.845 117.23 104.999 117.077 106.112 116.777V129.568H72.8317M85.4235 87.5812C85.4235 87.98 85.7477 88.3038 86.1505 88.3038H100.842C101.207 88.3038 101.534 88.0447 101.582 87.6834C101.644 87.237 101.299 86.8552 100.865 86.8552H86.1505C85.7511 86.8552 85.4235 87.179 85.4235 87.5778V87.5812ZM85.4235 90.3863C85.4235 90.785 85.7477 91.1088 86.1505 91.1088H93.2912C93.6564 91.1088 93.9841 90.8498 94.0319 90.4885C94.0934 90.042 93.7486 89.6569 93.3151 89.6569H86.1505C85.7511 89.6569 85.4235 89.9807 85.4235 90.3828V90.3863ZM74.4667 88.982L72.5689 90.877C72.3265 91.119 72.2719 91.5587 72.4767 91.8348C72.6235 92.0325 72.8419 92.1313 73.0638 92.1313C73.2481 92.1313 73.4358 92.0597 73.5758 91.92L75.4907 90.0079L77.4055 91.92C77.5489 92.0632 77.7332 92.1313 77.9175 92.1313C78.136 92.1313 78.3545 92.0325 78.5047 91.8348C78.7095 91.5587 78.6583 91.119 78.4125 90.877L76.5147 88.982L78.4295 87.0699C78.747 86.7496 78.706 86.2076 78.3067 85.9452C78.0199 85.7577 77.6308 85.8157 77.3885 86.0611L75.4872 87.9595L73.5724 86.0474C73.2891 85.7646 72.8283 85.7646 72.545 86.0474C72.2616 86.3303 72.2616 86.7905 72.545 87.0734L74.4598 88.9854L74.4667 88.982ZM79.3716 115.983C79.0678 115.823 78.6889 115.918 78.4671 116.181L75.0333 120.301L73.6407 118.604C73.4086 118.321 73.0024 118.232 72.6917 118.423C72.306 118.658 72.2275 119.166 72.504 119.504L74.4735 121.903C74.61 122.07 74.8148 122.166 75.0299 122.166C75.2449 122.166 75.4531 122.07 75.5897 121.903L79.5969 117.091C79.887 116.743 79.7949 116.208 79.3716 115.983ZM79.5013 101.818C79.1941 101.562 78.7367 101.603 78.4807 101.913L75.0367 106.051L73.6441 104.354C73.412 104.071 73.0058 103.982 72.6952 104.173C72.3095 104.408 72.2309 104.916 72.5074 105.253L74.4735 107.649C74.61 107.816 74.8182 107.915 75.0333 107.915C75.2483 107.915 75.4531 107.82 75.5931 107.653L79.6003 102.844C79.8563 102.537 79.8154 102.08 79.5082 101.825L79.5013 101.818ZM94.0046 121.61C93.9124 121.31 93.6189 121.116 93.3049 121.116H86.1608C85.8467 121.116 85.5532 121.31 85.461 121.61C85.3074 122.108 85.676 122.564 86.1505 122.564H93.3151C93.7895 122.564 94.1582 122.108 94.0046 121.61ZM101.582 118.928C101.531 118.566 101.203 118.307 100.842 118.307H86.1744C85.8092 118.307 85.4815 118.566 85.4303 118.928C85.3689 119.374 85.7136 119.756 86.1505 119.756H100.865C101.299 119.756 101.647 119.374 101.582 118.928ZM110.259 113.004C109.597 113.563 108.89 114.04 108.139 114.432C108.139 114.432 108.139 114.432 108.136 114.432C108.129 114.432 108.126 114.439 108.119 114.439C107.641 114.688 107.149 114.906 106.648 115.086C106.61 115.1 106.573 115.114 106.535 115.124C104.989 115.662 103.33 115.877 101.65 115.734C98.5102 115.468 95.6566 113.996 93.6257 111.589C89.4273 106.624 90.0622 99.1729 95.0354 94.9773C97.4452 92.9459 100.5 91.9745 103.644 92.2438C104.644 92.329 105.617 92.5369 106.542 92.8573C106.572 92.8675 106.607 92.8777 106.641 92.8914C108.58 93.5833 110.31 94.7762 111.672 96.3883C113.624 98.6992 114.601 101.61 114.44 104.616C114.283 107.523 113.01 110.257 110.948 112.315L110.262 113.001L110.259 113.004ZM112.798 104.855C113.027 102.148 112.191 99.5138 110.436 97.4347C108.682 95.359 106.224 94.0877 103.511 93.8593C100.801 93.631 98.1621 94.4694 96.0833 96.2213C91.7928 99.8376 91.2466 106.269 94.8682 110.553C96.8786 112.936 99.7629 114.159 102.661 114.159C104.982 114.159 107.313 113.375 109.221 111.767C111.3 110.015 112.573 107.561 112.802 104.855H112.798Z" fill="white"/>
<path d="M86.6012 68.1435C85.2973 68.1435 83.9968 68.014 82.6929 67.7618C81.389 67.5062 80.266 67.1483 79.3205 66.6916C78.5013 66.3098 77.9347 65.8361 77.6138 65.2771C77.293 64.7181 77.1599 64.1421 77.2111 63.5559C77.2623 62.9697 77.4739 62.4482 77.8425 61.9881C78.2112 61.5279 78.6993 61.2178 79.2966 61.0508C79.8974 60.8838 80.58 60.969 81.3446 61.2996C82.2901 61.7086 83.1571 61.9881 83.949 62.1414C84.7409 62.2948 85.5328 62.3698 86.3247 62.3698C87.2428 62.3698 88.0108 62.2675 88.6218 62.063C89.2362 61.8585 89.6936 61.5484 90.0008 61.1257C90.308 60.7065 90.4616 60.1748 90.4616 59.5375C90.4616 58.6445 90.1476 57.9867 89.5229 57.5675C88.8983 57.1482 87.9836 56.9369 86.7821 56.9369H84.7136C83.7442 56.9369 83.0035 56.6949 82.4915 56.2109C81.9795 55.7269 81.7235 55.0385 81.7235 54.1455C81.7235 53.2525 81.9795 52.564 82.4915 52.08C83.0035 51.5961 83.7442 51.3541 84.7136 51.3541H86.0926C86.8333 51.3541 87.4647 51.2518 87.9904 51.0473C88.5126 50.8428 88.9154 50.5429 89.1987 50.1475C89.4786 49.7521 89.6185 49.2613 89.6185 48.6751C89.6185 47.8332 89.3182 47.1959 88.7174 46.763C88.1167 46.3302 87.2292 46.112 86.055 46.112C85.3382 46.112 84.6112 46.187 83.8705 46.3404C83.1298 46.4938 82.3379 46.7596 81.4948 47.1448C80.8292 47.4243 80.225 47.489 79.6755 47.3356C79.1259 47.1823 78.6788 46.8823 78.3341 46.4358C77.9893 45.9893 77.7777 45.4917 77.7026 44.943C77.6275 44.3942 77.7162 43.8523 77.9722 43.3172C78.2282 42.7821 78.7129 42.3356 79.4263 41.9777C80.4981 41.4426 81.6689 41.0336 82.9318 40.7541C84.1948 40.4747 85.4645 40.3315 86.7445 40.3315C88.7618 40.3315 90.4855 40.6246 91.9157 41.2109C93.3459 41.7971 94.4381 42.6458 95.1925 43.7535C95.9468 44.8612 96.3223 46.1973 96.3223 47.7515C96.3223 48.7705 96.1312 49.7147 95.7489 50.5838C95.3666 51.4495 94.8034 52.1721 94.0627 52.7447C93.322 53.3173 92.455 53.7331 91.4583 53.9887V53.4536C93.2469 53.7331 94.643 54.4795 95.6533 55.6929C96.6637 56.9028 97.1654 58.4161 97.1654 60.2259C97.1654 61.8585 96.7456 63.273 95.9025 64.4727C95.0594 65.6725 93.8477 66.5825 92.2639 67.2062C90.6801 67.8299 88.7891 68.1435 86.5943 68.1435H86.6012Z" fill="white"/>
<defs>
<filter id="filter0_d_0_15" x="0.000106841" y="0.000106841" width="187" height="186.822" filterUnits="userSpaceOnUse" color-interpolation-filters="sRGB">
<feFlood flood-opacity="0" result="BackgroundImageFix"/>
<feColorMatrix in="SourceAlpha" type="matrix" values="0 0 0 0 0 0 0 0 0 0 0 0 0 0 0 0 0 0 127 0" result="hardAlpha"/>
<feOffset dx="5.75" dy="5.75"/>
<feGaussianBlur stdDeviation="16.43"/>
<feColorMatrix type="matrix" values="0 0 0 0 0 0 0 0 0 0 0 0 0 0 0 0 0 0 0.3 0"/>
<feBlend mode="normal" in2="BackgroundImageFix" result="effect1_dropShadow_0_15"/>
<feBlend mode="normal" in="SourceGraphic" in2="effect1_dropShadow_0_15" result="shape"/>
</filter>
</defs>
</svg>
