<svg width="232" height="155" viewBox="0 0 232 155" fill="none" xmlns="http://www.w3.org/2000/svg">
<path d="M0 16C0 7.16345 7.16344 0 16 0H216C224.837 0 232 7.16344 232 16V139C232 147.837 224.837 155 216 155H16C7.16344 155 0 147.837 0 139V16Z" fill="white" fill-opacity="0.25"/>
<path d="M34.7759 135.225C34.0759 135.225 33.5425 135.042 33.1759 134.675C32.8092 134.308 32.6259 133.767 32.6259 133.05V119.425C32.6259 118.692 32.8092 118.133 33.1759 117.75C33.5425 117.35 34.0259 117.15 34.6259 117.15C35.1592 117.15 35.5759 117.25 35.8759 117.45C36.1759 117.65 36.5092 117.983 36.8759 118.45L44.8009 128.35H44.1009V119.3C44.1009 118.6 44.2759 118.067 44.6259 117.7C44.9925 117.333 45.5259 117.15 46.2259 117.15C46.9259 117.15 47.4509 117.333 47.8009 117.7C48.1675 118.067 48.3509 118.6 48.3509 119.3V133.15C48.3509 133.783 48.1842 134.292 47.8509 134.675C47.5175 135.042 47.0675 135.225 46.5009 135.225C45.9342 135.225 45.4842 135.125 45.1509 134.925C44.8342 134.708 44.4925 134.375 44.1259 133.925L36.2009 124H36.9009V133.05C36.9009 133.767 36.7175 134.308 36.3509 134.675C36.0009 135.042 35.4759 135.225 34.7759 135.225ZM57.9712 135.275C56.4712 135.275 55.1712 135.017 54.0712 134.5C52.9879 133.967 52.1545 133.217 51.5712 132.25C50.9879 131.283 50.6962 130.142 50.6962 128.825C50.6962 127.558 50.9712 126.45 51.5212 125.5C52.0879 124.533 52.8545 123.783 53.8212 123.25C54.8045 122.7 55.9212 122.425 57.1712 122.425C58.0879 122.425 58.9212 122.575 59.6712 122.875C60.4212 123.158 61.0629 123.583 61.5962 124.15C62.1295 124.7 62.5295 125.367 62.7962 126.15C63.0795 126.933 63.2212 127.808 63.2212 128.775C63.2212 129.108 63.1295 129.358 62.9462 129.525C62.7629 129.675 62.4712 129.75 62.0712 129.75H54.4212V127.65H59.9712L59.5712 127.975C59.5712 127.358 59.4879 126.858 59.3212 126.475C59.1545 126.092 58.9045 125.8 58.5712 125.6C58.2545 125.4 57.8545 125.3 57.3712 125.3C56.8545 125.3 56.4045 125.425 56.0212 125.675C55.6545 125.908 55.3712 126.258 55.1712 126.725C54.9712 127.192 54.8712 127.775 54.8712 128.475V128.7C54.8712 129.883 55.1295 130.733 55.6462 131.25C56.1795 131.75 56.9962 132 58.0962 132C58.4629 132 58.8795 131.958 59.3462 131.875C59.8295 131.775 60.2879 131.642 60.7212 131.475C61.1545 131.308 61.5295 131.283 61.8462 131.4C62.1629 131.5 62.4045 131.683 62.5712 131.95C62.7545 132.2 62.8545 132.492 62.8712 132.825C62.8879 133.142 62.8129 133.458 62.6462 133.775C62.4795 134.075 62.2045 134.308 61.8212 134.475C61.2379 134.742 60.6129 134.942 59.9462 135.075C59.2962 135.208 58.6379 135.275 57.9712 135.275ZM69.7384 135.275C68.6717 135.275 67.7967 135.083 67.1134 134.7C66.43 134.3 65.9134 133.708 65.5634 132.925C65.23 132.142 65.0634 131.15 65.0634 129.95V124.7C65.0634 123.967 65.255 123.417 65.6384 123.05C66.0217 122.667 66.5717 122.475 67.2884 122.475C68.005 122.475 68.555 122.667 68.9384 123.05C69.3217 123.417 69.5134 123.967 69.5134 124.7V130.075C69.5134 130.675 69.6384 131.125 69.8884 131.425C70.1384 131.725 70.53 131.875 71.0634 131.875C71.6634 131.875 72.155 131.658 72.5384 131.225C72.9217 130.792 73.1134 130.217 73.1134 129.5V124.7C73.1134 123.967 73.305 123.417 73.6884 123.05C74.0717 122.667 74.6217 122.475 75.3384 122.475C76.055 122.475 76.605 122.667 76.9884 123.05C77.3717 123.417 77.5634 123.967 77.5634 124.7V132.975C77.5634 134.475 76.8467 135.225 75.4134 135.225C74.7134 135.225 74.1717 135.033 73.7884 134.65C73.405 134.267 73.2134 133.708 73.2134 132.975V131.525L73.6134 132.75C73.2467 133.567 72.73 134.192 72.0634 134.625C71.4134 135.058 70.6384 135.275 69.7384 135.275ZM86.853 135.275C85.353 135.275 84.053 135.017 82.953 134.5C81.8697 133.967 81.0364 133.217 80.453 132.25C79.8697 131.283 79.578 130.142 79.578 128.825C79.578 127.558 79.853 126.45 80.403 125.5C80.9697 124.533 81.7364 123.783 82.703 123.25C83.6864 122.7 84.803 122.425 86.053 122.425C86.9697 122.425 87.803 122.575 88.553 122.875C89.303 123.158 89.9447 123.583 90.478 124.15C91.0114 124.7 91.4114 125.367 91.678 126.15C91.9614 126.933 92.103 127.808 92.103 128.775C92.103 129.108 92.0114 129.358 91.828 129.525C91.6447 129.675 91.353 129.75 90.953 129.75H83.303V127.65H88.853L88.453 127.975C88.453 127.358 88.3697 126.858 88.203 126.475C88.0364 126.092 87.7864 125.8 87.453 125.6C87.1364 125.4 86.7364 125.3 86.253 125.3C85.7364 125.3 85.2864 125.425 84.903 125.675C84.5364 125.908 84.253 126.258 84.053 126.725C83.853 127.192 83.753 127.775 83.753 128.475V128.7C83.753 129.883 84.0114 130.733 84.528 131.25C85.0614 131.75 85.878 132 86.978 132C87.3447 132 87.7614 131.958 88.228 131.875C88.7114 131.775 89.1697 131.642 89.603 131.475C90.0364 131.308 90.4114 131.283 90.728 131.4C91.0447 131.5 91.2864 131.683 91.453 131.95C91.6364 132.2 91.7364 132.492 91.753 132.825C91.7697 133.142 91.6947 133.458 91.528 133.775C91.3614 134.075 91.0864 134.308 90.703 134.475C90.1197 134.742 89.4947 134.942 88.828 135.075C88.178 135.208 87.5197 135.275 86.853 135.275ZM102.299 135.225C101.782 135.225 101.349 135.108 100.999 134.875C100.649 134.625 100.432 134.292 100.349 133.875C100.265 133.442 100.34 132.958 100.574 132.425L106.799 119.025C107.099 118.375 107.465 117.9 107.899 117.6C108.349 117.3 108.857 117.15 109.424 117.15C109.99 117.15 110.482 117.3 110.899 117.6C111.332 117.9 111.707 118.375 112.024 119.025L118.249 132.425C118.515 132.958 118.607 133.442 118.524 133.875C118.457 134.308 118.249 134.642 117.899 134.875C117.565 135.108 117.149 135.225 116.649 135.225C115.982 135.225 115.465 135.075 115.099 134.775C114.749 134.475 114.432 133.992 114.149 133.325L112.799 130.15L114.549 131.425H104.249L106.024 130.15L104.674 133.325C104.374 133.992 104.065 134.475 103.749 134.775C103.432 135.075 102.949 135.225 102.299 135.225ZM109.374 122.175L106.474 129.1L105.774 127.9H113.049L112.349 129.1L109.424 122.175H109.374ZM124.841 135.275C123.774 135.275 122.899 135.083 122.216 134.7C121.533 134.3 121.016 133.708 120.666 132.925C120.333 132.142 120.166 131.15 120.166 129.95V124.7C120.166 123.967 120.358 123.417 120.741 123.05C121.124 122.667 121.674 122.475 122.391 122.475C123.108 122.475 123.658 122.667 124.041 123.05C124.424 123.417 124.616 123.967 124.616 124.7V130.075C124.616 130.675 124.741 131.125 124.991 131.425C125.241 131.725 125.633 131.875 126.166 131.875C126.766 131.875 127.258 131.658 127.641 131.225C128.024 130.792 128.216 130.217 128.216 129.5V124.7C128.216 123.967 128.408 123.417 128.791 123.05C129.174 122.667 129.724 122.475 130.441 122.475C131.158 122.475 131.708 122.667 132.091 123.05C132.474 123.417 132.666 123.967 132.666 124.7V132.975C132.666 134.475 131.949 135.225 130.516 135.225C129.816 135.225 129.274 135.033 128.891 134.65C128.508 134.267 128.316 133.708 128.316 132.975V131.525L128.716 132.75C128.349 133.567 127.833 134.192 127.166 134.625C126.516 135.058 125.741 135.275 124.841 135.275ZM138.531 135.225C137.814 135.225 137.264 135.033 136.881 134.65C136.497 134.267 136.306 133.708 136.306 132.975V125.975H135.656C135.122 125.975 134.706 125.833 134.406 125.55C134.122 125.267 133.981 124.858 133.981 124.325C133.981 123.792 134.122 123.392 134.406 123.125C134.706 122.842 135.122 122.7 135.656 122.7H137.581L136.306 123.875V123.175C136.306 121.325 136.764 119.942 137.681 119.025C138.614 118.092 139.997 117.533 141.831 117.35L142.556 117.275C143.089 117.208 143.514 117.275 143.831 117.475C144.147 117.658 144.364 117.908 144.481 118.225C144.597 118.525 144.622 118.842 144.556 119.175C144.506 119.508 144.381 119.792 144.181 120.025C143.981 120.258 143.714 120.392 143.381 120.425L143.031 120.45C142.181 120.517 141.589 120.7 141.256 121C140.922 121.3 140.756 121.742 140.756 122.325V123.15L140.206 122.7H142.181C142.731 122.7 143.147 122.842 143.431 123.125C143.714 123.392 143.856 123.792 143.856 124.325C143.856 124.858 143.714 125.267 143.431 125.55C143.147 125.833 142.731 125.975 142.181 125.975H140.756V132.975C140.756 134.475 140.014 135.225 138.531 135.225ZM151.146 139.775C150.229 139.775 149.371 139.708 148.571 139.575C147.771 139.458 147.079 139.283 146.496 139.05C146.012 138.883 145.671 138.642 145.471 138.325C145.271 138.008 145.179 137.675 145.196 137.325C145.212 136.975 145.304 136.658 145.471 136.375C145.654 136.092 145.896 135.883 146.196 135.75C146.496 135.633 146.829 135.642 147.196 135.775C147.929 136.075 148.596 136.267 149.196 136.35C149.796 136.45 150.304 136.5 150.721 136.5C151.737 136.5 152.496 136.283 152.996 135.85C153.512 135.433 153.771 134.775 153.771 133.875V132.3H153.971C153.721 133 153.212 133.575 152.446 134.025C151.679 134.458 150.846 134.675 149.946 134.675C148.846 134.675 147.887 134.425 147.071 133.925C146.254 133.408 145.612 132.692 145.146 131.775C144.696 130.858 144.471 129.783 144.471 128.55C144.471 127.617 144.604 126.775 144.871 126.025C145.137 125.275 145.504 124.633 145.971 124.1C146.454 123.567 147.029 123.158 147.696 122.875C148.379 122.575 149.129 122.425 149.946 122.425C150.879 122.425 151.712 122.642 152.446 123.075C153.196 123.508 153.696 124.075 153.946 124.775L153.696 125.8V124.7C153.696 123.983 153.887 123.433 154.271 123.05C154.671 122.667 155.221 122.475 155.921 122.475C156.621 122.475 157.154 122.667 157.521 123.05C157.904 123.433 158.096 123.983 158.096 124.7V133.35C158.096 135.483 157.496 137.083 156.296 138.15C155.096 139.233 153.379 139.775 151.146 139.775ZM151.321 131.4C151.821 131.4 152.246 131.292 152.596 131.075C152.946 130.842 153.221 130.517 153.421 130.1C153.621 129.667 153.721 129.15 153.721 128.55C153.721 127.65 153.504 126.95 153.071 126.45C152.637 125.95 152.054 125.7 151.321 125.7C150.854 125.7 150.437 125.817 150.071 126.05C149.704 126.267 149.421 126.592 149.221 127.025C149.037 127.442 148.946 127.95 148.946 128.55C148.946 129.45 149.162 130.15 149.596 130.65C150.029 131.15 150.604 131.4 151.321 131.4ZM164.97 135.275C164.02 135.275 163.178 135.1 162.445 134.75C161.728 134.4 161.162 133.925 160.745 133.325C160.345 132.708 160.145 132.008 160.145 131.225C160.145 130.325 160.378 129.617 160.845 129.1C161.312 128.583 162.062 128.217 163.095 128C164.128 127.767 165.503 127.65 167.22 127.65H168.595V129.75H167.22C166.57 129.75 166.028 129.8 165.595 129.9C165.178 129.983 164.87 130.125 164.67 130.325C164.47 130.508 164.37 130.75 164.37 131.05C164.37 131.433 164.503 131.75 164.77 132C165.053 132.25 165.453 132.375 165.97 132.375C166.387 132.375 166.753 132.283 167.07 132.1C167.403 131.917 167.67 131.667 167.87 131.35C168.07 131.017 168.17 130.633 168.17 130.2V127.3C168.17 126.7 168.012 126.275 167.695 126.025C167.395 125.775 166.87 125.65 166.12 125.65C165.72 125.65 165.27 125.7 164.77 125.8C164.27 125.883 163.712 126.042 163.095 126.275C162.645 126.442 162.262 126.467 161.945 126.35C161.628 126.233 161.378 126.033 161.195 125.75C161.028 125.467 160.945 125.158 160.945 124.825C160.962 124.492 161.07 124.175 161.27 123.875C161.487 123.575 161.812 123.342 162.245 123.175C163.045 122.875 163.778 122.675 164.445 122.575C165.128 122.475 165.753 122.425 166.32 122.425C167.687 122.425 168.812 122.625 169.695 123.025C170.595 123.408 171.262 124.008 171.695 124.825C172.145 125.625 172.37 126.658 172.37 127.925V132.975C172.37 133.708 172.195 134.267 171.845 134.65C171.495 135.033 170.987 135.225 170.32 135.225C169.637 135.225 169.112 135.033 168.745 134.65C168.395 134.267 168.22 133.708 168.22 132.975V132.325L168.37 132.675C168.287 133.208 168.095 133.667 167.795 134.05C167.495 134.433 167.103 134.733 166.62 134.95C166.137 135.167 165.587 135.275 164.97 135.275ZM183.004 135.275C182.054 135.275 181.204 135.05 180.454 134.6C179.721 134.133 179.237 133.525 179.004 132.775L179.279 131.75V132.975C179.279 133.708 179.087 134.267 178.704 134.65C178.337 135.033 177.804 135.225 177.104 135.225C176.387 135.225 175.837 135.033 175.454 134.65C175.087 134.267 174.904 133.708 174.904 132.975V119.4C174.904 118.667 175.096 118.108 175.479 117.725C175.862 117.342 176.404 117.15 177.104 117.15C177.821 117.15 178.371 117.342 178.754 117.725C179.154 118.108 179.354 118.667 179.354 119.4V124.75H179.054C179.304 124.067 179.796 123.508 180.529 123.075C181.262 122.642 182.087 122.425 183.004 122.425C184.071 122.425 185.004 122.683 185.804 123.2C186.621 123.717 187.254 124.45 187.704 125.4C188.154 126.35 188.379 127.5 188.379 128.85C188.379 130.167 188.154 131.308 187.704 132.275C187.254 133.242 186.621 133.983 185.804 134.5C185.004 135.017 184.071 135.275 183.004 135.275ZM181.604 132C182.054 132 182.446 131.892 182.779 131.675C183.129 131.442 183.404 131.1 183.604 130.65C183.804 130.183 183.904 129.583 183.904 128.85C183.904 127.733 183.687 126.933 183.254 126.45C182.821 125.95 182.271 125.7 181.604 125.7C181.154 125.7 180.754 125.808 180.404 126.025C180.054 126.242 179.779 126.583 179.579 127.05C179.379 127.5 179.279 128.1 179.279 128.85C179.279 129.95 179.496 130.75 179.929 131.25C180.362 131.75 180.921 132 181.604 132ZM197.107 135.275C195.607 135.275 194.307 135.017 193.207 134.5C192.124 133.967 191.29 133.217 190.707 132.25C190.124 131.283 189.832 130.142 189.832 128.825C189.832 127.558 190.107 126.45 190.657 125.5C191.224 124.533 191.99 123.783 192.957 123.25C193.94 122.7 195.057 122.425 196.307 122.425C197.224 122.425 198.057 122.575 198.807 122.875C199.557 123.158 200.199 123.583 200.732 124.15C201.265 124.7 201.665 125.367 201.932 126.15C202.215 126.933 202.357 127.808 202.357 128.775C202.357 129.108 202.265 129.358 202.082 129.525C201.899 129.675 201.607 129.75 201.207 129.75H193.557V127.65H199.107L198.707 127.975C198.707 127.358 198.624 126.858 198.457 126.475C198.29 126.092 198.04 125.8 197.707 125.6C197.39 125.4 196.99 125.3 196.507 125.3C195.99 125.3 195.54 125.425 195.157 125.675C194.79 125.908 194.507 126.258 194.307 126.725C194.107 127.192 194.007 127.775 194.007 128.475V128.7C194.007 129.883 194.265 130.733 194.782 131.25C195.315 131.75 196.132 132 197.232 132C197.599 132 198.015 131.958 198.482 131.875C198.965 131.775 199.424 131.642 199.857 131.475C200.29 131.308 200.665 131.283 200.982 131.4C201.299 131.5 201.54 131.683 201.707 131.95C201.89 132.2 201.99 132.492 202.007 132.825C202.024 133.142 201.949 133.458 201.782 133.775C201.615 134.075 201.34 134.308 200.957 134.475C200.374 134.742 199.749 134.942 199.082 135.075C198.432 135.208 197.774 135.275 197.107 135.275Z" fill="#EF7C2E"/>
<g filter="url(#filter0_d_69_10664)">
<circle cx="116" cy="62" r="36" fill="#EF7C2E"/>
</g>
<line x1="116" y1="44" x2="116" y2="79" stroke="white" stroke-width="10" stroke-linecap="round"/>
<line x1="99" y1="62" x2="134" y2="62" stroke="white" stroke-width="10" stroke-linecap="round"/>
<rect x="1" y="1" width="230" height="153" rx="16" stroke="white" stroke-width="2" stroke-dasharray="10 10"/>
<defs>
<filter id="filter0_d_69_10664" x="75.5" y="21.5" width="84" height="84" filterUnits="userSpaceOnUse" color-interpolation-filters="sRGB">
<feFlood flood-opacity="0" result="BackgroundImageFix"/>
<feColorMatrix in="SourceAlpha" type="matrix" values="0 0 0 0 0 0 0 0 0 0 0 0 0 0 0 0 0 0 127 0" result="hardAlpha"/>
<feOffset dx="1.5" dy="1.5"/>
<feGaussianBlur stdDeviation="3"/>
<feComposite in2="hardAlpha" operator="out"/>
<feColorMatrix type="matrix" values="0 0 0 0 0 0 0 0 0 0 0 0 0 0 0 0 0 0 0.25 0"/>
<feBlend mode="normal" in2="BackgroundImageFix" result="effect1_dropShadow_69_10664"/>
<feBlend mode="normal" in="SourceGraphic" in2="effect1_dropShadow_69_10664" result="shape"/>
</filter>
</defs>
</svg>
