<svg width="187" height="187" viewBox="0 0 187 187" fill="none" xmlns="http://www.w3.org/2000/svg">
<g filter="url(#filter0_d_0_21)">
<path d="M87.7484 148.202C121.234 148.202 148.38 121.096 148.38 87.6597C148.38 54.2231 121.234 27.1175 87.7484 27.1175C54.2628 27.1175 27.1173 54.2231 27.1173 87.6597C27.1173 121.096 54.2628 148.202 87.7484 148.202Z" fill="#287D7F"/>
</g>
<path d="M112.956 86.6576V121.845C112.956 125.421 110.041 128.331 106.46 128.331H69.5996C66.019 128.331 63.1041 125.421 63.1041 121.845V86.6576C63.1041 83.0788 66.019 80.1681 69.5996 80.1681H76.2283C77.0885 80.1681 77.7848 80.8634 77.7848 81.7223C77.7848 82.5812 77.0851 83.2765 76.2283 83.2765H69.5996C67.7359 83.2765 66.2204 84.7898 66.2204 86.6542V100.581H76.0952C76.6516 100.581 77.167 100.877 77.4435 101.358L83.3076 111.494H92.4895L98.3536 101.358C98.6335 100.877 99.1455 100.581 99.7018 100.581H109.843V86.6542C109.843 84.7898 108.327 83.2765 106.464 83.2765H99.835C98.9748 83.2765 98.2785 82.5812 98.2785 81.7223C98.2785 80.8634 98.9748 80.1681 99.835 80.1681H106.464C110.044 80.1681 112.959 83.0788 112.959 86.6576H112.956ZM77.1124 94.5956L86.9257 104.395C87.2295 104.698 87.6289 104.851 88.0282 104.851C88.4276 104.851 88.8269 104.698 89.1307 104.395L98.9441 94.5956C99.5517 93.9889 99.5517 93.0039 98.9441 92.3938C98.3365 91.7871 97.35 91.7871 96.7391 92.3938L89.5847 99.5377V78.2083C89.5847 77.3494 88.8884 76.6541 88.0282 76.6541C87.1681 76.6541 86.4717 77.3494 86.4717 78.2083V99.5377L79.3174 92.3938C78.7098 91.7871 77.7234 91.7871 77.1124 92.3938C76.5048 93.0005 76.5048 93.9855 77.1124 94.5922V94.5956Z" fill="white"/>
<path d="M81.9286 67.7209C80.9831 67.7209 80.2628 67.472 79.7645 66.9744C79.2662 66.4768 79.017 65.7679 79.017 64.851C79.017 63.9342 79.2662 63.2321 79.7645 62.7481C80.2628 62.2641 80.9831 62.0221 81.9286 62.0221H85.376V46.3779H88.5948L83.0413 49.7828C82.3757 50.1918 81.7511 50.352 81.164 50.26C80.5769 50.1714 80.0785 49.9225 79.6689 49.5135C79.2593 49.1045 78.9931 48.6069 78.8634 48.0207C78.7337 47.4345 78.7883 46.8482 79.017 46.262C79.2457 45.6758 79.7065 45.1781 80.396 44.7691L85.6832 41.4801C86.2464 41.1222 86.8267 40.8564 87.4274 40.6757C88.0282 40.4985 88.6596 40.4065 89.3252 40.4065C90.2946 40.4065 91.049 40.6553 91.5849 41.1529C92.1208 41.6505 92.3904 42.3697 92.3904 43.3138V62.0187H95.4556C96.4011 62.0187 97.1213 62.2607 97.6197 62.7447C98.118 63.2287 98.3672 63.9308 98.3672 64.8476C98.3672 65.7645 98.118 66.4734 97.6197 66.971C97.1213 67.4686 96.4011 67.7175 95.4556 67.7175H81.932L81.9286 67.7209Z" fill="white"/>
<defs>
<filter id="filter0_d_0_21" x="-1.52629e-05" y="0.000106841" width="187" height="186.822" filterUnits="userSpaceOnUse" color-interpolation-filters="sRGB">
<feFlood flood-opacity="0" result="BackgroundImageFix"/>
<feColorMatrix in="SourceAlpha" type="matrix" values="0 0 0 0 0 0 0 0 0 0 0 0 0 0 0 0 0 0 127 0" result="hardAlpha"/>
<feOffset dx="5.75" dy="5.75"/>
<feGaussianBlur stdDeviation="16.43"/>
<feColorMatrix type="matrix" values="0 0 0 0 0 0 0 0 0 0 0 0 0 0 0 0 0 0 0.3 0"/>
<feBlend mode="normal" in2="BackgroundImageFix" result="effect1_dropShadow_0_21"/>
<feBlend mode="normal" in="SourceGraphic" in2="effect1_dropShadow_0_21" result="shape"/>
</filter>
</defs>
</svg>
