<svg width="244" height="159" viewBox="0 0 244 159" fill="none" xmlns="http://www.w3.org/2000/svg">
<g clip-path="url(#clip0_61_8108)">
<g filter="url(#filter0_d_61_8108)">
<path d="M187.539 24.3798H8.59948C3.85012 24.3798 0 28.2323 0 32.9846V112.068C0 116.821 3.85012 120.673 8.59948 120.673H187.539C192.288 120.673 196.138 116.821 196.138 112.068V32.9846C196.138 28.2323 192.288 24.3798 187.539 24.3798Z" fill="#EACCB2"/>
<g style="mix-blend-mode:multiply">
<path d="M187.542 117.616H8.59948C3.84835 117.616 0 113.765 0 109.011V112.072C0 116.822 3.84835 120.677 8.59948 120.677H187.542C192.29 120.677 196.142 116.826 196.142 112.072V109.011C196.142 113.762 192.293 117.616 187.542 117.616Z" fill="#EACCB2"/>
</g>
<g style="mix-blend-mode:multiply">
<path d="M179.014 75.5872H17.1282C15.4394 75.5872 14.0693 74.2162 14.0693 72.5265C14.0693 70.8367 15.4394 69.4657 17.1282 69.4657H179.014C180.702 69.4657 182.072 70.8367 182.072 72.5265C182.072 74.2162 180.702 75.5872 179.014 75.5872Z" fill="#EACCB2"/>
</g>
<g style="mix-blend-mode:multiply">
<path d="M179.014 73.8195H17.1282C15.7475 73.8195 14.5791 72.902 14.2003 71.6444C14.1154 71.9243 14.0693 72.2218 14.0693 72.5265C14.0693 74.2163 15.4394 75.5873 17.1282 75.5873H179.014C180.702 75.5873 182.072 74.2163 182.072 72.5265C182.072 72.2183 182.026 71.9243 181.941 71.6444C181.563 72.902 180.394 73.8195 179.014 73.8195Z" fill="#EACCB2"/>
</g>
<path d="M24.4137 62.0547C32.6709 62.0547 39.3646 55.3568 39.3646 47.0946C39.3646 38.8323 32.6709 32.1344 24.4137 32.1344C16.1566 32.1344 9.46289 38.8323 9.46289 47.0946C9.46289 55.3568 16.1566 62.0547 24.4137 62.0547Z" fill="#D8340E"/>
<path d="M61.2409 62.0547C69.498 62.0547 76.1917 55.3568 76.1917 47.0946C76.1917 38.8323 69.498 32.1344 61.2409 32.1344C52.9838 32.1344 46.29 38.8323 46.29 47.0946C46.29 55.3568 52.9838 62.0547 61.2409 62.0547Z" fill="#F17708"/>
<path d="M98.071 62.0547C106.328 62.0547 113.022 55.3568 113.022 47.0946C113.022 38.8323 106.328 32.1344 98.071 32.1344C89.8138 32.1344 83.1201 38.8323 83.1201 47.0946C83.1201 55.3568 89.8138 62.0547 98.071 62.0547Z" fill="#F7C90D"/>
<path d="M134.897 62.0547C143.154 62.0547 149.848 55.3568 149.848 47.0946C149.848 38.8323 143.154 32.1344 134.897 32.1344C126.64 32.1344 119.946 38.8323 119.946 47.0946C119.946 55.3568 126.64 62.0547 134.897 62.0547Z" fill="#668903"/>
<path d="M171.724 62.0547C179.981 62.0547 186.675 55.3568 186.675 47.0946C186.675 38.8323 179.981 32.1344 171.724 32.1344C163.467 32.1344 156.773 38.8323 156.773 47.0946C156.773 55.3568 163.467 62.0547 171.724 62.0547Z" fill="#25A3C1"/>
<g style="mix-blend-mode:multiply" opacity="0.3">
<path d="M24.4137 59.8902C16.5188 59.8902 10.0612 53.7687 9.50537 46.0106C9.48059 46.3684 9.46289 46.7297 9.46289 47.091C9.46289 55.3522 16.1577 62.0512 24.4137 62.0512C32.6698 62.0512 39.3646 55.3522 39.3646 47.091C39.3646 46.7261 39.3469 46.3684 39.3221 46.0106C38.7663 53.7687 32.3087 59.8902 24.4137 59.8902Z" fill="#D8340E"/>
</g>
<g style="mix-blend-mode:multiply" opacity="0.3">
<path d="M61.2409 59.8902C53.3459 59.8902 46.8884 53.7687 46.3325 46.0106C46.3077 46.3684 46.29 46.7297 46.29 47.091C46.29 55.3522 52.9848 62.0512 61.2409 62.0512C69.4969 62.0512 76.1917 55.3522 76.1917 47.091C76.1917 46.7261 76.174 46.3684 76.1492 46.0106C75.5934 53.7687 69.1358 59.8902 61.2409 59.8902Z" fill="#F17708"/>
</g>
<g style="mix-blend-mode:multiply" opacity="0.3">
<path d="M98.071 59.8902C90.176 59.8902 83.7184 53.7687 83.1626 46.0106C83.1378 46.3684 83.1201 46.7297 83.1201 47.091C83.1201 55.3522 89.8149 62.0512 98.071 62.0512C106.327 62.0512 113.022 55.3522 113.022 47.091C113.022 46.7261 113.004 46.3684 112.979 46.0106C112.423 53.7687 105.966 59.8902 98.071 59.8902Z" fill="#F7C90D"/>
</g>
<g style="mix-blend-mode:multiply" opacity="0.3">
<path d="M134.897 59.8902C127.002 59.8902 120.545 53.7687 119.989 46.0106C119.964 46.3684 119.946 46.7297 119.946 47.091C119.946 55.3522 126.641 62.0512 134.897 62.0512C143.153 62.0512 149.848 55.3522 149.848 47.091C149.848 46.7261 149.83 46.3684 149.805 46.0106C149.25 53.7687 142.792 59.8902 134.897 59.8902Z" fill="#668903"/>
</g>
<g style="mix-blend-mode:multiply" opacity="0.3">
<path d="M171.724 59.8902C163.829 59.8902 157.372 53.7687 156.816 46.0106C156.791 46.3684 156.773 46.7297 156.773 47.091C156.773 55.3522 163.468 62.0512 171.724 62.0512C179.98 62.0512 186.675 55.3522 186.675 47.091C186.675 46.7261 186.657 46.3684 186.633 46.0106C186.077 53.7687 179.619 59.8902 171.724 59.8902Z" fill="#25A3C1"/>
</g>
<path d="M24.4137 112.32C32.6709 112.32 39.3646 105.622 39.3646 97.3597C39.3646 89.0974 32.6709 82.3995 24.4137 82.3995C16.1566 82.3995 9.46289 89.0974 9.46289 97.3597C9.46289 105.622 16.1566 112.32 24.4137 112.32Z" fill="#4858B7"/>
<path d="M61.2409 112.32C69.498 112.32 76.1917 105.622 76.1917 97.3597C76.1917 89.0974 69.498 82.3995 61.2409 82.3995C52.9838 82.3995 46.29 89.0974 46.29 97.3597C46.29 105.622 52.9838 112.32 61.2409 112.32Z" fill="#AF1B7E"/>
<path d="M98.071 112.32C106.328 112.32 113.022 105.622 113.022 97.3597C113.022 89.0974 106.328 82.3995 98.071 82.3995C89.8138 82.3995 83.1201 89.0974 83.1201 97.3597C83.1201 105.622 89.8138 112.32 98.071 112.32Z" fill="#891CAD"/>
<path d="M134.897 112.32C143.154 112.32 149.848 105.622 149.848 97.3597C149.848 89.0974 143.154 82.3995 134.897 82.3995C126.64 82.3995 119.946 89.0974 119.946 97.3597C119.946 105.622 126.64 112.32 134.897 112.32Z" fill="#7F4426"/>
<path d="M172.326 111.859C180.583 111.859 187.277 105.161 187.277 96.8992C187.277 88.6369 180.583 81.939 172.326 81.939C164.069 81.939 157.375 88.6369 157.375 96.8992C157.375 105.161 164.069 111.859 172.326 111.859Z" fill="#332621"/>
<g style="mix-blend-mode:multiply" opacity="0.3">
<path d="M24.4137 110.428C16.4728 110.428 9.98332 104.236 9.49475 96.4138C9.47351 96.7256 9.46289 97.0408 9.46289 97.3597C9.46289 105.621 16.1577 112.32 24.4137 112.32C32.6698 112.32 39.3646 105.621 39.3646 97.3597C39.3646 97.0408 39.3504 96.7256 39.3327 96.4138C38.8441 104.236 32.3547 110.428 24.4137 110.428Z" fill="#4858B7"/>
</g>
<g style="mix-blend-mode:multiply" opacity="0.3">
<path d="M61.2409 110.428C53.2999 110.428 46.8105 104.236 46.3219 96.4138C46.3007 96.7256 46.29 97.0408 46.29 97.3597C46.29 105.621 52.9848 112.32 61.2409 112.32C69.4969 112.32 76.1917 105.621 76.1917 97.3597C76.1917 97.0408 76.1776 96.7256 76.1599 96.4138C75.6713 104.236 69.1819 110.428 61.2409 110.428Z" fill="#AF1B7E"/>
</g>
<g style="mix-blend-mode:multiply" opacity="0.3">
<path d="M98.071 110.428C90.13 110.428 83.6405 104.236 83.152 96.4138C83.1307 96.7256 83.1201 97.0408 83.1201 97.3597C83.1201 105.621 89.8149 112.32 98.071 112.32C106.327 112.32 113.022 105.621 113.022 97.3597C113.022 97.0408 113.008 96.7256 112.99 96.4138C112.501 104.236 106.012 110.428 98.071 110.428Z" fill="#891CAD"/>
</g>
<g style="mix-blend-mode:multiply" opacity="0.3">
<path d="M134.897 110.428C126.956 110.428 120.467 104.236 119.978 96.4138C119.957 96.7256 119.946 97.0408 119.946 97.3597C119.946 105.621 126.641 112.32 134.897 112.32C143.153 112.32 149.848 105.621 149.848 97.3597C149.848 97.0408 149.834 96.7256 149.816 96.4138C149.328 104.236 142.838 110.428 134.897 110.428Z" fill="#7F4426"/>
</g>
<g style="mix-blend-mode:multiply" opacity="0.3">
<path d="M172.326 109.968C164.385 109.968 157.895 103.775 157.407 95.9533C157.386 96.2651 157.375 96.5803 157.375 96.8992C157.375 105.16 164.07 111.859 172.326 111.859C180.582 111.859 187.277 105.16 187.277 96.8992C187.277 96.5803 187.263 96.2651 187.245 95.9533C186.756 103.775 180.267 109.968 172.326 109.968Z" fill="#332621"/>
</g>
<path d="M159.772 136.615C159.772 136.615 157.63 145.545 150.322 150.048C146.244 152.563 140.555 154.356 136.469 156.07C133.233 157.431 131.063 159 131.063 159C131.063 159 129.47 145.914 132.755 139.112C136.395 131.588 145.277 126.66 145.277 126.66L159.768 136.615H159.772Z" fill="#332621"/>
<path d="M176.049 112.71C176.049 112.71 196.137 88.3511 211.626 63.8402C225.115 42.5034 246.987 2.41602 243.659 0.127533C240.151 -2.28494 212.979 29.8176 195.758 52.9398C175.947 79.5443 161.58 102.769 161.58 102.769L176.053 112.71H176.049Z" fill="#F17708"/>
<g style="mix-blend-mode:multiply" opacity="0.5">
<path d="M207.842 69.363C205.895 72.445 203.877 75.5235 201.834 78.5488C205.151 73.7876 208.486 68.8175 211.63 63.8402C217.404 54.7004 224.719 42.1244 230.932 30.5509C224.124 42.9817 214.855 58.2642 207.842 69.363Z" fill="#F17708"/>
<path d="M161.58 102.773L162.724 103.559C168.622 95.3759 181.548 79.3636 195.461 60.6802C212.681 37.5545 234.015 8.99098 237.524 11.3999C238.561 12.112 239.443 13.7203 236.61 19.6186C241.847 9.12205 245.093 1.1159 243.659 0.131074C240.151 -2.2814 212.979 29.8211 195.758 52.9433C175.947 79.5478 161.58 102.773 161.58 102.773Z" fill="#F17708"/>
</g>
<path d="M145.208 126.627L159.681 136.565L177.792 110.157L163.319 100.219L145.208 126.627Z" fill="#8E8275"/>
<g style="mix-blend-mode:screen" opacity="0.4">
<path d="M146.71 127.659L149.746 129.744L167.857 103.336L164.821 101.252L146.71 127.659Z" fill="#8E8275"/>
</g>
<g style="mix-blend-mode:multiply" opacity="0.3">
<path d="M149.37 134.386C152.482 135.098 156.075 137.497 159.021 138.907C159.552 137.525 159.771 136.618 159.771 136.618L145.281 126.664C145.281 126.664 137.648 130.167 132.759 139.116C130.365 143.498 130.238 152.606 130.911 157.424C132.791 151.812 132.472 145.733 136.975 139.516C140.905 134.092 145.507 133.504 149.37 134.39V134.386Z" fill="#332621"/>
</g>
</g>
</g>
<defs>
<filter id="filter0_d_61_8108" x="-12" y="-12.0009" width="267.999" height="183.001" filterUnits="userSpaceOnUse" color-interpolation-filters="sRGB">
<feFlood flood-opacity="0" result="BackgroundImageFix"/>
<feColorMatrix in="SourceAlpha" type="matrix" values="0 0 0 0 0 0 0 0 0 0 0 0 0 0 0 0 0 0 127 0" result="hardAlpha"/>
<feOffset/>
<feGaussianBlur stdDeviation="6"/>
<feComposite in2="hardAlpha" operator="out"/>
<feColorMatrix type="matrix" values="0 0 0 0 1 0 0 0 0 1 0 0 0 0 1 0 0 0 1 0"/>
<feBlend mode="normal" in2="BackgroundImageFix" result="effect1_dropShadow_61_8108"/>
<feBlend mode="normal" in="SourceGraphic" in2="effect1_dropShadow_61_8108" result="shape"/>
</filter>
<clipPath id="clip0_61_8108">
<rect width="244" height="159" fill="white"/>
</clipPath>
</defs>
</svg>
