<svg width="56" height="88" viewBox="0 0 56 88" fill="none" xmlns="http://www.w3.org/2000/svg">
<path d="M0 0H56V80C56 84.4183 52.4183 88 48 88H8C3.58172 88 0 84.4183 0 80V0Z" fill="#544C3B"/>
<path d="M17.1001 67.4012C17.7775 66.4558 19.205 65.6248 18.6577 64.382C17.8999 62.6628 16.6446 61.908 14.8879 62.1214C14.4554 62.1748 14.0612 61.866 14.0077 61.4315C14.0038 61.3971 14 61.3666 14 61.3323V58.3665C14 57.9357 14.3253 57.5736 14.7578 57.5317L16.6102 57.3296C16.6446 57.3296 16.6829 57.3182 16.7173 57.3067C18.6884 56.6511 19.1361 54.8784 18.0454 53.2392C17.9803 53.1439 17.766 52.8123 17.3986 52.2519C17.1843 51.924 17.2302 51.4933 17.5057 51.2188L20.2116 48.5236C20.3685 48.3635 20.6288 48.3673 20.7895 48.5236C20.7895 48.5236 20.7933 48.5274 20.7972 48.5312C21.2947 49.0497 21.9109 49.4805 22.6419 49.8274C23.4265 50.201 24.7507 49.6139 25.2253 49.2975C25.918 48.84 25.8376 47.8031 25.8797 46.6747C25.895 46.2973 26.205 46 26.5801 46H29.9863C30.3155 46 30.5834 46.2668 30.5796 46.5909C30.5796 46.6099 30.5796 46.629 30.5796 46.6481C30.4112 48.3749 31.2952 49.5948 33.228 50.3115C33.5724 50.4373 33.9552 50.3801 34.2422 50.1552L36.018 48.7943C36.3395 48.5503 36.795 48.5808 37.082 48.8667L39.6233 51.398C39.895 51.6648 39.895 52.0994 39.6233 52.37C39.6118 52.3815 39.6003 52.3929 39.585 52.4044C38.7851 53.0905 38.1268 53.6128 37.8321 54.4438C37.3882 55.7018 37.8589 56.6625 39.2444 57.322C39.3171 57.3563 39.3937 57.3792 39.474 57.383L41.3647 57.5698C41.7244 57.6079 42 57.9129 42 58.275V61.5954C42 61.8698 41.8201 62.11 41.5599 62.1901C41.2154 62.293 40.7179 62.3159 40.0749 62.2587C39.9486 62.2511 39.8261 62.2625 39.7113 62.3006C38.3756 62.7543 38.012 64.3858 37.813 65.6019C37.7862 65.7696 37.8398 65.9412 37.9623 66.0594L39.0645 67.1573C39.3822 67.4737 39.3822 67.9807 39.0645 68.2971L36.8332 70.5234C36.5692 70.7826 36.1673 70.8359 35.842 70.653L34.2996 69.7724C34.1925 69.7076 34.07 69.6694 33.9399 69.658C32.7381 69.536 30.5872 70.0583 30.5336 71.6708C30.5107 72.3684 30.5183 72.9135 30.5528 73.3138C30.5872 73.6607 30.3346 73.9657 29.9825 74C29.9634 74 29.9404 74 29.9213 74H26.6413C26.2089 74 25.8568 73.6493 25.8568 73.2185V71.6403C25.8568 71.5907 25.8491 71.5374 25.8338 71.4916C25.3592 70.1269 24.4407 69.5398 23.082 69.7381C23.0016 69.7495 22.9213 69.7762 22.8486 69.8143L21.0306 70.8321C20.69 71.0227 20.2613 70.9656 19.982 70.6911L17.1307 67.8472C17.0082 67.7291 16.9929 67.5385 17.0924 67.3974L17.1001 67.4012ZM34.1083 60.1086C34.1083 56.8302 31.4407 54.1694 28.1454 54.1694C24.854 54.1694 22.1826 56.8264 22.1826 60.1086C22.1826 63.3909 24.8502 66.0479 28.1454 66.0479C31.4368 66.0479 34.1083 63.3909 34.1083 60.1086Z" fill="white"/>
</svg>
