<svg width="176" height="166" viewBox="0 0 176 166" fill="none" xmlns="http://www.w3.org/2000/svg">
<g filter="url(#filter0_d_59_10624)">
<path d="M139.823 139.428C139.756 139.785 139.731 140.151 139.737 140.513C139.751 141.355 139.907 142.192 139.928 143.035C139.978 144.906 138.814 146.331 139.378 148.275C139.636 149.162 140.601 150.834 141.68 150.81C142.754 150.787 143.415 149.633 143.725 148.775C144.195 147.474 144.644 146.285 145.309 145.056C145.63 144.462 145.944 143.851 146.198 143.225C143.873 142.204 141.797 140.996 140.318 139.851C140.142 139.715 139.979 139.574 139.824 139.429L139.823 139.428Z" fill="#262955"/>
<path d="M163.818 141.751C164.078 142.028 164.332 142.312 164.598 142.585C165.357 143.361 166.331 144.179 167.398 143.962C168.283 143.783 168.887 142.896 168.982 142.007C169.078 141.118 168.765 140.236 168.378 139.428C167.438 137.462 166.049 135.753 164.514 134.214C164.558 134.644 164.601 135.075 164.632 135.507C164.786 137.577 164.629 139.883 163.817 141.751H163.818Z" fill="#262955"/>
<path d="M164.95 147.695C164.646 145.991 164.021 144.368 163.239 142.826C162.728 143.602 162.064 144.256 161.198 144.71C160.351 145.155 159.393 145.435 158.365 145.584C159.014 146.998 159.708 148.39 160.463 149.752C160.987 150.699 161.709 151.742 162.797 151.812C163.697 151.871 164.516 151.173 164.846 150.341C165.175 149.509 165.108 148.576 164.95 147.695Z" fill="#262955"/>
<path d="M151.668 145.088C151.699 145.229 151.729 145.368 151.761 145.508C152.141 147.194 152.593 148.864 153.115 150.514C153.441 151.544 153.94 152.709 154.992 152.989C155.864 153.222 156.806 152.698 157.293 151.947C157.782 151.195 157.903 150.268 157.922 149.374C157.952 148.128 157.807 146.893 157.555 145.677C155.72 145.818 153.696 145.576 151.668 145.089V145.088Z" fill="#262955"/>
<path d="M136.823 94.7556C137.08 96.8031 137.025 98.889 136.64 100.918C136.271 102.868 135.803 104.835 135.864 106.832C135.972 110.333 137.929 114.22 139.36 117.374C139.737 118.204 140.131 119.035 140.544 119.86C143.556 125.871 147.599 131.635 153.298 135.333C154.734 136.263 156.325 137.073 158.039 137.154C159.85 137.241 161.621 136.493 163.075 135.419C163.435 135.154 163.929 134.592 164.488 133.96C162.661 117.03 151.642 101.766 138.062 91.7453C137.705 91.4816 137.299 91.187 136.864 90.8905C137.131 92.1207 137.063 93.4559 136.822 94.7565L136.823 94.7556Z" fill="#EFF4E8"/>
<path d="M163.239 142.826C163.461 142.489 163.653 142.13 163.818 141.751C164.629 139.883 164.787 137.577 164.633 135.507C164.601 135.074 164.559 134.643 164.515 134.214C164.506 134.129 164.501 134.044 164.491 133.959C163.931 134.59 163.438 135.152 163.078 135.418C161.624 136.491 159.853 137.24 158.042 137.153C156.328 137.072 154.737 136.262 153.301 135.332C147.602 131.634 143.56 125.871 140.547 119.859C140.133 119.034 139.739 118.203 139.363 117.373C137.933 114.219 135.975 110.332 135.868 106.831C135.806 104.834 136.274 102.867 136.643 100.917C137.028 98.889 137.083 96.8021 136.826 94.7546C136.816 94.81 136.807 94.8653 136.796 94.9207C136.687 95.4743 136.549 96.0214 136.391 96.5497C136.318 96.7955 136.238 97.0395 136.158 97.2835C136.206 97.6494 136.213 98.0191 136.179 98.3767C136.037 99.9015 135.336 101.309 134.818 102.751C133.955 105.154 133.699 107.597 133.782 110.049C133.896 113.455 134.663 116.878 135.354 120.233C137.387 130.088 142.906 139.328 151.357 145.009C151.461 145.036 151.566 145.062 151.67 145.087C153.699 145.574 155.722 145.816 157.557 145.676C157.832 145.654 158.101 145.622 158.367 145.584C159.396 145.434 160.353 145.154 161.2 144.709C162.065 144.255 162.73 143.602 163.241 142.825L163.239 142.826Z" fill="#CDCED9"/>
<path d="M135.351 120.234C134.66 116.879 133.893 113.456 133.779 110.05C133.696 107.598 133.952 105.155 134.815 102.752C135.333 101.31 136.033 99.9025 136.176 98.3776C136.21 98.0201 136.202 97.6504 136.155 97.2844C134.753 101.57 132.365 105.535 129.229 108.797C128.897 110.301 128.518 111.797 128.102 113.284C129.701 115.988 131.166 118.77 132.488 121.616C132.534 121.716 132.581 121.816 132.627 121.916C134.1 125.117 135.394 128.398 136.499 131.741C137.419 134.522 137.664 137.409 139.822 139.429C139.977 139.574 140.14 139.715 140.315 139.851C141.795 140.995 143.871 142.203 146.195 143.225C147.831 143.943 149.589 144.566 151.352 145.012C142.901 139.331 137.382 130.091 135.349 120.236L135.351 120.234Z" fill="#ACAEC7"/>
<path d="M131.026 86.4633C131.871 88.5859 132.359 90.8483 132.463 93.1275C132.484 93.6239 132.495 94.1428 132.74 94.5773C132.941 94.9339 133.356 95.1347 133.848 95.2304C134.741 95.4049 135.889 95.2379 136.483 95.0512C136.587 95.0183 136.69 94.9723 136.794 94.9207C136.805 94.8654 136.814 94.81 136.824 94.7546C137.065 93.4541 137.133 92.1188 136.866 90.8886C136.682 90.046 136.344 89.2521 135.796 88.5549C134.678 87.1333 132.833 86.4155 131.003 86.438C131.005 86.4596 131.006 86.4811 131.007 86.5018C131.014 86.4887 131.021 86.4755 131.027 86.4624L131.026 86.4633Z" fill="#313979"/>
<path d="M133.847 95.2304C133.356 95.1337 132.942 94.9338 132.74 94.5773C132.495 94.1437 132.484 93.6239 132.463 93.1275C132.359 90.8482 131.871 88.5858 131.026 86.4633C131.02 86.4764 131.013 86.4896 131.006 86.5027C131.041 87.0845 131.074 87.6663 131.096 88.249C131.181 90.5498 131.166 92.8535 131.053 95.1534C130.958 97.0808 130.803 99.0044 130.571 100.921C130.252 103.561 129.802 106.19 129.229 108.796C132.366 105.534 134.753 101.569 136.156 97.2835C136.236 97.0386 136.315 96.7955 136.389 96.5497C136.546 96.0214 136.685 95.4743 136.794 94.9207C136.69 94.9723 136.587 95.0183 136.483 95.0511C135.889 95.2369 134.741 95.4049 133.847 95.2304Z" fill="#262955"/>
<path d="M35.6821 139.85C34.2025 140.994 32.126 142.202 29.8022 143.224C30.0561 143.851 30.3687 144.462 30.6898 145.055C31.3548 146.284 31.8048 147.473 32.2737 148.774C32.5835 149.632 33.2447 150.786 34.319 150.809C35.398 150.833 36.3633 149.162 36.6209 148.274C37.1836 146.331 36.0213 144.906 36.0705 143.034C36.0933 142.191 36.2477 141.355 36.2619 140.512C36.2676 140.15 36.2429 139.784 36.1757 139.427C36.0203 139.572 35.8574 139.713 35.6821 139.849V139.85Z" fill="#262955"/>
<path d="M11.3667 135.507C11.399 135.074 11.4416 134.643 11.4861 134.214C9.95052 135.753 8.56177 137.462 7.62109 139.428C7.23459 140.236 6.92103 141.119 7.01766 142.007C7.11334 142.896 7.71772 143.783 8.60156 143.962C9.66917 144.179 10.643 143.361 11.4018 142.585C11.668 142.312 11.9219 142.028 12.1824 141.751C11.3715 139.883 11.2133 137.577 11.3667 135.507Z" fill="#262955"/>
<path d="M12.7601 142.826C11.9785 144.368 11.3543 145.99 11.0492 147.695C10.892 148.576 10.8247 149.508 11.1544 150.341C11.4831 151.173 12.3025 151.871 13.2025 151.812C14.29 151.742 15.0118 150.699 15.5366 149.752C16.2907 148.391 16.986 146.998 17.6349 145.584C16.6061 145.435 15.6484 145.155 14.8006 144.71C13.9347 144.256 13.2707 143.603 12.7601 142.826Z" fill="#262955"/>
<path d="M18.444 145.676C18.1921 146.893 18.0471 148.127 18.0765 149.373C18.0973 150.267 18.2176 151.194 18.7055 151.946C19.1943 152.698 20.1359 153.221 21.0065 152.988C22.059 152.707 22.5582 151.542 22.8841 150.513C23.406 148.864 23.8579 147.193 24.2387 145.507C24.27 145.368 24.3003 145.228 24.3306 145.087C22.3024 145.574 20.279 145.816 18.444 145.676V145.676Z" fill="#262955"/>
<path d="M13.212 135.431C14.6661 136.504 16.4366 137.252 18.2479 137.166C19.9616 137.084 21.553 136.274 22.9891 135.344C28.6872 131.646 32.7303 125.884 35.7427 119.873C36.1567 119.047 36.5508 118.216 36.9269 117.386C38.3573 114.232 40.3144 110.345 40.4224 106.844C40.484 104.848 40.016 102.88 39.6456 100.931C39.3179 99.2024 39.2345 97.4317 39.3728 95.6789C38.9835 94.0987 38.8025 92.4134 39.1322 90.8895C38.6964 91.186 38.2919 91.4807 37.9338 91.7443C24.4272 101.711 13.4555 116.864 11.539 133.684C12.2041 134.427 12.7961 135.126 13.2101 135.431H13.212Z" fill="#EFF4E8"/>
<path d="M40.9367 120.247C41.6282 116.892 42.3946 113.469 42.5092 110.062C42.5916 107.611 42.3359 105.168 41.4729 102.764C40.9547 101.322 40.2546 99.9137 40.1116 98.3898C40.1002 98.2613 40.0926 98.1318 40.0907 98.0023C39.9202 97.5218 39.7573 97.0386 39.6114 96.5497C39.5347 96.2916 39.4636 96.027 39.3964 95.7605C39.3897 95.7333 39.3822 95.7052 39.3755 95.677C39.2363 97.4299 39.3206 99.2006 39.6484 100.929C40.0178 102.878 40.4867 104.846 40.4251 106.843C40.3171 110.344 38.36 114.23 36.9296 117.384C36.5535 118.214 36.1585 119.045 35.7454 119.871C32.733 125.882 28.6899 131.644 22.9919 135.342C21.5557 136.272 19.9643 137.082 18.2506 137.164C16.4393 137.25 14.6688 136.502 13.2147 135.429C12.8017 135.124 12.2096 134.426 11.5437 133.682C11.5238 133.859 11.5067 134.035 11.4878 134.213C11.4442 134.642 11.4006 135.073 11.3684 135.505C11.215 137.576 11.3722 139.881 12.184 141.749C12.3489 142.129 12.5412 142.488 12.7628 142.824C13.2734 143.6 13.9375 144.254 14.8033 144.708C15.6512 145.153 16.6089 145.433 17.6377 145.583C17.9029 145.621 18.172 145.653 18.4467 145.675C20.2816 145.815 22.3051 145.573 24.3332 145.086C24.6042 145.021 24.8751 144.951 25.146 144.878C33.4776 139.186 38.9227 130.018 40.9386 120.246L40.9367 120.247Z" fill="#CDCED9"/>
<path d="M40.0896 98.0032C40.0915 98.1327 40.0982 98.2622 40.1105 98.3908C40.2535 99.9146 40.9536 101.323 41.4718 102.765C42.3348 105.169 42.5905 107.611 42.5081 110.063C42.3935 113.469 41.6281 116.892 40.9356 120.248C38.9197 130.02 33.4755 139.188 25.143 144.88C26.7374 144.446 28.3194 143.874 29.8009 143.224C32.1247 142.203 34.2012 140.995 35.6809 139.85C35.8571 139.714 36.02 139.573 36.1744 139.428C38.3324 137.408 38.5768 134.521 39.4966 131.74C40.6021 128.398 41.8971 125.116 43.3702 121.915C43.4156 121.815 43.463 121.716 43.5085 121.615C44.7485 118.946 46.1202 116.339 47.6037 113.795C47.0741 111.944 46.6147 110.078 46.2159 108.2C43.5227 105.245 41.4263 101.757 40.0887 98.0023L40.0896 98.0032Z" fill="#ACAEC7"/>
<path d="M39.3747 95.6779C39.3814 95.7061 39.3889 95.7333 39.3956 95.7615C39.5822 95.8346 39.7887 95.8666 39.9895 95.8562C40.5968 95.8234 41.4455 95.5062 42.0698 95.0567C42.3654 94.8437 42.6107 94.6016 42.7557 94.3464C42.9612 93.9842 43.0095 93.5591 43.0654 93.1472C43.3117 91.3474 43.792 89.5796 44.4826 87.8961C44.5025 87.4119 44.5366 86.9296 44.566 86.4464C42.8807 86.5336 41.2333 87.2449 40.2027 88.5558C39.6542 89.253 39.316 90.0459 39.1332 90.8895C38.8026 92.4125 38.9835 94.0987 39.3738 95.6789L39.3747 95.6779Z" fill="#313979"/>
<path d="M44.4664 88.5521C44.4731 88.3344 44.474 88.1148 44.4835 87.8961C43.7929 89.5796 43.3126 91.3465 43.0663 93.1472C43.0104 93.5582 42.9612 93.9833 42.7565 94.3464C42.6107 94.6016 42.3662 94.8447 42.0707 95.0567C41.4464 95.5062 40.5976 95.8225 39.9904 95.8562C39.7896 95.8666 39.5831 95.8346 39.3964 95.7615C39.4637 96.028 39.5347 96.2916 39.6115 96.5506C39.7574 97.0395 39.9203 97.5228 40.0908 98.0032C41.4275 101.759 43.5248 105.245 46.218 108.201C45.9205 106.802 45.6591 105.397 45.4346 103.987C45.2726 102.967 45.1229 101.945 44.9998 100.921C44.5043 96.8152 44.33 92.6799 44.4674 88.5521H44.4664Z" fill="#262955"/>
<path d="M64.4252 142.561C64.6279 142.944 64.8392 143.323 65.0656 143.694C70.1886 148.546 76.69 151.959 83.6262 153.416C87.8379 154.301 92.1993 154.463 96.4688 153.922C99.1099 153.198 101.63 152.094 103.916 150.57C106.936 148.558 109.455 145.752 111.149 142.559C100.68 146.425 74.8996 146.425 64.4262 142.561H64.4252Z" fill="#262955"/>
<path d="M131.096 88.249C125.645 90.6793 119.896 92.5044 114.024 93.759C110.242 94.5669 106.404 95.145 102.545 95.5025C93.5001 96.3395 84.2525 95.8872 75.2369 94.8531C64.5371 93.6248 54.2986 92.1648 44.4665 88.553C44.3282 92.6808 44.5035 96.8162 44.9989 100.922C45.1221 101.945 45.2717 102.967 45.4337 103.988C49.6691 107.285 54.0031 110.459 58.7178 113.026C71.0138 119.721 87.892 122.805 101.73 119.271C101.905 119.226 102.079 119.181 102.252 119.134C108.667 117.408 115.639 110.804 120.445 106.478C124.296 103.011 127.846 99.2156 131.053 95.1553C131.166 92.8554 131.181 90.5517 131.096 88.2509V88.249Z" fill="#EFF4E8"/>
<path d="M79.1207 138.992C71.3139 138.212 63.6 136.454 56.247 133.742C57.5306 135.895 58.9099 138.002 60.3934 140.047C61.0953 141.016 62.5059 141.852 64.4251 142.561C74.8995 146.425 100.679 146.425 111.148 142.559C113.066 141.851 114.474 141.015 115.176 140.047C116.545 138.16 117.82 136.22 119.018 134.242C117.85 134.651 116.677 135.044 115.493 135.406C103.766 138.983 91.3286 140.213 79.1207 138.993V138.992Z" fill="#CDCED9"/>
<path d="M130.571 100.921C130.803 99.0035 130.958 97.0798 131.053 95.1534C127.845 99.2137 124.297 103.009 120.445 106.477C115.639 110.803 108.667 117.407 102.252 119.132C102.079 119.179 101.904 119.224 101.73 119.269C87.8918 122.803 71.0137 119.719 58.7176 113.024C54.0029 110.457 49.668 107.284 45.4335 103.986C45.6581 105.397 45.9186 106.801 46.217 108.2C46.6158 110.078 47.0743 111.944 47.6048 113.795C49.5259 120.506 52.3015 127.016 55.8861 133.14C58.3974 134.083 60.9504 134.919 63.5385 135.636C75.2462 138.88 87.5792 139.801 99.6441 138.32C106.362 137.495 113 135.937 119.373 133.66C123.199 127.23 126.123 120.366 128.103 113.284C128.519 111.797 128.897 110.301 129.229 108.797C129.804 106.191 130.253 103.562 130.571 100.921V100.921Z" fill="#CDCED9"/>
<path d="M99.6441 138.321C87.5793 139.802 75.2463 138.881 63.5385 135.637C60.9505 134.92 58.3975 134.084 55.8862 133.141C56.0046 133.342 56.1268 133.542 56.2471 133.742C63.6001 136.455 71.315 138.212 79.1208 138.992C91.3287 140.212 103.766 138.982 115.493 135.405C116.677 135.044 117.85 134.65 119.018 134.241C119.137 134.046 119.257 133.854 119.373 133.659C113 135.936 106.362 137.494 99.6441 138.319V138.321Z" fill="#313979"/>
<path d="M44.4663 88.5521C54.2984 92.1638 64.5378 93.6239 75.2367 94.8522C84.2512 95.8863 93.4988 96.3385 102.545 95.5015C106.404 95.144 110.242 94.566 114.024 93.7581C119.896 92.5035 125.646 90.6784 131.096 88.248C131.074 87.6653 131.041 87.0835 131.006 86.5017C131.006 86.4811 131.004 86.4595 131.002 86.4379C130.97 85.9078 130.938 85.3776 130.896 84.8484C117.002 86.193 58.566 86.193 44.6737 84.8484C44.6311 85.3804 44.5989 85.9134 44.5667 86.4464C44.5373 86.9296 44.5032 87.4129 44.4833 87.8961C44.4738 88.1148 44.4729 88.3334 44.4663 88.5521Z" fill="#ACAEC7"/>
<path d="M26.2319 43.0033C26.7122 40.9267 27.4549 37.3938 27.5998 36.8955C28.3179 34.4257 29.1743 31.9907 30.1765 29.6195C30.3518 29.2056 30.5706 28.6173 30.8387 27.9895C31.7434 24.9042 32.8318 21.8874 34.0898 18.9794C34.231 18.6548 34.3731 18.3291 34.5171 18.0054C32.1668 18.5112 30.1614 19.1418 29.3543 19.8099C28.0896 20.8571 27.2531 22.2318 26.4943 23.6037C23.2555 29.4674 21.4888 35.5546 21.0151 41.6802C22.1434 42.4628 23.3218 43.175 24.5505 43.7896C25.2344 44.1312 26.0614 43.7408 26.2319 43.0014V43.0033Z" fill="#313979"/>
<path d="M149.076 23.6046C148.318 22.2327 147.481 20.858 146.216 19.8108C145.407 19.1408 143.399 18.5103 141.047 18.0045C141.194 18.3282 141.339 18.6529 141.48 18.9795C143.362 23.3259 144.869 27.9145 145.935 32.6175C146.394 33.2819 146.842 33.7548 147.128 34.5506C147.83 36.507 148.42 38.4804 149.143 40.4219C149.364 41.0158 149.597 41.6061 149.85 42.1925C151.603 41.4653 153.08 40.4566 154.291 39.1795C153.573 33.9003 151.875 28.6689 149.077 23.6046H149.076Z" fill="#313979"/>
<path d="M154.691 45.0282C154.689 43.0764 154.554 41.1247 154.29 39.1795C153.079 40.4566 151.602 41.4653 149.849 42.1925C149.596 41.606 149.363 41.0158 149.142 40.4218C148.42 38.4804 147.829 36.507 147.127 34.5505C146.841 33.7548 146.394 33.2819 145.934 32.6175C146.834 36.5858 147.42 40.6348 147.65 44.6885C148.034 51.4635 147.426 58.2516 145.632 64.699C144.885 67.3837 143.856 70.2625 142.517 73.0485C145.022 72.3551 147.188 71.5359 147.997 70.7655C149.186 69.6348 149.924 68.2047 150.585 66.7841C153.92 59.6084 155.189 52.2602 154.691 45.0273V45.0282Z" fill="#262955"/>
<path d="M27.8347 46.8102C27.9986 40.4584 29.052 34.087 30.8386 27.9895C30.5705 28.6173 30.3517 29.2056 30.1764 29.6195C29.1742 31.9907 28.3188 34.4248 27.5998 36.8955C27.4548 37.3938 26.7121 40.9267 26.2319 43.0033C26.0613 43.7427 25.2343 44.133 24.5504 43.7915C23.3208 43.1759 22.1433 42.4646 21.015 41.682C20.9288 42.7968 20.8805 43.9125 20.8786 45.0292C20.3813 52.262 21.6497 59.6103 24.9852 66.7859C25.6455 68.2066 26.3844 69.6357 27.5732 70.7674C28.3822 71.5378 30.5478 72.3569 33.0525 73.0504C31.7149 70.2644 30.6851 67.3855 29.9377 64.7009C28.3311 58.9262 27.6784 52.8776 27.8337 46.8111L27.8347 46.8102Z" fill="#262955"/>
<path d="M145.934 32.6175C144.867 27.9145 143.361 23.3259 141.479 18.9794C141.338 18.6519 141.193 18.3273 141.046 18.0045C139.108 13.7293 136.691 9.79667 132.796 6.84741C125.909 1.63296 50.511 1.8028 42.7715 6.84741C38.6744 9.51797 36.4293 13.6937 34.5158 18.0054C34.3718 18.3301 34.2297 18.6548 34.0885 18.9794C32.8296 21.8865 31.7421 24.9033 30.8374 27.9895C29.0508 34.087 27.9973 40.4584 27.8335 46.8102C29.0384 48.1943 30.3533 49.4845 31.7582 50.6678C33.774 52.3662 36.2408 55.0321 38.9416 53.1844C41.0579 51.7366 40.642 49.1204 40.8428 46.8834C41.055 44.5225 41.2956 42.1315 41.8536 39.8222C42.1842 38.4513 42.5802 37.0944 43.0377 35.7582C44.1177 30.2388 46.3656 24.9971 50.3168 20.8702C51.339 19.8033 69.7736 19.4195 87.7847 19.5096C105.796 19.4186 124.23 19.8024 125.253 20.8702C128.585 24.3506 130.703 28.6248 131.935 33.188C132.234 33.7848 132.517 34.3891 132.776 35.0038C133.732 37.268 134.337 39.4966 134.668 41.9176L135.736 49.7726C135.92 51.121 137.36 51.9289 138.614 51.3734C141.113 50.2661 143.452 48.883 145.471 47.0448C146.304 46.2866 147.022 45.5002 147.651 44.6904C147.42 40.6358 146.835 36.5868 145.935 32.6194L145.934 32.6175Z" fill="#EFF4E8"/>
<path d="M147.65 44.6895C147.021 45.4993 146.302 46.2866 145.47 47.0438C143.452 48.8821 141.113 50.2652 138.614 51.3725C137.36 51.928 135.92 51.12 135.736 49.7716L134.667 41.9166C134.338 39.4957 133.731 37.2671 132.775 35.0028C132.516 34.3882 132.233 33.7839 131.934 33.1871C132.752 36.2189 133.179 39.3774 133.304 42.5191C133.622 44.2147 133.818 45.9478 133.887 47.6866C134.154 54.5413 132.189 70.6416 127.891 72.6779C123.07 74.9618 56.4917 72.7764 51.7078 72.3879C47.7329 72.0651 46.4085 69.9773 45.2234 66.2201C44.2022 62.9809 43.5884 59.5409 43.416 56.0858C42.1608 49.9584 41.689 42.6429 43.0371 35.7582C42.5805 37.0944 42.1845 38.4522 41.8529 39.8222C41.295 42.1315 41.0543 44.5225 40.8422 46.8834C40.6413 49.1204 41.0572 51.7375 38.9409 53.1844C36.2401 55.0321 33.7733 52.3652 31.7575 50.6678C30.3526 49.4845 29.0378 48.1943 27.8328 46.8102C27.6774 52.8767 28.3301 58.9253 29.9368 64.7C30.6842 67.3846 31.713 70.2635 33.0515 73.0495C35.1469 77.4128 38.005 81.5444 41.7667 84.322C42.0301 84.5162 43.0475 84.6917 44.6731 84.8493C58.5663 86.194 117.002 86.194 130.895 84.8493C132.521 84.6917 133.538 84.5162 133.801 84.322C137.563 81.5435 140.421 77.4119 142.517 73.0495C143.854 70.2635 144.884 67.3846 145.631 64.7C147.426 58.2534 148.033 51.4644 147.649 44.6895H147.65Z" fill="#CDCED9"/>
<path d="M126.06 70.1856C124.918 70.8528 106.139 71.1784 87.785 71.1624C69.4309 71.1784 50.6506 70.8528 49.51 70.1856C47.5358 69.0305 44.9175 63.406 43.4169 56.0849C43.5894 59.5409 44.2032 62.98 45.2244 66.2192C46.4095 69.9764 47.7338 72.0642 51.7087 72.387C56.4926 72.7755 123.071 74.9609 127.892 72.6769C132.19 70.6407 134.155 54.5413 133.888 47.6857C133.819 45.9469 133.623 44.2138 133.305 42.5181C133.828 55.6082 129.153 68.3746 126.061 70.1847L126.06 70.1856Z" fill="#ACAEC7"/>
<path d="M133.305 42.52C133.18 39.3784 132.752 36.2199 131.935 33.188C130.703 28.6239 128.585 24.3496 125.253 20.8702C124.23 19.8033 105.796 19.4195 87.7848 19.5096C69.7736 19.4186 51.339 19.8024 50.3169 20.8702C46.3657 24.9971 44.1177 30.2388 43.0378 35.7582C41.6898 42.6429 42.1615 49.9584 43.4167 56.0858C44.9173 63.4069 47.5347 69.0314 49.5098 70.1865C50.6513 70.8537 69.4307 71.1793 87.7848 71.1634C106.139 71.1793 124.918 70.8537 126.06 70.1865C129.152 68.3774 133.827 55.6101 133.304 42.52H133.305Z" fill="#262955"/>
<path d="M49.5136 41.3302C48.9319 44.2241 48.4583 47.2953 49.4785 50.0672C51.1155 54.5141 56.0253 54.8885 60.1404 54.7187C60.3015 54.7121 60.4644 54.7027 60.6255 54.6961C59.969 53.4491 59.627 52.0124 59.5408 50.6406C59.3277 47.2559 59.6999 34.1921 61.4212 32.3398C63.9316 29.6373 69.3454 29.6091 71.8823 32.3398C73.6036 34.193 73.9759 47.2559 73.7627 50.6406C73.6936 51.7441 73.4577 52.8879 73.0276 53.9426C79.2846 53.4406 85.551 52.7406 91.7293 51.7628C95.0942 51.2308 98.4429 50.6068 101.775 49.9021C101.646 45.6757 102.073 34.0767 103.687 32.3388C106.198 29.6364 111.611 29.6082 114.148 32.3388C115.378 33.6638 115.919 40.7118 116.05 45.8624C117.652 45.0902 119.173 44.1152 120.598 42.809C123.52 40.131 125.932 35.7826 124.009 31.8668C122.918 29.6457 120.815 28.0383 118.529 27.054C116.242 26.0697 113.757 25.6408 111.297 25.242C95.0316 22.6043 78.2908 20.9181 62.1459 24.2005C60.1348 24.6096 57.9095 25.0591 56.1106 26.0856C54.5248 26.9902 53.7224 28.698 52.9239 30.3101C51.2073 33.7736 50.2714 37.5617 49.5145 41.3274L49.5136 41.3302Z" fill="#313979"/>
<path d="M71.8825 32.3398C69.3466 29.6091 63.9318 29.6373 61.4214 32.3398C59.7002 34.193 59.3279 47.2559 59.541 50.6405C59.6272 52.0124 59.9692 53.449 60.6257 54.6961C61.1467 55.687 61.8657 56.5597 62.8159 57.1846C64.8762 58.5406 68.3623 58.5837 70.489 57.1846C71.6722 56.4058 72.4983 55.2423 73.0278 53.9426C73.4579 52.8879 73.6928 51.744 73.7629 50.6405C73.9761 47.2559 73.6038 34.193 71.8825 32.3398Z" fill="#8AC3EF"/>
<path d="M103.687 32.3398C102.073 34.0776 101.646 45.6757 101.775 49.903C101.783 50.1826 101.795 50.4303 101.808 50.6405C101.962 53.1037 102.938 55.7743 105.082 57.1846C107.141 58.5406 110.628 58.5837 112.754 57.1846C114.899 55.7743 115.874 53.1047 116.029 50.6405C116.09 49.675 116.103 47.9193 116.051 45.8634C115.919 40.7127 115.379 33.6647 114.149 32.3398C111.612 29.6091 106.198 29.6373 103.687 32.3398Z" fill="#8AC3EF"/>
<path d="M83.6264 153.416C76.6902 151.959 70.1879 148.547 65.0658 143.694C66.7274 146.416 68.9972 148.799 71.6553 150.571C76.3663 153.711 82.0757 155.071 87.7841 154.997C90.7246 155.036 93.665 154.692 96.4691 153.923C92.1995 154.464 87.8391 154.302 83.6264 153.417V153.416Z" fill="#313979"/>
</g>
<defs>
<filter id="filter0_d_59_10624" x="0" y="0" width="176" height="166" filterUnits="userSpaceOnUse" color-interpolation-filters="sRGB">
<feFlood flood-opacity="0" result="BackgroundImageFix"/>
<feColorMatrix in="SourceAlpha" type="matrix" values="0 0 0 0 0 0 0 0 0 0 0 0 0 0 0 0 0 0 127 0" result="hardAlpha"/>
<feOffset dy="4"/>
<feGaussianBlur stdDeviation="3.5"/>
<feComposite in2="hardAlpha" operator="out"/>
<feColorMatrix type="matrix" values="0 0 0 0 1 0 0 0 0 1 0 0 0 0 1 0 0 0 1 0"/>
<feBlend mode="normal" in2="BackgroundImageFix" result="effect1_dropShadow_59_10624"/>
<feBlend mode="normal" in="SourceGraphic" in2="effect1_dropShadow_59_10624" result="shape"/>
</filter>
</defs>
</svg>
