<svg width="27" height="22" viewBox="0 0 27 22" fill="none" xmlns="http://www.w3.org/2000/svg">
<path d="M0 10.8L14.4277 21.6V0L0 10.8Z" fill="#EF7C2E"/>
<path d="M6.31986 6.12213H0V15.4743H6.31986V6.12213Z" fill="#EF7C2E"/>
<path d="M20.0288 20.9561C19.7137 20.9561 19.4127 20.7676 19.2817 20.4581C19.1082 20.0454 19.2994 19.5652 19.7137 19.3909C23.1551 17.9288 25.3785 14.5565 25.3785 10.8C25.3785 7.04345 23.1551 3.67112 19.7137 2.20906C19.2994 2.03475 19.1082 1.55452 19.2817 1.14187C19.4552 0.72922 19.9296 0.533567 20.3439 0.707876C24.3872 2.42606 27.0001 6.38534 27.0001 10.8C27.0001 15.2146 24.3872 19.1739 20.3439 20.8921C20.2412 20.9347 20.135 20.9561 20.0288 20.9561Z" fill="#EF7C2E"/>
<path d="M18.6054 17.5801C18.2903 17.5801 17.9894 17.3916 17.8584 17.0821C17.6849 16.6695 17.8761 16.1892 18.2903 16.0149C20.3792 15.1256 21.7317 13.0801 21.7317 10.7999C21.7317 8.51967 20.3828 6.47066 18.2903 5.58489C17.8796 5.41058 17.6849 4.93034 17.8584 4.51769C18.0319 4.10504 18.5098 3.90939 18.9205 4.0837C21.6114 5.2256 23.3498 7.86156 23.3498 10.7999C23.3498 13.7382 21.6114 16.3742 18.9205 17.5161C18.8179 17.5588 18.7117 17.5801 18.6054 17.5801Z" fill="#EF7C2E"/>
<path d="M17.2138 14.2684C16.8987 14.2684 16.5978 14.0799 16.4668 13.7704C16.2933 13.3542 16.4845 12.8775 16.8987 12.7032C17.6599 12.3795 18.1521 11.6325 18.1521 10.8001C18.1521 9.96765 17.6599 9.22061 16.8987 8.8969C16.4845 8.72259 16.2933 8.24591 16.4668 7.8297C16.6403 7.4135 17.1182 7.21785 17.5289 7.39571C18.8921 7.97555 19.7736 9.30955 19.7736 10.8001C19.7736 12.2906 18.8921 13.6246 17.5289 14.2044C17.4263 14.2471 17.3201 14.2684 17.2138 14.2684Z" fill="#EF7C2E"/>
</svg>
