<svg width="326" height="162" viewBox="0 0 326 162" fill="none" xmlns="http://www.w3.org/2000/svg">
<path d="M96.1354 112.312C66.5883 96.02 63.9753 49.0468 95.0862 33.2735C98.9044 31.3364 104.602 28.3353 108.85 27.7195C111.006 27.4077 125.109 29.22 124.953 32.3926C125.476 21.6198 133.471 12.445 142.773 6.97673C166.134 -6.75432 199.507 0.467823 215.092 22.6293C230.677 44.7868 226.176 78.6136 205.338 95.9343C213.625 92.2277 224.241 94.6793 230.056 101.648C235.875 108.613 236.39 119.491 231.258 126.974C242.213 120.645 257.868 124.523 264.6 135.233C281.214 131.651 298.885 133.117 314.684 139.388C318.21 140.787 321.787 142.533 324.056 145.57C326.326 148.606 326.845 153.255 324.275 156.042C322.625 157.827 320.121 158.505 317.734 158.981C308.616 160.797 299.252 160.848 289.954 160.891C246.495 161.097 203.041 161.304 159.582 161.514C155.206 161.534 150.674 161.526 146.684 159.725C142.695 157.929 139.399 153.813 140.004 149.479C133.65 154.507 126.158 158.392 118.101 159.269C110.043 160.146 101.397 157.683 95.9248 151.708C70.5937 158.564 43.8469 160.15 17.8841 156.338C13.6096 155.711 9.22197 154.885 5.61439 152.511C2.00681 150.137 -0.656946 145.831 0.142571 141.586C0.942089 137.33 5.00598 134.286 9.23757 133.362C13.4731 132.439 17.8724 133.218 22.1196 134.08C20.4503 125.817 25.4502 117.258 32.5094 112.643C39.5685 108.028 48.2774 106.695 56.7094 106.43C70.0633 106.013 83.4874 108.017 96.1315 112.316L96.1354 112.312Z" fill="white"/>
<path d="M9.23757 133.359C5.00208 134.282 0.942089 137.326 0.142571 141.582C-0.656946 145.827 2.00681 150.134 5.61439 152.507C9.22197 154.881 13.6096 155.707 17.8841 156.335C43.8469 160.15 70.5937 158.564 95.9248 151.704C101.397 157.679 110.043 160.139 118.101 159.266C126.158 158.389 133.65 154.503 140.004 149.475C139.399 153.805 142.695 157.921 146.684 159.722C150.674 161.518 155.206 161.53 159.582 161.511C203.041 161.304 246.495 161.097 289.954 160.887C299.252 160.844 308.616 160.793 317.734 158.977C320.121 158.502 322.625 157.823 324.275 156.038C326.845 153.252 326.33 148.598 324.056 145.566C323.214 144.439 322.192 143.496 321.061 142.678C307.844 146.528 293.265 145.137 279.529 142.685C274.833 141.847 269.822 140.721 266.6 137.202C266.039 136.59 265.579 135.872 265.216 135.109C265.009 135.151 264.806 135.186 264.6 135.229C257.868 124.519 242.213 120.641 231.258 126.97C236.39 119.483 235.872 108.609 230.056 101.644C224.238 94.6793 213.622 92.2239 205.338 95.9304C220.911 82.9867 227.358 60.8252 223.114 41.2011C221.117 54.7061 216.41 67.8798 208.017 78.5785C198.099 91.2222 182.6 99.9956 166.532 99.5513C164.367 83.0257 153.658 67.8486 138.806 60.2679C146.856 66.4143 147.067 79.7868 140.175 87.2038C133.284 94.6247 121.244 95.9109 112.13 91.495C103.015 87.0791 96.8218 77.8536 94.4349 68.0162C90.8819 53.3887 95.8897 41.0881 103.534 29.2785C100.523 30.475 97.4458 32.073 95.0863 33.2696C63.9753 49.043 66.5922 96.0201 96.1354 112.308C92.9685 111.232 89.7509 110.301 86.5022 109.513C75.8003 112.331 63.9324 114.105 53.3553 116.977C42.1738 120.017 30.9338 126.916 27.5485 137.993C25.8402 136.578 24.0189 135.257 22.1196 134.064C22.1196 134.064 22.1196 134.064 22.1196 134.068C17.8724 133.21 13.4692 132.427 9.23757 133.351V133.359Z" fill="#F5FBFF"/>
<path d="M96.1351 112.312C66.588 96.0201 63.975 49.0468 95.086 33.2735C97.4455 32.0769 100.523 30.475 103.534 29.2824C87.9722 36.8397 79.9146 54.7918 79.6377 72.0813C79.4934 81.034 81.0456 90.544 86.8997 97.3218C92.1765 103.429 100.351 106.493 108.409 106.98C116.466 107.467 124.489 105.631 132.219 103.293C123.081 111.906 107.133 118.376 96.1351 112.316V112.312Z" fill="#DFF2FD"/>
<path d="M231.265 126.967C236.398 119.479 235.879 108.605 230.064 101.64C224.245 94.6754 213.629 92.2199 205.345 95.9265C211.465 94.8001 217.299 100.561 218.52 106.656C219.741 112.752 217.217 119.055 213.547 124.075C212.018 126.164 210.244 128.144 207.982 129.414C204.558 131.34 200.423 131.429 196.5 131.238C187.514 130.802 177.343 128.288 173.209 120.306C172.425 126.464 176.641 132.435 182.081 135.436C187.518 138.441 193.942 139.037 200.15 139.162C206.016 139.279 211.972 139.022 217.584 137.311C223.196 135.6 227.95 131.803 231.269 126.963L231.265 126.967Z" fill="#DFF2FD"/>
<path d="M324.064 145.562C326.338 148.598 326.853 153.248 324.283 156.034C322.633 157.82 320.129 158.498 317.742 158.973C308.624 160.789 299.26 160.84 289.962 160.883C246.503 161.09 203.048 161.296 159.59 161.507C155.214 161.526 150.682 161.518 146.692 159.718C142.702 157.921 139.407 153.805 140.011 149.471C146.903 154.312 155.12 155.263 163.537 155.571C173.724 155.945 184.043 155.937 193.957 153.563C203.871 151.19 213.45 146.232 219.733 138.211C220.517 144.864 217.206 151.829 211.555 155.43C240.965 151.813 270.746 155.208 300.371 154.639C308.998 154.472 320.878 153.575 324.068 145.562H324.064Z" fill="#DFF2FD"/>
<path d="M140.007 149.475C133.654 154.503 126.162 158.389 118.105 159.266C110.047 160.142 101.401 157.679 95.9287 151.704C70.5976 158.56 43.8508 160.146 17.888 156.335C13.6135 155.707 9.22589 154.881 5.61831 152.507C2.01073 150.134 -0.653028 145.827 0.14649 141.582C3.60587 148.278 12.7009 149.717 20.2124 150.356C28.8667 151.088 37.638 150.457 46.1012 148.493C42.1387 147.666 38.4531 145.566 35.7231 142.58C58.8779 148.247 83.8618 146.17 105.765 136.757C104.836 140.998 107.504 145.46 111.295 147.581C115.086 149.697 119.711 149.818 123.978 148.999C138.1 146.287 149.399 132.891 149.684 118.521C151.946 129.021 148.436 142.81 140.011 149.475H140.007Z" fill="#DFF2FD"/>
</svg>
