<svg width="212" height="226" viewBox="0 0 212 226" fill="none" xmlns="http://www.w3.org/2000/svg">
<g filter="url(#filter0_d_94_9255)">
<path d="M183.61 201.176C166.747 205.854 148.822 208.746 130.349 210.093C92.6966 212.844 52.7759 209.186 15 201.176C28.7223 198.802 43.9499 197.201 60.2242 196.078C61.8281 195.969 63.4362 195.864 65.0587 195.763C76.6486 195.039 87.9896 195.235 99.5835 195.878C107.922 196.342 116.259 196.805 124.6 197.269C144.423 198.368 163.784 200.077 183.608 201.176H183.61Z" fill="#716914"/>
<g style="mix-blend-mode:multiply">
<path d="M130.35 210.093C132.225 208.759 134.1 207.426 135.976 206.095C110.964 206.163 85.8492 204.876 60.1957 201.601C56.5189 201.131 53.677 201.123 52.2704 200.048C52.2704 200.048 57.7589 197.455 60.2245 196.078C61.8285 195.969 63.4366 195.864 65.0591 195.763C76.6489 195.039 87.9899 195.235 99.5839 195.878C107.923 196.342 116.259 196.805 124.6 197.269C144.423 198.368 163.784 200.077 183.608 201.176C166.746 205.854 148.82 208.746 130.347 210.093H130.35Z" fill="#CEC6BA"/>
</g>
<path d="M58.3486 193.468C58.2725 194.944 58.5809 196.444 59.2225 197.71C57.2916 197.333 55.3586 197.411 53.4276 197.034C54.1946 195.594 54.1659 193.019 54.1844 191.183C54.3283 192.633 55.0851 194.498 56.0824 195.36C56.1564 194.593 56.2284 193.827 56.3024 193.06C56.2716 194.089 56.9399 195.084 57.7933 195.28C57.9784 194.675 58.1635 194.073 58.3486 193.468Z" fill="#716914"/>
<path d="M138.447 131.551C136.097 131.551 133.684 131.446 131.213 131.238C131.036 131.223 130.906 131.066 130.921 130.889C130.935 130.712 131.089 130.58 131.268 130.596C142.027 131.508 151.659 130.417 159.895 127.349C167.821 124.396 175.154 116.666 179.511 106.666C179.581 106.503 179.77 106.428 179.933 106.5C180.095 106.573 180.169 106.76 180.097 106.923C175.67 117.08 168.201 124.941 160.115 127.953C153.685 130.348 146.42 131.553 138.445 131.553L138.447 131.551Z" fill="#A49E94"/>
<path d="M141.145 131.231L141.281 135.548L143.107 133.823L144.437 135.277L144.495 131.052L141.145 131.231Z" fill="#E08D6C"/>
<path d="M145.145 130.887L146.083 135.011L147.333 133.41L148.82 134.582L148.503 130.594L145.145 130.887Z" fill="#FFE653"/>
<path d="M149.105 130.567L149.808 134.537L150.954 132.94L152.344 134.062L151.863 130.082L149.105 130.567Z" fill="#BFC679"/>
<path d="M152.667 129.936L153.691 133.947L154.602 132.222L156.489 133.243L155.55 129.183L152.667 129.936Z" fill="#F29A71"/>
<path d="M171.208 120.045L174.222 122.872L174.064 120.928L176.203 120.769L173.235 117.854L171.208 120.045Z" fill="#F29A71"/>
<path d="M157.741 132.804L156.463 128.867L159.293 128.04L160.683 131.669L158.769 131.077L157.741 132.804Z" fill="#96E2D6"/>
<path d="M137.414 135.368L137.285 131.231H140.234L140.554 135.106L138.883 134L137.414 135.368Z" fill="#96E2D6"/>
<path d="M160.286 127.749L162.178 130.994L162.924 129.633L164.475 129.816L162.938 126.505L160.286 127.749Z" fill="#E08D6C"/>
<path d="M175.166 114.961L178.433 116.806L178.39 115.252L179.821 114.627L176.829 112.546L175.166 114.961Z" fill="#E08D6C"/>
<path d="M163.369 126.232L165.734 129.073L165.719 127.474L167.167 127.821L165.466 124.949L163.369 126.232Z" fill="#FFE653"/>
<path d="M173.465 117.596L176.725 119.325L176.11 117.852L177.58 117.623L174.923 115.609L173.465 117.596Z" fill="#FFE653"/>
<path d="M165.97 124.446L167.965 127.51L168.391 125.708L170.315 126.235L168.125 122.966L165.97 124.446Z" fill="#96E2D6"/>
<path d="M168.645 122.319L170.794 120.507L172.813 123.495L171.137 123.299L170.823 125.234L168.645 122.319Z" fill="#BFC679"/>
<path d="M170.873 47.7853C170.058 53.2733 166.182 57.3295 161.212 59.0439C161.767 61.7652 160.342 65.4686 157.761 66.4713C155.18 67.474 151.954 66.3557 150.537 63.9687C150.99 67.6432 148.446 71.4538 144.89 72.4359C142.046 73.2199 138.933 72.2976 136.531 70.5831C134.127 68.8687 132.243 66.4878 130.648 63.9976C129.535 67.0056 126.743 69.3246 123.588 69.859C120.434 70.3892 117.028 68.7552 114.994 66.2794C114.667 68.062 113.617 69.6217 112.196 70.7441C111.038 71.6601 109.638 72.2852 108.182 72.5039C104.943 72.9867 101.589 71.6539 99.191 69.4133C96.6617 67.0531 95.177 63.5746 95.6314 60.1353C93.9328 61.4578 91.5495 61.8374 89.5239 61.1092C87.5004 60.3829 85.9006 58.5715 85.4255 56.4671C84.9485 54.3626 85.4893 51.9219 87.0028 50.3911C86.8815 50.3581 86.7601 50.323 86.6368 50.2859C84.8929 49.6937 83.4658 48.1959 82.9887 46.4071C82.4787 44.4925 83.073 42.3283 84.4858 40.946C85.8965 39.5636 88.0598 38.6455 89.9558 39.2026C89.9393 39.0375 89.927 38.8746 89.9208 38.7074C89.853 37.5583 89.927 36.3885 90.1285 35.2434C90.3054 34.2428 90.583 33.2628 90.9614 32.3261C91.3562 31.342 91.8621 30.4115 92.4749 29.5697C93.3694 28.3174 94.5004 27.2569 95.8535 26.4874C100.131 24.0673 106.861 24.1993 110.333 27.6654C109.944 23.8981 111.521 19.8172 114.474 17.4549C116.835 15.5733 119.967 14.7295 122.955 15.0864C123.711 15.1792 124.458 15.3464 125.178 15.5939C125.287 15.6331 125.396 15.6703 125.505 15.7095C128.926 17.0154 131.639 20.0689 132.507 23.632C134.656 20.6466 138.807 18.9837 142.427 19.5882C146.05 20.1968 149.217 22.9883 150.282 26.5142C151.814 24.581 154.341 23.436 156.768 23.8465C159.199 24.255 161.339 26.0624 162.158 28.3958C163.311 31.6824 161.864 35.3383 159.857 38.1855C161.794 37.6552 163.778 37.5356 165.641 37.8698C167.434 38.1916 169.304 39.8257 170.112 41.5525C170.926 43.2897 171.15 45.8851 170.869 47.7874L170.873 47.7853Z" fill="#7E7607"/>
<path d="M128.445 38.3628C130.246 39.6007 132.969 39.2066 134.349 37.5086C135.729 35.8107 135.566 33.0584 133.997 31.5358C132.426 30.0132 129.804 30.2216 128.159 31.6637C127.585 29.6852 125.891 28.078 123.89 27.6158C121.889 27.1537 119.664 27.8531 118.284 29.3798C116.904 30.9065 116.699 33.1162 117.355 35.0679C115.687 33.3658 113.069 32.619 110.793 33.3142C108.516 34.0095 106.727 36.1758 106.598 38.5608C106.468 40.9438 108.095 43.3494 110.388 43.989C110.248 45.198 111.243 46.3245 112.374 46.766C113.505 47.2075 114.84 46.9352 115.817 46.2151C116.793 45.493 117.427 44.3707 117.717 43.1885C118.601 44.9607 120.446 46.2832 122.416 46.4441C124.386 46.6051 126.409 45.6705 127.569 44.0653C128.729 42.4602 129.216 40.1949 128.449 38.369L128.445 38.3628Z" fill="#948D08"/>
<path d="M159.311 34.5501C160.377 32.5364 160.697 29.8811 159.69 28.0945C159.394 27.5683 158.933 27.1103 158.357 26.9329C157.068 26.5326 155.803 27.6756 155.17 28.8702C154.401 30.3247 154.078 32.0103 154.257 33.6464C154.335 34.3602 154.514 35.0824 154.931 35.6662C155.349 36.2501 156.038 36.673 156.751 36.6215C157.812 36.5472 158.812 35.4888 159.311 34.548V34.5501Z" fill="#948D08"/>
<path d="M133.722 42.8646C134.333 43.762 134.717 45.2826 133.784 45.5838C132.836 45.8892 131.477 44.7647 130.804 43.8136C130.173 42.9223 129.725 41.3709 130.695 41.0758C131.672 40.7767 133.046 41.8701 133.722 42.8646Z" fill="#948D08"/>
<path d="M122.146 17.7911C123.133 17.7766 124.82 18.1294 124.688 19.5138C124.569 20.7723 123.074 21.5048 121.926 21.6079C120.867 21.7028 119.298 21.1912 119.335 19.9285C119.374 18.6184 121.042 17.8076 122.146 17.7911Z" fill="#948D08"/>
<path d="M102.63 31.705C103.639 32.59 105.03 34.484 103.644 35.7652C102.385 36.9289 100.207 36.3078 98.9529 35.367C97.7951 34.4985 96.6703 32.5488 97.8507 31.3047C99.0763 30.0132 101.501 30.7146 102.63 31.705Z" fill="#948D08"/>
<path d="M100.429 37.2177C101.229 37.2672 102.572 37.6551 102.38 38.7692C102.208 39.7802 100.951 40.2795 100.018 40.2918C99.1559 40.3021 97.9159 39.7925 98.0228 38.7734C98.1339 37.715 99.5343 37.162 100.429 37.2177Z" fill="#948D08"/>
<path d="M133.247 39.6337C133.851 39.5553 134.443 39.7781 134.575 40.1392C134.705 40.5002 134.326 40.8675 133.722 40.952C133.117 41.0366 132.517 40.7994 132.387 40.4321C132.257 40.0649 132.644 39.7121 133.249 39.6358L133.247 39.6337Z" fill="#948D08"/>
<path d="M152.248 27.0154C152.912 26.3655 153.722 26.2087 154.057 26.6564C154.392 27.1021 154.131 27.9913 153.471 28.6515C152.811 29.3117 151.999 29.485 151.66 29.0291C151.32 28.5731 151.583 27.6653 152.248 27.0154Z" fill="#948D08"/>
<path d="M125.513 15.7093C121.454 14.9687 117.709 15.5814 114.81 18.5276C111.914 21.4779 110.594 25.9013 111.392 29.9595C108.743 28.2554 105.48 27.5374 102.362 27.9748C103.273 27.2094 104.456 26.774 105.646 26.7678C101.357 24.9275 95.6627 26.1365 92.4773 29.5634C93.3718 28.3111 94.5029 27.2506 95.856 26.4811C100.133 24.061 106.864 24.193 110.335 27.6591C109.946 23.8918 111.524 19.8109 114.477 17.4486C116.837 15.567 119.969 14.7232 122.957 15.0801C123.714 15.1729 124.46 15.34 125.18 15.5876C125.289 15.6268 125.398 15.664 125.507 15.7032L125.511 15.7073L125.513 15.7093Z" fill="#948D08"/>
<g style="mix-blend-mode:multiply">
<path d="M112.198 70.7439C111.04 71.66 109.639 72.2851 108.184 72.5038C104.945 72.9866 101.591 71.6538 99.193 69.4132C96.6636 67.053 95.1789 63.5745 95.6334 60.1352C93.9348 61.4577 91.5514 61.8373 89.5259 61.109C87.5024 60.3828 85.9025 58.5713 85.4275 56.4669C84.9504 54.3625 85.4912 51.9218 87.0048 50.3909C86.8834 50.3579 86.7621 50.3229 86.6387 50.2857C84.8949 49.6936 83.4678 48.1957 82.9907 46.407C82.4807 44.4924 83.075 42.3281 84.4877 40.9458C85.8984 39.5635 88.0617 38.6454 89.9577 39.2025C89.9413 39.0374 89.9289 38.8744 89.9228 38.7073C89.8549 37.5581 89.9289 36.3883 90.1305 35.2433C90.3073 34.2426 90.5849 33.2626 90.9633 32.326C92.2136 33.4607 93.1595 34.9359 93.8834 36.4729C95.7341 40.397 95.6724 44.0364 95.5532 48.2184C99.1642 46.1759 105.288 46.1347 108.293 49.4151C111.48 52.8956 111.303 59.0665 108.648 62.7389C111.009 64.6329 112.313 67.7214 112.194 70.7481L112.198 70.7439Z" fill="#CEC6BA"/>
</g>
<path d="M181.184 97.0409C179.308 93.7399 177.386 90.379 174.581 87.8227C169.641 83.3189 162.678 81.918 156.046 81.1856C153.754 80.9318 151.323 80.7606 149.25 81.7695C146.663 83.028 143.733 85.4687 140.899 85.9535C141.572 88.584 142.569 91.4518 144.777 93.4448C146.616 95.1036 149.139 96.6427 151.584 97.0079C154.029 97.371 156.77 96.2322 157.809 93.9813C157.492 95.6627 157.883 97.3339 158.802 98.611C159.721 99.8881 162.115 100.435 163.404 99.919C163.482 102.568 164.132 104.703 166.15 105.929C168.117 107.124 171.494 107.377 172.981 106.218C173.135 107.732 174.058 109.253 176.384 109.735C178.161 110.105 179.617 109.684 181.06 108.689C182.835 107.466 183.75 105.17 183.547 103.018C183.343 100.868 182.253 98.9163 181.186 97.0409H181.184Z" fill="#7C640C"/>
<path d="M194.497 93.1415C193.109 95.5905 190.997 97.3235 187.68 97.928C189.444 99.7684 190.956 101.801 191.39 104.314C191.826 106.826 190.913 109.696 188.716 110.982C187.117 111.914 184.994 111.856 183.448 110.837C181.902 109.818 181.007 107.885 181.229 106.04C179.241 107.65 175.85 107.227 174.326 105.172C172.8 103.117 173.345 99.8282 175.451 98.3778C174.007 98.4707 172.594 97.928 171.786 96.7273C170.978 95.5245 170.859 93.8863 171.488 92.5783C169.882 93.1477 167.83 92.7227 166.9 91.2888C165.973 89.857 166.16 87.7959 167.33 86.5539C165.689 87.7381 163.293 88.0394 161.412 87.2966C159.53 86.5539 158.076 84.8105 157.683 82.8196C157.539 85.5698 155.205 88.027 152.695 89.137C150.184 90.249 147.171 90.0055 144.753 88.7037C142.335 87.4018 140.508 85.12 139.528 82.5472C137.508 85.021 134.541 85.0148 132.602 84.3546C130.662 83.6944 129.052 82.0129 128.664 79.9951C128.493 79.1203 128.555 78.1878 128.945 77.3852C129.336 76.5868 130.115 75.6935 130.987 75.5346C130.868 75.3262 130.751 75.1137 130.642 74.8971C129.276 72.2789 128.507 69.3224 128.773 66.3948C129.065 63.2258 130.667 60.1125 133.325 58.3692C135.98 56.6258 139.69 56.4587 142.298 58.2784C142.293 55.9553 143.778 54.0489 146.011 53.4362C146.602 53.2752 147.208 53.2071 147.817 53.2237C149.503 53.2629 151.189 53.9437 152.514 55.0186C154.313 56.4793 155.491 58.5982 156.182 60.8181C156.929 58.1649 158.942 56.0791 161.658 55.6644C164.375 55.2517 167.283 56.5907 168.71 58.9489C169.833 54.9031 174.721 52.6047 178.831 53.4031C183.839 54.3749 186.189 58.4723 186.565 62.6585C186.942 66.8446 185.122 70.942 181.673 74.0326C186.726 73.3002 191.098 75.4603 193.701 79.3824C195.926 82.7371 197.148 88.4726 194.503 93.1374L194.497 93.1415Z" fill="#9F9613"/>
<path d="M154.998 75.3448C153.548 77.0324 150.949 77.6018 148.932 76.6714C146.914 75.7409 145.65 73.393 145.981 71.1896C146.312 68.9861 148.212 67.1169 150.412 66.8281C152.615 66.5372 154.93 67.8514 155.817 69.8918C155.424 68.5219 155.784 66.8342 156.728 65.7697C157.671 64.7051 159.177 64.1687 160.579 64.3997C160.801 62.0993 162.512 60.946 164.25 60.7583C166.012 60.5685 168.128 61.7671 168.354 63.5291C168.624 62.3469 169.399 61.239 170.429 60.6015C171.46 59.966 172.866 59.8979 173.855 60.5953C174.846 61.2906 175.245 62.7843 174.591 63.8055C176.728 64.1088 178.297 65.813 178.529 67.9649C178.784 70.3313 177.596 72.7514 175.683 74.1626C173.771 75.5717 171.225 76.0029 168.903 75.5077C166.582 75.0146 165.011 74.2059 163.444 72.4171C163.74 73.4363 164.077 74.5876 163.791 75.6088C163.096 78.0743 161.173 78.5323 159.802 78.5303C157.725 78.5303 155.798 77.2655 154.994 75.3427L154.998 75.3448Z" fill="#B0A819"/>
<path d="M147.815 53.2278C146.645 53.43 145.539 54.0902 144.799 55.033C143.641 56.5 143.332 58.5363 143.762 60.3601C140.636 59.3925 137.003 60.3312 134.733 62.6956C135.02 61.2473 135.921 59.9351 137.169 59.1532C135.421 59.1759 133.797 60.1868 132.68 61.5361C131.564 62.8833 130.897 64.5462 130.369 66.2174C129.881 67.7483 129.435 70.3004 130.638 74.893C129.275 72.281 128.506 69.3245 128.773 66.3969C129.065 63.2279 130.667 60.1146 133.326 58.3712C135.981 56.6279 139.69 56.4608 142.298 58.2805C142.294 55.9573 143.779 54.051 146.012 53.4382C146.602 53.2773 147.209 53.2092 147.817 53.2257L147.815 53.2278Z" fill="#B0A819"/>
<path d="M139.301 69.5267C138.203 68.6003 137.175 66.8033 138.256 66.0854C139.357 65.3571 141.487 66.3041 142.682 67.2737C143.803 68.1836 144.925 69.9992 143.794 70.7233C142.655 71.4537 140.516 70.5521 139.301 69.5267Z" fill="#B0A819"/>
<path d="M141.053 73.4735C140.311 73.7892 139.476 73.717 139.182 73.3064C138.888 72.8938 139.242 72.2872 139.982 71.9654C140.722 71.6414 141.572 71.7302 141.868 72.151C142.164 72.5719 141.796 73.1599 141.053 73.4756V73.4735Z" fill="#B0A819"/>
<path d="M155.01 78.9326C154.955 79.7393 154.515 80.4552 154.015 80.5315C153.515 80.6079 153.137 80.0178 153.182 79.2091C153.229 78.4003 153.69 77.6803 154.2 77.6039C154.708 77.5276 155.066 78.1238 155.01 78.9326Z" fill="#B0A819"/>
<path d="M184.197 62.7988C184.435 61.2246 184.036 59.3987 182.963 58.4538C182.646 58.1752 182.237 57.9813 181.817 57.9957C180.876 58.0308 180.304 59.0768 180.162 60.0114C179.989 61.1482 180.164 62.3366 180.658 63.3723C180.874 63.8241 181.157 64.2595 181.567 64.5483C181.976 64.8371 182.527 64.9547 182.988 64.7567C183.67 64.4617 184.086 63.5332 184.199 62.7967L184.197 62.7988Z" fill="#B0A819"/>
<path d="M111.723 161.651C110.754 169.233 112.922 176.511 116.253 183.908C117.166 185.938 118.42 187.772 119.812 189.509C120.732 190.654 121.871 191.183 125.186 192.909C128.752 194.766 132.252 196.437 136.223 197.046C139.034 197.477 142.096 197.351 144.94 197.32C150.965 197.256 158.185 197.958 163.472 200.048C153.539 199.132 148.964 199.351 141.672 200.048C141.18 200.095 140.701 200.132 140.232 200.157C136.391 200.37 133.265 199.928 130.495 199.716C130.491 199.716 130.489 199.712 130.485 199.712C129.905 199.67 129.344 199.635 128.793 199.619C125.811 199.528 123.278 199.842 119.442 200.207C117.875 200.357 116.265 200.397 114.674 200.351C114.013 200.339 113.355 200.306 112.708 200.26C109.498 200.046 104.427 198.214 101.005 198.426C97.4801 198.649 93.8094 199.388 90.0174 199.951C89.8118 199.986 89.6061 200.015 89.4046 200.044C88.9419 200.112 88.4977 200.165 88.0618 200.215C85.4234 200.502 83.1943 200.467 80.3771 200.421C78.954 200.399 77.4919 200.368 75.0263 200.128C69.7126 199.615 66.2023 198.754 64.4297 198.767C60.1278 198.796 55.8936 199.588 52.9612 199.959C52.7247 199.992 52.4924 200.017 52.2723 200.044C53.2018 197.551 57.6395 195.787 60.2244 195.187C65.3633 193.986 69.6118 195.113 71.6703 192.594C74.2511 189.429 75.3451 187.547 77.6523 184.391C80.7534 180.155 82.3368 176.883 83.2128 173.454C85.9026 162.884 86.0157 158.541 83.2025 148.797C83.0031 148.106 82.7892 147.388 82.5609 146.641C82.2977 145.777 82.0119 144.865 81.7075 143.91C80.6279 140.522 79.063 137.312 77.0848 134.361C76.6653 133.738 76.2643 133.132 75.8735 132.542C74.6521 130.683 73.5498 128.952 72.4147 127.192C70.7881 124.666 69.106 122.079 66.9324 118.949C64.7546 115.822 63.601 114.231 63.2555 109.975C62.7908 104.233 62.4247 101.662 61.8387 95.0685C61.5878 92.2729 61.5179 86.3826 60.7323 84.1338L64.9068 86.5208L66.9138 87.67C66.9529 90.3748 67.2511 94.2639 67.757 96.5684C68.0387 97.8579 68.3883 98.6501 68.7934 98.4603C68.8448 98.4376 68.8962 98.3964 68.9476 98.3406C70.4837 96.7066 71.9232 96.1475 73.8089 95.0148L73.9817 95.902L74.6294 99.2567L74.761 99.9355L74.7713 99.9912L74.8639 100.47C73.1673 102.091 72.5257 102.896 72.7992 105.964C72.9843 108.068 73.5169 109.952 74.8248 112.279C76.0977 114.541 77.5639 116.434 79.1556 118.481C80.0892 119.678 80.957 120.823 81.7754 121.811C82.3018 122.451 82.8036 123.024 83.2848 123.501C83.3012 123.517 83.3177 123.534 83.3321 123.546C83.9922 124.196 84.6091 124.662 85.189 124.869C85.2404 124.887 85.2918 124.908 85.3432 124.92C85.4563 124.953 85.5653 124.972 85.6702 124.984C86.8979 125.112 88.0741 124.46 88.8926 123.501C88.9399 123.443 88.9892 123.385 89.0345 123.327C89.2072 123.105 89.3655 122.872 89.4972 122.626C89.9516 121.786 90.2025 120.866 90.367 119.921C90.476 119.294 90.5439 118.654 90.6138 118.021C91.0847 113.672 91.8312 108.956 92.3555 104.617C92.9869 99.364 94.2803 94.5362 94.9199 88.3612C95.0741 86.853 95.1769 85.3366 95.3682 83.8326C95.4607 83.1063 95.5162 81.79 95.6622 81.0721L96.7871 80.5191C98.8681 79.2235 100.347 76.9684 100.651 74.5257C102.364 74.9342 104.188 73.8943 105.403 72.4935C105.403 72.4935 106.993 72.7183 108.186 72.5038C109.125 72.3325 109.882 72.1242 110.713 71.6538C112.319 70.7439 113.38 69.5782 114.676 67.4387C110.84 77.5977 109.568 82.2749 108.811 85.5264C105.675 99.0153 103.912 109.589 103.6 119.921C103.571 120.94 103.555 121.958 103.553 122.975C103.553 123.152 103.557 123.325 103.565 123.503C103.649 125.471 104.213 127.425 105.074 129.191C105.35 129.756 105.681 130.342 106.059 130.893C106.123 130.986 106.191 131.079 106.259 131.17C106.327 131.262 106.392 131.353 106.467 131.44C106.536 131.531 106.608 131.617 106.68 131.7C106.761 131.793 106.841 131.883 106.923 131.97C106.993 132.044 107.067 132.114 107.141 132.185C107.256 132.298 107.375 132.403 107.501 132.506C107.587 132.577 107.678 132.649 107.77 132.709C107.811 132.742 107.857 132.771 107.902 132.801C108.28 133.055 108.687 133.249 109.123 133.361C109.171 133.373 109.222 133.385 109.273 133.396C109.337 133.412 109.401 133.42 109.467 133.431C109.535 133.441 109.598 133.449 109.666 133.456C111.91 133.67 112.2 134.101 114.959 131.927C119.284 128.523 123.039 126.777 126.87 124.557C127.499 124.194 128.133 123.839 128.768 123.499C130.672 122.475 132.616 121.537 134.555 120.61C139.992 118.011 145.427 115.514 150.064 111.58C150.356 111.332 150.628 111.072 150.897 110.802C152.022 109.667 152.674 107.443 152.561 105.844C152.375 103.232 151.843 102.405 150.759 101.099C147.187 96.7788 146.178 92.2935 144.539 88.5799C145.404 89.0131 146.258 89.3577 147.43 89.6568C148.668 93.0755 149.219 94.3278 151.209 97.602C151.781 98.5387 152.935 99.6198 153.934 100.053C155.293 100.641 155.871 100.342 156.235 98.9039C156.69 97.1131 157.257 95.6379 157.665 93.9895C158.197 91.8479 158.382 91.8108 160.548 89.9581C161.999 88.716 163.19 87.9774 163.581 87.6927C163.581 87.6927 165.105 87.5875 166.618 86.9789C160.613 92.3864 160.914 91.1671 160.346 93.0136C160.064 93.9337 159.785 96.8737 159.785 96.8737C159.7 97.4329 160.186 98.2829 161.269 97.6C163.912 95.9268 169.962 93.8615 171.206 93.3499C171.062 94.1256 171.064 94.7198 171.142 95.0644C167.05 96.1228 163.239 98.6646 159.657 101.122C158.308 102.048 157.181 103.286 157.122 104.924C157.064 106.439 157.019 107.569 156.943 108.432C156.844 109.577 156.686 110.255 156.365 110.748C155.567 111.978 154.742 113.187 153.655 114.458C153.321 114.85 152.962 115.25 152.571 115.655C151.841 116.41 151.113 117.105 150.348 117.773C150.111 117.982 149.871 118.188 149.624 118.39C147.693 120.006 145.503 121.53 142.564 123.495C142.26 123.697 141.945 123.907 141.625 124.122C140.204 125.067 138.46 126.228 136.751 127.361C134.209 129.051 131.735 130.668 130.502 131.415C126.58 133.784 122.72 137.128 119.747 140.619C119.597 140.796 119.453 140.965 119.311 141.137C117.481 143.305 116.193 144.972 115.239 146.687C114.929 147.244 114.653 147.807 114.406 148.391C113.682 150.093 113.189 151.991 112.743 154.545C112.669 154.947 112.601 155.368 112.531 155.806C112.268 157.462 112.011 159.377 111.721 161.644L111.723 161.651Z" fill="#B97C56"/>
<path d="M163.472 200.048C153.539 199.132 148.964 199.351 141.672 200.048C141.181 200.095 140.701 200.133 140.233 200.157C136.391 200.37 133.265 199.928 130.496 199.716C130.491 199.716 130.489 199.712 130.485 199.712C124.275 198.534 117.534 195.437 113.462 191.424C113.909 192.264 114.54 195.691 114.99 196.53C109.549 192.565 107.131 184.238 105.977 177.593C104.871 171.219 104.336 164.747 104.373 158.279C104.383 156.751 104.205 154.116 104.205 154.116C101.108 152.975 94.9343 150.19 94.9343 150.19C98.9669 148.011 105.648 147.499 110.228 147.619C111.634 147.658 113.123 147.854 114.408 148.397C113.567 150.369 113.039 152.602 112.533 155.812C112.27 157.469 112.013 159.383 111.723 161.651C110.754 169.233 112.922 176.511 116.253 183.908C117.166 185.938 118.42 187.772 119.813 189.509C120.732 190.654 121.871 191.183 125.186 192.909C128.752 194.766 132.252 196.437 136.223 197.046C139.034 197.477 142.096 197.351 144.94 197.32C150.965 197.256 158.185 197.958 163.472 200.048Z" fill="#815235"/>
<path d="M104.43 133.051C103.569 131.285 103.003 129.333 102.921 127.363C102.911 127.186 102.909 127.012 102.909 126.835C102.913 125.818 102.927 124.803 102.956 123.781H102.814L102.789 126.721L90.7656 127.021L90.7369 123.781H89.721C89.5565 124.726 89.3077 125.646 88.8511 126.486C88.7195 126.73 88.5633 126.965 88.3885 127.188L88.9725 161.498H91.0556L91.0268 158.123L91.0371 158.129L102.518 158.55L102.493 161.496H104.576L105.041 134.171C104.813 133.798 104.611 133.418 104.428 133.045L104.43 133.051ZM102.538 156.22L91.0124 156.307L90.9672 150.976L102.58 151.124L102.538 156.22ZM102.596 149.35L90.9507 149.041L90.9034 143.499L102.645 143.633L102.598 149.35H102.596ZM102.652 142.942V141.677L90.887 141.448L90.8417 136.14L102.705 136.387L102.65 142.94L102.652 142.942ZM102.726 134.378L90.8273 134.301L90.78 128.78L102.769 129.195L102.728 134.378H102.726ZM102.773 128.446L90.7759 128.143L102.773 128.442V128.446Z" fill="#815235"/>
<path d="M142.566 123.503C142.262 123.705 141.947 123.915 141.626 124.13C140.205 125.075 138.462 126.237 136.753 127.369C134.211 129.059 131.737 130.676 130.503 131.423C126.582 133.792 122.722 137.136 119.748 140.627C119.598 140.804 119.454 140.974 119.312 141.145C114.904 146.41 113.742 149.66 112.531 155.814L102.915 149.125L88.7401 147.974L83.2002 148.801C83.0007 148.11 82.7869 147.392 82.5586 146.645C82.2954 145.781 82.0095 144.869 81.7052 143.914C80.6256 140.526 79.0607 137.316 77.0824 134.365C76.6629 133.742 76.2619 133.136 75.8712 132.546C75.4126 131.163 75.098 129.783 75.0116 128.397C74.8389 125.63 75.5237 122.855 75.8959 120.111C75.9411 119.771 75.9987 119.407 76.2352 119.156C76.6177 118.758 77.3189 118.861 77.7363 119.224C78.417 119.822 78.3965 120.73 78.7851 121.483C79.2313 122.347 79.9326 123.152 80.9011 123.398C81.6353 123.581 82.5997 123.259 83.2701 123.526C83.2886 123.532 83.3092 123.542 83.3277 123.55C84.0083 123.849 84.4402 124.586 85.1846 124.873C85.2319 124.891 85.2833 124.908 85.3388 124.924C85.4519 124.957 85.5609 124.976 85.6658 124.988C86.8935 125.116 88.0697 124.464 88.8882 123.505H103.561C103.645 125.473 104.208 127.427 105.07 129.193C105.345 129.758 105.677 130.344 106.055 130.895C106.119 130.988 106.187 131.081 106.254 131.172C106.322 131.264 106.388 131.355 106.462 131.442C106.53 131.533 106.604 131.619 106.676 131.702C106.756 131.795 106.836 131.885 106.919 131.972C106.989 132.046 107.063 132.121 107.137 132.187C107.252 132.3 107.371 132.405 107.496 132.509C107.583 132.579 107.673 132.651 107.766 132.711C107.811 132.746 107.852 132.775 107.897 132.804C108.276 133.057 108.683 133.251 109.119 133.363C109.17 133.375 109.218 133.387 109.269 133.398C109.333 133.414 109.397 133.422 109.462 133.433C109.53 133.443 109.594 133.451 109.662 133.458C111.905 133.672 112.195 134.103 114.955 131.929C119.28 128.525 123.035 126.779 126.866 124.559C127.495 124.196 128.128 123.841 128.764 123.501H142.564L142.566 123.503Z" fill="#673C29"/>
<path d="M163.471 200.048C153.539 199.132 148.964 199.351 141.672 200.048C141.18 200.095 136.469 200.132 136 200.157C133.89 200.157 127.032 196.679 125.603 195.948C121.451 193.83 118.081 191.294 116.51 189.163C114.675 186.672 112.191 182.709 112.351 181.737C112.078 183.378 111.804 185.018 111.529 186.658C109.396 181.614 108.615 176.499 107.912 171.127C107.192 165.639 107.295 159.946 108.183 154.483C108.72 151.172 112.672 148.818 115.243 146.691C113.886 149.125 113.19 151.648 112.53 155.814C112.271 157.466 112.014 159.381 111.722 161.648C110.754 169.231 112.921 176.509 116.252 183.906C117.166 185.936 118.42 187.77 119.812 189.507C120.731 190.652 121.871 191.18 125.185 192.907C128.751 194.764 132.251 196.435 136.222 197.044C139.033 197.475 142.095 197.349 144.939 197.318C150.964 197.254 158.184 197.956 163.471 200.046V200.048Z" fill="#673C29"/>
<path d="M88.5838 200.157C85.9454 200.444 83.194 200.469 80.3747 200.423C80.3356 200.423 80.2986 200.423 80.2595 200.419C78.8715 200.397 77.4217 200.361 75.024 200.13C71.4705 199.786 68.7273 199.289 66.7675 199.002C65.7928 198.857 65.0134 198.767 64.4274 198.771C60.1254 198.8 55.8913 199.592 52.9589 199.963C60.1418 195.383 70.9914 200.32 78.016 195.276C78.9517 194.603 79.7763 193.774 80.7798 193.206C81.7792 192.643 83.0521 192.377 84.0721 192.911C85.3697 193.594 85.7583 195.23 86.1593 196.646C86.4904 197.813 87.06 199.941 88.5838 200.155V200.157Z" fill="#815235"/>
<path d="M114.675 200.353C114.015 200.341 113.357 200.308 112.709 200.262C109.499 200.048 104.428 198.216 101.006 198.428C99.6409 198.513 98.0369 198.709 96.3671 198.946C93.7246 199.322 90.9094 199.811 88.5857 200.155C90.0149 199.953 91.3372 198.43 91.7958 197.785C96.4041 191.323 98.1212 179.606 99.4229 171.713C99.4291 171.659 99.4681 171.708 99.4764 171.789C99.6615 173.355 99.9021 174.948 100.198 176.53C101.22 182.086 102.863 187.564 104.86 191.69C106.951 196.006 109.265 199.472 114.675 200.349V200.353Z" fill="#815235"/>
<path d="M81.0758 198.201C80.8023 198.942 80.5308 199.681 80.2614 200.421C78.8734 200.399 77.4236 200.364 75.0259 200.132C71.4724 199.788 68.7292 199.291 66.7695 199.004C66.7222 198.985 66.6769 198.965 66.6317 198.942C68.6284 198.447 70.7239 198.994 72.7823 199.016C75.0834 199.041 77.3907 198.391 79.3422 197.166C79.8913 196.821 80.6953 196.462 81.0963 196.976C81.3596 197.314 81.2238 197.799 81.0778 198.201H81.0758Z" fill="#673C29"/>
<path d="M100.252 185.752C100.408 188.868 100.998 191.88 102.917 194.535C102.421 194.543 101.981 194.211 101.671 193.823C101.36 193.435 101.14 192.982 100.821 192.6C100.505 192.218 100.046 191.903 99.5526 191.94C98.7341 192.002 98.1851 193.332 97.8026 194.232C97.2905 195.441 96.7045 196.456 96.4783 197.774C96.4145 198.16 96.3919 198.556 96.3652 198.948C93.7227 199.324 90.9075 199.813 88.5838 200.157C90.013 199.955 91.3352 198.432 91.7938 197.787C96.4022 191.325 98.1193 179.608 99.421 171.715C99.4395 171.739 99.46 171.766 99.4744 171.791C99.5382 171.882 99.5958 171.977 99.6451 172.078C99.9392 172.68 99.9947 173.365 100.042 174.034C100.1 174.867 100.151 175.701 100.196 176.532C100.359 179.546 100.095 182.699 100.25 185.752H100.252Z" fill="#673C29"/>
<path d="M82.0408 121.592C82.3225 121.927 82.5816 122.273 82.8078 122.64C84.9794 126.158 81.6172 131.025 77.5435 129.632C76.4269 129.251 75.4439 128.558 74.5288 127.809C73.3896 126.876 72.3058 125.878 71.3105 124.792C71.0288 124.485 69.9266 123.554 69.9348 123.127C69.9492 122.403 71.0905 122.449 71.6498 122.312C72.6904 122.063 73.587 121.279 73.9777 120.282C74.6954 118.45 73.5602 116.923 72.6513 115.455C71.6704 113.872 70.8314 112.123 70.0397 110.439C69.8546 110.043 69.5544 109.486 69.505 109.053C69.4598 108.656 69.4145 107.895 69.5009 107.509C69.9266 105.617 70.5579 104.718 71.5203 103.032C72.2688 101.724 73.5397 100.297 74.6234 99.2588C75.2485 98.6625 75.9703 99.1742 76.5667 98.9493C75.9806 99.4444 75.3966 99.9561 74.8578 100.47C73.1613 102.091 72.5197 102.896 72.7932 105.964C72.9783 108.068 73.5109 109.952 74.8188 112.279C76.0608 114.485 77.5867 116.546 79.1742 118.51C80.0379 119.577 81.1401 120.52 82.0367 121.588L82.0408 121.592Z" fill="#815235"/>
<path d="M85.3412 124.92C85.0616 124.939 84.7737 124.914 84.5043 124.862C83.9449 124.751 83.217 124.485 82.6823 124.594C82.2443 124.685 81.8145 124.873 81.3045 124.898C79.8897 124.966 78.2858 124.716 76.9409 124.256C75.5734 123.79 75.6618 122.352 75.7317 121.064C75.8489 118.904 75.3677 117.644 74.2388 115.873C73.2826 114.373 72.4497 112.795 71.7464 111.159C71.2035 109.898 70.5208 109.024 70.601 107.654C70.6709 106.476 71.1624 104.809 71.7238 103.773C72.4929 102.351 73.4615 101.285 74.6254 100.134C75.4027 99.3661 76.4288 98.5614 77.309 97.9095C78.2611 97.2059 79.0548 96.6757 79.9268 95.8711C80.6259 95.2253 81.2963 94.464 81.6377 93.2818C81.4876 94.1607 81.2243 94.8003 80.6465 95.444C79.8157 96.3642 78.1768 97.5938 76.5687 98.9472C75.9826 99.4424 75.3986 99.9541 74.8598 100.468C73.1633 102.089 72.5217 102.894 72.7952 105.962C72.9803 108.066 73.5129 109.95 74.8207 112.277C76.0936 114.538 77.5598 116.432 79.1515 118.479C80.0851 119.676 80.9529 120.821 81.7713 121.809C83.1018 123.424 84.2822 124.617 85.3392 124.916L85.3412 124.92Z" fill="#673C29"/>
<path d="M171.207 93.3582C169.963 93.8698 163.913 95.9351 161.271 97.6083C160.187 98.2912 159.704 97.4411 159.786 96.882C159.786 96.882 160.066 93.942 160.348 93.0219C160.915 91.1754 160.613 92.3947 166.62 86.9872C165.106 87.5958 163.582 87.701 163.582 87.701C163.192 87.9837 162.001 88.7243 160.549 89.9663C158.386 91.8191 158.199 91.8541 157.666 93.9977C157.444 94.8993 157.175 95.7452 156.903 96.62C156.675 97.3504 156.445 98.0972 156.237 98.9142C156.218 98.9947 156.196 99.071 156.173 99.1432C155.805 100.385 155.217 100.62 153.936 100.063C152.936 99.6302 151.781 98.5491 151.211 97.6124C149.22 94.3382 148.669 93.0858 147.431 89.6672C146.257 89.368 145.406 89.0235 144.54 88.5902C146.179 92.306 147.189 96.7892 150.761 101.109C151.844 102.415 152.377 103.243 152.562 105.855C152.675 107.454 152.023 109.676 150.898 110.812C150.629 111.083 150.356 111.343 150.066 111.59C145.428 115.525 139.995 118.021 134.556 120.621C134.602 120.843 134.649 121.068 134.698 121.287C135.144 123.369 135.609 125.494 136.716 127.311C136.728 127.334 136.74 127.357 136.757 127.375C138.466 126.243 140.209 125.081 141.63 124.136C143.191 123.094 144.55 122.185 145.77 121.328C147.526 120.093 148.992 118.98 150.356 117.786C151.118 117.117 151.846 116.422 152.579 115.667C152.969 115.263 153.329 114.862 153.662 114.47C154.357 113.658 155.019 112.808 155.608 111.912C156.473 110.588 156.724 110.48 156.928 108.663C157.066 107.427 157.078 106.179 157.127 104.937C157.189 103.298 158.314 102.061 159.663 101.134C161.894 99.6033 164.22 98.0374 166.64 96.8201C168.106 96.0836 169.605 95.475 171.148 95.0768C171.072 94.7322 171.068 94.138 171.212 93.3623L171.207 93.3582ZM156.905 102.873C156.313 103.936 156.383 105.058 156.459 106.715C156.5 107.635 156.574 108.469 156.447 109.24C156.325 109.977 155.671 110.951 155.196 111.547C153.928 113.133 153.247 114.239 151.686 115.609C151.26 115.985 150.497 116.732 150.012 117.029C148.941 117.685 148.826 117.186 148.752 116.845C148.488 115.636 149.175 114.947 149.932 114.268C150.689 113.589 151.606 112.805 152.284 112.052C154.049 110.103 154.785 108.945 154.888 106.991C154.991 105.04 154.047 102.981 152.63 101.4C153.858 101.988 155.256 102.176 156.192 101.487C156.846 101.004 157.15 100.181 157.715 99.593C158.279 99.0071 159.796 99.1309 160.165 99.8592C158.853 100.854 157.561 101.695 156.903 102.875L156.905 102.873Z" fill="#815235"/>
<path d="M156.173 99.1391C156.229 100.049 155.394 100.93 154.46 101.025C153.424 101.124 152.529 100.375 151.892 99.5517C150.605 97.8888 150.321 97.8414 150.158 98.2437C150.008 98.613 150.156 99.2629 150.732 100.006C152.114 101.78 153.35 102.82 153.644 106.224C153.837 108.467 153.609 109.467 150.545 112.197C148.914 113.649 147.152 114.4 145.848 115.679C144.475 117.027 143.895 119.494 145.235 120.874C145.396 121.039 145.579 121.184 145.764 121.322C144.547 122.178 143.185 123.088 141.624 124.13C140.203 125.075 138.46 126.237 136.751 127.369C136.734 127.351 136.722 127.328 136.71 127.305C135.603 125.488 135.139 123.361 134.692 121.281C134.645 121.062 134.596 120.837 134.55 120.614C139.988 118.015 145.423 115.518 150.06 111.584C150.352 111.336 150.623 111.077 150.893 110.806C152.017 109.671 152.669 107.447 152.556 105.848C152.371 103.237 151.839 102.409 150.755 101.103C147.183 96.783 146.173 92.2977 144.534 88.584C145.4 89.0173 146.253 89.3618 147.426 89.661C148.663 93.0796 149.215 94.332 151.205 97.6062C151.777 98.5429 152.93 99.6239 153.93 100.057C155.213 100.614 155.799 100.379 156.167 99.137L156.173 99.1391Z" fill="#673C29"/>
<path d="M171.144 95.0726C169.602 95.4708 168.101 96.0794 166.637 96.816C164.761 96.816 163.32 97.2431 162.063 97.9672C161.56 98.2561 161.255 98.6976 160.673 98.5841C160.075 98.4665 158.929 98.4314 158.436 98.5016C158.971 97.2142 158.987 95.9144 159.213 94.9138C158.308 95.2604 157.504 95.8566 156.904 96.6159C157.177 95.7411 157.447 94.8952 157.667 93.9936C158.199 91.852 158.385 91.8149 160.55 89.9622C162.002 88.7202 163.192 87.9816 163.583 87.6969C163.583 87.6969 165.107 87.5916 166.62 86.983C160.616 92.3905 160.916 91.1712 160.348 93.0177C160.067 93.9379 159.787 96.8779 159.787 96.8779C159.703 97.437 160.188 98.287 161.272 97.6041C163.914 95.9309 169.964 93.8657 171.208 93.354C171.064 94.1298 171.066 94.7239 171.144 95.0685V95.0726Z" fill="#673C29"/>
<path d="M107.036 120.967H77.3764L77.2037 117.705L77.1872 117.394L75.6141 87.5132L106.875 87.996L107.036 120.967Z" fill="#F3A035"/>
<path d="M106.874 87.996C112.467 83.7562 119.646 73.6282 124.721 56.7929C132.897 75.2891 143.05 87.996 143.05 87.996L142.408 120.969H107.034L106.874 87.996Z" fill="#C05E0A"/>
<path d="M75.6121 87.996C81.2055 83.7563 88.3844 72.9845 93.4596 56.1492C101.636 74.6454 106.497 82.8485 111.788 87.996H75.6121Z" fill="#C05E0A"/>
<path d="M85.5799 104.159C93.4559 104.031 101.334 103.905 109.21 103.777C107.443 104.648 105.299 104.664 103.259 104.66C97.363 104.646 91.457 104.631 85.5799 104.159Z" fill="#C05E0A"/>
<path d="M113.846 103.717C114.607 103.138 131.192 103.463 139.07 103.336C137.304 104.206 135.159 104.223 133.119 104.219C127.223 104.204 119.724 104.19 113.846 103.717Z" fill="#A74C00"/>
<path d="M91.8228 117.336C90.5149 117.98 88.9294 117.868 87.4159 117.866C84.0085 117.856 80.601 117.85 77.1977 117.681L77.1854 117.45C82.0631 117.371 86.945 117.415 91.8207 117.336H91.8228Z" fill="#C05E0A"/>
<path d="M108.574 109.432C109.882 108.788 111.467 108.9 112.981 108.902C116.388 108.912 119.796 108.918 123.199 109.088L123.211 109.319C118.334 109.397 113.452 109.354 108.576 109.432H108.574Z" fill="#A74C00"/>
<path d="M119.141 76.3536C120.303 75.7099 121.714 75.8213 123.057 75.8234C126.084 75.8337 129.115 75.8399 132.138 76.0091L132.148 76.2402C127.813 76.3186 123.474 76.2752 119.141 76.3536Z" fill="#A74C00"/>
<path d="M94.7507 93.7914C96.2786 93.6099 102.232 93.6697 105.972 93.6099C105.133 94.0225 104.116 94.0308 103.147 94.0287C100.346 94.0225 97.5433 94.0143 94.7507 93.7914Z" fill="#C05E0A"/>
<path d="M108.227 113.948C104.885 114.047 101.169 114.006 98.2039 113.897C100.17 113.779 102.206 113.478 104.25 113.356C105.786 113.265 107.32 113.179 108.227 113.95V113.948Z" fill="#C05E0A"/>
<path d="M132.939 90.0221C129.597 90.1211 125.881 90.0798 122.916 89.9705C124.882 89.8529 126.917 89.5517 128.962 89.4299C130.498 89.3391 132.032 89.2525 132.939 90.0241V90.0221Z" fill="#A74C00"/>
<path d="M91.3273 114.078C88.0823 113.649 84.7756 113.684 81.5389 114.184C84.8024 114.272 88.0679 114.237 91.3273 114.078Z" fill="#C05E0A"/>
<path d="M142.397 94.0472C139.728 93.6181 137.007 93.6532 134.346 94.1525C137.03 94.2412 139.716 94.2061 142.397 94.0472Z" fill="#A74C00"/>
<path d="M100.12 109.053C96.994 109.579 93.8703 109.605 90.7898 109.131C93.8991 109.104 97.0104 109.079 100.12 109.053Z" fill="#C05E0A"/>
<path d="M79.4328 108.904C78.5424 109.05 77.0289 109.162 76.7678 109.428L76.741 108.904C77.6088 108.925 78.565 108.883 79.4328 108.904Z" fill="#C05E0A"/>
<path d="M86.3982 99.4403C88.1297 99.4094 89.8632 99.3784 91.5947 99.3475C89.9064 99.8014 88.1071 99.8076 86.3982 99.4403Z" fill="#C05E0A"/>
<path d="M110.947 89.6403C112.678 89.6094 114.412 89.5785 116.144 89.5475C114.455 90.0014 112.656 90.0076 110.947 89.6403Z" fill="#A74C00"/>
<path d="M100.536 117.429C102.267 117.398 104.001 117.367 105.732 117.336C104.044 117.79 102.245 117.796 100.536 117.429Z" fill="#C05E0A"/>
<path d="M106.925 98.7182C105.802 99.0029 104.616 98.7801 103.413 98.9328C104.655 99.1412 106.874 99.0524 106.931 99.496C106.925 99.2361 106.944 99.0772 106.925 98.7182Z" fill="#C05E0A"/>
<path d="M80.3191 93.7543L93.3258 93.7625C89.7806 94.5465 86.4019 94.0019 82.4249 94.1092C81.6969 94.1298 81.008 93.975 80.3191 93.7564V93.7543Z" fill="#C05E0A"/>
<path d="M112.543 94.0761L125.549 94.0844C122.004 94.8684 118.626 94.3237 114.648 94.431C113.92 94.4516 113.232 94.2969 112.543 94.0782V94.0761Z" fill="#A74C00"/>
<path d="M131.038 109.432C134.879 109.418 138.718 109.403 142.56 109.389C139.418 110.187 136.426 109.655 132.903 109.777C132.257 109.799 131.649 109.649 131.038 109.432Z" fill="#A74C00"/>
<path d="M110.119 98.5965C113.458 98.4975 116.8 98.7471 120.142 98.6481C118.176 98.7657 116.14 99.0669 114.096 99.1886C112.56 99.2794 111.026 99.3661 110.119 98.5945V98.5965Z" fill="#A74C00"/>
<path d="M133.224 117.2C135.867 117.008 138.497 117.483 141.139 117.291C139.583 117.464 137.966 117.499 136.348 117.679C135.131 117.813 133.917 117.943 133.224 117.2Z" fill="#A74C00"/>
<path d="M131.205 82.1202C133.08 81.8251 134.937 82.1965 136.813 81.9015C135.704 82.1346 134.548 82.2316 133.397 82.473C132.531 82.6545 131.667 82.832 131.205 82.1202Z" fill="#A74C00"/>
<path d="M110.742 117.188C112.617 116.893 114.474 117.264 116.35 116.969C115.241 117.202 114.086 117.299 112.934 117.54C112.068 117.722 111.205 117.899 110.742 117.188Z" fill="#A74C00"/>
<g style="mix-blend-mode:multiply">
<path d="M75.7831 90.7338V89.989L125.943 58.4806L143.05 87.996L142.408 120.969H138.265L137.267 86.5498L125.513 70.3251C125.513 70.3251 118.85 83.9894 106.894 92.2317L75.7811 90.7338H75.7831Z" fill="#CEC6BA"/>
</g>
<path d="M126.485 51.113C123.555 64.3729 115.854 80.8823 105.023 88.582L90.7635 88.5056L72.8338 88.4086C72.8338 88.4086 73.7633 87.7051 75.283 86.0505C76.268 84.9797 77.5018 83.5087 78.894 81.5755C79.6322 80.5522 80.4116 79.3947 81.2259 78.1011C81.7812 77.214 82.3446 76.2938 82.906 75.3571C83.1713 74.9094 83.4407 74.4638 83.7039 74.0099C88.7153 65.5077 93.4615 56.1471 93.4615 56.1471C93.4615 56.1471 97.6421 55.9449 104.751 54.998C110.375 54.2552 117.826 53.0483 126.487 51.113H126.485Z" fill="#924C3B"/>
<path d="M126.486 51.113C129.077 57.8121 131.939 64.8206 135.411 71.1071C138.88 77.3935 142.931 83.0197 148.596 87.4163L148.094 88.3179C146.665 88.4602 144.008 88.1776 143.052 87.996C137.656 83.8945 127.434 66.5165 124.896 57.1828C125.678 54.4574 126.488 51.1151 126.488 51.1151L126.486 51.113Z" fill="#5E352B"/>
<path d="M127.464 53.6198C127.118 55.1774 126.958 55.5406 126.485 57.1952C122.927 69.6278 115.07 83.4509 105.51 90.249L105.02 88.5861C115.489 81.1422 123.345 64.1976 126.485 51.113C126.651 51.6866 127.464 53.6198 127.464 53.6198Z" fill="#A45D40"/>
<path d="M148.595 87.4163L148.094 88.3179C142.428 83.9213 137.491 77.3935 134.022 71.1071C130.921 65.4974 128.311 59.3079 125.942 53.2835C126.265 52.025 126.487 51.1151 126.487 51.1151C129.078 57.8121 131.941 64.8227 135.41 71.1071C138.879 77.3935 142.932 83.0197 148.595 87.4163Z" fill="#A45D40"/>
<path d="M72.8338 88.4087L73.1669 89.9663L105.512 90.2469L105.023 88.584L72.8338 88.4087Z" fill="#5E352B"/>
<path d="M99.7437 88.8791H98.1541C104.683 82.3657 112.199 72.4997 117.079 61.2638C112.765 73.5994 105.51 83.7047 99.7437 88.8791Z" fill="#5E352B"/>
<path d="M92.9907 88.8791H91.4011C98.1543 82.7948 105.358 73.8016 109.935 61.6001C105.847 74.7135 98.8576 84.1875 92.9907 88.8791Z" fill="#5E352B"/>
<path d="M86.355 88.8791H84.7654C91.3253 82.7948 98.6296 72.4997 103.509 61.2638C99.1951 73.5994 92.0204 84.6702 86.355 88.8791Z" fill="#5E352B"/>
<path d="M79.8341 88.8791H77.7674C82.6123 84.563 87.8581 79.4154 97.4676 61.2638C87.8581 81.8829 84.4034 84.5568 79.832 88.8791H79.8341Z" fill="#5E352B"/>
<path d="M80.1161 110.03L79.4334 95.1593L89.1231 94.9426L88.7324 110.03H80.1161Z" fill="#FFD67F"/>
<path d="M80.492 96.1517L88.0842 95.9825L87.7449 109.015H81.0822L80.492 96.1517Z" fill="#5F2B08"/>
<path d="M80.5907 98.3139L80.492 96.1517L88.0842 95.9825L87.7449 109.015H86.7517L85.5713 101.144L80.5907 98.3139Z" fill="#472006"/>
<path d="M83.6121 95.8752L84.0645 109.226H84.9632V95.8752H83.6121Z" fill="#FFD67F"/>
<path d="M94.2068 110.03L93.5261 95.1593L103.216 94.9426L102.825 110.03H94.2068Z" fill="#FFD67F"/>
<path d="M94.5828 96.1517L102.175 95.9825L101.838 109.015H95.175L94.5828 96.1517Z" fill="#5F2B08"/>
<path d="M94.6835 98.3139L94.5828 96.1517L102.175 95.9825L101.838 109.015H100.844L99.6621 101.144L94.6835 98.3139Z" fill="#472006"/>
<path d="M97.7048 95.8752L98.1552 109.226H99.0559V95.8752H97.7048Z" fill="#FFD67F"/>
<g style="mix-blend-mode:multiply">
<path d="M105.545 61.2204C106.106 59.2357 105.936 57.0137 104.897 55.2332C104.85 55.1527 104.801 55.0764 104.749 54.998C97.6403 55.9429 93.4596 56.1471 93.4596 56.1471C93.4596 56.1471 88.7135 65.5077 83.702 74.0099C83.7144 74.503 83.5869 74.9528 83.1818 75.2231C83.0913 75.285 82.9988 75.3262 82.9021 75.3572C82.3407 76.2938 81.7773 77.214 81.222 78.1012C80.6504 79.2441 79.8237 80.5563 78.8901 81.5755C77.4979 83.5087 76.2641 84.9797 75.2791 86.0505C73.7594 87.7031 72.8299 88.4087 72.8299 88.4087L74.7773 88.419L75.7788 89.9849L76.3484 101.526C77.6131 100.148 78.3534 99.1804 79.616 97.8435C80.8786 96.5065 82.5525 94.6146 83.1036 92.8568C83.41 91.883 83.5643 89.89 83.5396 90.0509C83.5396 90.0509 83.0646 88.8749 84.0352 88.4706L89.5422 88.5015C91.1195 88.3117 92.452 87.2719 93.2437 86.5023C94.6462 85.1344 95.1685 83.0445 95.1685 83.0445C95.1685 83.0445 97.9631 82.9021 99.0345 82.6442C100.346 82.3286 101.591 81.7075 102.619 80.8266C104.367 79.3308 105.475 77.1088 105.619 74.8084C108.482 74.0017 110.682 70.7687 110.653 67.7833C110.624 64.798 108.422 61.9673 105.543 61.2184L105.545 61.2204Z" fill="#CEC6BA"/>
</g>
<path d="M130.092 82.8485C130.092 85.1365 128.895 87.1068 127.168 88.027C126.502 88.3839 125.751 88.584 124.961 88.584C122.128 88.584 119.831 86.0175 119.831 82.8485C119.831 81.7447 120.11 80.7131 120.594 79.8383C121.494 78.2043 123.115 77.1129 124.961 77.1129C127.795 77.1129 130.092 79.6795 130.092 82.8485Z" fill="#472006"/>
<path d="M127.927 85.0189C127.927 86.1227 127.647 87.1522 127.166 88.027C126.5 88.3839 125.749 88.584 124.96 88.584C122.126 88.584 119.829 86.0175 119.829 82.8485C119.829 81.7447 120.108 80.7131 120.592 79.8383C121.258 79.4835 122.007 79.2854 122.794 79.2854C125.628 79.2854 127.925 81.852 127.925 85.021L127.927 85.0189Z" fill="#5F2B08"/>
<path d="M117.736 120.967L116.924 93.8388L133 93.4448L132.673 120.967H117.736Z" fill="#E8B168"/>
<path d="M130.639 111.96V118.877H120.46L120.139 111.64L127.793 111.873L130.639 111.96Z" fill="#5F2B08"/>
<path d="M130.872 96.1764L130.345 110.101H119.973L119.257 99.4094L119.053 96.3559L130.872 96.1764Z" fill="#5F2B08"/>
<path d="M127.794 111.873L130.64 111.96V118.877H128.637L127.794 111.873Z" fill="#472006"/>
<path d="M130.345 110.101H127.419L125.942 103.14L119.257 99.4094L119.053 96.3559L130.872 96.1764L130.345 110.101Z" fill="#472006"/>
<path d="M35.0002 91.9428C37.5193 91.9779 40.1906 90.5708 41.0193 88.159C41.4984 86.7623 41.4696 85.2912 41.2085 83.8367C42.7857 85.7451 45.8127 86.4156 48.1982 85.7719C50.5836 85.1282 52.5042 83.0053 52.9114 80.5604C53.8635 81.7591 55.3606 82.8175 56.8844 82.7164C58.4081 82.6153 59.86 81.724 60.6455 80.4098C61.9513 80.9318 63.4319 80.5109 64.4868 79.5784C65.5418 78.6458 65.9428 77.6514 66.644 75.9988C67.3987 78.7552 69.3399 81.2144 72.042 82.1181C74.7462 83.0238 78.1125 81.9696 79.4245 79.4298C80.2656 81.1072 82.0505 82.2728 83.9136 82.4523C85.7767 82.6339 87.7076 81.7962 88.8531 80.3108C91.4708 81.9242 94.9297 81.9304 97.4405 80.156C99.9514 78.3817 101.261 75.0477 100.628 72.0313C98.5674 62.1963 87.0393 56.176 77.4051 53.4258C70.0083 51.3152 62.1241 51.6041 54.5216 52.7636C48.885 53.6239 43.1209 55.0433 38.6236 58.559C35.759 60.7975 33.5217 63.8344 32.2303 67.2386C30.5358 71.7054 30.4864 76.6033 30.4577 81.3816C30.4453 83.3106 30.5954 85.2293 30.9039 87.1336C31.2391 89.203 32.0102 91.8995 35.0002 91.9428Z" fill="#6A5607"/>
<path d="M105.572 72.2356C103.702 75.2375 98.6787 75.6646 96.3859 72.3449C92.3204 77.1129 85.3759 78.0681 80.2966 75.2911C75.2174 72.5121 72.5379 65.3859 73.9424 59.7576C71.9415 63.0834 68.3531 65.4004 64.5056 65.8398C60.654 66.2834 56.6378 64.8454 53.9337 62.0643C54.6514 65.7119 52.8253 69.7206 49.605 71.5609C46.3867 73.4033 42.0148 72.9371 39.251 70.4613C39.251 70.4613 36.3947 72.182 34.7907 74.1131C33.4931 75.6728 32.3601 77.5235 32.1071 79.5433C31.9077 81.1092 31.9981 83.2012 32.7487 84.728C31.8789 85.2623 31.2455 86.4012 31.2332 87.4245C31.2106 88.9657 32.4423 91.1361 35.0005 91.9449C32.2819 92.2337 29.2364 90.6265 28.126 87.866C27.1183 85.3676 27.5111 82.0892 29.5716 80.3582C24.1468 77.7463 20.7517 71.4289 21.5599 65.4458C22.3639 59.4626 27.6592 55.4023 33.6289 54.5729C31.1468 52.5242 30.1721 48.4805 30.4641 45.4476C30.7849 42.1094 32.4259 39.0869 34.7126 37.0836C36.5119 35.5032 38.9899 34.385 41.365 34.1457C43.9211 33.8919 46.0659 34.0838 48.1984 35.1649C47.9064 33.6815 48.2827 32.0578 49.278 30.9292C50.2774 29.8007 51.8752 29.3777 53.3661 29.6005C54.7131 29.8027 56.0723 30.727 56.8353 32.4023C57.4666 33.7887 57.7175 35.0039 58.0177 36.6668C60.9295 31.2593 66.6196 27.4569 72.7188 26.8545C78.8181 26.25 85.3718 28.4349 89.0486 33.5948C92.6103 38.598 93.3424 47.1312 90.7678 51.9734C92.9064 50.8324 95.2302 50.3497 97.2742 50.7128C100.904 51.3586 103.129 54.0902 102.74 58.2474C102.576 59.997 101.564 61.8373 99.9804 63.2279C101.891 63.3207 103.914 64.0098 105.251 65.5386C106.46 66.9209 106.931 70.059 105.572 72.2418V72.2356Z" fill="#928100"/>
<path d="M83.2992 39.0601C83.9469 36.3223 82.3244 33.2874 79.7745 32.1196C77.2246 30.9519 74.0145 31.6142 71.9725 33.5432C69.9305 35.4723 69.0463 38.3875 69.5378 41.1563C67.6233 39.0044 64.6312 37.8676 61.777 38.208C60.7652 38.3277 59.7473 38.6371 58.9659 39.2932C58.1844 39.9472 57.6806 40.9933 57.8595 42.0001C56.0355 41.6287 54.0326 42.8914 53.574 44.7028C53.1154 46.5122 54.2752 48.5815 56.054 49.1303C54.888 50.5622 54.2218 52.5737 54.6187 54.3811C55.0176 56.1863 56.274 57.7811 57.9336 58.5858C59.2229 59.2109 60.6973 59.3636 62.1265 59.2563C66.7349 58.9056 71.0102 55.7056 72.6573 51.3709C75.199 53.2979 77.9484 54.7875 81.1029 54.3336C84.2574 53.8818 87.2186 51.6144 88.0001 48.5135C88.5039 46.5101 88.3599 44.3232 87.4572 42.4664C86.649 40.8035 85.1232 39.3469 83.3012 39.0601H83.2992Z" fill="#A89700"/>
<path d="M44.1368 56.96C43.7091 56.2916 43.6062 55.4023 43.9538 54.6885C44.2807 54.018 44.9552 53.5723 45.6667 53.3495C46.7073 53.0256 47.9041 53.1453 48.7945 53.7766C49.6849 54.4079 50.2052 55.5736 49.9667 56.6402C49.7281 57.7069 48.6814 58.5672 47.5936 58.4785C48.9323 58.3588 50.2977 59.2419 50.7419 60.5169C51.1861 61.7899 50.6658 63.3352 49.543 64.0779C48.4202 64.8206 46.8019 64.6927 45.8086 63.7829C45.7901 64.4513 45.2513 64.9898 44.6756 65.3261C42.8515 66.3948 40.3057 66.009 38.8786 64.4472C37.4494 62.8854 37.2828 60.3106 38.5002 58.5775C39.7176 56.8445 42.1894 56.1327 44.1368 56.958V56.96Z" fill="#A89700"/>
<path d="M36.1073 67.3996C36.8394 66.6176 36.9401 65.9657 36.6152 65.4045C36.3088 64.8701 35.659 64.507 34.2792 64.8805C33.2654 65.1549 32.3749 65.8274 31.7621 66.6837C31.4352 67.1396 31.1843 67.674 31.1905 68.2351C31.1966 68.7963 31.5113 69.3761 32.0377 69.5679C32.7348 69.8238 33.5018 69.3843 34.1373 69.0006C34.8858 68.5487 35.5706 67.9752 36.1073 67.3996Z" fill="#A89700"/>
<path d="M31.5151 63.8489C32.1546 64.113 32.7386 64.3791 33.5118 64.4018C33.991 64.4162 34.6408 64.3667 34.6798 63.8881C34.7025 63.6137 34.4865 63.3826 34.2727 63.2114C33.5858 62.6605 32.7386 62.3139 31.8646 62.2293C31.3711 62.1818 30.7398 62.318 30.6411 62.8049C30.5424 63.2898 31.0585 63.6611 31.513 63.8489H31.5151Z" fill="#A89700"/>
<path d="M58.0197 36.6648C57.4912 35.5734 56.7941 34.6512 55.7535 34.0343C54.715 33.4174 53.3578 33.2523 52.2885 33.8197C51.2212 34.3891 50.5796 35.7632 51.0218 36.8917C47.3059 35.4785 42.7181 36.9248 40.4704 40.2114C40.6349 38.5196 41.7906 36.9619 43.3617 36.3264C39.2571 36.5967 35.3582 39.0477 33.3286 42.6376C31.2989 46.2254 31.7575 50.8985 33.6309 54.573C31.1488 52.5243 30.1741 48.4805 30.4661 45.4476C30.7869 42.1095 32.4279 39.0869 34.7146 37.0836C36.5139 35.5032 38.9919 34.385 41.367 34.1457C43.9231 33.8919 46.0679 34.0838 48.2004 35.1649C47.9084 33.6815 48.2847 32.0578 49.28 30.9292C50.2794 29.8007 51.8772 29.3777 53.3681 29.6006C54.715 29.8028 56.0743 30.727 56.8372 32.4023C57.4686 33.7888 57.7194 35.004 58.0197 36.6669V36.6648Z" fill="#BAA700"/>
<path d="M83.5436 76.5105C82.7231 81.3135 82.3673 85.2252 81.9787 89.6651C81.8368 91.2703 81.7957 92.3906 81.6414 93.2736C81.6414 93.2777 81.6414 93.2839 81.6373 93.286C81.4872 94.1649 81.224 94.8045 80.6461 95.4482C79.8153 96.3683 78.1764 97.598 76.5683 98.9514C75.9822 99.4465 75.3982 99.9582 74.8594 100.472L74.7669 99.9933L74.7566 99.9376L74.625 99.2588L73.9772 95.9041L73.8045 95.017C75.5298 93.9833 76.6711 93.286 77.4011 92.504C77.4053 92.4999 77.4053 92.4978 77.4073 92.4937C77.9358 91.9284 78.2443 91.3198 78.4005 90.5131C78.6062 89.4588 78.8015 88.3839 78.9846 87.2966C79.6611 83.3787 80.2163 79.3102 80.6461 75.45C81.88 76.0256 82.4414 76.2567 83.5415 76.5125L83.5436 76.5105Z" fill="#B97C56"/>
<path d="M69.4244 72.4481C66.965 79.5247 66.8046 80.22 66.9115 87.6742L63.4465 85.6935L61.2379 84.4288L60.732 84.14C58.7641 78.5014 55.0029 72.9041 52.2001 69.2564C53.0411 68.0783 53.4257 67.1499 53.8575 65.6954C56.0661 69.0212 58.0485 71.9426 60.1542 75.3303C60.4195 75.7574 61.1762 76.6549 61.5587 76.9809C62.188 77.5173 62.6897 77.5441 63.8166 77.4059C65.6242 72.3429 67.0205 69.3967 68.4394 64.7092C69.2805 64.2491 70.8803 63.6323 73.1938 60.8532C73.1033 61.14 70.1709 70.3065 69.4265 72.4522L69.4244 72.4481Z" fill="#B97C56"/>
<path d="M109.086 120.967L108.801 112.197H109.798V120.967H109.086Z" fill="#903A01"/>
<path d="M109.798 120.967V112.197H110.439L110.25 120.967H109.798Z" fill="#5F2B08"/>
<path d="M112.171 120.967L112.014 112.197H112.903L112.825 120.967H112.171Z" fill="#903A01"/>
<path d="M112.825 120.967L112.903 112.197H113.462L113.286 120.967H112.825Z" fill="#5F2B08"/>
<path d="M115.085 120.967L114.99 112.197H115.891V120.967H115.085Z" fill="#903A01"/>
<path d="M115.89 120.967V112.197H116.532L116.343 120.967H115.89Z" fill="#5F2B08"/>
<path d="M118.167 110.895H108.566L108.548 112.242L118.167 112.197V110.895Z" fill="#5F2B08"/>
<path d="M108.566 110.895H107.034V112.197L108.547 112.242L108.566 110.895Z" fill="#903A01"/>
<path d="M134.863 120.967L134.577 112.197H135.574V120.967H134.863Z" fill="#903A01"/>
<path d="M135.574 120.967V112.197H136.215L136.026 120.967H135.574Z" fill="#5F2B08"/>
<path d="M137.947 120.967L137.791 112.197H138.679L138.601 120.967H137.947Z" fill="#903A01"/>
<path d="M138.601 120.967L138.679 112.197H139.239L139.062 120.967H138.601Z" fill="#5F2B08"/>
<path d="M140.541 120.967L140.446 112.197H141.347V120.967H140.541Z" fill="#903A01"/>
<path d="M141.346 120.967V112.197H141.988L141.799 120.967H141.346Z" fill="#5F2B08"/>
<path d="M143.625 110.895H133.96L134.036 112.197H143.625V110.895Z" fill="#5F2B08"/>
<path d="M134.139 110.895H132.843V112.197H134.139V110.895Z" fill="#903A01"/>
<path d="M160.897 120.967H55.4657V123.503H160.897V120.967Z" fill="#A74C00"/>
<path d="M63.5125 123.503L84.6749 143.93V141.355L68.0016 123.503H63.5125Z" fill="#903A01"/>
<path d="M84.675 141.355L68.0018 123.503H70.488L84.675 139.748V141.355Z" fill="#5F2B08"/>
<path d="M76.3387 132.43L77.4615 123.503H80.106L77.774 133.965L76.3387 132.43Z" fill="#903A01"/>
<path d="M77.7732 133.965L80.1052 123.503H81.7092L78.9824 133.715L77.7732 133.965Z" fill="#5F2B08"/>
<path d="M88.7635 123.503L99.6644 146.262H101.108L91.6753 123.503H88.7635Z" fill="#903A01"/>
<path d="M91.6756 123.503H93.6538L101.108 143.93V146.262L91.6756 123.503Z" fill="#5F2B08"/>
<path d="M107.038 147.71L121.708 123.503H124.754L108.882 147.71H107.038Z" fill="#5F2B08"/>
<path d="M107.038 147.71L121.708 123.503H119.302L107.038 145.859V147.71Z" fill="#903A01"/>
<path d="M115.366 133.965L130.203 123.503H134.051L114.079 136.09L115.366 133.965Z" fill="#903A01"/>
<path d="M114.079 136.09L134.051 123.503H137.018L116.501 136.09H114.079Z" fill="#5F2B08"/>
<path d="M85.2851 152.723H83.8435L83.2019 115.007H84.9643L85.2851 152.723Z" fill="#5F2B08"/>
<path d="M84.6435 152.723H83.2019L82.5603 115.007H84.3227L84.6435 152.723Z" fill="#C05E0A"/>
<path d="M98.8057 152.723H97.3621L97.6829 115.007H99.4473L98.8057 152.723Z" fill="#5F2B08"/>
<path d="M98.1641 152.723H96.7205L97.0413 115.007H98.8057L98.1641 152.723Z" fill="#C05E0A"/>
<path d="M96.9967 120.421L85.0079 120.004L84.3601 119.352L97.0028 119.67L96.9967 120.421Z" fill="#5F2B08"/>
<path d="M97.1899 119.67L84.2449 119.35V118.262L97.1899 117.941V119.67Z" fill="#C05E0A"/>
<path d="M96.9491 127.613L85.0076 127.363L84.4236 126.711L97.0026 127.029L96.9491 127.613Z" fill="#5F2B08"/>
<path d="M97.0028 127.029L84.3601 126.711V125.521L97.0028 125.601V127.029Z" fill="#C05E0A"/>
<path d="M96.8789 134.856L85.0074 134.72L84.4871 134.167H96.8789V134.856Z" fill="#5F2B08"/>
<path d="M96.8792 134.167H84.4874L84.4236 132.659L96.8792 132.901V134.167Z" fill="#C05E0A"/>
<path d="M96.815 142.35L85.1964 142.201L84.5486 141.428L96.815 141.584V142.35Z" fill="#5F2B08"/>
<path d="M96.8152 141.69L84.4871 141.428V140.245L96.844 140.573L96.8152 141.69Z" fill="#C05E0A"/>
<path d="M96.7684 149.777L85.267 149.356L84.5945 148.713L96.7684 148.975V149.777Z" fill="#5F2B08"/>
<path d="M96.7684 148.975L84.5945 148.713L84.6007 147.537L96.7684 147.446V148.975Z" fill="#C05E0A"/>
<path d="M119.921 180.989C119.705 180.989 119.508 180.842 119.454 180.621C117.542 172.81 118.243 135.997 118.474 123.901C118.504 122.246 118.527 121.05 118.533 120.509C118.535 120.245 118.751 120.031 119.014 120.031C119.284 120.033 119.498 120.251 119.496 120.517C119.491 121.064 119.469 122.263 119.436 123.92C119.206 135.985 118.506 172.703 120.39 180.392C120.454 180.65 120.296 180.912 120.038 180.976C119.999 180.986 119.962 180.991 119.923 180.991L119.921 180.989Z" fill="#CEC6BA"/>
<path d="M134.937 180.72C134.725 180.72 134.53 180.578 134.472 180.363C132.578 173.299 132.899 136.418 133.004 124.297C133.018 122.739 133.027 121.613 133.027 121.085C133.027 120.819 133.243 120.602 133.508 120.602C133.773 120.602 133.989 120.819 133.989 121.085C133.989 121.617 133.979 122.746 133.966 124.305C133.862 136.393 133.541 173.175 135.402 180.112C135.47 180.37 135.32 180.634 135.063 180.704C135.021 180.714 134.978 180.72 134.937 180.72Z" fill="#CEC6BA"/>
<path d="M117.534 126.525L135.387 126.115V129.599H117.534V126.525Z" fill="#C05E0A"/>
<path d="M135.299 138.902C135.299 138.902 124.421 138.855 119.315 138.648C118.089 138.597 117.199 138.539 116.868 138.469C116.855 138.469 116.843 138.465 116.833 138.463C116.845 138.32 116.857 138.174 116.868 138.021C116.942 136.981 116.936 135.822 116.931 135.572V135.525C116.931 135.525 117.195 135.537 117.659 135.554H117.672C119.066 135.609 122.253 135.721 125.712 135.756C129.066 135.791 132.679 135.756 135.163 135.525C135.262 138.098 135.295 138.902 135.295 138.902H135.299Z" fill="#C05E0A"/>
<path d="M117.125 156.237L135.877 155.816V159.381H117.125V156.237Z" fill="#C05E0A"/>
<path d="M116.639 167.45C116.639 167.45 129.07 168.042 135.821 167.45C135.934 170.215 135.971 171.081 135.971 171.081C135.971 171.081 118.237 171.001 116.526 170.607C116.664 169.266 116.639 167.452 116.639 167.452V167.45Z" fill="#C05E0A"/>
<path d="M116.87 144.76C119.023 144.98 133.695 144.98 135.17 144.76C135.258 146.691 135.17 147.962 135.17 147.962L116.87 147.974V144.76Z" fill="#C05E0A"/>
<path d="M119.921 171.873H118.562C118.297 171.873 118.081 171.657 118.081 171.391C118.081 171.125 118.297 170.908 118.562 170.908H119.921C120.187 170.908 120.402 171.125 120.402 171.391C120.402 171.657 120.187 171.873 119.921 171.873Z" fill="#CEC6BA"/>
<path d="M119.543 167.372H118.184C117.919 167.372 117.703 167.155 117.703 166.889C117.703 166.623 117.919 166.406 118.184 166.406H119.543C119.809 166.406 120.025 166.623 120.025 166.889C120.025 167.155 119.809 167.372 119.543 167.372Z" fill="#CEC6BA"/>
<path d="M134.509 172.034H133.15C132.885 172.034 132.669 171.818 132.669 171.552C132.669 171.285 132.885 171.069 133.15 171.069H134.509C134.774 171.069 134.99 171.285 134.99 171.552C134.99 171.818 134.774 172.034 134.509 172.034Z" fill="#CEC6BA"/>
<path d="M134.472 167.557H133.113C132.847 167.557 132.632 167.341 132.632 167.075C132.632 166.808 132.847 166.592 133.113 166.592H134.472C134.737 166.592 134.953 166.808 134.953 167.075C134.953 167.341 134.737 167.557 134.472 167.557Z" fill="#CEC6BA"/>
<path d="M119.393 160.347H118.034C117.768 160.347 117.552 160.13 117.552 159.864C117.552 159.598 117.768 159.381 118.034 159.381H119.393C119.658 159.381 119.874 159.598 119.874 159.864C119.874 160.13 119.658 160.347 119.393 160.347Z" fill="#CEC6BA"/>
<path d="M119.543 156.165H118.184C117.919 156.165 117.703 155.948 117.703 155.682C117.703 155.416 117.919 155.199 118.184 155.199H119.543C119.809 155.199 120.025 155.416 120.025 155.682C120.025 155.948 119.809 156.165 119.543 156.165Z" fill="#CEC6BA"/>
<path d="M119.543 148.954H118.184C117.919 148.954 117.703 148.737 117.703 148.471C117.703 148.205 117.919 147.988 118.184 147.988H119.543C119.809 147.988 120.025 148.205 120.025 148.471C120.025 148.737 119.809 148.954 119.543 148.954Z" fill="#CEC6BA"/>
<path d="M119.393 144.879H118.034C117.768 144.879 117.552 144.663 117.552 144.396C117.552 144.13 117.768 143.914 118.034 143.914H119.393C119.658 143.914 119.874 144.13 119.874 144.396C119.874 144.663 119.658 144.879 119.393 144.879Z" fill="#CEC6BA"/>
<path d="M119.543 139.598H118.184C117.919 139.598 117.703 139.381 117.703 139.115C117.703 138.849 117.919 138.632 118.184 138.632H119.543C119.809 138.632 120.025 138.849 120.025 139.115C120.025 139.381 119.809 139.598 119.543 139.598Z" fill="#CEC6BA"/>
<path d="M119.543 135.43H118.184C117.919 135.43 117.703 135.213 117.703 134.947C117.703 134.681 117.919 134.464 118.184 134.464H119.543C119.809 134.464 120.025 134.681 120.025 134.947C120.025 135.213 119.809 135.43 119.543 135.43Z" fill="#CEC6BA"/>
<path d="M119.864 130.431H118.504C118.239 130.431 118.023 130.214 118.023 129.948C118.023 129.682 118.239 129.465 118.504 129.465H119.864C120.129 129.465 120.345 129.682 120.345 129.948C120.345 130.214 120.129 130.431 119.864 130.431Z" fill="#CEC6BA"/>
<path d="M134.079 148.954H132.72C132.455 148.954 132.239 148.737 132.239 148.471C132.239 148.205 132.455 147.988 132.72 147.988H134.079C134.345 147.988 134.561 148.205 134.561 148.471C134.561 148.737 134.345 148.954 134.079 148.954Z" fill="#CEC6BA"/>
<path d="M134.079 144.745H132.72C132.455 144.745 132.239 144.528 132.239 144.262C132.239 143.996 132.455 143.78 132.72 143.78H134.079C134.345 143.78 134.561 143.996 134.561 144.262C134.561 144.528 134.345 144.745 134.079 144.745Z" fill="#CEC6BA"/>
<path d="M134.079 139.919H132.72C132.455 139.919 132.239 139.703 132.239 139.437C132.239 139.17 132.455 138.954 132.72 138.954H134.079C134.345 138.954 134.561 139.17 134.561 139.437C134.561 139.703 134.345 139.919 134.079 139.919Z" fill="#CEC6BA"/>
<path d="M134.079 135.43H132.72C132.455 135.43 132.239 135.213 132.239 134.947C132.239 134.681 132.455 134.464 132.72 134.464H134.079C134.345 134.464 134.561 134.681 134.561 134.947C134.561 135.213 134.345 135.43 134.079 135.43Z" fill="#CEC6BA"/>
<path d="M134.036 130.565H132.677C132.412 130.565 132.196 130.348 132.196 130.082C132.196 129.816 132.412 129.599 132.677 129.599H134.036C134.302 129.599 134.518 129.816 134.518 130.082C134.518 130.348 134.302 130.565 134.036 130.565Z" fill="#CEC6BA"/>
<path d="M134.152 160.347H132.792C132.527 160.347 132.311 160.13 132.311 159.864C132.311 159.598 132.527 159.381 132.792 159.381H134.152C134.417 159.381 134.633 159.598 134.633 159.864C134.633 160.13 134.417 160.347 134.152 160.347Z" fill="#CEC6BA"/>
<path d="M134.079 155.816H132.72C132.455 155.816 132.239 155.599 132.239 155.333C132.239 155.067 132.455 154.85 132.72 154.85H134.079C134.345 154.85 134.561 155.067 134.561 155.333C134.561 155.599 134.345 155.816 134.079 155.816Z" fill="#CEC6BA"/>
<path d="M134.036 126.195H132.677C132.412 126.195 132.196 125.979 132.196 125.713C132.196 125.446 132.412 125.23 132.677 125.23H134.036C134.302 125.23 134.518 125.446 134.518 125.713C134.518 125.979 134.302 126.195 134.036 126.195Z" fill="#CEC6BA"/>
<path d="M119.576 126.488H118.216C117.951 126.488 117.735 126.272 117.735 126.005C117.735 125.739 117.951 125.523 118.216 125.523H119.576C119.841 125.523 120.057 125.739 120.057 126.005C120.057 126.272 119.841 126.488 119.576 126.488Z" fill="#CEC6BA"/>
<path d="M117.534 128.733V126.525L135.387 126.115L118.184 127.254L117.881 127.941L124.962 128.205L118.692 128.652L118.062 129.166L121.301 129.599H117.534V128.733Z" fill="#CD7E3B"/>
<path d="M116.788 146.883V144.675L134.347 144.819L117.44 145.401L117.475 146.103L124.218 146.354L117.946 146.8L117.767 147.394L120.981 147.972L116.87 147.974L116.788 146.883Z" fill="#CD7E3B"/>
<path d="M117.125 158.403V156.196L135.877 155.816L117.775 156.922L117.812 157.621L129.358 157.479L118.282 158.321L118.104 158.915L124.628 159.381H117.125V158.403Z" fill="#CD7E3B"/>
<path d="M116.639 167.45L132.321 167.648L117.521 168.282L117.558 168.981L129.105 168.839L118.029 169.68L117.851 170.275L123.306 170.927L116.524 170.607L116.639 167.45Z" fill="#CD7E3B"/>
<path d="M118.027 137.699L117.398 138.213L120.639 138.648L116.833 138.463L116.868 135.574H116.931L117.659 135.556H117.672C119.066 135.612 122.253 135.723 125.712 135.758L117.517 136.301L117.215 136.99L124.295 137.254L118.023 137.701L118.027 137.699Z" fill="#CD7E3B"/>
<path d="M74.2177 169.55H67.5858L65.5623 158.979L75.6017 158.657L74.2177 169.55Z" fill="#F29A71"/>
<path d="M65.5623 158.979L75.6017 158.657L74.2177 169.55H72.9263L73.354 160.778L66.8702 159.282L65.624 159.327L65.5623 158.979Z" fill="#DE5046"/>
<path d="M70.5819 160.138L71.8609 160.433V169.55H71.2214L70.5819 160.138Z" fill="#DE5046"/>
<path d="M67.1024 160.138L69.5063 160.778L69.8806 168.599H68.4904L67.1024 160.138Z" fill="#FADBCC"/>
<path d="M65.5621 158.979H64.9637V158.36L76.2389 158.145L76.0662 158.979H65.5621Z" fill="#DE5046"/>
<path d="M65.326 158.521L73.3603 158.304L73.2411 158.521L65.326 158.799V158.521Z" fill="#F29A71"/>
<path d="M66.1335 158.306H65.825C65.825 155.55 67.902 152.346 70.5815 152.346C73.261 152.346 75.3379 155.418 75.3379 158.164H75.0295C75.0295 155.616 73.0862 152.655 70.5815 152.655C68.0768 152.655 66.1335 155.692 66.1335 158.306Z" fill="#DE5046"/>
<path d="M65.6506 158.345L65.6197 158.135C65.5889 157.92 65.7555 157.728 65.9693 157.728H66.0249C66.2202 157.728 66.3786 157.887 66.3786 158.083V158.345H65.6485H65.6506Z" fill="#DE5046"/>
<path d="M74.7709 158.174L74.7298 157.859C74.7071 157.677 74.847 157.514 75.0321 157.514H75.2356C75.4166 157.514 75.5564 157.671 75.5379 157.852L75.503 158.174H74.7709Z" fill="#DE5046"/>
<path d="M70.8595 152.837C70.6868 152.837 70.5449 152.699 70.5387 152.525L70.5058 151.481C70.3249 145.704 69.9876 134.955 70.0946 129.408C70.0946 129.383 70.1542 126.99 70.621 126.204C71.0734 125.44 72.3689 125.411 73.0928 125.682C73.2593 125.743 73.3437 125.929 73.282 126.096C73.2203 126.263 73.0352 126.346 72.8686 126.286C72.3093 126.078 71.4004 126.152 71.1721 126.536C70.9048 126.988 70.7526 128.527 70.7361 129.424C70.6313 134.955 70.9665 145.696 71.1474 151.465L71.1803 152.509C71.1865 152.686 71.0467 152.835 70.8698 152.841C70.8657 152.841 70.8636 152.841 70.8595 152.841V152.837Z" fill="#CEC6BA"/>
<path d="M71.7233 131.663C71.6883 131.663 71.6513 131.656 71.6163 131.644C71.4498 131.584 71.3634 131.401 71.421 131.234C71.9412 129.767 73.2553 128.597 74.7688 128.25C74.9415 128.211 75.1122 128.318 75.1533 128.492C75.1924 128.665 75.0834 128.838 74.9127 128.877C73.6069 129.174 72.4738 130.183 72.0255 131.448C71.9783 131.58 71.8549 131.663 71.7233 131.663Z" fill="#CEC6BA"/>
<path d="M70.8162 131.182C70.7977 131.182 70.7771 131.182 70.7586 131.176C70.5838 131.143 70.4686 130.976 70.5015 130.802C70.8018 129.158 72.3317 127.522 73.9151 127.157C74.0879 127.115 74.2606 127.225 74.2997 127.398C74.3388 127.571 74.2318 127.745 74.0591 127.784C72.7266 128.091 71.3858 129.527 71.1328 130.918C71.1041 131.073 70.9704 131.182 70.8182 131.182H70.8162Z" fill="#CEC6BA"/>
<path d="M72.5639 132.601C72.3953 132.601 72.2534 132.469 72.2431 132.296C72.1465 130.476 72.6421 128.636 73.6415 127.113C73.7381 126.965 73.9376 126.924 74.0857 127.023C74.2337 127.12 74.2749 127.32 74.1762 127.468C73.2508 128.875 72.7922 130.577 72.8827 132.261C72.893 132.438 72.7572 132.589 72.5804 132.599C72.5742 132.599 72.5681 132.599 72.5619 132.599L72.5639 132.601Z" fill="#CEC6BA"/>
<path d="M69.4243 72.4481C67.0451 79.2977 66.8168 80.1684 66.9011 86.9686C66.9052 87.1976 66.9073 87.4328 66.9114 87.6721L64.9044 86.5229C64.9044 84.6145 64.8715 81.4785 65.9531 78.262C66.2554 77.3687 66.7284 76.3062 66.8538 75.6852C66.9793 75.0642 66.0128 72.9226 65.8174 73.5209C65.5069 74.47 64.8591 76.3743 64.1476 78.1011C63.6931 79.2132 62.1221 78.9305 61.1843 78.1816C60.2487 77.4327 59.4529 76.4671 58.8174 75.4479C58.1861 74.4287 57.4911 73.6468 56.2901 73.6406C57.3101 76.2917 58.803 78.1568 59.9299 80.7667C60.3885 81.8292 60.7278 84.1379 60.7278 84.1379C59.2328 79.8631 56.7096 75.6068 54.3571 72.2129C53.6065 71.1318 52.8765 70.1373 52.202 69.2605C53.0349 68.0763 53.4194 67.1478 53.8533 65.6933C56.0619 69.0191 58.0442 71.9405 60.15 75.3282C60.4153 75.7553 61.172 76.6528 61.5545 76.9788C62.1467 77.4842 62.6279 77.5379 63.6232 77.4265C63.6849 77.4203 63.7487 77.4141 63.8124 77.4038C63.8474 77.3047 63.8823 77.2078 63.9173 77.1108C63.9399 77.0427 63.9646 76.9788 63.9913 76.9107C64.9311 74.309 65.7619 72.2624 66.5412 70.2034C67.1952 68.4848 67.8142 66.7641 68.4352 64.7051C69.2762 64.245 70.8761 63.6281 73.1896 60.849C73.0991 61.1358 70.1667 70.3024 69.4222 72.4481H69.4243Z" fill="#815235"/>
<path d="M68.7907 98.4624C68.4884 98.71 68.1306 99.2753 67.8551 99.3413C67.7851 99.3599 67.7214 99.3454 67.6618 99.2794C67.3122 98.8895 66.6624 99.2794 66.1832 98.1591C66.1668 98.124 66.1544 98.0848 66.138 98.0456C64.9062 94.8189 64.9041 86.6075 64.9041 86.5229L66.9112 87.6721C66.9338 89.2607 67.0448 91.2558 67.2381 93.0982C67.3698 94.398 67.5425 95.6173 67.7543 96.5684C67.8016 96.7871 67.851 96.9893 67.9024 97.177C67.9188 97.2389 67.9373 97.2988 67.9558 97.3607C67.9949 97.4948 68.036 97.6206 68.0772 97.7341C68.1018 97.7981 68.1245 97.8558 68.1512 97.9115C68.1635 97.9404 68.1759 97.9693 68.1903 97.9961C68.2026 98.0291 68.219 98.058 68.2355 98.0869C68.254 98.1261 68.2746 98.1612 68.2931 98.1921C68.3116 98.2251 68.3321 98.254 68.3548 98.2788C68.3733 98.3077 68.3938 98.3303 68.4165 98.353C68.435 98.3757 68.4576 98.3984 68.4802 98.4149C68.5028 98.4314 68.5254 98.4479 68.5481 98.4603C68.5666 98.4706 68.583 98.4768 68.6015 98.4789C68.6632 98.4975 68.727 98.4913 68.7907 98.4624Z" fill="#815235"/>
<path d="M71.5221 96.3229C69.875 97.3916 69.6138 98.4273 69.5604 99.3495C69.5089 100.276 69.0154 101.9 68.3039 101.289C67.397 100.513 66.6999 99.4651 66.1838 98.1591C66.1673 98.124 66.155 98.0848 66.1385 98.0456L67.4073 96.8841L67.7528 96.5684C67.8001 96.7871 67.8494 96.9893 67.9008 97.177C67.9193 97.241 67.9358 97.2988 67.9543 97.3607C67.9934 97.4948 68.0345 97.6206 68.0756 97.7341C68.1003 97.798 68.1229 97.8558 68.1497 97.9115C68.162 97.9404 68.1743 97.9693 68.1887 97.9961C68.2011 98.0291 68.2175 98.058 68.234 98.0869C68.2525 98.1261 68.273 98.1612 68.2916 98.1921C68.3142 98.2251 68.3327 98.254 68.3533 98.2788C68.3718 98.3076 68.3923 98.3303 68.4149 98.353C68.4334 98.3757 68.4561 98.3984 68.4787 98.4149C68.5013 98.4314 68.5239 98.4479 68.5466 98.4603C68.5651 98.4706 68.5815 98.4768 68.6 98.4789C68.6617 98.4974 68.7255 98.4913 68.7892 98.4624C68.8406 98.4397 68.892 98.3984 68.9434 98.3427C69.2375 98.0271 69.5172 97.7609 69.7701 97.5319C70.8415 96.5725 71.5201 96.3229 71.5201 96.3229H71.5221Z" fill="#815235"/>
<path d="M74.859 100.474L74.7664 99.9953C74.7664 99.9953 75.9859 99.0256 76.9544 98.6315C75.6404 99.756 74.859 100.476 74.859 100.476V100.474Z" fill="#815235"/>
<path d="M83.5433 76.5104C82.805 80.8245 82.4431 84.4164 82.0976 88.3199C82.0586 88.7635 82.0174 89.2112 81.9784 89.6651C81.6966 92.8733 81.8077 94.1566 80.6479 95.4481C79.8171 96.3683 78.1782 97.5979 76.5701 98.9513C75.984 99.4465 75.4 99.9581 74.8612 100.472L74.7687 99.9932L74.6268 99.2608C75.291 98.5944 76.0046 97.9796 76.7613 97.4205C78.028 96.4817 79.4614 95.642 80.2243 94.2577C80.7445 93.3086 80.8885 92.2028 81.0222 91.1279C81.1702 89.9539 81.3142 88.7759 81.4622 87.6019C81.5363 87.0222 81.5589 86.3207 81.0797 85.9844C80.6972 85.7141 80.1461 85.8338 79.7883 86.1288C79.4264 86.428 79.2146 86.8613 79.0131 87.2842L78.9884 87.2966C79.2454 85.8194 79.4819 84.3215 79.6999 82.8195C80.0659 80.3396 80.3826 77.8535 80.6499 75.45C81.8838 76.0256 82.4452 76.2566 83.5453 76.5125L83.5433 76.5104Z" fill="#815235"/>
<path d="M63.8144 77.4017C63.5882 77.8618 63.2776 77.9815 62.8972 78.0227C62.453 78.0702 61.9554 77.8412 61.359 77.2986C59.7324 75.8172 58.2847 73.5663 57.1866 71.66C56.8082 71.0039 56.617 70.5005 55.8664 70.4097C55.1981 70.3292 54.9719 70.7707 54.3591 72.2129C53.5818 71.0658 52.7201 70.1291 52.204 69.2605C53.0368 68.0763 53.4214 67.1478 53.8553 65.6933C56.0638 69.0191 58.0462 71.9405 60.1519 75.3282C60.4172 75.7553 61.174 76.6528 61.5564 76.9788C62.1487 77.4842 62.8191 77.5152 63.8144 77.4038V77.4017Z" fill="#673C29"/>
<path d="M69.4248 72.4481C67.0456 79.2977 66.8173 80.1684 66.9016 86.9686C66.3114 84.2493 66.4842 81.0452 66.8461 78.425C67.282 75.2746 68.2177 73.3621 69.3055 70.4406C68.3987 70.715 67.391 70.6263 66.5417 70.2034C67.1957 68.4848 67.8146 66.7641 68.4357 64.7051C69.2767 64.245 70.8766 63.6281 73.1901 60.849C73.0996 61.1358 70.1672 70.3024 69.4227 72.4481H69.4248Z" fill="#673C29"/>
<path d="M69.7717 97.5319C69.49 98.0146 69.2782 98.5325 69.1363 99.073C69.0828 99.2794 69.0314 99.5084 68.8607 99.6425C68.5852 99.8612 68.1615 99.6941 67.9251 99.4279C67.9004 99.399 67.8778 99.3701 67.8551 99.3413C67.448 98.8131 67.4233 98.0765 67.4192 97.404C67.4151 97.2368 67.413 97.0635 67.4089 96.8861C67.3698 95.6627 67.2444 94.2515 67.2362 93.0961C67.3698 94.3979 67.5446 95.6173 67.7564 96.5704C67.8037 96.7891 67.8531 96.9913 67.9045 97.1791C67.923 97.243 67.9394 97.3008 67.958 97.3627C67.997 97.4968 68.0382 97.6226 68.0793 97.7361C68.104 97.8001 68.1266 97.8578 68.1533 97.9136C68.1657 97.9424 68.178 97.9713 68.1924 97.9981C68.2047 98.0312 68.2212 98.06 68.2376 98.0889C68.2561 98.1281 68.2767 98.1632 68.2952 98.1941C68.3178 98.2272 68.3363 98.256 68.3569 98.2808C68.3754 98.3097 68.396 98.3324 68.4186 98.3551C68.4371 98.3778 68.4597 98.4005 68.4823 98.417C68.505 98.4335 68.5276 98.45 68.5502 98.4623C68.5687 98.4727 68.5852 98.4789 68.6037 98.4809C68.6654 98.4995 68.7291 98.4933 68.7929 98.4644C68.8443 98.4417 68.8957 98.4005 68.9471 98.3447C69.2411 98.0291 69.5208 97.7629 69.7737 97.5339L69.7717 97.5319Z" fill="#673C29"/>
<path d="M83.5435 76.5105C82.8053 80.8245 82.4433 84.4165 82.0979 88.3199C82.0115 86.0422 81.9272 83.7686 81.8408 81.493C81.0388 81.7591 80.2985 82.2171 79.698 82.8175C80.0641 80.3376 80.3808 77.8515 80.6481 75.4479C81.8819 76.0236 82.4433 76.2546 83.5435 76.5105Z" fill="#673C29"/>
<path d="M106.631 168.424L87.5412 168.213C87.5412 168.213 87.6132 167.145 87.3088 166.46L89.0526 166.53C88.5324 166.313 87.3623 165.608 87.1484 165.478L87.1134 165.457C87.1134 165.457 86.8009 164.386 86.7947 163.701C91.6848 163.897 105.899 163.821 105.899 163.821L106.633 168.422L106.631 168.424Z" fill="#903A01"/>
<path d="M106.631 175.785L87.2841 175.575C87.2841 175.575 86.8009 171.748 86.7947 171.063C91.6848 171.259 106.54 171.182 106.54 171.182L106.633 175.783L106.631 175.785Z" fill="#903A01"/>
<path d="M105.516 183.466L86.9307 183.264C86.9307 183.264 86.4659 179.588 86.4598 178.932C91.1566 179.119 105.428 179.047 105.428 179.047L105.516 183.466Z" fill="#903A01"/>
<path d="M106.95 168.744L87.8605 168.533C87.8605 168.533 87.9325 167.465 87.6281 166.78L89.372 166.85C88.8517 166.633 87.6816 165.928 87.4677 165.798L87.4328 165.777C87.4328 165.777 87.1202 164.706 87.114 164.021C92.0041 164.217 106.218 164.141 106.218 164.141L106.952 168.742L106.95 168.744Z" fill="#815235"/>
<path d="M106.631 168.424L87.5412 168.213C87.5412 168.213 87.6132 167.145 87.3088 166.46L89.0526 166.53C88.5324 166.313 87.3623 165.608 87.1484 165.478L87.1134 165.457C87.1134 165.457 86.8009 164.386 86.7947 163.701C91.6848 163.897 105.899 163.821 105.899 163.821L106.633 168.422L106.631 168.424Z" fill="#903A01"/>
<path d="M106.104 165.121C104.387 165.302 101.025 165.533 99.1785 165.589C101.408 165.651 106.047 165.517 106.226 165.886L106.104 165.121Z" fill="#5F2B08"/>
<path d="M105.965 164.211L87.7737 164.572L87.4179 165.263L89.0507 166.528L87.1465 165.476L87.1115 165.455C87.1115 165.455 86.7989 164.384 86.7928 163.699C91.6829 163.895 105.897 163.819 105.897 163.819L105.965 164.209V164.211Z" fill="#5F2B08"/>
<path d="M103.528 167.38C103.471 167.469 103.333 167.531 103.185 167.559C103.037 167.588 102.878 167.59 102.722 167.592C102.321 167.592 100.631 167.559 100.481 167.559C99.6787 167.557 98.8747 167.51 98.0788 167.429C97.7334 167.394 97.39 167.353 97.0486 167.306C98.6402 167.306 100.236 167.353 101.828 167.345C102.122 167.345 103.119 167.39 103.528 167.38Z" fill="#5F2B08"/>
<path d="M88.5247 167.159C90.4454 167.075 92.3846 167.079 94.3155 167.174C92.3085 167.46 90.2192 167.553 88.1422 167.444C88.025 167.399 88.0456 167.281 88.1463 167.227C88.2471 167.174 88.3911 167.163 88.5247 167.159Z" fill="#5F2B08"/>
<path d="M96.0384 165.583C94.0663 165.818 91.9934 165.771 90.0193 165.445C92.0243 165.54 94.0334 165.562 96.0384 165.583Z" fill="#5F2B08"/>
<path d="M87.6006 164.698C87.7569 164.76 87.9543 164.638 87.9687 164.471C87.981 164.304 87.7959 164.153 87.6376 164.205C87.4793 164.256 87.4463 164.638 87.6026 164.7L87.6006 164.698Z" fill="#515151"/>
<path d="M88.0855 167.543C87.997 167.526 87.9024 167.524 87.8222 167.568C87.7441 167.611 87.6906 167.71 87.7235 167.795C87.7667 167.908 87.923 167.923 88.0423 167.904C88.1595 167.885 88.3055 167.813 88.287 167.694C88.2726 167.605 88.1739 167.559 88.0855 167.543Z" fill="#515151"/>
<path d="M105.304 164.419C105.286 164.43 105.269 164.44 105.251 164.45C105.121 164.549 105.14 164.784 105.284 164.861C105.428 164.937 105.633 164.82 105.642 164.657C105.65 164.494 105.454 164.357 105.304 164.419Z" fill="#515151"/>
<path d="M106.215 167.865C106.215 167.685 106.042 167.562 105.89 167.469C105.742 167.514 105.625 167.659 105.625 167.815C105.625 167.972 105.748 168.123 105.904 168.137C106.059 168.154 106.217 168.02 106.215 167.863V167.865Z" fill="#515151"/>
<path d="M106.949 176.107L87.6025 175.897C87.6025 175.897 87.1192 172.069 87.1131 171.385C92.0032 171.581 106.859 171.504 106.859 171.504L106.951 176.105L106.949 176.107Z" fill="#815235"/>
<path d="M106.631 175.785L87.2841 175.575C87.2841 175.575 86.8009 171.748 86.7947 171.063C91.6848 171.259 106.54 171.182 106.54 171.182L106.633 175.783L106.631 175.785Z" fill="#903A01"/>
<path d="M106.546 172.709C104.829 172.889 100.702 173.122 98.8572 173.177C101.086 173.239 106.406 173.233 106.587 173.602L106.548 172.709H106.546Z" fill="#5F2B08"/>
<path d="M106.544 171.576L87.969 172.286L87.5824 172.948L89.1658 173.423L87.0621 173.763C87.0621 173.763 86.7989 171.746 86.7928 171.063C91.6829 171.259 106.538 171.182 106.538 171.182L106.546 171.574L106.544 171.576Z" fill="#5F2B08"/>
<path d="M103.527 174.743C103.47 174.832 103.332 174.894 103.184 174.923C103.036 174.952 102.877 174.954 102.721 174.956C102.32 174.956 100.63 174.923 100.48 174.923C99.6777 174.921 98.8737 174.873 98.0779 174.793C97.7324 174.758 97.389 174.717 97.0476 174.669C98.6393 174.669 100.235 174.717 101.827 174.708C102.121 174.708 103.118 174.754 103.527 174.743Z" fill="#5F2B08"/>
<path d="M89.0462 174.43C90.9669 174.345 92.9061 174.349 94.837 174.444C92.83 174.731 90.7407 174.824 88.6637 174.714C88.5465 174.669 88.5671 174.552 88.6678 174.498C88.7686 174.444 88.9125 174.434 89.0462 174.43Z" fill="#5F2B08"/>
<path d="M96.0384 172.944C94.0663 173.179 91.9934 173.132 90.0193 172.806C92.0243 172.901 94.0334 172.924 96.0384 172.944Z" fill="#5F2B08"/>
<path d="M87.6006 172.061C87.7569 172.123 87.9543 172.001 87.9687 171.834C87.981 171.667 87.7959 171.517 87.6376 171.568C87.4793 171.62 87.4463 172.001 87.6026 172.063L87.6006 172.061Z" fill="#515151"/>
<path d="M87.9995 174.861C87.9317 174.842 87.8576 174.84 87.798 174.888C87.7384 174.935 87.6972 175.047 87.7219 175.139C87.7548 175.267 87.8741 175.282 87.9666 175.261C88.0571 175.241 88.1682 175.16 88.1538 175.026C88.1435 174.927 88.0674 174.875 87.9995 174.859V174.861Z" fill="#515151"/>
<path d="M105.944 171.781C105.925 171.791 105.909 171.801 105.89 171.812C105.761 171.911 105.779 172.146 105.923 172.222C106.067 172.299 106.273 172.181 106.281 172.018C106.289 171.855 106.094 171.719 105.944 171.781Z" fill="#515151"/>
<path d="M106.215 175.226C106.215 175.047 106.042 174.923 105.89 174.83C105.742 174.875 105.625 175.02 105.625 175.177C105.625 175.333 105.748 175.484 105.904 175.498C106.059 175.515 106.217 175.381 106.215 175.224V175.226Z" fill="#515151"/>
<path d="M105.516 184.11L86.9307 183.908C86.9307 183.908 86.4659 180.231 86.4598 179.575C91.1566 179.763 105.428 179.691 105.428 179.691L105.516 184.11Z" fill="#673C29"/>
<path d="M105.516 183.466L86.9307 183.264C86.9307 183.264 86.4659 179.588 86.4598 178.932C91.1566 179.119 105.428 179.047 105.428 179.047L105.516 183.466Z" fill="#903A01"/>
<path d="M105.436 180.512C103.787 180.685 99.8222 180.908 98.0496 180.962C100.192 181.019 105.302 181.015 105.475 181.37L105.436 180.512Z" fill="#5F2B08"/>
<path d="M105.434 179.423L87.5887 180.106L87.2186 180.743L88.7403 181.199L86.7189 181.527C86.7189 181.527 86.4659 179.588 86.4598 178.932C91.1566 179.119 105.428 179.047 105.428 179.047L105.436 179.423H105.434Z" fill="#5F2B08"/>
<path d="M102.537 182.466C102.481 182.552 102.35 182.61 102.208 182.639C102.066 182.668 101.914 182.67 101.762 182.67C101.377 182.67 99.7526 182.639 99.6087 182.637C98.8375 182.635 98.0664 182.59 97.3014 182.513C96.9703 182.48 96.6392 182.441 96.3123 182.396C97.8422 182.396 99.3742 182.441 100.904 182.433C101.186 182.433 102.144 182.476 102.537 182.466Z" fill="#5F2B08"/>
<path d="M88.6256 182.165C90.4722 182.082 92.3333 182.088 94.1881 182.179C92.2613 182.455 90.2522 182.544 88.2575 182.439C88.1464 182.394 88.165 182.282 88.2616 182.231C88.3583 182.179 88.496 182.171 88.6256 182.165Z" fill="#5F2B08"/>
<path d="M95.341 180.737C93.447 180.964 91.4544 180.918 89.5584 180.605C91.4852 180.698 93.4141 180.716 95.341 180.737Z" fill="#5F2B08"/>
<path d="M87.2375 179.889C87.3876 179.949 87.5789 179.831 87.5912 179.67C87.6035 179.509 87.4246 179.365 87.2725 179.414C87.1203 179.464 87.0894 179.829 87.2395 179.889H87.2375Z" fill="#515151"/>
<path d="M87.6203 182.579C87.5545 182.561 87.4846 182.559 87.427 182.606C87.3694 182.654 87.3304 182.759 87.353 182.85C87.3859 182.971 87.499 182.988 87.5874 182.967C87.6738 182.946 87.7807 182.87 87.7684 182.742C87.7581 182.647 87.6841 182.598 87.6203 182.581V182.579Z" fill="#515151"/>
<path d="M104.859 179.621C104.842 179.631 104.826 179.639 104.808 179.65C104.682 179.744 104.701 179.971 104.838 180.046C104.976 180.12 105.174 180.006 105.182 179.848C105.188 179.691 105.003 179.561 104.859 179.621Z" fill="#515151"/>
<path d="M105.118 182.93C105.118 182.759 104.953 182.639 104.807 182.55C104.664 182.594 104.552 182.734 104.552 182.883C104.552 183.033 104.672 183.178 104.82 183.192C104.968 183.206 105.12 183.079 105.118 182.93Z" fill="#515151"/>
<path d="M67.7974 92.9992C58.5622 92.9992 49.8246 91.3321 41.1342 87.9156C40.9697 87.8516 40.8875 87.6639 40.9533 87.4988C41.017 87.3338 41.2042 87.2512 41.3687 87.3173C50.497 90.9051 59.6829 92.5494 69.4467 92.339C73.2839 92.2564 77.2795 91.8129 80.7506 89.3247C80.4257 89.3247 80.1399 89.2607 79.7883 89.1803C79.4942 89.1143 79.1631 89.04 78.7086 88.9802C78.5503 88.9595 78.431 88.8254 78.429 88.6666C78.4269 88.5077 78.54 88.3695 78.6984 88.3447C79.4263 88.2271 79.8787 88.027 80.4031 87.798C80.7568 87.6432 81.1599 87.4658 81.6842 87.3028C81.8529 87.2492 82.0338 87.3441 82.0852 87.5133C82.1387 87.6824 82.0441 87.864 81.8755 87.9156C81.384 88.0703 81.0159 88.2312 80.6602 88.386C80.4915 88.4602 80.327 88.5325 80.1543 88.6005C80.7136 88.7202 81.0673 88.7367 81.9475 88.388C82.0914 88.3303 82.258 88.388 82.3382 88.5201C82.4184 88.6542 82.3937 88.8254 82.2765 88.9286C78.4002 92.339 73.6232 92.8898 69.4611 92.9785C68.9058 92.9909 68.3506 92.9971 67.7995 92.9971L67.7974 92.9992Z" fill="#CEC6BA"/>
<path d="M44.1761 88.6975L43.0018 93.0961L45.2454 91.9758L46.1008 93.7543L47.3737 89.7249L44.1761 88.6975Z" fill="#E08D6C"/>
<path d="M48.2885 89.989L47.8114 94.1937L49.5203 93.0961L50.5361 94.6971L51.554 90.8287L48.2885 89.989Z" fill="#FFE653"/>
<path d="M52.2696 91.2248L51.8192 95.2335L53.3677 94.0286L54.3835 95.5017L55.0519 91.5487L52.2696 91.2248Z" fill="#BFC679"/>
<path d="M56.5827 91.8067L55.828 95.8752L57.3765 94.6971L58.6596 96.4199L59.5151 92.3431L56.5827 91.8067Z" fill="#F29A71"/>
<path d="M60.0497 96.4199L60.2635 92.2874L63.2001 92.5308V96.4199L61.6249 95.1799L60.0497 96.4199Z" fill="#96E2D6"/>
<path d="M63.9198 92.6773L64.2714 96.4199L65.5196 95.5017L66.8481 96.3229V92.6711L63.9198 92.6773Z" fill="#E08D6C"/>
<path d="M67.6375 92.6711L68.2257 96.3229L69.0256 94.9426L70.0949 95.9825V92.6422L67.6375 92.6711Z" fill="#FFE653"/>
<path d="M70.5965 92.6773L70.8967 96.3229L72.1265 94.9427L73.568 96.3229L73.1937 92.4029L70.5965 92.6773Z" fill="#96E2D6"/>
<path d="M74.0057 92.2874L76.7407 91.6519L77.1869 95.2336L75.7824 94.2948L74.6247 95.8752L74.0057 92.2874Z" fill="#BFC679"/>
<path d="M115.26 199.712C115.891 199.033 116.372 198.214 116.66 197.331C116.348 198.653 116.518 200.298 117.129 201.511C115.772 201.82 114.158 201.319 112.737 200.863C112.253 200.708 111.966 200.229 112.019 199.724C112.146 198.498 111.76 197.397 111.616 196.025C112.284 197.475 112.714 198.785 113.683 199.899C113.966 199.132 114.125 198.317 114.147 197.5C114.357 198.305 114.74 199.064 115.26 199.712Z" fill="#716914"/>
<g style="mix-blend-mode:multiply">
<path d="M115.26 199.712C115.891 199.033 116.372 198.214 116.66 197.331C116.348 198.653 116.518 200.298 117.129 201.511C115.772 201.82 114.158 201.319 112.737 200.863C112.253 200.708 111.966 200.229 112.019 199.724C112.146 198.498 111.76 197.397 111.616 196.025C112.284 197.475 112.714 198.785 113.683 199.899C113.966 199.132 114.125 198.317 114.147 197.5C114.357 198.305 114.74 199.064 115.26 199.712Z" fill="#CEC6BA"/>
</g>
<path d="M160.309 200.054C158.721 199.445 156.856 199.862 155.121 200.155C155.89 198.22 155.914 196.12 155.193 194.174C155.803 195.457 156.503 196.497 157.113 197.78C157.428 196.893 157.716 196.365 157.338 195.292C157.716 195.973 157.63 196.299 157.862 196.716C158.094 197.133 158.195 197.419 158.789 197.409C159.112 197.403 159.254 196.883 159.595 196.233C159.433 197.681 159.669 198.682 160.311 200.052L160.309 200.054Z" fill="#716914"/>
<g style="mix-blend-mode:multiply">
<path d="M160.309 200.054C158.721 199.445 156.856 199.862 155.121 200.155C155.89 198.22 155.914 196.12 155.193 194.174C155.803 195.457 156.503 196.497 157.113 197.78C157.428 196.893 157.716 196.365 157.338 195.292C157.716 195.973 157.63 196.299 157.862 196.716C158.094 197.133 158.195 197.419 158.789 197.409C159.112 197.403 159.254 196.883 159.595 196.233C159.433 197.681 159.669 198.682 160.311 200.052L160.309 200.054Z" fill="#CEC6BA"/>
</g>
<path d="M72.536 199.179C72.4599 200.654 72.7684 202.154 73.41 203.421C71.479 203.044 69.546 203.122 67.6151 202.744C68.3821 201.304 68.3533 198.73 68.3718 196.893C68.5158 198.344 69.2725 200.209 70.2699 201.071C70.3439 200.304 70.4159 199.538 70.4899 198.771C70.4591 199.8 71.1274 200.795 71.9808 200.991C72.1659 200.386 72.3509 199.784 72.536 199.179Z" fill="#716914"/>
<path d="M106.726 202.029C106.794 203.504 106.522 205.004 105.961 206.27C106.954 206.05 108.029 205.891 109.043 205.887C109.366 205.887 109.662 206.027 109.983 206.045C110.168 206.056 111.406 205.905 111.48 206.045C111.001 205.464 110.676 204.81 110.489 204.028C110.318 203.318 110.143 202.65 110.115 201.589C110.032 202.012 109.87 202.414 109.642 202.759C109.526 202.932 109.354 203.108 109.169 203.052C109.051 203.017 108.971 202.897 108.91 202.78C108.735 202.439 108.694 202.045 108.605 201.674C108.527 201.354 108.469 201.005 108.437 200.675C108.455 201.593 108.046 203.623 107.213 203.842C107.051 203.238 106.888 202.635 106.726 202.031V202.029Z" fill="#716914"/>
</g>
<defs>
<filter id="filter0_d_94_9255" x="0" y="0" width="211.004" height="226" filterUnits="userSpaceOnUse" color-interpolation-filters="sRGB">
<feFlood flood-opacity="0" result="BackgroundImageFix"/>
<feColorMatrix in="SourceAlpha" type="matrix" values="0 0 0 0 0 0 0 0 0 0 0 0 0 0 0 0 0 0 127 0" result="hardAlpha"/>
<feOffset/>
<feGaussianBlur stdDeviation="7.5"/>
<feComposite in2="hardAlpha" operator="out"/>
<feColorMatrix type="matrix" values="0 0 0 0 1 0 0 0 0 1 0 0 0 0 1 0 0 0 1 0"/>
<feBlend mode="normal" in2="BackgroundImageFix" result="effect1_dropShadow_94_9255"/>
<feBlend mode="normal" in="SourceGraphic" in2="effect1_dropShadow_94_9255" result="shape"/>
</filter>
</defs>
</svg>
