<svg width="158" height="77" viewBox="0 0 158 77" fill="none" xmlns="http://www.w3.org/2000/svg">
<path d="M139.934 44.3898C138.598 35.1337 132.554 26.6837 124.223 22.4236C115.892 18.1635 105.5 18.2064 97.2044 22.5326C92.0454 9.01646 77.7761 -0.461603 63.3081 0.0173631C48.8402 0.496329 35.2295 10.8973 30.9783 24.725C21.8565 24.2032 13.2957 32.7856 13.8451 41.9015C6.91703 38.7746 -1.42552 46.8742 0.207141 54.2962C1.8437 61.7144 10.7513 65.9628 18.1353 64.152C36.6245 77.785 62.6691 80.3823 83.4885 70.6667C100.045 81.609 125.404 75.2656 134.849 57.8242C133.602 60.1256 153.37 63.8561 157.192 55.4411C161.521 45.9124 147.205 40.1804 139.926 44.3937L139.934 44.3898Z" fill="white"/>
<path d="M0.214956 54.2962C1.85151 61.7144 10.7591 65.9628 18.1431 64.152C36.6323 77.785 62.6769 80.3823 83.4963 70.6667C100.053 81.609 125.412 75.2656 134.857 57.8242C133.61 60.1256 153.377 63.8561 157.2 55.4411C161.529 45.9124 147.213 40.1804 139.934 44.3937C138.598 35.1376 132.554 26.6876 124.223 22.4275C121.885 21.232 119.38 20.387 116.808 19.8691C119.586 23.3621 121.889 27.2055 122.836 31.5278C124.137 37.474 122.236 44.4755 117.003 47.5868C113.352 49.7558 108.847 49.7207 104.604 49.5222C99.6125 49.2885 93.6585 48.2722 91.683 43.685C91.0128 42.1313 90.9426 40.3984 90.6387 38.7318C89.1112 30.3168 80.7804 23.7008 72.2352 24.1097C76.6461 24.6354 79.5257 29.7405 78.6295 34.0901C77.7333 38.4397 73.9458 41.7536 69.757 43.2411C65.5721 44.7286 61.0092 44.6858 56.571 44.4443C49.1403 44.0433 40.9341 42.7115 36.2894 36.9016C32.6617 40.7956 26.1778 41.629 21.685 38.7746C19.4796 37.3767 17.9326 35.1999 17.0676 32.7661C16.9975 32.5676 16.9507 32.2794 16.9156 31.9406C14.8388 34.8378 13.6347 38.3229 13.849 41.9054C6.92095 38.7785 -1.42161 46.8781 0.211056 54.3001L0.214956 54.2962Z" fill="#F5FBFF"/>
<path d="M134.857 57.8203C133.61 60.1217 153.378 63.8522 157.2 55.4372C161.529 45.9085 147.213 40.1765 139.934 44.3898C143.313 43.9693 147.034 43.8914 150.381 44.5183C152.244 44.8649 154.309 45.5658 155.076 47.2948C155.388 47.9957 155.435 48.7862 155.396 49.5533C155.256 52.1312 154.028 54.7246 151.858 56.1186C149.941 57.3492 147.552 57.54 145.277 57.6373C142.21 57.7697 137.928 57.8943 134.861 57.8203H134.857Z" fill="#DFF2FD"/>
<path d="M134.857 57.8203C125.408 75.2617 100.049 81.6051 83.4962 70.6628C62.6769 80.3784 36.6322 77.785 18.143 64.1481C10.759 65.9589 1.85147 61.7105 0.214912 54.2923C-1.42165 46.8742 6.9209 38.7746 13.8529 41.8976C8.8575 42.3571 5.51421 48.3306 7.0027 53.1163C8.49119 57.9021 14.8309 60.4293 19.2068 57.9761C18.1313 55.2697 17.6014 52.3492 17.656 49.4365C19.5886 53.6537 24.9269 54.9855 29.5677 55.1101C34.0488 55.2308 38.5454 54.709 42.8784 53.5603C41.803 59.0197 36.8271 63.4667 31.2822 63.934C39.3364 68.4549 48.8986 69.409 58.1374 69.3272C64.3563 69.2727 70.8168 68.7158 76.2097 65.6279C81.6064 62.536 85.6277 56.2822 84.334 50.2036C88.8696 54.2612 90.1594 61.5041 87.2993 66.874C94.7378 70.8653 103.716 71.504 111.933 69.5686C120.151 67.6333 128.385 63.2408 134.857 57.8164V57.8203Z" fill="#DFF2FD"/>
</svg>
