<svg width="334" height="235" viewBox="0 0 334 235" fill="none" xmlns="http://www.w3.org/2000/svg">
<g filter="url(#filter0_d_48_15599)">
<path d="M172.959 81.6998C170.612 78.8429 168.496 75.7686 166.303 72.7909C164.481 70.3159 159.709 65.801 160.327 62.543C161.013 58.932 171.752 39.9154 175.529 40.0653C179.408 40.2199 192.176 59.077 192.326 63.3551C192.432 66.4584 183.611 78.5626 181.089 82.1397C179.621 84.2037 173.133 81.9076 172.959 81.6949V81.6998Z" fill="#009B7F"/>
<path d="M146.177 87.7519C142.912 86.0165 128.767 78.8333 128.086 75.5849C127.328 71.9885 127.937 51.8552 132.618 50.3422C136.313 49.1482 155.206 59.4686 156.989 63.3599C158.283 66.183 154.8 80.7524 153.853 85.0256C153.288 87.4957 146.424 87.8776 146.177 87.7471V87.7519Z" fill="#009B7F"/>
<path d="M198.905 87.2879C198.605 83.5996 197.04 67.8121 199.407 65.487C202.03 62.9105 219.315 52.5804 223.112 55.7128C226.107 58.1829 227.59 79.6648 225.271 83.2613C223.59 85.8716 209.441 90.7877 205.33 92.2862C202.948 93.1418 198.924 87.5586 198.905 87.2831V87.2879Z" fill="#009B7F"/>
<path d="M223.184 100.953C223.967 98.2365 227.107 86.5336 229.43 85.5088C232 84.3777 247.14 81.661 249.009 84.9288C250.483 87.5053 245.744 103.254 243.116 105.202C241.208 106.614 229.773 106.304 226.431 106.266C224.498 106.232 223.131 101.156 223.189 100.953H223.184Z" fill="#009B7F"/>
<path d="M128.076 103.805C124.99 103.53 110.782 102.384 109.198 100.098C107.444 97.5647 102.522 80.6266 105.42 78.461C108.024 76.5081 125.854 79.0121 128.497 81.4387C130.414 83.1983 132.463 95.5924 133.12 99.2034C133.487 101.296 128.303 103.825 128.072 103.805H128.076Z" fill="#009B7F"/>
<g style="mix-blend-mode:multiply">
<path d="M164.418 68.6096C165.568 70.0404 166.848 71.7613 168.679 72.3317C168.852 72.3849 168.997 72.2157 168.959 72.0514C168.732 71.0701 168.452 70.1033 168.142 69.1413C167.186 66.1685 165.949 63.2391 165.365 60.1599C165.65 60.798 165.915 61.4409 166.167 62.0935C167.674 66.0283 168.732 70.3885 171.5 73.6804C171.62 73.8254 171.91 73.7094 171.886 73.5209C171.717 71.887 171.451 70.2628 171.195 68.6386C170.741 65.7528 170.476 62.8524 169.988 59.9714C169.616 57.772 169.215 55.5629 169.046 53.3344C169.442 54.8281 169.814 56.3315 170.176 57.8348C170.635 59.7394 171.079 61.6488 171.558 63.5485C171.867 64.757 172.195 65.9558 172.466 67.1739C172.736 68.3872 173.007 69.6102 173.422 70.7897C173.746 71.7033 174.157 72.7281 174.968 73.313C175.079 73.3952 175.277 73.313 175.301 73.1777C175.611 71.4084 175.688 69.6151 175.727 67.8265C175.76 66.27 175.76 64.7086 175.867 63.1569C175.983 61.4844 176.21 59.8167 176.379 58.149C176.456 57.3901 176.533 56.636 176.601 55.8771C176.601 55.9157 176.601 55.9496 176.606 55.9882C176.833 59.4058 177.079 62.8186 177.427 66.2265C177.562 67.5606 177.707 68.8996 177.92 70.2241C177.992 70.6785 178.069 71.1329 178.176 71.5825C178.239 71.8483 178.306 72.1384 178.446 72.3801C178.591 72.6363 178.833 72.7136 179.089 72.5396C179.543 72.235 179.726 71.5196 179.881 71.0362C180.364 69.4942 180.61 67.8797 180.895 66.2942C181.045 65.4531 181.234 64.6168 181.379 63.7757C181.639 62.2288 181.837 60.6675 182.007 59.1061C182.306 56.3218 182.528 53.5278 182.891 50.7483C183.093 51.9278 183.234 53.1169 183.325 54.3109C183.557 57.2692 183.615 60.2759 183.465 63.2391C183.388 64.786 183.243 66.328 183.089 67.87C183.006 68.6531 182.905 69.4217 182.77 70.2C182.639 70.9347 182.557 71.6743 182.625 72.4187C182.639 72.6073 182.866 72.7329 183.011 72.5782C183.779 71.7952 184.272 70.7945 184.678 69.7891C185.074 68.8078 185.383 67.7927 185.707 66.7824C186.079 65.6319 186.489 64.4911 186.828 63.331C187.19 62.0935 187.499 60.8463 187.755 59.5847C187.596 61.9678 187.316 64.3123 186.716 66.6277C186.137 68.8755 185.403 71.0846 184.944 73.3613C184.895 73.5885 185.151 73.7336 185.325 73.5837C186.272 72.7619 187.098 71.8097 187.861 70.8187C189.219 69.0592 190.436 67.1836 191.673 65.3467C191.784 65.1824 191.895 65.0132 192.006 64.844C190.398 69.2573 183.316 78.9977 181.098 82.1397C179.63 84.2038 173.142 81.9077 172.968 81.695C170.621 78.8382 168.505 75.7638 166.312 72.7861C164.756 70.6737 161.061 67.0821 160.389 64.0464C161.727 65.5739 163.152 67.0192 164.423 68.6048L164.418 68.6096Z" fill="#6ABCA9"/>
<path d="M138.656 81.5065C138.864 81.5548 139.062 81.2793 138.878 81.1246C136.922 79.4569 134.492 78.1276 132.941 76.0345C133.395 76.2955 133.83 76.6001 134.25 76.9094C135.569 77.8859 136.796 78.9832 138.163 79.8871C139.328 80.6557 140.704 81.3663 142.139 81.2068C142.298 81.1874 142.439 81.0231 142.337 80.8636C141.69 79.8823 141.023 78.9107 140.347 77.9487C138.487 75.2997 136.569 72.6846 134.845 69.9437C135.11 70.2531 135.371 70.5673 135.637 70.8767C136.39 71.7613 137.163 72.6314 137.951 73.4822C138.482 74.0574 138.965 74.681 139.468 75.2804C140.023 75.9475 140.603 76.6097 141.26 77.1801C141.82 77.6683 142.458 78.1131 143.192 78.2823C143.356 78.3209 143.525 78.1759 143.472 78.0019C143.047 76.5565 142.482 75.1547 141.835 73.7915C140.844 71.6985 139.666 69.7021 138.487 67.7105C139.555 68.919 140.627 70.1226 141.699 71.3311C143.719 73.6127 145.477 76.1553 147.825 78.1276C148.028 78.2968 148.289 78.0889 148.182 77.852C147.67 76.7161 147.139 75.5946 146.593 74.4731C145.052 71.3069 143.41 68.1987 141.806 65.0663C142.004 65.3274 142.197 65.5884 142.395 65.8494C143.661 67.5268 144.888 69.2187 145.975 71.0217C147.004 72.7281 147.979 74.478 149.192 76.0635C149.351 76.2713 149.651 76.1505 149.607 75.8895C149.361 74.3378 148.975 72.8151 148.487 71.3262C146.936 66.6325 144.429 62.3593 142.038 58.0523C142.791 58.9031 143.511 59.7877 144.187 60.6965C147.907 65.6947 150.482 71.4471 152.192 77.4218C152.25 77.62 152.598 77.6587 152.631 77.4218C152.791 76.252 152.926 75.0822 153.018 73.9027C153.201 71.5728 153.255 69.1945 153.052 66.8452C153.8 70.0984 154.274 73.4097 154.404 76.7547C154.414 77.0206 154.767 77.0544 154.854 76.8176C155.37 75.3626 155.747 73.8689 156.061 72.3559C156.341 70.9975 156.573 69.6344 156.8 68.2664C156.926 67.5123 157.1 66.763 157.264 66.0186C157.076 71.2537 154.626 81.5548 153.854 85.0352C153.288 87.5054 146.424 87.8872 146.178 87.7567C142.975 86.0552 129.328 79.1234 128.149 75.788C131.362 78.1421 134.743 80.559 138.656 81.5113V81.5065Z" fill="#6ABCA9"/>
<path d="M198.798 66.6084C198.562 69.4652 198.682 72.4478 199.745 75.0968C199.822 75.2901 200.035 75.3143 200.161 75.1499C201.818 73.0037 202.861 70.49 204.098 68.0924C204.02 68.3244 203.938 68.5565 203.866 68.7933C203.518 69.8761 203.199 70.9686 202.871 72.0562C202.677 72.704 202.426 73.3324 202.199 73.9656C201.938 74.7052 201.682 75.4545 201.552 76.2327C201.446 76.8418 201.392 77.5089 201.687 78.0793C201.774 78.2436 201.987 78.2098 202.078 78.0793C202.793 77.0932 203.499 76.0974 204.199 75.0968C206.402 71.9547 208.576 68.7885 211.001 65.8156C210.706 66.5117 210.402 67.2078 210.083 67.8894C208.242 71.7952 206.03 75.5898 204.987 79.8147C204.938 80.0177 205.218 80.2256 205.368 80.037C206.383 78.7367 207.368 77.4122 208.329 76.0684C210.416 73.1584 212.392 70.1758 214.353 67.1788C213.01 70.0502 211.716 72.9505 210.204 75.7397C209.552 76.9433 208.899 78.1566 208.373 79.4231C207.924 80.5107 207.518 81.7047 207.6 82.8987C207.61 83.0486 207.735 83.1549 207.89 83.1162C209.262 82.773 210.411 81.7096 211.378 80.7283C212.363 79.7228 213.247 78.6304 214.126 77.5331C214.986 76.4648 215.904 75.4593 216.827 74.4442C217.696 73.4871 218.58 72.4961 219.392 71.4472C217.199 75.991 214.44 80.2304 211.764 84.4987C211.638 84.6969 211.885 84.9193 212.073 84.8081C213.15 84.1894 214.204 83.5319 215.232 82.831C217.899 81.0183 220.426 78.9446 222.619 76.5663C221.532 78.2533 220.416 79.9742 219.073 81.4727C217.793 82.9035 216.319 84.1555 215.126 85.6589C214.981 85.8426 215.117 86.0746 215.348 86.0408C218.677 85.5477 221.962 84.6776 225.116 83.4884C222.836 86.1471 209.344 90.836 205.344 92.2958C202.962 93.1514 198.938 87.5683 198.919 87.2927C198.649 83.9863 197.364 70.9396 198.813 66.6132L198.798 66.6084Z" fill="#6ABCA9"/>
<path d="M223.184 100.953C223.967 98.2366 227.107 86.5337 229.43 85.5089C229.759 85.3638 230.3 85.1898 230.995 85.011C230.933 85.1318 230.87 85.2478 230.807 85.3687C229.822 87.3458 229.049 89.4002 228.189 91.4256C227.498 93.0449 226.599 94.9592 227.049 96.7622C227.082 96.9024 227.261 96.9749 227.382 96.8976C228.145 96.419 228.749 95.7326 229.309 95.0413C229.817 94.4178 230.28 93.7507 230.826 93.161C231.454 92.4842 232.097 91.822 232.71 91.1355C233.42 90.3428 234.131 89.5452 234.874 88.7814C234.667 89.0715 234.449 89.3567 234.246 89.6467C233.696 90.4201 233.174 91.2177 232.614 91.9815C232.126 92.6437 231.614 93.2866 231.111 93.944C230.136 95.225 229.116 96.5882 228.657 98.1544C228.609 98.3236 228.773 98.4783 228.937 98.4348C229.778 98.2124 230.483 97.5888 231.121 97.0281C231.749 96.4722 232.348 95.8824 232.995 95.3507C233.681 94.79 234.324 94.1712 234.966 93.5573C236.048 92.5277 237.155 91.4546 238.435 90.6618C237.855 91.4014 237.246 92.1168 236.618 92.8178C235.947 93.567 235.28 94.3501 234.541 95.0413C233.995 95.5489 233.42 96.0226 232.86 96.5157C232.247 97.0571 231.643 97.6178 231.116 98.2462C230.701 98.7441 230.295 99.3145 230.169 99.9671C230.15 100.073 230.198 100.228 230.329 100.247C231.449 100.412 232.59 100.069 233.628 99.6674C234.594 99.2952 235.527 98.8311 236.449 98.3622C237.551 97.8015 238.657 97.2553 239.734 96.6414C241.246 95.7761 242.705 94.8238 244.111 93.7942C243.797 94.1084 243.488 94.4323 243.159 94.732C239.638 97.9997 235.493 100.455 231.483 103.056C231.285 103.186 231.377 103.457 231.599 103.481C232.483 103.564 233.362 103.506 234.237 103.356C237.034 102.882 239.609 101.519 242.381 100.948C239.546 102.442 236.42 103.332 233.604 104.869C233.43 104.965 233.478 105.231 233.657 105.284C235.44 105.816 237.328 105.869 239.169 105.797C240.183 105.758 241.193 105.676 242.198 105.594C238.86 106.546 229.416 106.3 226.425 106.266C224.493 106.232 223.126 101.156 223.184 100.953Z" fill="#6ABCA9"/>
<path d="M113.478 100.6C114.893 100.968 116.599 101.301 117.98 100.629C118.14 100.552 118.115 100.32 117.98 100.238C117.246 99.7883 116.502 99.3484 115.768 98.8988C114.338 98.0239 112.913 97.12 111.604 96.0662C110.584 95.2492 109.609 94.3356 108.869 93.2528C109.468 93.5284 110.034 93.8764 110.575 94.2534C111.956 95.2057 113.217 96.3224 114.604 97.2746C115.874 98.1447 117.299 98.8988 118.874 98.952C119.062 98.9568 119.188 98.691 119.033 98.5653C116.473 96.3755 113.492 94.5677 111.362 91.9235C111.72 92.1507 112.072 92.3827 112.42 92.6196C113.773 93.5332 115.101 94.4951 116.555 95.2492C117.806 95.897 119.212 96.4335 120.642 96.2209C120.782 96.2015 120.854 95.9985 120.777 95.8873C120.164 94.9834 119.313 94.2873 118.444 93.6444C117.613 93.0353 116.744 92.4794 115.903 91.8848C115.053 91.2806 114.227 90.6377 113.381 90.0334C111.826 88.9216 110.251 87.7905 108.918 86.4128C109.85 86.8672 110.773 87.3554 111.681 87.8582C113.734 88.9941 115.792 90.1204 117.811 91.3096C119.594 92.3586 121.502 93.5235 123.608 93.712C123.777 93.7266 123.893 93.5042 123.806 93.3688C123.202 92.4504 122.294 91.7688 121.41 91.1404C120.598 90.5652 119.772 90.0141 118.975 89.4195C118.101 88.7621 117.198 88.1482 116.299 87.5246C114.758 86.4563 113.203 85.3687 111.86 84.0539C112.729 84.4454 113.579 84.8805 114.415 85.3349C116.362 86.3983 118.265 87.5343 120.038 88.8685C121.719 90.1349 123.376 91.503 125.313 92.3634C125.56 92.4697 125.748 92.2135 125.589 92.0057C124.661 90.8117 123.598 89.7386 122.497 88.709C121.531 87.8098 120.545 86.9252 119.545 86.06C118.671 85.301 117.7 84.6533 116.739 84.0104C114.975 82.8406 113.106 81.7191 111.618 80.1916C112.913 80.5493 114.164 81.0472 115.367 81.6563C120.56 84.2907 124.724 88.5591 128.791 92.6293C128.946 92.7839 129.25 92.6293 129.173 92.4069C128.004 89.1585 126.439 86.0938 124.714 83.1113C126.637 85.156 128.25 87.4715 129.864 89.7627C129.985 89.9319 130.299 89.8933 130.289 89.6467C130.241 88.6896 130.144 87.7422 129.999 86.7947C129.743 85.1077 129.342 83.4303 128.811 81.8013C130.637 84.4744 132.511 95.7761 133.134 99.1985C133.501 101.292 128.318 103.82 128.086 103.8C124.999 103.525 110.792 102.379 109.208 100.093C109.024 99.8318 108.807 99.4016 108.57 98.8602C110.183 99.5079 111.802 100.16 113.488 100.596L113.478 100.6Z" fill="#6ABCA9"/>
</g>
<path d="M95.261 117.886C94.0871 116.755 88.6477 111.602 88.754 110.142C88.8699 108.528 92.435 99.967 94.3383 100.035C96.0484 100.093 102.526 107 102.807 108.866C103.009 110.22 99.7681 115.972 98.8454 117.669C98.3043 118.645 95.3479 117.973 95.261 117.891V117.886Z" fill="#009B7F"/>
<g style="mix-blend-mode:screen">
<path d="M98.9905 104.67C98.5074 104.158 98.0195 103.646 97.5316 103.138C97.0437 102.631 96.522 102.123 95.9036 101.78C95.3819 101.49 94.7878 101.345 94.2081 101.557C93.6235 101.775 93.1695 102.244 92.7927 102.727C92.3772 103.264 92.0439 103.849 91.7251 104.443C91.3338 105.173 90.9473 105.908 90.585 106.652C89.9425 107.977 89.3628 109.33 88.8991 110.727C88.7977 110.495 88.7397 110.297 88.7542 110.142C88.8701 108.528 92.4352 99.967 94.3385 100.035C96.0486 100.093 102.527 107 102.807 108.866C102.816 108.919 102.807 108.992 102.807 109.06C101.527 107.605 100.324 106.082 98.9953 104.675L98.9905 104.67Z" fill="#6ABCA9"/>
</g>
<g style="mix-blend-mode:multiply">
<path d="M90.0584 111.868C90.7541 112.574 91.4449 113.517 92.4158 113.85C92.5849 113.908 92.7395 113.729 92.696 113.57C92.4593 112.675 91.9859 111.888 91.5318 111.09C91.7299 111.37 91.9328 111.646 92.126 111.931C92.5897 112.617 93.097 113.492 93.8747 113.865C94.039 113.942 94.1984 113.845 94.2177 113.666C94.2757 113.13 94.0921 112.584 93.9085 112.086C93.7201 111.578 93.5269 111.08 93.3627 110.568C93.1018 109.736 92.7105 108.924 92.4641 108.078C92.9279 108.905 93.295 109.794 93.7105 110.636C94.2418 111.709 94.6573 112.893 95.4882 113.787C95.6283 113.942 95.865 113.811 95.8746 113.628C95.9423 112.419 95.5896 111.206 95.3964 110.022C95.2949 109.384 95.1742 108.75 95.0631 108.112C95.2949 108.794 95.5172 109.475 95.7394 110.157C96.1113 111.288 96.4398 112.492 97.1838 113.449C97.29 113.584 97.5316 113.502 97.5654 113.347C97.7103 112.671 97.6813 111.979 97.6234 111.293C97.5654 110.592 97.5316 109.891 97.4881 109.19C97.435 108.412 97.3625 107.634 97.2755 106.86C97.2852 106.899 97.2997 106.938 97.3094 106.976C97.5219 107.692 97.7538 108.397 97.9325 109.123C98.2658 110.486 98.4784 111.892 99.0726 113.173C99.1402 113.318 99.3286 113.304 99.43 113.222C99.7923 112.937 99.8986 112.381 99.9759 111.95C100.073 111.409 100.111 110.858 100.155 110.312C100.213 109.591 100.217 108.862 100.193 108.132C100.575 109.64 100.812 111.177 100.565 112.733C100.527 112.98 100.841 113.144 100.981 112.908C101.662 111.767 102.28 110.587 102.763 109.35C102.415 111.249 99.6716 116.122 98.8359 117.659C98.2948 118.636 95.3384 117.964 95.2515 117.882C94.2032 116.871 89.7493 112.651 88.8894 110.723C89.2759 111.1 89.672 111.477 90.0536 111.868H90.0584Z" fill="#6ABCA9"/>
</g>
<path d="M73.8415 114.459C73.1797 113.396 70.1025 108.547 70.4552 107.484C70.8465 106.304 75.1023 100.61 76.4984 101.016C77.7592 101.383 81.2808 107.73 81.1407 109.171C81.0393 110.215 77.5467 113.884 76.5467 114.972C75.9622 115.6 73.8898 114.541 73.8415 114.464V114.459Z" fill="#009B7F"/>
<g style="mix-blend-mode:screen">
<path d="M79.233 104.893C78.6581 103.916 78.1171 102.819 77.2427 102.075C76.8756 101.76 76.4408 101.524 75.9481 101.644C75.4312 101.77 74.9916 102.162 74.6245 102.524C74.2042 102.94 73.8322 103.399 73.4651 103.858C73.0207 104.414 72.5569 104.951 72.1221 105.516C71.528 106.29 70.9676 107.092 70.4555 107.924C70.4266 107.745 70.4169 107.59 70.4555 107.484C70.8468 106.304 75.1027 100.61 76.4988 101.016C77.7161 101.369 81.0348 107.29 81.1411 108.997C80.6242 107.576 80.0011 106.193 79.233 104.893Z" fill="#6ABCA9"/>
</g>
<g style="mix-blend-mode:multiply">
<path d="M71.0451 109.002C71.446 109.795 71.7793 110.684 72.4508 111.298C72.5667 111.404 72.7213 111.375 72.8083 111.25C73.0257 110.931 73.045 110.486 73.0643 110.114C73.0885 109.669 73.0643 109.224 73.0885 108.784C73.1174 108.257 73.1416 107.731 73.1609 107.199C73.2141 107.779 73.2575 108.354 73.2865 108.934C73.3348 109.828 73.3203 110.96 73.8855 111.709C74.0015 111.864 74.2333 111.854 74.301 111.656C74.7454 110.36 74.6971 108.958 74.9579 107.624C75.1077 106.865 75.2285 106.106 75.3782 105.347C75.3396 106.213 75.2768 107.078 75.2091 107.934C75.1029 109.268 74.9193 110.636 75.2236 111.955C75.2719 112.163 75.5328 112.154 75.6391 112.009C76.3154 111.119 76.4796 109.882 76.8081 108.842C77.0497 108.079 77.2477 107.295 77.4989 106.527C77.3781 107.3 77.2187 108.074 77.0497 108.823C76.784 109.988 76.4796 111.182 76.5376 112.386C76.5473 112.54 76.7308 112.69 76.8806 112.584C77.6632 112.013 77.9385 111.027 78.4119 110.225C78.6438 109.833 78.866 109.432 79.0737 109.031C78.7791 110.186 78.4361 111.332 78.0931 112.477C78.0158 112.738 78.3684 112.854 78.5085 112.651C79.2476 111.607 80.1413 110.689 80.9432 109.693C80.18 111.114 77.4168 114.024 76.5424 114.972C75.9579 115.6 73.8855 114.542 73.8372 114.464C73.2092 113.454 70.4074 109.041 70.4267 107.682C70.62 108.127 70.818 108.567 71.0402 109.002H71.0451Z" fill="#6ABCA9"/>
</g>
<path d="M60.7117 108.857C60.4074 108.016 58.963 104.168 59.3688 103.472C59.8132 102.703 63.6343 99.3435 64.5521 99.8366C65.3782 100.276 66.9095 105.241 66.6004 106.227C66.3733 106.942 63.3927 108.997 62.528 109.611C62.0257 109.964 60.731 108.919 60.7069 108.857H60.7117Z" fill="#009B7F"/>
<g style="mix-blend-mode:screen">
<path d="M65.5425 103.211C65.3009 102.432 65.0449 101.461 64.33 100.973C63.702 100.542 62.8952 100.726 62.2624 101.04C61.1417 101.591 60.2625 102.505 59.4075 103.419C59.9823 102.563 63.6488 99.3581 64.5522 99.8415C65.3782 100.281 66.9096 105.246 66.6004 106.232C66.5811 106.3 66.528 106.377 66.4652 106.464C66.3975 105.333 65.8758 104.284 65.5425 103.211Z" fill="#6ABCA9"/>
</g>
<g style="mix-blend-mode:multiply">
<path d="M59.4944 104.796C59.6973 105.502 59.7794 106.28 60.248 106.875C60.3397 106.996 60.5378 106.942 60.6054 106.826C60.9098 106.329 61.0837 105.768 61.2383 105.207C61.3735 104.724 61.5281 104.25 61.6682 103.767C61.8759 103.075 62.0547 102.297 62.417 101.644C62.2962 102.37 61.9484 103.075 61.7986 103.786C61.5764 104.83 61.1755 105.889 61.2431 106.971C61.2528 107.155 61.4943 107.29 61.6296 107.131C62.0257 106.681 62.3107 106.154 62.5715 105.618C62.8276 105.086 63.0884 104.564 63.3396 104.032C63.7019 103.259 63.9966 102.423 64.4507 101.693C64.3782 101.939 64.2865 102.186 64.1947 102.423C64.0014 102.93 63.8082 103.433 63.6343 103.95C63.2285 105.154 62.7503 106.338 62.5329 107.595C62.4991 107.798 62.7503 108.006 62.9145 107.817C63.6729 106.957 64.3251 106.019 64.9676 105.072C64.557 106.024 64.0884 106.957 63.615 107.88C63.5135 108.078 63.7213 108.306 63.9241 108.19C64.8806 107.648 65.7453 106.976 66.581 106.271C66.2526 107.025 63.3783 109.002 62.5329 109.606C62.0305 109.959 60.7359 108.915 60.7117 108.852C60.4653 108.18 59.4944 105.574 59.3253 104.206C59.3833 104.4 59.4364 104.593 59.4944 104.786V104.796Z" fill="#6ABCA9"/>
</g>
<path d="M40.9888 91.5562C42.2931 90.9858 43.2882 92.5665 43.95 93.4511C58.5533 112.975 86.9821 121.033 109.575 111.032C114.503 108.852 119.029 105.913 123.193 102.5C124.208 101.669 125.174 100.774 126.126 99.8609C126.464 99.8415 126.802 99.856 127.15 99.914C128.758 100.194 130.063 101.306 131.077 102.524C132.405 104.115 133.367 106.005 134.174 107.904C135.091 110.075 141.149 153.092 134.483 154.958C119.812 159.062 85.673 145.546 72.7073 136.628C61.6305 129.005 52.0077 119.192 45.6311 107.276C44.2785 104.753 43.0708 102.152 41.9791 99.5031C41.3704 98.0385 40.7183 96.5545 40.3318 95.0124C40.0613 93.949 39.699 92.1121 40.9888 91.5465V91.5562Z" fill="#F58E8E"/>
<g style="mix-blend-mode:multiply" opacity="0.63">
<path d="M40.9882 91.5562C41.0655 91.5223 41.1428 91.4982 41.2201 91.4788C43.4471 98.7249 45.9204 106.043 50.5386 112.149C51.7849 113.792 53.1617 115.334 54.664 116.746C56.2099 118.191 57.9006 119.472 59.6107 120.714C63.055 123.209 66.7119 125.413 70.504 127.342C74.4555 129.353 78.5761 131.073 82.8417 132.301C86.798 133.442 90.9524 134.191 95.0875 134.003C96.8701 133.921 98.6236 133.606 100.174 132.678C101.493 131.886 102.541 130.725 103.343 129.425C105.135 126.515 105.86 123.083 107.111 119.931C108.565 116.277 110.478 112.661 112.869 109.432C116.536 107.494 119.971 105.144 123.188 102.51C124.202 101.678 125.168 100.784 126.12 99.8705C126.458 99.8512 126.796 99.8657 127.144 99.9237C128.753 100.204 130.057 101.316 131.072 102.534C132.4 104.124 133.361 106.014 134.168 107.914C135.086 110.085 141.144 153.102 134.477 154.967C119.806 159.071 85.6676 145.556 72.702 136.637C61.6251 129.014 52.0023 119.201 45.6257 107.286C44.2731 104.762 43.0654 102.162 41.9737 99.5128C41.365 98.0481 40.7129 96.5641 40.3264 95.0221C40.0559 93.9586 39.6936 92.1217 40.9834 91.5562H40.9882Z" fill="#DE717C"/>
</g>
<g style="mix-blend-mode:multiply" opacity="0.63">
<path d="M58.4221 123.943C61.7553 126.481 65.2866 128.753 68.8806 130.899C73.0061 133.36 77.2136 135.685 81.5951 137.662C83.8559 138.682 86.1553 139.615 88.4982 140.427C90.2566 141.036 92.0488 141.519 93.8023 142.138C95.295 142.66 96.7926 143.177 98.3336 143.54C99.7296 143.869 101.256 144.149 102.681 143.844C105.971 143.144 105.213 138.812 105.024 136.352C104.971 135.632 104.899 134.902 104.937 134.181C105.005 132.934 105.299 131.663 105.58 130.445C106.14 128.038 106.932 125.693 107.71 123.354C108.507 120.966 109.294 118.587 110.352 116.296C111.377 114.077 112.604 112.013 114.183 110.147C115.285 108.847 116.492 107.658 117.753 106.522C119.632 105.28 121.444 103.936 123.192 102.51C124.207 101.678 125.173 100.784 126.125 99.8704C126.463 99.851 126.801 99.8655 127.149 99.9235C128.757 100.204 130.062 101.316 131.076 102.534C132.405 104.124 133.366 106.014 134.173 107.914C135.091 110.084 141.148 153.101 134.482 154.967C119.811 159.071 85.6722 145.556 72.7066 136.637C66.586 132.427 60.9148 127.545 55.9874 122.01C56.7845 122.672 57.596 123.315 58.4221 123.943Z" fill="#DE717C"/>
</g>
<path d="M108.681 144.633C100.005 129.667 113.565 108.204 127.912 96.5738C143.665 83.8026 159.423 74.7535 180.644 77.5959C194.117 79.3989 206.735 85.4462 217.411 93.7363C227.527 101.591 236.937 112.656 249.695 116.258C261.433 119.569 275.916 113.473 285.544 123.383C288.191 126.104 290.273 129.386 291.756 132.872C293.186 136.231 294.118 139.934 293.906 143.608C293.799 145.454 293.432 147.354 292.471 148.964C288.012 156.408 276.471 150.37 271.085 147.441C263.24 143.178 254.062 134.457 244.453 138.276C239.106 140.403 234.976 148.084 230.188 151.618C224.058 156.142 217.01 159.357 209.725 161.503C181.509 169.803 149.974 166.796 122.932 155.857C115.826 152.981 111.265 149.099 108.676 144.637L108.681 144.633Z" fill="#F58E8E"/>
<g style="mix-blend-mode:screen">
<path d="M165.09 87.3169C166.853 87.0945 168.63 86.993 170.403 86.848C175.384 86.4419 180.427 86.7513 185.33 87.7181C189.325 88.506 193.233 89.7242 197.001 91.2662C200.909 92.8662 204.673 94.8336 208.18 97.1829C210.349 98.6331 212.426 100.238 214.348 102.002C211.262 100.17 208.088 98.4881 204.817 97.0089C201.368 95.4427 197.818 94.094 194.2 92.9774C190.378 91.7979 186.48 90.9133 182.533 90.2704C178.591 89.6275 174.601 89.1779 170.616 88.9314C168.51 88.8009 166.404 88.6945 164.292 88.7429C163.322 88.7622 162.341 88.7961 161.375 88.8927C160.655 88.9652 159.911 89.0716 159.186 89.0088C159.355 88.9072 159.529 88.8154 159.703 88.7236C161.365 87.8921 163.264 87.5489 165.094 87.3169H165.09Z" fill="#F79F95"/>
</g>
<g style="mix-blend-mode:multiply" opacity="0.25">
<path d="M255.366 122.126C252.675 123.001 249.874 123.682 247.028 123.62C243.821 123.547 240.99 122.363 238.391 120.531C235.802 118.704 233.57 116.417 231.377 114.15C229.029 111.723 226.541 109.466 224.015 107.233C218.74 102.568 213.223 98.1207 207.146 94.5291C195.238 87.4909 181.398 84.0057 167.582 84.6534C154.757 85.2576 141.694 89.1441 130.975 96.2983C123.734 101.132 117.753 107.421 112.435 114.242C116.55 107.474 122.173 101.234 127.922 96.5738C143.675 83.8026 159.433 74.7535 180.654 77.5959C194.127 79.3989 206.745 85.4462 217.421 93.7363C227.536 101.591 236.947 112.656 249.704 116.258C256.1 118.061 263.313 117.074 270.109 117.403C265.013 118.206 260.26 120.54 255.376 122.126H255.366Z" fill="#DE717C"/>
</g>
<g style="mix-blend-mode:multiply" opacity="0.39">
<path d="M267.607 137.019C268.356 137.179 269.071 137.445 269.81 137.633C270.018 137.686 270.143 137.474 270.066 137.3C269.501 136.023 269.1 134.612 269.221 133.2C269.351 131.678 270.216 130.445 271.496 129.647C271.728 129.502 271.568 129.188 271.322 129.232C270.293 129.415 269.356 129.918 268.559 130.59C268.805 128.913 269.496 127.293 270.853 126.215C273.211 124.345 276.66 124.702 279.133 126.138C279.708 126.472 280.244 126.873 280.727 127.322C280.727 127.361 280.727 127.404 280.761 127.448C281.679 128.893 282.346 130.522 282.742 132.185C283.051 133.476 283.21 134.878 282.954 136.197C282.834 135.743 282.636 135.313 282.326 134.931C282.196 134.767 281.945 134.912 281.94 135.09C281.916 135.907 281.781 136.739 281.413 137.478C280.235 139.861 277.264 140.495 274.955 141.22C274.795 141.268 274.723 141.481 274.853 141.602C276.23 142.892 277.81 144.546 278.143 146.489C277.462 145.686 276.776 144.894 276.061 144.125C274.578 142.525 272.989 141.022 271.221 139.741C269.612 138.576 267.858 137.633 265.994 136.956C266.53 136.884 267.066 136.903 267.612 137.019H267.607Z" fill="#DE717C"/>
</g>
<g style="mix-blend-mode:multiply" opacity="0.39">
<path d="M282.124 129.024C282.215 129.174 282.307 129.328 282.389 129.488C282.834 130.334 283.095 131.252 283.206 132.19C283.104 131.765 282.988 131.339 282.858 130.924C282.65 130.281 282.409 129.643 282.129 129.029L282.124 129.024Z" fill="#DE717C"/>
</g>
<g style="mix-blend-mode:multiply" opacity="0.39">
<path d="M117.174 107.455C116.507 109.06 115.927 110.698 115.459 112.39C114.246 116.741 113.691 121.348 113.628 125.862C113.565 130.353 114.043 134.994 115.729 139.194C116.536 141.2 117.608 143.086 119.024 144.724C120.183 146.068 121.603 147.151 123.125 148.055C126.4 149.998 130.154 151.192 133.932 151.622C137.526 152.028 141.438 151.695 144.593 149.786C147.467 148.045 149.182 145.198 149.694 141.916C150.255 138.348 149.863 134.544 148.651 131.141C148.559 130.88 148.457 130.624 148.351 130.363C149.583 131.383 150.723 132.514 151.781 133.713C153.95 136.178 155.955 139.011 157.351 141.988C158.844 145.169 159.187 148.756 160.621 151.966C161.177 153.208 161.901 154.233 163.008 155.035C164.012 155.765 165.196 156.244 166.384 156.572C168.954 157.278 171.674 157.375 174.326 157.38C176.944 157.389 179.587 157.433 182.2 157.225C184.712 157.027 187.311 156.568 189.495 155.243C191.823 153.827 193.364 151.482 194.069 148.877C195.683 142.897 195.924 136.381 199.18 131.001C199.412 133.486 199.079 136.028 199.064 138.508C199.055 140.727 199.407 142.863 199.924 145.01C200.34 146.745 200.847 148.466 201.557 150.109C202.17 151.54 202.977 153.053 204.291 153.957C207.093 155.896 210.605 152.599 212.455 150.728C213.817 149.35 215.054 147.842 216.199 146.281C217.223 144.879 218.155 143.439 218.841 141.839C219.783 139.639 220.184 137.304 220.102 134.916C220.03 132.789 219.662 130.682 219.402 128.565C220.643 129.241 221.749 130.126 222.682 131.209C224.715 133.577 225.788 136.642 226.425 139.654C227.082 142.767 227.285 145.952 227.372 149.123C227.382 149.568 227.865 149.863 228.261 149.636C233.527 146.585 236.638 141.191 240.401 136.565C242.367 135.409 244.531 134.612 246.816 134.38C252.569 133.8 258.023 136.715 262.82 139.552C267.719 142.448 272.38 145.686 277.496 148.205C280.771 149.819 284.298 151.323 287.979 151.593C288.582 151.637 289.201 151.637 289.809 151.589C284.442 154.532 275.607 149.897 271.095 147.446C263.25 143.182 254.072 134.462 244.463 138.281C239.116 140.408 234.985 148.089 230.198 151.622C224.068 156.147 217.02 159.362 209.735 161.508C181.519 169.808 149.984 166.801 122.942 155.862C115.836 152.986 111.275 149.104 108.686 144.642C102.285 133.597 107.991 119.018 117.183 107.465L117.174 107.455Z" fill="#DE717C"/>
</g>
<g style="mix-blend-mode:multiply" opacity="0.39">
<path d="M125.893 154.774C135.468 157.283 145.211 159.047 155.013 160.377C165.046 161.735 175.099 162.31 185.214 161.691C194.557 161.121 203.871 159.724 212.919 157.293C219.271 155.586 225.488 153.358 231.449 150.583C231.034 150.955 230.614 151.303 230.193 151.613C224.063 156.137 217.015 159.352 209.73 161.498C181.514 169.798 149.979 166.791 122.937 155.852C119.874 154.615 117.285 153.184 115.121 151.603C118.681 152.773 122.275 153.822 125.893 154.769V154.774Z" fill="#DE717C"/>
</g>
<path d="M124.642 155.814C123.922 153.01 122.821 150.235 122.135 147.533C120.009 139.141 120.652 129.725 126.845 123.141C132.12 117.529 141.347 117.925 146.97 122.87C153.636 128.739 155.713 139.054 155.032 147.577C154.694 151.787 153.414 156.002 151.042 159.521C148.704 162.997 144.308 165.041 143.047 169.223C142.535 170.915 142.501 172.708 142.458 174.458C142.38 177.431 142.54 180.718 143.226 183.739C143.685 185.769 147.564 190.98 145.023 192.633C144.371 193.059 143.559 193.127 142.786 193.18C140.327 193.354 137.849 193.508 135.4 193.209C117.072 190.98 127.56 167.173 124.642 155.809V155.814Z" fill="#F79F95"/>
<g style="mix-blend-mode:screen">
<path d="M143.047 169.228C142.535 170.92 142.501 172.713 142.458 174.463C142.38 177.436 142.54 180.723 143.226 183.744C143.433 184.662 144.342 186.233 145.037 187.829C144.438 187.186 143.936 186.436 143.535 185.663C142.559 183.792 142.008 181.709 141.66 179.64C140.854 174.869 141.105 169.542 143.989 165.477C145.704 163.06 147.96 161.116 149.795 158.806C150.708 157.655 151.481 156.423 152.032 155.059C152.675 153.469 153.129 151.801 153.423 150.11C153.998 146.818 154.042 143.395 153.752 140.069C153.51 137.304 152.935 134.564 151.974 131.958C150.617 128.28 148.515 124.973 145.945 122.053C146.298 122.31 146.641 122.585 146.969 122.875C153.636 128.744 155.713 139.059 155.032 147.581C154.694 151.792 153.414 156.007 151.042 159.526C148.704 163.002 144.308 165.046 143.047 169.228Z" fill="#F79F95"/>
</g>
<g style="mix-blend-mode:multiply" opacity="0.63">
<path d="M122.135 147.533C120.009 139.141 120.652 129.725 126.845 123.141C132.12 117.529 141.347 117.925 146.97 122.87C148.491 124.209 149.776 125.785 150.839 127.516C150.24 126.738 149.597 125.993 148.887 125.316C146.622 123.146 143.588 121.56 140.38 121.768C137.332 121.962 134.728 123.755 132.927 126.143C130.748 129.024 129.845 132.669 129.54 136.217C128.869 144.009 131.159 151.714 130.574 159.502C130.366 162.286 129.7 165.022 129.086 167.739C128.434 170.62 127.782 173.506 127.458 176.445C127.159 179.171 127.144 182.013 127.965 184.658C128.801 187.335 130.521 189.535 132.83 191.101C132.985 191.207 133.245 191.14 133.332 190.971C133.83 189.984 134.448 188.94 135.347 188.259C135.724 187.974 136.187 187.746 136.666 187.824C137.313 187.925 137.791 188.5 138.139 189.008C138.318 189.269 138.704 189.23 138.81 188.921C139.332 187.35 141.192 187.282 142.279 188.326C142.487 188.529 142.801 188.423 142.892 188.167C143.158 187.418 143.757 186.862 144.458 186.581C145.554 188.849 146.714 191.536 145.023 192.638C144.371 193.064 143.559 193.131 142.786 193.185C140.327 193.359 137.849 193.513 135.4 193.214C117.072 190.985 127.56 167.183 124.642 155.814C123.922 153.01 122.821 150.235 122.135 147.533Z" fill="#DE717C"/>
</g>
<path d="M198.354 132.582C199.412 129.348 201.16 126.544 203.866 124.562C209.179 120.666 216.793 123.267 220.377 128.183C222.362 130.909 223.541 134.162 224.232 137.527C224.845 142.868 224.638 148.302 224.203 153.648C223.676 160.072 222.899 166.477 222.309 172.897C222.044 175.763 221.841 178.726 222.401 181.573C222.633 182.763 223.015 183.903 223.71 184.904C224.72 186.364 226.657 187.717 226.705 189.651C226.763 192.01 224.454 193.068 222.445 193.407C218.802 194.016 214.575 193.533 210.972 192.851C200.866 190.937 203.561 179.442 202.436 172.084C200.431 159.009 193.977 145.986 198.363 132.582H198.354Z" fill="#F79F95"/>
<g style="mix-blend-mode:screen">
<path d="M222.304 172.892C222.039 175.758 221.836 178.721 222.396 181.569C222.628 182.758 223.01 183.899 223.705 184.899C224.212 185.629 224.952 186.34 225.57 187.104C224.758 186.485 224.034 185.74 223.42 184.981C222.841 184.271 222.328 183.493 221.947 182.656C221.512 181.709 221.382 180.679 221.333 179.645C221.271 178.33 221.367 177.01 221.44 175.7C221.512 174.308 221.565 172.916 221.652 171.524C221.826 168.764 222.068 166.013 222.329 163.263C222.85 157.723 223.42 152.188 223.754 146.634C223.913 143.927 224.005 141.191 223.754 138.484C223.638 137.232 223.444 135.99 223.14 134.767C222.85 133.597 222.43 132.485 221.957 131.378C221.444 130.179 220.85 129.009 220.169 127.893C220.242 127.99 220.319 128.081 220.387 128.178C222.372 130.904 223.551 134.158 224.241 137.522C224.855 142.863 224.647 148.297 224.212 153.643C223.686 160.067 222.908 166.472 222.319 172.892H222.304Z" fill="#F79F95"/>
</g>
<g style="mix-blend-mode:multiply" opacity="0.63">
<path d="M198.354 132.582C199.411 129.348 201.16 126.544 203.865 124.562C209.179 120.666 216.792 123.267 220.377 128.183C220.657 128.565 220.913 128.961 221.159 129.362C218.995 127.327 216.348 125.872 213.329 125.519C210.764 125.22 208.131 125.829 206.305 127.743C205.329 128.768 204.711 130.029 204.175 131.325C203.58 132.77 203.146 134.278 202.841 135.811C201.566 142.22 202.349 148.896 203.416 155.282C203.952 158.496 204.585 161.691 205.208 164.887C205.585 166.811 205.943 168.739 206.232 170.678C206.522 172.611 206.807 174.588 206.846 176.546C206.88 178.272 206.648 179.988 206.561 181.709C206.479 183.333 206.464 185.117 207.102 186.639C208.194 189.25 211.087 190.308 213.648 190.855C213.778 190.884 213.884 190.816 213.928 190.695C214.314 189.665 214.933 188.505 216.029 188.104C217.135 187.698 218.28 188.239 219.184 188.868C219.3 188.945 219.493 188.868 219.517 188.732C219.841 186.987 222.227 187.041 223.415 187.809C223.531 187.886 223.725 187.814 223.749 187.674C223.874 187.002 224.169 186.441 224.623 186.025C225.584 187.099 226.657 188.215 226.695 189.646C226.753 192.005 224.444 193.064 222.435 193.402C218.792 194.011 214.565 193.528 210.962 192.846C200.856 190.932 203.551 179.437 202.426 172.08C200.421 159.004 193.967 145.981 198.354 132.577V132.582Z" fill="#DE717C"/>
</g>
<path d="M270.138 134.854C270.138 137.889 272.597 140.345 275.631 140.345C278.664 140.345 281.123 137.885 281.123 134.854C281.123 131.823 278.664 129.362 275.631 129.362C272.597 129.362 270.138 131.823 270.138 134.854Z" fill="#BCBEC0"/>
<path d="M270.524 134.863C270.524 137.706 272.829 140.011 275.669 140.011C278.51 140.011 280.814 137.706 280.814 134.863C280.814 132.021 278.51 129.715 275.669 129.715C272.829 129.715 270.524 132.021 270.524 134.863Z" fill="white"/>
<path d="M270.491 135.158C270.491 137.42 272.322 139.253 274.582 139.253C276.843 139.253 278.674 137.42 278.674 135.158C278.674 132.896 276.843 131.064 274.582 131.064C272.322 131.064 270.491 132.896 270.491 135.158Z" fill="#313239"/>
<path d="M272.428 135.55C272.428 136.638 273.307 137.517 274.394 137.517C275.481 137.517 276.36 136.638 276.36 135.55C276.36 134.462 275.481 133.582 274.394 133.582C273.307 133.582 272.428 134.462 272.428 135.55Z" fill="#231F20"/>
<path d="M274.534 133.81C274.534 134.525 275.114 135.105 275.829 135.105C276.544 135.105 277.124 134.525 277.124 133.81C277.124 133.094 276.544 132.514 275.829 132.514C275.114 132.514 274.534 133.094 274.534 133.81Z" fill="white"/>
<path d="M224.348 188.761C224.314 188.288 224.372 187.766 224.546 187.393C224.788 186.881 225.266 186.746 225.686 186.876C226.164 187.021 226.604 187.398 226.986 187.804C227.319 188.152 227.628 188.539 227.908 188.96C228.416 189.718 229.169 191.072 228.367 191.903C227.971 192.314 227.454 192.387 226.966 192.305C226.483 192.227 225.981 192.005 225.551 191.681C224.773 191.086 224.285 189.921 224.348 188.766V188.761Z" fill="#656668"/>
<g style="mix-blend-mode:multiply">
<path d="M224.348 188.297C225.532 189.225 226.479 190.661 227.082 192.319C227.044 192.319 227.005 192.309 226.966 192.304C226.483 192.227 225.981 192.005 225.551 191.681C224.773 191.086 224.285 189.921 224.348 188.766C224.338 188.611 224.338 188.457 224.348 188.302V188.297Z" fill="#656668"/>
</g>
<path d="M220.339 189.912C220.401 189.535 220.493 189.148 220.691 188.863C220.711 188.834 220.74 188.824 220.769 188.829C220.889 188.597 221.044 188.394 221.223 188.239C221.682 187.838 222.247 187.717 222.783 187.896C223.377 188.094 223.908 188.553 224.367 189.1C224.58 189.351 224.764 189.627 224.952 189.907C225.126 190.168 225.305 190.429 225.459 190.709C225.744 191.231 225.991 191.918 225.72 192.527C225.459 193.117 224.923 193.368 224.445 193.47C223.45 193.682 222.372 193.363 221.45 192.812C220.904 192.488 220.44 192.01 220.319 191.183C220.261 190.767 220.276 190.328 220.343 189.917L220.339 189.912Z" fill="#656668"/>
<g style="mix-blend-mode:multiply">
<path d="M220.411 189.554C221.657 190.071 222.652 191.71 223.029 193.44C222.483 193.324 221.942 193.102 221.445 192.802C220.899 192.479 220.435 192 220.314 191.173C220.256 190.753 220.271 190.318 220.339 189.907C220.358 189.786 220.382 189.67 220.411 189.554Z" fill="#656668"/>
</g>
<path d="M215.165 192.121C215.295 191.212 215.498 190.211 215.996 189.583C216.372 189.109 216.899 188.877 217.416 188.863C218.024 188.843 218.643 189.08 219.203 189.414C220.135 189.965 221.435 191.101 221.759 192.498C221.817 192.744 221.841 193.01 221.797 193.257C221.715 193.726 221.411 194.069 221.077 194.224C220.551 194.47 219.937 194.388 219.387 194.402C218.43 194.431 217.474 194.354 216.517 194.277C216.053 194.238 215.522 194.151 215.256 193.634C215.083 193.296 215.073 192.851 215.126 192.45C215.14 192.343 215.155 192.232 215.169 192.121H215.165Z" fill="#656668"/>
<g style="mix-blend-mode:multiply">
<path d="M215.116 192.45C215.131 192.343 215.145 192.232 215.16 192.121C215.29 191.212 215.493 190.212 215.991 189.583C216.189 189.332 216.435 189.148 216.696 189.032C215.986 189.631 215.507 190.598 215.662 191.831C215.817 193.035 216.474 193.818 217.242 194.34C216.995 194.32 216.754 194.301 216.507 194.282C216.044 194.243 215.512 194.156 215.247 193.639C215.073 193.3 215.063 192.856 215.116 192.454V192.45Z" fill="#656668"/>
</g>
<path d="M143.279 189.172C143.25 188.747 143.298 188.273 143.457 187.935C143.675 187.471 144.105 187.35 144.486 187.466C144.916 187.596 145.312 187.935 145.66 188.302C145.96 188.616 146.24 188.964 146.491 189.346C146.95 190.033 147.626 191.251 146.902 192C146.544 192.367 146.076 192.435 145.641 192.363C145.206 192.29 144.752 192.092 144.366 191.797C143.665 191.261 143.226 190.207 143.283 189.167L143.279 189.172Z" fill="#656668"/>
<g style="mix-blend-mode:multiply">
<path d="M143.279 188.752C144.347 189.593 145.197 190.884 145.743 192.377C145.709 192.377 145.67 192.372 145.636 192.363C145.202 192.29 144.747 192.092 144.361 191.797C143.661 191.261 143.221 190.207 143.279 189.167C143.269 189.032 143.269 188.887 143.279 188.747V188.752Z" fill="#656668"/>
</g>
<path d="M139.66 190.212C139.714 189.868 139.801 189.52 139.979 189.269C139.999 189.245 140.023 189.235 140.047 189.24C140.153 189.027 140.298 188.849 140.457 188.708C140.868 188.346 141.38 188.235 141.863 188.399C142.399 188.578 142.878 188.994 143.293 189.482C143.482 189.709 143.651 189.955 143.82 190.207C143.979 190.444 144.139 190.676 144.279 190.932C144.539 191.401 144.757 192.024 144.515 192.571C144.279 193.102 143.796 193.33 143.366 193.421C142.467 193.61 141.496 193.325 140.665 192.827C140.172 192.532 139.752 192.102 139.646 191.357C139.593 190.98 139.607 190.584 139.665 190.217L139.66 190.212Z" fill="#656668"/>
<g style="mix-blend-mode:multiply">
<path d="M139.728 189.888C140.849 190.352 141.752 191.831 142.09 193.392C141.597 193.286 141.11 193.088 140.66 192.817C140.168 192.522 139.747 192.092 139.641 191.348C139.588 190.971 139.602 190.574 139.66 190.207C139.68 190.1 139.699 189.994 139.723 189.888H139.728Z" fill="#656668"/>
</g>
<path d="M134.994 192.203C135.11 191.382 135.294 190.482 135.743 189.912C136.081 189.482 136.554 189.279 137.023 189.259C137.574 189.24 138.129 189.458 138.636 189.752C139.477 190.25 140.651 191.275 140.941 192.537C140.994 192.759 141.013 192.996 140.975 193.223C140.902 193.644 140.627 193.953 140.322 194.098C139.849 194.321 139.293 194.248 138.796 194.263C137.931 194.292 137.071 194.219 136.207 194.151C135.791 194.118 135.308 194.04 135.071 193.571C134.917 193.267 134.907 192.866 134.951 192.503C134.965 192.406 134.975 192.31 134.989 192.208L134.994 192.203Z" fill="#656668"/>
<g style="mix-blend-mode:multiply">
<path d="M134.951 192.498C134.965 192.401 134.975 192.305 134.989 192.203C135.105 191.382 135.289 190.482 135.738 189.912C135.917 189.685 136.139 189.52 136.376 189.414C135.738 189.956 135.303 190.826 135.443 191.937C135.579 193.025 136.178 193.731 136.868 194.2C136.646 194.185 136.429 194.166 136.207 194.147C135.791 194.113 135.308 194.035 135.071 193.566C134.917 193.262 134.907 192.861 134.951 192.498Z" fill="#656668"/>
</g>
<path d="M270.018 128.56C270.515 127.888 271.066 127.26 271.738 126.742C273.061 125.722 274.665 125.253 276.322 125.563C279.414 126.143 281.718 129 282.534 131.905C282.79 132.814 282.901 133.742 282.911 134.67C282.868 134.854 282.819 135.032 282.771 135.211C282.771 132.872 282.008 130.474 280.534 128.676C279.588 127.521 278.346 126.505 276.887 126.099C276.119 125.882 275.303 125.814 274.515 125.959C273.738 126.104 273.008 126.457 272.356 126.897C271.216 127.661 270.371 128.748 269.549 129.836C269.651 129.386 269.82 128.966 270.023 128.555L270.018 128.56Z" fill="#B85062"/>
<path d="M277.501 148.587C278.307 149.089 279.177 149.5 280.046 149.858C281.781 150.564 283.568 151.139 285.399 151.545C285.959 151.671 286.524 151.787 287.085 151.912C287.592 152.028 288.157 152.193 288.64 151.932C288.655 151.922 288.679 151.946 288.664 151.956C288.36 152.217 287.969 152.217 287.587 152.178C287.128 152.13 286.669 152.038 286.215 151.956C285.09 151.753 283.964 151.526 282.872 151.183C281.148 150.641 279.423 150.037 277.844 149.147C277.201 148.785 276.592 148.379 276.051 147.891C276.525 148.132 277.008 148.364 277.491 148.587H277.501Z" fill="#B85062"/>
<g style="mix-blend-mode:multiply" opacity="0.63">
<path d="M218.541 134.713C218.585 134.636 218.662 134.573 218.73 134.52C218.831 134.438 218.966 134.385 219.092 134.356C219.116 134.351 219.14 134.346 219.164 134.346C219.198 134.303 219.237 134.264 219.276 134.225C219.396 134.114 219.561 134.051 219.725 134.051C219.85 134.051 219.966 134.08 220.082 134.124C220.097 134.129 220.111 134.133 220.121 134.138C220.285 134.23 220.44 134.336 220.561 134.486C220.604 134.535 220.643 134.588 220.676 134.641C220.696 134.651 220.71 134.66 220.73 134.67C221.126 134.907 221.522 135.429 221.387 135.917C221.348 136.057 221.261 136.183 221.155 136.275C221.135 136.425 221.092 136.575 221.005 136.695C220.725 137.077 220.169 137.034 219.792 136.84C219.672 136.778 219.536 136.71 219.425 136.623C219.29 136.516 219.16 136.4 219.039 136.28C218.884 136.13 218.735 135.956 218.628 135.767C218.527 135.588 218.425 135.366 218.43 135.148C218.435 134.97 218.454 134.878 218.546 134.718L218.541 134.713Z" fill="#DE717C"/>
<path d="M220.078 134.119C220.044 134.109 220.015 134.1 219.981 134.09C220.02 134.1 220.049 134.109 220.078 134.119Z" fill="#DE717C"/>
<path d="M220.123 134.138C220.123 134.138 220.117 134.138 220.112 134.138C220.112 134.138 220.112 134.138 220.107 134.138C220.107 134.138 220.117 134.144 220.123 134.149V134.138Z" fill="#DE717C"/>
<path d="M220.121 134.138C220.15 134.153 220.184 134.172 220.223 134.197C220.189 134.177 220.155 134.158 220.121 134.138Z" fill="#DE717C"/>
<path d="M220.103 134.129C220.103 134.129 220.088 134.129 220.078 134.119C220.078 134.119 220.093 134.124 220.103 134.129Z" fill="#DE717C"/>
<path d="M213.358 133.674C214.015 133.674 214.628 134.839 213.759 134.839C213.102 134.839 212.488 133.674 213.358 133.674Z" fill="#DE717C"/>
<path d="M207.527 144.879C207.73 144.449 208.078 144.048 208.566 143.941C209.01 143.845 209.469 143.956 209.86 144.178C210 144.178 210.141 144.178 210.276 144.202C211.677 144.42 212.416 145.967 212.324 147.267C212.29 147.741 212.169 148.219 211.846 148.577C211.551 148.901 211.169 149.118 210.74 149.201C209.706 149.394 208.58 148.998 207.889 148.205C207.503 147.76 207.252 147.238 207.179 146.648C207.107 146.039 207.276 145.43 207.537 144.879H207.527Z" fill="#DE717C"/>
<path d="M206.441 140.127C206.982 140.127 207.489 141.089 206.769 141.089C206.228 141.089 205.721 140.127 206.441 140.127Z" fill="#DE717C"/>
<path d="M218.536 156.176C218.556 156.113 218.585 156.055 218.614 155.997C218.623 155.978 218.638 155.958 218.652 155.944C218.691 155.891 218.744 155.847 218.793 155.804C218.812 155.784 218.831 155.77 218.85 155.755C218.937 155.693 219.044 155.649 219.14 155.606C219.208 155.577 219.285 155.552 219.358 155.543C219.474 155.514 219.585 155.509 219.701 155.538C219.831 155.567 219.952 155.62 220.063 155.697C220.174 155.775 220.266 155.871 220.338 155.983C220.401 156.084 220.44 156.19 220.449 156.306C220.449 156.374 220.44 156.442 220.43 156.509C220.449 156.577 220.464 156.645 220.464 156.712C220.464 156.829 220.454 156.94 220.411 157.046C220.362 157.172 220.3 157.297 220.227 157.413C220.131 157.563 219.908 157.597 219.749 157.558C219.256 157.433 218.768 157.167 218.565 156.679C218.503 156.529 218.479 156.326 218.532 156.171L218.536 156.176Z" fill="#DE717C"/>
<path d="M207.841 155.383C207.856 155.33 207.885 155.286 207.928 155.253C207.947 155.233 207.962 155.214 207.972 155.19C207.972 155.185 207.972 155.18 207.976 155.17C207.976 155.166 207.976 155.156 207.976 155.151C207.991 155.122 208.001 155.093 208.015 155.064C208.015 155.064 208.015 155.059 208.02 155.054C208.025 155.045 208.03 155.035 208.034 155.025C208.034 155.021 208.034 155.016 208.039 155.011C208.063 154.972 208.102 154.943 208.145 154.929C208.174 154.909 208.203 154.904 208.237 154.904C208.29 154.895 208.339 154.895 208.392 154.904C208.426 154.914 208.464 154.929 208.498 154.938C208.532 154.958 208.571 154.977 208.604 154.996C208.658 155.03 208.696 155.069 208.73 155.122C208.769 155.161 208.793 155.209 208.812 155.262C208.817 155.277 208.822 155.291 208.827 155.311V155.32C208.827 155.34 208.836 155.359 208.836 155.373C208.841 155.393 208.846 155.412 208.846 155.427C208.846 155.46 208.841 155.489 208.836 155.523C208.836 155.523 208.836 155.523 208.836 155.528C208.836 155.528 208.836 155.533 208.836 155.538C208.836 155.552 208.827 155.567 208.822 155.581C208.807 155.625 208.788 155.663 208.769 155.702C208.754 155.726 208.74 155.75 208.72 155.775C208.682 155.823 208.633 155.866 208.585 155.905C208.542 155.934 208.498 155.949 208.45 155.953C208.397 155.963 208.344 155.963 208.29 155.953C208.228 155.944 208.174 155.92 208.121 155.886C208.063 155.857 208.015 155.818 207.972 155.77C207.947 155.741 207.923 155.707 207.899 155.678C207.86 155.615 207.836 155.552 207.831 155.48C207.831 155.446 207.836 155.417 207.841 155.383Z" fill="#DE717C"/>
<path d="M203.745 160.473C203.769 160.406 203.798 160.338 203.837 160.275C203.876 160.212 203.938 160.159 203.992 160.111C204.016 160.087 204.045 160.072 204.074 160.058C204.141 160.024 204.214 159.985 204.291 159.966C204.373 159.947 204.46 159.932 204.542 159.932C204.639 159.932 204.736 159.942 204.827 159.956C204.934 159.976 205.035 160.014 205.132 160.048C205.19 160.067 205.243 160.092 205.291 160.121C205.373 160.164 205.455 160.208 205.537 160.261C205.537 160.261 205.547 160.266 205.552 160.27C205.605 160.314 205.658 160.362 205.711 160.406C205.779 160.473 205.832 160.556 205.871 160.643C205.885 160.672 205.895 160.696 205.909 160.725C205.919 160.778 205.934 160.836 205.943 160.889C205.943 160.899 205.943 160.909 205.943 160.918C205.953 160.976 205.943 161.029 205.943 161.083C205.943 161.131 205.943 161.184 205.924 161.232C205.905 161.29 205.876 161.348 205.847 161.402C205.842 161.411 205.837 161.421 205.827 161.431C205.818 161.45 205.803 161.464 205.789 161.479C205.721 161.551 205.658 161.605 205.576 161.653C205.465 161.721 205.339 161.754 205.209 161.75C205.19 161.75 205.17 161.75 205.146 161.75C205.19 161.745 205.228 161.735 205.272 161.73C205.219 161.745 205.161 161.75 205.107 161.745C205.107 161.75 205.103 161.759 205.098 161.764C205.045 161.856 204.895 161.909 204.798 161.904C204.755 161.904 204.711 161.895 204.668 161.89C204.571 161.87 204.484 161.832 204.402 161.774C204.354 161.745 204.306 161.716 204.257 161.677C204.18 161.614 204.103 161.551 204.04 161.479C203.919 161.344 203.823 161.194 203.76 161.025C203.711 160.889 203.697 160.759 203.707 160.618C203.711 160.56 203.716 160.507 203.736 160.454L203.745 160.473Z" fill="#DE717C"/>
<path d="M201.455 153.126C201.996 153.126 202.503 154.088 201.784 154.088C201.242 154.088 200.735 153.126 201.455 153.126Z" fill="#DE717C"/>
<path d="M219.29 147.644C219.29 147.644 219.29 147.601 219.295 147.576C219.305 147.543 219.319 147.514 219.348 147.489C219.362 147.47 219.382 147.456 219.401 147.451C219.435 147.431 219.469 147.422 219.503 147.427C219.512 147.427 219.522 147.427 219.527 147.427C219.527 147.427 219.527 147.427 219.532 147.427C219.561 147.427 219.594 147.431 219.623 147.436C219.638 147.441 219.657 147.446 219.672 147.451C219.686 147.451 219.705 147.46 219.72 147.465C219.72 147.465 219.72 147.465 219.725 147.465H219.734C219.763 147.475 219.792 147.489 219.821 147.499C219.899 147.533 219.971 147.581 220.029 147.644C220.082 147.702 220.126 147.765 220.15 147.837C220.174 147.9 220.179 147.968 220.164 148.036C220.15 148.098 220.111 148.152 220.058 148.19C220 148.229 219.937 148.244 219.87 148.244C219.792 148.244 219.715 148.229 219.643 148.195C219.565 148.161 219.493 148.113 219.435 148.05C219.382 147.992 219.338 147.929 219.314 147.857L219.29 147.779C219.28 147.741 219.266 147.702 219.266 147.663C219.266 147.654 219.266 147.644 219.266 147.634L219.29 147.644Z" fill="#DE717C"/>
<path d="M204.247 130.962C204.557 130.962 204.842 131.508 204.436 131.508C204.127 131.508 203.842 130.962 204.247 130.962Z" fill="#DE717C"/>
</g>
<g style="mix-blend-mode:multiply" opacity="0.63">
<path d="M144.95 132.746C144.994 132.669 145.071 132.606 145.139 132.553C145.24 132.471 145.376 132.417 145.501 132.388C145.525 132.383 145.549 132.379 145.574 132.379C145.607 132.335 145.646 132.296 145.685 132.258C145.805 132.147 145.97 132.084 146.134 132.084C146.26 132.084 146.375 132.113 146.491 132.156C146.506 132.161 146.52 132.166 146.53 132.171C146.694 132.263 146.849 132.369 146.97 132.514C147.013 132.562 147.052 132.616 147.086 132.669C147.105 132.678 147.119 132.688 147.139 132.698C147.535 132.935 147.931 133.452 147.796 133.945C147.757 134.085 147.67 134.211 147.564 134.303C147.545 134.452 147.501 134.602 147.414 134.723C147.134 135.105 146.578 135.061 146.202 134.863C146.081 134.8 145.946 134.733 145.834 134.646C145.699 134.539 145.569 134.423 145.448 134.303C145.293 134.153 145.144 133.979 145.037 133.79C144.936 133.611 144.834 133.389 144.839 133.171C144.844 132.993 144.859 132.901 144.955 132.741L144.95 132.746Z" fill="#DE717C"/>
<path d="M146.492 132.157C146.458 132.147 146.429 132.137 146.395 132.127C146.434 132.137 146.463 132.147 146.492 132.157Z" fill="#DE717C"/>
<path d="M146.537 132.176C146.537 132.176 146.531 132.176 146.526 132.176C146.526 132.176 146.526 132.176 146.521 132.176C146.521 132.176 146.531 132.181 146.537 132.186V132.176Z" fill="#DE717C"/>
<path d="M146.535 132.176C146.564 132.19 146.598 132.21 146.637 132.234C146.603 132.215 146.569 132.195 146.535 132.176Z" fill="#DE717C"/>
<path d="M146.512 132.162C146.512 132.162 146.497 132.162 146.486 132.151C146.486 132.151 146.502 132.157 146.512 132.162Z" fill="#DE717C"/>
<path d="M139.772 131.712C140.429 131.712 141.042 132.877 140.173 132.877C139.516 132.877 138.902 131.712 139.772 131.712Z" fill="#DE717C"/>
<path d="M130.013 143.216C130.216 142.786 130.564 142.385 131.052 142.278C131.496 142.182 131.955 142.293 132.347 142.515C132.487 142.515 132.627 142.515 132.762 142.539C134.163 142.757 134.902 144.304 134.81 145.604C134.776 146.078 134.656 146.556 134.332 146.914C134.037 147.238 133.656 147.456 133.226 147.538C132.192 147.731 131.066 147.335 130.376 146.542C129.989 146.097 129.738 145.575 129.666 144.985C129.593 144.376 129.762 143.767 130.023 143.216H130.013Z" fill="#DE717C"/>
<path d="M132.855 138.16C133.396 138.16 133.903 139.122 133.183 139.122C132.642 139.122 132.135 138.16 132.855 138.16Z" fill="#DE717C"/>
<path d="M149.486 154.663C149.505 154.6 149.534 154.542 149.563 154.484C149.573 154.465 149.588 154.446 149.597 154.431C149.636 154.378 149.689 154.334 149.737 154.291C149.757 154.272 149.776 154.257 149.795 154.243C149.882 154.18 149.989 154.136 150.085 154.093C150.153 154.064 150.23 154.04 150.303 154.025C150.418 153.996 150.53 153.991 150.646 154.02C150.776 154.049 150.897 154.102 151.008 154.18C151.119 154.257 151.211 154.354 151.283 154.465C151.346 154.566 151.385 154.673 151.394 154.789C151.394 154.856 151.385 154.924 151.38 154.992C151.399 155.059 151.414 155.127 151.414 155.195C151.414 155.311 151.404 155.422 151.365 155.528C151.317 155.654 151.254 155.78 151.182 155.896C151.085 156.046 150.863 156.079 150.703 156.041C150.211 155.915 149.723 155.649 149.52 155.161C149.457 155.011 149.433 154.808 149.486 154.653V154.663Z" fill="#DE717C"/>
<path d="M134.255 153.421C134.27 153.367 134.299 153.324 134.342 153.29C134.361 153.271 134.376 153.251 134.386 153.227C134.386 153.222 134.386 153.218 134.39 153.208C134.39 153.203 134.39 153.193 134.39 153.189C134.405 153.16 134.414 153.131 134.429 153.102C134.429 153.102 134.429 153.097 134.429 153.092C134.434 153.082 134.439 153.073 134.443 153.063C134.443 153.063 134.443 153.053 134.448 153.048C134.472 153.01 134.511 152.981 134.555 152.966C134.584 152.947 134.613 152.942 134.646 152.942C134.695 152.932 134.748 152.932 134.801 152.942C134.835 152.952 134.873 152.966 134.907 152.976C134.941 152.995 134.98 153.015 135.013 153.034C135.067 153.068 135.105 153.106 135.139 153.16C135.178 153.198 135.202 153.247 135.221 153.3C135.226 153.314 135.231 153.329 135.236 153.348V153.358C135.236 153.377 135.245 153.396 135.245 153.411C135.25 153.43 135.255 153.45 135.255 153.464C135.255 153.498 135.25 153.527 135.245 153.561C135.245 153.561 135.245 153.561 135.245 153.566V153.575C135.245 153.59 135.236 153.604 135.231 153.619C135.216 153.662 135.197 153.701 135.178 153.74C135.163 153.764 135.149 153.788 135.129 153.812C135.091 153.861 135.042 153.904 134.994 153.943C134.951 153.972 134.907 153.986 134.859 153.991C134.806 154.001 134.753 154.001 134.7 153.991C134.637 153.981 134.584 153.957 134.53 153.923C134.472 153.894 134.424 153.856 134.381 153.807C134.357 153.778 134.332 153.744 134.308 153.715C134.27 153.653 134.245 153.59 134.241 153.517C134.241 153.483 134.245 153.454 134.25 153.421H134.255Z" fill="#DE717C"/>
<path d="M128.342 161.986C128.366 161.919 128.395 161.851 128.434 161.788C128.473 161.725 128.536 161.672 128.589 161.624C128.613 161.6 128.642 161.585 128.671 161.571C128.738 161.537 128.811 161.498 128.888 161.479C128.97 161.459 129.057 161.445 129.139 161.445C129.236 161.445 129.333 161.455 129.424 161.469C129.531 161.484 129.632 161.527 129.729 161.561C129.787 161.58 129.84 161.604 129.888 161.633C129.97 161.677 130.052 161.72 130.135 161.774C130.135 161.774 130.144 161.778 130.149 161.783C130.202 161.827 130.255 161.875 130.308 161.919C130.376 161.986 130.429 162.068 130.468 162.155C130.482 162.184 130.492 162.209 130.506 162.238C130.516 162.291 130.531 162.349 130.54 162.402C130.54 162.412 130.54 162.421 130.54 162.431C130.55 162.489 130.54 162.542 130.54 162.595C130.54 162.644 130.54 162.697 130.521 162.745C130.502 162.803 130.473 162.861 130.444 162.914C130.439 162.924 130.434 162.934 130.424 162.943C130.415 162.963 130.4 162.977 130.386 162.992C130.318 163.064 130.255 163.117 130.173 163.166C130.062 163.233 129.936 163.267 129.806 163.262C129.787 163.262 129.767 163.262 129.743 163.262C129.787 163.258 129.825 163.248 129.869 163.243C129.816 163.258 129.758 163.262 129.705 163.258C129.705 163.262 129.7 163.272 129.695 163.277C129.642 163.369 129.497 163.422 129.395 163.417C129.352 163.417 129.308 163.407 129.265 163.403C129.168 163.383 129.081 163.345 128.999 163.287C128.951 163.258 128.903 163.229 128.854 163.19C128.777 163.127 128.7 163.064 128.637 162.992C128.516 162.856 128.42 162.707 128.357 162.537C128.309 162.402 128.294 162.271 128.304 162.131C128.309 162.073 128.313 162.02 128.333 161.967L128.342 161.986Z" fill="#DE717C"/>
<path d="M127.869 151.158C128.41 151.158 128.917 152.12 128.198 152.12C127.656 152.12 127.149 151.158 127.869 151.158Z" fill="#DE717C"/>
<path d="M145.699 145.682C145.699 145.682 145.699 145.638 145.704 145.614C145.714 145.58 145.728 145.551 145.757 145.527C145.772 145.508 145.791 145.493 145.81 145.488C145.844 145.469 145.878 145.459 145.912 145.464C145.921 145.464 145.931 145.464 145.936 145.464C145.936 145.464 145.936 145.464 145.941 145.464C145.97 145.464 146.003 145.469 146.032 145.474C146.047 145.479 146.066 145.483 146.081 145.488C146.095 145.488 146.115 145.498 146.129 145.503C146.129 145.503 146.129 145.503 146.134 145.503H146.144C146.173 145.512 146.202 145.527 146.23 145.537C146.308 145.57 146.38 145.619 146.438 145.682C146.491 145.74 146.535 145.802 146.559 145.875C146.583 145.938 146.588 146.005 146.573 146.073C146.559 146.136 146.52 146.189 146.467 146.228C146.409 146.266 146.346 146.281 146.279 146.281C146.202 146.281 146.124 146.266 146.052 146.233C145.974 146.199 145.902 146.15 145.844 146.088C145.791 146.03 145.747 145.967 145.723 145.894L145.699 145.817C145.689 145.778 145.675 145.74 145.675 145.701C145.675 145.691 145.675 145.682 145.675 145.672L145.699 145.682Z" fill="#DE717C"/>
<path d="M130.661 129C130.971 129 131.256 129.546 130.85 129.546C130.541 129.546 130.256 129 130.661 129Z" fill="#DE717C"/>
</g>
<g style="mix-blend-mode:multiply" opacity="0.39">
<path d="M231.111 130.291C231.401 129.918 231.812 129.604 232.28 129.507C232.773 129.411 233.285 129.483 233.735 129.71C234.121 129.783 234.498 129.947 234.807 130.184C235.29 130.561 235.633 131.069 235.754 131.668C235.865 132.205 235.773 132.775 235.527 133.259C235.15 134.003 234.285 134.317 233.493 134.249C232.503 134.167 231.575 133.669 230.996 132.852C230.754 132.514 230.585 132.069 230.599 131.649C230.609 131.141 230.802 130.682 231.116 130.286L231.111 130.291Z" fill="#DE717C"/>
<path d="M231.116 137.44C231.145 137.411 231.174 137.377 231.198 137.348C231.232 137.3 231.276 137.271 231.334 137.256C231.396 137.242 231.454 137.237 231.517 137.256C231.59 137.271 231.652 137.3 231.715 137.343C231.773 137.387 231.826 137.435 231.865 137.498C231.889 137.541 231.918 137.585 231.942 137.628C231.986 137.696 232.01 137.769 232.015 137.846C232.02 137.918 232.005 137.981 231.962 138.044C231.918 138.102 231.865 138.141 231.792 138.16C231.715 138.179 231.638 138.179 231.561 138.16C231.474 138.141 231.392 138.107 231.319 138.054C231.247 138.001 231.184 137.938 231.135 137.86C231.092 137.793 231.068 137.72 231.063 137.643C231.058 137.57 231.073 137.507 231.116 137.445V137.44Z" fill="#DE717C"/>
<path d="M227.981 129.706C227.99 129.662 228.01 129.628 228.044 129.599C228.073 129.565 228.106 129.541 228.15 129.532C228.169 129.527 228.193 129.522 228.213 129.517C228.222 129.517 228.232 129.517 228.242 129.512C228.246 129.512 228.251 129.512 228.256 129.512C228.304 129.498 228.358 129.493 228.406 129.503C228.464 129.503 228.517 129.517 228.57 129.541C228.609 129.556 228.647 129.58 228.681 129.604C228.734 129.638 228.773 129.677 228.807 129.73C228.845 129.768 228.87 129.817 228.889 129.87C228.894 129.904 228.903 129.933 228.908 129.967C228.913 130.029 228.899 130.087 228.865 130.141C228.826 130.194 228.778 130.228 228.715 130.242C228.647 130.261 228.58 130.261 228.512 130.242C228.469 130.232 228.425 130.223 228.382 130.218C228.348 130.208 228.314 130.194 228.28 130.184C228.227 130.16 228.179 130.131 228.135 130.092C228.106 130.073 228.077 130.044 228.058 130.015C228.024 129.976 228 129.933 227.981 129.884C227.976 129.855 227.966 129.826 227.961 129.793C227.961 129.764 227.966 129.735 227.971 129.706H227.981Z" fill="#DE717C"/>
<path d="M241.338 132.891C241.338 132.843 241.338 132.799 241.348 132.751C241.357 132.659 241.367 132.567 241.386 132.48C241.396 132.432 241.41 132.388 241.425 132.345C241.425 132.321 241.425 132.301 241.43 132.282C241.454 132.234 241.473 132.181 241.497 132.132C241.526 132.079 241.57 132.04 241.618 132.016C241.618 132.016 241.628 132.016 241.628 132.011C241.666 131.992 241.71 131.973 241.749 131.953C241.773 131.939 241.802 131.924 241.826 131.92C241.831 131.92 241.84 131.92 241.845 131.91C241.874 131.91 241.903 131.9 241.932 131.895C241.99 131.881 242.048 131.881 242.111 131.895C242.207 131.895 242.304 131.924 242.391 131.968C242.492 132.007 242.579 132.065 242.657 132.142C242.739 132.205 242.806 132.277 242.86 132.369C242.942 132.514 243.014 132.698 242.961 132.862C242.961 132.872 242.951 132.881 242.951 132.891C242.951 132.906 242.947 132.915 242.942 132.93V132.94C242.932 132.993 242.908 133.046 242.874 133.089C242.874 133.089 242.874 133.089 242.869 133.094C242.869 133.114 242.869 133.133 242.86 133.152C242.86 133.176 242.86 133.201 242.85 133.225C242.84 133.263 242.835 133.297 242.811 133.331C242.758 133.404 242.695 133.433 242.613 133.466C242.647 133.452 242.676 133.437 242.71 133.423C242.676 133.442 242.633 133.457 242.594 133.476C242.584 133.486 242.575 133.495 242.565 133.505C242.526 133.524 242.488 133.544 242.449 133.558C242.439 133.558 242.43 133.563 242.425 133.568C242.41 133.573 242.396 133.578 242.381 133.582C242.333 133.587 242.285 133.597 242.236 133.602C242.236 133.602 242.227 133.602 242.222 133.602H242.203C242.203 133.602 242.193 133.602 242.188 133.602H242.178C242.178 133.602 242.183 133.602 242.188 133.602C242.183 133.602 242.178 133.602 242.174 133.602C242.125 133.602 242.082 133.602 242.029 133.587C241.976 133.568 241.918 133.553 241.864 133.534C241.778 133.5 241.695 133.447 241.628 133.379C241.579 133.346 241.536 133.302 241.502 133.249C241.444 133.186 241.406 133.114 241.377 133.031C241.357 132.983 241.348 132.935 241.348 132.881L241.338 132.891Z" fill="#DE717C"/>
<path d="M228.754 120.86C228.754 120.797 228.754 120.724 228.768 120.671C228.768 120.666 228.831 120.526 228.836 120.521C228.841 120.512 228.947 120.41 228.957 120.405C228.961 120.405 228.966 120.395 228.971 120.395C228.99 120.381 229.01 120.366 229.034 120.347C229.121 120.289 229.213 120.246 229.309 120.207C229.329 120.197 229.353 120.192 229.372 120.183C229.377 120.183 229.382 120.183 229.387 120.183C229.445 120.168 229.507 120.163 229.57 120.154C229.58 120.154 229.585 120.154 229.594 120.154C229.725 120.154 229.855 120.183 229.976 120.236C230.111 120.294 230.227 120.376 230.329 120.483C230.372 120.536 230.411 120.589 230.454 120.642C230.522 120.748 230.56 120.86 230.57 120.985C230.58 121.072 230.57 121.15 230.522 121.222C230.498 121.299 230.449 121.362 230.377 121.406C230.358 121.415 230.338 121.42 230.319 121.43C230.3 121.444 230.275 121.454 230.256 121.469C230.222 121.493 230.184 121.517 230.15 121.541C230.135 121.556 230.116 121.565 230.102 121.58C230.102 121.58 230.092 121.585 230.087 121.589C230.087 121.589 230.087 121.589 230.082 121.594C230.063 121.604 230.044 121.614 230.019 121.623C230.005 121.633 229.995 121.643 229.981 121.647C229.966 121.657 229.947 121.662 229.932 121.672C229.923 121.672 229.913 121.681 229.903 121.686C229.879 121.696 229.86 121.705 229.836 121.715C229.821 121.715 229.812 121.715 229.797 121.715C229.812 121.715 229.826 121.715 229.836 121.715C229.826 121.715 229.821 121.725 229.812 121.725C229.773 121.73 229.739 121.734 229.701 121.739C229.701 121.739 229.701 121.734 229.701 121.73C229.696 121.73 229.691 121.73 229.686 121.73C229.604 121.73 229.532 121.705 229.459 121.667C229.459 121.667 229.454 121.667 229.449 121.667L229.28 121.614L229.116 121.522C229.116 121.522 228.971 121.401 228.971 121.396C228.961 121.386 228.87 121.266 228.86 121.256C228.85 121.237 228.792 121.121 228.788 121.101C228.788 121.101 228.788 121.101 228.788 121.096C228.788 121.096 228.788 121.096 228.788 121.092C228.788 121.082 228.754 120.947 228.754 120.932C228.754 120.927 228.754 120.918 228.754 120.913C228.754 120.898 228.754 120.879 228.754 120.864V120.86Z" fill="#DE717C"/>
<path d="M229.841 121.715C230.145 121.744 230.57 121.788 229.841 121.715V121.715Z" fill="#DE717C"/>
<path d="M224.643 127.627C224.961 127.627 225.256 128.192 224.836 128.192C224.517 128.192 224.222 127.627 224.643 127.627Z" fill="#DE717C"/>
<path d="M229.015 145.164L229.126 145.111C229.184 145.097 229.242 145.092 229.304 145.097C229.319 145.097 229.333 145.097 229.348 145.097C229.367 144.966 229.449 144.86 229.59 144.816C229.614 144.812 229.638 144.812 229.662 144.807C229.691 144.792 229.725 144.778 229.749 144.768C229.797 144.749 229.86 144.744 229.923 144.749C229.942 144.739 229.961 144.725 229.986 144.72C230.039 144.71 230.087 144.705 230.14 144.696C230.227 144.696 230.309 144.705 230.391 144.739C230.454 144.754 230.507 144.778 230.56 144.812C230.618 144.836 230.672 144.874 230.715 144.923C230.768 144.957 230.807 145.005 230.841 145.058C230.899 145.121 230.942 145.198 230.966 145.28C231.015 145.416 231.044 145.546 231.073 145.686C231.087 145.749 231.097 145.817 231.092 145.88C231.092 145.972 231.092 146.073 231.053 146.165C230.995 146.3 230.952 146.383 230.831 146.474C230.768 146.528 230.681 146.561 230.599 146.576C230.435 146.61 230.329 146.605 230.155 146.576C230.087 146.566 230.024 146.547 229.957 146.523C229.831 146.503 229.705 146.46 229.599 146.383C229.575 146.368 229.556 146.344 229.536 146.329C229.449 146.281 229.367 146.228 229.285 146.17C229.121 146.049 228.952 145.89 228.908 145.686C228.894 145.614 228.875 145.541 228.865 145.469C228.85 145.358 228.913 145.218 229.01 145.155L229.015 145.164Z" fill="#DE717C"/>
</g>
<g style="mix-blend-mode:multiply" opacity="0.39">
<path d="M87.4449 130.633C87.4159 130.198 87.5077 129.725 87.7734 129.372C88.0536 129 88.4545 128.739 88.9038 128.618C89.2178 128.429 89.5801 128.313 89.9376 128.289C90.5028 128.255 91.0535 128.395 91.5076 128.739C91.9134 129.043 92.1984 129.493 92.3288 129.981C92.522 130.73 92.1211 131.479 91.5317 131.919C90.7926 132.47 89.8458 132.698 88.9425 132.49C88.5657 132.403 88.1792 132.2 87.928 131.9C87.6237 131.542 87.4739 131.102 87.4449 130.638V130.633Z" fill="#DE717C"/>
<path d="M91.8411 135.588C91.8411 135.55 91.8411 135.511 91.8411 135.472C91.8363 135.419 91.846 135.371 91.8749 135.327C91.9088 135.279 91.9474 135.24 92.0005 135.211C92.0585 135.178 92.1213 135.158 92.1889 135.153C92.2566 135.144 92.3242 135.153 92.387 135.168C92.4305 135.182 92.474 135.197 92.5223 135.207C92.5947 135.226 92.6527 135.26 92.7058 135.313C92.7541 135.361 92.7831 135.414 92.7928 135.482C92.7976 135.55 92.7831 135.608 92.7493 135.666C92.7107 135.729 92.6575 135.777 92.5947 135.811C92.5223 135.849 92.445 135.878 92.358 135.888C92.2759 135.898 92.1938 135.888 92.1117 135.869C92.0392 135.849 91.9812 135.816 91.9281 135.762C91.8798 135.714 91.8508 135.661 91.8411 135.593V135.588Z" fill="#DE717C"/>
<path d="M84.9188 132.156C84.8995 132.118 84.8898 132.084 84.8995 132.045C84.8995 132.006 84.9091 131.968 84.9333 131.934C84.9429 131.919 84.9574 131.9 84.9671 131.886C84.9719 131.876 84.9768 131.871 84.9864 131.861C84.9864 131.861 84.9912 131.852 84.9961 131.852C85.0202 131.808 85.054 131.779 85.0927 131.755C85.1313 131.721 85.1797 131.697 85.228 131.683C85.2666 131.668 85.3004 131.663 85.3391 131.658C85.397 131.649 85.4502 131.654 85.5033 131.668C85.5516 131.673 85.5999 131.687 85.6482 131.716C85.6724 131.736 85.6965 131.755 85.7207 131.77C85.7642 131.808 85.7883 131.861 85.798 131.919C85.8028 131.977 85.7883 132.031 85.7593 132.079C85.7255 132.132 85.6772 132.176 85.6192 132.205C85.5854 132.224 85.5468 132.243 85.513 132.267C85.484 132.282 85.455 132.292 85.4212 132.306C85.368 132.325 85.3197 132.33 85.2666 132.33C85.2328 132.33 85.199 132.33 85.1652 132.321C85.1169 132.316 85.0734 132.301 85.0299 132.277C85.0057 132.263 84.9864 132.243 84.9623 132.224C84.9478 132.205 84.9284 132.18 84.914 132.161L84.9188 132.156Z" fill="#DE717C"/>
<path d="M96.1307 126.143C96.1017 126.114 96.0727 126.08 96.0534 126.041C96.0051 125.974 95.9519 125.901 95.9133 125.829C95.8891 125.79 95.8747 125.751 95.8553 125.713C95.8408 125.698 95.8263 125.684 95.8215 125.664C95.807 125.616 95.7925 125.568 95.778 125.519C95.7684 125.466 95.7732 125.413 95.7877 125.365V125.355C95.8022 125.316 95.8215 125.278 95.836 125.239C95.8457 125.215 95.8553 125.191 95.8698 125.166C95.8698 125.162 95.8747 125.157 95.8795 125.147C95.8795 125.147 95.9085 125.104 95.9278 125.084C95.9568 125.036 96.0003 125.002 96.0486 124.973C96.1162 124.915 96.1983 124.872 96.2853 124.847C96.3819 124.814 96.4785 124.799 96.5751 124.804C96.6717 124.794 96.7635 124.804 96.8553 124.838C97.0002 124.886 97.1645 124.968 97.2273 125.118C97.2273 125.128 97.2369 125.137 97.2369 125.147C97.2417 125.157 97.2466 125.171 97.2562 125.181C97.2562 125.181 97.2562 125.186 97.2611 125.191C97.2852 125.234 97.3046 125.282 97.3046 125.34C97.3046 125.34 97.3046 125.345 97.3046 125.35C97.3142 125.365 97.3239 125.379 97.3335 125.394C97.348 125.413 97.3625 125.432 97.3722 125.452C97.3915 125.481 97.406 125.515 97.4108 125.548C97.4205 125.631 97.3915 125.693 97.3529 125.766C97.3673 125.737 97.377 125.708 97.3915 125.679C97.3818 125.718 97.3625 125.751 97.3432 125.785C97.3432 125.795 97.3432 125.809 97.3432 125.819C97.3287 125.858 97.3094 125.892 97.2949 125.93C97.2949 125.94 97.2852 125.945 97.2852 125.954C97.2804 125.969 97.2707 125.979 97.2659 125.993C97.2369 126.027 97.2079 126.061 97.179 126.099C97.179 126.099 97.1741 126.104 97.1693 126.109C97.1693 126.109 97.1596 126.119 97.1548 126.124C97.1548 126.124 97.15 126.128 97.1451 126.133C97.1451 126.133 97.1403 126.133 97.1355 126.138C97.1355 126.138 97.1355 126.138 97.1403 126.138C97.1403 126.138 97.1306 126.143 97.1306 126.148C97.0968 126.177 97.0678 126.201 97.0195 126.225C96.9712 126.244 96.9181 126.269 96.8698 126.288C96.7877 126.317 96.7007 126.331 96.6138 126.327C96.5558 126.331 96.5027 126.327 96.4495 126.312C96.3722 126.302 96.2998 126.278 96.2321 126.24C96.1887 126.215 96.1548 126.186 96.121 126.157L96.1307 126.143Z" fill="#DE717C"/>
<path d="M80.0154 125.548C79.9816 125.505 79.9332 125.456 79.9091 125.408C79.9091 125.403 79.8656 125.268 79.8656 125.263C79.8656 125.253 79.8753 125.118 79.8753 125.108C79.8753 125.104 79.8753 125.099 79.8753 125.089C79.8753 125.065 79.8849 125.041 79.8898 125.017C79.9139 124.925 79.9526 124.833 79.9961 124.751C80.0057 124.731 80.0154 124.712 80.025 124.698C80.025 124.698 80.0299 124.688 80.0347 124.683C80.0685 124.64 80.1072 124.591 80.1458 124.552C80.1506 124.548 80.1555 124.543 80.1603 124.538C80.2521 124.456 80.3584 124.398 80.4743 124.359C80.6047 124.316 80.7352 124.301 80.8704 124.316C80.9332 124.325 80.996 124.34 81.054 124.349C81.1651 124.378 81.2617 124.436 81.3438 124.514C81.4018 124.567 81.4404 124.63 81.4549 124.707C81.4839 124.775 81.4887 124.847 81.4646 124.925C81.4598 124.944 81.4501 124.959 81.4404 124.978C81.4308 125.002 81.4259 125.021 81.4211 125.046C81.4115 125.084 81.4018 125.123 81.3921 125.162C81.3921 125.181 81.3825 125.2 81.3825 125.22C81.3825 125.224 81.3825 125.229 81.3825 125.234C81.3825 125.234 81.3825 125.239 81.3825 125.244C81.3728 125.263 81.368 125.282 81.3583 125.302C81.3583 125.316 81.3535 125.331 81.3487 125.345C81.3438 125.36 81.3342 125.374 81.3293 125.394C81.3293 125.403 81.3245 125.408 81.3197 125.418C81.31 125.437 81.3003 125.461 81.2907 125.481C81.2907 125.49 81.2859 125.495 81.281 125.505C81.2617 125.534 81.2375 125.558 81.2134 125.582C81.2134 125.582 81.2134 125.582 81.2086 125.577C81.2086 125.577 81.2086 125.587 81.1989 125.592C81.1409 125.64 81.0733 125.669 81.0057 125.688C81.0057 125.688 81.0057 125.688 81.0008 125.688L80.8511 125.756L80.682 125.795H80.5081C80.4936 125.795 80.3584 125.766 80.3439 125.766C80.3245 125.761 80.2183 125.713 80.1989 125.703C80.1989 125.703 80.1989 125.703 80.1941 125.703C80.1941 125.703 80.1941 125.703 80.1893 125.703C80.1796 125.698 80.0782 125.621 80.0685 125.611C80.0685 125.611 80.0588 125.601 80.054 125.597C80.0444 125.587 80.0347 125.572 80.025 125.563L80.0154 125.548Z" fill="#DE717C"/>
<path d="M81.2903 125.471C81.5173 125.307 81.841 125.075 81.2903 125.471V125.471Z" fill="#DE717C"/>
<path d="M81.3242 132.77C81.5465 132.577 82.0972 132.785 81.8073 133.041C81.5851 133.234 81.0344 133.026 81.3242 132.77Z" fill="#DE717C"/>
<path d="M95.136 142.235L95.1795 142.134C95.2084 142.085 95.2519 142.047 95.2954 142.013C95.3051 142.003 95.3196 141.993 95.3292 141.989C95.2616 141.887 95.2568 141.761 95.3244 141.65C95.3389 141.631 95.3534 141.616 95.3679 141.597C95.3824 141.568 95.3968 141.534 95.4065 141.515C95.4307 141.471 95.4693 141.433 95.5128 141.394C95.5224 141.375 95.5273 141.35 95.5369 141.331C95.5659 141.292 95.5997 141.259 95.6287 141.22C95.6867 141.162 95.7543 141.123 95.8316 141.094C95.8848 141.065 95.9379 141.051 95.9959 141.041C96.0538 141.022 96.1118 141.017 96.1698 141.022C96.2277 141.017 96.2857 141.022 96.3388 141.036C96.4161 141.046 96.4934 141.07 96.5611 141.114C96.677 141.176 96.7784 141.249 96.8847 141.331C96.933 141.37 96.9813 141.408 97.02 141.452C97.0731 141.52 97.1359 141.592 97.1649 141.674C97.2084 141.805 97.2277 141.887 97.2035 142.027C97.189 142.105 97.1552 142.177 97.1069 142.24C97.0103 142.366 96.9378 142.428 96.8026 142.515C96.7495 142.549 96.6915 142.578 96.6335 142.602C96.5321 142.665 96.4161 142.714 96.3002 142.723C96.276 142.723 96.2471 142.723 96.2229 142.723C96.1311 142.743 96.0442 142.757 95.9524 142.767C95.764 142.781 95.5466 142.781 95.392 142.665C95.3389 142.627 95.2809 142.583 95.2278 142.54C95.1505 142.472 95.107 142.332 95.136 142.235Z" fill="#DE717C"/>
</g>
<g style="mix-blend-mode:screen">
<path d="M191.978 63.0602C189.963 59.0287 187.673 55.1326 185.002 51.4975C184.466 50.7676 183.896 50.057 183.369 49.3174C182.973 48.7663 182.577 48.2104 182.166 47.669C181.21 46.4074 180.191 45.1651 178.973 44.1451C177.959 43.2895 176.674 42.4677 175.292 42.5596C173.756 42.6611 172.326 43.7487 171.239 44.7542C168.573 47.2243 166.761 50.492 164.877 53.5567C163.839 55.2486 162.8 56.9598 161.848 58.7145C165.09 51.9857 172.519 39.9444 175.524 40.0653C179.403 40.22 192.176 59.0771 192.321 63.3551C192.321 63.4663 192.316 63.5919 192.296 63.7225C192.185 63.5001 192.079 63.2777 191.968 63.0554L191.978 63.0602Z" fill="#6ABCA9"/>
<path d="M154.916 61.4119C153.192 60.0294 151.312 58.8644 149.37 57.8155C147.733 56.9309 146.042 56.1429 144.404 55.2535C142.888 54.4317 141.356 53.6148 139.748 52.9816C138.236 52.387 136.569 51.8939 134.927 52.0535C133.482 52.1936 132.308 52.9042 131.487 54.0934C130.637 55.3212 130.197 56.8149 129.878 58.2554C129.55 59.7394 129.328 61.2524 129.077 62.7509C128.415 66.6761 128.057 70.6399 127.951 74.6133C127.434 69.3009 128.255 51.7489 132.618 50.3422C136.197 49.1869 154.037 58.8354 156.771 62.9733C156.172 62.4319 155.544 61.9098 154.916 61.4071V61.4119Z" fill="#6ABCA9"/>
<path d="M225.396 69.5087C225.102 66.7244 224.928 63.824 224 61.1654C223.58 59.9569 222.967 58.7194 221.904 57.9508C220.696 57.0759 219.136 56.9744 217.706 57.1581C216.01 57.3756 214.373 57.946 212.798 58.5986C211.262 59.2366 209.75 59.9521 208.247 60.6626C205.098 62.1612 202.016 63.8385 199.151 65.8301C199.233 65.6996 199.315 65.5836 199.407 65.4917C202.03 62.9153 219.314 52.5852 223.111 55.7176C226.029 58.1248 227.512 78.5771 225.44 82.9518C225.16 78.4756 225.875 73.9801 225.396 69.5087Z" fill="#6ABCA9"/>
<path d="M245.342 98.3962C245.724 97.1635 246.081 95.9164 246.415 94.6692C246.753 93.4027 247.033 92.0879 246.999 90.7731C246.97 89.6323 246.68 88.4286 245.965 87.5199C245.328 86.7126 244.386 86.2534 243.415 85.9924C242.41 85.7217 241.362 85.625 240.333 85.4993C238.946 85.3301 237.545 85.2189 236.154 85.1416C234.058 85.0256 231.918 85.0207 229.84 85.3543C233.285 84.1555 247.226 81.8013 249.009 84.9289C250.482 87.5054 245.743 103.254 243.115 105.202C243.043 105.256 242.956 105.304 242.859 105.352C243.676 103.027 244.627 100.75 245.352 98.3962H245.342Z" fill="#6ABCA9"/>
<path d="M121.251 79.017C119.797 78.8913 118.333 78.8333 116.884 78.6737C115.212 78.4901 113.531 78.3547 111.85 78.4272C110.386 78.4901 108.821 78.6496 107.546 79.4375C106.58 80.0369 105.937 80.9602 105.662 82.0575C105.507 82.6811 105.459 83.324 105.449 83.9669C105.44 84.8322 105.464 85.6974 105.532 86.5627C105.667 88.3561 105.957 90.1398 106.338 91.8945C106.469 92.5036 106.614 93.1078 106.763 93.7121C105.015 87.7953 103.508 79.8967 105.425 78.4611C107.102 77.2042 115.082 77.794 121.265 79.0218C121.265 79.0218 121.265 79.0218 121.26 79.0218L121.251 79.017Z" fill="#6ABCA9"/>
</g>
<g style="mix-blend-mode:screen">
<path d="M290.988 132.616C291.688 134.23 292.268 135.903 292.659 137.619C292.939 138.842 293.123 140.098 293.104 141.355C292.654 139.934 292.2 138.513 291.712 137.106C290.606 133.906 289.331 130.74 287.592 127.825C286.853 126.583 286.017 125.399 285.099 124.292C287.606 126.655 289.621 129.449 290.993 132.616H290.988Z" fill="#F79F95"/>
</g>
<path d="M288.447 148.031C288.524 147.91 288.606 147.789 288.698 147.683C288.93 147.402 289.234 147.074 289.596 146.982C289.727 146.948 289.91 147.059 289.915 147.204C289.92 147.509 289.741 147.804 289.567 148.041C289.558 148.055 289.548 148.065 289.538 148.074C289.48 148.157 289.418 148.234 289.35 148.306C289.331 148.331 289.306 148.35 289.287 148.369C289.244 148.418 289.2 148.461 289.152 148.505C289.123 148.534 289.094 148.553 289.06 148.582C288.978 148.654 288.905 148.727 288.819 148.79C288.688 148.882 288.543 148.969 288.389 149.003C288.239 149.036 288.021 148.896 288.06 148.722C288.123 148.466 288.277 148.229 288.447 148.031Z" fill="#712B39"/>
<path d="M288.939 145.566C288.988 145.541 289.036 145.517 289.084 145.493C289.562 145.29 290.108 145.203 290.606 145.396C290.988 145.546 291.258 145.856 291.282 146.271C291.306 146.672 291.152 147.074 290.973 147.427C290.78 147.818 290.509 148.181 290.219 148.505C290.171 148.558 290.055 148.476 290.099 148.422C290.316 148.171 290.48 147.881 290.625 147.586C290.794 147.243 290.949 146.876 290.983 146.494C291.012 146.204 290.959 145.875 290.683 145.715C290.282 145.483 289.785 145.575 289.379 145.73C289.123 145.827 288.881 145.962 288.649 146.117C288.572 146.17 288.5 146.223 288.427 146.281C288.587 146.034 288.756 145.798 288.93 145.561L288.939 145.566Z" fill="#B85062"/>
</g>
<defs>
<filter id="filter0_d_48_15599" x="0" y="0" width="334" height="234.473" filterUnits="userSpaceOnUse" color-interpolation-filters="sRGB">
<feFlood flood-opacity="0" result="BackgroundImageFix"/>
<feColorMatrix in="SourceAlpha" type="matrix" values="0 0 0 0 0 0 0 0 0 0 0 0 0 0 0 0 0 0 127 0" result="hardAlpha"/>
<feOffset/>
<feGaussianBlur stdDeviation="20"/>
<feColorMatrix type="matrix" values="0 0 0 0 1 0 0 0 0 1 0 0 0 0 1 0 0 0 1 0"/>
<feBlend mode="normal" in2="BackgroundImageFix" result="effect1_dropShadow_48_15599"/>
<feBlend mode="normal" in="SourceGraphic" in2="effect1_dropShadow_48_15599" result="shape"/>
</filter>
</defs>
</svg>
