<svg width="269" height="174" viewBox="0 0 269 174" fill="none" xmlns="http://www.w3.org/2000/svg">
<g filter="url(#filter0_d_56_7437)">
<path d="M251.07 126.444C250.793 126.413 250.515 126.352 250.237 126.259C249.99 126.198 249.743 126.121 249.512 126.028C249.466 126.028 249.419 126.028 249.373 126.028C239.282 122.809 232.031 113.691 223.884 107.33C220.474 104.666 216.694 102.433 212.682 100.769C212.775 100.769 212.852 100.785 212.944 100.8C211.957 100.369 210.954 99.9683 209.936 99.7064C207.683 99.152 205.353 99.1828 203.085 98.7977C203.039 98.7977 203.008 98.7669 202.977 98.7515C188.643 97.3037 174.247 98.0122 159.852 99.6756C153.032 100.477 146.135 101.17 139.238 101.986C135.087 93.5457 127.928 86.0604 120.044 81.0547C116.078 78.5442 111.697 76.696 107.083 75.8335C101.806 74.8632 96.1128 76.311 90.8822 77.0502C78.8164 78.7599 66.8432 80.069 54.87 82.4717C49.7783 83.4882 44.7328 84.8282 39.6874 86.0604C36.9873 86.7226 34.3026 87.4311 31.6333 88.1704C31.2938 88.2628 29.9206 88.6479 28.3314 89.1407C25.7238 90.2651 23.1471 91.4818 20.5087 92.6216C20.5087 92.6216 20.4932 92.6216 20.4778 92.6216C17.5308 94.3774 14.9078 96.7493 12.5625 99.3214C12.5162 99.614 12.4699 99.9067 12.4237 100.199C19.444 96.1024 26.4181 92.3597 34.4106 90.5115C34.4414 90.5115 34.4877 90.4807 34.5186 90.4499C34.6112 90.4499 34.6883 90.4499 34.7809 90.4653C41.5081 91.1122 47.0935 95.5633 51.4292 100.4C51.4909 100.461 51.5372 100.523 51.5989 100.584C44.2391 102.771 37.2959 105.205 30.3063 108.486C26.9736 110.041 23.9494 111.889 20.9561 113.815C19.0892 114.8 17.2839 115.986 15.5867 117.326C15.309 117.511 15.0312 117.696 14.7535 117.865C14.7226 117.834 14.6763 117.834 14.6301 117.881C14.5529 117.958 14.4912 118.019 14.4449 118.081C14.4449 118.081 14.4295 118.096 14.414 118.112C14.3215 118.235 14.2598 118.343 14.2135 118.543C13.982 119.637 13.7197 120.145 12.9174 121.007C12.3465 121.608 11.8219 122.547 11.5133 123.318C11.4207 123.549 11.2356 124.088 11.0196 124.735C10.711 125.027 10.1092 125.689 10.0012 125.782C10.8036 126.506 11.4979 127.322 12.2848 128.077C12.7322 128.493 13.7043 130.033 13.766 130.125C12.686 131.003 11.6522 131.927 10.6956 132.913C10.5567 133.098 10.4024 133.283 10.2635 133.452C10.5104 133.991 10.7573 134.546 11.0196 135.085C11.1739 134.946 11.3282 134.823 11.4979 134.7C12.2694 133.806 13.3957 132.944 14.0129 132.405C15.1392 131.404 16.4044 130.541 17.6697 129.725C19.9686 128.246 22.4836 127.122 25.0758 126.229C30.5378 124.365 36.6787 123.857 42.3567 124.935C47.649 125.936 52.2161 129.016 56.0272 132.697C59.4216 135.978 61.6281 139.828 63.5259 143.972C63.6802 144.156 63.819 144.372 63.927 144.588C64.9608 144.726 65.9483 145.173 66.9049 145.589C68.3707 146.205 69.8365 146.759 71.2406 147.483C71.5337 147.113 71.8886 146.759 72.2898 146.544C77.3815 141.538 84.2321 138.596 91.1137 136.871C99.3684 134.792 108.009 134.684 116.372 136.117C124.21 137.456 131.924 140.614 138.791 144.572C142.185 146.528 145.379 148.839 148.341 151.395C151.119 153.783 153.186 156.755 155.315 159.681C155.423 159.789 155.547 159.897 155.686 159.928C155.809 159.959 155.948 159.959 156.071 159.928C157.121 159.712 158.185 159.512 159.25 159.327C163.154 158.665 167.026 157.91 170.93 157.217C179.061 155.785 187.301 154.83 195.478 153.721C203.61 152.627 211.725 151.58 219.841 150.379C227.679 149.208 235.564 148.607 243.417 147.56C243.572 147.545 243.741 147.283 243.711 147.144C243.973 146.667 243.942 145.897 243.957 145.496C243.957 145.465 243.988 145.435 243.988 145.419C244.035 145.127 244.035 144.834 244.035 144.541C244.035 144.31 243.911 144.095 243.88 143.864C243.88 143.787 243.834 143.725 243.788 143.679C243.695 143.386 243.51 143.109 243.294 142.755C242.646 141.723 242.09 140.737 241.257 139.89C242.955 139.628 244.652 139.336 246.334 138.997C246.457 138.95 246.565 138.92 246.673 138.873C246.704 138.535 246.735 138.18 246.719 137.826C246.133 136.363 245.454 134.792 244.467 133.606C243.695 132.682 243.047 131.65 242.276 130.741C242.152 130.587 242.029 130.372 241.89 130.187C244.683 129.432 247.46 128.585 250.206 127.63C250.206 127.63 250.222 127.63 250.237 127.63C250.392 127.63 250.546 127.553 250.7 127.445C250.885 127.384 251.07 127.307 251.256 127.245C251.225 126.937 251.178 126.644 251.132 126.336L251.07 126.444Z" fill="#ABABAB"/>
<path d="M22.7307 93.9461C20.4317 95.0859 18.1945 96.241 16.0189 97.5964C15.6486 97.8274 14.0748 98.5359 12.9948 99.1982C18.1636 94.0385 24.1502 90.6501 31.3712 90.3883C28.347 91.1122 25.3537 92.637 22.7307 93.9307V93.9461Z" fill="white"/>
<path d="M31.3712 108.701C38.1447 105.544 44.9182 103.31 52.062 101.2C59.931 110.195 68.2166 123.148 69.5435 135.316C68.8184 133.406 67.3063 129.34 66.1645 127.753C61.69 119.775 53.7901 113.83 44.9953 111.304C38.2681 109.379 31.4946 109.702 25.2766 111.936C27.2515 110.78 29.2728 109.687 31.3866 108.701H31.3712Z" fill="white"/>
<path d="M14.4604 119.821C14.7227 119.405 14.5222 118.913 14.5685 118.451C15.0313 118.112 15.4942 117.773 15.9725 117.449C17.5 116.587 18.9967 115.694 20.4779 114.785C28.2698 110.873 36.7405 110.057 45.705 112.598C51.4139 114.215 56.2124 117.465 60.1315 121.608C56.3204 118.697 51.8151 116.479 47.248 114.8C36.1696 110.719 23.4095 112.921 14.2444 120.16C14.3216 120.052 14.3833 119.929 14.4604 119.821Z" fill="white"/>
<path d="M241.936 142.216C242.137 142.524 242.862 143.54 243.047 144.172C243.047 144.218 243.063 144.264 243.063 144.31C228.821 145.342 214.565 146.882 200.447 148.854C193.087 149.886 185.727 151.041 178.336 151.903C174.757 152.319 171.177 152.797 167.597 153.351C164.234 153.86 160.839 154.291 157.476 154.83C156.118 153.29 154.745 151.78 153.279 150.332C150.116 147.206 146.413 144.665 142.756 142.139C139.454 139.844 136.106 137.718 132.403 136.117C128.036 134.222 123.361 133.082 118.732 132.066C110.37 130.218 101.004 130.356 92.7493 132.651C84.4637 134.961 76.3633 138.088 70.1915 144.31C70.1452 144.357 70.1607 144.449 70.2378 144.387C76.3942 138.627 84.0317 135.624 91.9933 133.313C100.418 130.864 109.907 130.772 118.455 132.574C126.447 134.268 133.884 136.825 140.673 141.43C143.96 143.663 147.231 145.958 150.316 148.453C151.952 149.778 153.418 151.303 154.868 152.812C155.516 153.505 156.149 154.198 156.781 154.907H156.751C156.889 155.045 157.028 155.184 157.152 155.307C157.383 155.323 157.615 155.338 157.831 155.354C157.861 155.354 157.892 155.323 157.923 155.307C164.419 154.753 170.899 153.428 177.349 152.597C184.971 151.595 192.578 150.517 200.184 149.47C214.379 147.514 228.682 145.958 242.986 144.926C242.986 144.957 243.016 144.973 243.032 145.003C243.063 145.019 243.094 145.034 243.124 145.065H243.14C243.171 145.311 243.124 145.589 243.171 145.835C243.171 145.897 243.202 145.943 243.232 145.974C243.217 146.343 243.202 146.929 243.032 147.114C243.001 147.144 242.986 147.175 242.97 147.206C235.518 147.899 228.112 148.592 220.705 149.686C212.605 150.887 204.489 151.965 196.358 153.059C188.412 154.137 180.404 155.107 172.489 156.493C168.569 157.171 164.681 157.956 160.778 158.68C159.158 158.988 157.321 159.112 155.748 159.604C151.767 152.751 145.364 147.668 138.59 143.71C131.045 139.289 122.544 136.209 113.872 135.023C105.633 133.899 97.193 134.53 89.1851 136.779C85.3278 137.857 81.5476 139.443 78.1068 141.507C76.425 142.524 74.8358 143.694 73.3546 144.973C73.0614 145.219 72.1356 146.205 71.3642 147.036C69.8367 146.436 68.3246 145.743 66.7508 145.219C65.9022 144.942 65.0381 144.695 64.1741 144.464C59.8384 133.729 51.1362 124.904 39.0241 123.903C33.0992 123.41 26.912 124.704 21.5272 127.168C18.9196 128.369 16.5126 129.94 14.3062 131.758C13.5502 132.374 11.9146 133.621 11.0506 134.869C10.85 134.407 10.6494 133.929 10.4334 133.467C18.9196 125.628 29.9979 120.514 41.8477 122.162C47.4794 122.948 52.5249 124.919 56.8451 128.647C61.0728 132.297 64.6369 137.795 66.5965 143.017C66.6582 143.201 66.9822 142.893 66.9205 142.724C64.9301 137.41 61.3351 132.112 57.1228 128.308C52.5249 124.165 46.7543 122.316 40.6905 121.608C34.8736 120.93 28.3315 122.316 22.9621 124.55C19.7991 125.859 16.744 127.707 13.9822 129.91C14.0748 129.848 14.1519 129.709 14.121 129.632C13.7662 128.708 13.0256 127.738 12.3312 127.045C11.9455 126.66 11.5135 125.967 10.9426 125.72C10.9734 125.659 11.0197 125.597 11.0506 125.551C11.066 125.551 11.0815 125.52 11.0969 125.505C16.096 121.777 21.0026 118.882 27.3749 117.896C32.8061 117.064 38.7155 117.496 44.1158 118.343C49.9481 119.267 54.8084 122.178 59.4527 125.689C64.4827 129.494 66.6428 134.13 68.9109 139.767C68.9726 139.921 69.2349 139.674 69.2041 139.551C65.5473 126.891 55.0861 118.697 42.0637 117.018C36.5863 116.31 30.4145 116.063 25.0296 117.372C21.8666 118.143 19.0893 119.421 16.312 121.084C15.664 121.469 13.1953 122.933 11.5752 124.242C12.0226 123.01 12.4084 121.993 13.473 121.069C23.3324 114.076 35.0742 111.874 46.708 115.74C52.1391 117.542 57.4314 120.484 61.7825 124.195C62.4614 124.781 63.0786 125.397 63.634 126.013C64.7758 127.23 65.7633 128.554 66.5039 130.094C67.8926 132.959 69.5126 136.301 70.207 139.597C70.5156 139.151 70.8396 138.689 71.2099 138.273C71.3025 138.165 71.4105 138.057 71.5185 137.949C76.2862 131.527 81.8407 125.582 89.6017 122.979C98.6742 119.945 108.426 120.16 117.514 122.886C121.541 124.088 125.583 125.197 129.518 126.675C134.224 128.446 138.405 131.665 142.571 134.422C148.187 138.134 152.939 142.385 157.136 147.345C158.077 148.238 159.173 149.947 159.929 150.995C163.154 150.302 175.42 148.269 178.444 147.807C186.329 146.636 194.661 145.265 202.591 144.464C210.136 143.71 217.681 142.97 225.195 141.954C230.256 141.276 235.441 140.799 240.548 140.044C241.072 140.722 241.489 141.461 241.952 142.185L241.936 142.216Z" fill="white"/>
<path d="M243.202 145.851C243.14 145.604 243.202 145.327 243.171 145.08H243.155C243.124 145.065 243.094 145.034 243.063 145.019C243.032 145.003 243.016 144.973 243.016 144.942C228.713 145.989 214.41 147.529 200.215 149.485C192.593 150.533 185.002 151.626 177.38 152.612C170.93 153.459 164.45 154.784 157.954 155.323C157.923 155.323 157.892 155.354 157.861 155.369C157.63 155.369 157.399 155.353 157.183 155.323C157.044 155.184 156.905 155.061 156.781 154.922H156.812C156.812 154.922 156.812 154.922 156.812 154.907C156.18 154.198 155.547 153.49 154.899 152.812C153.449 151.303 151.983 149.763 150.347 148.453C147.246 145.958 143.99 143.648 140.704 141.43C133.915 136.825 126.478 134.268 118.486 132.574C109.938 130.757 100.449 130.864 92.0242 133.313C84.0626 135.624 76.425 138.627 70.2687 144.387C70.1915 144.449 70.1761 144.357 70.2224 144.31C70.9476 143.571 71.7036 142.893 72.4905 142.246C71.1482 142.816 70.8087 144.48 69.1423 144.387C68.1394 144.326 67.4605 143.725 66.9514 142.955C66.8742 143.078 66.7199 143.171 66.6736 143.047C64.7295 137.826 61.1499 132.328 56.9223 128.677C52.602 124.95 47.5566 122.979 41.9249 122.193C30.0905 120.545 18.9968 125.643 10.5106 133.498C10.7266 133.96 10.9272 134.438 11.1278 134.9C11.9918 133.652 13.6273 132.405 14.3834 131.789C16.5898 129.971 18.9968 128.385 21.6043 127.199C26.9892 124.735 33.1764 123.441 39.1013 123.934C51.1979 124.935 59.9156 133.76 64.2512 144.495C65.1153 144.726 65.9947 144.957 66.8279 145.25C68.4017 145.774 69.8984 146.467 71.4413 147.067C72.2128 146.22 73.154 145.234 73.4317 145.003C74.9129 143.725 76.5022 142.539 78.184 141.538C81.6247 139.474 85.405 137.888 89.2623 136.81C97.2702 134.576 105.71 133.929 113.949 135.054C122.621 136.24 131.122 139.32 138.667 143.74C145.425 147.699 151.829 152.781 155.825 159.635C157.399 159.142 159.235 159.019 160.855 158.711C164.758 157.987 168.647 157.202 172.566 156.524C180.466 155.153 188.473 154.183 196.435 153.089C204.551 151.98 212.667 150.902 220.783 149.716C228.189 148.623 235.595 147.945 243.047 147.237C243.063 147.206 243.094 147.175 243.109 147.144C243.279 146.959 243.294 146.39 243.31 146.005C243.279 145.974 243.263 145.928 243.248 145.866L243.202 145.851Z" fill="#B02444"/>
<path d="M243.201 145.851C243.14 145.604 243.201 145.327 243.171 145.08H243.155C243.124 145.065 243.093 145.034 243.063 145.019C243.032 145.003 243.016 144.973 243.016 144.942C228.713 145.989 214.41 147.529 200.215 149.485C192.593 150.533 185.002 151.626 177.379 152.612C170.93 153.459 164.45 154.784 157.954 155.323C157.923 155.323 157.892 155.354 157.861 155.369C157.63 155.369 157.398 155.354 157.182 155.323C157.044 155.2 156.92 155.061 156.781 154.938C156.457 156.478 156.164 158.033 155.84 159.574C157.414 159.096 159.219 158.958 160.824 158.665C164.727 157.941 168.616 157.156 172.535 156.478C180.435 155.107 188.442 154.137 196.404 153.043C204.52 151.934 212.636 150.856 220.752 149.67C228.158 148.577 235.564 147.899 243.016 147.191C243.032 147.16 243.063 147.129 243.078 147.098C243.248 146.913 243.263 146.343 243.279 145.958C243.248 145.928 243.232 145.881 243.217 145.82L243.201 145.851Z" fill="#4A0F1D"/>
<path d="M242.353 132.189C242.878 133.082 244.914 134.869 245.902 138.381C231.552 140.059 217.28 142.154 202.9 143.633C188.551 145.096 174.541 148.053 160.315 150.225C155.717 143.217 149.098 137.487 142.17 132.774C138.297 130.141 134.44 127.476 130.104 125.659C124.981 123.502 119.334 122.07 113.934 120.761C104.846 118.543 94.6627 119.791 86.0839 123.425C82.674 124.873 79.835 127.63 77.3046 130.248C75.8079 131.804 74.4656 133.437 73.1695 135.146C72.7992 135.639 71.3951 137.133 70.4848 138.411C70.3459 130.618 67.7383 123.641 63.9427 116.818C60.1162 109.918 55.3331 102.879 49.7476 97.2575C44.3319 91.8053 37.3733 89.0329 29.6894 89.6182C29.4425 89.6336 29.2111 89.6644 28.9797 89.6952C36.4938 87.4465 44.2239 85.7985 51.846 84.0273C63.1558 81.3936 74.7124 79.838 86.2536 78.575C91.3145 78.0206 96.3445 77.1427 101.421 76.6344C107.376 76.0337 113.178 78.4826 118.239 81.332C126.401 85.9371 133.792 93.7767 138.066 102.155C126.463 103.542 114.875 105.297 103.72 108.424C103.689 108.424 103.658 108.486 103.627 108.532C98.9058 109.671 94.3541 111.689 90.5121 114.184C82.9672 119.067 75.0827 127.337 71.6574 135.716C71.642 135.778 71.6574 135.793 71.6883 135.793C71.4568 136.163 71.21 136.517 70.9785 136.887C70.8705 137.056 71.0711 137.118 71.1791 136.979C79.3413 126.352 88.4292 117.85 101.992 115.001C114.073 112.459 128.607 116.602 138.405 123.826C138.482 123.887 138.636 123.703 138.559 123.626C128.885 115.185 113.394 111.227 100.865 114.323C88.8612 117.295 78.8475 124.966 72.074 135.162C74.4656 130.418 78.1069 126.367 81.7945 122.594C85.6519 118.651 89.8641 115.001 94.8787 112.613C99.4304 110.442 104.26 109.24 109.274 108.717C115.77 108.039 121.649 110.472 127.265 113.414C135.859 117.896 143.049 124.642 150.394 130.849C153.541 133.514 156.828 136.271 160.577 138.088C164.018 139.751 167.659 140.814 171.347 141.692C171.393 141.692 171.439 141.692 171.486 141.692C172.226 141.908 173.029 141.938 173.8 142.015C174.726 141.923 175.667 141.846 176.608 141.784C180.682 141.245 184.786 140.753 188.828 139.982C196.528 138.504 204.227 137.056 211.988 135.932C221.878 134.499 231.768 132.99 241.396 130.433C241.782 130.803 242.137 131.85 242.353 132.204V132.189Z" fill="white"/>
<path d="M110.261 124.981C102.655 124.211 95.9429 125.12 88.8299 127.984C82.3804 130.572 74.5731 135.331 71.2404 141.661C71.1324 141.861 71.3484 141.938 71.4564 141.769C80.3129 130.11 95.9583 124.765 110.153 125.227C110.246 125.227 110.385 124.981 110.261 124.966V124.981Z" fill="#CCCCCC"/>
<path d="M250.237 127.014C237.523 131.481 224.146 133.437 210.83 135.377C203.069 136.502 195.37 137.98 187.671 139.52C183.227 140.414 178.675 140.922 174.185 141.677C169.325 140.429 164.527 138.981 160.083 136.594C155.3 134.022 151.211 130.11 147.122 126.598C138.821 119.452 129.934 111.936 119.272 108.64C116.557 107.808 113.718 107.469 110.848 107.546C117.328 106.452 123.778 105.112 130.273 104.204C133.035 103.819 135.797 103.449 138.574 103.064C138.682 103.156 138.837 103.11 138.991 103.002C145.317 102.155 151.658 101.37 158.015 100.738C167.072 99.845 176.068 99.152 185.171 98.8285C193.565 98.5359 201.789 99.3984 210.074 100.43C215.598 102.463 220.721 105.605 225.318 109.502C229.469 113.029 233.342 116.833 237.569 120.268C241.195 123.21 245.053 126.429 249.867 126.937C249.913 126.937 249.975 126.937 250.036 126.891C250.114 126.922 250.191 126.952 250.268 126.983L250.237 127.014Z" fill="white"/>
<g style="mix-blend-mode:multiply" opacity="0.4">
<path d="M57.2463 107.685C57.2155 107.792 57.1383 107.9 56.984 107.916C52.9878 108.501 49.3928 110.38 45.5354 111.458C54.0987 114.061 61.7671 119.914 66.1491 127.723C67.2909 129.324 68.803 133.39 69.5281 135.285C68.4944 125.813 63.2329 115.863 57.2309 107.669L57.2463 107.685Z" fill="#BABABA"/>
</g>
<g style="mix-blend-mode:multiply" opacity="0.4">
<path d="M14.4604 119.821C14.7227 119.405 14.5222 118.913 14.5685 118.451C15.0313 118.112 15.4942 117.773 15.9725 117.449C17.5 116.587 18.9967 115.694 20.4779 114.785C28.2698 110.873 36.7405 110.056 45.705 112.598C51.4139 114.215 56.2124 117.465 60.1315 121.608C56.3204 118.697 51.8151 116.479 47.248 114.8C36.1696 110.719 23.4095 112.921 14.2444 120.16C14.3216 120.052 14.3833 119.929 14.4604 119.821Z" fill="#BABABA"/>
</g>
<g style="mix-blend-mode:multiply" opacity="0.4">
<path d="M243.201 145.851C243.139 145.604 243.201 145.327 243.17 145.08H243.155C243.124 145.065 243.093 145.034 243.062 145.019C243.031 145.003 243.016 144.973 243.016 144.942C228.713 145.989 214.41 147.529 200.215 149.485C192.593 150.533 185.001 151.626 177.379 152.612C170.93 153.459 164.449 154.784 157.954 155.323C157.923 155.323 157.892 155.354 157.861 155.369C157.63 155.369 157.398 155.354 157.182 155.323C157.043 155.184 156.904 155.061 156.781 154.922H156.812C156.812 154.922 156.812 154.922 156.812 154.907C156.179 154.198 155.547 153.49 154.899 152.812C153.448 151.303 151.982 149.763 150.347 148.453C147.246 145.958 143.99 143.648 140.704 141.43C133.915 136.825 126.478 134.268 118.485 132.574C109.937 130.757 100.448 130.865 92.0238 133.313C84.0622 135.624 76.4246 138.627 70.2683 144.387C70.1912 144.449 70.1757 144.357 70.222 144.31C76.4092 138.088 84.4942 134.946 92.7798 132.651C101.05 130.356 110.4 130.218 118.763 132.066C123.392 133.082 128.067 134.238 132.433 136.117C136.136 137.718 139.485 139.844 142.787 142.139C146.428 144.665 150.131 147.206 153.309 150.333C154.775 151.78 156.164 153.29 157.506 154.83C160.87 154.291 164.264 153.86 167.628 153.351C171.192 152.812 174.772 152.335 178.367 151.904C185.757 151.041 193.102 149.886 200.477 148.854C214.61 146.882 228.867 145.342 243.093 144.31C243.093 144.264 243.093 144.218 243.078 144.172C242.893 143.525 242.167 142.524 241.967 142.216C241.504 141.492 241.087 140.753 240.563 140.075C235.456 140.83 230.271 141.307 225.21 141.985C217.696 143.001 210.151 143.74 202.606 144.495C194.676 145.296 186.344 146.667 178.459 147.837C175.435 148.284 163.169 150.333 159.944 151.026C159.173 149.978 158.093 148.253 157.151 147.375C152.939 142.401 148.187 138.15 142.586 134.453C138.42 131.696 134.239 128.477 129.533 126.706C125.598 125.227 121.556 124.118 117.529 122.917C108.441 120.206 98.6893 119.991 89.6168 123.01C81.8558 125.597 76.3012 131.558 71.5335 137.98C71.4255 138.088 71.3329 138.196 71.2249 138.304C70.8546 138.719 70.5306 139.166 70.222 139.628C69.5277 136.332 67.9076 132.99 66.519 130.125C65.7784 128.585 64.7909 127.26 63.6491 126.044C63.0936 125.412 62.4765 124.796 61.7976 124.226C57.4465 120.514 52.1542 117.573 46.723 115.771C35.0892 111.92 23.3475 114.107 13.4881 121.1C12.4234 122.024 12.0377 123.056 11.5902 124.272C13.2103 122.963 15.6945 121.5 16.3271 121.115C19.1044 119.452 21.8971 118.173 25.0447 117.403C30.4296 116.079 36.6013 116.341 42.0788 117.049C55.1012 118.728 65.5623 126.906 69.2191 139.582C69.25 139.705 68.9877 139.952 68.926 139.798C66.6424 134.145 64.4977 129.525 59.4677 125.72C54.8235 122.209 49.9632 119.298 44.1309 118.374C40.1964 117.757 35.9842 117.357 31.8799 117.511C33.0217 117.696 34.1172 118.05 35.1818 118.651C35.4133 118.789 35.4441 119.174 35.1818 119.313C28.2694 122.563 19.737 124.319 14.0435 129.463C14.0744 129.54 14.1207 129.617 14.1515 129.679C14.1824 129.756 14.1052 129.91 14.0127 129.956C16.7745 127.753 19.8296 125.905 22.9926 124.596C28.362 122.363 34.9041 120.976 40.721 121.654C46.8002 122.363 52.5553 124.195 57.1533 128.354C61.3655 132.158 64.9606 137.457 66.951 142.77C67.0127 142.94 66.6887 143.232 66.627 143.063C64.6829 137.842 61.1032 132.343 56.8756 128.693C52.5553 124.966 47.5099 122.994 41.8782 122.209C30.2753 120.591 19.3975 125.474 10.9731 133.052C10.8342 133.267 10.6953 133.498 10.5565 133.729C10.7416 134.114 10.9114 134.515 11.0811 134.915C11.9451 133.668 13.5806 132.42 14.3367 131.804C16.5431 129.987 18.9501 128.4 21.5577 127.214C26.9425 124.75 33.1297 123.456 39.0546 123.949C51.1513 124.95 59.8689 133.775 64.2046 144.511C65.0686 144.742 65.9481 144.973 66.7813 145.265C68.3551 145.789 69.8517 146.482 71.3947 147.083C72.1661 146.236 73.1073 145.25 73.3851 145.019C74.8663 143.741 76.4555 142.555 78.1373 141.553C81.5781 139.49 85.3583 137.903 89.2156 136.825C97.2235 134.592 105.663 133.945 113.903 135.069C122.574 136.255 131.076 139.336 138.621 143.756C145.379 147.714 151.782 152.797 155.778 159.651C157.352 159.158 159.188 159.035 160.808 158.727C164.712 158.003 168.6 157.217 172.519 156.539C180.419 155.169 188.427 154.198 196.388 153.105C204.504 151.996 212.62 150.918 220.736 149.732C228.142 148.638 235.548 147.961 243.001 147.252C243.016 147.221 243.047 147.191 243.062 147.16C243.232 146.975 243.247 146.405 243.263 146.02C243.232 145.989 243.217 145.943 243.201 145.881V145.851Z" fill="#BABABA"/>
</g>
<g style="mix-blend-mode:multiply" opacity="0.4">
<path d="M157.969 155.338H157.939C157.908 155.338 157.877 155.369 157.846 155.384C157.615 155.384 157.383 155.369 157.167 155.338C157.028 155.2 156.889 155.076 156.766 154.938H156.797C156.797 154.938 156.797 154.938 156.797 154.922C156.164 154.214 155.532 153.505 154.884 152.828C153.433 151.318 151.967 149.778 150.332 148.469C147.231 145.974 143.975 143.663 140.688 141.446C133.9 136.84 126.463 134.284 118.47 132.59C109.922 130.772 100.433 130.88 92.0087 133.329C84.0471 135.639 76.4095 138.642 70.2532 144.403C70.1761 144.464 70.1606 144.372 70.2069 144.326C76.3941 138.103 84.4791 134.961 92.7647 132.667C101.035 130.372 110.385 130.233 118.748 132.081C123.377 133.098 128.052 134.253 132.418 136.132C136.121 137.734 139.47 139.859 142.771 142.154C146.413 144.68 150.116 147.221 153.294 150.348C154.76 151.796 156.149 153.305 157.491 154.845C157.584 154.845 157.661 154.814 157.753 154.814C157.615 154.46 157.46 154.091 157.306 153.736C156.334 151.58 154.992 149.547 153.587 147.637C150.81 143.802 147.508 140.352 143.79 137.41C136.229 131.419 127.203 127.153 117.683 125.428C107.315 123.549 96.0203 123.995 86.5004 128.862C79.372 132.513 71.6727 138.288 68.1085 145.743C69.204 146.174 70.2841 146.636 71.395 147.067C72.1664 146.22 73.1076 145.234 73.3854 145.003C74.8666 143.725 76.4558 142.539 78.1376 141.538C81.5784 139.474 85.3586 137.888 89.2159 136.81C97.2238 134.576 105.664 133.929 113.903 135.054C122.574 136.24 131.076 139.32 138.621 143.74C145.379 147.699 151.782 152.781 155.778 159.635C156.874 159.296 158.093 159.127 159.281 158.958C158.849 157.756 158.417 156.555 157.954 155.369L157.969 155.338Z" fill="#BABABA"/>
</g>
<g style="mix-blend-mode:multiply" opacity="0.4">
<path d="M173.152 156.401C178.305 154.46 183.536 152.674 188.813 151.087C185.002 151.611 181.191 152.135 177.38 152.643C171.192 153.444 164.974 154.691 158.741 155.277C159.188 156.447 159.605 157.648 160.052 158.819C160.315 158.773 160.577 158.742 160.839 158.696C164.743 157.972 168.631 157.186 172.55 156.509C172.751 156.478 172.951 156.447 173.167 156.401H173.152Z" fill="#BABABA"/>
</g>
<g style="mix-blend-mode:multiply" opacity="0.4">
<path d="M243.171 145.08H243.155C243.124 145.065 243.093 145.034 243.063 145.019C243.032 145.003 243.016 144.973 243.016 144.942C228.713 145.989 214.41 147.529 200.215 149.485C198.256 149.763 196.296 150.024 194.336 150.302C188.504 151.888 182.749 153.706 177.056 155.754C183.49 154.753 189.955 153.937 196.404 153.059C204.52 151.95 212.636 150.872 220.752 149.686C228.158 148.592 235.564 147.914 243.016 147.206C243.032 147.175 243.063 147.144 243.078 147.114C243.248 146.929 243.263 146.359 243.279 145.974C243.248 145.943 243.232 145.897 243.217 145.835C243.155 145.589 243.217 145.311 243.186 145.065L243.171 145.08Z" fill="#BABABA"/>
</g>
<g style="mix-blend-mode:multiply" opacity="0.4">
<path d="M242.353 132.189C242.137 131.835 241.782 130.787 241.396 130.418C231.768 132.99 221.878 134.484 211.988 135.916C204.227 137.041 196.528 138.488 188.828 139.967C184.786 140.737 180.697 141.23 176.608 141.769C175.667 141.831 174.741 141.908 173.8 142C173.029 141.923 172.226 141.892 171.486 141.677C171.439 141.677 171.393 141.677 171.347 141.677C167.659 140.799 164.018 139.736 160.577 138.073C156.828 136.255 153.541 133.514 150.394 130.834C143.049 124.627 135.859 117.881 127.265 113.399C121.649 110.472 115.77 108.039 109.274 108.701C104.26 109.225 99.4303 110.426 94.8786 112.598C89.864 114.985 85.6364 118.635 81.7944 122.578C78.1068 126.352 74.4655 130.402 72.0739 135.146C78.8629 124.95 88.8611 117.28 100.865 114.307C113.394 111.212 128.87 115.155 138.559 123.61C138.636 123.672 138.482 123.872 138.405 123.81C128.607 116.572 114.073 112.444 101.992 114.985C88.4291 117.834 79.3412 126.336 71.179 136.964C71.071 137.102 70.8704 137.041 70.9784 136.871C71.2099 136.502 71.4413 136.147 71.6882 135.778C71.6573 135.778 71.6265 135.762 71.6573 135.701C75.0827 127.337 82.9671 119.051 90.5121 114.169C94.3694 111.674 98.9057 109.656 103.627 108.516C103.642 108.47 103.689 108.424 103.72 108.408C114.875 105.282 126.463 103.526 138.066 102.14C136.461 98.9825 134.409 95.9176 132.033 93.0528C132.264 98.0892 124.904 96.7493 121.016 97.0573C109.506 97.966 98.1342 101.524 87.6885 106.314C83.4454 108.254 78.9091 110.519 74.1569 110.688C69.1732 110.873 65.7479 108.593 61.9831 105.621C58.0794 102.54 54.0832 99.4908 49.763 97.2729C55.333 102.895 60.1007 109.918 63.9272 116.803C67.7074 123.626 70.3304 130.618 70.4693 138.396C71.3642 137.133 72.7837 135.624 73.154 135.131C74.45 133.421 75.7924 131.789 77.2891 130.233C79.804 127.615 82.6585 124.858 86.0684 123.41C94.6471 119.775 104.831 118.528 113.918 120.745C119.303 122.055 124.966 123.502 130.089 125.643C134.424 127.461 138.282 130.125 142.154 132.759C149.082 137.456 155.701 143.201 160.299 150.209C174.525 148.022 188.535 145.08 202.884 143.617C217.265 142.154 231.537 140.059 245.886 138.365C244.914 134.854 242.878 133.067 242.337 132.174L242.353 132.189Z" fill="#BABABA"/>
</g>
<g style="mix-blend-mode:multiply" opacity="0.4">
<path d="M242.353 132.189C242.137 131.835 241.782 130.787 241.396 130.418C231.768 132.99 221.878 134.484 211.988 135.916C204.227 137.041 196.528 138.488 188.828 139.967C184.786 140.737 180.697 141.23 176.608 141.769C175.667 141.831 174.741 141.908 173.8 142C173.029 141.923 172.226 141.892 171.486 141.677C171.439 141.677 171.393 141.677 171.347 141.677C167.659 140.799 164.018 139.736 160.577 138.073C156.828 136.255 153.541 133.514 150.394 130.834C143.049 124.627 135.859 117.881 127.265 113.399C121.649 110.472 115.77 108.039 109.274 108.701C104.26 109.225 99.4303 110.426 94.8786 112.598C89.864 114.985 85.6364 118.635 81.7945 122.578C78.1068 126.352 74.4655 130.402 72.0739 135.146C78.8629 124.95 88.8611 117.28 100.865 114.307C113.394 111.212 128.87 115.155 138.559 123.61C138.636 123.672 138.482 123.872 138.405 123.81C128.607 116.572 114.073 112.444 101.992 114.985C88.4291 117.834 79.3412 126.336 71.179 136.964C71.071 137.102 70.8704 137.041 70.9784 136.871C71.2099 136.502 71.4413 136.147 71.6882 135.778C71.6573 135.778 71.6265 135.762 71.6573 135.701C75.0827 127.337 82.9671 119.051 90.5121 114.169C94.3694 111.674 98.9057 109.656 103.627 108.516C103.643 108.47 103.689 108.424 103.72 108.409C114.875 105.282 126.463 103.526 138.066 102.14C137.958 101.924 137.819 101.709 137.711 101.493C137.093 101.462 136.476 101.447 135.905 101.431C131.199 101.324 126.416 101.94 121.772 102.648C111.296 104.265 100.927 106.144 90.8361 109.471C85.729 111.15 80.7144 113.106 75.6227 114.785C72.8454 115.694 69.7595 116.833 66.9359 115.493C64.1432 114.153 61.8751 111.843 59.607 109.641C61.1653 112.013 62.6157 114.415 63.9426 116.818C67.7228 123.641 70.3458 130.633 70.4847 138.411C71.3796 137.148 72.7991 135.639 73.1694 135.146C74.4655 133.437 75.8079 131.804 77.3045 130.248C79.8195 127.63 82.6739 124.873 86.0838 123.425C94.6626 119.791 104.846 118.543 113.934 120.761C119.319 122.07 124.981 123.518 130.104 125.659C134.44 127.476 138.297 130.141 142.17 132.774C149.098 137.472 155.717 143.217 160.315 150.225C174.541 148.038 188.551 145.096 202.9 143.633C217.28 142.169 231.552 140.075 245.902 138.381C244.93 134.869 242.893 133.082 242.353 132.189Z" fill="#BABABA"/>
</g>
<g style="mix-blend-mode:multiply" opacity="0.4">
<path d="M250.021 126.906C250.021 126.906 249.913 126.968 249.852 126.952C245.038 126.444 241.18 123.225 237.554 120.283C234.283 117.619 231.228 114.739 228.081 111.951C228.343 112.952 228.405 113.969 228.158 114.97C227.263 118.404 223.622 119.652 220.536 120.453C209.859 123.225 198.641 122.979 187.764 124.596C177.873 126.059 167.505 128.308 157.522 126.259C152.261 125.181 147.879 122.655 143.188 120.16C139.516 118.204 135.797 116.356 131.971 114.77C137.371 118.25 142.339 122.486 147.123 126.598C151.211 130.11 155.285 134.022 160.083 136.594C164.527 138.981 169.325 140.414 174.186 141.677C178.676 140.922 183.227 140.414 187.671 139.52C195.355 137.98 203.07 136.502 210.831 135.377C224.146 133.437 237.523 131.481 250.237 127.014C250.16 126.983 250.083 126.952 250.006 126.922L250.021 126.906Z" fill="#BABABA"/>
</g>
<path d="M255.406 12.2544C256.101 11.9772 256.749 11.8694 257.474 11.7462C257.52 11.7462 259.742 11.3303 258.739 10.6372C254.295 10.0057 250.222 10.5756 245.809 11.9156C240.81 13.4404 235.811 15.2732 230.565 15.7353C225.226 16.2127 220.598 14.0564 215.845 11.9772C211.247 9.95954 206.495 7.95729 201.604 6.77134C191.745 4.38405 181.607 7.88028 172.998 12.6395C163.894 17.6759 155.917 24.884 148.203 31.784C146.274 33.509 144.315 35.2187 142.401 36.9745C141.445 37.8678 140.488 38.7765 139.547 39.6852C138.621 40.5631 137.726 41.7029 136.631 42.3497C136.569 42.3035 136.523 42.2419 136.461 42.1957C135.859 41.7029 134.825 42.5808 134.44 42.935C133.051 44.1672 131.817 45.5841 130.49 46.8933C130.15 47.2321 129.225 48.0022 129.024 48.6183C128.638 48.6645 128.253 48.6953 127.882 48.6799C124.457 49.142 120.97 49.3114 117.514 49.5424C111.465 49.9275 105.494 49.6194 99.4458 49.4962C93.3975 49.373 87.3183 48.6029 81.3317 47.7558C78.4155 47.34 75.5302 46.7393 72.614 46.385C71.2254 46.2156 69.8367 46.308 68.4635 46.4928C68.2012 46.5237 66.2108 47.0935 66.2263 47.1397C66.2108 47.0781 66.1337 47.1705 66.1491 47.2013C66.1491 47.2475 66.1491 47.2783 66.1645 47.3091C66.0874 47.3554 65.9948 47.3862 65.9177 47.4478C63.1712 49.2806 64.0044 54.317 64.4982 56.9507C65.1771 60.5548 66.5348 64.051 68.1704 67.3624C69.5436 70.4428 71.2562 73.3692 73.4009 75.9875C74.7587 77.7741 75.9468 78.6982 77.6132 80.2384C79.4493 81.948 81.7945 83.9965 83.9701 85.0284C88.5835 88.0626 93.6135 90.5885 98.6126 92.6061C106.497 95.7789 114.906 97.7658 123.315 98.9517C127.836 99.5832 132.388 99.845 136.939 100.107C141.522 100.369 145.904 100.43 150.455 99.7988C152.322 100.646 154.22 101.493 156.103 102.325C164.434 105.975 172.766 109.579 181.607 111.782C190.155 113.922 198.981 115.247 207.76 116.017C212.158 116.402 216.709 116.572 221.107 116.14C224.054 115.848 226.908 115.093 229.701 114.138C229.824 114.03 229.917 113.922 230.009 113.799C230.179 113.537 230.241 113.322 230.21 113.106C229.068 112.552 228.05 111.751 227.016 111.042C225.196 109.795 223.39 108.563 221.678 107.176C218.299 104.435 215.244 101.185 212.281 98.0122C209.257 94.7932 206.557 91.3432 203.841 87.8778C202.638 86.3376 201.403 84.8282 200.323 83.1802C199.752 82.3331 199.151 81.5014 198.549 80.6697C198.441 80.5156 198.333 80.3616 198.24 80.2076H198.317C198.225 80.1152 198.132 80.0228 198.04 79.9304C198.04 79.8842 198.055 79.838 198.055 79.8072C197.762 77.5585 197.855 75.8181 198.425 73.6156C198.626 72.8455 198.086 72.6145 197.453 72.5529C197.438 72.5529 197.407 72.5529 197.392 72.5529C197.407 72.5067 197.423 72.4605 197.423 72.4142C197.207 69.8113 197.021 67.2238 196.805 64.6209C196.543 61.4173 195.972 58.0905 196.589 54.8869C196.867 53.4699 197.685 52.3456 198.348 51.1134C198.657 50.5127 199.027 49.7889 198.95 49.0958C198.873 48.4181 198.209 48.033 197.7 47.6788C197.176 47.3091 196.636 47.0627 196.127 46.6623C195.046 45.8152 197.515 44.6292 197.901 44.3982C198.348 44.1364 199.058 43.4433 198.348 42.9812C197.993 42.7502 197.623 42.5962 197.253 42.3959C197.222 42.3805 195.201 41.5488 195.926 41.21C196.79 40.7941 197.747 40.5015 198.641 40.1627C199.814 39.7006 202.298 39.4234 202.931 38.0834C203.548 36.7897 201.666 35.6499 200.879 34.6334C201.388 34.6334 201.928 34.7104 202.36 34.7412C203.764 34.849 205.184 34.8336 206.588 34.9106C209.519 35.08 212.451 35.3419 215.382 35.5421C221.138 35.9579 226.908 34.8644 231.907 31.9381C236.567 29.2119 240.023 24.7916 243.649 20.9103C245.593 18.831 247.676 17.029 249.975 15.3502C251.225 14.4261 252.953 13.3326 254.743 12.6549C254.959 12.5317 255.19 12.4238 255.422 12.3314L255.406 12.2544Z" fill="#262626"/>
<path d="M144.67 99.7064C142.571 99.768 140.457 99.5832 138.359 99.4754C133.838 99.2597 129.317 98.9517 124.827 98.351C116.202 97.1959 107.639 95.1474 99.5232 92.0054C95.9127 90.6193 92.3485 88.9097 88.9077 86.9844C87.8431 86.43 86.8093 85.7985 85.791 85.1362C82.7514 83.2418 79.8507 81.1471 77.1814 78.8676C71.1948 73.7388 67.754 66.5461 65.3624 59.1532C64.6064 56.3962 64.2207 53.5469 64.5447 50.7745C65.4087 43.0736 75.5613 50.2971 78.4312 52.3763C87.2876 58.7835 95.2647 66.3459 104.137 72.7377C112.885 79.037 121.865 85.244 131.354 90.4036C137.233 93.6072 143.266 96.5336 149.36 99.3213C147.786 99.4446 146.228 99.6602 144.639 99.7064H144.67Z" fill="#303030"/>
<g style="mix-blend-mode:multiply">
<path d="M78.2766 69.4109C84.4484 75.9875 91.8082 81.486 99.7852 85.6907C114.119 93.253 130.166 96.9649 146.336 97.9044C141.275 95.5479 136.276 93.0682 131.369 90.4037C121.896 85.244 112.9 79.0371 104.152 72.7377C95.2798 66.3459 87.3028 58.7682 78.4463 52.3764C76.6256 51.0672 71.9197 47.7096 68.4635 47.3399C67.4143 55.6262 72.7837 63.5735 78.2612 69.4109H78.2766Z" fill="#303030"/>
</g>
<path d="M199.938 83.5498C200.925 85.2748 202.144 86.8766 203.394 88.4168C206.31 92.0209 209.041 95.6865 212.219 99.0903C215.197 102.279 218.283 105.436 221.662 108.193C223.251 109.487 224.918 110.657 226.631 111.766C227.479 112.305 228.343 113.044 229.284 113.568C225.674 114.692 222.017 115.509 218.144 115.57C212.806 115.663 207.483 115.262 202.19 114.6C191.313 113.214 180.527 111.165 170.251 107.253C160.114 103.387 150.193 98.8593 140.457 94.0693C130.675 89.2485 121.494 83.6114 112.499 77.4815C103.797 71.5671 95.6194 65.0675 87.4572 58.4447C83.8467 55.503 80.2517 52.5458 76.348 49.9891C74.5736 48.8339 72.0741 47.2167 69.6517 46.8009C71.0403 46.8009 72.4598 46.9857 73.7096 47.1859C76.5949 47.648 79.4493 48.1871 82.3501 48.5875C88.383 49.4038 94.4313 50.0507 100.51 50.1893C106.574 50.3279 112.545 50.5435 118.594 50.1123C122.189 49.8505 125.907 49.7118 129.502 49.0958C132.172 50.2663 134.548 52.1761 136.816 53.9782C139.825 56.3655 142.741 58.8606 145.796 61.1863C148.99 63.6198 152.446 65.5604 155.825 67.7167C162.29 71.829 169.758 74.8323 177.118 76.9116C183.644 78.7598 190.711 80.0998 197.531 80.1768C197.577 80.3154 197.7 80.3 197.808 80.2076C197.855 80.2846 197.901 80.3616 197.947 80.4386C198.626 81.4706 199.336 82.5025 199.953 83.5652L199.938 83.5498Z" fill="#666666"/>
<path d="M197.376 75.6795C197.13 76.9732 197.268 78.2208 197.438 79.4991C197.361 79.4991 197.268 79.4683 197.191 79.4529C191.251 79.2681 185.403 78.0206 179.586 76.7422C172.751 75.2328 166.07 72.3835 159.868 69.1645C153.326 65.7606 147.185 61.5251 141.476 56.8891C138.914 54.8099 136.384 52.4534 133.591 50.6822C132.743 50.1431 131.879 49.6194 130.968 49.1728C130.459 48.988 129.965 48.7877 129.472 48.5567C129.441 48.5567 129.394 48.5567 129.364 48.5567C129.657 48.1717 130.49 47.417 130.644 47.263C131.261 46.6007 131.956 46.0154 132.573 45.3531C133.884 43.9515 135.551 41.5797 137.186 43.8899C139.269 46.8625 141.8 49.4192 144.423 51.9143C146.984 54.3478 149.592 56.7197 152.569 58.6296C155.779 60.678 159.142 62.5108 162.599 64.0972C169.295 67.1622 176.624 68.841 183.829 70.2272C187.718 70.9819 191.56 71.7674 195.402 72.6607C196.019 72.7993 196.636 72.9225 197.253 73.0611C198.318 73.2768 197.484 75.0172 197.376 75.6333V75.6795Z" fill="#666666"/>
<path d="M245.362 18.1687C240.81 22.4967 237.199 27.7179 231.799 31.0909C225.504 35.0184 218.329 34.8182 211.232 34.2637C208.038 34.0173 204.828 33.9711 201.619 33.8171C199.675 33.7246 198.734 34.6025 198.657 36.497C198.657 36.574 198.688 36.6818 198.796 36.651C198.842 36.651 198.873 36.6202 198.904 36.6202C199.027 36.574 199.166 36.1889 198.981 36.2198C199.042 35.5421 199.428 35.0184 200.107 34.6796C200.231 34.6334 200.369 34.618 200.508 34.5871C200.801 35.157 201.403 35.7577 201.65 36.2198C201.866 36.6202 202.159 36.9744 202.375 37.3749C202.746 38.068 201.527 38.2836 201.141 38.4222C199.289 39.0999 197.037 39.5158 195.386 40.6555C194.552 41.2254 194.907 41.9955 195.694 42.3189C196.389 42.6115 199.444 43.1968 197.422 44.3366C196.851 44.66 196.034 44.9372 195.725 45.5687C195.015 47.0781 197.206 47.9406 198.101 48.7415C199.042 49.5886 196.99 52.2069 196.574 53.0848C196.111 54.0397 195.895 55.0717 195.725 56.1036C195.293 58.7835 195.833 61.6945 196.065 64.3744C196.281 67.0698 196.45 69.7959 196.929 72.445C194.907 72.1678 192.855 71.4593 190.88 70.9972C189.029 70.566 187.116 70.2887 185.249 69.9345C176.546 68.3173 167.89 66.1918 159.96 62.1874C156.087 60.2313 152.183 58.0134 148.866 55.1949C145.796 52.5766 142.864 49.758 140.133 46.7855C138.96 45.5071 138.081 43.7975 136.846 42.5961C137.032 42.2265 137.788 41.8877 138.019 41.6874C138.929 40.9019 139.809 40.101 140.688 39.2847C142.756 37.3749 144.823 35.4651 146.953 33.6168C151.18 29.9358 155.377 26.2393 159.697 22.6815C168.045 15.8122 177.241 10.0211 187.887 7.52601C193.426 6.23225 198.811 6.6635 204.211 8.31151C209.041 9.79009 213.623 11.9926 218.268 13.9332C222.896 15.8584 227.078 16.9828 232.139 16.3205C237.014 15.6736 241.705 13.887 246.38 12.4392C250.129 11.2841 253.693 10.8528 257.427 11.1609C255.715 11.3457 254.002 12.1774 252.536 12.9013C249.898 14.2258 247.522 16.1819 245.392 18.1995L245.362 18.1687Z" fill="#666666"/>
<path d="M258.739 10.6372C254.295 10.0057 250.222 10.5756 245.809 11.9156C240.81 13.4404 235.811 15.2732 230.565 15.7353C225.226 16.2127 220.598 14.0564 215.845 11.9772C211.247 9.95954 206.495 7.95729 201.604 6.77134C191.745 4.38405 181.608 7.88028 172.998 12.6395C163.895 17.6759 155.918 24.884 148.203 31.784C146.274 33.509 144.315 35.2187 142.401 36.9745C141.445 37.8678 140.488 38.7765 139.547 39.6852C138.621 40.5631 137.726 41.7029 136.631 42.3497C136.569 42.3035 136.523 42.2419 136.461 42.1957C135.859 41.7029 134.826 42.5808 134.44 42.935C133.051 44.1672 131.817 45.5841 130.49 46.8933C130.15 47.2321 129.225 48.0022 129.024 48.6183C128.638 48.6645 128.253 48.6953 127.882 48.6799C124.457 49.142 120.97 49.3114 117.514 49.5424C111.465 49.9275 105.494 49.6194 99.4459 49.4962C93.3975 49.373 87.3184 48.6029 81.3317 47.7558C78.4156 47.34 75.5303 46.7393 72.6141 46.385C71.2255 46.2156 69.8368 46.308 68.4636 46.4928C68.3093 46.5083 67.5687 46.7085 66.9824 46.8933C67.0132 46.9395 67.0441 47.0011 67.0904 47.0473C67.183 47.1551 67.291 47.2475 67.399 47.3246C70.8552 46.9087 76.4561 50.8978 78.4773 52.361C87.3338 58.7682 95.3108 66.3305 104.183 72.7223C112.931 79.0217 121.911 85.2286 131.4 90.3883C136.77 93.3146 142.262 95.9946 147.802 98.5667C147.833 98.5667 147.848 98.5667 147.879 98.5821C147.956 98.6129 148.033 98.6591 148.11 98.6899C148.157 98.6899 148.218 98.6899 148.265 98.7361C148.373 98.7823 148.481 98.8593 148.589 98.9055C149.53 99.3214 150.471 99.7218 151.381 100.215C152.955 100.923 154.513 101.632 156.087 102.309C164.419 105.96 172.751 109.564 181.592 111.766C190.14 113.907 198.966 115.232 207.745 116.002C212.142 116.387 216.694 116.556 221.091 116.125C224.038 115.832 226.893 115.078 229.686 114.123C229.809 114.015 229.902 113.907 229.994 113.784C230.164 113.522 230.226 113.306 230.195 113.091C229.053 112.536 228.035 111.735 227.001 111.027C225.18 109.779 223.375 108.547 221.662 107.161C218.283 104.419 215.228 101.17 212.266 97.9968C209.242 94.7778 206.541 91.3278 203.826 87.8624C202.622 86.3222 201.388 84.8128 200.308 83.1648C199.737 82.3177 199.135 81.486 198.534 80.6543C198.426 80.5002 198.318 80.3462 198.225 80.1922H198.302C198.21 80.0998 198.117 80.0074 198.024 79.915C198.024 79.8688 198.04 79.8226 198.04 79.7918C197.747 77.5431 197.839 75.8027 198.41 73.6002C198.611 72.8301 198.071 72.5991 197.438 72.5375C197.423 72.5375 197.392 72.5375 197.376 72.5375C197.392 72.4913 197.407 72.4451 197.407 72.3988C197.191 69.7959 197.006 67.2084 196.79 64.6055C196.528 61.4019 195.957 58.0751 196.574 54.8715C196.852 53.4545 197.67 52.3302 198.333 51.098C198.642 50.4973 199.012 49.7735 198.935 49.0804C198.858 48.4027 198.194 48.0176 197.685 47.6634C197.16 47.2937 196.62 47.0473 196.111 46.6469C195.031 45.7998 197.5 44.6138 197.886 44.3828C198.333 44.121 199.043 43.4279 198.333 42.9658C197.978 42.7348 197.608 42.5808 197.237 42.3805C197.207 42.3651 195.185 41.5334 195.911 41.1946C196.775 40.7787 197.731 40.4861 198.626 40.1473C199.799 39.6852 202.283 39.408 202.916 38.068C203.533 36.7742 201.65 35.6345 200.863 34.618C201.373 34.618 201.913 34.695 202.345 34.7258C203.749 34.8336 205.168 34.8182 206.572 34.8952C209.504 35.0646 212.435 35.3265 215.367 35.5267C221.122 35.9425 226.893 34.849 231.892 31.9226C236.552 29.1965 240.008 24.7762 243.634 20.8949C245.578 18.8156 247.661 17.0136 249.96 15.3348C251.21 14.4107 252.938 13.3172 254.728 12.6395C254.944 12.5163 255.175 12.4084 255.406 12.316C256.101 12.0388 256.749 11.931 257.474 11.8078C257.52 11.8078 259.742 11.3919 258.739 10.6988V10.6372Z" fill="#111111"/>
<path d="M199.938 83.5498C200.925 85.2748 202.144 86.8766 203.394 88.4168C206.31 92.0209 209.041 95.6865 212.219 99.0903C215.197 102.279 218.283 105.436 221.662 108.193C223.251 109.487 224.918 110.657 226.631 111.766C227.479 112.305 228.343 113.044 229.284 113.568C225.674 114.692 222.017 115.509 218.144 115.57C212.806 115.663 207.483 115.262 202.19 114.6C191.313 113.214 180.527 111.165 170.251 107.253C160.114 103.387 150.193 98.8593 140.457 94.0693C130.675 89.2485 121.494 83.6114 112.499 77.4815C103.797 71.5671 95.6194 65.0675 87.4572 58.4447C83.8467 55.503 80.2517 52.5458 76.348 49.9891C74.5736 48.8339 72.0741 47.2167 69.6517 46.8009C71.0403 46.8009 72.4598 46.9857 73.7096 47.1859C76.5949 47.648 79.4493 48.1871 82.3501 48.5875C88.383 49.4038 94.4313 50.0507 100.51 50.1893C106.574 50.3279 112.545 50.5435 118.594 50.1123C122.189 49.8505 125.907 49.7118 129.502 49.0958C132.172 50.2663 134.548 52.1761 136.816 53.9782C139.825 56.3655 142.741 58.8606 145.796 61.1863C148.99 63.6198 152.446 65.5604 155.825 67.7167C162.29 71.829 169.758 74.8323 177.118 76.9116C183.644 78.7598 190.711 80.0998 197.531 80.1768C197.577 80.3154 197.7 80.3 197.808 80.2076C197.855 80.2846 197.901 80.3616 197.947 80.4386C198.626 81.4706 199.336 82.5025 199.953 83.5652L199.938 83.5498Z" fill="#555555"/>
<g style="mix-blend-mode:screen">
<path d="M83.4764 52.8846C81.9181 51.2212 80.3288 49.3884 78.4927 47.9868C76.9035 47.725 75.3143 47.4478 73.7096 47.1859C72.4598 46.9857 71.0557 46.8009 69.6517 46.8009C72.0741 47.2167 74.5891 48.8185 76.348 49.9891C80.2517 52.5458 83.8313 55.5184 87.4572 58.4447C88.599 59.3842 89.7562 60.3084 90.9134 61.2325C88.4756 58.4139 86.0377 55.5954 83.4764 52.8846Z" fill="#555555"/>
</g>
<g style="mix-blend-mode:screen">
<path d="M82.1187 49.219C90.2346 52.2224 98.7362 53.5007 107.377 53.6547C115.307 53.8088 124.087 53.4699 131.4 50.0507C130.783 49.6965 130.15 49.3576 129.502 49.0804C125.907 49.6811 122.189 49.8351 118.594 50.0969C112.53 50.5436 106.559 50.3125 100.511 50.1739C94.4314 50.0353 88.383 49.3884 82.3501 48.5721C81.2238 48.4181 80.1129 48.2487 79.0019 48.0639C80.082 48.4489 81.1158 48.8494 82.1187 49.219Z" fill="#555555"/>
</g>
<g style="mix-blend-mode:multiply" opacity="0.5">
<path d="M226.63 111.766C224.918 110.673 223.236 109.487 221.662 108.193C218.283 105.436 215.197 102.279 212.219 99.0903C209.041 95.6865 206.31 92.0209 203.394 88.4168C202.144 86.8766 200.94 85.2594 199.938 83.5498C199.32 82.4717 198.611 81.4552 197.932 80.4232C197.885 80.3462 197.839 80.2692 197.793 80.1922C197.685 80.2846 197.561 80.3 197.515 80.1614C190.695 80.0844 183.629 78.7444 177.102 76.8962C169.742 74.8169 162.274 71.8136 155.809 67.7013C152.43 65.5604 148.974 63.6044 145.78 61.1709C142.725 58.8298 139.809 56.3501 136.8 53.9628C135.134 52.6382 133.406 51.252 131.554 50.1431C138.05 59.0608 146.212 66.6847 155.578 72.6453C158.942 74.7861 162.351 76.8346 165.576 79.1911C168.045 80.9931 170.02 83.596 171.717 86.0911C173.492 88.7095 175.189 91.4202 176.67 94.2079C177.889 96.5182 179.046 98.9517 179.293 101.57C179.308 101.755 179.108 101.909 178.938 101.909C171.517 101.724 164.218 98.4589 157.244 96.164C137.695 89.726 119.411 79.5299 102.208 68.3635C95.6656 64.128 89.679 59.184 83.3066 54.7175C82.0568 53.8395 80.7762 52.9616 79.4493 52.1607C82.1803 54.163 84.8033 56.3193 87.4417 58.4447C95.6039 65.0675 103.781 71.5671 112.484 77.4815C121.479 83.6114 130.675 89.2485 140.442 94.0693C150.178 98.8593 160.099 103.403 170.236 107.253C180.512 111.165 191.297 113.214 202.175 114.6C207.467 115.278 212.79 115.678 218.129 115.57C222.002 115.493 225.658 114.677 229.269 113.568C228.328 113.044 227.448 112.305 226.615 111.766H226.63Z" fill="#555555"/>
</g>
<g style="mix-blend-mode:multiply" opacity="0.5">
<path d="M226.63 111.766C224.918 110.673 223.236 109.487 221.662 108.193C218.283 105.436 215.197 102.279 212.219 99.0903C209.041 95.6865 206.31 92.0208 203.394 88.4168C202.144 86.8766 200.94 85.2594 199.938 83.5498C199.32 82.4717 198.611 81.4551 197.932 80.4232C197.885 80.3462 197.839 80.2692 197.793 80.1922C197.685 80.2846 197.561 80.3 197.515 80.1614C190.695 80.0844 183.629 78.7444 177.102 76.8962C169.742 74.8169 162.274 71.8136 155.809 67.7012C152.43 65.5604 148.974 63.6043 145.78 61.1708C145.441 60.909 145.101 60.6318 144.762 60.3699C150.131 65.5142 156.118 69.9807 162.706 73.5386C170.73 77.8665 179.663 80.7621 186.792 86.6148C190.788 89.88 193.858 94.0077 197.16 97.9352C198.595 99.6294 200.184 101.093 201.697 102.694C202.715 103.772 204.026 105.143 204.227 106.699C204.597 109.564 202.19 111.165 199.737 111.936C197.608 112.582 195.386 112.983 193.164 113.245C196.173 113.753 199.182 114.2 202.206 114.585C207.498 115.262 212.821 115.663 218.16 115.555C222.033 115.478 225.689 114.662 229.3 113.553C228.359 113.029 227.479 112.29 226.646 111.751L226.63 111.766Z" fill="#555555"/>
</g>
<path d="M197.376 75.6795C197.13 76.9732 197.268 78.2208 197.438 79.4991C197.361 79.4991 197.268 79.4683 197.191 79.4529C191.251 79.2681 185.403 78.0206 179.586 76.7422C172.751 75.2328 166.07 72.3835 159.868 69.1645C153.326 65.7606 147.185 61.5251 141.476 56.8891C138.914 54.8099 136.384 52.4534 133.591 50.6822C132.743 50.1431 131.879 49.6194 130.968 49.1728C130.459 48.988 129.965 48.7877 129.472 48.5567C129.441 48.5567 129.394 48.5567 129.364 48.5567C129.657 48.1717 130.49 47.417 130.644 47.263C131.261 46.6007 131.956 46.0154 132.573 45.3531C133.884 43.9515 135.551 41.5797 137.186 43.8899C139.269 46.8625 141.8 49.4192 144.423 51.9143C146.984 54.3478 149.592 56.7197 152.569 58.6296C155.779 60.678 159.142 62.5108 162.599 64.0972C169.295 67.1622 176.624 68.841 183.829 70.2272C187.718 70.9819 191.56 71.7674 195.402 72.6607C196.019 72.7993 196.636 72.9225 197.253 73.0611C198.318 73.2768 197.484 75.0172 197.376 75.6333V75.6795Z" fill="#9858A2"/>
<g style="mix-blend-mode:screen">
<path d="M147.941 60.3392C144.623 57.3666 141.599 54.1168 138.328 51.098C136.338 49.2498 133.946 47.3092 131.292 46.6315C131.061 46.8471 130.83 47.0781 130.613 47.3092C130.475 47.4632 129.641 48.2025 129.333 48.6029C129.364 48.6029 129.41 48.6029 129.441 48.6029C129.935 48.834 130.428 49.0342 130.938 49.219C131.832 49.6657 132.712 50.1739 133.561 50.7284C136.353 52.4996 138.884 54.8561 141.445 56.9354C146.043 60.678 150.934 64.1434 156.087 67.1314C153.279 65.006 150.564 62.7419 147.941 60.3854V60.3392Z" fill="#9858A2"/>
</g>
<g style="mix-blend-mode:multiply">
<path d="M197.253 73.1227C196.636 72.9995 196.019 72.8609 195.402 72.7223C191.544 71.829 187.702 71.0435 183.829 70.2888C176.624 68.9026 169.295 67.2238 162.599 64.1588C160.531 63.2039 158.494 62.1566 156.489 61.0323C160.346 64.6979 164.635 67.8707 169.31 70.6584C172.319 72.4451 175.22 74.4319 178.121 76.4033C178.614 76.5266 179.093 76.6498 179.586 76.7576C185.403 78.0514 191.251 79.2835 197.191 79.4683C197.268 79.4837 197.361 79.4991 197.438 79.5145C197.269 78.2362 197.13 77.004 197.377 75.6949C197.485 75.0788 198.318 73.3538 197.253 73.1227Z" fill="#9858A2"/>
</g>
<path d="M252.506 12.8705C249.867 14.195 247.491 16.1511 245.362 18.1687C240.81 22.4967 237.2 27.7179 231.8 31.0909C225.504 35.0184 218.33 34.8182 211.232 34.2637C208.038 34.0173 204.829 33.9711 201.62 33.8171C199.676 33.7246 198.734 34.6025 198.657 36.497C198.657 36.574 198.688 36.6818 198.796 36.651C198.842 36.651 198.873 36.6202 198.904 36.6202C199.028 36.574 199.166 36.1889 198.981 36.2198C199.043 35.5421 199.429 35.0184 200.108 34.6796C200.231 34.6334 200.37 34.618 200.509 34.5871C200.802 35.157 201.404 35.7577 201.651 36.2198C201.867 36.6202 202.16 36.9744 202.376 37.3749C202.746 38.068 201.527 38.2836 201.141 38.4222C199.29 39.0999 197.037 39.5158 195.386 40.6555C194.553 41.2254 194.908 41.9955 195.695 42.3189C196.389 42.6115 199.444 43.1968 197.423 44.3366C196.852 44.66 196.034 44.9372 195.726 45.5687C195.016 47.0781 197.207 47.9406 198.102 48.7415C199.043 49.5886 196.991 52.2069 196.574 53.0848C196.111 54.0397 195.895 55.0717 195.726 56.1036C195.294 58.7835 195.834 61.6945 196.065 64.3744C196.281 67.0698 196.451 69.7959 196.929 72.445C194.908 72.1678 192.856 71.4593 190.881 70.9972C189.029 70.566 187.116 70.2887 185.249 69.9345C176.547 68.3173 167.891 66.1918 159.96 62.1874C156.087 60.2313 152.184 58.0134 148.866 55.1949C145.796 52.5766 142.864 49.758 140.133 46.7855C138.961 45.5071 138.081 43.7975 136.847 42.5961C137.032 42.2265 137.788 41.8877 138.02 41.6874C138.93 40.9019 139.809 40.101 140.689 39.2847C142.756 37.3749 144.824 35.4651 146.953 33.6168C151.181 29.9358 155.378 26.2393 159.698 22.6815C168.045 15.8122 177.241 10.0211 187.887 7.52601C193.427 6.23225 198.812 6.6635 204.212 8.31151C209.041 9.79009 213.624 11.9926 218.268 13.9332C222.897 15.8584 227.078 16.9828 232.139 16.3205C237.015 15.6736 241.705 13.887 246.38 12.4392C250.13 11.2841 253.694 10.8528 257.428 11.1609C255.715 11.3457 254.003 12.1774 252.537 12.9013L252.506 12.8705Z" fill="#555555"/>
<g style="mix-blend-mode:screen">
<path d="M138.529 41.1946C138.359 41.3486 138.174 41.5027 138.004 41.6567C137.773 41.8569 137.016 42.1957 136.831 42.5654C138.066 43.7667 138.945 45.4917 140.118 46.7547C142.849 49.7273 145.78 52.5612 148.851 55.1641C150.332 56.4271 151.937 57.5668 153.603 58.6142C147.601 53.7626 142.463 47.8328 138.513 41.1792L138.529 41.1946Z" fill="#555555"/>
</g>
<g style="mix-blend-mode:screen">
<path d="M148.635 34.6026C152.338 30.8291 156.21 27.2251 160.376 23.9753C168.523 17.6143 177.318 11.8232 187.038 8.15754C188.088 7.75709 189.152 7.40284 190.217 7.0486C189.43 7.17181 188.643 7.31043 187.856 7.49525C177.21 9.99036 168.014 15.7815 159.667 22.6507C155.346 26.2086 151.134 29.905 146.922 33.5861C144.793 35.4343 142.725 37.3441 140.658 39.254C139.778 40.0703 138.899 40.8866 137.988 41.6567C137.757 41.8569 137.001 42.1957 136.816 42.5654C137.525 43.2585 138.112 44.1056 138.714 44.9527C142.154 41.6413 145.271 38.0064 148.619 34.6026H148.635Z" fill="#555555"/>
</g>
<g style="mix-blend-mode:multiply" opacity="0.5">
<path d="M246.349 12.4084C241.674 13.8562 236.984 15.6428 232.108 16.2897C227.047 16.952 222.881 15.8431 218.237 13.9024C213.593 11.9618 209.01 9.75931 204.181 8.28072C202.699 7.83407 201.218 7.47983 199.752 7.21799C202.453 8.38854 204.937 10.0519 207.205 12.0388C209.118 13.7176 210.923 15.5196 212.821 17.1984C214.688 18.8618 217.049 21.2029 219.61 21.6804C224.362 22.5737 228.713 19.2007 233.311 18.6C233.62 18.5538 233.821 18.831 233.682 19.1083C231.506 23.8212 226.337 27.1635 221.801 29.3197C219.363 30.4749 216.925 31.2758 214.194 31.3066C210.846 31.3374 207.56 30.6905 204.242 30.367C201.172 30.0744 196.759 29.7048 194.059 31.5838C192.963 32.3385 192.408 33.278 192.115 34.5718C192.022 34.9568 191.775 35.2032 191.513 35.4805C190.973 36.0966 189.615 36.266 188.875 36.3584C183.12 37.0669 177.225 36.5124 171.424 36.9283C177.318 40.0086 184.693 39.7468 189.908 44.198C190.032 44.3058 190.032 44.4906 189.955 44.6138C188.89 46.539 186.776 47.8174 185.125 49.1882C184.169 49.9891 183.011 50.867 182.41 51.9913C181.685 53.3467 182.317 54.317 183.351 55.2411C186.946 58.4447 180.975 62.2798 178.306 63.2809C173.522 65.0675 168.199 64.8981 163.262 63.6968C170.267 66.7309 177.735 68.5022 185.233 69.9037C187.1 70.258 189.014 70.5352 190.865 70.9665C192.84 71.4285 194.892 72.137 196.913 72.4142C196.42 69.7497 196.265 67.0236 196.049 64.3436C195.833 61.6637 195.278 58.7682 195.71 56.0728C195.88 55.0409 196.096 54.009 196.559 53.054C196.975 52.1761 199.027 49.5578 198.086 48.7107C197.191 47.9252 195 47.0627 195.71 45.5379C196.003 44.9064 196.836 44.6292 197.407 44.3058C199.444 43.166 196.373 42.5808 195.679 42.2881C194.892 41.9647 194.537 41.1946 195.37 40.6247C197.006 39.485 199.274 39.0691 201.126 38.3914C201.511 38.2528 202.73 38.0526 202.36 37.3441C202.144 36.9437 201.851 36.5894 201.635 36.189C201.388 35.7269 200.786 35.1108 200.493 34.5564C200.354 34.5718 200.215 34.6026 200.092 34.6488C199.413 35.003 199.043 35.5113 198.966 36.189C199.151 36.1582 199.012 36.5432 198.888 36.5894C198.858 36.5894 198.811 36.6202 198.78 36.6202C198.672 36.651 198.641 36.5432 198.641 36.4662C198.719 34.5718 199.66 33.6939 201.604 33.7863C204.813 33.9249 208.007 33.9711 211.216 34.2329C218.314 34.7874 225.504 34.9876 231.784 31.0601C237.184 27.6871 240.795 22.4659 245.346 18.1379C247.476 16.1203 249.852 14.1643 252.49 12.8397C253.956 12.1004 255.669 11.2841 257.381 11.0993C253.647 10.7912 250.083 11.2225 246.334 12.3776L246.349 12.4084Z" fill="#555555"/>
</g>
</g>
<defs>
<filter id="filter0_d_56_7437" x="0" y="0" width="269" height="173.953" filterUnits="userSpaceOnUse" color-interpolation-filters="sRGB">
<feFlood flood-opacity="0" result="BackgroundImageFix"/>
<feColorMatrix in="SourceAlpha" type="matrix" values="0 0 0 0 0 0 0 0 0 0 0 0 0 0 0 0 0 0 127 0" result="hardAlpha"/>
<feOffset dy="4"/>
<feGaussianBlur stdDeviation="5"/>
<feComposite in2="hardAlpha" operator="out"/>
<feColorMatrix type="matrix" values="0 0 0 0 1 0 0 0 0 1 0 0 0 0 1 0 0 0 1 0"/>
<feBlend mode="normal" in2="BackgroundImageFix" result="effect1_dropShadow_56_7437"/>
<feBlend mode="normal" in="SourceGraphic" in2="effect1_dropShadow_56_7437" result="shape"/>
</filter>
</defs>
</svg>
