<svg width="349" height="103" viewBox="0 0 349 103" fill="none" xmlns="http://www.w3.org/2000/svg">
<path d="M178.928 2.39636C162.069 7.43111 146.788 19.9947 142.497 35.9121C132.873 32.1224 122.096 29.9902 112.187 32.959C102.279 35.9238 93.7445 45.1101 94.1805 55.4403C85.3503 53.5571 76.3527 51.6623 67.3668 52.5299C58.7507 53.3626 49.3521 57.3468 44.2245 64.6382C42.6243 66.9144 41.6354 69.7625 42.1533 72.4977C35.2503 67.8092 26.0463 66.7237 17.9092 67.6614C13.2176 68.2022 8.45993 69.5757 4.87023 72.6378C1.27664 75.6999 -0.903678 80.7191 0.365564 85.2636C2.58868 93.2048 12.7388 95.2125 20.9733 95.7572C36.2081 96.7649 51.439 97.7727 66.6738 98.7765C108.929 101.57 151.452 104.36 193.54 99.6558C196.981 99.2706 200.999 98.4302 202.42 95.2747C203.736 92.3488 201.922 88.777 199.22 87.0456C196.518 85.3103 193.185 84.9562 189.993 84.645C209.277 84.6722 228.561 84.6955 247.848 84.7228C263.282 84.7422 278.715 84.7656 294.148 84.5866C310.361 84.3998 326.927 83.9329 342.134 78.3106C345.089 77.2173 348.36 75.4781 348.921 72.381C349.462 69.3967 347.021 66.5253 344.167 65.502C341.309 64.4787 338.167 64.8444 335.158 65.218C342.835 64.8561 345.529 53.2381 340.378 47.538C335.228 41.8379 326.327 41.4099 318.868 43.258C311.408 45.1101 304.423 48.7791 296.819 49.888C291.256 39.3244 279.957 31.5271 267.962 30.8929C260.806 30.5155 235.588 35.0017 233.47 44.009C237.508 26.827 225.535 8.25599 208.899 2.33412C199.691 -0.941975 189.031 -0.626834 178.936 2.38857L178.928 2.39636Z" fill="white"/>
<path d="M44.2284 64.6343C42.6282 66.9105 41.6394 69.7586 42.1572 72.4938C35.2542 67.8054 26.0502 66.7198 17.9131 67.6575C13.2216 68.1983 8.46384 69.5718 4.87414 72.6339C1.28055 75.696 -0.899767 80.7152 0.369475 85.2597C2.5926 93.2009 12.7427 95.2086 20.9772 95.7533C36.212 96.761 51.4429 97.7688 66.6777 98.7726C108.933 101.566 151.456 104.356 193.544 99.6519C196.985 99.2668 201.003 98.4263 202.424 95.2709C203.74 92.3449 201.926 88.7731 199.224 87.0417C196.522 85.3064 193.189 84.9523 189.997 84.6411C209.281 84.6683 228.565 84.6916 247.852 84.7189C263.286 84.7383 278.719 84.7617 294.152 84.5827C310.364 84.3959 326.931 83.929 342.138 78.3068C345.093 77.2134 348.364 75.4742 348.924 72.3771C349.466 69.3928 347.025 66.5214 344.171 65.4981C341.313 64.4748 338.171 64.8405 335.161 65.2141C342.839 64.8522 345.533 53.2342 340.382 47.5341C335.231 41.834 326.331 41.406 318.871 43.2541C311.412 45.1062 304.427 48.7752 296.823 49.8841C294.499 45.4719 291.166 41.5538 287.207 38.4256C282.429 47.8804 274.814 55.9227 265.501 60.9964C252.594 68.0271 234.903 68.7431 221.07 63.7822C226.929 58.0277 231.414 50.7284 233.875 42.9039C233.708 43.2658 233.567 43.6315 233.478 44.0051C234.977 37.6357 234.268 31.0797 231.944 25.045C229.565 33.5387 226.279 41.7717 220.758 48.5768C213.513 57.5063 201.583 63.4787 190.417 60.7279C185.383 59.4867 180.874 56.6036 177.036 53.1213C165.036 42.2269 159.916 24.0528 164.487 8.8357C153.928 15.2595 145.519 24.7532 142.509 35.9043C142.509 35.9043 142.505 35.9043 142.501 35.9043C142.536 46.7092 147.045 57.5258 155.011 64.8717C138.086 70.1632 118.292 69.8831 101.516 64.1363C106.515 70.7819 113.702 75.7622 121.683 78.1122C104.802 84.073 85.763 83.6995 69.1266 77.085C64.4974 75.2447 59.6579 72.5094 58.0149 67.8093C56.3485 63.043 58.6301 57.6152 62.2976 54.1485C62.6831 53.7828 63.0841 53.4404 63.4929 53.1174C56.0604 54.6271 48.6007 58.4323 44.2401 64.6343H44.2284Z" fill="#F5FBFF"/>
<path d="M335.154 65.2219C342.832 64.86 345.526 53.2419 340.375 47.5419C335.224 41.8418 326.324 41.4138 318.864 43.2619C321.336 43.2736 324.42 43.5732 326.592 44.7521C328.765 45.931 330.54 48.0243 330.875 50.4756C331.054 51.7868 330.824 53.1291 330.412 54.3858C328.574 59.9926 323.318 63.8834 317.778 65.93C309.473 68.9999 300.359 68.6964 291.513 68.354C306.148 70.3033 320.406 65.9183 335.15 65.2219H335.154Z" fill="#DFF2FD"/>
<path d="M199.22 87.0456C201.922 88.7809 203.736 92.3488 202.42 95.2747C200.999 98.4302 196.981 99.2745 193.54 99.6558C151.452 104.356 108.933 101.57 66.6738 98.7765C51.439 97.7688 36.2081 96.761 20.9733 95.7572C12.7388 95.2125 2.5887 93.2087 0.365574 85.2636C-0.907561 80.7191 1.27665 75.6999 4.87024 72.6378C3.19998 75.9139 4.63664 79.9448 7.15566 82.6256C9.67467 85.3103 13.2176 86.7694 16.7256 87.8821C32.7196 92.9519 49.8855 92.2982 66.6504 91.5979C61.3048 90.8664 56.3953 87.4386 53.8723 82.6723C75.1263 92.1348 99.0784 92.9208 122.337 93.555C136.47 93.9402 150.786 94.3098 164.561 91.1193C157.958 91.236 151.335 89.2167 145.927 85.4309C163.868 89.1194 181.521 91.7457 199.22 87.0495V87.0456Z" fill="#DFF2FD"/>
<path d="M189.992 84.6449C209.276 84.6722 228.56 84.6955 247.848 84.7228C263.281 84.7422 278.715 84.7656 294.148 84.5866C310.36 84.3998 326.927 83.9329 342.134 78.3106C345.089 77.2173 348.36 75.4781 348.92 72.381C349.461 69.3967 347.02 66.5253 344.166 65.502C344.237 67.8598 342.181 69.8247 340.184 71.0854C338.186 72.346 335.823 72.8674 333.506 73.3226C307.378 78.4741 280.537 78.3729 253.91 78.2523C243.53 78.2056 232.458 77.9566 223.865 72.1359C213.855 79.4079 202.373 84.4037 190 84.641L189.992 84.6449Z" fill="#DFF2FD"/>
</svg>
