<svg width="405" height="274" viewBox="0 0 405 274" fill="none" xmlns="http://www.w3.org/2000/svg">
<g filter="url(#filter0_d_57_8036)">
<rect x="3" y="3" width="395" height="264" rx="16" fill="#EFD5D5"/>
<rect x="3.5" y="3.5" width="394" height="263" rx="15.5" stroke="#E5B4B4"/>
</g>
<g filter="url(#filter1_d_57_8036)">
<path d="M299.69 152.95C301.46 144.73 297.91 134.63 293.16 130.18C288.4 125.73 281.24 124.03 274.99 125.86C273.4 126.33 271.84 127.02 270.58 128.11C269.16 129.34 268.19 131 267.47 132.73C264.69 139.41 265.59 147.5 269.77 153.41C273.95 159.32 281.28 162.86 288.51 162.46C291.18 162.31 293.93 161.61 295.97 159.88C298.05 158.13 299.11 155.65 299.68 152.95H299.69Z" fill="#BC5724"/>
<path d="M266.929 147.01C266.879 147.73 266.769 148.43 266.609 149.14C266.079 151.51 265.049 153.76 263.959 155.93C262.099 159.57 259.839 163.26 256.259 165.23C253.509 166.75 250.299 167.07 247.119 166.91C246.739 166.9 246.369 166.87 245.989 166.84C245.579 166.81 245.159 166.77 244.749 166.73C242.029 166.42 238.719 165.31 238.399 162.58C238.269 161.5 238.689 160.51 239.399 159.68C240.199 158.74 241.389 158.02 242.569 157.61C243.479 157.29 244.439 157.06 245.379 156.81C246.719 156.45 248.029 156.03 249.139 155.21C251.349 153.59 252.259 150.74 252.599 148.03C252.849 144.21 253.529 140.76 255.219 138.81C257.289 136.44 261.319 136.52 263.759 138.51C266.199 140.5 267.179 143.9 266.939 147.03L266.929 147.01Z" fill="#BC5724"/>
<path d="M301.48 164.24C301.54 166.66 299.42 168.71 297.08 169.36C294.74 170 292.26 169.56 289.89 169.03C287.53 168.5 285.11 167.88 282.71 168.21C280.39 168.53 278.26 169.71 276.01 170.4C273.77 171.09 271.08 171.22 269.3 169.68C267.34 167.99 267.29 164.74 268.77 162.61C268.89 162.43 269.03 162.26 269.16 162.1C270.69 160.31 273.09 159.39 275.45 159.19C275.85 159.16 276.24 159.15 276.65 159.15C276.9 159.15 277.15 159.15 277.39 159.16C277.39 159.16 281.8 159.43 285.81 158.39C289.08 157.61 292.57 157.67 295.8 158.64C297.46 159.14 299.16 160.05 300.26 161.33C300.98 162.15 301.44 163.13 301.47 164.24H301.48Z" fill="#AA4A1A"/>
<g opacity="0.3">
<path d="M301.48 164.24C301.54 166.66 299.42 168.71 297.08 169.36C294.74 170 292.26 169.56 289.89 169.03C287.53 168.5 285.11 167.88 282.71 168.21C280.39 168.53 278.26 169.71 276.01 170.4C273.77 171.09 271.08 171.22 269.3 169.68C267.34 167.99 267.29 164.74 268.77 162.61C268.89 162.43 269.03 162.26 269.16 162.1C269.24 162.65 269.46 163.17 269.79 163.6C271.34 165.54 274.28 165.69 276.69 165.09C279.1 164.49 281.41 163.32 283.88 163.16C286.66 162.98 289.47 164.11 292.16 163.42C293.57 163.05 295.06 163.34 296.43 162.85C297.73 162.39 298.9 161.14 300.26 161.33C300.98 162.15 301.44 163.13 301.47 164.24H301.48Z" fill="#700707"/>
</g>
<path d="M266.61 149.14C266.08 151.51 265.05 153.76 263.96 155.93C262.12 159.53 259.89 163.17 256.38 165.15C256.35 165.18 256.31 165.2 256.27 165.22C255.35 165.73 254.37 166.1 253.37 166.36C251.37 166.91 249.24 167.01 247.13 166.91C246.75 166.9 246.38 166.87 246 166.84C245.59 166.81 245.17 166.77 244.76 166.73C244.19 166.67 243.6 166.56 243.02 166.42C242.68 166.34 242.35 166.24 242.03 166.13C241.35 165.9 240.71 165.61 240.15 165.23C239.83 165.01 239.53 164.77 239.28 164.48C238.88 164.03 238.58 163.48 238.46 162.84C238.43 162.76 238.42 162.67 238.41 162.58C238.36 162.14 238.39 161.71 238.51 161.3C238.66 160.71 238.98 160.16 239.41 159.68C240.21 158.74 241.4 158.02 242.58 157.61C243.49 157.29 244.45 157.06 245.39 156.81C245.25 156.93 244.14 157.97 244.14 159.12C244.14 160.04 244.83 161.02 247.25 161.67C250.28 162.08 253.35 161.92 256.05 160.55C261.02 158.02 263.36 151.3 261.02 146.24L264.25 140.39L266.62 149.16L266.61 149.14Z" fill="url(#paint0_linear_57_8036)"/>
<path d="M335.85 148.82C331.57 152.41 325.51 153.74 320.11 152.34C319.93 152.29 319.77 152.25 319.6 152.2C316.29 151.21 313.16 149.08 311.76 145.92L313.23 144.35C317.63 146.52 321.07 146.81 323.78 146.13C323.78 146.13 332.64 144.66 332.62 135.41C332.62 135.3 332.63 135.18 332.63 135.06C332.63 134.59 332.59 134.11 332.52 133.63C332.23 131.69 331.41 129.8 330.15 128.31C327.56 125.2 323.49 123.6 319.47 123.3C323.08 119.65 329.14 118.94 333.75 121.2C337.83 123.2 340.69 127.25 341.7 131.68C341.84 132.27 341.94 132.86 342.01 133.45C342.66 139.17 340.27 145.14 335.86 148.83L335.85 148.82Z" fill="#D56A2C"/>
<g opacity="0.8">
<path d="M335.85 148.82C331.57 152.41 325.51 153.74 320.11 152.34L320.19 148.14C324.88 150.33 330.75 149.11 334.75 145.81C338.75 142.52 341 137.42 341.62 132.28C341.64 132.07 341.67 131.87 341.68 131.66C341.82 132.25 341.92 132.84 341.99 133.43C342.64 139.15 340.25 145.12 335.84 148.81L335.85 148.82Z" fill="#913A13"/>
</g>
<path d="M249.06 59.4599C248.5 66.2699 246.17 73.83 240.64 77.84C239.88 78.4 239.05 78.8799 238.19 79.2799C232.83 81.8399 226.01 81.5199 221.7 77.5099C221.37 77.1999 221.04 76.8599 220.86 76.4399C220.28 75.0799 221.43 73.64 222.49 72.61C226.21 69 230.24 65.27 231.68 60.29C232.29 58.22 232.41 55.9899 233.37 54.0499C234.33 52.1099 236.55 50.5099 238.58 51.2399C239.43 51.5399 240.09 52.1799 240.7 52.8299C242.29 54.5299 243.83 56.4799 245.66 57.84C246.67 58.5999 247.79 59.1899 249.04 59.4599H249.06Z" fill="#CC5C2B"/>
<path opacity="0.5" d="M246.69 58.51C243.35 61.1 241.5 66.18 241.34 66.63C240.55 69.59 239.94 73.57 240.54 77.92C240.58 77.89 240.6 77.87 240.65 77.83C246.18 73.83 248.51 66.26 249.07 59.45C248.22 59.27 247.43 58.93 246.7 58.5L246.69 58.51Z" fill="#700707"/>
<path d="M254.81 109.25C253.99 109.13 253.18 108.98 252.36 108.82C245.42 107.41 238.66 104.38 233.79 99.17C233.55 98.92 233.34 98.68 233.12 98.44C233.08 98.39 233.03 98.34 232.99 98.29C230.76 95.67 228.69 91.67 230.39 88.28C231.23 86.63 232.76 85.75 234.34 84.9C235.2 84.44 236.06 83.98 236.83 83.4C237.02 83.28 237.2 83.13 237.38 82.98C237.44 82.94 237.49 82.9 237.53 82.85C238.85 81.63 239.6 80 240.08 78.25C240.19 77.87 240.28 77.5 240.37 77.1C240.67 75.7 240.85 74.26 241.07 72.92C241.1 72.69 241.13 72.48 241.17 72.26C241.79 68.69 242.86 65.15 244.53 61.92C245.17 60.69 245.88 59.57 246.69 58.54C247.41 57.59 248.21 56.71 249.06 55.93H249.07C251.4 53.75 254.19 52.18 257.39 51.25C258.13 51.03 258.9 50.85 259.68 50.69C262.75 50.08 265.97 49.97 269.15 50.27C272.01 50.53 274.84 51.13 277.51 52.01C277.69 52.07 277.86 52.12 278.04 52.2C278.22 52.26 278.4 52.31 278.58 52.39C281.54 53.47 284.22 55.28 286.6 57.35C286.76 57.49 286.94 57.64 287.11 57.79C289.84 60.21 292.51 62.79 294.11 66.13C294.24 66.4 294.37 66.68 294.48 66.96C294.57 67.18 294.66 67.38 294.74 67.6C294.77 67.66 294.79 67.71 294.81 67.78C294.88 67.98 294.96 68.17 295.03 68.38C295.05 68.42 295.07 68.46 295.08 68.5C296.5 72.56 296.76 76.96 296.2 81.26C296.13 81.8 296.05 82.33 295.95 82.87C295.56 85.17 294.93 87.41 294.12 89.56C291.71 96.04 287.46 101.88 281.56 105.46C281.56 105.46 281.55 105.46 281.55 105.47L254.82 109.28L254.81 109.25Z" fill="#DD6B31"/>
<path d="M318.62 160.16H318.61L318.33 159.9L313.91 156.09L313.81 156.01C309.23 160.65 303.51 162.4 297.61 162.49C297.33 162.49 297.06 162.5 296.78 162.49C295.92 162.49 295.06 162.44 294.19 162.38C290.19 162.05 286.18 161.07 282.49 159.83C271.02 156.09 263.47 151.34 259.24 148.07C257.61 147.01 256.22 145.76 255.03 144.37C255 144.33 254.97 144.31 254.97 144.31C251.64 140.33 250.07 135.22 250.03 129.76V128.81C250.06 125.5 250.39 122.14 251.6 119.09C252.99 115.56 254.24 113.49 254.66 111.14V111.12C254.76 110.52 254.81 109.91 254.8 109.25C254.79 108.96 254.77 108.66 254.74 108.35C254.71 108.06 254.67 107.75 254.62 107.44C253.04 104.67 254.65 101.15 257.04 99.4299C259.79 97.4499 263.47 97.0999 266.76 97.0399C270.33 96.9799 274.09 97.5599 276.98 99.8099C277.05 99.8699 277.12 99.9199 277.2 99.9999C278.48 101.04 279.5 102.32 280.42 103.69C280.81 104.27 281.18 104.86 281.54 105.44C281.95 106.09 282.34 106.74 282.76 107.38C283.21 108.1 283.7 108.78 284.2 109.44C285.79 111.47 287.65 113.19 289.92 114.57C290.56 114.95 291.21 115.31 291.87 115.64C294.2 116.83 296.66 117.74 299.11 118.63C299.24 118.67 299.38 118.72 299.5 118.77C304.22 120.64 315.01 125.73 319.47 134.46C321.92 139.7 324.27 148.97 318.61 160.14L318.62 160.16Z" fill="#DD6B31"/>
<path d="M297.61 162.49C296.48 162.51 295.34 162.47 294.19 162.38C290.19 162.05 286.18 161.07 282.49 159.83C271.02 156.09 263.47 151.34 259.24 148.07C257.61 147.01 256.22 145.76 255.03 144.37C255 144.33 254.97 144.31 254.97 144.31C251.64 140.33 250.07 135.22 250.03 129.76V128.81C251.17 126.15 252.81 123.71 254.9 121.71C253.23 129.03 256.42 137.2 262.59 141.46C260.78 138.05 261.09 133.64 263.36 130.53C263.53 134.13 264.75 137.69 266.83 140.64C266.64 139.19 266.76 137.69 267.16 136.28C271.62 139.76 278.38 140.29 281.44 145.05C283.6 148.39 283.29 153.07 286.01 155.97C288.61 158.71 293.01 158.83 296.05 161.07C296.63 161.49 297.14 161.98 297.61 162.5V162.49Z" fill="url(#paint1_linear_57_8036)"/>
<g opacity="0.5">
<path d="M319.47 134.47C315.01 125.74 304.22 120.64 299.5 118.78C299.38 118.73 299.24 118.68 299.11 118.64C295.96 117.49 292.8 116.31 289.92 114.57C286.92 112.74 284.64 110.33 282.76 107.38C282.35 106.74 281.95 106.09 281.54 105.44C280.72 105.94 279.84 106.4 278.95 106.81C277.36 107.54 275.7 108.12 274.01 108.57C272.57 112.55 272.81 117.12 274.73 120.89C276.82 125.02 280.87 128.1 285.41 129.05C287.75 126.4 291.81 126.08 295.28 126.75C297.94 127.26 300.5 128.25 302.83 129.63C307.2 132.22 310.8 136.18 312.79 140.87C314.82 145.64 315.16 151.07 313.9 156.1C313.4 158.1 312.66 160.03 311.66 161.84C311.39 162.33 311.11 162.81 310.8 163.27C312.58 163.87 314.31 163.42 316.15 163.16C316.09 163.18 316.22 163.16 316.15 163.16C315.81 162.63 315.92 162.57 316.15 163.16C317.13 162.18 318.07 161.44 318.59 160.15H318.6C324.25 148.99 321.9 139.72 319.46 134.48L319.47 134.47Z" fill="url(#paint2_linear_57_8036)"/>
</g>
<path d="M254.09 108.47C253.52 108.62 252.94 108.74 252.37 108.81C245.43 107.4 238.67 104.37 233.8 99.16C233.56 98.91 233.35 98.67 233.13 98.43C233.09 98.38 233.04 98.33 233 98.28C230.77 95.66 228.7 91.66 230.4 88.27C231.24 86.62 232.77 85.74 234.35 84.89C235.57 85.74 236.58 86.86 237.31 88.15L237.99 88.58C241.96 86.37 246.62 85.13 251.1 85.87C255.6 86.59 259.85 89.51 261.49 93.75C263.72 99.52 260.06 106.82 254.09 108.47Z" fill="#F4B07D"/>
<g opacity="0.5">
<path d="M320.98 155.83C320.75 156.84 320.45 157.82 320.05 158.75C319.9 159.12 319.73 159.48 319.52 159.82C319.51 159.84 319.5 159.87 319.49 159.89L314.9 156.08L314.79 156C310.02 160.64 304.08 162.39 297.94 162.48C297.65 162.48 297.37 162.49 297.08 162.48C296.47 162.15 295.88 161.79 295.3 161.41C295.07 161.28 294.87 161.13 294.66 160.98C292.82 159.67 291.19 158.09 289.87 156.3C285.51 150.39 284.58 142.3 287.47 135.61C288.22 133.89 289.23 132.22 290.71 130.99C292.02 129.91 293.63 129.22 295.29 128.75C297.99 127.99 300.86 127.83 303.65 128.23C303.79 128.25 303.93 128.27 304.07 128.29C307.83 128.92 311.41 130.55 314.19 133.06C319.13 137.52 322.82 147.62 320.98 155.83Z" fill="#700707"/>
</g>
<path d="M320.92 155.83C320.7 156.84 320.41 157.82 320.02 158.75C319.88 159.12 319.71 159.48 319.51 159.82C319.45 159.96 319.37 160.11 319.28 160.24C318.88 160.95 318.38 161.6 317.79 162.19C317.76 162.23 317.73 162.26 317.7 162.28C317.56 162.43 317.4 162.58 317.24 162.72C317.23 162.73 317.21 162.74 317.2 162.75C315.59 164.1 313.55 164.82 311.45 165.14C310.88 165.23 310.3 165.28 309.74 165.32C307.2 165.46 304.65 165.12 302.24 164.35C300.1 163.68 298.06 162.68 296.22 161.4C296 161.27 295.81 161.12 295.6 160.97C293.84 159.66 292.27 158.08 291 156.29C286.81 150.38 285.91 142.29 288.69 135.6C289.41 133.88 290.38 132.21 291.81 130.98C293.07 129.9 294.62 129.21 296.22 128.74C298.82 127.98 301.58 127.82 304.26 128.22C304.39 128.24 304.53 128.26 304.66 128.28C308.27 128.91 311.72 130.54 314.39 133.05C319.14 137.51 322.69 147.61 320.92 155.82V155.83Z" fill="#BC5724"/>
<path d="M280.96 152.91C280.76 156.05 279.51 159.03 278.12 161.87C276.32 165.53 274.12 169.26 270.57 171.28C270.42 171.36 270.26 171.46 270.11 171.53C269.8 171.7 269.48 171.84 269.16 171.97C268.84 172.09 268.51 172.22 268.18 172.32C268.07 172.36 267.94 172.39 267.83 172.43C267.74 172.45 267.64 172.48 267.55 172.5C267.29 172.57 267.03 172.63 266.78 172.69C266.71 172.71 266.64 172.72 266.56 172.74C264.89 173.08 263.13 173.16 261.4 173.1C260.63 173.07 259.85 173.02 259.09 172.95C256.36 172.68 253.03 171.61 252.67 168.89C252.64 168.67 252.64 168.47 252.65 168.26C252.77 166.23 254.78 164.6 256.77 163.85C258.97 163.03 261.43 162.77 263.3 161.35C265.48 159.69 266.34 156.83 266.64 154.11C266.83 150.29 267.46 146.83 269.12 144.85C270.89 142.77 274.17 142.51 276.62 143.76C276.64 143.77 276.66 143.78 276.68 143.79C276.72 143.81 276.76 143.84 276.81 143.86C277.11 144.03 277.39 144.21 277.66 144.43C280.14 146.38 281.16 149.75 280.96 152.9V152.91Z" fill="#BC5724"/>
<path d="M244.029 99.64C244.029 99.64 244.019 99.67 244.019 99.69C243.989 99.81 243.949 99.94 243.899 100.05C243.559 100.81 242.729 101.34 242.219 102.04C241.469 103.07 241.419 104.43 241.189 105.69C240.959 106.95 240.369 108.33 239.159 108.71C238.449 108.94 237.719 108.75 237.079 108.36C236.579 108.07 236.139 107.66 235.779 107.22C235.609 107.02 235.459 106.82 235.329 106.6C234.989 106.1 234.719 105.57 234.489 105.01C234.299 104.44 234.159 103.91 234.069 103.4C234.049 103.32 234.039 103.28 234.039 103.28C233.719 101.48 233.949 100.1 234.349 99.09C234.819 97.91 235.529 97.23 235.889 96.93C236.439 96.52 237.059 96.21 237.719 96.02C239.109 97.85 241.369 99.03 243.659 99.07C243.789 99.07 243.929 99.07 244.059 99.06C244.089 99.25 244.089 99.43 244.049 99.62L244.029 99.64Z" fill="#EF7F92"/>
<path d="M241.47 98.94L241.04 99.05C240.22 99.4 240.02 100.43 239.83 101.31C239.62 102.32 239.28 103.3 238.83 104.23C238.6 104.69 238.33 105.15 237.95 105.5C237.95 105.5 237.95 105.5 237.94 105.5C237.1 106.26 235.74 106.12 235.02 105.25C234.46 104.57 234.15 103.72 234.05 103.4C234.14 103.91 234.29 104.44 234.47 105.01C234.7 105.57 234.97 106.1 235.31 106.6C235.44 106.82 235.6 107.02 235.76 107.22C235.93 107.43 236.13 107.63 236.34 107.82C236.35 107.82 236.36 107.84 236.37 107.85C236.58 108.04 236.81 108.2 237.04 108.34C237.04 108.34 237.05 108.34 237.06 108.35C237.71 108.73 238.43 108.92 239.14 108.7C240.36 108.32 240.95 106.94 241.17 105.68C241.4 104.42 241.45 103.06 242.2 102.03C242.72 101.33 243.54 100.8 243.88 100.04C243.93 99.93 243.97 99.8 244 99.68C243.14 99.42 242.3 99.17 241.45 98.93L241.47 98.94Z" fill="#D36C89"/>
<path d="M251.14 95.79C249.65 98.36 246.84 100.01 243.89 100.05C243.84 100.06 243.8 100.06 243.75 100.06H243.62C240.96 100.01 238.4 98.65 236.84 96.5C236.49 97.52 235.97 98.24 235.29 98.71C235.01 98.91 234.68 99.04 234.33 99.1C234.15 99.14 233.97 99.16 233.79 99.16C233.55 98.91 233.34 98.67 233.12 98.43C233.08 98.38 233.03 98.33 232.99 98.28C233.09 98.17 233.25 98.13 233.41 98.16C233.86 98.26 234.38 98.17 234.75 97.92C235.44 97.45 235.91 96.57 236.17 95.23C236.21 95.02 236.38 94.88 236.57 94.85C236.77 94.81 236.97 94.92 237.07 95.1C237.25 95.43 237.45 95.75 237.69 96.05C239.08 97.88 241.34 99.06 243.63 99.1C243.76 99.1 243.9 99.1 244.03 99.09C246.55 99.02 249.04 97.5 250.31 95.31C250.44 95.08 250.74 95 250.97 95.13C251.2 95.26 251.28 95.55 251.13 95.79H251.14Z" fill="#96220B"/>
<path d="M244.7 80.47C244.59 80.98 244.45 81.48 244.17 81.91C243.29 83.33 241.39 83.66 239.72 83.84C238.34 83.98 237.41 83.76 236.82 83.39C237.01 83.27 237.19 83.12 237.37 82.97C237.43 82.93 237.48 82.89 237.52 82.84C238.84 81.62 239.59 79.99 240.07 78.24C240.18 77.86 240.27 77.49 240.36 77.09C240.66 75.69 240.84 74.25 241.06 72.91C241.43 72.58 241.85 72.35 242.36 72.33C243.9 72.25 244.76 74.09 244.94 75.62C245.14 77.23 245.05 78.88 244.69 80.47H244.7Z" fill="#F4B07D"/>
<path d="M268.61 75.4799C266.91 73.6399 264.49 72.49 261.99 72.33C261.06 72.27 260.01 72.41 259.45 73.15C259.08 73.64 259.02 74.2599 259.04 74.8899C258.92 76.1299 258.65 77.3599 258.24 78.5299C257.82 79.7299 257.23 80.9399 257.32 82.2099C257.45 84.1799 259.22 85.72 261.12 86.24C263.02 86.76 265.04 86.46 266.98 86.13C268.45 85.88 270.1 85.4799 270.81 84.1799C271.11 83.6199 271.19 82.97 271.2 82.33C271.25 79.83 270.3 77.3199 268.6 75.4799H268.61Z" fill="#F4B07D"/>
<path d="M263.11 84.99C264.932 84.99 266.41 83.5125 266.41 81.69C266.41 79.8674 264.932 78.39 263.11 78.39C261.287 78.39 259.81 79.8674 259.81 81.69C259.81 83.5125 261.287 84.99 263.11 84.99Z" fill="black"/>
<path d="M240.36 77.08C240.36 77.08 237.27 78.48 237.37 82.96C237.8 83.17 238.29 83.29 238.8 83.29C240.63 83.29 242.09 81.81 242.09 79.99C242.09 78.72 241.38 77.63 240.35 77.08H240.36Z" fill="black"/>
<path opacity="0.5" d="M296.18 81.31C296.11 81.85 296.03 82.38 295.93 82.92C295.83 83.5 295.71 84.08 295.58 84.65C295.21 86.34 294.7 88 294.1 89.6C291.69 96.08 287.44 101.92 281.54 105.5C280.71 106.01 279.84 106.46 278.94 106.87C277.24 107.65 275.46 108.26 273.66 108.73C273.32 108.82 272.98 108.91 272.64 108.98C272.02 109.12 271.41 109.24 270.8 109.34C270.41 109.42 270.02 109.48 269.62 109.53C269.18 109.6 268.72 109.65 268.28 109.71C267.61 109.78 266.94 109.84 266.27 109.89C265.92 109.91 265.58 109.93 265.24 109.94C264.96 109.95 264.68 109.96 264.39 109.97C263.94 109.98 263.48 109.98 263.03 109.98C275.87 104.06 283.85 89.04 281.71 75.1C281.62 74.5 281.5 73.9 281.38 73.31C281.19 73.43 281 73.54 280.8 73.65C277.89 75.25 274.29 75.57 271.15 74.48C271.47 74.27 271.77 74.05 272.07 73.81C277.66 67.66 274.27 61.8 271.16 58.42C259.5 48.04 249.44 55.7 249.06 55.98C251.39 53.81 254.18 52.24 257.38 51.31C258.12 51.09 258.89 50.91 259.67 50.75C262.74 50.14 265.96 50.03 269.14 50.33C272 50.59 274.83 51.19 277.5 52.07H277.49C277.67 52.14 277.85 52.2 278.03 52.26C278.21 52.32 278.39 52.37 278.57 52.45C281.53 53.53 284.21 55.34 286.59 57.41C286.76 57.55 286.93 57.7 287.1 57.85C287.5 58.2 287.89 58.56 288.29 58.92C290.59 61.04 292.74 63.34 294.1 66.18C294.23 66.45 294.36 66.73 294.47 67.01C294.56 67.23 294.65 67.43 294.73 67.65C294.76 67.71 294.78 67.76 294.8 67.83C294.87 68.03 294.95 68.22 295.02 68.43C295.04 68.47 295.06 68.51 295.07 68.55H295.06C296.48 72.62 296.75 77.01 296.19 81.31H296.18Z" fill="url(#paint3_linear_57_8036)"/>
<path d="M276.63 143.85C276.63 143.85 276.62 143.8 276.62 143.77C276.64 143.78 276.66 143.79 276.68 143.8L276.63 143.85Z" fill="black"/>
<path d="M280.96 152.91C280.76 156.05 279.51 159.03 278.12 161.87C276.32 165.53 274.12 169.26 270.57 171.28C270.42 171.36 270.26 171.46 270.11 171.53C269.8 171.7 269.48 171.84 269.16 171.97C268.84 172.09 268.51 172.22 268.18 172.32C268.07 172.36 267.94 172.39 267.83 172.43C267.74 172.45 267.64 172.48 267.55 172.5C267.29 172.57 267.03 172.63 266.78 172.69C266.71 172.71 266.64 172.72 266.56 172.74C264.89 173.07 263.13 173.15 261.4 173.09C260.63 173.07 259.85 173.02 259.09 172.95C258.38 172.88 257.62 172.75 256.89 172.56C256.56 172.47 256.23 172.36 255.91 172.25C255.34 172.03 254.81 171.78 254.34 171.45C254.04 171.24 253.77 171.02 253.56 170.76C253.12 170.29 252.82 169.73 252.7 169.07C252.69 169.02 252.68 168.96 252.67 168.9C252.64 168.68 252.64 168.48 252.65 168.27C252.66 168.09 252.68 167.92 252.72 167.75C252.72 167.75 252.73 167.76 252.73 167.75C252.83 167.25 253.05 166.79 253.36 166.36C254.13 165.24 255.45 164.36 256.76 163.86C256.76 163.86 256.43 164.41 256.37 165.15C256.26 166.52 257.07 168.56 262.66 169.04C264.39 169.07 266.13 168.84 267.73 168.19C271.28 166.76 273.72 163.45 275.47 160.04C278.04 155.04 279.44 148.83 276.81 143.87C277.11 144.04 277.39 144.22 277.66 144.44C280.14 146.39 281.16 149.76 280.96 152.91Z" fill="url(#paint4_linear_57_8036)"/>
<path d="M319.21 168.28C319.28 170.7 317.16 172.76 314.82 173.4C312.48 174.05 309.99 173.6 307.63 173.06C305.27 172.53 302.85 171.92 300.45 172.26C298.12 172.57 296 173.75 293.75 174.45C293.01 174.68 292.22 174.85 291.43 174.91C290.85 174.96 290.26 174.96 289.7 174.88H289.69C289.36 174.83 289.02 174.76 288.7 174.64C288.59 174.6 288.47 174.57 288.37 174.52C288.33 174.51 288.3 174.5 288.26 174.48C288.13 174.43 287.99 174.37 287.86 174.29C287.73 174.22 287.58 174.14 287.46 174.05C287.45 174.04 287.45 174.03 287.44 174.03C287.31 173.94 287.17 173.84 287.05 173.73C286.94 173.63 286.82 173.52 286.73 173.42C286.69 173.38 286.65 173.33 286.61 173.28C286.53 173.18 286.44 173.07 286.37 172.97C286.33 172.92 286.29 172.87 286.26 172.8C286.2 172.72 286.15 172.62 286.09 172.52C286.05 172.44 286.01 172.37 285.98 172.28C285.92 172.15 285.87 172.01 285.81 171.88C285.81 171.87 285.8 171.86 285.8 171.85C285.75 171.73 285.72 171.6 285.69 171.48C285.67 171.41 285.65 171.35 285.64 171.27C285.61 171.16 285.59 171.04 285.57 170.92C285.55 170.77 285.53 170.6 285.52 170.45C285.52 170.41 285.51 170.36 285.51 170.32C285.51 170.22 285.5 170.12 285.5 170.02C285.5 169.88 285.51 169.73 285.52 169.59C285.53 169.49 285.54 169.37 285.56 169.26C285.57 169.11 285.59 168.95 285.63 168.8H285.64C285.65 168.74 285.66 168.68 285.67 168.62C285.68 168.56 285.69 168.53 285.71 168.48C285.75 168.31 285.79 168.15 285.85 168C285.87 167.95 285.88 167.91 285.9 167.86C285.97 167.67 286.05 167.49 286.15 167.31C286.26 167.08 286.39 166.88 286.53 166.67C287.15 165.78 287.95 165.08 288.88 164.54C290.18 163.79 291.71 163.37 293.21 163.25C293.61 163.23 294.01 163.2 294.42 163.2C294.55 163.2 294.68 163.2 294.81 163.22C294.92 163.22 295.04 163.23 295.15 163.23C295.15 163.23 295.63 163.25 296.44 163.25C298.04 163.25 300.9 163.14 303.57 162.46C306.21 161.82 309 161.73 311.67 162.23C312.31 162.35 312.94 162.52 313.56 162.7C314.04 162.84 314.54 163.03 315.03 163.24C315.37 163.41 315.71 163.57 316.03 163.78C316.14 163.85 316.27 163.92 316.39 164.01C316.42 164.02 316.46 164.04 316.49 164.07C318.02 165.08 319.17 166.53 319.21 168.3V168.28Z" fill="#BC5724"/>
<g opacity="0.5">
<path d="M319.21 168.28C319.28 170.7 317.16 172.76 314.82 173.4C312.48 174.05 309.99 173.6 307.63 173.06C305.27 172.53 302.85 171.92 300.45 172.26C298.12 172.57 296 173.75 293.75 174.45C293.01 174.68 292.22 174.85 291.43 174.91C290.85 174.96 290.26 174.96 289.7 174.88H289.69C289.36 174.83 289.02 174.76 288.7 174.64C288.59 174.6 288.47 174.57 288.37 174.52C288.33 174.51 288.3 174.5 288.26 174.48C288.13 174.43 287.99 174.37 287.86 174.29C287.73 174.22 287.58 174.14 287.46 174.05C287.45 174.04 287.45 174.03 287.44 174.03C287.31 173.94 287.17 173.84 287.05 173.73C286.94 173.63 286.82 173.52 286.73 173.42C286.69 173.38 286.65 173.33 286.61 173.28C286.53 173.18 286.44 173.07 286.37 172.97C286.33 172.92 286.29 172.87 286.26 172.8C286.2 172.72 286.15 172.62 286.09 172.52C286.05 172.44 286.01 172.37 285.98 172.28C285.92 172.15 285.87 172.01 285.81 171.88C285.81 171.87 285.8 171.86 285.8 171.85C285.75 171.73 285.72 171.6 285.69 171.48C285.67 171.41 285.65 171.35 285.64 171.27C285.61 171.16 285.59 171.04 285.57 170.92C285.55 170.77 285.53 170.6 285.52 170.45C285.52 170.41 285.51 170.36 285.51 170.32C285.51 170.22 285.5 170.12 285.5 170.02C285.5 169.88 285.51 169.73 285.52 169.59C285.53 169.49 285.54 169.37 285.56 169.26C285.58 169.11 285.6 168.94 285.64 168.79C285.65 168.74 285.66 168.68 285.67 168.63C285.68 168.58 285.69 168.54 285.71 168.49C285.75 168.32 285.79 168.16 285.85 168.01C285.87 167.96 285.88 167.92 285.9 167.87C285.97 167.68 286.05 167.5 286.15 167.32C286.26 167.09 286.39 166.89 286.53 166.68C287.15 165.79 287.95 165.09 288.88 164.55C287.84 168.4 290.95 168.97 292.87 168.97C293.66 168.97 294.26 168.87 294.26 168.87C295.62 168.88 297.09 167.92 298.38 167.2C299.15 166.77 299.98 166.43 300.83 166.18C303.48 165.4 306.41 165.51 308.99 166.53C309.34 166.66 309.69 166.82 310.04 166.98C310.79 167.31 311.54 167.65 312.34 167.83C313.52 168.09 314.89 167.91 315.68 167C315.73 166.94 315.76 166.87 315.8 166.79H315.83C315.83 166.79 316.71 165.7 316.02 163.79C316.13 163.86 316.26 163.93 316.38 164.02C316.41 164.03 316.45 164.05 316.48 164.08C318.01 165.09 319.16 166.54 319.2 168.31L319.21 168.28Z" fill="url(#paint5_linear_57_8036)"/>
</g>
<path d="M264.72 80.96C265.145 80.96 265.49 80.6152 265.49 80.19C265.49 79.7647 265.145 79.42 264.72 79.42C264.295 79.42 263.95 79.7647 263.95 80.19C263.95 80.6152 264.295 80.96 264.72 80.96Z" fill="white"/>
<path d="M240.12 79.16C240.12 78.73 240.46 78.39 240.89 78.39C241.32 78.39 241.66 78.73 241.66 79.16C241.66 79.59 241.32 79.93 240.89 79.93C240.46 79.93 240.12 79.59 240.12 79.16Z" fill="white"/>
<g opacity="0.5">
<path d="M296.18 81.23C296.11 81.77 296.03 82.3 295.93 82.84C295.83 83.42 295.71 84 295.58 84.57C290 83.29 284.96 79.75 281.71 75.02C281.39 74.56 281.08 74.07 280.8 73.58C279.75 71.77 278.94 69.82 278.47 67.78L278.69 68.01C282 66.81 284.88 64.45 286.71 61.44C287.23 60.59 287.69 59.67 288.28 58.85C290.58 60.97 292.73 63.27 294.09 66.11C294.22 66.38 294.35 66.66 294.46 66.94C294.55 67.16 294.64 67.36 294.72 67.58C294.75 67.64 294.77 67.69 294.79 67.76C294.86 67.96 294.94 68.15 295.01 68.36C295.03 68.4 295.05 68.44 295.06 68.48H295.05C296.47 72.55 296.74 76.94 296.18 81.24V81.23Z" fill="#700707"/>
</g>
<path d="M278.08 66.07C281.39 64.87 284.27 62.52 286.1 59.5C287.04 57.95 287.8 56.14 289.39 55.28C291.57 54.09 294.34 55.28 296.14 56.99C297.45 58.23 298.47 59.74 299.49 61.23C302.74 66 305.98 70.76 309.23 75.53C309.63 76.12 310.05 76.77 310.01 77.48C309.98 78.01 309.69 78.5 309.37 78.92C306.82 82.36 302.08 83.46 297.82 83.09C288.46 82.28 280.02 74.98 277.86 65.84L278.08 66.06V66.07Z" fill="#BC5724"/>
<g opacity="0.4">
<path d="M304.42 152.66C304.08 151.77 303.92 150.83 304.03 149.86C303.17 151.14 302.85 152.78 303.18 154.29C298.03 150.19 296.27 142.37 299.16 136.46C296.47 137.41 294.38 139.9 293.93 142.71C292.17 139.45 292.49 135.17 294.73 132.22C295.37 131.38 296.17 130.67 297.05 130.08V130.06C297.05 130.06 297.25 129.92 297.62 129.72C298.59 129.17 299.66 128.78 300.76 128.58C301.72 128.36 302.85 128.21 304.11 128.22C301.47 127.84 298.77 128 296.21 128.75C294.61 129.21 293.06 129.91 291.8 130.99C290.38 132.22 289.41 133.89 288.68 135.61C285.9 142.3 286.8 150.39 290.99 156.3C292.26 158.1 293.83 159.67 295.59 160.98C295.8 161.13 295.99 161.28 296.21 161.41C298.05 162.69 300.09 163.69 302.23 164.36C304.64 165.13 307.19 165.47 309.73 165.33C310.3 165.3 310.88 165.25 311.44 165.15C313.53 164.83 315.58 164.11 317.19 162.76C317.2 162.75 317.22 162.74 317.23 162.73C317.4 162.59 317.55 162.44 317.69 162.29C317.72 162.27 317.75 162.24 317.78 162.2C317.8 162.18 317.82 162.16 317.84 162.13C308.22 161.87 305.29 156.19 304.4 152.65L304.42 152.66Z" fill="url(#paint6_linear_57_8036)"/>
</g>
<path d="M240.65 161.37C239.75 161.58 238.98 162.11 238.45 162.82C238.42 162.74 238.41 162.65 238.4 162.56C238.35 162.12 238.38 161.69 238.5 161.28C239.03 160.86 239.67 160.54 240.38 160.37C241.02 160.22 241.3 161.22 240.65 161.36V161.37Z" fill="#700707"/>
<path d="M241.61 163.14C240.79 163.58 240.28 164.37 240.13 165.22C239.81 165 239.51 164.76 239.26 164.47C239.56 163.55 240.19 162.74 241.09 162.24C241.67 161.93 242.19 162.82 241.61 163.14Z" fill="#700707"/>
<path d="M243.78 164.62C243.37 165.17 243.11 165.78 243.01 166.41C242.67 166.33 242.34 166.23 242.02 166.12C242.13 165.4 242.42 164.71 242.89 164.1C243.29 163.57 244.18 164.09 243.79 164.63L243.78 164.62Z" fill="#700707"/>
<path d="M254.44 168.31C253.77 168.33 253.16 168.62 252.71 169.06C252.7 169.01 252.69 168.95 252.68 168.89C252.65 168.67 252.65 168.47 252.66 168.26C252.67 168.08 252.69 167.91 252.73 167.74C252.73 167.74 252.74 167.75 252.74 167.74C253.25 167.45 253.83 167.29 254.44 167.27C255.1 167.25 255.1 168.28 254.44 168.3V168.31Z" fill="#700707"/>
<path d="M255.58 170.27C255.05 170.54 254.63 170.96 254.34 171.45C254.04 171.24 253.77 171.02 253.56 170.76C253.92 170.19 254.43 169.72 255.07 169.39C255.66 169.09 256.17 169.98 255.59 170.28L255.58 170.27Z" fill="#700707"/>
<path d="M257.79 171.41C257.26 171.69 257 172.09 256.89 172.56C256.56 172.47 256.23 172.36 255.91 172.25C256.06 171.56 256.47 170.94 257.27 170.53C257.86 170.21 258.37 171.11 257.79 171.42V171.41Z" fill="#700707"/>
<path d="M286.71 169.33C286.23 169.56 285.81 169.89 285.49 170.3C285.49 170.21 285.479 170.11 285.479 170.01C285.479 169.87 285.489 169.72 285.499 169.58C285.509 169.48 285.519 169.36 285.539 169.25C285.549 169.1 285.569 168.94 285.609 168.79H285.619C285.849 168.62 286.09 168.48 286.35 168.36C286.96 168.08 287.299 169.06 286.699 169.34L286.71 169.33Z" fill="#700707"/>
<path d="M287.84 171.29C287.19 171.73 286.68 172.3 286.36 172.96C286.32 172.91 286.28 172.86 286.25 172.79C286.19 172.71 286.14 172.61 286.08 172.51C286.04 172.43 286 172.36 285.97 172.27C285.91 172.14 285.86 172 285.8 171.87C286.17 171.31 286.66 170.82 287.24 170.42C287.79 170.06 288.36 170.9 287.83 171.29H287.84Z" fill="#700707"/>
<path d="M289.48 172.92C288.97 173.37 288.6 173.92 288.38 174.51C288.34 174.5 288.31 174.49 288.27 174.47C288.14 174.42 288 174.36 287.87 174.28C287.74 174.21 287.59 174.13 287.47 174.04C287.75 173.35 288.18 172.72 288.77 172.19C289.27 171.75 290 172.47 289.49 172.91L289.48 172.92Z" fill="#700707"/>
<path d="M243.31 86.16C243.15 85.89 242.84 85.75 242.55 85.62C240.45 84.75 238.15 84.36 235.88 84.49C234.43 84.57 233.23 85.7 233.14 87.13C233.14 87.69 233.25 90.21 234.96 91.42C235.36 91.67 235.83 91.84 236.41 91.86C237.15 91.97 237.89 91.69 238.55 91.35C240.24 90.5 241.74 89.27 242.91 87.77C243.27 87.3 243.61 86.66 243.31 86.15V86.16Z" fill="black"/>
<path d="M233.8 86C233.8 85.44 234.5 84.99 235.35 84.99C236.2 84.99 236.9 85.44 236.9 86C236.9 86.56 236.2 87.01 235.35 87.01C234.5 87.01 233.8 86.56 233.8 86Z" fill="white"/>
<path d="M260.94 71.29C259.78 71.39 257.72 71.99 257.61 73.34C257.5 74.69 260.03 72.56 261.32 73.25C259.35 73.74 260.82 75.89 262.68 74.99C264.69 74.01 266.99 73.83 268.7 75.56C267.44 72.61 264.03 71.02 260.94 71.29C264.08 71.01 259.78 71.39 260.94 71.29Z" fill="#AA3B0F"/>
<path d="M244.439 73.54C243.429 72.31 242.269 71.58 241.079 71.24C240.399 71.05 239.649 70.94 239.009 71.24C238.369 71.54 237.959 72.39 238.339 72.98C238.679 73.51 239.439 73.59 240.039 73.41C240.639 73.24 241.179 72.88 241.789 72.73C242.729 72.5 243.779 72.83 244.429 73.55L244.439 73.54Z" fill="#AA3B0F"/>
<path d="M282.62 107.15C282.26 106.58 281.91 106.01 281.55 105.44H281.54C270.59 112.27 256.45 109.59 254.95 109.28C256.56 109.66 271.8 113.06 282.62 107.15Z" fill="#96220B"/>
</g>
<g filter="url(#filter2_d_57_8036)">
<path d="M105.431 117.65C106.791 119.54 107.581 121.79 108.211 124.03C110.121 130.8 110.791 137.92 110.191 144.94C109.451 145.08 108.681 145.25 108.111 145.74C107.541 146.22 107.231 147.12 107.641 147.75C107.831 148.05 108.141 148.24 108.471 148.37C110.011 148.96 111.801 147.95 112.641 146.53C113.491 145.11 113.631 143.4 113.751 141.75C114.071 137.35 114.401 132.94 114.641 128.54C114.911 123.55 115.091 118.54 114.861 113.55C112.141 114.47 107.871 116.14 105.431 117.66V117.65Z" fill="#A4A4A4"/>
<path d="M171.72 81.76C171 88.64 165.63 95.48 158.72 95.57C157.83 95.28 157.35 94.14 157.2 93.7C157.2 93.7 157.197 93.6933 157.19 93.68C157.19 93.68 157.17 93.64 157.17 93.61C157.15 93.57 157.14 93.53 157.14 93.53H157.15C157.11 93.35 157.12 93.17 157.21 92.97C162.38 90.31 165.7 84.42 165.32 78.61C164.67 68.98 155.41 62.43 151.33 53.7C149.84 50.53 149.06 47.05 149.02 43.57C149 42.48 149.06 41.37 149.2 40.28C149.74 35.86 152.56 30.89 156.99 31C160.22 31.08 162.46 33.85 163.44 37.07C163.81 38.27 164.01 39.53 164.01 40.73C164.01 45.16 162.49 49.59 163.25 53.96C163.75 56.82 165.17 59.41 166.49 61.99C169.66 68.14 172.45 74.88 171.73 81.76H171.72Z" fill="#808080"/>
<path d="M142.19 104.34C140.49 108.08 139.85 112.29 140.38 116.36C140.79 119.48 141.85 122.48 142.22 125.6C142.77 130.37 141.65 135.16 140.54 139.83C140.09 141.72 139.5 143.81 137.84 144.81C137.32 145.12 136.72 145.31 136.27 145.71C135.82 146.11 135.57 146.86 135.96 147.32C136.22 147.63 136.66 147.7 137.06 147.75C138.69 147.96 140.63 148.06 141.66 146.79C142.04 146.32 142.23 145.73 142.42 145.16C143.33 142.31 144.25 139.45 145.16 136.6C145.86 134.42 146.56 132.23 147.05 129.98C148.26 124.41 148.21 118.38 151.09 113.46C151.76 112.32 152.59 111.23 152.83 109.93C153.26 107.68 151.74 105.41 149.73 104.29C147.73 103.18 145.35 102.99 143.06 102.95C142.93 103.42 142.79 103.9 142.66 104.37L142.2 104.31L142.19 104.34Z" fill="#A4A4A4"/>
<path d="M165.07 100.41C165.07 100.46 165.07 100.51 165.06 100.56C164.6 104.33 162.92 108.1 160.08 110.5C159.42 111.07 158.69 111.55 157.89 111.94C156.18 112.79 154.17 113.02 152.27 112.73C152.17 112.48 152.06 112.24 151.96 112.02C151.87 111.79 151.76 111.59 151.66 111.38C151.34 110.72 151 110.13 150.64 109.61C147.32 104.54 143.22 104.99 143.22 104.99H143.16C142.77 104.91 142.37 104.88 141.97 104.89H141.95C136.06 104.98 131.63 109.25 126.95 113.17C125.93 114.04 124.9 114.87 123.82 115.64H123.81C123.76 115.69 123.71 115.73 123.66 115.76C123.38 115.97 123.08 116.17 122.79 116.37C121.53 117.22 120.23 117.95 118.85 118.51C117.85 118.92 116.79 119.19 115.68 119.36H115.67C115.43 119.39 115.2 119.42 114.95 119.44C114.74 119.46 114.56 119.48 114.35 119.5H114.34C113.57 119.54 112.78 119.54 112 119.49C109.64 119.42 107.65 119.04 105.99 118.5H105.98C104.36 117.97 103.08 117.3 102.07 116.63C100.04 115.29 99.17 113.98 99.17 113.98C98.76 113.56 98.39 113.08 98.1 112.58C97.23 111.2 96.79 109.57 96.89 107.95C96.93 107.38 97.03 106.83 97.2 106.28C97.49 105.28 97.99 104.35 98.65 103.54C98.65 103.53 98.66 103.52 98.67 103.5H98.68C98.68 103.5 98.71 103.46 98.72 103.44C98.73 103.44 98.73 103.43 98.73 103.43C99.18 102.88 99.7 102.41 100.28 102C100.33 101.97 100.37 101.93 100.43 101.9C100.43 101.9 100.44 101.9 100.44 101.89C100.46 101.88 100.48 101.86 100.51 101.85C100.89 101.59 101.3 101.38 101.74 101.2C102.31 100.96 102.9 100.81 103.49 100.69H103.5C105.51 100.3 107.65 100.44 109.7 100.25C113.66 99.87 117.48 98.13 120.4 95.43C120.86 95.01 121.31 94.55 121.72 94.08C121.96 93.81 122.18 93.53 122.4 93.25C122.88 92.63 123.34 91.98 123.78 91.32L123.79 91.3C124.32 90.5 124.82 89.67 125.32 88.85C125.89 87.95 126.45 87.05 127.06 86.19C127.37 85.76 127.69 85.33 128.02 84.92C128.76 84 129.58 83.17 130.48 82.4C131.18 81.8 131.91 81.25 132.7 80.75C134.15 79.81 135.73 79.05 137.37 78.49C138.13 78.22 138.91 77.99 139.7 77.82C141.04 77.51 142.4 77.33 143.78 77.28C144.5 77.25 145.22 77.25 145.95 77.3C147.39 77.39 148.83 77.63 150.22 78.03C150.73 78.16 151.22 78.33 151.72 78.51C151.96 78.6 152.19 78.69 152.42 78.79C152.42 78.79 152.427 78.7933 152.44 78.8C153.26 79.15 154.05 79.55 154.8 80.01C155.11 80.19 155.4 80.37 155.69 80.58C158.56 82.5 160.92 85.16 162.56 88.22C163.5 89.94 164.21 91.8 164.65 93.72C164.88 94.71 165.03 95.7 165.11 96.7C165.12 96.76 165.12 96.83 165.12 96.93C165.13 97.01 165.13 97.12 165.13 97.23C165.14 97.31 165.14 97.39 165.14 97.49C165.2 98.47 165.17 99.46 165.05 100.44L165.07 100.41Z" fill="#929292"/>
<path d="M122.33 102.17C122.21 101.01 122.08 99.86 121.73 98.75C121.37 97.61 120.78 96.52 120.41 95.4C120.87 94.98 121.32 94.52 121.73 94.05C121.97 93.78 122.19 93.5 122.41 93.22C123.06 96.16 123.04 99.25 122.33 102.17Z" fill="#494949"/>
<path d="M73.8602 72.91C72.6502 74.03 71.8902 75.54 71.1702 77.01C70.7402 77.87 70.3102 78.75 69.8902 79.62C69.6702 80.06 69.4602 80.48 69.2502 80.92C68.8702 81.71 68.4802 82.5 68.1002 83.28C67.2702 84.99 66.4602 86.7 65.6702 88.42C62.7802 85.02 59.8302 81.51 58.3402 77.31C58.0202 76.37 57.7802 75.28 58.3602 74.48C58.7202 73.99 59.3002 73.74 59.8702 73.52C64.2802 71.87 69.2402 71.68 73.7702 72.98L73.8602 72.92V72.91Z" fill="#808080"/>
<path d="M69.8898 79.62C69.6698 80.06 69.4598 80.48 69.2498 80.92C68.8698 81.71 68.4798 82.5 68.0998 83.28C67.2698 84.99 66.4598 86.7 65.6698 88.42C62.7798 85.02 59.8298 81.51 58.3398 77.31C58.3398 77.31 62.6198 73.3 69.8998 79.62H69.8898Z" fill="#A4A4A4"/>
<path d="M97.1807 64.79C98.8307 64.82 100.401 65.45 101.921 66.07C102.811 66.43 103.721 66.8 104.611 67.17C105.061 67.35 105.501 67.53 105.951 67.72C106.761 68.06 107.581 68.39 108.381 68.72C110.131 69.45 111.881 70.19 113.611 70.94C113.511 66.48 113.391 61.89 111.711 57.77C111.331 56.85 110.781 55.88 109.821 55.66C109.231 55.53 108.621 55.73 108.051 55.94C103.661 57.64 99.8307 60.79 97.2907 64.77H97.1807V64.79Z" fill="#808080"/>
<path d="M104.611 67.17C105.061 67.35 105.501 67.53 105.951 67.72C106.761 68.06 107.581 68.39 108.381 68.72C110.131 69.45 111.881 70.19 113.611 70.94C113.511 66.48 113.391 61.89 111.711 57.77C111.711 57.77 105.841 57.61 104.601 67.17H104.611Z" fill="#A4A4A4"/>
<path d="M123.8 91.27H123.79V91.29C123.3 94.53 121.84 97.9 118.63 100.94C118.25 101.29 117.86 101.63 117.45 101.97C117.24 102.15 117.05 102.3 116.85 102.46C116.52 102.73 116.2 103 115.86 103.25C110.52 107.34 104.48 110.49 98.08 112.57C96.93 112.94 95.78 113.27 94.61 113.57C93.53 113.85 92.44 114.1 91.35 114.31C87.17 115.15 82.79 115.51 78.7 114.3C72.18 112.37 67.28 106.49 65.41 99.95C64.36 96.27 64.19 92.42 64.63 88.6C64.68 88.27 64.74 87.89 64.83 87.45C65.27 85.26 66.26 81.95 68.46 78.49C69.66 76.59 71.21 74.65 73.26 72.83C73.73 72.41 74.23 71.98 74.76 71.58C75.69 70.85 76.7 70.16 77.8 69.5C78.4 69.14 79.04 68.79 79.7 68.45C80.62 68.02 81.55 67.6 82.49 67.24C83.04 67.02 83.58 66.83 84.13 66.64C84.71 66.44 85.31 66.27 85.89 66.1C86.29 65.99 86.68 65.88 87.09 65.78C88.68 65.39 90.31 65.1 91.94 64.9C93.16 64.76 94.39 64.66 95.6 64.64C96.19 64.61 96.78 64.61 97.36 64.64C99.91 64.68 102.43 65 104.85 65.61C107.98 66.37 110.94 67.63 113.56 69.42C115.18 70.52 116.68 71.84 118 73.38C120.22 75.95 121.83 79 122.99 82.19C123.03 82.31 123.07 82.43 123.11 82.55C123.21 82.91 123.31 83.28 123.4 83.67C123.52 84.22 123.65 84.79 123.73 85.39C124.02 87.21 124.1 89.2 123.79 91.25L123.8 91.27Z" fill="#808080"/>
<path d="M103.14 95.44C104.67 99.69 103.01 104.54 99.2899 105.88C95.5699 107.22 91.3299 104.91 89.6699 100.3C88.5099 97.08 90.5799 93.39 94.2999 92.05C98.0199 90.71 101.98 92.23 103.14 95.45V95.44Z" fill="white"/>
<path d="M77.4801 99.73C76.9201 98.17 77.7301 96.45 79.2901 95.88C80.8501 95.31 82.5701 96.13 83.1401 97.69C83.7001 99.25 82.8901 100.97 81.3301 101.54C79.7701 102.1 78.0501 101.29 77.4801 99.73Z" fill="black"/>
<path d="M106.22 89.36C105.66 87.8 106.47 86.08 108.03 85.51C109.59 84.94 111.31 85.76 111.88 87.32C112.44 88.88 111.63 90.6 110.07 91.17C108.51 91.73 106.79 90.92 106.22 89.36Z" fill="black"/>
<path d="M100.13 98.25C99.1504 98.73 97.3804 98.57 96.7904 98.5L96.6804 98.21C96.6804 98.21 95.1404 100.04 93.8604 100.38C93.8604 100.38 94.9204 104.53 98.3304 103.32L98.4004 103.52C102.2 102.31 100.13 98.24 100.13 98.24V98.25Z" fill="black"/>
<path d="M100.791 100.75C100.791 100.75 99.9306 99.89 98.4706 100C97.8306 100.07 97.3606 100.28 97.0606 100.45C95.4406 101.54 95.5606 103.14 95.5606 103.14C96.5706 103.86 98.6606 103.52 98.8506 103.48H98.8806C99.0406 103.34 100.661 101.99 100.781 100.75H100.791Z" fill="#E0013F"/>
<path d="M93.5302 100.58C92.5402 100.58 91.5702 100.1 90.6402 99.14C90.4402 98.94 90.4502 98.62 90.6502 98.42C90.8502 98.22 91.1702 98.23 91.3702 98.43C92.1802 99.26 92.9802 99.64 93.7602 99.55C94.8502 99.43 95.6602 98.45 95.9702 98.04L95.0102 95.25C94.9202 94.98 95.0602 94.69 95.3302 94.6C95.6002 94.51 95.8902 94.65 95.9802 94.92L97.1002 98.17L96.9802 98.37C96.9302 98.45 95.7702 100.34 93.8902 100.56C93.7702 100.57 93.6602 100.58 93.5402 100.58H93.5302Z" fill="black"/>
<path d="M98.2203 98.82C97.3003 98.82 96.5603 98.57 96.5103 98.55C96.2403 98.46 96.1003 98.17 96.2003 97.9C96.2903 97.64 96.5803 97.5 96.8503 97.58C96.8703 97.58 98.5803 98.16 99.7403 97.4C100.39 96.97 100.77 96.17 100.86 95.01C100.88 94.73 101.12 94.51 101.41 94.54C101.69 94.56 101.9 94.81 101.88 95.09C101.76 96.58 101.23 97.64 100.29 98.25C99.6303 98.68 98.8803 98.81 98.2303 98.81L98.2203 98.82Z" fill="black"/>
<path d="M93.73 96.69C93.63 96.69 93.52 96.66 93.43 96.59C93.2 96.43 93.15 96.11 93.31 95.88C93.37 95.8 94.81 93.84 97.74 94.39C98.02 94.44 98.2 94.71 98.15 94.98C98.1 95.26 97.84 95.44 97.56 95.39C95.26 94.96 94.15 96.46 94.14 96.47C94.04 96.61 93.88 96.68 93.73 96.68V96.69Z" fill="black"/>
<path d="M97.4203 104.23C96.8803 104.23 96.3703 104.1 95.8903 103.85C94.0303 102.89 93.3303 100.39 93.3003 100.29C93.2303 100.02 93.3803 99.74 93.6503 99.67C93.9203 99.6 94.2003 99.76 94.2803 100.02C94.2803 100.04 94.9003 102.19 96.3603 102.95C96.9903 103.28 97.6803 103.29 98.4703 103.01C98.7403 102.92 99.0303 103.05 99.1203 103.32C99.2203 103.58 99.0803 103.88 98.8103 103.97C98.3303 104.14 97.8703 104.23 97.4203 104.23Z" fill="black"/>
<path d="M98.6305 104C98.4205 104 98.2305 103.87 98.1505 103.66C98.0505 103.4 98.1905 103.1 98.4605 103.01C99.2505 102.73 99.7705 102.27 100.04 101.62C100.69 100.1 99.7805 98.06 99.7705 98.04C99.6505 97.78 99.7705 97.48 100.02 97.37C100.28 97.25 100.58 97.37 100.69 97.62C100.73 97.72 101.78 100.09 100.97 102.02C100.58 102.94 99.8505 103.6 98.7905 103.98C98.7305 104 98.6705 104.01 98.6205 104.01L98.6305 104Z" fill="black"/>
<path d="M78.1098 98.15C77.9898 97.82 78.1598 97.46 78.4898 97.34C78.8198 97.22 79.1798 97.39 79.2998 97.72C79.4198 98.05 79.2498 98.41 78.9198 98.53C78.5898 98.65 78.2298 98.48 78.1098 98.15Z" fill="white"/>
<path d="M106.79 87.81C106.67 87.48 106.84 87.12 107.17 87C107.5 86.88 107.86 87.05 107.98 87.38C108.1 87.71 107.93 88.07 107.6 88.19C107.27 88.31 106.91 88.14 106.79 87.81Z" fill="white"/>
<path d="M113.271 117.73C114.631 119.62 115.421 121.87 116.051 124.11C117.961 130.88 118.631 138 118.031 145.02C117.291 145.16 116.521 145.33 115.951 145.82C115.381 146.3 115.071 147.2 115.481 147.83C115.671 148.13 115.981 148.32 116.311 148.45C117.851 149.04 119.641 148.03 120.481 146.61C121.331 145.19 121.471 143.48 121.591 141.83C121.911 137.43 122.241 133.02 122.481 128.62C122.751 123.63 122.931 118.62 122.701 113.63C119.981 114.55 115.711 116.22 113.271 117.74V117.73Z" fill="#929292"/>
<path d="M165.16 97.46C165.16 98.16 165.13 99.21 165.07 100.41C165.07 100.46 165.07 100.51 165.06 100.56C164.95 103.18 164.73 106.51 164.58 108.75C164.23 113.61 164 118.49 163.88 123.36C163.77 127.97 163.76 132.57 163.85 137.19C163.9 139.28 163.95 141.43 163.41 143.45C162.85 145.48 161.57 147.42 159.63 148.24C158.9 148.55 158 148.68 157.31 148.27C156.61 147.87 156.32 146.78 156.9 146.23C157.22 145.93 157.68 145.86 158.1 145.71C160.47 144.86 160.84 141.71 160.79 139.19C160.73 135.59 160.65 131.88 159.24 128.56C158.79 127.47 158.19 126.44 157.58 125.43C152.7 119.74 151.67 111.38 151.67 111.38L152.61 111.25V110.59C152.61 110.71 152.63 110.85 152.63 110.97C152.63 111.07 152.62 111.16 152.62 111.25H152.65C152.65 111.16 152.64 111.06 152.63 110.97C152.82 107.54 153.25 105.76 155.03 103.17C156.23 101.46 158.45 100.41 160.46 100.53C161.19 100.57 161.9 100.77 162.52 101.14L165.14 96.68C165.15 96.73 165.15 96.8 165.15 96.9C165.16 96.98 165.17 97.09 165.16 97.2C165.17 97.28 165.17 97.36 165.17 97.46H165.16Z" fill="#929292"/>
<path d="M83.4398 77.95C80.0298 76.68 78.2198 72.34 74.7598 71.58C75.6898 70.85 76.6998 70.16 77.7998 69.5C79.3798 72.5 81.2698 75.34 83.4298 77.95H83.4398Z" fill="#494949"/>
<path d="M95.6004 64.65C93.5504 67.5 95.0104 71.93 93.2804 75.11C93.1904 71.67 92.7404 68.25 91.9404 64.91C93.1604 64.77 94.3904 64.67 95.6004 64.65Z" fill="#494949"/>
<path d="M88.9902 77.16C87.6502 75.94 87.1102 74.11 86.2902 72.5C85.3102 70.57 83.9002 68.89 82.4902 67.25C83.0402 67.03 83.5802 66.84 84.1302 66.65C85.1002 66.33 86.0902 66.04 87.0902 65.79C87.3602 69.63 88.0002 73.44 88.9902 77.16Z" fill="#494949"/>
<path d="M133.92 93.17C133.37 91.91 133.54 90.47 133.3 89.1C133.09 87.85 132.54 86.7 132 85.55C131.49 84.49 130.99 83.43 130.49 82.37C131.19 81.77 131.92 81.22 132.71 80.72C133.02 81.5 133.34 82.28 133.61 83.07C134.69 86.31 134.8 89.87 133.92 93.16V93.17Z" fill="#494949"/>
<path d="M123.13 83.69C123.16 83.81 123.19 83.93 123.23 84.04C123.21 84.07 123.2 84.09 123.19 84.12L123.13 83.69Z" fill="#494949"/>
<path d="M128.34 98.74C127.79 97.48 127.96 96.04 127.72 94.67C127.51 93.42 126.96 92.27 126.42 91.12C126.06 90.35 125.69 89.58 125.33 88.82C125.9 87.92 126.46 87.02 127.07 86.16C127.4 86.99 127.75 87.81 128.03 88.65C129.11 91.89 129.22 95.45 128.34 98.74Z" fill="#494949"/>
<path d="M138.46 87.69C138.16 86.43 138.54 85.11 138.54 83.82C138.54 82.62 138.22 81.46 137.9 80.31C137.73 79.69 137.56 79.08 137.38 78.46C138.14 78.19 138.92 77.96 139.71 77.79C139.74 77.96 139.77 78.11 139.79 78.27C140.26 81.45 139.8 84.76 138.45 87.68L138.46 87.69Z" fill="#494949"/>
<path d="M143.37 83.36C143.64 82.22 143.9 81.09 143.93 79.93C143.95 79.05 143.85 78.16 143.8 77.26C144.52 77.23 145.24 77.23 145.97 77.28C145.45 79.44 144.58 81.5 143.38 83.36H143.37Z" fill="#494949"/>
<path d="M151.73 78.5C151.05 79.79 149.98 80.87 148.7 81.57C149.48 80.53 150.01 79.3 150.24 78.01C150.75 78.14 151.24 78.31 151.74 78.49L151.73 78.5Z" fill="#494949"/>
<path d="M155.7 80.56C154.98 81.36 154.13 82.07 153.2 82.63C153.74 81.74 154.27 80.87 154.81 79.99C155.12 80.17 155.41 80.35 155.7 80.56Z" fill="#494949"/>
<path d="M77.5898 68.1C77.7598 68.04 77.9198 67.98 78.0898 67.91C78.0398 68.09 77.9998 68.25 77.9498 68.43L77.5998 68.1H77.5898Z" fill="#5B5B5B"/>
<g opacity="0.4">
<path d="M123.8 91.27H123.79V91.29C123.3 94.53 121.84 97.9 118.63 100.94C118.25 101.29 117.86 101.63 117.45 101.97C117.24 102.15 117.05 102.3 116.85 102.46C116.52 102.73 116.2 103 115.86 103.25C110.52 107.34 104.48 110.49 98.0799 112.57C96.9299 112.94 95.7799 113.27 94.6099 113.57C99.0099 110.51 103.56 107.64 107.45 103.96C112.35 99.34 116.22 92.99 115.8 86.26C115.36 79.05 109.98 72.86 103.58 69.49C98.1799 66.64 91.9499 65.5 85.8799 66.1C86.2799 65.99 86.6699 65.88 87.0799 65.78C88.6699 65.39 90.2999 65.1 91.9299 64.9C93.1499 64.76 94.3799 64.66 95.5899 64.64C96.1799 64.61 96.7699 64.61 97.3499 64.64C99.8999 64.68 102.42 65 104.84 65.61C107.97 66.37 110.93 67.63 113.55 69.42C115.17 70.52 116.67 71.84 117.99 73.38C120.21 75.95 121.82 79 122.98 82.19C123.02 82.31 123.06 82.43 123.1 82.55C123.2 82.91 123.3 83.28 123.39 83.67C123.51 84.22 123.64 84.79 123.72 85.39C124.01 87.21 124.09 89.2 123.78 91.25L123.8 91.27Z" fill="#5B5B5B"/>
</g>
<g opacity="0.4">
<path d="M147.63 76.2C147.63 76.2 147.72 76.23 147.76 76.25C147.71 76.32 147.67 76.39 147.63 76.47V76.2Z" fill="#5B5B5B"/>
</g>
<g opacity="0.4">
<path d="M165.07 100.41C165.07 100.46 165.07 100.51 165.06 100.56C164.95 103.18 164.73 106.51 164.58 108.75C164.23 113.61 164 118.49 163.88 123.36C161.11 119.77 160.22 115.15 160.08 110.49C160.04 108.98 160.07 107.47 160.14 105.99C160.23 104.18 160.36 102.35 160.45 100.52C160.67 96.1 160.61 91.7 159.11 87.59C157.82 84.08 155.46 81 152.45 78.77C153.27 79.12 154.06 79.52 154.81 79.98C155.12 80.16 155.41 80.34 155.7 80.55C158.57 82.47 160.93 85.13 162.57 88.19C163.51 89.91 164.22 91.77 164.66 93.69C164.89 94.68 165.04 95.67 165.12 96.67C165.13 96.73 165.13 96.8 165.13 96.9C165.14 96.98 165.15 97.09 165.14 97.2C165.15 97.28 165.15 97.36 165.15 97.46C165.21 98.44 165.18 99.43 165.06 100.41H165.07Z" fill="#5B5B5B"/>
</g>
<path d="M123.3 115.78L123.81 115.65C123.76 115.69 123.71 115.73 123.66 115.76C123.55 115.77 123.42 115.78 123.31 115.78H123.3Z" fill="#C8C8C8"/>
<path d="M149.98 106.14C148.04 99.83 140.12 97.68 135.24 102.12C135.22 102.14 135.2 102.15 135.19 102.17C133.92 103.33 132.68 104.53 131.65 105.92C129.96 108.21 128.74 111.04 126.94 113.17C131.62 109.26 136.05 104.99 141.94 104.89H141.96C142.35 104.88 142.75 104.91 143.15 104.98H143.21C143.21 104.98 147.31 104.55 150.63 109.61C150.63 109.61 150.57 108.08 149.98 106.13V106.14Z" fill="#C8C8C8"/>
<path d="M163.44 37.07C163.29 37.28 163.19 37.52 163.1 37.77C162.34 39.82 161.58 41.87 160.82 43.92C160.53 41.84 159.45 39.88 157.84 38.52C156.36 41.47 155.44 44.7 155.13 47.99C152.86 45.45 151.83 41.86 152.4 38.51C151.12 40.08 150 41.77 149.04 43.56C149.02 42.47 149.08 41.36 149.22 40.27C149.74 35.86 152.56 30.89 156.99 31C160.22 31.08 162.46 33.85 163.44 37.07Z" fill="#C8C8C8"/>
<path d="M63.19 110.38C63.08 110.38 62.97 110.3 62.94 110.19C62.9 110.05 62.98 109.91 63.12 109.87L88.92 102.93C89.06 102.89 89.2 102.97 89.24 103.11C89.28 103.25 89.2 103.39 89.06 103.43L63.26 110.37C63.26 110.37 63.22 110.37 63.19 110.37V110.38Z" fill="#373737"/>
<path d="M68.11 115.68C68.01 115.68 67.92 115.63 67.88 115.53C67.82 115.4 67.88 115.25 68 115.19L90 104.49C90.13 104.43 90.28 104.49 90.34 104.61C90.4 104.74 90.34 104.89 90.22 104.95L68.22 115.65C68.22 115.65 68.15 115.68 68.11 115.68Z" fill="#373737"/>
<path d="M74.0702 119.78C73.9902 119.78 73.9202 119.75 73.8702 119.68C73.7802 119.57 73.8002 119.41 73.9102 119.32L90.9102 105.82C91.0202 105.73 91.1802 105.75 91.2702 105.86C91.3602 105.97 91.3402 106.13 91.2302 106.22L74.2302 119.72C74.2302 119.72 74.1302 119.78 74.0702 119.78Z" fill="#373737"/>
<path d="M104.78 97.54C104.68 97.54 104.59 97.49 104.55 97.39C104.49 97.26 104.55 97.11 104.67 97.05L128.72 85.42C128.85 85.36 129 85.42 129.06 85.54C129.12 85.67 129.06 85.82 128.94 85.88L104.89 97.51C104.89 97.51 104.82 97.54 104.78 97.54Z" fill="#373737"/>
<path d="M104.94 99.44C104.83 99.44 104.72 99.36 104.69 99.25C104.65 99.11 104.73 98.97 104.87 98.93L128.5 92.62C128.64 92.58 128.78 92.66 128.82 92.8C128.86 92.94 128.78 93.08 128.64 93.12L105.01 99.43C105.01 99.43 104.97 99.43 104.94 99.43V99.44Z" fill="#373737"/>
<path d="M105.07 101.06C104.93 101.06 104.82 100.95 104.81 100.81C104.81 100.67 104.91 100.55 105.06 100.54L126.75 99.62C126.89 99.62 127.01 99.72 127.02 99.87C127.03 100.02 126.92 100.13 126.77 100.14L105.08 101.06H105.07Z" fill="#373737"/>
</g>
<g filter="url(#filter3_d_57_8036)">
<path d="M210.9 124.94C209.44 132.71 203.34 138.82 199.48 145.69C197.98 148.34 196.82 151.11 196.39 154.13C194.02 153.88 191.69 153.2 189.56 152.13C187.83 145.51 187.19 137.71 188.99 131.11C190.34 126.19 193.16 121.56 197.12 118.4C198.47 117.33 199.96 116.43 201.57 115.75C203.14 115.09 204.89 114.64 206.54 115.06C208.46 115.55 209.96 117.19 210.64 119.06C211.32 120.92 211.27 122.99 210.9 124.94Z" fill="#FBBE9D"/>
<g opacity="0.5">
<path d="M210.9 124.94C209.44 132.71 203.34 138.82 199.48 145.69C198.68 145.61 197.93 145.3 197.36 144.72C195.63 142.94 196.56 139.91 198.04 137.91C199.92 135.34 202.47 133.34 204.37 130.8C206.28 128.26 207.48 124.78 206.13 121.91C204.66 118.74 200.52 117.54 197.12 118.4C198.47 117.33 199.96 116.43 201.57 115.75C203.14 115.09 204.89 114.64 206.54 115.06C208.46 115.55 209.96 117.19 210.64 119.06C211.32 120.92 211.27 122.99 210.9 124.94Z" fill="#D18D6F"/>
</g>
<path d="M231.63 136.99C230.19 141.47 226.63 144.91 223 147.91C219.33 150.95 215.39 153.78 210.9 155.38C210.14 155.65 209.36 155.88 208.57 156.03C207.6 156.2 206.62 156.23 205.65 156.02C203.9 155.65 202.27 154.28 202.06 152.51L201.92 152.58C204 150.26 205.35 147.38 206.67 144.56C207.83 142.07 208.99 139.59 210.15 137.1C211.82 133.52 213.57 129.84 216.49 127.18C217.81 125.98 219.44 125.03 221.15 124.51C223.23 123.86 225.44 123.85 227.4 124.78C231.65 126.8 233.07 132.51 231.63 136.99Z" fill="#FBBE9D"/>
<g opacity="0.5">
<path d="M231.63 136.99C230.19 141.47 226.63 144.91 223 147.91C219.33 150.95 215.39 153.78 210.9 155.38C210.14 155.65 209.36 155.88 208.57 156.03C208.44 155.78 208.35 155.5 208.33 155.18C208.25 154.15 208.93 153.22 209.65 152.47C213.16 148.83 218.35 147.15 221.77 143.43C225.13 139.78 226.35 134.31 224.88 129.58C224.23 127.53 223.03 125.54 221.15 124.51C223.23 123.86 225.44 123.85 227.4 124.78C231.65 126.8 233.07 132.51 231.63 136.99Z" fill="#D18D6F"/>
</g>
<path d="M209.07 231.81C208.8 228.15 203.37 228.81 200.96 229.24C198.21 229.74 194.78 232.48 197.01 235.46C198.81 237.87 202 237.59 204.43 236.44C206.28 235.56 209.31 234.35 209.07 231.8V231.81Z" fill="#EAA98C"/>
<path d="M213.65 222.76C213.36 226.57 210.63 229.82 207.44 231.92C206.87 232.3 206.28 232.65 205.66 232.95C205.01 233.28 204.33 233.57 203.64 233.78C202.93 234.01 202.2 234.16 201.46 234.23C200.9 234.28 200.35 234.28 199.8 234.22C199.71 234.21 199.61 234.2 199.52 234.19C199.08 234.13 198.66 234.03 198.25 233.9C198.03 233.84 197.82 233.78 197.61 233.7C197.56 233.7 197.52 233.67 197.47 233.65C197.31 233.61 197.15 233.55 197 233.49C196.15 233.15 195.41 232.74 194.76 232.28C194.71 232.25 194.67 232.22 194.63 232.19C193.38 231.27 192.47 230.18 191.82 229.11C191.82 229.11 191.82 229.103 191.82 229.09C191.56 228.67 191.35 228.25 191.17 227.86C190.34 226.08 190.18 224.63 190.18 224.63L190.24 224.58C190.16 224.16 190.11 223.73 190.11 223.29C190.09 221.81 190.59 220.39 191.25 219.05C191.44 218.68 191.64 218.32 191.84 217.96C193.3 215.4 195.18 213.01 197.67 211.42C200.15 209.83 203.3 209.12 206.12 209.97C206.65 210.13 207.15 210.38 207.64 210.65V210.63C207.64 210.63 214.56 213.54 213.66 222.76H213.65Z" fill="#EAA98C"/>
<path d="M245.43 211.81C245.41 211.88 245.4 211.95 245.38 212.02C245.37 212.06 245.36 212.1 245.35 212.15C245.33 212.21 245.32 212.27 245.3 212.33C245.3 212.37 245.28 212.41 245.27 212.44V212.46C245.27 212.46 245.25 212.51 245.25 212.53C244.1 216.4 240.78 217.72 237.29 216C237.08 215.91 236.87 215.79 236.66 215.67C234.91 214.62 232.96 212.84 233.66 210.58C234.25 208.69 236.19 208.29 237.2 206.65C238.93 203.84 240.34 201.12 243.56 200.32C243.94 200.22 244.35 200.15 244.78 200.11C244.39 202.14 245.32 204.15 245.62 206.13C245.91 208.01 245.84 209.95 245.43 211.81Z" fill="#EAA98C"/>
<path d="M198.01 193.42C195.43 192.65 192.54 194.01 191.09 196.23C190.86 196.59 190.66 196.97 190.51 197.36C188.92 199.77 185.43 201.86 185.42 201.87C183.23 202.98 180.79 203.78 178.46 204.51C176.8 205.03 175.06 205.6 173.86 206.87C172.66 208.14 172.26 210.33 173.46 211.59C174.41 212.58 175.98 212.66 177.31 212.34C178.64 212.02 179.87 211.35 181.21 211.07C182.3 210.84 183.43 210.86 184.55 210.88C187.84 210.94 191.2 210.97 194.35 210.02C197.98 208.93 201.35 206.31 202.43 202.67C203.51 199.03 201.65 194.51 198.01 193.42Z" fill="#EAA98C"/>
<path d="M232.88 233.35C232.61 229.69 227.18 230.35 224.77 230.78C222.02 231.28 218.59 234.02 220.82 237C222.62 239.41 225.81 239.13 228.24 237.98C230.09 237.1 233.12 235.89 232.88 233.34V233.35Z" fill="#EAA98C"/>
<path d="M235.98 221.85C232.03 228.04 224.32 232.21 216.54 233.68C211.69 234.6 206.66 233.99 202.26 232.07C196.94 229.74 192.55 225.48 190.55 219.64C190.05 218.17 189.68 216.66 189.44 215.11C189.1 212.88 189.02 210.59 189.16 208.3C189.48 202.95 191.02 197.6 193.25 192.98C196.08 187.15 201.19 181.1 208.17 180.71C209.8 180.62 211.1 181.02 212.27 181.67C213.98 182.64 215.38 184.17 217.07 185.56C219.24 187.35 221.55 188.94 223.86 190.53L223.88 190.55C224.73 191.14 225.58 191.73 226.42 192.32C228.11 193.57 230.34 195.36 232.25 197.35C234.48 199.88 236.27 202.8 237.43 205.95C237.74 206.78 237.98 207.6 238.17 208.41C238.81 211.32 239.18 216.47 235.98 221.85Z" fill="#FBBE9D"/>
<path opacity="0.5" d="M203.1 232.4C200.95 233.24 198.51 231.73 198.44 231.68C197.85 231.26 197.32 230.75 196.88 230.17C196.73 229.96 196.41 229.74 196.26 229.95C196.21 230.03 196.21 230.13 196.22 230.22C196.26 230.52 196.33 230.82 196.43 231.11C194.2 230.36 193.7 228.31 193.6 227.79C193.54 227.15 193.69 226.44 193.95 225.77C192.62 224.12 191.53 222.23 190.75 220.14C190.35 221.15 190.08 222.2 190.1 223.29C190.1 223.73 190.15 224.16 190.23 224.58L190.17 224.63C190.17 224.63 190.33 226.08 191.16 227.86C191.34 228.25 191.55 228.67 191.81 229.09C191.81 229.09 191.81 229.097 191.81 229.11C192.46 230.18 193.37 231.27 194.62 232.19C194.66 232.22 194.7 232.25 194.75 232.28C195.4 232.74 196.13 233.15 196.98 233.48C197.13 233.54 197.29 233.6 197.45 233.65C197.5 233.67 197.54 233.69 197.59 233.7C197.8 233.78 198.01 233.84 198.23 233.9C198.64 234.03 199.06 234.13 199.5 234.19C199.59 234.19 199.69 234.21 199.78 234.22C200.33 234.28 200.88 234.28 201.44 234.23C202.18 234.16 202.91 234.01 203.62 233.78C204.16 233.62 204.69 233.39 205.21 233.15C205 233.08 204.79 233.01 204.58 232.93C204.07 232.77 203.57 232.59 203.08 232.4H203.1Z" fill="#D18D6F"/>
<g opacity="0.5">
<path d="M214.34 183.17C213.68 182.6 213.01 182.08 212.27 181.67C211.1 181.02 209.8 180.62 208.17 180.71C201.19 181.1 196.08 187.15 193.25 192.98C192.35 194.86 191.55 196.86 190.91 198.94C195.73 199.19 200.98 198.24 205.87 194.85C206.35 194.51 206.8 194.12 207.21 193.7C208.84 192.03 212.71 187.74 214.33 183.17H214.34Z" fill="#995248"/>
</g>
<path d="M215.37 179.17C215.17 180.39 214.86 181.58 214.46 182.73C203.96 200.32 188.43 198.87 178.65 195.56C178.37 195.47 178.09 195.38 177.82 195.28C172.3 192.9 168.7 190.02 166.76 188.18H166.75C165.75 187.21 165.2 186.53 165.07 186.37C153.89 171.08 166.05 156.79 167.82 154.85C170.62 152.01 173.72 149.47 177.04 147.54C178.18 146.81 179.37 146.16 180.6 145.6C181.44 145.21 182.31 144.87 183.19 144.57C184.46 144.14 185.77 143.82 187.1 143.61C194.06 142.49 201.54 144.3 206.63 149.15C211.88 154.15 214.07 161.56 215.12 168.74C215.62 172.19 215.91 175.72 215.37 179.17Z" fill="#FBBE9D"/>
<path d="M184.8 179.97C183.09 184.15 178.61 186.64 174.95 185.14C171.29 183.64 169.69 179.08 171.55 174.55C172.85 171.39 176.86 170.03 180.52 171.53C184.18 173.03 186.1 176.81 184.8 179.97Z" fill="white"/>
<path d="M174.47 178.24C174.47 178.24 176.13 179.55 177.69 178.53C177.69 178.53 178.71 180.72 180.43 180.79C180.43 180.79 175.29 183.21 174.47 178.23V178.24Z" fill="#EF598B"/>
<path d="M176.201 179.16C175.491 179.16 174.651 179.02 173.941 178.51C173.031 177.86 172.541 176.77 172.491 175.28C172.481 175 172.701 174.76 172.981 174.75C173.251 174.75 173.501 174.96 173.511 175.24C173.551 176.4 173.901 177.22 174.531 177.68C175.411 178.32 176.681 178.14 177.191 178.04L178.351 175.33C178.461 175.07 178.761 174.95 179.021 175.06C179.281 175.17 179.401 175.47 179.291 175.73L177.941 178.89L177.711 178.96C177.711 178.96 177.031 179.16 176.211 179.16H176.201Z" fill="black"/>
<path d="M180.72 181.13C180.56 181.13 180.4 181.12 180.25 181.09C178.38 180.8 177.3 178.86 177.26 178.77C177.12 178.52 177.22 178.22 177.46 178.08C177.71 177.94 178.02 178.03 178.15 178.28C178.15 178.3 179.05 179.87 180.42 180.08C181.19 180.2 182.01 179.86 182.86 179.06C183.06 178.87 183.39 178.88 183.58 179.08C183.77 179.28 183.76 179.61 183.56 179.8C182.63 180.68 181.68 181.12 180.74 181.12L180.72 181.13Z" fill="black"/>
<path d="M180.55 177.35C180.4 177.35 180.24 177.28 180.14 177.15C178.73 175.28 176.9 175.66 176.88 175.66C176.61 175.72 176.33 175.55 176.27 175.27C176.21 175 176.38 174.72 176.66 174.66C176.76 174.64 179.14 174.15 180.95 176.53C181.12 176.75 181.08 177.07 180.85 177.24C180.76 177.31 180.65 177.34 180.54 177.34L180.55 177.35Z" fill="black"/>
<path d="M177.82 181.99C177.18 181.99 176.6 181.86 176.06 181.59C174.2 180.65 173.73 178.44 173.71 178.35C173.65 178.08 173.83 177.81 174.11 177.75C174.38 177.69 174.65 177.87 174.71 178.15C174.71 178.17 175.11 179.98 176.53 180.69C177.49 181.17 178.73 181.05 180.22 180.35C180.47 180.23 180.78 180.34 180.9 180.59C181.02 180.84 180.91 181.15 180.66 181.27C179.63 181.75 178.69 182 177.83 182L177.82 181.99Z" fill="black"/>
<path d="M172.25 169.79C173.481 169.79 174.48 168.792 174.48 167.56C174.48 166.328 173.481 165.33 172.25 165.33C171.018 165.33 170.02 166.328 170.02 167.56C170.02 168.792 171.018 169.79 172.25 169.79Z" fill="black"/>
<path d="M190.87 178.07C192.101 178.07 193.1 177.072 193.1 175.84C193.1 174.608 192.101 173.61 190.87 173.61C189.638 173.61 188.64 174.608 188.64 175.84C188.64 177.072 189.638 178.07 190.87 178.07Z" fill="black"/>
<g opacity="0.75">
<path d="M245.43 211.81V211.84L245.38 212.02C245.38 212.02 245.36 212.1 245.35 212.15C245.33 212.21 245.32 212.27 245.3 212.33C245.3 212.37 245.28 212.41 245.27 212.44V212.51L245.25 212.53C244.1 216.4 240.78 217.72 237.29 216C237.25 215.84 237.22 215.68 237.19 215.51C236.99 214.27 237.22 212.91 238 211.96C239.87 212.16 241.8 210.8 242.21 208.95C242.47 207.74 242.14 206.48 242.09 205.24C242.02 203.49 242.58 201.76 243.56 200.32C243.94 200.22 244.35 200.15 244.78 200.11C244.39 202.14 245.32 204.15 245.62 206.13C245.91 208.01 245.84 209.95 245.43 211.81Z" fill="#D18D6F"/>
</g>
<g opacity="0.5">
<path d="M235.98 221.85C232.03 228.04 224.32 232.21 216.54 233.68C211.69 234.6 206.66 233.99 202.26 232.07C204.13 232.16 206 232.12 207.85 231.8C211.25 231.23 214.59 229.67 216.69 226.94C217.87 225.4 218.68 223.5 220.28 222.41C221.27 221.74 222.46 221.46 223.61 221.11C226.48 220.24 229.26 218.8 231.18 216.5C233.1 214.19 234 210.9 232.96 208.09C230.24 200.8 217.86 201.66 214.87 194.47C214.28 193.04 214.16 191.44 213.71 189.95C213.25 188.46 212.3 186.96 210.79 186.56L211.35 186.19C211.93 184.77 212.25 183.24 212.27 181.7V181.67C213.98 182.64 215.38 184.17 217.07 185.56C219.24 187.35 221.55 188.94 223.86 190.53L223.88 190.55C224.73 191.14 225.58 191.73 226.42 192.32C228.11 193.57 230.34 195.36 232.25 197.35C234.48 199.88 236.27 202.8 237.43 205.95C237.74 206.78 237.98 207.6 238.17 208.41C238.81 211.32 239.18 216.47 235.98 221.85Z" fill="#D18D6F"/>
</g>
<path d="M215.37 179.17C215.17 180.39 214.86 181.58 214.46 182.73C203.96 200.32 188.43 198.87 178.65 195.56C178.88 195.57 179.11 195.57 179.34 195.57C187.47 195.53 195.34 192.02 201.59 186.82C203.45 185.27 205.21 183.55 206.47 181.49C207.67 179.55 208.4 177.35 208.86 175.12C210.79 165.89 207.89 155.59 200.83 149.34C197.05 145.99 192.12 144 187.1 143.61C194.06 142.49 201.54 144.3 206.63 149.15C211.88 154.15 214.07 161.56 215.12 168.74C215.62 172.19 215.91 175.72 215.37 179.17Z" fill="url(#paint7_linear_57_8036)"/>
<path opacity="0.5" d="M231.64 211.1V211.12C231.16 210.85 230.68 210.62 230.16 210.46C227.43 209.63 224.39 210.32 222 211.86C219.6 213.4 217.78 215.71 216.37 218.18C215.46 219.77 214.69 221.5 214.7 223.33C214.7 223.75 214.75 224.17 214.83 224.58L214.78 224.63C214.78 224.63 215.55 231.69 222.58 233.59C222.98 233.71 223.39 233.81 223.81 233.87C226.5 234.25 229.2 233.18 231.46 231.68C234.54 229.64 237.18 226.51 237.46 222.83C238.33 213.92 231.65 211.11 231.65 211.11L231.64 211.1Z" fill="#995248"/>
<path d="M239.58 222.91C239.29 226.73 236.55 229.97 233.37 232.08C231.02 233.63 228.22 234.74 225.44 234.35C225.01 234.29 224.58 234.19 224.17 234.06C222.2 233.53 220.7 232.6 219.57 231.53C216.52 228.66 216.1 224.79 216.1 224.79L216.15 224.74C216.07 224.31 216.02 223.88 216.02 223.45C216.01 221.56 216.81 219.76 217.75 218.12C219.21 215.56 221.1 213.17 223.58 211.58C226.04 210 229.17 209.28 231.97 210.12C231.99 210.12 232.01 210.12 232.03 210.13C232.23 210.19 232.43 210.26 232.62 210.34C232.94 210.48 233.25 210.64 233.55 210.81V210.79C233.55 210.79 233.74 210.87 234.05 211.04C235.61 211.91 240.32 215.2 239.58 222.91Z" fill="#EAA98C"/>
<g opacity="0.5">
<path d="M239.58 222.91C239.29 226.73 236.55 229.97 233.37 232.08C231.02 233.63 228.22 234.74 225.44 234.35C225.01 234.29 224.58 234.19 224.17 234.06C222.2 233.53 220.7 232.6 219.57 231.53C220.5 231.99 221.56 232.16 222.57 231.93C221.64 230.83 220.64 229.57 220.74 228.1C222.15 229.14 223.61 230.18 225.28 230.6C226.95 231.03 228.88 230.74 230.07 229.44C231.26 228.13 231.32 225.71 229.93 224.64C233.23 224.88 236.28 221.84 236.69 218.38C237.01 215.69 235.9 212.96 234.05 211.04C235.61 211.91 240.32 215.2 239.58 222.91Z" fill="#D18D6F"/>
</g>
<path opacity="0.3" d="M189.16 208.3C189.08 209.59 189.07 210.88 189.14 212.15H189.09C187.86 212.27 186.69 212.74 185.46 212.9C184.23 213.06 182.83 212.83 182.08 211.85C181.12 210.59 181.71 208.66 182.91 207.64C184.11 206.62 185.73 206.28 187.28 205.98C187.99 205.84 188.71 205.7 189.43 205.54C189.31 206.46 189.22 207.38 189.16 208.3Z" fill="#995248"/>
<path opacity="0.5" d="M212.03 210.57C210.4 213.84 206.78 215.76 203.16 216.19C200.01 216.56 196.84 215.97 193.73 215.37C192.68 215.16 191.61 214.95 190.53 214.99C190.16 214.99 189.8 215.05 189.44 215.11C189.1 212.88 189.02 210.59 189.16 208.3C191.45 208.01 193.83 207.66 196.05 206.98C196.06 206.98 199.72 205.58 201.62 203.57C201.83 203.21 202.08 202.89 202.36 202.59C204.11 200.73 207.07 199.92 209.39 201.08C212.65 202.71 213.66 207.31 212.03 210.57Z" fill="#995248"/>
<path d="M175.66 203.89C174.36 203.75 173.22 202.97 172.28 202.06C171.34 201.15 170.56 200.09 169.62 199.19C168.66 198.28 167.54 197.53 166.32 197C167.21 196.17 168.56 195.99 169.75 196.25C170.94 196.52 172 197.16 173.02 197.83C172.8 196.86 172.58 195.89 172.36 194.92C173.94 195.06 175.45 195.93 176.35 197.23C176.28 196.47 176.4 195.7 176.7 195C176.98 196.6 177.25 198.19 177.53 199.79C177.6 200.21 177.68 200.63 177.66 201.06C177.63 202.12 177.01 203.13 176.1 203.66L175.65 203.89H175.66Z" fill="#83B533"/>
<path d="M182.42 205.79L182.62 206.81L182.74 207.42L183.43 210.81L183.55 211.42L183.8 212.67L183.92 213.28L184.43 215.81C184.43 218.41 182.42 216.93 182.42 216.92L182.02 216.55L181.57 216.13L179.02 213.71L178.57 213.29L176.21 211.04L175.76 210.62L175 209.91C174.52 209.46 174.17 208.93 173.94 208.36C173.86 208.17 173.8 207.98 173.76 207.79C173.51 206.8 173.62 205.74 174.07 204.81C174.25 204.43 174.49 204.06 174.8 203.73C175.1 203.4 175.47 203.12 175.9 202.88L176.01 202.82C178.6 201.39 181.84 202.88 182.43 205.8L182.42 205.79Z" fill="#D56A2C"/>
<path d="M175.64 207.07C175.72 207.21 175.66 207.4 175.52 207.47L173.93 208.35C173.85 208.16 173.79 207.97 173.75 207.78L175.24 206.96C175.37 206.89 175.57 206.94 175.64 207.08V207.07Z" fill="#913A13"/>
<path d="M179.73 204.2L177.41 205.48C177.27 205.56 177.09 205.51 177.01 205.36C176.93 205.21 176.98 205.04 177.13 204.96L179.45 203.68C179.59 203.6 179.77 203.65 179.85 203.8C179.93 203.94 179.88 204.12 179.73 204.2Z" fill="#913A13"/>
<path d="M179.68 206.86L177.36 208.14C177.22 208.22 177.04 208.17 176.96 208.02C176.88 207.88 176.93 207.7 177.08 207.62L179.4 206.34C179.54 206.26 179.72 206.31 179.8 206.46C179.88 206.6 179.83 206.78 179.68 206.86Z" fill="#913A13"/>
<path d="M182.62 206.81L182.74 207.42L180.63 208.58C180.49 208.66 180.31 208.61 180.23 208.46C180.15 208.32 180.2 208.14 180.35 208.06L182.62 206.8V206.81Z" fill="#913A13"/>
<path d="M177.67 209.88C177.75 210.02 177.7 210.2 177.55 210.28L176.2 211.03L175.75 210.61L177.27 209.77C177.41 209.69 177.59 209.74 177.67 209.89V209.88Z" fill="#913A13"/>
<path d="M181.439 210.04L179.119 211.32C178.979 211.4 178.799 211.35 178.719 211.2C178.639 211.06 178.689 210.88 178.839 210.8L181.159 209.52C181.299 209.44 181.479 209.49 181.559 209.64C181.639 209.78 181.589 209.96 181.439 210.04Z" fill="#913A13"/>
<path d="M180.63 212.48C180.71 212.62 180.65 212.81 180.51 212.88L179.01 213.71L178.56 213.29L180.22 212.37C180.35 212.3 180.54 212.34 180.62 212.49L180.63 212.48Z" fill="#913A13"/>
<path d="M183.29 215.51C183.36 215.64 183.31 215.84 183.16 215.92L182.01 216.55L181.56 216.13L182.87 215.4C183.01 215.32 183.2 215.37 183.28 215.51H183.29Z" fill="#913A13"/>
<path d="M183.43 210.81L183.55 211.42L182.52 211.99C182.38 212.07 182.19 212.01 182.12 211.87C182.04 211.73 182.09 211.55 182.24 211.47L183.44 210.81H183.43Z" fill="#913A13"/>
<path d="M183.92 213.28L182.23 214.22C182.1 214.29 181.92 214.24 181.84 214.1C181.77 213.97 181.81 213.78 181.95 213.7L183.81 212.67L183.93 213.28H183.92Z" fill="#913A13"/>
<path d="M176.45 203.14C176.53 203.28 176.47 203.47 176.32 203.55L174.06 204.8C174.24 204.42 174.48 204.05 174.79 203.72L176.04 203.03C176.18 202.95 176.37 203 176.45 203.14Z" fill="#913A13"/>
<path d="M208.49 198.4C206.01 197.35 202.99 198.38 201.3 200.43C201.03 200.76 200.79 201.11 200.59 201.49C198.75 203.71 195.04 205.4 195.04 205.41C192.74 206.27 190.23 206.79 187.83 207.26C186.12 207.59 184.33 207.97 183 209.1C181.67 210.23 181.03 212.36 182.08 213.75C182.91 214.84 184.46 215.1 185.82 214.92C187.18 214.74 188.48 214.22 189.84 214.09C190.95 213.98 192.07 214.13 193.18 214.27C196.45 214.7 199.78 215.1 203.02 214.5C206.75 213.82 210.39 211.58 211.86 208.09C213.34 204.59 211.98 199.89 208.49 198.41V198.4Z" fill="#EAA98C"/>
<path d="M172.04 167.56C172.04 167.18 172.35 166.87 172.73 166.87C173.11 166.87 173.42 167.18 173.42 167.56C173.42 167.94 173.11 168.25 172.73 168.25C172.35 168.25 172.04 167.94 172.04 167.56Z" fill="white"/>
<path d="M191.14 175.98C191.14 175.6 191.45 175.29 191.83 175.29C192.21 175.29 192.52 175.6 192.52 175.98C192.52 176.36 192.21 176.67 191.83 176.67C191.45 176.67 191.14 176.36 191.14 175.98Z" fill="white"/>
</g>
<defs>
<filter id="filter0_d_57_8036" x="0" y="0" width="405" height="274" filterUnits="userSpaceOnUse" color-interpolation-filters="sRGB">
<feFlood flood-opacity="0" result="BackgroundImageFix"/>
<feColorMatrix in="SourceAlpha" type="matrix" values="0 0 0 0 0 0 0 0 0 0 0 0 0 0 0 0 0 0 127 0" result="hardAlpha"/>
<feOffset dx="2" dy="2"/>
<feGaussianBlur stdDeviation="2.5"/>
<feComposite in2="hardAlpha" operator="out"/>
<feColorMatrix type="matrix" values="0 0 0 0 0 0 0 0 0 0 0 0 0 0 0 0 0 0 0.25 0"/>
<feBlend mode="normal" in2="BackgroundImageFix" result="effect1_dropShadow_57_8036"/>
<feBlend mode="normal" in="SourceGraphic" in2="effect1_dropShadow_57_8036" result="shape"/>
</filter>
<filter id="filter1_d_57_8036" x="210.704" y="40.1095" width="141.411" height="144.835" filterUnits="userSpaceOnUse" color-interpolation-filters="sRGB">
<feFlood flood-opacity="0" result="BackgroundImageFix"/>
<feColorMatrix in="SourceAlpha" type="matrix" values="0 0 0 0 0 0 0 0 0 0 0 0 0 0 0 0 0 0 127 0" result="hardAlpha"/>
<feOffset/>
<feGaussianBlur stdDeviation="5"/>
<feComposite in2="hardAlpha" operator="out"/>
<feColorMatrix type="matrix" values="0 0 0 0 1 0 0 0 0 1 0 0 0 0 1 0 0 0 1 0"/>
<feBlend mode="normal" in2="BackgroundImageFix" result="effect1_dropShadow_57_8036"/>
<feBlend mode="normal" in="SourceGraphic" in2="effect1_dropShadow_57_8036" result="shape"/>
</filter>
<filter id="filter2_d_57_8036" x="48.0078" y="20.9982" width="133.837" height="137.623" filterUnits="userSpaceOnUse" color-interpolation-filters="sRGB">
<feFlood flood-opacity="0" result="BackgroundImageFix"/>
<feColorMatrix in="SourceAlpha" type="matrix" values="0 0 0 0 0 0 0 0 0 0 0 0 0 0 0 0 0 0 127 0" result="hardAlpha"/>
<feOffset/>
<feGaussianBlur stdDeviation="5"/>
<feComposite in2="hardAlpha" operator="out"/>
<feColorMatrix type="matrix" values="0 0 0 0 1 0 0 0 0 1 0 0 0 0 1 0 0 0 1 0"/>
<feBlend mode="normal" in2="BackgroundImageFix" result="effect1_dropShadow_57_8036"/>
<feBlend mode="normal" in="SourceGraphic" in2="effect1_dropShadow_57_8036" result="shape"/>
</filter>
<filter id="filter3_d_57_8036" x="150.396" y="104.897" width="105.4" height="143.941" filterUnits="userSpaceOnUse" color-interpolation-filters="sRGB">
<feFlood flood-opacity="0" result="BackgroundImageFix"/>
<feColorMatrix in="SourceAlpha" type="matrix" values="0 0 0 0 0 0 0 0 0 0 0 0 0 0 0 0 0 0 127 0" result="hardAlpha"/>
<feOffset/>
<feGaussianBlur stdDeviation="5"/>
<feComposite in2="hardAlpha" operator="out"/>
<feColorMatrix type="matrix" values="0 0 0 0 1 0 0 0 0 1 0 0 0 0 1 0 0 0 1 0"/>
<feBlend mode="normal" in2="BackgroundImageFix" result="effect1_dropShadow_57_8036"/>
<feBlend mode="normal" in="SourceGraphic" in2="effect1_dropShadow_57_8036" result="shape"/>
</filter>
<linearGradient id="paint0_linear_57_8036" x1="252.49" y1="166.94" x2="252.49" y2="140.37" gradientUnits="userSpaceOnUse">
<stop stop-color="#700707"/>
<stop offset="0.06" stop-color="#831B0E"/>
<stop offset="0.14" stop-color="#983116"/>
<stop offset="0.24" stop-color="#A8421C"/>
<stop offset="0.36" stop-color="#B34E20"/>
<stop offset="0.53" stop-color="#BA5523"/>
<stop offset="1" stop-color="#BC5724"/>
</linearGradient>
<linearGradient id="paint1_linear_57_8036" x1="285.43" y1="169.52" x2="257.09" y2="120.43" gradientUnits="userSpaceOnUse">
<stop stop-color="#D56A2C"/>
<stop offset="0.19" stop-color="#D76E31"/>
<stop offset="0.45" stop-color="#DD7D42"/>
<stop offset="0.73" stop-color="#E7945C"/>
<stop offset="1" stop-color="#F4B07D"/>
</linearGradient>
<linearGradient id="paint2_linear_57_8036" x1="273.09" y1="134.5" x2="322.11" y2="134.5" gradientUnits="userSpaceOnUse">
<stop stop-color="#BC5724"/>
<stop offset="0.12" stop-color="#B14F1F"/>
<stop offset="0.39" stop-color="#9F4318"/>
<stop offset="0.68" stop-color="#943C14"/>
<stop offset="1" stop-color="#913A13"/>
</linearGradient>
<linearGradient id="paint3_linear_57_8036" x1="272.76" y1="109.97" x2="272.76" y2="50.16" gradientUnits="userSpaceOnUse">
<stop stop-color="#913A13"/>
<stop offset="0.45" stop-color="#A6481B"/>
<stop offset="1" stop-color="#BC5724"/>
</linearGradient>
<linearGradient id="paint4_linear_57_8036" x1="256.91" y1="174.12" x2="282.17" y2="148.87" gradientUnits="userSpaceOnUse">
<stop stop-color="#700707"/>
<stop offset="0.04" stop-color="#79100A"/>
<stop offset="0.17" stop-color="#912A13"/>
<stop offset="0.31" stop-color="#A43E1B"/>
<stop offset="0.46" stop-color="#B14C20"/>
<stop offset="0.66" stop-color="#B95423"/>
<stop offset="1" stop-color="#BC5724"/>
</linearGradient>
<linearGradient id="paint5_linear_57_8036" x1="285.48" y1="169.35" x2="319.22" y2="169.35" gradientUnits="userSpaceOnUse">
<stop stop-color="#700707"/>
<stop offset="1" stop-color="#BC5724"/>
</linearGradient>
<linearGradient id="paint6_linear_57_8036" x1="287.1" y1="146.7" x2="317.86" y2="146.7" gradientUnits="userSpaceOnUse">
<stop stop-color="#913A13"/>
<stop offset="0.45" stop-color="#A6481B"/>
<stop offset="1" stop-color="#BC5724"/>
</linearGradient>
<linearGradient id="paint7_linear_57_8036" x1="197.16" y1="197.62" x2="197.16" y2="143.29" gradientUnits="userSpaceOnUse">
<stop stop-color="#EAA98C"/>
<stop offset="0.43" stop-color="#EDAD8F"/>
<stop offset="0.9" stop-color="#F7BA99"/>
<stop offset="1" stop-color="#FBBE9D"/>
</linearGradient>
</defs>
</svg>
