<svg width="260" height="50" viewBox="0 0 260 50" fill="none" xmlns="http://www.w3.org/2000/svg">
<g clip-path="url(#clip0_1_44)">
<path d="M5.10955 0H10.1461V20.2312L29.4894 0H42.3363L22.555 19.9422L44.0882 49.1329H31.6792L19.1243 31.7919C16.9345 28.9017 14.8907 27.7457 12.9929 28.396C11.095 29.0462 10.1461 30.2746 10.1461 31.9364V49.1329H0V5.27457C0 2.45665 2.2628 0 5.10955 0Z" fill="#EF7C2E"/>
<path d="M51.4605 0C54.6722 0 56.2051 1.5896 56.1321 4.69653V7.51445H46.424V0H51.4605ZM51.4605 10.9104C54.5992 10.9104 56.1321 12.4277 56.1321 15.5347V49.1329H46.424V10.9104H51.4605Z" fill="#EF7C2E"/>
<path d="M73.1396 16.2572C75.6214 12.2832 79.2711 10.3324 84.0887 10.3324C94.3808 10.6936 99.4903 17.341 99.4903 30.3468C99.4903 43.3526 93.5048 49.4942 81.5339 49.711C69.4899 49.7832 63.4315 44.0751 63.4315 32.5867V0H68.322C71.5338 0 73.1396 1.66185 73.1396 4.84104V16.2572ZM73.1396 29.9133C73.0666 37.6445 75.6944 41.5462 81.2419 41.5462C86.7894 41.5462 89.5632 37.6445 89.5632 29.9133C89.3442 22.5434 86.6434 18.9306 81.3879 18.9306C76.1324 18.9306 73.4316 22.5434 73.1396 29.9133Z" fill="#EF7C2E"/>
<path d="M138.174 33.8873C138.174 40.4624 136.495 44.7977 133.064 46.8931C129.633 48.8439 125.838 49.8555 121.677 49.8555C117.516 49.8555 114.086 48.7717 110.728 46.604C107.37 44.5087 105.691 40.3179 105.691 33.8873V10.9104H115.4V35.8381C115.4 40.1012 117.589 42.1965 121.969 42.1965C126.349 42.1965 128.538 40.1012 128.538 35.8381V15.6792C128.465 12.5 129.998 10.9104 133.21 10.9104H138.174V33.8873Z" fill="#EF7C2E"/>
<path d="M172.189 49.1329C168.977 48.9162 167.371 47.3988 167.371 44.3642V24.711C167.152 20.737 164.962 18.7861 160.656 18.7861C156.349 18.7861 154.159 20.737 154.086 24.711V49.1329H144.232V26.6618C144.232 15.7514 149.78 10.3324 160.802 10.3324C171.824 10.3324 177.225 15.7514 177.152 26.6618V49.1329H172.189Z" fill="#EF7C2E"/>
<path d="M218.978 4.84104V32.5867C218.978 44.0751 212.919 49.7832 200.875 49.711C188.904 49.4942 182.919 43.0636 182.919 30.3468C182.919 17.6301 188.028 10.6936 198.32 10.3324C203.138 10.3324 206.861 12.2832 209.342 16.2572V0H214.16C216.788 0 218.978 2.23988 218.978 4.84104ZM192.919 29.9133C192.846 37.6445 195.474 41.5462 201.021 41.5462C206.569 41.5462 209.342 37.6445 209.342 29.9133C209.123 22.5434 206.423 18.9306 201.167 18.9306C195.912 18.9306 193.211 22.5434 192.919 29.9133Z" fill="#EF7C2E"/>
<path d="M260 30.2023C260 43.3526 254.088 50 242.409 50C230.73 50 224.89 43.3526 224.89 30.2023C224.89 17.052 230.73 10.3324 242.409 10.3324C254.088 10.3324 260 16.9075 260 30.2023ZM234.744 30.2023C234.817 37.6445 237.372 41.4017 242.336 41.4017C247.299 41.4017 249.781 37.5 249.854 29.9133C249.854 22.4711 247.372 18.7861 242.409 18.7861C237.445 18.7861 234.744 22.6156 234.744 30.2023Z" fill="#EF7C2E"/>
</g>
<defs>
<clipPath id="clip0_1_44">
<rect width="260" height="50" fill="white"/>
</clipPath>
</defs>
</svg>
