<svg width="283" height="73" viewBox="0 0 283 73" fill="none" xmlns="http://www.w3.org/2000/svg">
<g filter="url(#filter0_d_46_14384)">
<rect x="3" y="3" width="275" height="65" rx="32.5" fill="#EF7C2E"/>
</g>
<path d="M62.9549 44.2C62.2882 44.2333 61.7715 44.0667 61.4049 43.7C61.0549 43.3167 60.8799 42.8333 60.8799 42.25C60.8799 41.8 61.0049 41.4083 61.2549 41.075C61.5049 40.7417 61.8799 40.5583 62.3799 40.525L63.0799 40.475C63.6799 40.4417 64.1215 40.3 64.4049 40.05C64.6882 39.7833 64.8299 39.35 64.8299 38.75V28.475C64.8299 27.7083 65.0299 27.1333 65.4299 26.75C65.8299 26.35 66.3965 26.15 67.1299 26.15C67.8632 26.15 68.4299 26.35 68.8299 26.75C69.2299 27.1333 69.4299 27.7083 69.4299 28.475V38.675C69.4299 39.825 69.2215 40.8 68.8049 41.6C68.3882 42.3833 67.7632 42.9917 66.9299 43.425C66.1132 43.8417 65.0882 44.0833 63.8549 44.15L62.9549 44.2ZM79.4961 44.275C77.9961 44.275 76.6961 44.0167 75.5961 43.5C74.5128 42.9667 73.6794 42.2167 73.0961 41.25C72.5128 40.2833 72.2211 39.1417 72.2211 37.825C72.2211 36.5583 72.4961 35.45 73.0461 34.5C73.6128 33.5333 74.3794 32.7833 75.3461 32.25C76.3294 31.7 77.4461 31.425 78.6961 31.425C79.6128 31.425 80.4461 31.575 81.1961 31.875C81.9461 32.1583 82.5878 32.5833 83.1211 33.15C83.6544 33.7 84.0544 34.3667 84.3211 35.15C84.6044 35.9333 84.7461 36.8083 84.7461 37.775C84.7461 38.1083 84.6544 38.3583 84.4711 38.525C84.2878 38.675 83.9961 38.75 83.5961 38.75H75.9461V36.65H81.4961L81.0961 36.975C81.0961 36.3583 81.0128 35.8583 80.8461 35.475C80.6794 35.0917 80.4294 34.8 80.0961 34.6C79.7794 34.4 79.3794 34.3 78.8961 34.3C78.3794 34.3 77.9294 34.425 77.5461 34.675C77.1794 34.9083 76.8961 35.2583 76.6961 35.725C76.4961 36.1917 76.3961 36.775 76.3961 37.475V37.7C76.3961 38.8833 76.6544 39.7333 77.1711 40.25C77.7044 40.75 78.5211 41 79.6211 41C79.9878 41 80.4044 40.9583 80.8711 40.875C81.3544 40.775 81.8128 40.6417 82.2461 40.475C82.6794 40.3083 83.0544 40.2833 83.3711 40.4C83.6878 40.5 83.9294 40.6833 84.0961 40.95C84.2794 41.2 84.3794 41.4917 84.3961 41.825C84.4128 42.1417 84.3378 42.4583 84.1711 42.775C84.0044 43.075 83.7294 43.3083 83.3461 43.475C82.7628 43.7417 82.1378 43.9417 81.4711 44.075C80.8211 44.2083 80.1628 44.275 79.4961 44.275ZM93.5156 44.275C92.2656 44.275 91.2323 44.0833 90.4156 43.7C89.6156 43.3167 89.0156 42.7417 88.6156 41.975C88.2156 41.1917 88.0156 40.2167 88.0156 39.05V34.975H87.1656C86.6323 34.975 86.2156 34.8333 85.9156 34.55C85.6323 34.2667 85.4906 33.8583 85.4906 33.325C85.4906 32.7917 85.6323 32.3917 85.9156 32.125C86.2156 31.8417 86.6323 31.7 87.1656 31.7H88.0156V30.15C88.0156 29.4167 88.2073 28.8583 88.5906 28.475C88.974 28.0917 89.524 27.9 90.2406 27.9C90.9573 27.9 91.5073 28.0917 91.8906 28.475C92.274 28.8583 92.4656 29.4167 92.4656 30.15V31.7H94.5156C95.0656 31.7 95.4823 31.8417 95.7656 32.125C96.0656 32.3917 96.2156 32.7917 96.2156 33.325C96.2156 33.8583 96.0656 34.2667 95.7656 34.55C95.4823 34.8333 95.0656 34.975 94.5156 34.975H92.4656V38.9C92.4656 39.5167 92.6073 39.975 92.8906 40.275C93.1906 40.5583 93.6573 40.7 94.2906 40.7C94.524 40.7 94.749 40.675 94.9656 40.625C95.1823 40.575 95.3823 40.55 95.5656 40.55C95.8323 40.5333 96.049 40.6167 96.2156 40.8C96.3823 40.9667 96.4656 41.3583 96.4656 41.975C96.4656 42.475 96.3906 42.9 96.2406 43.25C96.0906 43.5833 95.824 43.825 95.4406 43.975C95.2073 44.0583 94.8906 44.125 94.4906 44.175C94.0906 44.2417 93.7656 44.275 93.5156 44.275ZM99.6578 44C99.2078 44 98.8411 43.8917 98.5578 43.675C98.2745 43.4417 98.0828 43.15 97.9828 42.8C97.8828 42.45 97.8828 42.075 97.9828 41.675C98.0995 41.2583 98.3161 40.875 98.6328 40.525L104.433 33.975V34.975H99.4828C98.9495 34.975 98.5411 34.8333 98.2578 34.55C97.9745 34.2667 97.8328 33.8583 97.8328 33.325C97.8328 32.7917 97.9745 32.3917 98.2578 32.125C98.5411 31.8417 98.9495 31.7 99.4828 31.7H106.558C107.058 31.7 107.466 31.8167 107.783 32.05C108.099 32.2667 108.308 32.55 108.408 32.9C108.524 33.25 108.533 33.625 108.433 34.025C108.333 34.425 108.124 34.8 107.808 35.15L101.858 41.875V40.725H107.183C108.299 40.725 108.858 41.2667 108.858 42.35C108.858 42.8833 108.716 43.2917 108.433 43.575C108.149 43.8583 107.733 44 107.183 44H99.6578ZM117.44 44.275C116.19 44.275 115.157 44.0833 114.34 43.7C113.54 43.3167 112.94 42.7417 112.54 41.975C112.14 41.1917 111.94 40.2167 111.94 39.05V34.975H111.09C110.557 34.975 110.14 34.8333 109.84 34.55C109.557 34.2667 109.415 33.8583 109.415 33.325C109.415 32.7917 109.557 32.3917 109.84 32.125C110.14 31.8417 110.557 31.7 111.09 31.7H111.94V30.15C111.94 29.4167 112.132 28.8583 112.515 28.475C112.899 28.0917 113.449 27.9 114.165 27.9C114.882 27.9 115.432 28.0917 115.815 28.475C116.199 28.8583 116.39 29.4167 116.39 30.15V31.7H118.44C118.99 31.7 119.407 31.8417 119.69 32.125C119.99 32.3917 120.14 32.7917 120.14 33.325C120.14 33.8583 119.99 34.2667 119.69 34.55C119.407 34.8333 118.99 34.975 118.44 34.975H116.39V38.9C116.39 39.5167 116.532 39.975 116.815 40.275C117.115 40.5583 117.582 40.7 118.215 40.7C118.449 40.7 118.674 40.675 118.89 40.625C119.107 40.575 119.307 40.55 119.49 40.55C119.757 40.5333 119.974 40.6167 120.14 40.8C120.307 40.9667 120.39 41.3583 120.39 41.975C120.39 42.475 120.315 42.9 120.165 43.25C120.015 43.5833 119.749 43.825 119.365 43.975C119.132 44.0583 118.815 44.125 118.415 44.175C118.015 44.2417 117.69 44.275 117.44 44.275ZM134.688 44.275C133.955 44.275 133.205 44.2167 132.438 44.1C131.688 44 131.005 43.8083 130.388 43.525C129.972 43.3583 129.672 43.1333 129.488 42.85C129.322 42.5667 129.238 42.2667 129.238 41.95C129.255 41.6333 129.347 41.35 129.513 41.1C129.697 40.8333 129.93 40.65 130.213 40.55C130.513 40.4333 130.847 40.4417 131.213 40.575C131.913 40.825 132.538 41.0083 133.088 41.125C133.655 41.225 134.197 41.275 134.713 41.275C135.33 41.275 135.772 41.1917 136.038 41.025C136.305 40.8417 136.438 40.6083 136.438 40.325C136.438 40.075 136.347 39.8833 136.163 39.75C135.997 39.6167 135.755 39.525 135.438 39.475L132.663 39.025C131.63 38.8417 130.83 38.4667 130.263 37.9C129.697 37.3167 129.413 36.5583 129.413 35.625C129.413 34.7583 129.655 34.0167 130.138 33.4C130.638 32.7667 131.313 32.2833 132.163 31.95C133.03 31.6 134.022 31.425 135.138 31.425C135.888 31.425 136.572 31.4833 137.188 31.6C137.805 31.7 138.405 31.8917 138.988 32.175C139.355 32.325 139.613 32.5417 139.763 32.825C139.913 33.1083 139.972 33.4083 139.938 33.725C139.905 34.025 139.797 34.3083 139.613 34.575C139.447 34.825 139.213 35 138.913 35.1C138.613 35.1833 138.263 35.1583 137.863 35.025C137.313 34.8083 136.822 34.65 136.388 34.55C135.972 34.45 135.58 34.4 135.213 34.4C134.53 34.4 134.047 34.4917 133.763 34.675C133.48 34.8583 133.338 35.0917 133.338 35.375C133.338 35.5917 133.413 35.775 133.563 35.925C133.713 36.0583 133.947 36.15 134.263 36.2L137.038 36.675C138.105 36.8417 138.922 37.2083 139.488 37.775C140.072 38.325 140.363 39.075 140.363 40.025C140.363 41.375 139.847 42.425 138.813 43.175C137.78 43.9083 136.405 44.275 134.688 44.275ZM149.019 44.275C147.769 44.275 146.735 44.0833 145.919 43.7C145.119 43.3167 144.519 42.7417 144.119 41.975C143.719 41.1917 143.519 40.2167 143.519 39.05V34.975H142.669C142.135 34.975 141.719 34.8333 141.419 34.55C141.135 34.2667 140.994 33.8583 140.994 33.325C140.994 32.7917 141.135 32.3917 141.419 32.125C141.719 31.8417 142.135 31.7 142.669 31.7H143.519V30.15C143.519 29.4167 143.71 28.8583 144.094 28.475C144.477 28.0917 145.027 27.9 145.744 27.9C146.46 27.9 147.01 28.0917 147.394 28.475C147.777 28.8583 147.969 29.4167 147.969 30.15V31.7H150.019C150.569 31.7 150.985 31.8417 151.269 32.125C151.569 32.3917 151.719 32.7917 151.719 33.325C151.719 33.8583 151.569 34.2667 151.269 34.55C150.985 34.8333 150.569 34.975 150.019 34.975H147.969V38.9C147.969 39.5167 148.11 39.975 148.394 40.275C148.694 40.5583 149.16 40.7 149.794 40.7C150.027 40.7 150.252 40.675 150.469 40.625C150.685 40.575 150.885 40.55 151.069 40.55C151.335 40.5333 151.552 40.6167 151.719 40.8C151.885 40.9667 151.969 41.3583 151.969 41.975C151.969 42.475 151.894 42.9 151.744 43.25C151.594 43.5833 151.327 43.825 150.944 43.975C150.71 44.0583 150.394 44.125 149.994 44.175C149.594 44.2417 149.269 44.275 149.019 44.275ZM157.988 44.275C157.038 44.275 156.196 44.1 155.463 43.75C154.746 43.4 154.18 42.925 153.763 42.325C153.363 41.7083 153.163 41.0083 153.163 40.225C153.163 39.325 153.396 38.6167 153.863 38.1C154.33 37.5833 155.08 37.2167 156.113 37C157.146 36.7667 158.521 36.65 160.238 36.65H161.613V38.75H160.238C159.588 38.75 159.046 38.8 158.613 38.9C158.196 38.9833 157.888 39.125 157.688 39.325C157.488 39.5083 157.388 39.75 157.388 40.05C157.388 40.4333 157.521 40.75 157.788 41C158.071 41.25 158.471 41.375 158.988 41.375C159.405 41.375 159.771 41.2833 160.088 41.1C160.421 40.9167 160.688 40.6667 160.888 40.35C161.088 40.0167 161.188 39.6333 161.188 39.2V36.3C161.188 35.7 161.03 35.275 160.713 35.025C160.413 34.775 159.888 34.65 159.138 34.65C158.738 34.65 158.288 34.7 157.788 34.8C157.288 34.8833 156.73 35.0417 156.113 35.275C155.663 35.4417 155.28 35.4667 154.963 35.35C154.646 35.2333 154.396 35.0333 154.213 34.75C154.046 34.4667 153.963 34.1583 153.963 33.825C153.98 33.4917 154.088 33.175 154.288 32.875C154.505 32.575 154.83 32.3417 155.263 32.175C156.063 31.875 156.796 31.675 157.463 31.575C158.146 31.475 158.771 31.425 159.338 31.425C160.705 31.425 161.83 31.625 162.713 32.025C163.613 32.4083 164.28 33.0083 164.713 33.825C165.163 34.625 165.388 35.6583 165.388 36.925V41.975C165.388 42.7083 165.213 43.2667 164.863 43.65C164.513 44.0333 164.005 44.225 163.338 44.225C162.655 44.225 162.13 44.0333 161.763 43.65C161.413 43.2667 161.238 42.7083 161.238 41.975V41.325L161.388 41.675C161.305 42.2083 161.113 42.6667 160.813 43.05C160.513 43.4333 160.121 43.7333 159.638 43.95C159.155 44.1667 158.605 44.275 157.988 44.275ZM170.697 44.225C169.964 44.225 169.397 44.0333 168.997 43.65C168.614 43.2667 168.422 42.7083 168.422 41.975V33.7C168.422 32.9833 168.605 32.4333 168.972 32.05C169.355 31.6667 169.897 31.475 170.597 31.475C171.297 31.475 171.83 31.6667 172.197 32.05C172.564 32.4333 172.747 32.9833 172.747 33.7V34.725H172.497C172.664 33.725 173.089 32.9333 173.772 32.35C174.472 31.7667 175.339 31.4583 176.372 31.425C176.855 31.4083 177.214 31.5333 177.447 31.8C177.697 32.05 177.83 32.525 177.847 33.225C177.847 33.825 177.722 34.3 177.472 34.65C177.222 35 176.747 35.2083 176.047 35.275L175.472 35.325C174.589 35.4083 173.947 35.6583 173.547 36.075C173.147 36.475 172.947 37.075 172.947 37.875V41.975C172.947 42.7083 172.755 43.2667 172.372 43.65C171.989 44.0333 171.43 44.225 170.697 44.225ZM186.944 44.275C185.694 44.275 184.661 44.0833 183.844 43.7C183.044 43.3167 182.444 42.7417 182.044 41.975C181.644 41.1917 181.444 40.2167 181.444 39.05V34.975H180.594C180.061 34.975 179.644 34.8333 179.344 34.55C179.061 34.2667 178.919 33.8583 178.919 33.325C178.919 32.7917 179.061 32.3917 179.344 32.125C179.644 31.8417 180.061 31.7 180.594 31.7H181.444V30.15C181.444 29.4167 181.636 28.8583 182.019 28.475C182.403 28.0917 182.953 27.9 183.669 27.9C184.386 27.9 184.936 28.0917 185.319 28.475C185.703 28.8583 185.894 29.4167 185.894 30.15V31.7H187.944C188.494 31.7 188.911 31.8417 189.194 32.125C189.494 32.3917 189.644 32.7917 189.644 33.325C189.644 33.8583 189.494 34.2667 189.194 34.55C188.911 34.8333 188.494 34.975 187.944 34.975H185.894V38.9C185.894 39.5167 186.036 39.975 186.319 40.275C186.619 40.5583 187.086 40.7 187.719 40.7C187.953 40.7 188.178 40.675 188.394 40.625C188.611 40.575 188.811 40.55 188.994 40.55C189.261 40.5333 189.478 40.6167 189.644 40.8C189.811 40.9667 189.894 41.3583 189.894 41.975C189.894 42.475 189.819 42.9 189.669 43.25C189.519 43.5833 189.253 43.825 188.869 43.975C188.636 44.0583 188.319 44.125 187.919 44.175C187.519 44.2417 187.194 44.275 186.944 44.275ZM198.217 44.275C196.717 44.275 195.417 44.0167 194.317 43.5C193.233 42.9667 192.4 42.2167 191.817 41.25C191.233 40.2833 190.942 39.1417 190.942 37.825C190.942 36.5583 191.217 35.45 191.767 34.5C192.333 33.5333 193.1 32.7833 194.067 32.25C195.05 31.7 196.167 31.425 197.417 31.425C198.333 31.425 199.167 31.575 199.917 31.875C200.667 32.1583 201.308 32.5833 201.842 33.15C202.375 33.7 202.775 34.3667 203.042 35.15C203.325 35.9333 203.467 36.8083 203.467 37.775C203.467 38.1083 203.375 38.3583 203.192 38.525C203.008 38.675 202.717 38.75 202.317 38.75H194.667V36.65H200.217L199.817 36.975C199.817 36.3583 199.733 35.8583 199.567 35.475C199.4 35.0917 199.15 34.8 198.817 34.6C198.5 34.4 198.1 34.3 197.617 34.3C197.1 34.3 196.65 34.425 196.267 34.675C195.9 34.9083 195.617 35.2583 195.417 35.725C195.217 36.1917 195.117 36.775 195.117 37.475V37.7C195.117 38.8833 195.375 39.7333 195.892 40.25C196.425 40.75 197.242 41 198.342 41C198.708 41 199.125 40.9583 199.592 40.875C200.075 40.775 200.533 40.6417 200.967 40.475C201.4 40.3083 201.775 40.2833 202.092 40.4C202.408 40.5 202.65 40.6833 202.817 40.95C203 41.2 203.1 41.4917 203.117 41.825C203.133 42.1417 203.058 42.4583 202.892 42.775C202.725 43.075 202.45 43.3083 202.067 43.475C201.483 43.7417 200.858 43.9417 200.192 44.075C199.542 44.2083 198.883 44.275 198.217 44.275ZM208.084 44.225C207.384 44.225 206.842 44.0333 206.459 43.65C206.076 43.2667 205.884 42.7083 205.884 41.975V33.7C205.884 32.9833 206.067 32.4333 206.434 32.05C206.817 31.6667 207.359 31.475 208.059 31.475C208.759 31.475 209.292 31.6667 209.659 32.05C210.026 32.4333 210.209 32.9833 210.209 33.7V34.875L209.934 33.85C210.334 33.0667 210.901 32.4667 211.634 32.05C212.384 31.6333 213.234 31.425 214.184 31.425C215.167 31.425 215.976 31.6167 216.609 32C217.242 32.3667 217.717 32.95 218.034 33.75C218.351 34.5333 218.509 35.525 218.509 36.725V41.975C218.509 42.7083 218.317 43.2667 217.934 43.65C217.551 44.0333 217.001 44.225 216.284 44.225C215.567 44.225 215.017 44.0333 214.634 43.65C214.251 43.2667 214.059 42.7083 214.059 41.975V36.9C214.059 36.15 213.926 35.6167 213.659 35.3C213.409 34.9833 213.034 34.825 212.534 34.825C211.867 34.825 211.334 35.0417 210.934 35.475C210.534 35.8917 210.334 36.4583 210.334 37.175V41.975C210.334 43.475 209.584 44.225 208.084 44.225Z" fill="white"/>
<defs>
<filter id="filter0_d_46_14384" x="0" y="0" width="283" height="73" filterUnits="userSpaceOnUse" color-interpolation-filters="sRGB">
<feFlood flood-opacity="0" result="BackgroundImageFix"/>
<feColorMatrix in="SourceAlpha" type="matrix" values="0 0 0 0 0 0 0 0 0 0 0 0 0 0 0 0 0 0 127 0" result="hardAlpha"/>
<feOffset dx="1" dy="1"/>
<feGaussianBlur stdDeviation="2"/>
<feComposite in2="hardAlpha" operator="out"/>
<feColorMatrix type="matrix" values="0 0 0 0 0 0 0 0 0 0 0 0 0 0 0 0 0 0 0.25 0"/>
<feBlend mode="normal" in2="BackgroundImageFix" result="effect1_dropShadow_46_14384"/>
<feBlend mode="normal" in="SourceGraphic" in2="effect1_dropShadow_46_14384" result="shape"/>
</filter>
</defs>
</svg>
