<svg width="129" height="114" viewBox="0 0 129 114" fill="none" xmlns="http://www.w3.org/2000/svg">
<g filter="url(#filter0_d_95_9439)">
<path d="M80.7212 46.2026C83.438 43.9205 86.2417 41.4863 89.1106 38.9434C107.15 22.8819 120.321 8.25487 118.539 6.25533C116.756 4.2558 100.695 15.6445 82.6556 31.706C79.7867 34.2489 77.0482 36.77 74.4835 39.2042L80.7212 46.2026Z" fill="#FFCC00"/>
<path d="M78.678 47.9196C79.091 47.5718 79.5039 47.2458 79.9169 46.8981L73.7226 39.9432C73.3314 40.3126 72.9402 40.6821 72.5707 41.0516L78.678 47.9196Z" fill="#FFCC00"/>
<path d="M87.7196 65.1113C86.0243 63.5681 83.8944 62.677 81.96 61.4599C80.0257 60.2646 78.1783 58.5693 77.7436 56.3307C77.3741 54.4616 78.0696 52.5707 78.9173 50.832L74.9834 53.1575C74.9617 53.527 74.9182 53.8965 74.8312 54.2659C73.788 59.3083 69.3325 62.9161 61.9429 64.72C56.9006 65.9589 49.4676 66.5892 49.1415 66.6109H48.9242C47.8158 66.6109 46.816 65.872 46.5335 64.7635C46.2292 63.6116 46.7725 62.3945 47.8592 61.8729C48.6417 61.5034 49.511 61.047 49.837 60.8514C49.9022 60.8079 49.9457 60.7644 50.0109 60.6992C51.0759 59.8951 52.0104 58.6562 52.7494 57.0914V57.0696C53.2928 55.9395 53.7492 54.6789 54.2056 53.4618C54.3795 52.9836 54.5533 52.5055 54.7272 52.0491C55.4879 50.0713 56.4877 47.8327 58.5741 46.0939C60.1173 44.7247 62.4863 43.9205 64.9205 43.9205C65.5291 43.9205 66.1593 43.964 66.7462 44.0727L69.8107 40.1822C69.9845 39.9432 70.2236 39.7476 70.4627 39.5954C70.5714 39.4433 70.68 39.3129 70.8104 39.1825C71.2016 38.813 71.5929 38.4435 71.9841 38.074C72.1145 37.9436 72.2666 37.835 72.397 37.748C72.5057 37.5959 72.6144 37.4655 72.7448 37.3351C75.3963 34.8357 78.1566 32.2928 80.982 29.7933C82.5686 28.3806 84.1769 26.9896 85.7418 25.6204C85.4592 24.6641 85.068 23.6861 84.5899 22.6863C76.7656 6.77693 50.7281 6.08144 36.0794 10.2109C27.0162 12.819 18.6051 18.4699 14.041 26.881C1.34827 50.2451 21.2132 79.3471 41.2303 91.127C54.6185 98.9947 75.8093 106.08 87.3936 91.4095C91.61 86.0629 93.1966 78.7385 91.5448 72.1531C90.9145 69.5233 89.7191 66.9369 87.7196 65.1113ZM57.7048 17.5353C62.5515 17.5353 66.4854 21.4692 66.4854 26.3159C66.4854 31.1626 62.5515 35.0965 57.7048 35.0965C52.8581 35.0965 48.9459 31.1626 48.9459 26.3159C48.9459 21.4692 52.8581 17.5353 57.7048 17.5353ZM20.9742 35.0965C20.9742 30.2498 24.908 26.3159 29.7547 26.3159C34.6014 26.3159 38.5353 30.2498 38.5353 35.0965C38.5353 39.9432 34.6014 43.877 29.7547 43.877C24.8863 43.8553 20.9742 39.9432 20.9742 35.0965ZM35.7968 72.5226C30.9501 72.5226 27.0162 68.5887 27.0162 63.742C27.0162 58.8953 30.9501 54.9614 35.7968 54.9614C40.6435 54.9614 44.5774 58.8953 44.5774 63.742C44.5557 68.5887 40.6435 72.5226 35.7968 72.5226ZM57.9873 90.062C53.1406 90.062 49.2067 86.1281 49.2067 81.2814C49.2067 76.4347 53.1406 72.5009 57.9873 72.5009C62.834 72.5009 66.7679 76.4347 66.7679 81.2814C66.7679 86.1281 62.834 90.062 57.9873 90.062Z" fill="#FFCC00"/>
<path d="M72.397 53.7878C72.5274 53.1358 72.5491 52.462 72.4622 51.7883L77.874 48.5716L71.8102 41.7471L67.7459 46.8981C64.6596 45.8114 61.5951 46.7677 60.2259 48.0066C58.661 49.2889 57.8351 51.0059 57.0744 52.9619C56.4224 54.6355 55.8139 56.4829 55.0097 58.1564C54.1621 59.9603 53.0102 61.5686 51.5105 62.6988C51.4453 62.9161 48.9242 64.1115 48.9242 64.1115C48.9242 64.1115 56.4224 63.4812 61.3343 62.2859C66.1158 61.1557 71.3755 58.6997 72.397 53.7878Z" fill="#FFCC00"/>
</g>
<defs>
<filter id="filter0_d_95_9439" x="0" y="0" width="128.746" height="114" filterUnits="userSpaceOnUse" color-interpolation-filters="sRGB">
<feFlood flood-opacity="0" result="BackgroundImageFix"/>
<feColorMatrix in="SourceAlpha" type="matrix" values="0 0 0 0 0 0 0 0 0 0 0 0 0 0 0 0 0 0 127 0" result="hardAlpha"/>
<feOffset dy="4"/>
<feGaussianBlur stdDeviation="5"/>
<feComposite in2="hardAlpha" operator="out"/>
<feColorMatrix type="matrix" values="0 0 0 0 1 0 0 0 0 1 0 0 0 0 1 0 0 0 1 0"/>
<feBlend mode="normal" in2="BackgroundImageFix" result="effect1_dropShadow_95_9439"/>
<feBlend mode="normal" in="SourceGraphic" in2="effect1_dropShadow_95_9439" result="shape"/>
</filter>
</defs>
</svg>
