<svg width="172" height="196" viewBox="0 0 172 196" fill="none" xmlns="http://www.w3.org/2000/svg">
<g clip-path="url(#clip0_95_9450)">
<g filter="url(#filter0_d_95_9450)">
<path d="M64.792 177.472L27.8369 156.071L27.6582 94.5091L64.6193 115.91L64.792 177.472Z" fill="#FFCD00"/>
<path d="M117.625 58.4077L117.661 71.8916L130.912 64.2713L130.948 77.7492L147.237 68.3782L147.409 129.94L64.7919 177.472L64.6191 115.91L80.908 106.539L80.8723 93.0551L94.1177 85.4348L94.0761 71.9569L117.625 58.4077Z" fill="#FFA200"/>
<path d="M159.375 131.477L159.351 139.72L144.116 148.546L144.14 140.302L159.375 131.477Z" fill="#6A9031"/>
<path d="M144.14 140.302L144.116 148.545L130.132 140.498L130.156 132.254L144.14 140.302Z" fill="#95CA45"/>
<path d="M159.374 131.477L144.139 140.302L130.155 132.254L145.39 123.435L159.374 131.477Z" fill="#ACE84F"/>
<path d="M147.129 127.198V128.848C147.123 129.216 146.879 129.584 146.396 129.863C145.42 130.427 143.835 130.427 142.853 129.863C142.358 129.578 142.114 129.204 142.114 128.836V127.186C142.114 127.56 142.364 127.928 142.859 128.213C143.841 128.777 145.426 128.777 146.402 128.213C146.885 127.934 147.129 127.566 147.129 127.198Z" fill="#6A9031"/>
<path d="M146.39 126.171C147.373 126.735 147.379 127.649 146.402 128.213C145.426 128.777 143.841 128.777 142.859 128.213C141.876 127.649 141.876 126.735 142.847 126.171C143.823 125.608 145.402 125.608 146.384 126.171H146.39Z" fill="#95CA45"/>
<path d="M153.942 131.121V132.771C153.936 133.139 153.692 133.507 153.21 133.786C152.239 134.35 150.649 134.35 149.666 133.786C149.172 133.501 148.928 133.127 148.928 132.759V131.109C148.928 131.483 149.178 131.851 149.672 132.136C150.655 132.7 152.239 132.7 153.216 132.136C153.698 131.857 153.942 131.489 153.942 131.121Z" fill="#6A9031"/>
<path d="M153.204 130.088C154.186 130.652 154.192 131.566 153.215 132.13C152.239 132.694 150.655 132.694 149.672 132.13C148.695 131.566 148.689 130.652 149.66 130.088C150.637 129.525 152.221 129.525 153.198 130.088H153.204Z" fill="#95CA45"/>
<path d="M140.596 130.984V132.634C140.596 133.002 140.346 133.37 139.863 133.649C138.886 134.213 137.302 134.213 136.32 133.649C135.825 133.364 135.581 132.99 135.581 132.622V130.973C135.581 131.346 135.831 131.714 136.326 131.999C137.308 132.563 138.892 132.563 139.869 131.999C140.352 131.72 140.596 131.352 140.596 130.984Z" fill="#6A9031"/>
<path d="M139.857 129.952C140.84 130.516 140.84 131.43 139.869 131.993C138.892 132.557 137.308 132.557 136.325 131.993C135.343 131.43 135.343 130.516 136.314 129.952C137.284 129.388 138.869 129.388 139.851 129.952H139.857Z" fill="#95CA45"/>
<path d="M147.409 134.901V136.551C147.409 136.919 147.159 137.287 146.677 137.566C145.7 138.13 144.116 138.13 143.133 137.566C142.639 137.281 142.395 136.907 142.395 136.539V134.89C142.395 135.263 142.645 135.631 143.139 135.916C144.122 136.48 145.706 136.48 146.683 135.916C147.165 135.637 147.409 135.269 147.409 134.901Z" fill="#6A9031"/>
<path d="M146.67 133.875C147.653 134.439 147.659 135.352 146.682 135.916C145.706 136.48 144.121 136.48 143.139 135.916C142.162 135.352 142.156 134.439 143.127 133.875C144.098 133.311 145.688 133.311 146.664 133.875H146.67Z" fill="#95CA45"/>
<path d="M128.56 100.753L128.613 118.136L143.788 109.4L143.741 92.0165L128.56 100.753Z" fill="#80B332"/>
<path d="M127.601 100.207L144.699 90.3726L144.753 109.951L127.654 119.785L127.601 100.207ZM142.395 100.165L142.377 94.3726L137.314 97.2807L137.332 103.073L142.395 100.159M142.418 108.622L142.401 102.83L137.338 105.744L137.356 111.536L142.418 108.622ZM135.004 104.414L134.986 98.6219L129.923 101.536L129.941 107.328L135.004 104.414ZM135.033 112.871L135.015 107.079L129.953 109.993L129.971 115.785L135.033 112.871Z" fill="white"/>
<path d="M51.7674 160.872L51.7436 169.893L27.3848 184L27.4086 174.979L51.7674 160.872Z" fill="#6A9031"/>
<path d="M27.4081 174.979L27.3843 184L12.0781 175.193L12.1079 166.172L27.4081 174.979Z" fill="#95CA45"/>
<path d="M51.7665 160.872L27.4076 174.979L12.1074 166.172L36.4603 152.065L51.7665 160.872Z" fill="#ACE84F"/>
<path d="M38.3553 155.264V157.068C38.3494 157.471 38.0873 157.875 37.5513 158.178C36.4852 158.795 34.7521 158.795 33.6801 158.178C33.1381 157.869 32.8701 157.46 32.8701 157.05V155.246C32.8701 155.655 33.1441 156.059 33.686 156.373C34.7581 156.991 36.4971 156.991 37.5573 156.373C38.0873 156.065 38.3553 155.667 38.3553 155.264Z" fill="#6A9031"/>
<path d="M37.545 154.136C38.617 154.753 38.623 155.756 37.5569 156.373C36.4908 156.991 34.7577 156.991 33.6857 156.373C32.6137 155.756 32.6077 154.753 33.6738 154.136C34.7398 153.519 36.4789 153.519 37.5509 154.136H37.545Z" fill="#95CA45"/>
<path d="M45.8114 159.555V161.359C45.8054 161.762 45.5374 162.166 45.0074 162.469C43.9413 163.086 42.2082 163.086 41.1361 162.469C40.5942 162.16 40.3262 161.75 40.3262 161.347V159.543C40.3262 159.952 40.6001 160.356 41.1421 160.67C42.2141 161.288 43.9532 161.288 45.0133 160.67C45.5434 160.362 45.8114 159.958 45.8114 159.561V159.555Z" fill="#6A9031"/>
<path d="M45.0069 158.427C46.0789 159.044 46.0849 160.047 45.0188 160.664C43.9527 161.282 42.2196 161.282 41.1476 160.664C40.0756 160.047 40.0696 159.044 41.1357 158.427C42.2018 157.81 43.9349 157.81 45.0129 158.427H45.0069Z" fill="#95CA45"/>
<path d="M31.202 159.4V161.204C31.196 161.608 30.928 162.006 30.398 162.314C29.3319 162.931 27.5988 162.931 26.5268 162.314C25.9848 162.006 25.7168 161.596 25.7168 161.187V159.382C25.7168 159.792 25.9908 160.196 26.5327 160.51C27.6048 161.127 29.3379 161.127 30.4039 160.51C30.934 160.201 31.202 159.798 31.202 159.4Z" fill="#6A9031"/>
<path d="M30.3975 158.279C31.4695 158.896 31.4755 159.899 30.4094 160.516C29.3434 161.133 27.6103 161.133 26.5382 160.516C25.4662 159.899 25.4602 158.896 26.5263 158.279C27.5924 157.661 29.3314 157.661 30.4035 158.279H30.3975Z" fill="#95CA45"/>
<path d="M38.6649 163.691V165.495C38.6589 165.899 38.3909 166.302 37.8609 166.605C36.7948 167.222 35.0617 167.222 33.9897 166.605C33.4477 166.291 33.1797 165.887 33.1797 165.477V163.673C33.1797 164.083 33.4537 164.486 33.9956 164.801C35.0676 165.418 36.8008 165.418 37.8728 164.801C38.4028 164.492 38.6649 164.089 38.6708 163.685L38.6649 163.691Z" fill="#6A9031"/>
<path d="M37.8556 162.569C38.9277 163.187 38.9336 164.19 37.8675 164.807C36.8015 165.424 35.0684 165.424 33.9904 164.807C32.9183 164.19 32.9124 163.187 33.9785 162.569C35.0445 161.952 36.7836 161.952 37.8556 162.569Z" fill="#95CA45"/>
<path d="M24.0555 163.543V165.347C24.0496 165.75 23.7816 166.148 23.2515 166.457C22.1854 167.074 20.4523 167.074 19.3803 166.457C18.8383 166.148 18.5703 165.739 18.5703 165.329V163.525C18.5703 163.934 18.8443 164.344 19.3862 164.653C20.4583 165.27 22.1914 165.27 23.2575 164.653C23.7875 164.344 24.0555 163.94 24.0555 163.543Z" fill="#6A9031"/>
<path d="M23.2452 162.415C24.3172 163.032 24.3232 164.035 23.2571 164.653C22.191 165.27 20.4579 165.27 19.3859 164.653C18.3139 164.035 18.3079 163.032 19.374 162.415C20.44 161.798 22.1791 161.798 23.2511 162.415H23.2452Z" fill="#95CA45"/>
<path d="M31.5116 167.834V169.638C31.5056 170.041 31.2376 170.439 30.7076 170.748C29.6415 171.365 27.9084 171.365 26.8363 170.748C26.2944 170.439 26.0264 170.029 26.0264 169.62V167.816C26.0264 168.225 26.3003 168.629 26.8423 168.943C27.9143 169.561 29.6474 169.561 30.7135 168.943C31.2436 168.635 31.5116 168.231 31.5116 167.834Z" fill="#6A9031"/>
<path d="M30.7012 166.712C31.7733 167.329 31.7792 168.332 30.7131 168.949C29.6471 169.567 27.914 169.567 26.8419 168.949C25.7699 168.332 25.764 167.329 26.83 166.712C27.8961 166.095 29.6292 166.095 30.7012 166.712Z" fill="#95CA45"/>
<path d="M146.54 58.0338L109.579 36.6329L122.831 29.0126L159.786 50.4135L146.54 58.0338Z" fill="#FA2D52"/>
<path d="M141.96 45.3334C140.65 46.0871 138.53 46.0871 137.232 45.3334C136.582 44.9595 136.261 44.4669 136.261 43.9743V46.1761C136.267 46.6687 136.594 47.1554 137.237 47.5352C138.536 48.2889 140.656 48.2889 141.966 47.5352C142.627 47.1554 142.955 46.6569 142.955 46.1643V43.9625C142.955 44.461 142.621 44.9595 141.96 45.3393V45.3334Z" fill="#B8233D"/>
<path d="M133.17 40.2413C131.86 40.995 129.746 40.995 128.441 40.2413C127.792 39.8674 127.471 39.3748 127.471 38.8822C127.471 39.6182 127.471 40.3481 127.471 41.0841C127.471 41.5766 127.798 42.0633 128.441 42.4431C129.746 43.1968 131.86 43.1968 133.17 42.4431C133.831 42.0633 134.159 41.5648 134.159 41.0663C134.159 40.3303 134.159 39.5944 134.153 38.8644C134.153 39.363 133.825 39.8615 133.164 40.2413H133.17Z" fill="#B8233D"/>
<path d="M150.757 50.4254C149.447 51.1791 147.327 51.1791 146.028 50.4254C145.379 50.0515 145.058 49.5589 145.058 49.0663V51.2681C145.064 51.7607 145.391 52.2474 146.034 52.6213C147.333 53.375 149.453 53.375 150.763 52.6213C151.424 52.2415 151.752 51.7429 151.752 51.2444V49.0426C151.752 49.5411 151.418 50.0396 150.757 50.4135V50.4254Z" fill="#B8233D"/>
<path d="M124.373 35.1493C123.063 35.903 120.949 35.903 119.645 35.1493C118.995 34.7754 118.674 34.2828 118.674 33.7902C118.674 34.5261 118.674 35.2561 118.68 35.992C118.68 36.4846 119.007 36.9712 119.651 37.3511C120.955 38.1048 123.069 38.1048 124.379 37.3511C125.04 36.9712 125.368 36.4727 125.368 35.9801C125.368 35.2442 125.368 34.5142 125.362 33.7783C125.362 34.2768 125.035 34.7754 124.373 35.1552V35.1493Z" fill="#B8233D"/>
<path d="M150.775 47.6954C149.471 46.9417 147.356 46.9417 146.046 47.6954C144.736 48.4491 144.73 49.6717 146.034 50.4254C147.332 51.1791 149.453 51.1791 150.763 50.4254C152.073 49.6717 152.079 48.4491 150.781 47.6954H150.775Z" fill="#E01F43"/>
<path d="M133.182 37.5113C131.878 36.7576 129.763 36.7576 128.453 37.5113C127.143 38.265 127.137 39.4876 128.441 40.2413C129.746 40.995 131.86 40.995 133.17 40.2413C134.48 39.4876 134.486 38.265 133.188 37.5113H133.182Z" fill="#E01F43"/>
<path d="M141.978 42.6034C140.674 41.8497 138.559 41.8497 137.249 42.6034C135.939 43.3571 135.933 44.5797 137.237 45.3334C138.536 46.0871 140.656 46.0871 141.966 45.3334C143.276 44.5797 143.282 43.3571 141.984 42.6034H141.978Z" fill="#E01F43"/>
<path d="M124.385 32.4192C123.081 31.6655 120.967 31.6655 119.656 32.4192C118.346 33.173 118.34 34.3955 119.644 35.1492C120.949 35.903 123.063 35.903 124.373 35.1492C125.684 34.3955 125.689 33.173 124.391 32.4192H124.385Z" fill="#E01F43"/>
<path d="M133.336 79.1321L130.948 77.7492L130.912 64.2713L133.3 65.6541L133.336 79.1321Z" fill="#E01F43"/>
<path d="M128.846 54.7163L91.8848 33.3094L109.543 23.149L146.505 44.5559L128.846 54.7163Z" fill="#FF4063"/>
<path d="M129.816 38.805C128.506 39.5588 126.385 39.5588 125.087 38.805C124.438 38.4311 124.116 37.9386 124.116 37.446V39.6478C124.122 40.1404 124.45 40.627 125.099 41.0009C126.397 41.7546 128.517 41.7546 129.828 41.0009C130.489 40.6211 130.816 40.1226 130.816 39.63V37.4282C130.816 37.9267 130.483 38.4252 129.822 38.805H129.816Z" fill="#B8233D"/>
<path d="M121.026 33.713C119.716 34.4667 117.601 34.4667 116.297 33.713C115.648 33.3391 115.326 32.8465 115.326 32.3539C115.326 33.0898 115.326 33.8198 115.332 34.5557C115.332 35.0483 115.66 35.535 116.303 35.9148C117.607 36.6685 119.721 36.6685 121.032 35.9148C121.693 35.535 122.02 35.0364 122.02 34.5439C122.02 33.8079 122.02 33.072 122.014 32.342C122.014 32.8406 121.687 33.3391 121.026 33.7189V33.713Z" fill="#B8233D"/>
<path d="M138.613 43.8971C137.302 44.6508 135.182 44.6508 133.884 43.8971C133.235 43.5232 132.913 43.0306 132.913 42.538V44.7398C132.919 45.2324 133.247 45.7191 133.89 46.0989C135.188 46.8526 137.308 46.8526 138.619 46.0989C139.28 45.7191 139.607 45.2205 139.607 44.722V42.5202C139.607 43.0187 139.274 43.5172 138.613 43.8971Z" fill="#B8233D"/>
<path d="M112.229 28.615C110.919 29.3687 108.804 29.3687 107.5 28.615C106.851 28.2411 106.529 27.7485 106.529 27.2559C106.529 27.9918 106.529 28.7218 106.535 29.4577C106.535 29.9503 106.857 30.437 107.506 30.8168C108.81 31.5705 110.925 31.5705 112.235 30.8168C112.896 30.437 113.224 29.9384 113.224 29.4399C113.224 28.704 113.224 27.974 113.224 27.2381C113.224 27.7366 112.896 28.2351 112.235 28.615H112.229Z" fill="#B8233D"/>
<path d="M138.63 41.1671C137.326 40.4134 135.212 40.4134 133.901 41.1671C132.591 41.9208 132.585 43.1434 133.89 43.8971C135.188 44.6508 137.308 44.6508 138.618 43.8971C139.929 43.1434 139.935 41.9208 138.636 41.1671H138.63Z" fill="#E01F43"/>
<path d="M121.038 30.983C119.733 30.2293 117.619 30.2293 116.309 30.983C114.998 31.7367 114.992 32.9593 116.297 33.713C117.601 34.4667 119.715 34.4667 121.026 33.713C122.336 32.9593 122.342 31.7367 121.043 30.983H121.038Z" fill="#E01F43"/>
<path d="M129.833 36.0751C128.529 35.3213 126.415 35.3213 125.105 36.0751C123.794 36.8288 123.788 38.0513 125.093 38.8051C126.391 39.5588 128.511 39.5588 129.822 38.8051C131.132 38.0513 131.138 36.8288 129.839 36.0751H129.833Z" fill="#E01F43"/>
<path d="M112.241 25.885C110.936 25.1313 108.822 25.1313 107.512 25.885C106.202 26.6387 106.196 27.8613 107.5 28.615C108.804 29.3687 110.918 29.3687 112.229 28.615C113.539 27.8613 113.545 26.6387 112.247 25.885H112.241Z" fill="#E01F43"/>
<path d="M122.074 43.4104C120.763 44.1641 118.643 44.1641 117.345 43.4104C116.696 43.0365 116.374 42.544 116.374 42.0514V44.2532C116.38 44.7458 116.708 45.2324 117.357 45.6122C118.655 46.366 120.775 46.366 122.086 45.6122C122.747 45.2324 123.074 44.7339 123.074 44.2413V42.0395C123.074 42.538 122.741 43.0365 122.08 43.4164L122.074 43.4104Z" fill="#B8233D"/>
<path d="M113.278 38.3184C111.967 39.0721 109.853 39.0721 108.549 38.3184C107.9 37.9445 107.578 37.4519 107.578 36.9593C107.578 37.6952 107.578 38.4252 107.584 39.1611C107.584 39.6537 107.912 40.1404 108.555 40.5202C109.859 41.2739 111.973 41.2739 113.284 40.5202C113.945 40.1404 114.272 39.6418 114.272 39.1493C114.272 38.4133 114.272 37.6774 114.266 36.9474C114.266 37.446 113.939 37.9445 113.278 38.3243V38.3184Z" fill="#B8233D"/>
<path d="M130.871 48.5025C129.56 49.2562 127.44 49.2562 126.142 48.5025C125.493 48.1286 125.171 47.636 125.171 47.1434V49.3452C125.177 49.8378 125.504 50.3245 126.148 50.6984C127.446 51.4521 129.566 51.4521 130.876 50.6984C131.538 50.3186 131.865 49.82 131.865 49.3215V47.1197C131.865 47.6182 131.532 48.1167 130.871 48.4906V48.5025Z" fill="#B8233D"/>
<path d="M104.481 33.2263C103.171 33.98 101.056 33.98 99.752 33.2263C99.1029 32.8524 98.7813 32.3598 98.7813 31.8672C98.7813 32.6031 98.7812 33.3331 98.7872 34.069C98.7872 34.5616 99.1148 35.0483 99.758 35.4281C101.062 36.1818 103.177 36.1818 104.487 35.4281C105.148 35.0483 105.475 34.5498 105.475 34.0512C105.475 33.3153 105.475 32.5853 105.475 31.8494C105.475 32.3479 105.148 32.8465 104.487 33.2263H104.481Z" fill="#B8233D"/>
<path d="M130.883 45.7784C129.579 45.0247 127.465 45.0247 126.154 45.7784C124.844 46.5321 124.838 47.7547 126.142 48.5084C127.441 49.2622 129.561 49.2622 130.871 48.5084C132.182 47.7547 132.188 46.5321 130.889 45.7784H130.883Z" fill="#E01F43"/>
<path d="M113.295 35.5884C111.991 34.8346 109.877 34.8346 108.567 35.5884C107.256 36.3421 107.25 37.5647 108.555 38.3184C109.859 39.0721 111.973 39.0721 113.283 38.3184C114.594 37.5647 114.6 36.3421 113.301 35.5884H113.295Z" fill="#E01F43"/>
<path d="M122.092 40.6805C120.788 39.9267 118.674 39.9267 117.363 40.6805C116.053 41.4342 116.047 42.6568 117.351 43.4105C118.65 44.1642 120.77 44.1642 122.08 43.4105C123.391 42.6568 123.397 41.4342 122.092 40.6805Z" fill="#E01F43"/>
<path d="M104.499 30.4963C103.195 29.7426 101.081 29.7426 99.7706 30.4963C98.4603 31.25 98.4544 32.4726 99.7587 33.2263C101.063 33.98 103.177 33.98 104.488 33.2263C105.798 32.4726 105.804 31.25 104.505 30.4963H104.499Z" fill="#E01F43"/>
<path d="M120.055 73.2744L117.667 71.8916L117.625 58.4077L120.013 59.7965L120.055 73.2744Z" fill="#E01F43"/>
<path d="M118.507 47.1553L81.5459 25.7485L91.8493 19.8256L128.81 41.2265L118.507 47.1553Z" fill="#FA2D52"/>
<path d="M113.771 35.8851C112.461 36.6388 110.34 36.6388 109.042 35.8851C108.393 35.5112 108.071 35.0186 108.071 34.526V36.7278C108.077 37.2204 108.405 37.7071 109.048 38.0869C110.346 38.8406 112.467 38.8406 113.777 38.0869C114.438 37.7071 114.766 37.2086 114.766 36.716V34.5142C114.766 35.0127 114.432 35.5112 113.771 35.891V35.8851Z" fill="#B8233D"/>
<path d="M104.975 30.7871C103.665 31.5408 101.55 31.5408 100.246 30.7871C99.597 30.4132 99.2754 29.9206 99.2754 29.428C99.2754 30.1639 99.2754 30.8939 99.2814 31.6298C99.2814 32.1224 99.6089 32.6091 100.252 32.9889C101.556 33.7426 103.671 33.7426 104.981 32.9889C105.642 32.6091 105.97 32.1106 105.97 31.612C105.97 30.8761 105.97 30.1461 105.97 29.4102C105.97 29.9087 105.642 30.4073 104.981 30.7871H104.975Z" fill="#B8233D"/>
<path d="M122.568 40.9772C121.258 41.7309 119.137 41.7309 117.839 40.9772C117.19 40.6033 116.868 40.1107 116.868 39.6181V41.8199C116.874 42.3125 117.202 42.7991 117.845 43.179C119.143 43.9327 121.263 43.9327 122.574 43.179C123.235 42.7991 123.562 42.3006 123.562 41.8021V39.6003C123.562 40.0988 123.229 40.5973 122.568 40.9712V40.9772Z" fill="#B8233D"/>
<path d="M96.1781 25.6951C94.8679 26.4488 92.7536 26.4488 91.4493 25.6951C90.8001 25.3212 90.4785 24.8286 90.4785 24.336C90.4785 25.0719 90.4785 25.8019 90.4845 26.5378C90.4845 27.0304 90.812 27.517 91.4553 27.8969C92.7596 28.6506 94.8738 28.6506 96.1841 27.8969C96.8452 27.517 97.1727 27.0185 97.1727 26.52C97.1727 25.7841 97.1727 25.0541 97.1668 24.3182C97.1668 24.8167 96.8392 25.3152 96.1781 25.6951Z" fill="#B8233D"/>
<path d="M122.58 38.2472C121.276 37.4935 119.162 37.4935 117.852 38.2472C116.541 39.0009 116.535 40.2235 117.84 40.9772C119.138 41.7309 121.258 41.7309 122.569 40.9772C123.879 40.2235 123.885 39.0009 122.586 38.2472H122.58Z" fill="#E01F43"/>
<path d="M104.993 28.0571C103.688 27.3034 101.574 27.3034 100.264 28.0571C98.9535 28.8108 98.9476 30.0334 100.252 30.7871C101.556 31.5408 103.67 31.5408 104.981 30.7871C106.291 30.0334 106.297 28.8108 104.999 28.0571H104.993Z" fill="#E01F43"/>
<path d="M113.784 33.1551C112.479 32.4014 110.365 32.4014 109.055 33.1551C107.745 33.9089 107.739 35.1314 109.043 35.8851C110.347 36.6389 112.461 36.6389 113.772 35.8851C115.082 35.1314 115.088 33.9089 113.79 33.1551H113.784Z" fill="#E01F43"/>
<path d="M96.1967 22.9651C94.8924 22.2114 92.7781 22.2114 91.4679 22.9651C90.1576 23.7188 90.1517 24.9414 91.456 25.6951C92.7603 26.4488 94.8745 26.4488 96.1848 25.6951C97.495 24.9414 97.501 23.7188 96.2027 22.9651H96.1967Z" fill="#E01F43"/>
<path d="M87.6384 78.4199L50.6773 57.019L50.6416 43.5351L87.5967 64.936L87.6384 78.4199Z" fill="#E01F43"/>
<path d="M87.5967 64.936L50.6416 43.5351L60.945 37.6062L97.9061 59.0071L87.5967 64.936Z" fill="#FF4063"/>
<path d="M97.8644 45.5292L60.9033 24.1283L81.5101 12.2765L118.471 33.6774L97.8644 45.5292Z" fill="#FF4063"/>
<path d="M97.9061 59.0071L60.945 37.6062L60.9033 24.1283L97.8644 45.5292L97.9061 59.0071Z" fill="#E01F43"/>
<path d="M70.0213 102.058L33.0602 80.6573L33.0186 67.1793L69.9797 88.5802L70.0213 102.058Z" fill="#E01F43"/>
<path d="M69.9797 88.5803L33.0186 67.1794L50.6772 57.019L87.6383 78.4199L69.9797 88.5803Z" fill="#FF4063"/>
<path d="M56.8114 123.162L19.8503 101.761L19.8086 88.2776L56.7697 109.684L56.8114 123.162Z" fill="#E01F43"/>
<path d="M56.7697 109.684L19.8086 88.2776L33.06 80.6573L70.0211 102.058L56.7697 109.684Z" fill="#FF4063"/>
<path d="M118.471 33.6774L118.506 47.1553L128.81 41.2264L128.845 54.7162L146.504 44.5559L146.54 58.0338L159.785 50.4135L159.827 63.8974L133.336 79.132L133.3 65.6541L120.055 73.2744L120.013 59.7964L96.4703 73.3396L96.506 86.8235L83.2665 94.4379L83.3022 107.922L56.8112 123.162L56.7695 109.684L70.021 102.058L69.9793 88.5802L87.6379 78.4198L87.5963 64.936L97.9056 59.0071L97.8639 45.5292L118.471 33.6774Z" fill="#B8233D"/>
<path d="M80.6937 52.9002C79.3835 53.654 77.2633 53.654 75.9649 52.9002C75.3158 52.5263 74.9941 52.0338 74.9941 51.5412V53.743C75.0001 54.2356 75.3277 54.7222 75.9768 55.1021C77.2752 55.8558 79.3954 55.8558 80.7057 55.1021C81.3667 54.7222 81.6943 54.2237 81.6943 53.7311V51.5293C81.6943 52.0278 81.3608 52.5263 80.6997 52.9062L80.6937 52.9002Z" fill="#B8233D"/>
<path d="M71.8979 47.8081C70.5876 48.5619 68.4733 48.5619 67.169 47.8081C66.5198 47.4343 66.1982 46.9417 66.1982 46.4491C66.1982 47.185 66.1982 47.915 66.1982 48.6509C66.1982 49.1435 66.5258 49.6301 67.169 50.01C68.4733 50.7637 70.5876 50.7637 71.8979 50.01C72.5589 49.6301 72.8865 49.1316 72.8865 48.6331C72.8865 47.8972 72.8865 47.1672 72.8805 46.4313C72.8805 46.9298 72.553 47.4283 71.8919 47.8081H71.8979Z" fill="#B8233D"/>
<path d="M89.4848 57.9923C88.1745 58.746 86.0543 58.746 84.7559 57.9923C84.1068 57.6184 83.7852 57.1258 83.7852 56.6332V58.835C83.7911 59.3276 84.1187 59.8143 84.7619 60.1941C86.0602 60.9478 88.1805 60.9478 89.4907 60.1941C90.1518 59.8143 90.4794 59.3157 90.4794 58.8172V56.6154C90.4794 57.1139 90.1459 57.6125 89.4848 57.9864V57.9923Z" fill="#B8233D"/>
<path d="M63.101 42.7161C61.7907 43.4698 59.6764 43.4698 58.3721 42.7161C57.723 42.3422 57.4014 41.8496 57.4014 41.357C57.4014 42.0929 57.4014 42.8229 57.4073 43.5588C57.4073 44.0514 57.7349 44.5381 58.3781 44.9179C59.6824 45.6716 61.7967 45.6716 63.1069 44.9179C63.768 44.5381 64.0956 44.0396 64.0956 43.547C64.0956 42.811 64.0956 42.0811 64.0956 41.3452C64.0956 41.8437 63.768 42.3422 63.1069 42.722L63.101 42.7161Z" fill="#B8233D"/>
<path d="M89.5033 55.2623C88.199 54.5085 86.0848 54.5085 84.7745 55.2623C83.4643 56.016 83.4583 57.2385 84.7626 57.9923C86.0609 58.746 88.1812 58.746 89.4914 57.9923C90.8017 57.2385 90.8076 56.016 89.5093 55.2623H89.5033Z" fill="#E01F43"/>
<path d="M71.9155 45.0781C70.6112 44.3244 68.4969 44.3244 67.1866 45.0781C65.8764 45.8318 65.8704 47.0544 67.1747 47.8081C68.479 48.5618 70.5933 48.5618 71.9035 47.8081C73.2138 47.0544 73.2198 45.8318 71.9214 45.0781H71.9155Z" fill="#E01F43"/>
<path d="M80.7065 50.1702C79.4022 49.4165 77.2879 49.4165 75.9776 50.1702C74.6674 50.9239 74.6614 52.1465 75.9657 52.9002C77.2641 53.6539 79.3843 53.6539 80.6946 52.9002C82.0048 52.1465 82.0108 50.9239 80.7065 50.1702Z" fill="#E01F43"/>
<path d="M63.1196 39.9861C61.8153 39.2323 59.701 39.2323 58.3907 39.9861C57.0805 40.7398 57.0745 41.9624 58.3788 42.7161C59.6831 43.4698 61.7974 43.4698 63.1076 42.7161C64.4179 41.9624 64.4238 40.7398 63.1255 39.9861H63.1196Z" fill="#E01F43"/>
<path d="M70.849 72.04C69.5388 72.7937 67.4185 72.7937 66.1202 72.04C65.471 71.6661 65.1494 71.1735 65.1494 70.6809V72.8827C65.1554 73.3753 65.4829 73.862 66.1261 74.2418C67.4245 74.9955 69.5447 74.9955 70.855 74.2418C71.5161 73.862 71.8436 73.3635 71.8436 72.8709V70.6691C71.8436 71.1676 71.5101 71.6661 70.849 72.0459V72.04Z" fill="#B8233D"/>
<path d="M62.0531 66.9479C60.7429 67.7016 58.6286 67.7016 57.3243 66.9479C56.6751 66.574 56.3535 66.0814 56.3535 65.5888C56.3535 66.3248 56.3535 67.0547 56.3595 67.7907C56.3595 68.2833 56.687 68.7699 57.3303 69.1497C58.6346 69.9035 60.7488 69.9035 62.0591 69.1497C62.7202 68.7699 63.0477 68.2714 63.0477 67.7729C63.0477 67.0369 63.0477 66.307 63.0477 65.571C63.0477 66.0696 62.7202 66.5681 62.0591 66.9479H62.0531Z" fill="#B8233D"/>
<path d="M79.6459 77.1321C78.3356 77.8858 76.2154 77.8858 74.9171 77.1321C74.2679 76.7582 73.9463 76.2656 73.9463 75.773V77.9748C73.9522 78.4674 74.2798 78.9541 74.923 79.328C76.2214 80.0817 78.3416 80.0817 79.6519 79.328C80.3129 78.9481 80.6405 78.4496 80.6405 77.9511V75.7493C80.6405 76.2478 80.307 76.7463 79.6459 77.1261V77.1321Z" fill="#B8233D"/>
<path d="M53.2562 61.8559C51.946 62.6096 49.8317 62.6096 48.5274 61.8559C47.8782 61.482 47.5566 60.9894 47.5566 60.4968C47.5566 61.2327 47.5566 61.9627 47.5626 62.6986C47.5626 63.1912 47.8902 63.6779 48.5334 64.0577C49.8377 64.8114 51.9519 64.8114 53.2622 64.0577C53.9233 63.6779 54.2509 63.1793 54.2509 62.6808C54.2509 61.9449 54.2509 61.2149 54.2449 60.479C54.2449 60.9775 53.9173 61.4761 53.2562 61.8559Z" fill="#B8233D"/>
<path d="M79.6586 74.4079C78.3543 73.6542 76.24 73.6542 74.9298 74.4079C73.6195 75.1617 73.6136 76.3842 74.9179 77.138C76.2162 77.8917 78.3364 77.8917 79.6467 77.138C80.957 76.3842 80.9629 75.1617 79.6646 74.4079H79.6586Z" fill="#E01F43"/>
<path d="M62.0707 64.2179C60.7664 63.4642 58.6521 63.4642 57.3419 64.2179C56.0316 64.9716 56.0257 66.1942 57.33 66.9479C58.6343 67.7016 60.7486 67.7016 62.0588 66.9479C63.3691 66.1942 63.375 64.9716 62.0767 64.2179H62.0707Z" fill="#E01F43"/>
<path d="M70.8617 69.31C69.5574 68.5563 67.4432 68.5563 66.1329 69.31C64.8227 70.0637 64.8167 71.2863 66.121 72.04C67.4253 72.7937 69.5396 72.7937 70.8498 72.04C72.1601 71.2863 72.166 70.0637 70.8677 69.31H70.8617Z" fill="#E01F43"/>
<path d="M53.2748 59.1258C51.9705 58.3721 49.8563 58.3721 48.546 59.1258C47.2357 59.8796 47.2298 61.1021 48.5341 61.8558C49.8384 62.6096 51.9527 62.6096 53.2629 61.8558C54.5732 61.1021 54.5791 59.8796 53.2808 59.1258H53.2748Z" fill="#E01F43"/>
<path d="M63.101 76.6513C61.7907 77.4051 59.6705 77.4051 58.3721 76.6513C57.723 76.2774 57.4014 75.7849 57.4014 75.2923V77.4941C57.4073 77.9867 57.7349 78.4733 58.3781 78.8531C59.6765 79.6069 61.7967 79.6069 63.1069 78.8531C63.768 78.4733 64.0956 77.9748 64.0956 77.4822V75.2804C64.0956 75.7789 63.7621 76.2774 63.101 76.6573V76.6513Z" fill="#B8233D"/>
<path d="M54.3109 71.5533C53.0007 72.3071 50.8864 72.3071 49.5821 71.5533C48.9329 71.1794 48.6113 70.6868 48.6113 70.1943C48.6113 70.9302 48.6113 71.6602 48.6173 72.3961C48.6173 72.8887 48.9448 73.3753 49.5881 73.7551C50.8924 74.5089 53.0066 74.5089 54.3169 73.7551C54.978 73.3753 55.3055 72.8768 55.3055 72.3783C55.3055 71.6424 55.3055 70.9064 55.3055 70.1765C55.3055 70.675 54.978 71.1735 54.3169 71.5533H54.3109Z" fill="#B8233D"/>
<path d="M71.8979 81.7434C70.5876 82.4971 68.4674 82.4971 67.169 81.7434C66.5198 81.3695 66.1982 80.8769 66.1982 80.3843V82.5861C66.2042 83.0787 66.5318 83.5654 67.175 83.9452C68.4733 84.6989 70.5936 84.6989 71.9038 83.9452C72.5649 83.5654 72.8925 83.0669 72.8925 82.5683V80.3665C72.8925 80.865 72.5589 81.3636 71.8979 81.7375V81.7434Z" fill="#B8233D"/>
<path d="M45.5141 66.4613C44.2038 67.215 42.0895 67.215 40.7852 66.4613C40.1361 66.0874 39.8145 65.5948 39.8145 65.1022C39.8145 65.8381 39.8145 66.5681 39.8204 67.304C39.8204 67.7966 40.148 68.2833 40.7912 68.6631C42.0955 69.4168 44.2098 69.4168 45.52 68.6631C46.1811 68.2833 46.5087 67.7847 46.5087 67.2921C46.5087 66.5562 46.5087 65.8262 46.5027 65.0903C46.5027 65.5889 46.1751 66.0874 45.5141 66.4672V66.4613Z" fill="#B8233D"/>
<path d="M71.9155 79.0133C70.6112 78.2596 68.4969 78.2596 67.1866 79.0133C65.8764 79.7671 65.8704 80.9896 67.1747 81.7434C68.4731 82.4971 70.5933 82.4971 71.9035 81.7434C73.2138 80.9896 73.2198 79.7671 71.9214 79.0133H71.9155Z" fill="#E01F43"/>
<path d="M54.3227 68.8293C53.0184 68.0755 50.9041 68.0755 49.5938 68.8293C48.2836 69.583 48.2776 70.8056 49.5819 71.5593C50.8862 72.313 53.0005 72.313 54.3108 71.5593C55.621 70.8056 55.627 69.583 54.3286 68.8293H54.3227Z" fill="#E01F43"/>
<path d="M63.1186 73.9213C61.8143 73.1676 59.7 73.1676 58.3897 73.9213C57.0795 74.675 57.0735 75.8976 58.3778 76.6513C59.6762 77.405 61.7964 77.405 63.1067 76.6513C64.4169 75.8976 64.4229 74.675 63.1245 73.9213H63.1186Z" fill="#E01F43"/>
<path d="M45.5258 63.7312C44.2215 62.9775 42.1072 62.9775 40.797 63.7312C39.4867 64.485 39.4808 65.7075 40.7851 66.4613C42.0894 67.215 44.2036 67.215 45.5139 66.4613C46.8241 65.7075 46.8301 64.485 45.5318 63.7312H45.5258Z" fill="#E01F43"/>
<path d="M100.579 27.8969C99.2692 28.6507 97.149 28.6507 95.8507 27.8969C95.2015 27.523 94.8799 27.0305 94.8799 26.5379V28.7397C94.8858 29.2323 95.2134 29.7189 95.8566 30.0987C97.155 30.8525 99.2752 30.8525 100.585 30.0987C101.247 29.7189 101.574 29.2204 101.574 28.7278V26.526C101.574 27.0245 101.241 27.523 100.579 27.9029V27.8969Z" fill="#B8233D"/>
<path d="M91.7836 22.8049C90.4733 23.5586 88.3591 23.5586 87.0548 22.8049C86.4056 22.431 86.084 21.9384 86.084 21.4458C86.084 22.1817 86.084 22.9117 86.084 23.6476C86.084 24.1402 86.4116 24.6268 87.0548 25.0067C88.3591 25.7604 90.4733 25.7604 91.7836 25.0067C92.4447 24.6268 92.7722 24.1283 92.7722 23.6298C92.7722 22.8939 92.7722 22.158 92.7722 21.428C92.7722 21.9265 92.4447 22.425 91.7836 22.8049Z" fill="#B8233D"/>
<path d="M109.376 32.989C108.066 33.7427 105.946 33.7427 104.648 32.989C103.998 32.6151 103.677 32.1225 103.677 31.6299V33.8317C103.683 34.3243 104.01 34.811 104.653 35.1908C105.952 35.9445 108.072 35.9445 109.382 35.1908C110.043 34.811 110.371 34.3125 110.371 33.8139V31.6121C110.371 32.1106 110.037 32.6092 109.376 32.9831V32.989Z" fill="#B8233D"/>
<path d="M82.9926 17.7128C81.6823 18.4665 79.5681 18.4665 78.2638 17.7128C77.6146 17.3389 77.293 16.8463 77.293 16.3537C77.293 17.0896 77.293 17.8196 77.2989 18.5555C77.2989 19.0481 77.6265 19.5407 78.2697 19.9146C79.574 20.6683 81.6883 20.6683 82.9985 19.9146C83.6596 19.5348 83.9872 19.0363 83.9872 18.5437C83.9872 17.8078 83.9872 17.0778 83.9812 16.3419C83.9812 16.8404 83.6537 17.3389 82.9926 17.7187V17.7128Z" fill="#B8233D"/>
<path d="M109.388 30.2649C108.084 29.5112 105.97 29.5112 104.659 30.2649C103.349 31.0186 103.343 32.2412 104.647 32.9949C105.946 33.7486 108.066 33.7486 109.376 32.9949C110.686 32.2412 110.692 31.0186 109.394 30.2649H109.388Z" fill="#E01F43"/>
<path d="M91.8012 20.0748C90.4969 19.3211 88.3826 19.3211 87.0724 20.0748C85.7621 20.8285 85.7562 22.0511 87.0604 22.8048C88.3647 23.5585 90.479 23.5585 91.7893 22.8048C93.0995 22.0511 93.1055 20.8285 91.8071 20.0748H91.8012Z" fill="#E01F43"/>
<path d="M100.597 25.1669C99.2928 24.4132 97.1785 24.4132 95.8683 25.1669C94.558 25.9206 94.5521 27.1432 95.8564 27.8969C97.1547 28.6506 99.2749 28.6506 100.585 27.8969C101.895 27.1432 101.901 25.9206 100.603 25.1669H100.597Z" fill="#E01F43"/>
<path d="M83.0043 14.9828C81.7 14.2291 79.5857 14.2291 78.2755 14.9828C76.9652 15.7365 76.9593 16.9591 78.2636 17.7128C79.5679 18.4665 81.6821 18.4665 82.9924 17.7128C84.3027 16.9591 84.3086 15.7365 83.0043 14.9828Z" fill="#E01F43"/>
<path d="M92.8373 32.5082C91.527 33.2619 89.4068 33.2619 88.1085 32.5082C87.4593 32.1343 87.1377 31.6417 87.1377 31.1491V33.351C87.1437 33.8435 87.4712 34.3302 88.1144 34.71C89.4128 35.4637 91.533 35.4637 92.8433 34.71C93.5043 34.3302 93.8319 33.8317 93.8319 33.3391V31.1373C93.8319 31.6358 93.4984 32.1343 92.8373 32.5141V32.5082Z" fill="#B8233D"/>
<path d="M84.0414 27.4162C82.7312 28.1699 80.6169 28.1699 79.3126 27.4162C78.6634 27.0423 78.3418 26.5497 78.3418 26.0571C78.3418 26.793 78.3418 27.523 78.3418 28.2589C78.3418 28.7515 78.6694 29.2381 79.3126 29.618C80.6169 30.3717 82.7312 30.3717 84.0414 29.618C84.7025 29.2381 85.0301 28.7396 85.0301 28.247C85.0301 27.5111 85.0301 26.7752 85.0301 26.0452C85.0301 26.5438 84.7025 27.0423 84.0414 27.4221V27.4162Z" fill="#B8233D"/>
<path d="M101.634 37.6003C100.324 38.354 98.2037 38.354 96.9054 37.6003C96.2562 37.2264 95.9346 36.7338 95.9346 36.2412V38.443C95.9405 38.9356 96.2681 39.4222 96.9113 39.8021C98.2096 40.5558 100.33 40.5558 101.64 39.8021C102.301 39.4222 102.629 38.9237 102.629 38.4252V36.2234C102.629 36.7219 102.295 37.2204 101.634 37.6003Z" fill="#B8233D"/>
<path d="M75.2445 22.3181C73.9343 23.0719 71.82 23.0719 70.5157 22.3181C69.8665 21.9443 69.5449 21.4517 69.5449 20.9591C69.5449 21.695 69.5449 22.425 69.5509 23.1609C69.5509 23.6535 69.8784 24.1401 70.5217 24.52C71.826 25.2737 73.9402 25.2737 75.2505 24.52C75.9116 24.1401 76.2391 23.6416 76.2391 23.149C76.2391 22.4131 76.2391 21.6831 76.2332 20.9472C76.2332 21.4457 75.9056 21.9443 75.2445 22.3241V22.3181Z" fill="#B8233D"/>
<path d="M101.647 34.8703C100.343 34.1166 98.2283 34.1166 96.9181 34.8703C95.6078 35.624 95.6019 36.8466 96.9062 37.6003C98.2045 38.354 100.325 38.354 101.635 37.6003C102.945 36.8466 102.951 35.624 101.653 34.8703H101.647Z" fill="#E01F43"/>
<path d="M84.059 24.6861C82.7547 23.9324 80.6404 23.9324 79.3302 24.6861C78.0199 25.4399 78.014 26.6624 79.3183 27.4161C80.6226 28.1699 82.7368 28.1699 84.0471 27.4161C85.3573 26.6624 85.3633 25.4399 84.065 24.6861H84.059Z" fill="#E01F43"/>
<path d="M92.85 29.7782C91.5457 29.0245 89.4314 29.0245 88.1212 29.7782C86.8109 30.532 86.805 31.7545 88.1093 32.5082C89.4136 33.262 91.5279 33.262 92.8381 32.5082C94.1484 31.7545 94.1543 30.532 92.856 29.7782H92.85Z" fill="#E01F43"/>
<path d="M75.2631 19.5941C73.9588 18.8404 71.8445 18.8404 70.5343 19.5941C69.224 20.3478 69.2181 21.5704 70.5224 22.3241C71.8267 23.0778 73.9409 23.0778 75.2512 22.3241C76.5614 21.5704 76.5674 20.3478 75.2691 19.5941H75.2631Z" fill="#E01F43"/>
<path d="M51.6654 95.9216C50.3552 96.6753 48.2349 96.6753 46.9366 95.9216C46.2874 95.5477 45.9658 95.0551 45.9658 94.5626V96.7644C45.9718 97.2569 46.2993 97.7436 46.9426 98.1234C48.2409 98.8772 50.3611 98.8772 51.6714 98.1234C52.3325 97.7436 52.66 97.2451 52.66 96.7466V94.5447C52.66 95.0433 52.3265 95.5418 51.6654 95.9216Z" fill="#B8233D"/>
<path d="M42.8754 90.8295C41.5651 91.5832 39.4509 91.5832 38.1466 90.8295C37.4974 90.4556 37.1758 89.963 37.1758 89.4704C37.1758 90.2064 37.1758 90.9363 37.1758 91.6722C37.1758 92.1648 37.5033 92.6574 38.1466 93.0313C39.4509 93.785 41.5651 93.785 42.8754 93.0313C43.5365 92.6515 43.864 92.153 43.864 91.6544C43.864 90.9185 43.864 90.1826 43.864 89.4526C43.864 89.9512 43.5365 90.4497 42.8754 90.8295Z" fill="#B8233D"/>
<path d="M60.4623 101.014C59.152 101.767 57.0318 101.767 55.7335 101.014C55.0843 100.64 54.7627 100.147 54.7627 99.6546V101.856C54.7687 102.349 55.0962 102.836 55.7394 103.21C57.0378 103.963 59.158 103.963 60.4683 103.21C61.1293 102.83 61.4569 102.331 61.4569 101.833V99.6309C61.4569 100.129 61.1234 100.628 60.4623 101.002V101.014Z" fill="#B8233D"/>
<path d="M34.0785 85.7375C32.7683 86.4912 30.654 86.4912 29.3497 85.7375C28.7005 85.3636 28.3789 84.871 28.3789 84.3784C28.3789 85.1143 28.3789 85.8443 28.3849 86.5802C28.3849 87.0728 28.7124 87.5595 29.3556 87.9393C30.6599 88.693 32.7742 88.693 34.0845 87.9393C34.7456 87.5595 35.0731 87.0609 35.0731 86.5624C35.0731 85.8265 35.0731 85.0965 35.0672 84.3606C35.0672 84.8591 34.7396 85.3576 34.0785 85.7375Z" fill="#B8233D"/>
<path d="M60.4799 98.2837C59.1756 97.53 57.0613 97.53 55.7511 98.2837C54.4408 99.0374 54.4349 100.26 55.7392 101.014C57.0375 101.767 59.1577 101.767 60.468 101.014C61.7782 100.26 61.7842 99.0374 60.4859 98.2837H60.4799Z" fill="#E01F43"/>
<path d="M42.8871 88.0995C41.5828 87.3458 39.4686 87.3458 38.1583 88.0995C36.848 88.8533 36.8421 90.0758 38.1464 90.8295C39.4507 91.5833 41.565 91.5833 42.8752 90.8295C44.1855 90.0758 44.1914 88.8533 42.8931 88.0995H42.8871Z" fill="#E01F43"/>
<path d="M51.683 93.1916C50.3787 92.4379 48.2645 92.4379 46.9542 93.1916C45.6439 93.9454 45.638 95.1679 46.9423 95.9216C48.2466 96.6754 50.3609 96.6754 51.6711 95.9216C52.9814 95.1679 52.9873 93.9454 51.689 93.1916H51.683Z" fill="#E01F43"/>
<path d="M34.0903 83.0075C32.786 82.2538 30.6717 82.2538 29.3614 83.0075C28.0512 83.7612 28.0452 84.9838 29.3495 85.7375C30.6538 86.4912 32.7681 86.4912 34.0783 85.7375C35.3886 84.9838 35.3946 83.7612 34.0962 83.0075H34.0903Z" fill="#E01F43"/>
<path d="M127.351 88.9363L101.753 103.667L101.908 156.124L127.499 141.394L127.351 88.9363Z" fill="#80B332"/>
<path d="M131.419 148.261L123.522 143.691L123.367 90.3607L131.27 94.9364L131.419 148.261Z" fill="#E01F43"/>
<path d="M101.753 165.329L93.8562 160.753L93.6895 102.533L101.593 107.109L101.753 165.329Z" fill="#E01F43"/>
<path d="M101.593 107.109L93.6895 102.533L128.28 82.6335L136.177 87.2093L101.593 107.109Z" fill="#FF4063"/>
<path d="M136.178 87.2093L136.344 145.43L131.419 148.261L131.27 94.9364L106.53 109.168L106.679 162.492L101.754 165.329L101.593 107.109L136.178 87.2093Z" fill="#B8233D"/>
<path d="M73.0166 132.717L73.0642 150.1L88.2453 141.37L88.1977 123.987L73.0166 132.717Z" fill="#80B332"/>
<path d="M72.0576 132.171L89.1564 122.337L89.21 141.916L72.1112 151.756L72.0576 132.171ZM86.8516 132.13L86.8337 126.337L81.7714 129.246L81.7892 135.038L86.8516 132.13ZM86.8754 140.587L86.8575 134.795L81.7952 137.709L81.8131 143.501L86.8754 140.593M79.4606 136.379L79.4427 130.587L74.3803 133.501L74.3982 139.293L79.4606 136.379ZM79.4844 144.836L79.4665 139.044L74.4042 141.952L74.422 147.744L79.4844 144.83" fill="white"/>
<path d="M104.118 162.653L104.094 170.896L88.8594 179.721L88.8772 171.478L104.118 162.653Z" fill="#6A9031"/>
<path d="M88.877 171.478L88.8591 179.721L74.8691 171.673L74.893 163.43L88.877 171.478Z" fill="#95CA45"/>
<path d="M104.117 162.652L88.8766 171.478L74.8926 163.43L90.1273 154.611L104.117 162.652Z" fill="#ACE84F"/>
<path d="M91.8721 158.374V160.023C91.8662 160.391 91.622 160.759 91.1396 161.038C90.1628 161.602 88.5786 161.602 87.5959 161.038C87.1016 160.753 86.8574 160.379 86.8574 160.012V158.362C86.8574 158.736 87.1076 159.109 87.6019 159.388C88.5846 159.952 90.1688 159.952 91.1455 159.388C91.6279 159.109 91.8721 158.741 91.8721 158.374Z" fill="#6A9031"/>
<path d="M91.1277 157.347C92.1104 157.911 92.1163 158.825 91.1396 159.388C90.1628 159.952 88.5786 159.952 87.5959 159.388C86.6132 158.825 86.6132 157.911 87.584 157.347C88.5608 156.783 90.139 156.783 91.1217 157.347H91.1277Z" fill="#95CA45"/>
<path d="M98.6856 162.296V163.946C98.6856 164.314 98.4355 164.682 97.953 164.961C96.9823 165.525 95.3921 165.525 94.4094 164.961C93.9151 164.676 93.6709 164.308 93.6709 163.934V162.285C93.6709 162.658 93.921 163.026 94.4154 163.311C95.3981 163.875 96.9823 163.875 97.959 163.311C98.4414 163.032 98.6856 162.664 98.6856 162.296Z" fill="#6A9031"/>
<path d="M97.9467 161.264C98.9294 161.828 98.9354 162.742 97.9586 163.311C96.9819 163.875 95.3977 163.875 94.415 163.311C93.4383 162.747 93.4323 161.834 94.4031 161.264C95.3798 160.7 96.964 160.7 97.9408 161.264H97.9467Z" fill="#95CA45"/>
<path d="M85.3389 162.154V163.804C85.3389 164.172 85.0888 164.54 84.6064 164.819C83.6296 165.382 82.0454 165.382 81.0627 164.819C80.5684 164.534 80.3242 164.16 80.3242 163.792V162.142C80.3242 162.516 80.5744 162.884 81.0687 163.169C82.0514 163.733 83.6356 163.733 84.6123 163.169C85.0947 162.89 85.3389 162.522 85.3389 162.154Z" fill="#6A9031"/>
<path d="M84.5945 161.127C85.5772 161.691 85.5831 162.605 84.6064 163.169C83.6296 163.733 82.0454 163.733 81.0627 163.169C80.08 162.605 80.08 161.691 81.0508 161.127C82.0216 160.563 83.6118 160.563 84.5885 161.127H84.5945Z" fill="#95CA45"/>
<path d="M92.1524 166.077V167.727C92.1524 168.095 91.9023 168.463 91.4198 168.742C90.4431 169.305 88.8589 169.305 87.8762 168.742C87.3819 168.457 87.1377 168.089 87.1377 167.715V166.065C87.1377 166.439 87.3878 166.807 87.8822 167.092C88.8648 167.656 90.4491 167.656 91.4258 167.092C91.9082 166.813 92.1524 166.445 92.1524 166.077Z" fill="#6A9031"/>
<path d="M91.4135 165.05C92.3962 165.614 92.4022 166.528 91.4254 167.092C90.4487 167.656 88.8645 167.656 87.8818 167.092C86.9051 166.528 86.8991 165.614 87.8699 165.05C88.8407 164.486 90.4308 164.486 91.4076 165.05H91.4135Z" fill="#95CA45"/>
<path d="M76.8587 62.6926L76.8289 72.1586L59.3311 82.2893L59.3608 72.8233L76.8587 62.6926Z" fill="#6A9031"/>
<path d="M59.3608 72.8233L59.331 82.2893L43.2744 73.0488L43.2982 63.5828L59.3608 72.8233Z" fill="#95CA45"/>
<path d="M76.8582 62.6926L59.3604 72.8233L43.2979 63.5829L60.7957 53.4521L76.8582 62.6926Z" fill="#ACE84F"/>
<path d="M62.7963 57.7727V59.6659C62.7903 60.0873 62.5104 60.5086 61.9565 60.8291C60.8368 61.476 59.0144 61.476 57.8888 60.8291C57.323 60.5027 57.0371 60.0754 57.0431 59.6481V57.7549C57.0431 58.1822 57.3289 58.6095 57.8947 58.9359C59.0204 59.5828 60.8428 59.5828 61.9625 58.9359C62.5164 58.6154 62.7963 58.1941 62.7963 57.7727Z" fill="#6A9031"/>
<path d="M61.9447 56.5917C63.0703 57.2386 63.0763 58.289 61.9626 58.9359C60.8429 59.5828 59.0205 59.5828 57.8948 58.9359C56.7692 58.289 56.7632 57.2386 57.8829 56.5917C59.0026 55.9448 60.8191 55.9448 61.9447 56.5917Z" fill="#95CA45"/>
<path d="M70.6224 62.2772V64.1704C70.6165 64.5918 70.3366 65.0132 69.7827 65.3336C68.663 65.9805 66.8406 65.9805 65.7149 65.3336C65.1492 65.0072 64.8633 64.5799 64.8692 64.1526V62.2594C64.8692 62.6867 65.1551 63.114 65.7209 63.4404C66.8465 64.0873 68.669 64.0873 69.7886 63.4404C70.3425 63.1199 70.6224 62.6986 70.6224 62.2772Z" fill="#6A9031"/>
<path d="M69.771 61.0962C70.8966 61.7431 70.9026 62.7935 69.7829 63.4464C68.6632 64.0933 66.8408 64.0933 65.7151 63.4464C64.5895 62.7995 64.5836 61.749 65.7032 61.0962C66.8229 60.4493 68.6454 60.4493 69.771 61.0962Z" fill="#95CA45"/>
<path d="M55.2923 62.123V64.0162C55.2863 64.4375 55.0064 64.8589 54.4525 65.1794C53.3328 65.8263 51.5104 65.8263 50.3848 65.1794C49.819 64.853 49.5391 64.4257 49.5391 63.9984V62.1052C49.5391 62.5325 49.8249 62.9598 50.3907 63.2862C51.5164 63.9331 53.3388 63.9331 54.4585 63.2862C55.0124 62.9657 55.2923 62.5443 55.2923 62.123Z" fill="#6A9031"/>
<path d="M54.4409 60.936C55.5665 61.5829 55.5725 62.6333 54.4528 63.2802C53.3331 63.9271 51.5107 63.9271 50.3851 63.2802C49.2594 62.6333 49.2535 61.5829 50.3732 60.936C51.4928 60.2891 53.3093 60.2891 54.4409 60.936Z" fill="#95CA45"/>
<path d="M63.1185 66.6215V68.5147C63.1126 68.9361 62.8327 69.3574 62.2788 69.6779C61.1591 70.3248 59.3367 70.3248 58.211 69.6779C57.6452 69.3515 57.3594 68.9242 57.3653 68.4969V66.6037C57.3653 67.031 57.6512 67.4583 58.217 67.7847C59.3426 68.4316 61.1651 68.4316 62.2847 67.7847C62.8386 67.4642 63.1185 67.0429 63.1185 66.6215Z" fill="#6A9031"/>
<path d="M62.267 65.4405C63.3926 66.0874 63.3986 67.1378 62.2848 67.7847C61.1652 68.4316 59.3427 68.4316 58.2171 67.7847C57.0915 67.1378 57.0855 66.0874 58.2052 65.4405C59.3249 64.7936 61.1473 64.7936 62.2729 65.4405H62.267Z" fill="#95CA45"/>
<path d="M76.8587 52.7697L76.8289 62.2357L59.3311 72.3664L59.3608 62.9004L76.8587 52.7697Z" fill="#FFA200"/>
<path d="M59.3608 62.9003L59.331 72.3664L43.2744 63.1318L43.2982 53.6599L59.3608 62.9003Z" fill="#FFCD00"/>
<path d="M76.8582 52.7696L59.3604 62.9004L43.2979 53.6599L60.7957 43.5351L76.8582 52.7696Z" fill="#FFDB47"/>
<path d="M62.7963 47.8556V49.7488C62.7903 50.1702 62.5104 50.5916 61.9565 50.9121C60.8368 51.559 59.0144 51.559 57.8888 50.9121C57.323 50.5856 57.0371 50.1583 57.0431 49.731V47.8378C57.0431 48.2651 57.3289 48.6924 57.8947 49.0189C59.0204 49.6657 60.8428 49.6657 61.9625 49.0189C62.5164 48.6984 62.7963 48.277 62.7963 47.8556Z" fill="#FFA200"/>
<path d="M61.9447 46.6746C63.0703 47.3215 63.0763 48.372 61.9626 49.0189C60.8429 49.6658 59.0205 49.6658 57.8948 49.0189C56.7692 48.372 56.7632 47.3215 57.8829 46.6746C59.0026 46.0277 60.8191 46.0277 61.9447 46.6746Z" fill="#FFCD00"/>
<path d="M70.6224 52.3601V54.2533C70.6165 54.6747 70.3366 55.0961 69.7827 55.4166C68.663 56.0635 66.8406 56.0635 65.7149 55.4166C65.1492 55.0902 64.8633 54.6628 64.8692 54.2355V52.3423C64.8692 52.7697 65.1551 53.197 65.7209 53.5234C66.8465 54.1703 68.669 54.1703 69.7886 53.5234C70.3425 53.2029 70.6224 52.7815 70.6224 52.3601Z" fill="#FFA200"/>
<path d="M69.771 51.1732C70.8966 51.8201 70.9026 52.8706 69.7829 53.5234C68.6632 54.1703 66.8408 54.1703 65.7151 53.5234C64.5895 52.8765 64.5836 51.826 65.7032 51.1732C66.8229 50.5263 68.6454 50.5263 69.771 51.1732Z" fill="#FFCD00"/>
<path d="M55.2923 52.1999V54.0931C55.2863 54.5145 55.0064 54.9359 54.4525 55.2564C53.3328 55.9032 51.5104 55.9032 50.3848 55.2564C49.819 54.9299 49.5391 54.5026 49.5391 54.0753V52.1821C49.5391 52.6094 49.8249 53.0367 50.3907 53.3631C51.5164 54.01 53.3388 54.01 54.4585 53.3631C55.0124 53.0427 55.2923 52.6213 55.2923 52.1999Z" fill="#FFA200"/>
<path d="M54.4409 51.0189C55.5665 51.6658 55.5725 52.7163 54.4528 53.3632C53.3331 54.0101 51.5107 54.0101 50.3851 53.3632C49.2594 52.7163 49.2535 51.6658 50.3732 51.0189C51.4928 50.372 53.3093 50.372 54.4409 51.0189Z" fill="#FFCD00"/>
<path d="M63.1185 56.7044V58.5977C63.1126 59.019 62.8327 59.4404 62.2788 59.7609C61.1591 60.4078 59.3367 60.4078 58.211 59.7609C57.6452 59.4345 57.3594 59.0072 57.3653 58.5798V56.6866C57.3653 57.114 57.6512 57.5413 58.217 57.8677C59.3426 58.5146 61.1651 58.5146 62.2847 57.8677C62.8386 57.5472 63.1185 57.1258 63.1185 56.7044Z" fill="#FFA200"/>
<path d="M62.267 55.5175C63.3926 56.1644 63.3986 57.2148 62.2848 57.8617C61.1652 58.5086 59.3427 58.5086 58.2171 57.8617C57.0915 57.2148 57.0855 56.1644 58.2052 55.5175C59.3249 54.8706 61.1473 54.8706 62.2729 55.5175H62.267Z" fill="#FFCD00"/>
<path d="M76.8587 42.8229L76.8289 52.2889L59.3311 62.4196L59.3608 52.9536L76.8587 42.8229Z" fill="#8F5E3D"/>
<path d="M59.3608 52.9536L59.331 62.4196L43.2744 53.1791L43.2982 43.7131L59.3608 52.9536Z" fill="#AB7049"/>
<path d="M76.8582 42.8229L59.3604 52.9536L43.2979 43.7131L60.7957 33.5824L76.8582 42.8229Z" fill="#C98456"/>
<path d="M62.7963 37.9089V39.8021C62.7903 40.2234 62.5104 40.6448 61.9565 40.9653C60.8368 41.6122 59.0144 41.6122 57.8888 40.9653C57.323 40.6389 57.0371 40.2116 57.0431 39.7843V37.8911C57.0431 38.3184 57.3289 38.7457 57.8947 39.0721C59.0204 39.719 60.8428 39.719 61.9625 39.0721C62.5164 38.7516 62.7963 38.3302 62.7963 37.9089Z" fill="#8F5E3D"/>
<path d="M61.9447 36.7219C63.0703 37.3688 63.0763 38.4193 61.9626 39.0662C60.8429 39.7131 59.0205 39.7131 57.8948 39.0662C56.7692 38.4193 56.7632 37.3688 57.8829 36.7219C59.0026 36.075 60.8191 36.075 61.9447 36.7219Z" fill="#D99A71"/>
<path d="M70.6224 42.4075V44.3007C70.6165 44.722 70.3366 45.1434 69.7827 45.4639C68.663 46.1108 66.8406 46.1108 65.7149 45.4639C65.1492 45.1375 64.8633 44.7102 64.8692 44.2828V42.3896C64.8692 42.817 65.1551 43.2443 65.7209 43.5707C66.8465 44.2176 68.669 44.2176 69.7886 43.5707C70.3425 43.2502 70.6224 42.8288 70.6224 42.4075Z" fill="#8F5E3D"/>
<path d="M69.771 41.2264C70.8966 41.8733 70.9026 42.9238 69.7829 43.5766C68.6632 44.2235 66.8408 44.2235 65.7151 43.5766C64.5895 42.9297 64.5836 41.8793 65.7032 41.2264C66.8229 40.5795 68.6454 40.5795 69.771 41.2264Z" fill="#D99A71"/>
<path d="M55.2923 42.2532V44.1464C55.2863 44.5677 55.0064 44.9891 54.4525 45.3096C53.3328 45.9565 51.5104 45.9565 50.3848 45.3096C49.819 44.9832 49.5391 44.5559 49.5391 44.1286V42.2354C49.5391 42.6627 49.8249 43.09 50.3907 43.4164C51.5164 44.0633 53.3388 44.0633 54.4585 43.4164C55.0124 43.0959 55.2923 42.6745 55.2923 42.2532Z" fill="#8F5E3D"/>
<path d="M54.4409 41.0662C55.5665 41.7131 55.5725 42.7636 54.4528 43.4105C53.3331 44.0574 51.5107 44.0574 50.3851 43.4105C49.2594 42.7636 49.2535 41.7131 50.3732 41.0662C51.4928 40.4193 53.3093 40.4193 54.4409 41.0662Z" fill="#D99A71"/>
<path d="M63.1185 46.7518V48.645C63.1126 49.0663 62.8327 49.4877 62.2788 49.8082C61.1591 50.4551 59.3367 50.4551 58.211 49.8082C57.6452 49.4818 57.3594 49.0545 57.3653 48.6271V46.7339C57.3653 47.1613 57.6512 47.5886 58.217 47.915C59.3426 48.5619 61.1651 48.5619 62.2847 47.915C62.8386 47.5945 63.1185 47.1731 63.1185 46.7518Z" fill="#8F5E3D"/>
<path d="M62.267 45.5707C63.3926 46.2176 63.3986 47.2681 62.2848 47.915C61.1652 48.5619 59.3427 48.5619 58.2171 47.915C57.0915 47.2681 57.0855 46.2176 58.2052 45.5707C59.3249 44.9238 61.1473 44.9238 62.2729 45.5707H62.267Z" fill="#D99A71"/>
</g>
</g>
<defs>
<filter id="filter0_d_95_9450" x="0.078125" y="0.276489" width="171.749" height="195.724" filterUnits="userSpaceOnUse" color-interpolation-filters="sRGB">
<feFlood flood-opacity="0" result="BackgroundImageFix"/>
<feColorMatrix in="SourceAlpha" type="matrix" values="0 0 0 0 0 0 0 0 0 0 0 0 0 0 0 0 0 0 127 0" result="hardAlpha"/>
<feOffset/>
<feGaussianBlur stdDeviation="6"/>
<feComposite in2="hardAlpha" operator="out"/>
<feColorMatrix type="matrix" values="0 0 0 0 1 0 0 0 0 1 0 0 0 0 1 0 0 0 1 0"/>
<feBlend mode="normal" in2="BackgroundImageFix" result="effect1_dropShadow_95_9450"/>
<feBlend mode="normal" in="SourceGraphic" in2="effect1_dropShadow_95_9450" result="shape"/>
</filter>
<clipPath id="clip0_95_9450">
<rect width="172" height="196" fill="white"/>
</clipPath>
</defs>
</svg>
