<svg width="297" height="195" viewBox="0 0 297 195" fill="none" xmlns="http://www.w3.org/2000/svg">
<g filter="url(#filter0_d_95_9255)">
<path d="M145.735 181C213.536 181 268.499 174.893 268.499 167.361C268.499 159.828 213.536 153.721 145.735 153.721C77.9337 153.721 22.9702 159.828 22.9702 167.361C22.9702 174.893 77.9337 181 145.735 181Z" fill="#C7E5D8"/>
<path d="M43.0147 161.629C43.4861 161.394 44.0248 161.405 44.5524 161.438C49.906 161.775 55.1924 163.828 60.5012 163.02L62.9592 163.121C63.4979 164.052 63.6326 165.218 63.3071 166.25C61.2981 167.641 58.6942 167.821 56.2699 167.563C53.8456 167.293 51.4661 166.632 49.0306 166.486C46.7073 166.351 44.2157 166.654 42.1954 165.499C41.8587 164.108 41.7128 162.257 43.0035 161.618L43.0147 161.629Z" fill="#F75448"/>
<path d="M41.814 161.853C41.8476 161.315 42.0833 160.821 42.2854 160.317C43.3179 157.67 43.2281 154.731 43.1271 151.893C43.5536 151.691 43.9801 151.478 44.3954 151.276L49.0645 152.768C50.8041 153.979 51.904 155.897 53.3519 157.445C55.3946 159.621 58.2005 161.057 61.1523 161.427C61.8594 161.517 62.6451 161.584 63.1053 162.134C63.7899 162.964 63.2063 164.254 62.4094 164.972C60.5238 166.665 57.7516 166.912 55.2487 166.564C52.7458 166.217 50.3327 165.364 47.8186 165.151C46.5503 165.039 45.2372 165.095 44.0362 164.669C42.8353 164.231 41.7354 163.132 41.8252 161.842L41.814 161.853Z" fill="#EA9E7D"/>
<path d="M58.3461 160.35C59.2665 160.62 60.0521 161.472 60.9949 161.315C59.446 162.571 58.7502 164.781 59.2889 166.71L59.3675 166.946C56.8197 167.136 54.2383 166.856 51.7803 166.127C52.0609 164.646 53.1159 163.446 54.1597 162.347C55.2821 161.158 56.786 159.891 58.3461 160.362V160.35Z" fill="#DD3E3E"/>
<path d="M43.1831 159.419C44.5524 162.033 46.7746 164.198 49.4346 165.499L48.851 165.813C47.3021 165.645 45.6074 165.398 44.586 164.231C43.5534 163.065 43.4749 161.225 42.3076 160.193C42.5994 159.935 42.8912 159.677 43.1943 159.419H43.1831Z" fill="#DD3E3E"/>
<path d="M31.1182 165.151C31.5896 164.916 32.1284 164.927 32.6559 164.96C38.0096 165.297 43.2959 167.349 48.6047 166.542L51.0627 166.643C51.6014 167.574 51.7361 168.74 51.4106 169.772C49.4016 171.163 46.7977 171.343 44.3734 171.085C41.9491 170.827 39.5697 170.154 37.1341 170.008C34.8108 169.873 32.3192 170.176 30.2989 169.021C29.9622 167.63 29.8163 165.779 31.107 165.14L31.1182 165.151Z" fill="#F75448"/>
<path d="M50.6136 116.449L39.0645 123.246C40.3664 126.892 41.6683 130.615 41.7132 134.485C41.7357 136.526 41.399 138.545 41.2306 140.576C40.7592 146.262 41.6347 152.05 43.7672 157.333C43.958 157.804 44.1712 158.287 44.5865 158.589C45.0242 158.915 45.6079 158.96 46.1466 158.982C48.2454 159.105 51.0289 158.735 51.4105 156.671C51.5788 155.785 51.1972 154.91 50.8717 154.069C49.5474 150.626 49.0872 146.834 49.581 143.178C49.929 140.542 50.7483 137.985 51.2982 135.382C52.6226 129.135 52.3869 122.562 50.6248 116.427L50.6136 116.449Z" fill="#EA9E7D"/>
<path d="M46.7528 119.096L33.969 123.134C34.418 126.981 34.8557 130.907 34.0251 134.687C33.5874 136.672 32.8018 138.568 32.1845 140.52C30.456 145.948 30.0071 151.792 30.8937 157.423C30.9723 157.928 31.0733 158.444 31.41 158.836C31.7692 159.251 32.3191 159.419 32.8467 159.576C34.8669 160.171 37.6504 160.429 38.5034 158.5C38.8625 157.681 38.6942 156.739 38.5595 155.841C38.032 152.185 38.4473 148.394 39.738 144.928C40.6695 142.438 42.0388 140.127 43.1612 137.715C45.8549 131.928 47.1007 125.467 46.7528 119.096Z" fill="#FFB48F"/>
<path d="M29.9058 165.364C29.9394 164.826 30.1751 164.332 30.3772 163.827C31.4097 161.18 31.3199 158.242 31.2189 155.404C31.6454 155.202 32.0719 154.989 32.4872 154.787L37.1562 156.279C38.8959 157.49 39.9958 159.408 41.4437 160.956C43.4864 163.132 46.2923 164.568 49.2441 164.938C49.9512 165.028 50.7369 165.095 51.1971 165.645C51.8817 166.475 51.2981 167.764 50.5012 168.482C48.6156 170.176 45.8434 170.423 43.3405 170.075C40.8376 169.727 38.4245 168.875 35.9104 168.662C34.6421 168.55 33.329 168.606 32.128 168.18C30.9271 167.742 29.8272 166.643 29.917 165.364H29.9058Z" fill="#FFB48F"/>
<path d="M46.4384 163.861C47.3587 164.13 48.1444 164.983 49.0872 164.826C47.5383 166.082 46.8425 168.292 47.3812 170.221L47.4598 170.456C44.912 170.647 42.3305 170.367 39.8726 169.638C40.1532 168.157 41.2082 166.957 42.252 165.858C43.3743 164.669 44.8783 163.401 46.4384 163.872V163.861Z" fill="#F75448"/>
<path d="M31.2753 162.93C32.6446 165.544 34.8669 167.708 37.5269 169.01L36.9433 169.324C35.3944 169.155 33.6997 168.909 32.6783 167.742C31.6457 166.576 31.5672 164.736 30.3999 163.704C30.6917 163.446 30.9835 163.188 31.2866 162.93H31.2753Z" fill="#F75448"/>
<path d="M58.4475 128.574C56.7976 121.867 55.7426 115.013 55.2824 108.126C48.1105 109.383 40.6692 109.024 33.6432 107.106L30.725 110.28C30.0291 116.987 29.6812 123.74 29.7037 130.481C35.5624 134.552 43.3629 134.261 50.4225 133.173C53.105 132.758 55.9109 132.197 57.9648 130.425C58.1781 130.234 58.3913 130.032 58.4923 129.763C58.6383 129.382 58.5372 128.967 58.4475 128.574Z" fill="#60A063"/>
<path d="M57.1682 124.985C56.7192 125.03 56.304 125.164 55.8775 125.276C55.7203 125.321 55.552 125.355 55.3948 125.4C55.103 123.695 54.8 121.979 54.4969 120.274C55.0245 120.173 55.5408 120.072 56.0683 119.949C56.3713 119.881 56.2478 119.421 55.9448 119.477C55.4397 119.578 54.9234 119.668 54.4072 119.747C54.1378 118.21 53.8684 116.673 53.5991 115.125C53.8572 115.103 54.1153 115.069 54.3735 115.036C54.6541 115.002 54.6653 114.576 54.3735 114.587C54.0817 114.587 53.8011 114.609 53.5093 114.621C53.4868 114.509 53.4756 114.408 53.4531 114.295C53.3297 113.566 53.2062 112.837 53.0715 112.108C52.9705 111.559 52.8807 110.998 52.7348 110.459C53.3072 110.403 53.8796 110.325 54.4521 110.246C54.7551 110.201 54.6765 109.697 54.3847 109.719C53.7786 109.753 53.1726 109.809 52.5665 109.865C52.5665 109.865 52.5665 109.865 52.5665 109.854C52.5328 109.753 52.3869 109.764 52.3869 109.876C51.5788 109.955 50.7595 110.033 49.9514 110.1C48.4698 110.213 46.9771 110.302 45.4956 110.37C44.8109 110.403 44.1263 110.426 43.4304 110.448C43.3967 110.257 43.3631 110.067 43.3182 109.876C43.2845 109.674 42.9366 109.719 42.959 109.921C42.9815 110.1 42.9927 110.28 43.0151 110.459C41.4999 110.504 39.9848 110.527 38.4696 110.527C38.4471 110.179 38.4247 109.831 38.4022 109.484C38.3798 109.203 37.9869 109.203 37.9645 109.484C37.942 109.831 37.942 110.179 37.9308 110.527C37.5043 110.527 37.0778 110.527 36.6513 110.515C35.7983 110.504 34.9453 110.482 34.0923 110.471C34.1036 110.257 34.1148 110.056 34.1372 109.842C34.2046 108.923 34.3168 107.981 34.3056 107.05C34.3056 106.87 34.0362 106.825 33.9913 107.005C33.823 107.801 33.7668 108.631 33.6995 109.439C33.6771 109.775 33.6434 110.123 33.6209 110.459C32.9587 110.459 32.2965 110.459 31.6343 110.482C31.4997 110.482 31.4548 110.717 31.6007 110.729C32.2629 110.818 32.9251 110.886 33.5873 110.942C33.5648 111.233 33.5536 111.536 33.5311 111.828C33.475 112.804 33.4301 113.768 33.3965 114.744C32.97 114.722 32.5435 114.71 32.1057 114.688C31.668 114.666 31.2415 114.688 30.8038 114.71C30.6691 114.71 30.613 114.935 30.7701 114.968C31.6231 115.148 32.4986 115.226 33.3852 115.282C33.374 115.765 33.3628 116.247 33.3516 116.729C33.3403 117.829 33.3403 118.928 33.3516 120.027C32.2292 119.87 31.0956 119.691 29.9732 119.545C29.7824 119.522 29.7488 119.825 29.9284 119.881C31.0507 120.195 32.2068 120.408 33.3628 120.588C33.4077 122.45 33.4975 124.301 33.6322 126.162C32.2741 125.916 30.916 125.635 29.5692 125.344C29.3784 125.299 29.311 125.568 29.4906 125.624C30.8599 126.084 32.2629 126.432 33.6771 126.712C33.7444 127.508 33.8117 128.305 33.8903 129.101C33.9913 130.01 34.0587 130.941 34.2382 131.838C34.2831 132.085 34.6872 132.029 34.676 131.782C34.6311 130.952 34.4964 130.122 34.4178 129.303C34.3393 128.507 34.2719 127.71 34.2046 126.914C34.2046 126.88 34.2046 126.847 34.2046 126.813C35.8544 127.116 37.5268 127.307 39.1879 127.43C39.2103 127.565 39.2215 127.699 39.244 127.834C39.4236 129.146 39.5919 130.47 39.8276 131.782C38.7165 131.748 37.6053 131.692 36.4942 131.591C36.3146 131.58 36.3146 131.849 36.4942 131.872C37.6278 132.018 38.7614 132.107 39.9062 132.175C39.9511 132.433 40.0072 132.691 40.0633 132.948C40.1194 133.206 40.5459 133.218 40.6021 132.948C40.6469 132.702 40.6918 132.455 40.7255 132.208C42.555 132.275 44.3957 132.231 46.2251 132.085C46.2812 132.275 46.3373 132.466 46.4159 132.646C46.472 132.791 46.6741 132.769 46.6853 132.612C46.7077 132.421 46.7077 132.231 46.6965 132.04C48.2117 131.905 49.7157 131.715 51.2084 131.445C51.2533 131.715 51.2982 131.973 51.3543 132.242C51.4217 132.578 51.9155 132.433 51.8706 132.096C51.8257 131.849 51.792 131.591 51.7472 131.345C53.0603 131.098 54.3735 130.806 55.6642 130.447C55.7316 130.425 55.7764 130.391 55.7989 130.346C55.9448 130.458 56.2254 130.335 56.1917 130.088C55.956 128.697 55.7203 127.307 55.4846 125.916C55.5856 125.882 55.6979 125.86 55.7989 125.826C56.304 125.691 56.8202 125.568 57.2804 125.332C57.46 125.232 57.3927 124.906 57.1682 124.929V124.985ZM54.9122 125.523C54.7888 125.557 54.6765 125.579 54.5531 125.613C53.6664 125.826 52.7797 126.017 51.8931 126.185C51.5676 126.241 51.2421 126.297 50.9166 126.353C50.6136 124.559 50.2993 122.764 49.985 120.958C50.1197 120.947 50.2544 120.924 50.3891 120.913C51.6125 120.767 52.8246 120.588 54.0368 120.364C54.3286 122.08 54.6316 123.807 54.9234 125.523H54.9122ZM44.2273 115.574C45.6303 115.552 47.0332 115.518 48.4362 115.462C48.6494 116.696 48.8739 117.918 49.0759 119.152C49.1433 119.578 49.2218 120.005 49.2892 120.431C48.1331 120.543 46.9659 120.622 45.8098 120.678C45.5405 120.689 45.2711 120.7 45.013 120.711C44.7548 118.995 44.4967 117.29 44.2273 115.574ZM44.4742 120.734C42.6672 120.779 40.849 120.745 39.042 120.644C38.8848 118.95 38.7614 117.245 38.6716 115.552C39.0981 115.552 39.5358 115.574 39.9623 115.574C41.2081 115.597 42.454 115.597 43.6998 115.585C43.8681 116.673 44.0253 117.75 44.1936 118.827C44.2834 119.455 44.3844 120.094 44.4742 120.722V120.734ZM49.4014 121.025C49.7044 122.831 50.0187 124.637 50.333 126.443C49.0535 126.634 47.774 126.779 46.4833 126.869C46.3149 126.88 46.1353 126.892 45.967 126.903C45.8098 125.86 45.6527 124.817 45.4956 123.785C45.3721 122.955 45.2487 122.136 45.1252 121.306C46.5618 121.261 47.9872 121.16 49.4126 121.014L49.4014 121.025ZM53.1389 115.193C53.2848 116.068 53.4307 116.954 53.5878 117.829C53.7001 118.502 53.8123 119.175 53.9358 119.848C52.5889 120.061 51.2421 120.251 49.884 120.386C49.5922 118.737 49.3116 117.1 49.0198 115.451C49.0535 115.451 49.0984 115.451 49.132 115.451C50.4677 115.395 51.8033 115.316 53.1389 115.204V115.193ZM49.48 110.751C50.4452 110.684 51.4329 110.616 52.3981 110.515C52.443 110.964 52.5104 111.402 52.5777 111.839C52.6787 112.501 52.791 113.174 52.9032 113.836C52.9481 114.105 52.993 114.385 53.0379 114.654C51.6574 114.71 50.2769 114.778 48.8963 114.834C48.6606 113.499 48.4362 112.153 48.1331 110.83C48.5709 110.796 49.0086 110.773 49.4575 110.74L49.48 110.751ZM47.7403 110.863C47.8974 112.198 48.1107 113.533 48.3352 114.867C47.2801 114.912 46.2139 114.946 45.1589 114.968C44.8222 114.968 44.4742 114.968 44.1375 114.98C44.1375 114.957 44.1375 114.924 44.1263 114.901C43.9243 113.622 43.7335 112.344 43.509 111.065C44.9232 111.02 46.3261 110.953 47.7403 110.863ZM40.501 111.121C41.354 111.121 42.2183 111.099 43.0713 111.076C43.2284 112.377 43.408 113.679 43.61 114.98C41.9489 114.991 40.299 114.98 38.6379 114.946C38.6379 114.856 38.6379 114.778 38.6267 114.688C38.5706 113.499 38.5369 112.31 38.492 111.132C39.1654 111.132 39.8388 111.132 40.5123 111.121H40.501ZM33.9689 112.568C33.9913 112.052 34.025 111.536 34.0474 111.02C35.3269 111.11 36.6177 111.132 37.9084 111.132C37.9084 112.142 37.9645 113.14 38.0094 114.15C38.0094 114.419 38.0318 114.677 38.0431 114.946C37.3584 114.935 36.6625 114.912 35.9779 114.89C35.282 114.867 34.5862 114.845 33.8791 114.811C33.9015 114.06 33.924 113.32 33.9576 112.568H33.9689ZM33.8791 115.35C34.3617 115.372 34.8555 115.395 35.3382 115.417C36.2585 115.462 37.1676 115.496 38.088 115.529C38.1441 116.606 38.2114 117.694 38.29 118.771C38.3349 119.377 38.391 119.993 38.4359 120.599C37.5043 120.543 36.584 120.453 35.6636 120.352C35.0688 120.285 34.4739 120.207 33.8903 120.128C33.8566 118.535 33.8566 116.931 33.8903 115.339L33.8791 115.35ZM35.63 126.51C35.1361 126.443 34.6535 126.364 34.1709 126.286C34.0699 124.917 33.9913 123.538 33.9352 122.158C33.9128 121.665 33.9015 121.182 33.8903 120.689C34.2495 120.745 34.6198 120.79 34.979 120.835C36.1463 120.98 37.3135 121.093 38.4808 121.182C38.6604 123.089 38.8736 124.985 39.1205 126.88C37.9533 126.802 36.786 126.678 35.63 126.51ZM39.3562 123.829C39.2552 122.966 39.1766 122.091 39.0869 121.227C39.4123 121.25 39.7378 121.261 40.0633 121.283C41.5561 121.351 43.06 121.373 44.5528 121.328C44.8334 123.201 45.114 125.063 45.3946 126.936C43.509 127.037 41.6122 127.026 39.7266 126.925C39.5919 125.893 39.4685 124.861 39.3562 123.841V123.829ZM40.7704 131.838C40.7929 131.647 40.5235 131.636 40.4561 131.782C40.2878 130.66 40.097 129.539 39.9399 128.406C39.895 128.103 39.8613 127.811 39.8164 127.508C39.9848 127.508 40.1531 127.531 40.3327 127.542C42.0499 127.632 43.7783 127.632 45.4956 127.542C45.4956 127.609 45.518 127.677 45.5292 127.744C45.6527 128.574 45.7762 129.415 45.9108 130.245C45.9894 130.716 46.0343 131.21 46.1241 131.692C44.3508 131.838 42.5662 131.883 40.7816 131.86L40.7704 131.838ZM48.1893 131.468C47.673 131.535 47.1679 131.58 46.6516 131.625C46.6067 131.21 46.5281 130.795 46.4608 130.38C46.3486 129.651 46.2476 128.911 46.1353 128.181C46.1016 127.957 46.068 127.722 46.0343 127.497C47.5046 127.408 48.9637 127.239 50.4115 127.026C50.4452 127.194 50.4677 127.363 50.5013 127.531C50.7034 128.697 50.9054 129.864 51.1074 131.03C50.1422 131.21 49.1657 131.356 48.178 131.479L48.1893 131.468ZM55.6867 130.032C55.6867 130.032 55.5856 130.01 55.5295 130.032C54.25 130.369 52.9593 130.672 51.6686 130.918C51.4553 129.584 51.2309 128.26 51.0064 126.925C51.1074 126.914 51.2084 126.892 51.2982 126.88C52.2971 126.712 53.296 126.51 54.2837 126.275C54.5194 126.219 54.7551 126.162 55.002 126.095C55.2265 127.408 55.451 128.72 55.6867 130.032Z" fill="#FFBE00"/>
<path d="M88.628 94.1169C88.3811 93.9711 88.078 94.0608 87.8087 94.1393C85.8221 94.7674 83.8692 95.5302 81.9612 96.4163C83.7906 95.5414 85.6088 94.6553 87.4383 93.7804C88.1454 93.4439 88.9984 92.6027 88.5719 91.8624C85.8894 92.4456 83.2743 93.5112 80.8612 95.0254C80.8612 95.0142 80.8612 94.9918 80.8612 94.9806C82.4101 93.8926 83.959 92.8046 85.5078 91.7166C86.0129 91.3576 86.5404 90.9875 86.8434 90.4042C87.1465 89.821 87.1465 88.9461 86.6863 88.5311C84.8793 89.6303 83.1284 90.8641 81.4561 92.2213C81.501 92.0418 81.5234 91.8624 81.5459 91.6829C81.6693 90.5949 81.0296 89.2489 79.8623 89.2153C79.1103 91.9745 77.6176 94.5543 75.5861 96.6743C71.9272 97.0108 68.2122 97.1453 64.6543 96.3041C60.6025 95.3395 56.6967 92.9055 54.9458 89.1368L52.0501 89.047C50.3665 89.9556 48.481 90.5164 46.5729 90.6734C46.5056 91.9858 47.3923 93.1298 48.2453 94.1393C51.3991 97.8632 54.9458 101.576 59.5924 103.101C63.9247 104.537 68.6387 103.875 73.1506 103.202C74.026 103.068 74.9239 102.933 75.732 102.585C75.7657 102.585 75.7994 102.585 75.833 102.585C76.8319 102.765 77.9206 102.608 78.8859 102.226C80.7266 101.497 82.3876 100.174 84.2957 99.7139C85.6088 99.3999 87.3036 99.2316 87.7189 97.7398C85.7547 98.009 83.7906 98.2782 81.8152 98.5474C83.7457 97.8071 85.6762 97.0668 87.5954 96.3265C88.0444 96.1583 88.5158 95.9676 88.7964 95.5302C89.0882 95.0927 89.0657 94.3412 88.6392 94.1057L88.628 94.1169Z" fill="#EA9E7D"/>
<path d="M52.7011 78.3577C52.297 77.8081 51.4216 77.2697 51.0624 77.853L50.9053 79.0644C51.0624 82.5864 51.2195 86.0971 51.3767 89.6191C51.3991 90.1799 51.4665 90.8193 51.9379 91.1221C52.3531 91.4025 52.9031 91.2792 53.3857 91.1558C55.4284 90.6174 57.4711 90.079 59.5138 89.5518C57.5834 85.626 55.305 81.8797 52.7011 78.369V78.3577Z" fill="#B7306E"/>
<path d="M83.5896 70.3702L84.0009 70.52C84.5281 70.712 84.803 71.3015 84.6108 71.8284L79.1969 86.6775C79.0048 87.2045 78.4149 87.4791 77.8876 87.2871L77.4763 87.1374C76.9491 86.9454 76.6742 86.3558 76.8663 85.8289L82.2841 70.9693C82.4763 70.4423 83.0662 70.1677 83.5934 70.3597L83.5896 70.3702Z" fill="#569156"/>
<path d="M16.7068 31.6634C12.6551 32.5383 8.9513 35.219 7.20041 38.9766C5.47196 42.7117 5.775 47.1198 7.06572 51.0231C7.72792 53.0084 8.62581 54.9265 9.11965 56.9679C9.61349 59.0093 9.64716 61.2638 8.62581 63.0921C12.5878 61.1853 14.1142 56.4407 15.2478 52.1896C15.7753 50.2155 16.3028 48.2414 16.8191 46.2673C17.5711 43.4183 18.368 40.4908 20.175 38.169C21.982 35.8472 25.0685 34.2544 27.8968 35.0957L28.7274 33.5927C25.0685 31.641 20.7474 30.811 16.7068 31.6858V31.6634Z" fill="#B36C39"/>
<path d="M38.8176 30.0146C34.9904 30.3062 31.1294 31.4278 28.1552 33.8506C24.4177 36.8903 22.4423 41.7022 21.9821 46.4916C21.623 50.1818 22.1168 54.0515 23.9687 57.2595C25.8206 60.4674 29.1653 62.935 32.8691 63.1818C33.2507 53.4122 38.7166 43.9903 47.0221 38.8195C48.0884 38.1577 49.2108 37.5408 50.0413 36.6099L50.277 30.71C46.4722 30.2277 42.6337 29.7341 38.8176 30.0258V30.0146Z" fill="#945431"/>
<path d="M50.0413 66.5916L39.1655 62.879C40.7817 66.4683 41.4888 70.4613 41.197 74.3871C41.1184 75.4863 40.9725 76.6416 41.4664 77.6287C42.1847 79.042 43.9468 79.5243 45.5181 79.771C46.6966 79.9617 48.0434 80.0514 48.9413 79.2663C49.727 78.5821 49.9178 77.4604 50.0525 76.4285C50.4678 73.3103 50.883 70.2033 51.2983 67.0852C50.883 66.9281 50.4678 66.7599 50.0413 66.6028V66.5916Z" fill="#EA9E7D"/>
<path d="M60.5239 68.7115C61.0289 68.0834 61.534 67.444 62.0278 66.8047C62.5441 66.042 63.0267 65.2568 63.442 64.438C63.9246 63.4397 64.3062 62.3966 64.5419 61.3198C64.6878 60.5235 64.7552 59.7159 64.7327 58.8971C64.6878 58.2016 64.5756 57.5174 64.3736 56.8444C64.0481 55.9471 63.4981 55.1507 63.0716 54.3095C62.8135 53.7935 62.6002 53.2552 62.4656 52.6943C62.387 52.5597 62.3196 52.4251 62.2523 52.2905C62.0952 52.0326 61.9717 51.7521 61.9044 51.4605C61.5564 50.8324 61.4554 50.0697 61.3656 49.3406C60.8269 45.3475 59.8504 41.3432 57.6731 37.9783C55.5069 34.6245 51.9939 31.9662 47.9085 31.5288C44.1822 31.125 40.31 32.6168 37.3582 35.062C34.4064 37.496 32.3076 40.8048 30.8261 44.2819C29.4343 47.5347 28.5589 51.0679 28.9517 54.5002C29.0415 55.2853 29.2098 56.0593 29.4343 56.8108C28.9405 56.9678 28.4691 57.2482 28.0875 57.5959C27.2457 58.3587 26.7406 59.4354 26.3815 60.5122C25.955 61.7797 25.7081 63.193 26.1907 64.4492C26.6172 65.5372 27.56 66.3673 28.6262 66.8608C29.6925 67.3431 30.8709 67.5225 32.0494 67.6123C33.284 67.702 34.5972 67.6796 35.6635 67.0851C37.7959 69.1153 40.5345 70.4725 43.3853 71.2352C44.6424 71.5717 45.9219 71.8073 47.2126 71.9643C48.4921 71.9643 49.7491 71.9867 51.0286 71.8409C51.0623 71.8409 51.1072 71.8409 51.1409 71.8297C52.3306 71.9194 53.5427 71.897 54.7437 71.7736C56.3487 71.6054 58.0098 71.1903 59.2219 70.1584C59.7158 69.7434 60.1198 69.2387 60.5239 68.7339V68.7115Z" fill="#FFB48F"/>
<path d="M33.6206 64.8979C33.6206 64.8979 33.6542 64.9425 33.6653 64.976C33.6542 64.9536 33.6318 64.9313 33.6206 64.8979Z" fill="#EA9E7D"/>
<path d="M32.9922 64.5389C33.2391 64.5502 33.4748 64.696 33.6207 64.8979C33.5534 64.7857 33.4748 64.6735 33.4075 64.5614L32.9922 64.5389Z" fill="#EA9E7D"/>
<path d="M30.7697 60.5235C30.2534 60.187 29.5351 59.9402 29.0525 60.3216C28.5811 60.6917 28.626 61.4096 28.7158 62.004C28.7831 62.4415 28.9851 62.9911 29.4341 62.9687C29.6024 62.9687 29.7483 62.8565 29.9055 62.778C30.6238 62.4078 31.5217 62.6322 32.1614 63.1145C32.6777 63.4958 33.0593 64.023 33.4073 64.5614H33.6879C33.2726 62.9238 32.2063 61.4432 30.7697 60.5347V60.5235Z" fill="#EA9E7D"/>
<path d="M56.3151 57.0127C56.0008 56.4183 55.2489 56.1603 54.5867 56.2724C53.9245 56.3846 53.3521 56.7884 52.8582 57.2483C52.5327 57.5511 52.2409 57.8876 51.9716 58.2353C51.8818 58.3475 51.792 58.4821 51.8032 58.6279C51.8144 58.841 52.0501 58.998 52.2634 58.9868C52.3083 58.9868 52.3419 58.9868 52.3868 58.9756C52.4542 58.9195 52.5215 58.8634 52.5889 58.8074C52.7909 58.6616 53.0041 58.527 53.2286 58.4148C53.3745 58.269 53.5204 58.1119 53.6439 57.9549L53.4531 58.3138C53.4531 58.3138 53.4643 58.3138 53.4755 58.3138C53.5878 58.269 53.7112 58.2578 53.8122 58.3138C53.9694 58.3026 54.1265 58.3026 54.2836 58.3138C54.7326 58.3811 55.1478 58.6616 55.5968 58.5943C56.259 58.5045 56.6069 57.6184 56.2927 57.0239L56.3151 57.0127Z" fill="#EA9E7D"/>
<path d="M47.5383 61.7125C47.6169 62.8453 46.1241 63.866 44.2049 63.9894C42.2856 64.1128 40.6694 63.3052 40.6021 62.1723C40.5235 61.0395 42.0163 60.0188 43.9355 59.8954C45.8548 59.772 47.471 60.5796 47.5383 61.7125Z" fill="#FF9985"/>
<path d="M64.6204 57.9885C64.5643 57.5959 64.4745 57.2146 64.3735 56.8332C64.048 55.9359 63.4981 55.1395 63.0716 54.2983C63.0491 54.2534 63.0267 54.2086 63.0042 54.1637C63.0042 54.1637 62.9818 54.1749 62.9818 54.1861C61.5227 55.4312 60.9279 57.1473 61.6686 57.9997C62.241 58.6727 63.442 58.6279 64.6317 57.9997L64.6204 57.9885Z" fill="#FF9985"/>
<path d="M40.1865 48.7798C41.4548 46.7047 44.1709 45.2578 46.6065 45.9308C46.8085 45.9869 46.7748 46.3009 46.5616 46.2897C45.4392 46.2449 44.272 46.4019 43.2618 46.8842C42.2405 47.3665 41.3426 48.118 40.759 49.0939C40.5457 49.4528 39.9733 49.1387 40.1978 48.7798H40.1865Z" fill="#945431"/>
<path d="M48.0207 54.2086C48.5482 56.0929 47.4146 58.0558 45.4953 58.5942C43.5649 59.1326 41.5783 58.0558 41.0508 56.1715C40.5233 54.2871 41.6569 52.3242 43.5761 51.7858C45.5066 51.2474 47.4932 52.3242 48.0207 54.2086Z" fill="#AF7561"/>
<path d="M47.8636 54.388C48.335 56.0593 47.3248 57.8091 45.6076 58.2914C43.8904 58.7737 42.1171 57.8091 41.6457 56.1378C41.1743 54.4666 42.1844 52.7168 43.8904 52.2345C45.6076 51.7522 47.381 52.7168 47.8523 54.388H47.8636Z" fill="white"/>
<path d="M48.0433 55.8125C47.9871 57.237 46.8311 58.3362 45.4506 58.2914C44.0701 58.2353 43.0038 57.0463 43.0487 55.6218C43.1048 54.1973 44.2609 53.0981 45.6414 53.143C47.0219 53.1991 48.0882 54.388 48.0433 55.8125Z" fill="#3F494C"/>
<path d="M61.5678 50.4847C62.0841 52.3242 61.1077 54.1974 59.3792 54.6909C57.6508 55.1844 55.8325 54.0852 55.3162 52.2457C54.8 50.4062 55.7764 48.5331 57.5049 48.0395C59.2333 47.546 61.0515 48.6452 61.5678 50.4847Z" fill="#AF7561"/>
<path d="M61.4332 50.653C61.8934 52.2906 61.0179 53.9618 59.4803 54.3993C57.9426 54.8367 56.3264 53.8609 55.8663 52.2233C55.4061 50.5857 56.2815 48.9144 57.8192 48.477C59.3568 48.0395 60.973 49.0154 61.4332 50.653Z" fill="white"/>
<path d="M61.2759 52.2233C61.1973 53.6478 59.9964 54.747 58.5934 54.6685C57.1905 54.59 56.1242 53.3786 56.2028 51.9429C56.2814 50.5184 57.4823 49.4192 58.8853 49.4977C60.2882 49.5762 61.3545 50.7876 61.2759 52.2233Z" fill="#3F494C"/>
<path d="M45.0917 54.8816C45.1927 55.2629 45.0468 55.6331 44.7438 55.7116C44.4407 55.8013 44.1152 55.5546 44.0142 55.1844C43.9132 54.803 44.0591 54.4329 44.3622 54.3544C44.6652 54.2759 44.9907 54.5114 45.0917 54.8816Z" fill="white"/>
<path d="M58.1107 50.967C58.2118 51.3484 58.0658 51.7185 57.7628 51.797C57.4598 51.8755 57.1343 51.64 57.0333 51.2699C56.9323 50.8885 57.0782 50.5184 57.3812 50.4398C57.6842 50.3613 58.0097 50.5969 58.1107 50.967Z" fill="white"/>
<path d="M58.5148 33.3571C56.27 30.2389 51.8479 29.1958 48.1104 30.1267C46.9881 30.4071 45.9106 30.8334 44.777 31.0689C43.7108 31.2933 42.6221 31.3605 41.5334 31.4503C40.3886 31.7868 39.2213 32.0896 38.0765 32.4373C37.4929 32.628 36.9092 32.8299 36.348 33.0655C35.7869 33.3122 35.2593 33.6039 34.7431 33.9179C33.5421 34.7031 32.431 35.6228 31.4545 36.6772C30.5117 37.7427 29.6924 38.9093 29.019 40.1655C28.3456 41.4778 27.8405 42.8799 27.5038 44.3156C27.1783 45.8074 27.0436 47.3216 27.0773 48.8471C27.1446 50.3389 27.4028 51.8307 27.8293 53.2664C28.267 54.5899 28.8506 55.8462 29.5914 57.0239C29.8159 57.3604 30.0516 57.6969 30.2985 58.011C30.1638 57.0912 30.0403 56.1827 29.9057 55.2629C30.2311 48.2302 33.7441 41.3545 39.3784 37.0361C37.0439 39.8066 35.3155 43.0706 34.3278 46.5477C38.4356 44.0576 41.8476 40.4684 44.1373 36.2622C43.9577 38.6288 43.0037 40.9394 41.4548 42.7565C46.2249 43.7548 51.5112 41.2535 53.7335 36.9576C54.6089 37.81 55.1364 39.0102 55.1477 40.2216C57.1006 39.3243 59.3453 38.0119 59.4127 35.8696C59.4351 34.961 59.0311 34.0862 58.5035 33.3459L58.5148 33.3571Z" fill="#B36C39"/>
<path d="M57.8193 61.1292C55.1817 61.5554 52.7911 63.6753 50.0637 63.608C50.0301 64.3259 50.4902 65.0101 51.1075 65.3915C51.7248 65.7728 52.4656 65.8962 53.1839 65.9074C54.7552 65.9298 56.3602 65.4363 57.5724 64.438C58.7845 63.4398 59.6151 61.948 59.7049 60.3665C59.0763 60.6132 58.4478 60.86 57.8193 61.118V61.1292Z" fill="#8C310A"/>
<path d="M53.9356 62.3517C53.9356 62.3517 53.9135 62.3958 53.9356 62.3958C53.9576 62.3958 53.9576 62.3517 53.9356 62.3517Z" fill="white"/>
<path d="M55.0356 62.2396C54.6764 62.2732 54.3173 62.4527 53.9806 62.5761C53.8122 62.6434 53.6551 62.6995 53.4867 62.7668C53.3071 62.8453 53.1612 62.9462 52.9929 63.036C52.7908 63.1481 52.9368 63.4061 53.1388 63.3725C53.3184 63.35 53.4867 63.3388 53.6663 63.3052C53.8346 63.2715 54.0142 63.2154 54.1826 63.1593C54.5081 63.0696 54.9009 62.9911 55.1927 62.8116C55.4396 62.6546 55.3611 62.1947 55.0356 62.2284V62.2396Z" fill="white"/>
<path d="M58.1446 61.2637C58.0997 61.0955 57.8977 60.9497 57.7181 61.0282C57.1569 61.2525 56.5958 61.4769 56.0346 61.7124C55.8662 61.7797 55.7428 61.9367 55.7989 62.1274C55.8438 62.2844 56.0458 62.4303 56.2142 62.363C56.7753 62.1386 57.3365 61.9143 57.8977 61.69C58.0661 61.6227 58.1895 61.4656 58.1334 61.2637H58.1446Z" fill="white"/>
<path d="M56.259 64.4044C54.8897 64.3371 53.5204 64.4829 52.196 64.8306C52.0165 64.8755 51.9042 65.0774 51.9603 65.2456C51.994 65.3578 52.0613 65.4251 52.1511 65.4588C52.6225 66.042 53.4419 66.2215 54.1714 66.1654C54.9458 66.0981 55.6641 65.7728 56.1692 65.1896C56.259 65.1447 56.3488 65.0998 56.4274 65.0438C56.7304 64.8643 56.5845 64.4156 56.2478 64.3932L56.259 64.4044Z" fill="#E27364"/>
<path d="M59.0874 43.7211C58.9079 43.5753 58.6609 43.5193 58.4365 43.4632C58.2008 43.3959 57.9763 43.3286 57.7182 43.2949C57.2468 43.2276 56.7754 43.194 56.304 43.2501C55.8214 43.3061 55.3387 43.4183 54.901 43.6314C54.6878 43.7324 54.4745 43.8221 54.2837 43.9455C54.1715 44.0128 54.0592 44.0801 54.0368 44.2259C54.0368 44.2932 54.0143 44.3941 54.0817 44.439C54.3174 44.5848 54.4633 44.4839 54.699 44.3829C54.8898 44.3044 55.0806 44.2371 55.2826 44.181C55.6754 44.0801 56.0683 43.9679 56.4723 43.923C56.8764 43.8782 57.2804 43.8445 57.6845 43.8782C57.8865 43.9006 58.0998 43.9006 58.3018 43.9455C58.515 43.9903 58.7171 44.0913 58.9303 44.0913C59.1099 44.0913 59.2333 43.8445 59.0874 43.7211Z" fill="#945431"/>
<path d="M57.4823 106.601C56.3599 102.63 55.2263 98.6147 54.9458 94.487C54.7325 91.4585 54.9906 88.3964 54.6876 85.368C54.4295 82.8106 53.7224 80.1972 52.2072 78.1558C52.2184 78.0772 52.2408 78.01 52.2408 77.9314C52.3419 77.1799 52.2072 76.3948 51.7695 75.7554C51.6235 75.5311 51.2307 75.4077 51.0399 75.6657C50.0186 76.9556 48.4472 77.752 46.7974 77.8081C45.1812 77.8641 43.6547 77.1687 42.5661 75.991C42.0049 75.3853 41.612 74.6786 41.3314 73.9047C41.3539 73.6019 41.3651 73.2878 41.2978 72.985C41.2529 72.7943 40.9611 72.7494 40.8713 72.9289C40.8264 73.041 40.7815 73.142 40.7478 73.2542C34.0248 81.8123 36.1686 94.8908 29.9731 103.886C29.2436 104.952 28.3793 105.995 28.1773 107.263C27.6835 110.314 31.0618 112.501 34.0361 113.331C41.2304 115.35 49.1656 114.553 55.8212 111.144C56.4834 110.807 57.1793 110.403 57.5384 109.753C58.0772 108.799 57.7966 107.622 57.4935 106.567L57.4823 106.601ZM41.3876 75.8452C41.3539 75.7891 41.3202 75.733 41.2978 75.6769C41.3314 75.733 41.3651 75.7891 41.3988 75.8452C41.3988 75.8452 41.3988 75.8452 41.3876 75.8452Z" fill="#EA4E8A"/>
<path d="M51.2981 73.557C51.3318 74.3646 50.7594 75.1049 50.0747 75.4526C49.3789 75.8003 48.5932 75.8452 47.83 75.8452C45.0129 75.8452 41.8702 75.1161 40.3438 72.6036C39.3337 72.5251 38.2787 72.4578 37.3359 72.8728C36.3931 73.2766 35.6187 74.3197 35.7982 75.3741C35.8431 75.6321 35.9441 75.8901 35.8992 76.148C35.8431 76.4957 35.5401 76.7313 35.2819 76.9556C32.4199 79.3223 31.0843 83.5958 32.0495 87.3085C32.1954 87.8917 32.4311 88.4974 32.9025 88.8451C33.5984 89.3499 34.5749 89.0807 35.2258 88.5086C35.8768 87.9366 36.2809 87.1402 36.7747 86.4111C39.1766 82.8219 43.363 81.1618 47.3698 80.0289C48.4249 79.7261 49.5921 79.3447 50.4227 78.6381C50.4227 78.8624 50.4339 79.0868 50.4339 79.3111C50.4339 80.0289 50.4563 80.7468 50.4563 81.4534C50.4563 82.8892 50.4227 84.3136 50.3553 85.7381C50.2094 88.6096 49.9288 91.481 49.4911 94.33C49.3676 95.1264 49.2442 95.9115 49.0983 96.6967C49.0309 97.1005 48.9524 97.5043 48.8738 97.8968C48.8626 97.9529 48.8514 98.0202 48.8289 98.0875C48.5259 98.0875 48.2116 98.1773 47.9647 98.4016C47.7178 98.6259 47.6055 98.9288 47.628 99.2204C47.5606 99.8934 47.931 100.645 48.683 100.656C49.5023 100.679 50.0298 99.7588 49.9176 99.0185C49.8727 98.7381 49.7492 98.525 49.5697 98.3679C49.5809 98.3006 49.5921 98.2221 49.6033 98.1548C49.6707 97.7847 49.738 97.4145 49.8054 97.0444C49.9288 96.3265 50.0523 95.5975 50.1645 94.8796C50.3778 93.4663 50.5574 92.0418 50.7033 90.6285C50.9951 87.7459 51.141 84.852 51.141 81.9582C51.141 81.1394 51.141 80.3206 51.0961 79.5018C51.0736 78.997 51.0624 78.4811 51.0175 77.9651C51.1298 77.7969 51.2196 77.6174 51.2981 77.4155C52.3531 77.909 53.6102 77.9427 54.6877 77.4716C53.9918 75.834 52.7796 74.4319 51.3093 73.5458L51.2981 73.557ZM48.986 99.512C48.7279 99.5345 48.3912 99.5569 48.2789 99.2428C48.2004 99.0185 48.4024 98.839 48.6044 98.7605C48.784 98.94 48.9748 99.1082 49.1544 99.2877C49.1993 99.3326 49.2442 99.3438 49.2891 99.3438C49.2891 99.4559 49.2442 99.5681 49.1993 99.6691C49.1768 99.5793 49.0983 99.5008 48.986 99.5008V99.512Z" fill="#A4C63B"/>
<path d="M54.0367 98.7717C53.9694 98.6147 53.8571 98.5025 53.6776 98.4913C53.6663 98.4913 53.6551 98.4913 53.6439 98.4913C53.6439 97.0556 53.6663 95.6199 53.6776 94.1841C53.6776 93.3317 53.7 92.4792 53.6888 91.6268C53.6888 91.2118 53.6888 90.7855 53.6776 90.3705C53.6776 89.9331 53.6776 89.4956 53.6214 89.0582C53.5878 88.8563 53.2623 88.8675 53.2286 89.0582C53.1501 89.4732 53.1501 89.8994 53.1388 90.3144C53.1164 90.7519 53.1052 91.1893 53.0939 91.6268C53.0715 92.4792 53.0603 93.3317 53.0378 94.1841C53.0154 95.6086 52.9817 97.0444 52.9593 98.4688C52.8919 98.4688 52.8246 98.4688 52.7572 98.4688C52.6674 98.4688 52.5889 98.4913 52.5328 98.5362C52.3981 98.5362 52.2634 98.5586 52.1399 98.6034C51.4441 98.839 51.1971 99.6129 51.5675 100.23C51.9491 100.88 52.8358 101.138 53.4755 100.712C54.0816 100.297 54.3285 99.4447 54.0479 98.7717H54.0367ZM52.2522 99.9494C51.7246 99.3437 52.7909 98.9848 52.948 99.4559C53.0041 99.6466 53.1837 99.7251 53.3521 99.7027C53.3184 99.8036 53.2623 99.8934 53.1837 99.9831C52.9256 100.275 52.5103 100.241 52.2522 99.9494Z" fill="#A4C63B"/>
<path d="M83.4541 77.2697C83.2857 77.3146 83.1286 77.3707 82.9715 77.438C82.1858 77.3258 81.3889 77.2585 80.592 77.3034C80.5584 77.2137 80.5247 77.1351 80.4798 77.0454C79.3125 77.0454 78.0779 77.0454 77.079 77.6399C76.0913 78.2231 75.4853 79.5916 76.0913 80.5562C75.8781 81.5096 75.9679 82.5752 75.8893 83.551C68.4929 88.2619 58.8181 89.3051 50.6136 86.1532L44.7437 92.1204C46.6517 92.7261 48.5597 93.3206 50.4677 93.9263C53.3185 94.8236 56.2255 95.7321 59.2222 95.7433C64.1381 95.7545 68.695 93.3654 73.0273 91.0324C74.8904 90.0341 76.7535 89.0246 78.6167 88.0264C78.7401 88.0152 78.8636 87.9927 78.987 87.9703C80.9624 87.5441 82.5562 86.0186 83.5102 84.2576C84.2397 82.9116 84.655 81.4199 84.958 79.9168C85.2947 79.7037 85.5529 79.4457 85.6651 79.0419C85.9682 77.9427 84.554 77.0118 83.4541 77.281V77.2697Z" fill="#FFB48F"/>
<path d="M52.1623 93.3429C52.6898 90.6734 53.2959 88.0151 54.0704 85.4016C54.0928 85.3231 54.1152 85.2446 54.1377 85.1549C53.3296 84.9418 52.5327 84.6838 51.7471 84.3922C49.8839 83.6967 48.1106 82.7545 46.1801 82.2835C45.3383 82.0816 44.4405 81.9806 43.5762 82.0255C41.9937 81.9694 40.4561 82.676 39.4459 83.8986C38.2674 85.3007 37.8634 87.0953 38.1328 88.89C38.7276 92.7485 42.2743 95.2722 45.9332 95.8554C46.5393 95.9564 47.1341 96.0012 47.7514 96.0237C48.9973 96.3265 50.288 96.506 51.5787 96.6069C51.7583 95.5189 51.9491 94.4309 52.1623 93.3542V93.3429Z" fill="#CE427C"/>
<path d="M248.981 78.2456L248.79 72.5251C244.312 76.1369 239.329 79.9393 233.313 80.1972C230.406 80.3206 227.555 79.5915 224.771 78.8064C221.943 78.01 219.137 77.1576 216.354 76.2602L215.433 80.0066C215.355 80.3431 215.265 80.7132 215.433 81.0273C215.591 81.3077 215.905 81.4871 216.219 81.633C221.831 84.4595 228.015 86.714 234.457 86.7028C240.889 86.6916 247.612 84.0221 250.721 78.9746C250.137 78.7279 249.553 78.4811 248.97 78.2344L248.981 78.2456Z" fill="#EA9E7D"/>
<path d="M243.908 78.324L244.514 75.6321C241.214 76.0022 237.97 76.8098 234.884 78.0324C235.322 81.2067 236.017 84.3361 236.983 87.387C237.162 87.9702 237.622 88.6881 238.195 88.475C238.419 88.3853 238.565 88.1721 238.7 87.959C240.552 85.0091 242.415 82.0591 244.267 79.1092C244.401 78.8849 244.547 78.6269 244.469 78.3801C244.39 78.1334 243.953 78.0548 243.896 78.3128L243.908 78.324Z" fill="#CCE561"/>
<path d="M248.902 160.821C248.431 160.586 247.892 160.597 247.365 160.631C242.011 160.967 236.725 163.031 231.416 162.212L228.958 162.313C228.419 163.244 228.284 164.411 228.61 165.443C230.619 166.834 233.223 167.013 235.647 166.755C238.071 166.497 240.451 165.824 242.886 165.678C245.21 165.544 247.701 165.846 249.722 164.691C250.058 163.3 250.204 161.45 248.913 160.81L248.902 160.821Z" fill="#7C591F"/>
<path d="M250.104 161.035C250.07 160.496 249.834 160.003 249.632 159.498C248.6 156.851 248.689 153.912 248.79 151.074C248.364 150.872 247.937 150.659 247.522 150.457L242.853 151.949C241.113 153.161 240.013 155.079 238.566 156.626C236.523 158.802 233.717 160.238 230.765 160.608C230.058 160.698 229.272 160.765 228.812 161.315C228.128 162.145 228.711 163.435 229.508 164.153C231.394 165.846 234.166 166.093 236.669 165.745C239.172 165.398 241.585 164.545 244.099 164.332C245.367 164.22 246.68 164.276 247.881 163.85C249.082 163.424 250.182 162.313 250.092 161.035H250.104Z" fill="#EA9E7D"/>
<path d="M233.571 159.532C232.65 159.801 231.865 160.653 230.922 160.496C232.471 161.752 233.167 163.962 232.628 165.891L232.549 166.127C235.097 166.318 237.679 166.037 240.137 165.308C239.856 163.827 238.801 162.627 237.757 161.528C236.635 160.339 235.131 159.072 233.571 159.543V159.532Z" fill="#CE427C"/>
<path d="M248.734 158.612C247.365 161.225 245.142 163.39 242.482 164.691L243.066 165.005C244.615 164.837 246.31 164.59 247.331 163.424C248.364 162.257 248.442 160.418 249.609 159.386C249.318 159.128 249.026 158.87 248.723 158.612H248.734Z" fill="#CE427C"/>
<path d="M260.8 164.332C260.328 164.097 259.79 164.108 259.262 164.142C253.908 164.478 248.622 166.531 243.313 165.723L240.855 165.824C240.316 166.755 240.182 167.922 240.507 168.953C242.516 170.344 245.12 170.524 247.545 170.266C249.969 170.008 252.348 169.335 254.784 169.189C257.107 169.054 259.599 169.357 261.619 168.202C261.956 166.811 262.102 164.96 260.811 164.321L260.8 164.332Z" fill="#7C591F"/>
<path d="M241.304 115.63L252.853 122.427C251.551 126.073 250.249 129.797 250.204 133.666C250.182 135.708 250.519 137.727 250.687 139.757C251.158 145.444 250.283 151.231 248.15 156.514C247.96 156.985 247.746 157.468 247.331 157.771C246.893 158.096 246.31 158.141 245.771 158.163C243.672 158.287 240.889 157.916 240.507 155.853C240.339 154.966 240.72 154.092 241.046 153.25C242.37 149.807 242.83 146.016 242.336 142.359C241.989 139.723 241.169 137.166 240.619 134.564C239.295 128.316 239.531 121.743 241.293 115.608L241.304 115.63Z" fill="#EA9E7D"/>
<path d="M245.165 118.288L257.948 122.326C257.499 126.174 257.062 130.099 257.892 133.879C258.33 135.865 259.116 137.76 259.733 139.712C261.461 145.141 261.91 150.985 261.024 156.615C260.945 157.12 260.844 157.636 260.507 158.029C260.148 158.444 259.598 158.612 259.071 158.769C257.05 159.363 254.267 159.621 253.414 157.692C253.055 156.873 253.223 155.931 253.358 155.034C253.885 151.377 253.47 147.586 252.179 144.12C251.248 141.63 249.879 139.319 248.756 136.908C246.062 131.12 244.817 124.659 245.165 118.288Z" fill="#FFB48F"/>
<path d="M262.012 164.557C261.978 164.018 261.742 163.525 261.54 163.02C260.508 160.373 260.598 157.434 260.699 154.596C260.272 154.394 259.846 154.181 259.43 153.979L254.761 155.471C253.022 156.683 251.922 158.601 250.474 160.149C248.431 162.325 245.625 163.76 242.673 164.13C241.966 164.22 241.181 164.287 240.72 164.837C240.036 165.667 240.619 166.957 241.416 167.675C243.302 169.368 246.074 169.615 248.577 169.268C251.08 168.92 253.493 168.067 256.007 167.854C257.275 167.742 258.589 167.798 259.789 167.372C260.99 166.935 262.09 165.835 262.001 164.557H262.012Z" fill="#FFB48F"/>
<path d="M245.479 163.054C244.559 163.323 243.773 164.175 242.83 164.018C244.379 165.274 245.075 167.484 244.536 169.413L244.458 169.649C247.005 169.84 249.587 169.559 252.045 168.83C251.764 167.35 250.709 166.149 249.665 165.05C248.543 163.861 247.039 162.594 245.479 163.065V163.054Z" fill="#EA4E8A"/>
<path d="M260.642 162.123C259.273 164.736 257.051 166.901 254.391 168.202L254.974 168.516C256.523 168.348 258.218 168.101 259.239 166.935C260.272 165.768 260.35 163.928 261.518 162.897C261.226 162.639 260.934 162.381 260.631 162.123H260.642Z" fill="#EA4E8A"/>
<path d="M243.638 131.434C245.524 131.614 247.421 131.614 249.306 131.558C250.866 131.49 252.426 131.378 253.987 131.21C255.872 131.008 257.758 130.739 259.598 130.313C261.125 129.954 262.651 129.55 264.144 129.09C262.629 125.03 261.316 120.891 260.216 116.696C260.002 113.084 259.621 109.483 259.071 105.905C258.757 106.219 258.375 106.421 257.96 106.556C257.96 106.556 257.96 106.545 257.96 106.534L238.004 105.827C237.174 113.667 236.175 121.485 235.019 129.281C237.252 130.055 239.519 130.705 241.831 131.221C242.426 131.3 243.032 131.367 243.627 131.423L243.638 131.434Z" fill="#FFBE00"/>
<path d="M234.211 33.4019C234.974 31.5736 236.545 30.2164 238.229 29.1845C245.412 24.7764 255.435 25.6737 261.72 31.282L255.457 32.2691C254.189 31.9886 252.865 32.2915 251.574 32.4822C249.251 32.8187 246.86 32.7514 244.626 33.4356C242.393 34.131 240.238 35.8583 240.002 38.1802C239.946 38.7186 239.946 39.3579 239.486 39.6383C239.284 39.7617 239.037 39.7841 238.813 39.7953C237.522 39.8963 236.231 39.986 234.94 40.087C234.649 40.1094 234.323 40.1206 234.076 39.9524C233.739 39.7168 233.683 39.2569 233.661 38.8419C233.571 37.0024 233.493 35.0844 234.2 33.3795L234.211 33.4019Z" fill="#52443B"/>
<path d="M271.215 54.332C273.269 54.1525 275.368 53.973 277.388 54.4105C279.408 54.8479 281.373 56.0032 282.293 57.8539C282.933 59.1551 283 60.6469 283 62.0938C283 64.281 282.888 66.4794 282.652 68.6554C280.172 69.0256 277.534 68.0049 275.952 66.0532C274.246 63.9669 273.83 61.1067 272.439 58.7961C271.832 57.7979 271.047 56.9005 270.115 56.1715L271.215 54.3095V54.332Z" fill="#675546"/>
<path d="M260.71 59.5701L263.168 58.1904C265.614 57.2146 268.443 59.1214 269.43 61.5554C270.418 64.0006 270.07 66.7486 269.7 69.3509C267.062 69.0592 264.346 68.4199 262.337 66.6925C260.339 64.954 259.34 61.8358 260.698 59.5701H260.71Z" fill="#675546"/>
<path d="M238.768 34.5012C240.025 32.7177 241.866 31.5288 243.752 30.6315C250.138 27.603 257.669 27.5806 264.078 30.5529C267.332 32.0672 270.464 34.5572 271.586 38.2026C271.8 38.9092 271.934 39.6271 272.013 40.3562C273.18 42.0947 273.55 44.6409 273.416 46.8954C272.843 56.7323 265.997 65.7504 257.254 68.2068C255.087 68.8125 252.349 68.8237 251.126 66.7711C250.688 66.0308 250.531 65.1334 250.362 64.2698C248.881 56.822 245.39 49.8678 240.429 44.5063C239.397 43.3959 238.274 42.2966 237.724 40.8385C236.939 38.7522 237.511 36.2846 238.768 34.4899V34.5012Z" fill="#52443B"/>
<path d="M245.94 65.0886L256.771 61.3871C255.166 64.9652 254.459 68.9359 254.751 72.8392C254.829 73.9272 254.975 75.0825 254.481 76.0583C253.763 77.4604 252.012 77.9427 250.452 78.1895C249.274 78.3689 247.938 78.4699 247.04 77.6847C246.254 77.0117 246.075 75.8901 245.929 74.8582C245.514 71.7624 245.098 68.6667 244.694 65.5597C245.11 65.4027 245.525 65.2344 245.94 65.0774V65.0886Z" fill="#EA9E7D"/>
<path d="M235.513 67.1972C235.008 66.5691 234.503 65.941 234.02 65.2904C233.504 64.5277 233.033 63.7426 232.617 62.935C232.146 61.9367 231.764 60.9048 231.517 59.828C231.371 59.0316 231.304 58.224 231.326 57.4164C231.371 56.7322 231.484 56.0368 231.674 55.375C232 54.4889 232.55 53.6926 232.976 52.8513C233.235 52.3466 233.448 51.797 233.571 51.2474C233.65 51.1128 233.717 50.9782 233.773 50.8436C233.93 50.5856 234.054 50.3052 234.121 50.0135C234.469 49.3854 234.559 48.6227 234.66 47.9048C235.199 43.923 236.164 39.9411 238.33 36.5986C240.485 33.2561 243.976 30.6202 248.05 30.1828C251.765 29.7902 255.615 31.2708 258.555 33.6935C261.496 36.1163 263.583 39.4139 265.054 42.8686C266.434 46.1102 267.31 49.621 266.928 53.042C266.838 53.8159 266.681 54.5899 266.445 55.3414C266.939 55.4984 267.411 55.7676 267.792 56.1265C268.634 56.8893 269.139 57.9548 269.498 59.0316C269.925 60.2991 270.172 61.7012 269.689 62.9462C269.262 64.0342 268.32 64.8642 267.265 65.3465C266.198 65.8288 265.031 66.0083 263.864 66.0868C262.641 66.1765 261.327 66.1541 260.261 65.5596C258.14 67.5786 255.412 68.9246 252.573 69.6985C251.327 70.035 250.048 70.2706 248.768 70.4164C247.5 70.4164 246.243 70.4388 244.974 70.293C244.941 70.293 244.896 70.293 244.862 70.2818C243.673 70.3715 242.472 70.3491 241.282 70.2257C239.688 70.0575 238.038 69.6424 236.815 68.6217C236.321 68.2067 235.917 67.702 235.513 67.1972Z" fill="#FFB48F"/>
<path d="M262.281 63.3948C262.281 63.3948 262.248 63.4394 262.236 63.4729C262.248 63.4506 262.27 63.4283 262.281 63.3948Z" fill="#EA9E7D"/>
<path d="M262.91 63.0471C262.663 63.0583 262.427 63.2041 262.281 63.406C262.349 63.2939 262.427 63.1817 262.495 63.0696L262.91 63.0471Z" fill="#EA9E7D"/>
<path d="M265.132 59.054C265.648 58.7288 266.355 58.4708 266.838 58.8521C267.309 59.2223 267.265 59.9289 267.175 60.5234C267.107 60.9608 266.905 61.5104 266.468 61.4768C266.299 61.4768 266.153 61.3646 265.996 61.2861C265.289 60.9272 264.391 61.1403 263.752 61.6226C263.235 62.004 262.854 62.5199 262.506 63.0583H262.236C262.652 61.4319 263.707 59.9626 265.143 59.0428L265.132 59.054Z" fill="#EA9E7D"/>
<path d="M239.71 55.5545C240.025 54.9601 240.777 54.7021 241.428 54.8142C242.09 54.9264 242.662 55.3302 243.145 55.7901C243.47 56.0929 243.762 56.4182 244.02 56.7771C244.11 56.8893 244.2 57.0239 244.189 57.1697C244.177 57.3828 243.942 57.5399 243.728 57.5286C243.684 57.5286 243.65 57.5286 243.605 57.5174C243.538 57.4613 243.47 57.4053 243.403 57.3492C243.201 57.2034 242.988 57.0688 242.774 56.9566C242.629 56.8108 242.483 56.6538 242.359 56.4967L242.539 56.8557C242.539 56.8557 242.528 56.8557 242.516 56.8557C242.404 56.8108 242.281 56.7996 242.18 56.8557C242.022 56.8444 241.865 56.8444 241.708 56.8557C241.259 56.9229 240.844 57.1921 240.395 57.1361C239.733 57.0463 239.396 56.1602 239.699 55.577L239.71 55.5545Z" fill="#EA9E7D"/>
<path d="M248.442 60.2318C248.364 61.3535 249.857 62.3742 251.765 62.4976C253.673 62.6209 255.278 61.8133 255.356 60.6917C255.435 59.57 253.942 58.5493 252.034 58.426C250.126 58.3026 248.521 59.1102 248.442 60.2318Z" fill="#FF9985"/>
<path d="M231.439 56.5192C231.495 56.1266 231.585 55.7452 231.686 55.3639C232.011 54.4778 232.561 53.6814 232.988 52.8402C233.01 52.7953 233.033 52.7504 233.055 52.7056C233.055 52.7056 233.078 52.7168 233.078 52.728C234.537 53.973 235.12 55.6667 234.38 56.5304C233.807 57.1922 232.617 57.1585 231.428 56.5304L231.439 56.5192Z" fill="#FF9985"/>
<path d="M255.749 47.3553C254.481 45.2802 251.787 43.8557 249.363 44.5175C249.172 44.5736 249.194 44.8877 249.407 44.8764C250.519 44.8316 251.686 44.9886 252.696 45.4709C253.717 45.9532 254.604 46.7047 255.188 47.6694C255.401 48.0171 255.962 47.7142 255.749 47.3553Z" fill="#945431"/>
<path d="M247.949 52.7616C247.421 54.6348 248.543 56.5865 250.463 57.1249C252.382 57.6632 254.357 56.5865 254.885 54.7133C255.412 52.8401 254.29 50.8885 252.371 50.3501C250.451 49.8117 248.476 50.8885 247.949 52.7616Z" fill="#AF7561"/>
<path d="M248.106 52.9411C247.635 54.6124 248.633 56.3509 250.351 56.8332C252.057 57.3155 253.819 56.3509 254.29 54.6909C254.762 53.0196 253.763 51.2811 252.045 50.7987C250.339 50.3164 248.577 51.2811 248.106 52.9411Z" fill="white"/>
<path d="M247.938 54.3656C247.994 55.7789 249.15 56.8781 250.519 56.8332C251.889 56.7883 252.955 55.5882 252.91 54.1749C252.865 52.7616 251.698 51.6624 250.329 51.7073C248.959 51.7633 247.893 52.9523 247.938 54.3656Z" fill="#3F494C"/>
<path d="M234.48 49.0602C233.964 50.8885 234.94 52.7616 236.657 53.244C238.374 53.7263 240.182 52.6383 240.698 50.81C241.214 48.9817 240.238 47.1085 238.52 46.6262C236.803 46.1439 234.996 47.2319 234.48 49.0602Z" fill="#AF7561"/>
<path d="M234.615 49.2284C234.155 50.8548 235.019 52.5261 236.556 52.9523C238.083 53.3785 239.699 52.4139 240.159 50.7875C240.619 49.1611 239.755 47.4899 238.218 47.0636C236.68 46.6374 235.075 47.602 234.615 49.2284Z" fill="white"/>
<path d="M234.773 50.7875C234.851 52.212 236.041 53.3 237.433 53.2215C238.824 53.143 239.891 51.9316 239.812 50.5183C239.733 49.0938 238.544 48.0058 237.152 48.0843C235.76 48.1628 234.694 49.3742 234.773 50.7875Z" fill="#3F494C"/>
<path d="M250.867 53.4346C250.766 53.8047 250.912 54.1749 251.215 54.2646C251.507 54.3431 251.843 54.1076 251.944 53.7374C252.045 53.3673 251.899 52.9972 251.596 52.9074C251.305 52.8289 250.968 53.0645 250.867 53.4346Z" fill="white"/>
<path d="M237.915 49.5425C237.814 49.9127 237.96 50.2828 238.263 50.3725C238.554 50.451 238.891 50.2155 238.992 49.8454C239.093 49.4752 238.947 49.1051 238.644 49.0153C238.352 48.9368 238.016 49.1724 237.915 49.5425Z" fill="white"/>
<path d="M238.207 59.5925C240.833 59.985 243.213 61.9255 245.929 61.8582C245.962 62.52 245.502 63.1369 244.896 63.4958C244.29 63.8435 243.549 63.9557 242.831 63.9669C241.26 63.9893 239.677 63.5295 238.465 62.6209C237.253 61.7124 236.434 60.344 236.344 58.9083C236.972 59.1326 237.59 59.3681 238.218 59.5925H238.207Z" fill="#8C310A"/>
<path d="M238.263 59.3906C240.238 60.0972 242.202 60.8039 244.178 61.5105C244.256 61.5442 244.312 61.589 244.346 61.6563C244.346 61.6563 244.357 61.6563 244.368 61.6563C244.627 61.589 244.728 61.9592 244.481 62.0489C243.83 62.2844 243.145 62.2957 242.483 62.0938C242.169 61.9928 241.854 61.847 241.585 61.6563C241.562 61.6339 241.529 61.6227 241.506 61.6002C241.304 61.5442 241.102 61.4881 240.9 61.432C239.868 61.1179 238.902 60.602 238.038 59.9626C237.78 59.7719 237.915 59.2672 238.274 59.3906H238.263Z" fill="white"/>
<path d="M236.95 42.3303C237.129 42.1845 237.376 42.1396 237.601 42.0723C237.837 42.005 238.061 41.9377 238.308 41.9041C238.779 41.8368 239.24 41.8031 239.722 41.8592C240.205 41.9153 240.676 42.0274 241.125 42.2405C241.327 42.3303 241.54 42.4312 241.731 42.5546C241.843 42.6219 241.956 42.6892 241.967 42.835C241.967 42.9023 241.989 43.0033 241.922 43.0481C241.686 43.194 241.54 43.093 241.305 42.9921C241.114 42.9135 240.923 42.8462 240.732 42.8014C240.339 42.7004 239.947 42.5995 239.543 42.5434C239.139 42.4985 238.734 42.4649 238.342 42.4985C238.14 42.521 237.926 42.521 237.736 42.5658C237.522 42.6107 237.32 42.7116 237.107 42.7116C236.939 42.7116 236.804 42.4649 236.95 42.3415V42.3303Z" fill="#945431"/>
<path d="M236.837 39.4701C238.128 41.074 240.417 40.9394 242.393 40.8385C246.703 40.603 251.046 41.1526 255.199 42.4537C254.413 40.3113 254.02 37.9895 254.077 35.6901C254.604 38.6288 256.142 41.332 258.33 43.1715C258.409 41.2311 258.173 38.5952 259.902 38.0456C260.867 37.7315 261.922 38.4606 262.405 39.414C262.887 40.3786 262.932 41.5115 262.977 42.5995C263.157 47.6694 263.347 52.7504 263.527 57.8203C263.516 57.8427 263.504 57.8539 263.493 57.8764C263.415 57.9998 263.549 58.1904 263.695 58.1344C264.021 58.0222 264.268 57.8652 264.526 57.6408C264.773 57.4277 265.031 57.2146 265.255 56.9791C265.704 56.5192 266.131 56.0257 266.524 55.5209C267.321 54.489 267.972 53.3673 268.488 52.1672C269.408 50.0248 269.902 47.6918 269.868 45.3475C269.835 43.0706 269.273 40.8385 268.263 38.7971C267.276 36.7781 265.85 34.9723 264.133 33.5141C263.269 32.785 262.337 32.1345 261.35 31.5961C259.049 30.037 256.4 29.0499 253.695 28.6798C249.25 28.0741 244.682 29.106 240.664 31.2147C239.183 31.9999 237.713 32.9757 236.815 34.4675C235.928 35.9705 235.771 38.1017 236.86 39.4477L236.837 39.4701ZM268.252 40.9843C268.252 40.9843 268.286 41.0965 268.308 41.1526C268.308 41.1526 268.297 41.1413 268.286 41.1301C268.286 41.0853 268.263 41.0292 268.252 40.9843ZM267.163 53.0533C267.309 52.6831 267.444 52.313 267.567 51.9316C267.747 51.5727 267.915 51.2026 268.073 50.8324C268.23 50.451 268.376 50.0473 268.51 49.6547C268.241 50.6529 267.882 51.6176 267.433 52.5485C267.354 52.7168 267.264 52.885 267.175 53.0645L267.163 53.0533Z" fill="#675546"/>
<path d="M270.7 56.5641C271.597 55.4648 272.103 54.0628 272.114 52.6495C272.192 52.7056 272.271 52.7504 272.361 52.7841C272.361 52.7841 272.383 52.7841 272.394 52.7729C272.361 52.5598 272.529 52.313 272.776 52.4027C272.854 52.4364 272.944 52.47 273.023 52.5037C273.034 52.47 273.057 52.4476 273.101 52.4364C273.64 52.3354 274.1 52.7617 274.358 53.1879C274.639 53.6478 274.774 54.231 274.718 54.7806C274.662 55.3527 274.415 55.8686 274.089 56.3285C273.786 57.1024 273.326 57.8203 272.63 58.2577C271.799 58.7849 270.576 58.7849 269.914 58.0446C269.891 57.4726 270.34 57.0015 270.711 56.5641H270.7Z" fill="#EA4E8A"/>
<path d="M244.705 39.2457C244.458 37.6193 244.626 35.9481 245.199 34.4114C245.412 36.8903 247.724 39.1896 250.575 39.7505C249.767 38.225 249.374 36.5538 249.408 34.9049C249.441 34.7816 249.475 34.6582 249.509 34.5236C249.621 34.131 249.767 33.7496 249.913 33.3683C249.991 33.1664 250.059 32.9533 250.137 32.7514C250.204 32.5831 250.272 32.4149 250.238 32.2354V32.2242C250.238 32.2242 250.249 32.213 250.261 32.2018C250.249 32.2018 250.238 32.2018 250.227 32.2018C250.227 32.2018 250.216 32.1905 250.204 32.1905C250.137 32.0784 249.98 32.0111 249.856 32.112H249.845C247.219 31.5512 244.447 31.5288 241.854 32.0672C241.472 32.1457 241.091 32.2466 240.799 32.4485C240.417 32.7289 240.238 33.1552 240.148 33.5814C239.632 36.0266 241.82 38.7522 244.716 39.2569L244.705 39.2457ZM248.364 32.7738C248.588 32.8075 248.824 32.7962 249.037 32.7738C249.003 32.8075 248.97 32.8299 248.936 32.8635L248.353 32.785L248.364 32.7738Z" fill="#7C6859"/>
<path d="M259.408 100.308C257.927 95.4629 257.175 90.4155 257.186 85.3793C257.197 81.3077 257.635 76.9444 255.356 73.4561L254.47 72.7158C252.214 72.9514 249.958 73.1757 247.691 73.4112C246.602 73.5234 245.457 73.6468 244.537 74.1964C243.83 74.6226 243.313 75.2508 242.853 75.9013C237.062 83.8875 237.084 94.173 237.309 103.786C237.342 105.322 237.443 107.016 238.588 108.138C239.452 108.979 240.732 109.315 241.967 109.551C246.602 110.437 251.45 110.37 256.052 109.383C256.939 109.192 257.837 108.956 258.566 108.452C261.08 106.713 260.239 103.124 259.386 100.331L259.408 100.308Z" fill="#A4C63B"/>
<path d="M253.471 82.4629L248.353 80.0402C247.421 83.035 246.501 86.0186 245.569 89.0134C245.345 89.7312 245.12 90.4491 244.727 91.0772C243.437 93.1186 240.732 93.6907 238.319 93.7019C235.558 93.7019 232.808 93.2308 230.226 92.2774C229.62 93.5785 229.149 94.9469 228.823 96.3602C228.745 96.6855 228.689 97.0332 228.823 97.336C229.037 97.8071 229.62 97.9642 230.137 98.0539C234.357 98.8166 238.588 99.4672 242.842 100.017C244.166 100.185 245.547 100.342 246.815 99.9158C249.655 98.9624 250.766 95.6199 251.495 92.726C252.371 89.2377 253.257 85.7494 254.133 82.261C253.92 82.3283 253.695 82.4069 253.482 82.4742L253.471 82.4629Z" fill="#FFB48F"/>
<path d="M255.098 79.5242C254.582 78.3914 253.336 77.7184 252.101 77.6174C251.271 77.5501 250.44 77.7071 249.655 77.9988L250.923 77.438C249.756 77.0454 248.431 77.5165 247.5 78.3241C246.568 79.1316 245.94 80.2196 245.334 81.2964C244.256 83.192 243.179 85.0988 242.112 86.9944C245.244 88.5872 248.543 89.8546 251.944 90.7856C252.247 90.8641 252.595 90.9426 252.876 90.7856C253.078 90.6622 253.179 90.4267 253.28 90.2136C254.346 87.6898 255.042 85.0091 255.345 82.2947C255.446 81.3749 255.502 80.3991 255.109 79.5579L255.098 79.5242Z" fill="#CCE561"/>
<path d="M217.173 76.9668C215.781 75.6769 214.199 74.4207 212.313 74.2188C210.506 74.0169 208.441 75.2283 208.273 77.0005C208.104 77.0341 207.947 77.079 207.79 77.1351C206.87 77.4716 206.106 78.4025 206.252 79.3672C206.78 79.5018 207.296 79.6364 207.824 79.771C207.644 81.1057 208.845 82.3283 210.158 82.5975C211.471 82.8779 212.841 82.4293 214.064 81.8685C215.287 81.3076 216.466 80.6122 217.79 80.3318L217.184 76.9556L217.173 76.9668Z" fill="#EA9E7D"/>
<path d="M230.215 91.6941C229.373 90.8978 228.486 90.0677 227.364 89.7873C225.759 89.3948 224.131 90.2023 222.684 90.9987C221.707 91.5371 220.719 92.0643 219.743 92.6027C219.294 92.8494 218.778 93.343 219.07 93.758C219.182 93.9262 219.395 93.9935 219.597 94.0496C220.562 94.3076 221.572 94.4085 222.583 94.3637C222.111 94.5431 221.774 95.003 221.73 95.5078C222.336 95.6424 222.942 95.777 223.548 95.9116C223.368 96.2817 223.817 96.6406 224.199 96.7864C226.399 97.6613 228.812 97.9866 231.157 97.695C231.157 97.28 231.169 96.8537 231.18 96.4387L232.976 94.3188C232.055 93.4439 231.135 92.569 230.215 91.6941Z" fill="#FFB48F"/>
<path d="M210.134 67.8642L209.698 67.8952C209.135 67.9351 208.711 68.4233 208.751 68.9856L209.871 84.7612C209.911 85.3235 210.4 85.747 210.963 85.7071L211.399 85.6761C211.962 85.6362 212.386 85.148 212.346 84.5857L211.225 68.8101C211.185 68.2478 210.697 67.8243 210.134 67.8642Z" fill="#569156"/>
<path d="M212.908 75.0488C210.461 74.9591 208.115 76.9444 207.801 79.3672C208.8 79.5803 209.888 79.2999 210.663 78.6269C210.932 78.3913 211.179 78.1109 211.527 78.01C212.492 77.7296 213.603 79.0643 214.367 78.4138C214.4 78.1334 214.434 77.8642 214.456 77.5837L212.908 75.0376V75.0488Z" fill="#EA9E7D"/>
<path d="M153.041 98.9849C153.703 97.5043 152.615 95.9228 151.593 94.7787C150.662 93.7243 149.719 92.67 148.787 91.6268L144.04 90.8417C140.426 93.1411 136.823 95.4404 133.209 97.7398C131.694 98.7045 130.1 99.7476 129.258 101.408C127.552 104.75 129.64 108.642 131.66 111.626C135.128 116.763 138.607 121.911 142.076 127.049C144.444 127.407 146.531 124.671 146.632 122.091C146.733 119.511 145.488 117.178 144.275 114.991C142.547 111.873 140.818 108.754 139.09 105.636C143.377 104.649 147.541 102.944 151.38 100.589C152.042 100.185 152.727 99.7252 153.052 98.9849H153.041Z" fill="#EA9E7D"/>
<path d="M148.9 122.629C147.194 121.564 145.398 120.666 143.546 119.971C143.681 120.307 143.815 120.644 143.95 120.98C143.243 122.854 141.671 124.278 139.685 124.794C139.371 127.497 139.045 130.212 138.731 132.915C138.596 134.025 138.473 135.169 138.731 136.325C139 137.48 139.752 138.68 140.886 139.218C142.906 140.183 144.792 138.635 145.903 137.065C148.316 133.61 149.831 129.471 150.291 125.063C150.336 124.671 150.359 124.267 150.19 123.874C149.966 123.336 149.427 122.955 148.911 122.64L148.9 122.629Z" fill="#F75448"/>
<path d="M148.395 122.865C148.395 122.988 148.361 123.1 148.384 123.235C148.395 123.358 148.417 123.482 148.429 123.605C148.462 123.874 148.496 124.144 148.518 124.413C148.563 124.906 148.586 125.411 148.586 125.905C148.574 126.88 148.473 127.834 148.283 128.765C147.901 130.627 147.16 132.365 146.094 133.868C145.499 134.698 144.815 135.439 144.051 136.123C143.423 135.382 142.536 134.878 141.627 134.676C141.144 134.575 140.662 134.552 140.213 134.62C140.022 134.653 139.842 134.698 139.674 134.754C139.618 134.665 139.483 134.597 139.405 134.687C139.169 134.956 138.922 135.225 138.675 135.495C138.552 135.64 138.81 135.865 138.933 135.73C139.113 135.528 139.292 135.338 139.472 135.136C139.539 135.113 139.607 135.091 139.674 135.068C139.865 134.99 140.067 134.934 140.28 134.9C140.695 134.833 141.156 134.855 141.593 134.945C142.48 135.136 143.344 135.64 143.928 136.392C144.029 136.515 144.197 136.47 144.22 136.37C147.138 134.003 148.81 130.212 148.945 126.241C148.967 125.68 148.956 125.119 148.922 124.547C148.9 124.256 148.877 123.975 148.844 123.684C148.821 123.538 148.81 123.392 148.776 123.246C148.754 123.112 148.675 122.977 148.631 122.842C148.586 122.708 148.406 122.741 148.406 122.865H148.395Z" fill="white"/>
<path d="M143.411 120.117C143.793 122.394 142.154 124.334 139.932 124.491C139.707 124.502 139.741 124.839 139.977 124.85C141.929 124.895 143.456 123.493 143.871 121.743C143.995 121.238 144.006 120.689 143.916 120.139C143.86 119.814 143.355 119.791 143.4 120.117H143.411Z" fill="white"/>
<path d="M141.806 131.917C141.739 131.984 141.773 132.074 141.84 132.13C141.818 132.13 141.784 132.13 141.761 132.13C140.965 132.365 140.145 132.578 139.371 132.836C139.214 132.892 139.315 133.139 139.472 133.094C140.235 132.915 140.965 132.679 141.717 132.455C141.919 132.915 142.727 133.106 142.873 132.612C143.018 132.085 142.177 131.546 141.806 131.905V131.917ZM142.581 132.5C142.502 132.78 141.986 132.545 141.975 132.275C141.975 132.231 141.952 132.197 141.907 132.163C141.952 132.175 142.008 132.163 142.042 132.141C142.21 131.995 142.637 132.275 142.57 132.511L142.581 132.5Z" fill="white"/>
<path d="M142.255 129.898C141.952 129.853 141.637 130.144 141.727 130.436C141.334 130.66 140.818 130.75 140.324 130.671C140.1 130.638 140.055 130.974 140.279 131.008C140.65 131.075 141.02 131.064 141.368 130.986C141.66 130.907 141.907 130.772 142.131 130.593C142.221 130.683 142.311 130.784 142.389 130.873C142.434 130.918 142.535 130.941 142.58 130.907C142.917 130.66 142.76 129.976 142.255 129.898ZM142.468 130.514L142.232 130.245C142.232 130.245 142.176 130.2 142.154 130.2C142.165 130.2 142.187 130.189 142.199 130.178C142.378 130.144 142.49 130.357 142.468 130.503V130.514Z" fill="white"/>
<path d="M142.131 127.273C142.008 127.273 141.649 127.318 141.761 127.52C141.795 127.587 141.862 127.598 141.918 127.598C142.041 127.598 142.131 127.553 142.266 127.598C142.288 127.598 142.311 127.609 142.333 127.621C142.3 127.621 142.277 127.621 142.255 127.632C141.548 128.036 140.807 128.417 140.167 128.899C140.066 128.978 140.178 129.135 140.302 129.09C140.863 128.854 141.379 128.563 141.896 128.271C141.884 128.294 141.873 128.316 141.862 128.338C141.828 128.406 141.873 128.529 141.952 128.563C142.378 128.787 142.872 128.585 142.951 128.159C143.029 127.722 142.569 127.295 142.131 127.262V127.273ZM142.603 128.114C142.547 128.249 142.412 128.327 142.255 128.327C142.333 128.181 142.423 128.024 142.502 127.879C142.524 127.834 142.524 127.8 142.502 127.755C142.591 127.856 142.648 127.98 142.591 128.114H142.603Z" fill="white"/>
<path d="M142.008 125.164C141.84 125.288 141.784 125.523 141.829 125.747C141.829 125.77 141.84 125.804 141.851 125.837C141.773 125.905 141.705 125.961 141.627 126.017C141.481 126.14 141.324 126.241 141.155 126.331C140.807 126.521 140.403 126.577 140.033 126.723C139.921 126.768 140.022 126.914 140.112 126.936C140.561 127.004 141.021 126.802 141.38 126.6C141.571 126.499 141.739 126.376 141.896 126.23C141.941 126.185 141.975 126.14 142.02 126.095C142.031 126.095 142.042 126.118 142.053 126.118C142.053 126.174 142.053 126.23 142.053 126.275C142.053 126.409 142.21 126.499 142.3 126.42C142.558 126.196 142.805 125.961 143.063 125.736C143.097 125.703 143.097 125.647 143.086 125.602C142.917 125.187 142.356 124.929 142.031 125.175L142.008 125.164ZM142.749 125.579C142.603 125.714 142.457 125.848 142.311 125.983C142.311 125.86 142.311 125.747 142.311 125.624C142.311 125.512 142.188 125.489 142.121 125.523C142.132 125.489 142.154 125.456 142.177 125.433C142.334 125.276 142.614 125.389 142.749 125.579Z" fill="white"/>
<path d="M156.128 100.241C156.666 99.6915 157.216 99.0634 157.351 98.2782C157.632 96.6855 156.184 95.418 154.904 94.5544C153.737 93.7692 152.57 92.9728 151.402 92.1877L146.599 92.5915C143.669 95.7097 140.729 98.8279 137.799 101.935C136.565 103.247 135.285 104.649 134.87 106.466C134.039 110.123 137.025 113.387 139.707 115.776C144.343 119.904 148.967 124.031 153.602 128.17C155.825 127.946 157.149 125.187 156.88 122.764C156.363 122.024 155.858 121.272 155.364 120.521C155.342 120.487 155.319 120.465 155.297 120.431C155.23 120.341 155.162 120.263 155.084 120.173C155.039 120.061 155.005 119.949 154.96 119.836C154.5 118.659 153.95 117.515 153.31 116.415C152.02 114.239 150.347 112.31 148.417 110.695C147.788 110.168 147.115 109.629 146.408 109.169C146.082 108.822 145.768 108.485 145.443 108.149C149.36 106.141 152.974 103.46 156.116 100.23L156.128 100.241ZM152.794 117.021C152.727 116.943 152.671 116.864 152.603 116.785C152.558 116.662 152.502 116.55 152.446 116.438C152.57 116.628 152.682 116.83 152.794 117.032V117.021ZM149.797 112.893C149.797 112.893 149.719 112.871 149.674 112.86C149.64 112.792 149.607 112.725 149.584 112.658C149.651 112.736 149.73 112.815 149.797 112.893Z" fill="#FFB48F"/>
<path d="M162.154 82.5639L151.391 83.7528C149.011 83.6855 146.643 83.4724 144.286 83.1247C143.186 85.3344 142.086 87.5552 140.975 89.7649C140.74 90.236 140.493 90.7407 140.538 91.2679C140.582 91.8624 140.986 92.3559 141.368 92.8046C142.591 94.2739 143.826 95.7433 145.049 97.2126C145.229 97.4258 145.42 97.6501 145.678 97.7174C146.104 97.8408 146.52 97.5379 146.868 97.2687C147.979 96.3714 149.079 95.4629 150.19 94.5655C148.506 97.9754 149.584 102.507 152.614 104.795C152.839 104.963 153.097 105.131 153.377 105.143C153.692 105.154 153.983 104.986 154.253 104.829C158.192 102.428 162.323 99.7924 164.264 95.6199C166.24 91.3688 165.364 85.9625 162.154 82.5414V82.5639Z" fill="#A4C63B"/>
<path d="M161.593 124.11C159.73 122.943 157.755 121.956 155.735 121.205C155.881 121.575 156.026 121.945 156.172 122.315C155.398 124.368 153.669 125.927 151.492 126.499C151.144 129.46 150.796 132.433 150.437 135.394C150.291 136.616 150.145 137.861 150.437 139.129C150.729 140.396 151.559 141.709 152.794 142.292C155.005 143.346 157.081 141.652 158.282 139.925C160.931 136.145 162.581 131.614 163.086 126.779C163.131 126.353 163.165 125.904 162.985 125.467C162.738 124.873 162.143 124.458 161.582 124.11H161.593Z" fill="#F75448"/>
<path d="M161.044 124.368C161.044 124.514 161.01 124.626 161.021 124.772C161.033 124.906 161.055 125.041 161.078 125.175C161.111 125.467 161.145 125.759 161.179 126.05C161.235 126.6 161.257 127.138 161.246 127.677C161.235 128.742 161.122 129.785 160.909 130.806C160.483 132.847 159.675 134.754 158.519 136.392C157.868 137.3 157.116 138.119 156.285 138.86C155.589 138.052 154.624 137.491 153.625 137.278C153.097 137.166 152.57 137.143 152.076 137.222C151.874 137.256 151.672 137.3 151.481 137.379C151.414 137.278 151.268 137.211 151.178 137.312C150.909 137.603 150.651 137.906 150.381 138.198C150.247 138.355 150.527 138.602 150.662 138.456C150.864 138.243 151.055 138.03 151.257 137.805C151.335 137.783 151.403 137.76 151.481 137.727C151.683 137.637 151.908 137.581 152.143 137.547C152.604 137.469 153.098 137.491 153.58 137.603C154.545 137.816 155.488 138.366 156.128 139.185C156.24 139.331 156.42 139.275 156.442 139.151C159.641 136.56 161.47 132.41 161.627 128.058C161.65 127.441 161.639 126.824 161.605 126.207C161.583 125.893 161.56 125.579 161.515 125.265C161.493 125.108 161.47 124.951 161.448 124.794C161.414 124.637 161.336 124.502 161.28 124.357C161.235 124.211 161.033 124.256 161.044 124.379V124.368Z" fill="white"/>
<path d="M155.589 121.362C156.016 123.852 154.22 125.983 151.784 126.151C151.537 126.162 151.582 126.533 151.84 126.544C153.984 126.589 155.656 125.063 156.105 123.134C156.24 122.573 156.251 121.979 156.15 121.373C156.094 121.014 155.533 120.992 155.589 121.351V121.362Z" fill="white"/>
<path d="M153.838 134.283C153.759 134.362 153.804 134.451 153.883 134.508C153.849 134.508 153.827 134.508 153.804 134.508C152.929 134.766 152.042 134.99 151.178 135.282C151.009 135.338 151.11 135.618 151.29 135.573C152.121 135.371 152.929 135.124 153.748 134.878C153.961 135.382 154.859 135.596 155.016 135.046C155.185 134.474 154.253 133.879 153.849 134.272L153.838 134.283ZM154.68 134.923C154.601 135.225 154.017 134.967 154.017 134.676C154.017 134.631 153.984 134.586 153.95 134.552C154.006 134.564 154.051 134.552 154.096 134.53C154.287 134.373 154.747 134.687 154.68 134.934V134.923Z" fill="white"/>
<path d="M154.332 132.074C154.006 132.017 153.647 132.354 153.759 132.668C153.321 132.915 152.76 133.016 152.222 132.926C151.975 132.881 151.919 133.251 152.177 133.296C152.592 133.363 152.985 133.363 153.366 133.262C153.692 133.184 153.961 133.027 154.197 132.836C154.298 132.937 154.388 133.038 154.489 133.15C154.534 133.206 154.646 133.218 154.702 133.184C155.072 132.915 154.904 132.163 154.343 132.085L154.332 132.074ZM154.545 132.758C154.455 132.657 154.376 132.567 154.287 132.466C154.264 132.432 154.231 132.421 154.197 132.421C154.208 132.421 154.231 132.41 154.253 132.399C154.444 132.365 154.579 132.59 154.545 132.758Z" fill="white"/>
<path d="M154.186 129.202C154.051 129.202 153.659 129.258 153.782 129.471C153.816 129.539 153.894 129.561 153.962 129.561C154.096 129.561 154.197 129.516 154.343 129.561C154.366 129.561 154.388 129.584 154.411 129.584C154.377 129.584 154.343 129.584 154.321 129.606C153.546 130.043 152.738 130.458 152.031 130.997C151.919 131.075 152.042 131.255 152.177 131.21C152.783 130.952 153.355 130.638 153.928 130.313C153.917 130.335 153.905 130.357 153.894 130.391C153.849 130.47 153.905 130.593 153.995 130.638C154.455 130.873 155.005 130.66 155.095 130.2C155.185 129.718 154.68 129.258 154.197 129.225L154.186 129.202ZM154.714 130.122C154.657 130.268 154.5 130.357 154.343 130.357C154.433 130.189 154.523 130.032 154.613 129.864C154.635 129.819 154.635 129.774 154.613 129.729C154.714 129.841 154.77 129.976 154.714 130.122Z" fill="white"/>
<path d="M154.051 126.892C153.86 127.026 153.804 127.284 153.849 127.52C153.849 127.553 153.86 127.587 153.871 127.621C153.793 127.688 153.703 127.755 153.624 127.822C153.456 127.957 153.288 128.069 153.108 128.17C152.727 128.383 152.278 128.439 151.874 128.596C151.75 128.641 151.862 128.81 151.963 128.821C152.457 128.899 152.962 128.675 153.344 128.451C153.546 128.338 153.748 128.204 153.905 128.036C153.95 127.991 153.995 127.946 154.04 127.89C154.051 127.89 154.062 127.912 154.073 127.923C154.073 127.98 154.073 128.036 154.073 128.103C154.073 128.249 154.242 128.35 154.354 128.26C154.635 128.013 154.904 127.755 155.185 127.508C155.218 127.475 155.229 127.407 155.207 127.363C155.027 126.903 154.41 126.622 154.051 126.892ZM154.87 127.34C154.713 127.486 154.556 127.632 154.399 127.778C154.399 127.643 154.399 127.52 154.399 127.385C154.399 127.273 154.264 127.239 154.186 127.284C154.197 127.25 154.219 127.206 154.253 127.183C154.421 127.015 154.736 127.138 154.881 127.34H154.87Z" fill="white"/>
<path d="M144.489 86.557C144.354 86.1756 144.186 85.7494 143.827 85.5699C143.412 85.368 142.895 85.5699 142.592 85.9177C142.289 86.2654 142.143 86.714 141.975 87.1403C140.999 89.7313 139.203 92.0082 136.913 93.5673C138.642 94.6329 140.37 95.6985 142.098 96.764C142.233 96.8538 142.39 96.9323 142.547 96.9211C142.705 96.8986 142.839 96.7865 142.951 96.6743C143.389 96.2256 143.782 95.676 144.051 95.0815C145.017 94.1394 145.499 92.7149 145.522 91.3464C145.555 89.6976 145.028 88.1049 144.489 86.5458V86.557Z" fill="#95AD2D"/>
<path d="M147.889 77.4379C150.033 75.7106 149.797 72.4354 149.36 69.721C148.495 64.281 147.598 58.7737 145.342 53.7599L139.707 57.4053C140.616 61.6451 141.526 65.8737 142.435 70.1136C142.558 70.708 142.637 71.4708 142.12 71.8073C141.896 71.9531 141.615 71.9755 141.346 71.9867C139.191 72.1101 137.036 72.2447 134.881 72.3681C134.185 72.4129 133.422 72.4802 132.771 72.7382C131.705 72.0428 130.886 70.4613 129.752 69.6537C128.517 68.7788 126.654 68.9358 125.577 70.0014C124.948 70.6295 124.69 71.8409 125.453 72.2896C124.398 71.8746 123.007 71.9643 122.367 72.8953C121.761 73.7814 122.58 75.2844 123.557 75.0825C123.321 75.1498 123.085 75.2283 122.849 75.2956C123.018 77.7296 125.711 79.3447 128.147 79.2438C129.988 79.1653 131.682 78.3913 133.287 77.4604C134.264 77.8754 135.375 77.9763 136.441 78.0436C138.372 78.1782 140.302 78.324 142.233 78.4586C144.186 78.5932 146.352 78.6718 147.878 77.4492L147.889 77.4379Z" fill="#FFB48F"/>
<path d="M140.908 45.2129L150.886 41.8031C149.404 45.1008 148.765 48.7686 149.023 52.3691C149.101 53.3785 149.225 54.4441 148.776 55.3414C148.114 56.6425 146.497 57.08 145.061 57.3043C143.983 57.4726 142.749 57.5623 141.918 56.8444C141.2 56.2163 141.02 55.1844 140.897 54.2422C140.515 51.382 140.134 48.533 139.752 45.6728C140.134 45.527 140.515 45.3699 140.897 45.2241L140.908 45.2129Z" fill="#EA9E7D"/>
<path d="M131.817 17.1043C131.727 16.308 131.043 15.6686 130.279 15.3994C129.516 15.1302 128.697 15.1302 127.889 15.1527L127.305 15.1975C124.477 19.2243 125.296 25.3597 129.079 28.5115C129.943 25.1129 130.807 21.7031 131.671 18.3045C131.772 17.9119 131.873 17.5081 131.828 17.1156L131.817 17.1043Z" fill="#945431"/>
<path d="M161.223 14.2778C162.177 13.8403 163.164 13.4926 164.186 13.2234C163.602 12.7075 163.041 12.1579 162.48 11.597C162.042 11.7092 161.604 11.8662 161.2 12.0681C161.436 11.7204 161.672 11.3615 161.896 11.0026C161.279 10.3744 160.673 9.75753 160.033 9.16306C159.786 9.47712 159.562 9.79118 159.348 10.1052C159.225 9.30887 158.933 8.53493 158.495 7.85072C158.271 7.67126 158.035 7.50301 157.799 7.33476C157.092 6.8861 156.352 6.50474 155.577 6.22433C155.308 6.1346 155.027 6.05608 154.747 6C155.521 6.84124 156.195 7.78343 156.744 8.78169C149.909 6.41501 142.176 6.63934 135.543 9.3986L139.741 12.6963C148.405 12.7748 156.587 19.3476 158.293 27.5806C159.101 31.4951 158.63 35.7574 160.617 39.2682C163.894 34.8489 165.824 29.4986 166.116 24.0474C166.318 20.1665 165.072 15.4555 161.234 14.289L161.223 14.2778Z" fill="#945431"/>
<path d="M131.323 49.3406C130.706 48.791 130.1 48.2414 129.494 47.6693C128.843 46.9963 128.236 46.2785 127.687 45.527C127.036 44.6072 126.486 43.6202 126.059 42.577C125.778 41.8031 125.576 40.9955 125.464 40.1767C125.397 39.4701 125.397 38.7634 125.475 38.0568C125.655 37.1034 126.082 36.2173 126.362 35.2975C126.53 34.7479 126.665 34.1646 126.699 33.5814C126.755 33.4356 126.8 33.2898 126.845 33.1327C126.957 32.8523 127.036 32.5495 127.047 32.2354C127.294 31.5512 127.26 30.766 127.238 30.0145C127.114 25.9093 127.428 21.7367 129.045 18.0017C130.661 14.2778 133.736 11.025 137.777 9.91455C141.458 8.89384 145.588 9.7463 148.955 11.7092C152.322 13.6609 154.982 16.6332 157.036 19.8748C158.967 22.9145 160.448 26.3131 160.617 29.8239C160.662 30.6202 160.617 31.4278 160.516 32.2242C161.043 32.3027 161.56 32.4934 161.997 32.785C162.974 33.4131 163.658 34.4114 164.197 35.4321C164.837 36.6323 165.319 38.0119 165.039 39.3467C164.792 40.5132 163.984 41.5002 162.985 42.1732C161.997 42.835 160.841 43.2164 159.685 43.4968C158.462 43.7884 157.149 43.9791 155.97 43.5641C154.174 45.9532 151.649 47.7703 148.91 49.0153C147.71 49.5649 146.464 50.0136 145.195 50.3725C143.916 50.5744 142.648 50.8099 141.346 50.8885C141.312 50.8885 141.267 50.8885 141.233 50.8885C140.044 51.1689 138.832 51.3596 137.608 51.4268C135.97 51.5166 134.241 51.382 132.838 50.552C132.266 50.2155 131.783 49.778 131.289 49.3406H131.323Z" fill="#FFB48F"/>
<path d="M157.675 41.0516C157.675 41.0516 157.653 41.1073 157.642 41.1296C157.642 41.0962 157.664 41.0739 157.675 41.0516Z" fill="#EA9E7D"/>
<path d="M158.248 40.5917C158.001 40.6478 157.788 40.8273 157.676 41.0516C157.732 40.9282 157.777 40.8048 157.833 40.6815L158.248 40.5917Z" fill="#EA9E7D"/>
<path d="M159.808 36.1949C160.28 35.7798 160.942 35.4097 161.503 35.7013C162.042 35.993 162.109 36.722 162.12 37.3277C162.12 37.7764 162.008 38.3709 161.559 38.4157C161.391 38.4382 161.222 38.3484 161.054 38.3036C160.28 38.0568 159.404 38.4269 158.843 39.0102C158.394 39.4813 158.091 40.0645 157.833 40.6702L157.563 40.7263C157.709 38.999 158.529 37.3389 159.819 36.1836L159.808 36.1949Z" fill="#EA9E7D"/>
<path d="M133.601 36.9015C133.814 36.2509 134.532 35.8696 135.217 35.8696C135.902 35.8696 136.541 36.1836 137.114 36.565C137.484 36.8118 137.843 37.1034 138.169 37.4174C138.281 37.5184 138.382 37.6418 138.405 37.7876C138.427 38.0119 138.214 38.2026 138 38.225C137.956 38.225 137.911 38.225 137.877 38.225C137.798 38.1802 137.72 38.1353 137.641 38.0904C137.417 37.9783 137.181 37.8773 136.934 37.7988C136.755 37.6754 136.597 37.552 136.44 37.4062L136.687 37.7315C136.687 37.7315 136.676 37.7315 136.665 37.7315C136.541 37.6979 136.418 37.7203 136.328 37.7876C136.171 37.7988 136.014 37.8212 135.857 37.8773C135.419 38.0231 135.037 38.3596 134.577 38.3709C133.893 38.3821 133.41 37.552 133.623 36.9127L133.601 36.9015Z" fill="#EA9E7D"/>
<path d="M143.187 40.1655C143.299 41.3096 144.971 42.0835 146.913 41.8928C148.855 41.7022 150.347 40.6254 150.235 39.4701C150.123 38.326 148.45 37.5521 146.509 37.7427C144.567 37.9334 143.074 39.0102 143.187 40.1655Z" fill="#FF9985"/>
<path d="M125.419 39.2682C125.419 38.8644 125.43 38.4606 125.475 38.068C125.655 37.1146 126.081 36.2285 126.362 35.3088C126.373 35.2639 126.395 35.2078 126.407 35.1517C126.407 35.1517 126.429 35.1517 126.44 35.1742C128.113 36.1837 128.988 37.7988 128.393 38.7859C127.933 39.5486 126.721 39.7169 125.419 39.2682Z" fill="#FF9985"/>
<path d="M132.972 24.5857C132.714 24.2717 132.176 24.2268 131.794 24.182C131.356 24.1259 130.907 24.1371 130.47 24.1932C129.628 24.3166 128.696 24.6306 128.079 25.2251C127.967 25.326 128.079 25.5504 128.225 25.4719C128.954 25.0793 129.673 24.7316 130.503 24.6306C130.907 24.5745 131.311 24.5745 131.715 24.6194C131.906 24.6418 132.097 24.6755 132.288 24.7203C132.501 24.7652 132.669 24.8325 132.894 24.7876C132.984 24.7652 133.04 24.6643 132.972 24.5857Z" fill="#945431"/>
<path d="M148.427 27.8946C146.8 26.0215 143.848 25.0232 141.514 26.1C141.323 26.1897 141.401 26.5038 141.615 26.4589C142.726 26.2346 143.927 26.2009 145.027 26.515C146.138 26.8291 147.159 27.4348 147.911 28.3096C148.192 28.6237 148.697 28.2199 148.427 27.8946Z" fill="#945431"/>
<path d="M141.446 32.7177C141.222 34.6918 142.692 36.4752 144.713 36.6996C146.733 36.9239 148.551 35.5106 148.776 33.5365C149 31.5624 147.53 29.779 145.509 29.5547C143.489 29.3303 141.671 30.7436 141.446 32.7177Z" fill="#AF7561"/>
<path d="M141.626 32.8636C141.435 34.6246 142.737 36.2061 144.533 36.408C146.329 36.6099 147.956 35.3424 148.147 33.5814C148.338 31.8204 147.036 30.2389 145.24 30.037C143.444 29.8351 141.817 31.1026 141.626 32.8636Z" fill="white"/>
<path d="M141.693 34.3329C141.985 35.7462 143.332 36.6659 144.712 36.3855C146.082 36.1051 146.968 34.7255 146.677 33.3122C146.385 31.8989 145.038 30.9791 143.657 31.2596C142.288 31.54 141.401 32.9196 141.693 34.3329Z" fill="#3F494C"/>
<path d="M127.237 31.2371C127.024 33.1664 128.314 34.8937 130.133 35.0956C131.94 35.2975 133.59 33.8954 133.803 31.9662C134.016 30.037 132.725 28.3096 130.907 28.1077C129.1 27.9058 127.45 29.3079 127.237 31.2371Z" fill="#AF7561"/>
<path d="M127.405 31.3829C127.215 33.0991 128.371 34.6357 129.987 34.8152C131.603 34.9947 133.062 33.7496 133.253 32.0335C133.444 30.3174 132.288 28.7807 130.671 28.6012C129.055 28.4218 127.596 29.6668 127.405 31.3829Z" fill="white"/>
<path d="M127.821 32.9308C128.136 34.3441 129.516 35.2527 130.919 34.9386C132.311 34.6245 133.186 33.2337 132.872 31.8092C132.558 30.3959 131.177 29.4874 129.774 29.8014C128.371 30.1155 127.507 31.5064 127.821 32.9308Z" fill="#3F494C"/>
<path d="M144.5 32.9084C144.455 33.301 144.679 33.6487 144.994 33.6823C145.308 33.716 145.6 33.4243 145.645 33.0318C145.69 32.6392 145.465 32.2915 145.151 32.2578C144.837 32.2242 144.545 32.5158 144.5 32.9084Z" fill="white"/>
<path d="M130.784 31.1474C130.739 31.54 130.964 31.8877 131.278 31.9213C131.592 31.955 131.884 31.6634 131.929 31.2708C131.974 30.8782 131.749 30.5305 131.435 30.4968C131.121 30.4632 130.829 30.7548 130.784 31.1474Z" fill="white"/>
<path d="M154.051 26.1897C150.875 22.6902 146.082 20.9404 141.368 19.9197C136.654 18.899 131.783 18.4616 127.204 16.9586L127.013 18.5513C126.878 19.2355 127.574 19.7851 128.203 20.144C131.66 22.1294 135.408 23.6212 139.314 24.5521C139.539 24.0025 139.539 23.3632 139.314 22.8024C143.994 24.6979 149.606 23.8118 154.051 26.1785V26.1897Z" fill="#945431"/>
<path d="M152.176 10.6324C145.51 7.5142 137.586 8.03016 130.728 10.8119C129.617 10.9913 128.517 11.1932 127.417 11.4175C126.542 11.597 125.632 11.7989 124.97 12.3822C123.859 13.3692 123.825 15.1751 124.499 16.5098C125.172 17.8446 126.373 18.8092 127.552 19.7402C127.114 17.9007 127.226 15.949 127.855 14.1656C127.428 15.4218 127.978 16.8463 128.898 17.811C129.819 18.7756 131.042 19.3701 132.254 19.9421C134.757 21.1198 137.283 22.2527 139.83 23.3519C140.313 22.5331 140.156 21.4002 139.482 20.7385C143.366 22.9481 148.506 22.2639 152.165 24.8437C155.027 26.8515 156.34 30.7885 155.263 34.0861C157.137 33.0654 159.191 32.3812 161.301 32.0671C161.694 32.0111 162.121 31.9438 162.379 31.6521C162.536 31.4839 162.603 31.2483 162.659 31.0352C164.893 23.0491 159.741 14.1768 152.176 10.6436V10.6324Z" fill="#B36C39"/>
<path d="M147.338 17.5193C150.593 18.226 153.725 19.4822 156.553 21.232C153.197 15.377 147.125 11.1484 140.47 10.0155C140.997 10.8231 141.525 11.6307 142.052 12.4383C140.413 11.8999 138.719 11.5409 137.002 11.3839C137.215 12.1803 137.428 12.9879 137.641 13.7843C135.789 13.8515 133.937 13.7618 132.097 13.5375L131.985 13.4814C131.985 13.4814 131.985 13.5038 131.985 13.5263C131.805 13.5038 131.625 13.4814 131.435 13.4478C131.603 13.7955 131.85 14.1095 132.142 14.3675C132.591 15.8369 133.881 17.0146 135.318 17.6203C137.046 18.3494 138.966 18.4167 140.829 18.4728C140.211 17.6652 139.594 16.8464 138.977 16.0388C141.839 17.8558 145.217 18.8541 148.607 18.8541C148.18 18.4055 147.754 17.9568 147.327 17.5081L147.338 17.5193Z" fill="#D17D43"/>
<path d="M130.234 41.3881C131.02 43.6762 133.197 45.4372 135.61 45.7176C137.934 45.998 140.369 44.8876 141.705 42.9696C141.761 43.0481 141.839 43.1154 141.94 43.1266C141.974 43.1266 141.997 43.1266 142.019 43.093C142.154 42.8574 141.929 42.5994 141.761 42.4312C141.637 42.2966 141.503 42.1844 141.334 42.0947C141.256 42.005 141.155 41.9489 141.02 41.9377C140.885 41.9377 140.762 41.9825 140.638 42.0274C137.137 43.351 132.905 42.4985 130.189 39.9187C129.976 40.3674 130.077 40.9058 130.245 41.3768L130.234 41.3881ZM141.514 43.1266C141.525 43.0032 141.536 42.8686 141.525 42.7453C141.581 42.8126 141.626 42.8799 141.671 42.9472L141.503 43.1266H141.514Z" fill="#9E2815"/>
<path d="M132.614 41.4441C133.063 41.6797 133.512 41.9264 133.983 42.1171C134.466 42.2966 134.971 42.4312 135.487 42.5097C135.992 42.5882 136.508 42.5994 137.013 42.577C137.26 42.5658 137.507 42.5209 137.754 42.5097C138.024 42.4873 138.304 42.476 138.562 42.4087C138.753 42.3639 138.82 42.6219 138.652 42.6891C138.394 42.8013 138.136 42.9247 137.866 43.0256C137.608 43.1266 137.305 43.1602 137.036 43.1939C136.475 43.2724 135.914 43.2612 135.364 43.1939C134.275 43.0593 133.096 42.6779 132.255 41.9601C131.974 41.7245 132.322 41.2983 132.625 41.4665L132.614 41.4441Z" fill="white"/>
<path d="M163.03 83.0686C162.615 71.8633 157.912 60.8712 150.089 52.8401C147.687 54.5787 144.421 55.061 141.615 54.0852L141.57 54.1861C141.065 54.0291 140.571 53.8609 140.089 53.659C139.977 54.074 139.887 54.489 139.808 54.9152C136.789 59.9626 137.665 66.5579 138.686 72.4578C139.326 76.1368 139.999 79.8944 141.481 83.3042C141.537 83.8089 141.604 84.3137 141.671 84.8184C141.75 85.2895 141.84 85.783 142.154 86.1532C142.491 86.5458 143.007 86.714 143.501 86.8486C149.663 88.5086 156.442 87.7011 162.042 84.6502C162.402 84.4595 162.783 84.2239 162.94 83.8426C163.041 83.5958 163.03 83.3266 163.019 83.0686H163.03Z" fill="#2B91BA"/>
<path d="M173.906 62.0938C173.266 59.413 170.202 58.2241 167.564 57.4613C162.278 55.9135 156.913 54.3656 151.402 54.2534L152.278 60.9048L164.938 63.8884C165.533 64.023 166.24 64.2922 166.33 64.8979C166.363 65.1671 166.262 65.4251 166.161 65.6718C165.353 67.6684 164.545 69.6649 163.737 71.6727C163.479 72.3232 163.221 73.0411 163.165 73.7365C162.076 74.4095 160.303 74.4656 159.079 75.1498C157.755 75.8901 157.104 77.6398 157.609 79.0643C157.901 79.8944 158.889 80.6459 159.629 80.1636C158.799 80.9375 158.282 82.2386 158.855 83.2144C159.394 84.1342 161.111 84.0445 161.347 83.0799C161.313 83.3266 161.279 83.5622 161.234 83.8089C163.501 84.695 166.117 82.9565 167.071 80.7132C167.789 79.0195 167.811 77.1575 167.665 75.3068C168.462 74.6114 169.023 73.6355 169.551 72.7046L172.402 67.6571C173.367 65.9522 174.366 64.0342 173.906 62.1274V62.0938Z" fill="#FFB48F"/>
<path d="M155.173 52.7728C154.376 52.6607 153.512 52.5822 152.693 52.6382C151.728 52.5373 150.762 52.6046 149.831 52.9074C147.709 53.6141 146.026 55.891 146.542 58.067C147.148 60.6244 150.089 61.746 152.625 62.4303C154.758 63.0135 156.89 63.5743 159.034 64.1352C159.371 60.5571 160.055 57.0015 161.077 53.558C159.113 53.2888 157.137 53.0308 155.173 52.7616V52.7728ZM147.754 55.9022L148.54 55.7116C148.316 55.8686 148.057 55.9471 147.754 55.9022Z" fill="#4EBDEA"/>
<path d="M153.333 104.447C153.03 104.268 152.693 104.144 152.379 103.976C152.065 103.808 151.762 103.595 151.47 103.393C150.909 102.978 150.415 102.44 150.022 101.868C149.191 100.611 148.866 99.0858 149.135 97.594C149.292 96.7416 149.618 95.8779 150.168 95.2049C150.46 94.8572 149.999 94.3637 149.663 94.7001C148.866 95.4853 147.979 96.4948 146.812 96.6743C145.993 96.7976 144.983 96.4275 144.691 95.5975C144.657 95.5077 144.59 95.4068 144.477 95.3844C144.444 95.3844 144.433 95.3731 144.399 95.3619C144.376 95.3619 144.32 95.3619 144.298 95.3731C144.298 95.3731 144.231 95.418 144.242 95.418C144.118 95.4965 144.085 95.6199 144.107 95.7545C144.309 96.9098 145.633 97.5267 146.711 97.4482C147.429 97.3921 148.069 97.0893 148.63 96.6743C148.316 97.6277 148.204 98.6484 148.338 99.6803C148.563 101.329 149.45 102.787 150.763 103.797C151.122 104.066 151.481 104.301 151.896 104.481C152.312 104.66 152.749 104.851 153.209 104.84C153.411 104.84 153.49 104.559 153.31 104.459L153.333 104.447Z" fill="white"/>
<path d="M142.816 96.6742C142.726 96.4611 142.435 96.3826 142.233 96.3153C141.986 96.2368 141.727 96.1583 141.481 96.0573C140.964 95.8666 140.47 95.6423 139.977 95.418C139.505 95.1937 139.034 94.9469 138.585 94.6665C138.125 94.3861 137.698 94.0608 137.227 93.7916C137.07 93.7019 136.924 93.9038 137.047 94.0271C137.406 94.4309 137.867 94.7562 138.304 95.0591C138.753 95.3843 139.236 95.676 139.718 95.9452C140.19 96.2031 140.684 96.4163 141.189 96.6182C141.447 96.7191 141.705 96.8088 141.974 96.8986C142.199 96.9771 142.536 97.078 142.749 96.9322C142.839 96.8649 142.861 96.7752 142.816 96.6742Z" fill="white"/>
<path d="M153.288 87.7347C153.041 87.8357 152.805 87.9478 152.637 88.1609C152.558 88.2619 152.558 88.4638 152.726 88.4974C152.783 88.4974 152.839 88.5086 152.884 88.5086C152.603 89.4396 152.255 90.3482 151.784 91.2118C151.514 91.7166 151.222 92.2101 150.908 92.6924C150.751 92.928 150.594 93.1635 150.426 93.399C150.257 93.6458 150.111 93.9038 149.932 94.1393C149.82 94.2964 150.055 94.4534 150.19 94.3412C150.414 94.1393 150.65 93.9599 150.852 93.7243C151.043 93.5 151.234 93.2757 151.413 93.0289C151.772 92.5466 152.098 92.0418 152.379 91.5035C152.951 90.4491 153.422 89.3162 153.703 88.1497C153.759 87.9254 153.535 87.6113 153.276 87.7235L153.288 87.7347Z" fill="white"/>
<path d="M210.281 68.3302C209.832 64.2474 205.59 61.5105 201.65 61.9592C197.116 62.4864 193.749 66.2102 192.144 70.2482C191.167 72.7046 190.741 75.3405 190.483 77.9539C190.213 80.6795 190.112 83.4164 190.067 86.1532C189.978 91.7839 190.202 97.4034 190.326 103.023C190.572 113.959 190.438 125.187 186.622 135.584C183.457 144.21 177.867 151.916 170.763 157.726C163.097 164.007 153.658 167.888 143.792 168.875C133.556 169.907 122.883 167.966 113.892 162.885C109.661 160.496 105.789 157.378 102.893 153.441C100.009 149.515 98.2354 144.905 97.3712 140.127C95.5305 129.853 97.6854 119.433 100.143 109.461C101.501 103.92 102.961 98.4016 103.892 92.7709C104.768 87.4768 105.295 81.947 104.498 76.6192C103.802 71.9419 101.715 67.3319 97.562 64.7745C95.7438 63.6529 93.5551 62.9799 91.4114 63.193C89.3912 63.3949 87.4382 64.3259 86.0128 65.7728C84.6548 67.1636 83.813 68.9807 83.8467 70.9436C83.8467 71.2577 84.3293 71.2577 84.3293 70.9436C84.2956 66.2215 89.3687 63.0696 93.7235 63.8772C98.5721 64.7857 101.872 69.0817 103.196 73.5795C104.7 78.7167 104.352 84.3922 103.679 89.6415C102.949 95.261 101.591 100.78 100.222 106.264C97.7528 116.124 95.2611 126.151 96.1366 136.392C96.5406 141.058 97.6518 145.679 99.7843 149.874C101.917 154.058 105.059 157.614 108.774 160.463C116.586 166.463 126.575 169.526 136.351 169.929C146.217 170.322 156.183 167.966 164.702 162.964C172.424 158.432 178.934 151.882 183.468 144.176C185.814 140.183 187.609 135.887 188.81 131.412C190.213 126.219 190.842 120.846 191.089 115.484C191.594 104.459 190.494 93.4327 190.988 82.4181C191.223 77.3146 191.527 71.6615 194.591 67.3543C197.127 63.7763 201.83 61.3535 206.027 63.608C207.812 64.5614 209.249 66.2551 209.473 68.3189C209.529 68.8237 210.326 68.8237 210.27 68.3189L210.281 68.3302Z" fill="#60A063"/>
</g>
<defs>
<filter id="filter0_d_95_9255" x="0" y="0" width="297" height="195" filterUnits="userSpaceOnUse" color-interpolation-filters="sRGB">
<feFlood flood-opacity="0" result="BackgroundImageFix"/>
<feColorMatrix in="SourceAlpha" type="matrix" values="0 0 0 0 0 0 0 0 0 0 0 0 0 0 0 0 0 0 127 0" result="hardAlpha"/>
<feOffset dx="4" dy="4"/>
<feGaussianBlur stdDeviation="5"/>
<feComposite in2="hardAlpha" operator="out"/>
<feColorMatrix type="matrix" values="0 0 0 0 1 0 0 0 0 1 0 0 0 0 1 0 0 0 1 0"/>
<feBlend mode="normal" in2="BackgroundImageFix" result="effect1_dropShadow_95_9255"/>
<feBlend mode="normal" in="SourceGraphic" in2="effect1_dropShadow_95_9255" result="shape"/>
</filter>
</defs>
</svg>
