<svg width="1278" height="60" viewBox="0 0 1278 60" fill="none" xmlns="http://www.w3.org/2000/svg">
<g filter="url(#filter0_d_0_1142)">
<path d="M4 16C4 7.16344 11.1634 0 20 0H1258C1266.84 0 1274 7.16344 1274 16V36C1274 44.8366 1266.84 52 1258 52H20C11.1634 52 4 44.8366 4 36V16Z" fill="#287D7F" shape-rendering="crispEdges"/>
<path d="M52 16.7111C58.2246 16.7111 63.2889 21.7754 63.2889 28C63.2889 34.2246 58.2246 39.2889 52 39.2889C45.7754 39.2889 40.7111 34.2246 40.7111 28C40.7111 21.7754 45.7754 16.7111 52 16.7111ZM52 16C45.3724 16 40 21.3724 40 28C40 34.6276 45.3724 40 52 40C58.6276 40 64 34.6276 64 28C64 21.3724 58.6276 16 52 16Z" fill="white" stroke="white"/>
<path d="M57.0084 22.6221C57.5235 22.5415 57.991 23.1631 58.2765 23.5116C58.3706 23.6264 58.4606 23.7443 58.5474 23.8653C58.7429 24.1322 58.8908 24.3587 58.8567 24.7062C58.8153 25.1178 58.5319 25.4033 58.2899 25.7187L57.3539 26.9185L54.4228 30.6729L52.467 33.2017C52.1567 33.6154 51.8423 34.0249 51.5237 34.4324C51.3551 34.6476 51.1876 34.9061 50.9766 35.0768C50.5484 35.4222 49.901 35.3612 49.5017 35.0002C49.3569 34.8689 49.2483 34.7169 49.1284 34.5638C48.9556 34.3456 48.785 34.1253 48.6174 33.9029L46.8943 31.6668C46.4165 31.0266 45.8983 30.3936 45.4112 29.7575C45.2095 29.5145 45.1009 29.2435 45.1392 28.9219C45.1826 28.5661 45.4712 28.2641 45.6832 27.9848C46.0649 27.4822 46.3669 26.8833 47.1064 26.9929C47.2936 27.0209 47.4673 27.1057 47.6059 27.235C47.7114 27.3332 47.8469 27.5287 47.939 27.6507L48.3858 28.2361C48.8439 28.8267 49.298 29.4204 49.7469 30.0182C49.9289 30.2581 50.1326 30.5105 50.3105 30.7515C50.9032 30.0223 51.4906 29.2197 52.0698 28.473L56.1697 23.1651C56.3972 22.8683 56.634 22.6718 57.0115 22.6221H57.0084Z" fill="white"/>
<path d="M78.84 36C78.088 36 77.512 35.808 77.112 35.424C76.728 35.024 76.536 34.456 76.536 33.72V21.36C76.536 20.624 76.728 20.064 77.112 19.68C77.512 19.28 78.088 19.08 78.84 19.08H86.976C87.552 19.08 87.984 19.224 88.272 19.512C88.56 19.8 88.704 20.216 88.704 20.76C88.704 21.32 88.56 21.752 88.272 22.056C87.984 22.344 87.552 22.488 86.976 22.488H80.76V25.704H86.448C87.008 25.704 87.432 25.848 87.72 26.136C88.024 26.424 88.176 26.848 88.176 27.408C88.176 27.968 88.024 28.392 87.72 28.68C87.432 28.968 87.008 29.112 86.448 29.112H80.76V32.592H86.976C87.552 32.592 87.984 32.744 88.272 33.048C88.56 33.336 88.704 33.752 88.704 34.296C88.704 34.856 88.56 35.28 88.272 35.568C87.984 35.856 87.552 36 86.976 36H78.84ZM93.1742 36.216C92.4702 36.216 91.9262 36.032 91.5422 35.664C91.1742 35.296 90.9902 34.76 90.9902 34.056V26.112C90.9902 25.424 91.1662 24.896 91.5182 24.528C91.8862 24.16 92.4062 23.976 93.0782 23.976C93.7502 23.976 94.2622 24.16 94.6142 24.528C94.9662 24.896 95.1422 25.424 95.1422 26.112V27.096H94.9022C95.0622 26.136 95.4702 25.376 96.1262 24.816C96.7982 24.256 97.6302 23.96 98.6222 23.928C99.0862 23.912 99.4302 24.032 99.6542 24.288C99.8942 24.528 100.022 24.984 100.038 25.656C100.038 26.232 99.9182 26.688 99.6782 27.024C99.4382 27.36 98.9822 27.56 98.3102 27.624L97.7582 27.672C96.9102 27.752 96.2942 27.992 95.9102 28.392C95.5262 28.776 95.3342 29.352 95.3342 30.12V34.056C95.3342 34.76 95.1502 35.296 94.7822 35.664C94.4142 36.032 93.8782 36.216 93.1742 36.216ZM105.884 36.264C104.348 36.264 103.212 35.856 102.476 35.04C101.756 34.208 101.396 32.96 101.396 31.296V21.024C101.396 20.32 101.58 19.784 101.948 19.416C102.316 19.048 102.836 18.864 103.508 18.864C104.196 18.864 104.724 19.048 105.092 19.416C105.476 19.784 105.668 20.32 105.668 21.024V31.152C105.668 31.744 105.78 32.176 106.004 32.448C106.244 32.72 106.548 32.856 106.916 32.856C107.028 32.856 107.14 32.848 107.252 32.832C107.38 32.8 107.516 32.776 107.66 32.76C107.932 32.76 108.132 32.864 108.26 33.072C108.404 33.28 108.476 33.704 108.476 34.344C108.476 34.904 108.364 35.328 108.14 35.616C107.916 35.888 107.572 36.064 107.108 36.144C106.98 36.16 106.796 36.184 106.556 36.216C106.316 36.248 106.092 36.264 105.884 36.264ZM116.055 36.264C114.615 36.264 113.367 36.016 112.311 35.52C111.271 35.008 110.471 34.288 109.911 33.36C109.351 32.432 109.071 31.336 109.071 30.072C109.071 28.856 109.335 27.792 109.863 26.88C110.407 25.952 111.143 25.232 112.071 24.72C113.015 24.192 114.087 23.928 115.287 23.928C116.167 23.928 116.967 24.072 117.687 24.36C118.407 24.632 119.023 25.04 119.535 25.584C120.047 26.112 120.431 26.752 120.687 27.504C120.959 28.256 121.095 29.096 121.095 30.024C121.095 30.344 121.007 30.584 120.831 30.744C120.655 30.888 120.375 30.96 119.991 30.96H112.647V28.944H117.975L117.591 29.256C117.591 28.664 117.511 28.184 117.351 27.816C117.191 27.448 116.951 27.168 116.631 26.976C116.327 26.784 115.943 26.688 115.479 26.688C114.983 26.688 114.551 26.808 114.183 27.048C113.831 27.272 113.559 27.608 113.367 28.056C113.175 28.504 113.079 29.064 113.079 29.736V29.952C113.079 31.088 113.327 31.904 113.823 32.4C114.335 32.88 115.119 33.12 116.175 33.12C116.527 33.12 116.927 33.08 117.375 33C117.839 32.904 118.279 32.776 118.695 32.616C119.111 32.456 119.471 32.432 119.775 32.544C120.079 32.64 120.311 32.816 120.471 33.072C120.647 33.312 120.743 33.592 120.759 33.912C120.775 34.216 120.703 34.52 120.543 34.824C120.383 35.112 120.119 35.336 119.751 35.496C119.191 35.752 118.591 35.944 117.951 36.072C117.327 36.2 116.695 36.264 116.055 36.264ZM127.544 36.264C126.536 36.264 125.64 36.016 124.855 35.52C124.088 35.024 123.48 34.312 123.032 33.384C122.6 32.456 122.384 31.36 122.384 30.096C122.384 28.8 122.6 27.696 123.032 26.784C123.48 25.872 124.088 25.168 124.855 24.672C125.64 24.176 126.536 23.928 127.544 23.928C128.424 23.928 129.216 24.136 129.92 24.552C130.624 24.968 131.096 25.504 131.336 26.16H131.072V21.024C131.072 20.32 131.256 19.784 131.624 19.416C131.992 19.048 132.52 18.864 133.208 18.864C133.88 18.864 134.4 19.048 134.768 19.416C135.152 19.784 135.344 20.32 135.344 21.024V34.056C135.344 34.76 135.16 35.296 134.792 35.664C134.44 36.032 133.92 36.216 133.232 36.216C132.56 36.216 132.04 36.032 131.672 35.664C131.304 35.296 131.12 34.76 131.12 34.056V32.688L131.384 33.864C131.16 34.584 130.688 35.168 129.968 35.616C129.264 36.048 128.456 36.264 127.544 36.264ZM128.912 33.12C129.344 33.12 129.728 33.016 130.064 32.808C130.4 32.584 130.656 32.256 130.832 31.824C131.024 31.376 131.12 30.8 131.12 30.096C131.12 29.024 130.912 28.256 130.496 27.792C130.08 27.312 129.552 27.072 128.912 27.072C128.48 27.072 128.096 27.176 127.76 27.384C127.424 27.592 127.16 27.92 126.968 28.368C126.776 28.8 126.68 29.376 126.68 30.096C126.68 31.152 126.888 31.92 127.304 32.4C127.72 32.88 128.256 33.12 128.912 33.12ZM139.93 36.216C139.258 36.216 138.738 36.016 138.37 35.616C138.002 35.216 137.818 34.64 137.818 33.888V26.304C137.818 25.552 138.002 24.976 138.37 24.576C138.738 24.176 139.258 23.976 139.93 23.976C140.618 23.976 141.146 24.176 141.514 24.576C141.898 24.976 142.09 25.552 142.09 26.304V33.888C142.09 34.64 141.906 35.216 141.538 35.616C141.17 36.016 140.634 36.216 139.93 36.216ZM139.93 22.272C139.178 22.272 138.594 22.096 138.178 21.744C137.778 21.392 137.578 20.88 137.578 20.208C137.578 19.552 137.778 19.048 138.178 18.696C138.594 18.344 139.178 18.168 139.93 18.168C140.714 18.168 141.306 18.344 141.706 18.696C142.106 19.048 142.306 19.552 142.306 20.208C142.306 20.88 142.106 21.392 141.706 21.744C141.306 22.096 140.714 22.272 139.93 22.272ZM150.424 40.584C149.544 40.584 148.72 40.52 147.952 40.392C147.184 40.28 146.52 40.112 145.96 39.888C145.496 39.728 145.168 39.496 144.976 39.192C144.784 38.888 144.696 38.568 144.712 38.232C144.728 37.896 144.816 37.592 144.976 37.32C145.152 37.048 145.384 36.848 145.672 36.72C145.96 36.608 146.28 36.616 146.632 36.744C147.336 37.032 147.976 37.216 148.552 37.296C149.128 37.392 149.616 37.44 150.016 37.44C150.992 37.44 151.72 37.232 152.2 36.816C152.696 36.416 152.944 35.784 152.944 34.92V33.408H153.136C152.896 34.08 152.408 34.632 151.672 35.064C150.936 35.48 150.136 35.688 149.272 35.688C148.216 35.688 147.296 35.448 146.512 34.968C145.728 34.472 145.112 33.784 144.664 32.904C144.232 32.024 144.016 30.992 144.016 29.808C144.016 28.912 144.144 28.104 144.4 27.384C144.656 26.664 145.008 26.048 145.456 25.536C145.92 25.024 146.472 24.632 147.112 24.36C147.768 24.072 148.488 23.928 149.272 23.928C150.168 23.928 150.968 24.136 151.672 24.552C152.392 24.968 152.872 25.512 153.112 26.184L152.872 27.168V26.112C152.872 25.424 153.056 24.896 153.424 24.528C153.808 24.16 154.336 23.976 155.008 23.976C155.68 23.976 156.192 24.16 156.544 24.528C156.912 24.896 157.096 25.424 157.096 26.112V34.416C157.096 36.464 156.52 38 155.368 39.024C154.216 40.064 152.568 40.584 150.424 40.584ZM150.592 32.544C151.072 32.544 151.48 32.44 151.816 32.232C152.152 32.008 152.416 31.696 152.608 31.296C152.8 30.88 152.896 30.384 152.896 29.808C152.896 28.944 152.688 28.272 152.272 27.792C151.856 27.312 151.296 27.072 150.592 27.072C150.144 27.072 149.744 27.184 149.392 27.408C149.04 27.616 148.768 27.928 148.576 28.344C148.4 28.744 148.312 29.232 148.312 29.808C148.312 30.672 148.52 31.344 148.936 31.824C149.352 32.304 149.904 32.544 150.592 32.544ZM165.784 36.264C164.584 36.264 163.592 36.08 162.808 35.712C162.04 35.344 161.464 34.792 161.08 34.056C160.696 33.304 160.504 32.368 160.504 31.248V27.336H159.688C159.176 27.336 158.776 27.2 158.488 26.928C158.216 26.656 158.08 26.264 158.08 25.752C158.08 25.24 158.216 24.856 158.488 24.6C158.776 24.328 159.176 24.192 159.688 24.192H160.504V22.704C160.504 22 160.688 21.464 161.056 21.096C161.424 20.728 161.952 20.544 162.64 20.544C163.328 20.544 163.856 20.728 164.224 21.096C164.592 21.464 164.776 22 164.776 22.704V24.192H166.744C167.272 24.192 167.672 24.328 167.944 24.6C168.232 24.856 168.376 25.24 168.376 25.752C168.376 26.264 168.232 26.656 167.944 26.928C167.672 27.2 167.272 27.336 166.744 27.336H164.776V31.104C164.776 31.696 164.912 32.136 165.184 32.424C165.472 32.696 165.92 32.832 166.528 32.832C166.752 32.832 166.968 32.808 167.176 32.76C167.384 32.712 167.576 32.688 167.752 32.688C168.008 32.672 168.216 32.752 168.376 32.928C168.536 33.088 168.616 33.464 168.616 34.056C168.616 34.536 168.544 34.944 168.4 35.28C168.256 35.6 168 35.832 167.632 35.976C167.408 36.056 167.104 36.12 166.72 36.168C166.336 36.232 166.024 36.264 165.784 36.264ZM176.125 36.264C174.685 36.264 173.437 36.016 172.381 35.52C171.341 35.008 170.541 34.288 169.981 33.36C169.421 32.432 169.141 31.336 169.141 30.072C169.141 28.856 169.405 27.792 169.933 26.88C170.477 25.952 171.213 25.232 172.141 24.72C173.085 24.192 174.157 23.928 175.357 23.928C176.237 23.928 177.037 24.072 177.757 24.36C178.477 24.632 179.093 25.04 179.605 25.584C180.117 26.112 180.501 26.752 180.757 27.504C181.029 28.256 181.165 29.096 181.165 30.024C181.165 30.344 181.077 30.584 180.901 30.744C180.725 30.888 180.445 30.96 180.061 30.96H172.717V28.944H178.045L177.661 29.256C177.661 28.664 177.581 28.184 177.421 27.816C177.261 27.448 177.021 27.168 176.701 26.976C176.397 26.784 176.013 26.688 175.549 26.688C175.053 26.688 174.621 26.808 174.253 27.048C173.901 27.272 173.629 27.608 173.437 28.056C173.245 28.504 173.149 29.064 173.149 29.736V29.952C173.149 31.088 173.397 31.904 173.893 32.4C174.405 32.88 175.189 33.12 176.245 33.12C176.597 33.12 176.997 33.08 177.445 33C177.909 32.904 178.349 32.776 178.765 32.616C179.181 32.456 179.541 32.432 179.845 32.544C180.149 32.64 180.381 32.816 180.541 33.072C180.717 33.312 180.813 33.592 180.829 33.912C180.845 34.216 180.773 34.52 180.613 34.824C180.453 35.112 180.189 35.336 179.821 35.496C179.261 35.752 178.661 35.944 178.021 36.072C177.397 36.2 176.765 36.264 176.125 36.264ZM192.369 36.216C191.665 36.216 191.121 36.024 190.737 35.64C190.353 35.24 190.161 34.68 190.161 33.96V21.12C190.161 20.384 190.353 19.824 190.737 19.44C191.121 19.056 191.665 18.864 192.369 18.864C193.089 18.864 193.633 19.056 194.001 19.44C194.385 19.824 194.577 20.384 194.577 21.12V25.608H201.561V21.12C201.561 20.384 201.745 19.824 202.113 19.44C202.497 19.056 203.049 18.864 203.769 18.864C204.473 18.864 205.009 19.056 205.377 19.44C205.761 19.824 205.953 20.384 205.953 21.12V33.96C205.953 34.68 205.761 35.24 205.377 35.64C205.009 36.024 204.473 36.216 203.769 36.216C203.049 36.216 202.497 36.024 202.113 35.64C201.745 35.24 201.561 34.68 201.561 33.96V29.232H194.577V33.96C194.577 34.68 194.393 35.24 194.025 35.64C193.657 36.024 193.105 36.216 192.369 36.216ZM212.844 36.264C211.932 36.264 211.124 36.096 210.42 35.76C209.732 35.424 209.188 34.968 208.788 34.392C208.404 33.8 208.212 33.128 208.212 32.376C208.212 31.512 208.436 30.832 208.884 30.336C209.332 29.84 210.052 29.488 211.044 29.28C212.036 29.056 213.356 28.944 215.004 28.944H216.324V30.96H215.004C214.38 30.96 213.86 31.008 213.444 31.104C213.044 31.184 212.748 31.32 212.556 31.512C212.364 31.688 212.268 31.92 212.268 32.208C212.268 32.576 212.396 32.88 212.652 33.12C212.924 33.36 213.308 33.48 213.804 33.48C214.204 33.48 214.556 33.392 214.86 33.216C215.18 33.04 215.436 32.8 215.628 32.496C215.82 32.176 215.916 31.808 215.916 31.392V28.608C215.916 28.032 215.764 27.624 215.46 27.384C215.172 27.144 214.668 27.024 213.948 27.024C213.564 27.024 213.132 27.072 212.652 27.168C212.172 27.248 211.636 27.4 211.044 27.624C210.612 27.784 210.244 27.808 209.94 27.696C209.636 27.584 209.396 27.392 209.22 27.12C209.06 26.848 208.98 26.552 208.98 26.232C208.996 25.912 209.1 25.608 209.292 25.32C209.5 25.032 209.812 24.808 210.228 24.648C210.996 24.36 211.7 24.168 212.34 24.072C212.996 23.976 213.596 23.928 214.14 23.928C215.452 23.928 216.532 24.12 217.38 24.504C218.244 24.872 218.884 25.448 219.3 26.232C219.732 27 219.948 27.992 219.948 29.208V34.056C219.948 34.76 219.78 35.296 219.444 35.664C219.108 36.032 218.62 36.216 217.98 36.216C217.324 36.216 216.82 36.032 216.468 35.664C216.132 35.296 215.964 34.76 215.964 34.056V33.432L216.108 33.768C216.028 34.28 215.844 34.72 215.556 35.088C215.268 35.456 214.892 35.744 214.428 35.952C213.964 36.16 213.436 36.264 212.844 36.264ZM226.797 36.264C225.773 36.264 224.933 36.08 224.277 35.712C223.621 35.328 223.125 34.76 222.789 34.008C222.469 33.256 222.309 32.304 222.309 31.152V26.112C222.309 25.408 222.493 24.88 222.861 24.528C223.229 24.16 223.757 23.976 224.445 23.976C225.133 23.976 225.661 24.16 226.029 24.528C226.397 24.88 226.581 25.408 226.581 26.112V31.272C226.581 31.848 226.701 32.28 226.941 32.568C227.181 32.856 227.557 33 228.069 33C228.645 33 229.117 32.792 229.485 32.376C229.853 31.96 230.037 31.408 230.037 30.72V26.112C230.037 25.408 230.221 24.88 230.589 24.528C230.957 24.16 231.485 23.976 232.173 23.976C232.861 23.976 233.389 24.16 233.757 24.528C234.125 24.88 234.309 25.408 234.309 26.112V34.056C234.309 35.496 233.621 36.216 232.245 36.216C231.573 36.216 231.053 36.032 230.685 35.664C230.317 35.296 230.133 34.76 230.133 34.056V32.664L230.517 33.84C230.165 34.624 229.669 35.224 229.029 35.64C228.405 36.056 227.661 36.264 226.797 36.264ZM241.499 36.264C240.795 36.264 240.075 36.208 239.339 36.096C238.619 36 237.963 35.816 237.371 35.544C236.971 35.384 236.683 35.168 236.507 34.896C236.347 34.624 236.267 34.336 236.267 34.032C236.283 33.728 236.371 33.456 236.531 33.216C236.707 32.96 236.931 32.784 237.203 32.688C237.491 32.576 237.811 32.584 238.163 32.712C238.835 32.952 239.435 33.128 239.963 33.24C240.507 33.336 241.027 33.384 241.523 33.384C242.115 33.384 242.539 33.304 242.795 33.144C243.051 32.968 243.179 32.744 243.179 32.472C243.179 32.232 243.091 32.048 242.915 31.92C242.755 31.792 242.523 31.704 242.219 31.656L239.555 31.224C238.563 31.048 237.795 30.688 237.251 30.144C236.707 29.584 236.435 28.856 236.435 27.96C236.435 27.128 236.667 26.416 237.131 25.824C237.611 25.216 238.259 24.752 239.075 24.432C239.907 24.096 240.859 23.928 241.931 23.928C242.651 23.928 243.307 23.984 243.899 24.096C244.491 24.192 245.067 24.376 245.627 24.648C245.979 24.792 246.227 25 246.371 25.272C246.515 25.544 246.571 25.832 246.539 26.136C246.507 26.424 246.403 26.696 246.227 26.952C246.067 27.192 245.843 27.36 245.555 27.456C245.267 27.536 244.931 27.512 244.547 27.384C244.019 27.176 243.547 27.024 243.131 26.928C242.731 26.832 242.355 26.784 242.003 26.784C241.347 26.784 240.883 26.872 240.611 27.048C240.339 27.224 240.203 27.448 240.203 27.72C240.203 27.928 240.275 28.104 240.419 28.248C240.563 28.376 240.787 28.464 241.091 28.512L243.755 28.968C244.779 29.128 245.563 29.48 246.107 30.024C246.667 30.552 246.947 31.272 246.947 32.184C246.947 33.48 246.451 34.488 245.459 35.208C244.467 35.912 243.147 36.264 241.499 36.264ZM252.805 36.264C251.893 36.264 251.085 36.096 250.381 35.76C249.693 35.424 249.149 34.968 248.749 34.392C248.365 33.8 248.173 33.128 248.173 32.376C248.173 31.512 248.397 30.832 248.845 30.336C249.293 29.84 250.013 29.488 251.005 29.28C251.997 29.056 253.317 28.944 254.965 28.944H256.285V30.96H254.965C254.341 30.96 253.821 31.008 253.405 31.104C253.005 31.184 252.709 31.32 252.517 31.512C252.325 31.688 252.229 31.92 252.229 32.208C252.229 32.576 252.357 32.88 252.613 33.12C252.885 33.36 253.269 33.48 253.765 33.48C254.165 33.48 254.517 33.392 254.821 33.216C255.141 33.04 255.397 32.8 255.589 32.496C255.781 32.176 255.877 31.808 255.877 31.392V28.608C255.877 28.032 255.725 27.624 255.421 27.384C255.133 27.144 254.629 27.024 253.909 27.024C253.525 27.024 253.093 27.072 252.613 27.168C252.133 27.248 251.597 27.4 251.005 27.624C250.573 27.784 250.205 27.808 249.901 27.696C249.597 27.584 249.357 27.392 249.181 27.12C249.021 26.848 248.941 26.552 248.941 26.232C248.957 25.912 249.061 25.608 249.253 25.32C249.461 25.032 249.773 24.808 250.189 24.648C250.957 24.36 251.661 24.168 252.301 24.072C252.957 23.976 253.557 23.928 254.101 23.928C255.413 23.928 256.493 24.12 257.341 24.504C258.205 24.872 258.845 25.448 259.261 26.232C259.693 27 259.909 27.992 259.909 29.208V34.056C259.909 34.76 259.741 35.296 259.405 35.664C259.069 36.032 258.581 36.216 257.941 36.216C257.285 36.216 256.781 36.032 256.429 35.664C256.093 35.296 255.925 34.76 255.925 34.056V33.432L256.069 33.768C255.989 34.28 255.805 34.72 255.517 35.088C255.229 35.456 254.853 35.744 254.389 35.952C253.925 36.16 253.397 36.264 252.805 36.264ZM266.758 36.264C265.734 36.264 264.894 36.08 264.238 35.712C263.582 35.328 263.086 34.76 262.75 34.008C262.43 33.256 262.27 32.304 262.27 31.152V26.112C262.27 25.408 262.454 24.88 262.822 24.528C263.19 24.16 263.718 23.976 264.406 23.976C265.094 23.976 265.622 24.16 265.99 24.528C266.358 24.88 266.542 25.408 266.542 26.112V31.272C266.542 31.848 266.662 32.28 266.902 32.568C267.142 32.856 267.518 33 268.03 33C268.606 33 269.078 32.792 269.446 32.376C269.814 31.96 269.998 31.408 269.998 30.72V26.112C269.998 25.408 270.182 24.88 270.55 24.528C270.918 24.16 271.446 23.976 272.134 23.976C272.822 23.976 273.35 24.16 273.718 24.528C274.086 24.88 274.27 25.408 274.27 26.112V34.056C274.27 35.496 273.582 36.216 272.206 36.216C271.534 36.216 271.014 36.032 270.646 35.664C270.278 35.296 270.094 34.76 270.094 34.056V32.664L270.478 33.84C270.126 34.624 269.63 35.224 268.99 35.64C268.366 36.056 267.622 36.264 266.758 36.264ZM279.9 36.216C279.212 36.216 278.684 36.032 278.316 35.664C277.948 35.296 277.764 34.76 277.764 34.056V27.336H277.14C276.628 27.336 276.228 27.2 275.94 26.928C275.668 26.656 275.532 26.264 275.532 25.752C275.532 25.24 275.668 24.856 275.94 24.6C276.228 24.328 276.628 24.192 277.14 24.192H278.988L277.764 25.32V24.648C277.764 22.872 278.204 21.544 279.084 20.664C279.98 19.768 281.308 19.232 283.068 19.056L283.764 18.984C284.276 18.92 284.684 18.984 284.988 19.176C285.292 19.352 285.5 19.592 285.612 19.896C285.724 20.184 285.748 20.488 285.684 20.808C285.636 21.128 285.516 21.4 285.324 21.624C285.132 21.848 284.876 21.976 284.556 22.008L284.22 22.032C283.404 22.096 282.836 22.272 282.516 22.56C282.196 22.848 282.036 23.272 282.036 23.832V24.624L281.508 24.192H283.404C283.932 24.192 284.332 24.328 284.604 24.6C284.876 24.856 285.012 25.24 285.012 25.752C285.012 26.264 284.876 26.656 284.604 26.928C284.332 27.2 283.932 27.336 283.404 27.336H282.036V34.056C282.036 35.496 281.324 36.216 279.9 36.216ZM292.01 40.584C291.13 40.584 290.306 40.52 289.538 40.392C288.77 40.28 288.106 40.112 287.546 39.888C287.082 39.728 286.754 39.496 286.562 39.192C286.37 38.888 286.282 38.568 286.298 38.232C286.314 37.896 286.402 37.592 286.562 37.32C286.738 37.048 286.97 36.848 287.258 36.72C287.546 36.608 287.866 36.616 288.218 36.744C288.922 37.032 289.562 37.216 290.138 37.296C290.714 37.392 291.202 37.44 291.602 37.44C292.578 37.44 293.306 37.232 293.786 36.816C294.282 36.416 294.53 35.784 294.53 34.92V33.408H294.722C294.482 34.08 293.994 34.632 293.258 35.064C292.522 35.48 291.722 35.688 290.858 35.688C289.802 35.688 288.882 35.448 288.098 34.968C287.314 34.472 286.698 33.784 286.25 32.904C285.818 32.024 285.602 30.992 285.602 29.808C285.602 28.912 285.73 28.104 285.986 27.384C286.242 26.664 286.594 26.048 287.042 25.536C287.506 25.024 288.058 24.632 288.698 24.36C289.354 24.072 290.074 23.928 290.858 23.928C291.754 23.928 292.554 24.136 293.258 24.552C293.978 24.968 294.458 25.512 294.698 26.184L294.458 27.168V26.112C294.458 25.424 294.642 24.896 295.01 24.528C295.394 24.16 295.922 23.976 296.594 23.976C297.266 23.976 297.778 24.16 298.13 24.528C298.498 24.896 298.682 25.424 298.682 26.112V34.416C298.682 36.464 298.106 38 296.954 39.024C295.802 40.064 294.154 40.584 292.01 40.584ZM292.178 32.544C292.658 32.544 293.066 32.44 293.402 32.232C293.738 32.008 294.002 31.696 294.194 31.296C294.386 30.88 294.482 30.384 294.482 29.808C294.482 28.944 294.274 28.272 293.858 27.792C293.442 27.312 292.882 27.072 292.178 27.072C291.73 27.072 291.33 27.184 290.978 27.408C290.626 27.616 290.354 27.928 290.162 28.344C289.986 28.744 289.898 29.232 289.898 29.808C289.898 30.672 290.106 31.344 290.522 31.824C290.938 32.304 291.49 32.544 292.178 32.544ZM305.282 36.264C304.37 36.264 303.562 36.096 302.858 35.76C302.17 35.424 301.626 34.968 301.226 34.392C300.842 33.8 300.65 33.128 300.65 32.376C300.65 31.512 300.874 30.832 301.322 30.336C301.77 29.84 302.49 29.488 303.482 29.28C304.474 29.056 305.794 28.944 307.442 28.944H308.762V30.96H307.442C306.818 30.96 306.298 31.008 305.882 31.104C305.482 31.184 305.186 31.32 304.994 31.512C304.802 31.688 304.706 31.92 304.706 32.208C304.706 32.576 304.834 32.88 305.09 33.12C305.362 33.36 305.746 33.48 306.242 33.48C306.642 33.48 306.994 33.392 307.298 33.216C307.618 33.04 307.874 32.8 308.066 32.496C308.258 32.176 308.354 31.808 308.354 31.392V28.608C308.354 28.032 308.202 27.624 307.898 27.384C307.61 27.144 307.106 27.024 306.386 27.024C306.002 27.024 305.57 27.072 305.09 27.168C304.61 27.248 304.074 27.4 303.482 27.624C303.05 27.784 302.682 27.808 302.378 27.696C302.074 27.584 301.834 27.392 301.658 27.12C301.498 26.848 301.418 26.552 301.418 26.232C301.434 25.912 301.538 25.608 301.73 25.32C301.938 25.032 302.25 24.808 302.666 24.648C303.434 24.36 304.138 24.168 304.778 24.072C305.434 23.976 306.034 23.928 306.578 23.928C307.89 23.928 308.97 24.12 309.818 24.504C310.682 24.872 311.322 25.448 311.738 26.232C312.17 27 312.386 27.992 312.386 29.208V34.056C312.386 34.76 312.218 35.296 311.882 35.664C311.546 36.032 311.058 36.216 310.418 36.216C309.762 36.216 309.258 36.032 308.906 35.664C308.57 35.296 308.402 34.76 308.402 34.056V33.432L308.546 33.768C308.466 34.28 308.282 34.72 307.994 35.088C307.706 35.456 307.33 35.744 306.866 35.952C306.402 36.16 305.874 36.264 305.282 36.264ZM322.594 36.264C321.682 36.264 320.866 36.048 320.146 35.616C319.442 35.168 318.978 34.584 318.754 33.864L319.018 32.88V34.056C319.018 34.76 318.834 35.296 318.466 35.664C318.114 36.032 317.602 36.216 316.93 36.216C316.242 36.216 315.714 36.032 315.346 35.664C314.994 35.296 314.818 34.76 314.818 34.056V21.024C314.818 20.32 315.002 19.784 315.37 19.416C315.738 19.048 316.258 18.864 316.93 18.864C317.618 18.864 318.146 19.048 318.514 19.416C318.898 19.784 319.09 20.32 319.09 21.024V26.16H318.802C319.042 25.504 319.514 24.968 320.218 24.552C320.922 24.136 321.714 23.928 322.594 23.928C323.618 23.928 324.514 24.176 325.282 24.672C326.066 25.168 326.674 25.872 327.106 26.784C327.538 27.696 327.754 28.8 327.754 30.096C327.754 31.36 327.538 32.456 327.106 33.384C326.674 34.312 326.066 35.024 325.282 35.52C324.514 36.016 323.618 36.264 322.594 36.264ZM321.25 33.12C321.682 33.12 322.058 33.016 322.378 32.808C322.714 32.584 322.978 32.256 323.17 31.824C323.362 31.376 323.458 30.8 323.458 30.096C323.458 29.024 323.25 28.256 322.834 27.792C322.418 27.312 321.89 27.072 321.25 27.072C320.818 27.072 320.434 27.176 320.098 27.384C319.762 27.592 319.498 27.92 319.306 28.368C319.114 28.8 319.018 29.376 319.018 30.096C319.018 31.152 319.226 31.92 319.642 32.4C320.058 32.88 320.594 33.12 321.25 33.12ZM336.133 36.264C334.693 36.264 333.445 36.016 332.389 35.52C331.349 35.008 330.549 34.288 329.989 33.36C329.429 32.432 329.149 31.336 329.149 30.072C329.149 28.856 329.413 27.792 329.941 26.88C330.485 25.952 331.221 25.232 332.149 24.72C333.093 24.192 334.165 23.928 335.365 23.928C336.245 23.928 337.045 24.072 337.765 24.36C338.485 24.632 339.101 25.04 339.613 25.584C340.125 26.112 340.509 26.752 340.765 27.504C341.037 28.256 341.173 29.096 341.173 30.024C341.173 30.344 341.085 30.584 340.909 30.744C340.733 30.888 340.453 30.96 340.069 30.96H332.725V28.944H338.053L337.669 29.256C337.669 28.664 337.589 28.184 337.429 27.816C337.269 27.448 337.029 27.168 336.709 26.976C336.405 26.784 336.021 26.688 335.557 26.688C335.061 26.688 334.629 26.808 334.261 27.048C333.909 27.272 333.637 27.608 333.445 28.056C333.253 28.504 333.157 29.064 333.157 29.736V29.952C333.157 31.088 333.405 31.904 333.901 32.4C334.413 32.88 335.197 33.12 336.253 33.12C336.605 33.12 337.005 33.08 337.453 33C337.917 32.904 338.357 32.776 338.773 32.616C339.189 32.456 339.549 32.432 339.853 32.544C340.157 32.64 340.389 32.816 340.549 33.072C340.725 33.312 340.821 33.592 340.837 33.912C340.853 34.216 340.781 34.52 340.621 34.824C340.461 35.112 340.197 35.336 339.829 35.496C339.269 35.752 338.669 35.944 338.029 36.072C337.405 36.2 336.773 36.264 336.133 36.264ZM345.126 36.216C344.454 36.216 343.934 36.032 343.566 35.664C343.198 35.296 343.014 34.76 343.014 34.056V26.112C343.014 25.424 343.19 24.896 343.542 24.528C343.91 24.16 344.43 23.976 345.102 23.976C345.774 23.976 346.286 24.16 346.638 24.528C346.99 24.896 347.166 25.424 347.166 26.112V27.24L346.902 26.256C347.286 25.504 347.83 24.928 348.534 24.528C349.254 24.128 350.07 23.928 350.982 23.928C351.926 23.928 352.702 24.112 353.31 24.48C353.918 24.832 354.374 25.392 354.678 26.16C354.982 26.912 355.134 27.864 355.134 29.016V34.056C355.134 34.76 354.95 35.296 354.582 35.664C354.214 36.032 353.686 36.216 352.998 36.216C352.31 36.216 351.782 36.032 351.414 35.664C351.046 35.296 350.862 34.76 350.862 34.056V29.184C350.862 28.464 350.734 27.952 350.478 27.648C350.238 27.344 349.878 27.192 349.398 27.192C348.758 27.192 348.246 27.4 347.862 27.816C347.478 28.216 347.286 28.76 347.286 29.448V34.056C347.286 35.496 346.566 36.216 345.126 36.216Z" fill="white"/>
<path d="M1200.96 16.0002C1201.51 16.0002 1202.06 16.21 1202.48 16.6295L1212.19 26.3415C1213.03 27.1804 1213.03 28.5379 1212.19 29.3739L1202.55 39.0102C1201.71 39.8492 1200.36 39.8492 1199.52 39.0102C1198.68 38.1713 1198.68 36.8138 1199.52 35.9778L1207.64 27.8563L1199.45 19.6619C1198.61 18.823 1198.61 17.4655 1199.45 16.6295C1199.87 16.21 1200.42 16.0002 1200.97 16.0002L1200.96 16.0002Z" fill="white" stroke="white" stroke-width="3" stroke-miterlimit="10"/>
</g>
<defs>
<filter id="filter0_d_0_1142" x="0" y="0" width="1278" height="60" filterUnits="userSpaceOnUse" color-interpolation-filters="sRGB">
<feFlood flood-opacity="0" result="BackgroundImageFix"/>
<feColorMatrix in="SourceAlpha" type="matrix" values="0 0 0 0 0 0 0 0 0 0 0 0 0 0 0 0 0 0 127 0" result="hardAlpha"/>
<feOffset dy="4"/>
<feGaussianBlur stdDeviation="2"/>
<feComposite in2="hardAlpha" operator="out"/>
<feColorMatrix type="matrix" values="0 0 0 0 0 0 0 0 0 0 0 0 0 0 0 0 0 0 0.25 0"/>
<feBlend mode="normal" in2="BackgroundImageFix" result="effect1_dropShadow_0_1142"/>
<feBlend mode="normal" in="SourceGraphic" in2="effect1_dropShadow_0_1142" result="shape"/>
</filter>
</defs>
</svg>
