<svg width="393" height="190" viewBox="0 0 393 190" fill="none" xmlns="http://www.w3.org/2000/svg">
<path d="M40.1777 106.689C44.4864 105.627 49.0795 105.712 53.3025 107.083C49.9132 81.0838 75.0485 53.7029 101.224 69.0733C103.039 57.3936 108.809 45.9165 118.63 39.3253C128.448 32.7341 142.57 32.0878 151.767 39.5199C152.052 26.6918 160.202 14.8097 171.133 8.07449C182.061 1.33535 195.396 -0.716368 208.205 0.210215C222.319 1.23024 236.301 6.65347 246.855 16.1801C259.263 27.3809 261.421 42.2062 260.494 58.4798C267.183 57.1639 274.222 56.7201 280.732 58.7407C299.268 64.4832 302.587 89.8591 297.932 105.961C309.635 103.575 322.058 101.585 333.301 105.627C344.541 109.668 353.738 121.861 350.275 133.284C356.898 130.578 363.688 127.857 370.833 127.495C377.982 127.133 385.672 129.562 389.844 135.375C395.47 143.215 392.922 154.502 387.316 162.362C379.82 172.874 367.701 179.473 355.09 182.249C333.313 187.037 309.381 180.707 292.828 165.773C295.926 168.568 269.785 183.397 267.292 184.219C256.797 187.68 246.126 191.285 235.02 188.567C223.052 185.64 212.693 177.639 205.451 167.673C180.261 187.863 140.544 186.971 116.285 165.671C92.8015 185.005 54.8725 183.615 32.8654 162.619C23.726 166.224 12.2375 167.821 4.968 161.214C-0.602913 156.153 -1.65087 146.852 2.65003 140.677C6.95094 134.502 16.0475 132.26 22.7287 135.725C20.625 127.483 23.3403 118.194 29.5501 112.377C32.5187 109.598 36.2275 107.663 40.1777 106.693V106.689Z" fill="white"/>
<path d="M260.494 58.4798C261.425 42.2101 259.263 27.3848 246.855 16.1801C236.301 6.64954 222.32 1.2302 208.205 0.210178C195.396 -0.716405 182.065 1.33532 171.133 8.07056C192.798 4.9521 216.71 5.97991 234.003 19.3881C238.409 22.8063 242.305 26.976 244.927 31.8931C247.879 37.4253 249.142 43.7752 249.017 50.0432C248.725 64.6077 240.879 78.5142 229.441 87.5543C218.007 96.5904 203.304 100.986 188.73 101.313C203.597 104.77 219.752 102.345 232.947 94.6711C246.142 86.9975 259.625 73.71 260.494 58.4798Z" fill="#F5FBFF"/>
<path d="M151.768 39.516C142.57 32.0839 128.448 32.7301 118.631 39.3213C108.813 45.9125 103.044 57.3897 101.224 69.0693C100.005 76.9025 107.621 83.6221 114.618 87.3596C121.615 91.0971 129.917 91.8913 137.77 90.7779C130.037 89.9914 123.761 83.6805 120.75 76.5209C116.901 67.3758 117.625 56.2412 123.325 48.1161C129.024 39.991 142.13 37.1295 151.772 39.5082L151.768 39.516Z" fill="#F5FBFF"/>
<path d="M53.3028 107.083C49.0798 105.708 44.4867 105.627 40.178 106.689C36.2277 107.663 32.519 109.594 29.5504 112.373C23.3406 118.19 20.6292 127.479 22.729 135.721C16.0478 132.256 6.95122 134.499 2.65031 140.673C-1.65059 146.848 -0.602634 156.149 4.96439 161.21C12.2338 167.817 23.7224 166.224 32.8618 162.615C54.8689 183.615 92.7978 185.001 116.281 165.668C140.54 186.967 180.257 187.859 205.447 167.669C212.689 177.635 223.044 185.632 235.016 188.564C246.123 191.281 256.793 187.676 267.288 184.215C269.782 183.393 295.926 168.564 292.825 165.769C309.378 180.703 333.309 187.037 355.087 182.245C367.701 179.469 379.821 172.87 387.312 162.358C392.914 154.498 395.466 143.215 389.841 135.371C385.672 129.558 377.978 127.133 370.829 127.491C363.681 127.853 356.894 130.57 350.272 133.28C353.735 121.853 344.537 109.66 333.298 105.623C322.059 101.581 309.635 103.575 297.928 105.957C302.588 89.8552 299.265 64.4792 280.729 58.7368C276.876 57.5415 272.84 57.2262 268.8 57.4247C271.511 71.0938 270.167 85.962 262.411 97.482C254.214 109.648 237.887 116.781 224.131 111.669C210.286 124.193 190.795 130.228 172.291 127.72C153.786 125.213 136.605 114.211 126.593 98.4553C116.168 105.502 100.539 104.778 92.1161 95.4302C83.4013 85.7595 87.7256 75.9798 92.5212 66.2896C92.6459 66.0404 92.7355 65.8029 92.8329 65.5615C69.9649 59.6166 50.2797 83.8869 53.3028 107.079V107.083Z" fill="#F5FBFF"/>
<path d="M40.1782 106.689C44.4869 105.627 49.08 105.712 53.3029 107.083C50.2798 83.8869 69.965 59.6205 92.8331 65.5654C84.1962 66.1066 75.8476 70.3774 70.3507 77.0543C64.8538 83.735 61.9982 92.4091 61.858 101.06C61.8034 104.42 62.158 107.834 63.4163 110.949C66.7471 119.187 75.532 123.679 83.8183 126.907C75.9684 128.69 68.0288 124.52 61.5775 119.708C55.1261 114.9 47.9424 108.823 40.1821 106.689H40.1782Z" fill="#DFF2FD"/>
<path d="M292.829 165.769C309.382 180.703 333.314 187.037 355.091 182.245C367.705 179.469 379.825 172.87 387.316 162.358C392.918 154.498 395.47 143.215 389.845 135.371C389.911 150.671 374.998 163.519 360.264 167.669C345.527 171.819 329.55 168.253 315.736 161.661C309.105 158.5 302.673 154.537 298.065 148.818C293.46 143.099 290.901 135.371 292.735 128.262C287.258 139.392 289.272 153.883 292.829 165.765V165.769Z" fill="#DFF2FD"/>
<path d="M205.451 167.669C180.261 187.859 140.544 186.967 116.285 165.668C92.8019 185.001 54.873 183.611 32.8659 162.615C23.7265 166.22 12.2379 167.817 4.96849 161.21C-0.602424 156.149 -1.65038 146.848 2.65052 140.673C6.46446 153.318 24.6732 158.559 35.402 150.846C32.1257 146.065 30.4272 140.222 30.6298 134.428C42.3598 147.739 60.9386 154.673 78.5279 152.298C96.1172 149.927 112.195 138.322 119.975 122.379C120.427 132.793 118.958 143.289 115.658 153.178C138.752 176.401 176.257 182.529 205.447 167.669H205.451Z" fill="#DFF2FD"/>
</svg>
