<svg width="405" height="274" viewBox="0 0 405 274" fill="none" xmlns="http://www.w3.org/2000/svg">
<g filter="url(#filter0_d_48_15597)">
<rect x="3" y="3" width="395" height="264" rx="16" fill="#DBEFCE"/>
<rect x="3.5" y="3.5" width="394" height="263" rx="15.5" stroke="#C4D678"/>
</g>
<g filter="url(#filter1_d_48_15597)">
<path d="M199.778 98.563C197.434 95.7108 195.321 92.6413 193.132 89.6684C191.313 87.1974 186.548 82.6898 187.166 79.437C187.85 75.8319 198.572 56.8458 202.344 56.9954C206.216 57.1498 218.963 75.9766 219.113 80.2478C219.219 83.3462 210.412 95.4308 207.895 99.0022C206.429 101.063 199.951 98.7705 199.778 98.5582V98.563Z" fill="#009B7F"/>
<path d="M173.039 104.605C169.778 102.873 155.657 95.7012 154.977 92.458C154.219 88.8673 154.827 68.7664 159.501 67.2558C163.19 66.0638 182.053 76.3676 183.832 80.2527C185.125 83.0711 181.648 97.6171 180.702 101.883C180.138 104.35 173.285 104.731 173.039 104.601V104.605Z" fill="#009B7F"/>
<path d="M225.682 104.142C225.383 100.46 223.82 84.6976 226.183 82.3763C228.802 79.8039 246.059 69.4904 249.849 72.6178C252.84 75.0839 254.32 96.5314 252.005 100.122C250.327 102.728 236.2 107.636 232.096 109.132C229.718 109.987 225.701 104.412 225.682 104.137V104.142Z" fill="#009B7F"/>
<path d="M249.922 117.786C250.703 115.073 253.838 103.389 256.158 102.366C258.724 101.237 273.839 98.5244 275.705 101.787C277.176 104.359 272.445 120.083 269.821 122.028C267.916 123.437 256.5 123.128 253.163 123.089C251.234 123.056 249.869 117.988 249.927 117.786H249.922Z" fill="#009B7F"/>
<path d="M154.967 120.633C151.885 120.358 137.701 119.214 136.119 116.931C134.368 114.402 129.453 97.4916 132.347 95.3295C134.947 93.3797 152.748 95.8797 155.386 98.3024C157.301 100.059 159.346 112.433 160.002 116.038C160.368 118.128 155.193 120.652 154.962 120.633H154.967Z" fill="#009B7F"/>
<g style="mix-blend-mode:multiply">
<path d="M191.25 85.4939C192.398 86.9224 193.676 88.6405 195.504 89.21C195.677 89.2631 195.822 89.0942 195.783 88.9301C195.557 87.9504 195.277 86.9852 194.968 86.0248C194.013 83.0567 192.779 80.132 192.195 77.0578C192.48 77.6948 192.745 78.3367 192.996 78.9882C194.501 82.9167 195.557 87.2699 198.32 90.5565C198.441 90.7013 198.73 90.5855 198.706 90.3972C198.537 88.766 198.272 87.1444 198.017 85.5228C197.563 82.6416 197.298 79.7459 196.811 76.8696C196.439 74.6737 196.039 72.4681 195.87 70.2432C196.266 71.7345 196.637 73.2355 196.999 74.7364C197.457 76.6379 197.901 78.5442 198.378 80.4409C198.687 81.6474 199.015 82.8443 199.285 84.0605C199.555 85.2719 199.825 86.4929 200.24 87.6705C200.563 88.5826 200.973 89.6058 201.783 90.1897C201.894 90.2718 202.092 90.1897 202.116 90.0546C202.425 88.2882 202.502 86.4977 202.54 84.712C202.574 83.158 202.574 81.5992 202.68 80.05C202.796 78.3801 203.023 76.7151 203.192 75.0501C203.269 74.2924 203.346 73.5395 203.413 72.7818C203.413 72.8204 203.413 72.8542 203.418 72.8928C203.645 76.3049 203.891 79.7122 204.238 83.1146C204.373 84.4466 204.518 85.7834 204.73 87.1058C204.802 87.5595 204.88 88.0131 204.986 88.462C205.048 88.7274 205.116 89.017 205.256 89.2583C205.4 89.5141 205.642 89.5913 205.897 89.4175C206.351 89.1135 206.534 88.3992 206.688 87.9166C207.171 86.3771 207.416 84.7651 207.701 83.1822C207.851 82.3424 208.039 81.5075 208.183 80.6677C208.444 79.1234 208.642 77.5645 208.81 76.0057C209.109 73.2258 209.331 70.4363 209.693 67.6613C209.895 68.8388 210.035 70.0261 210.127 71.2181C210.358 74.1717 210.416 77.1736 210.267 80.132C210.19 81.6764 210.045 83.2159 209.891 84.7555C209.809 85.5373 209.707 86.3047 209.572 87.0817C209.442 87.8153 209.36 88.5537 209.428 89.2969C209.442 89.4851 209.669 89.6106 209.813 89.4561C210.58 88.6743 211.072 87.6753 211.477 86.6715C211.873 85.6918 212.182 84.6783 212.505 83.6696C212.876 82.521 213.286 81.382 213.624 80.2237C213.985 78.9882 214.294 77.7431 214.55 76.4835C214.39 78.8627 214.111 81.2034 213.513 83.5152C212.934 85.7593 212.201 87.9649 211.743 90.238C211.694 90.4648 211.95 90.6096 212.124 90.46C213.069 89.6395 213.894 88.6888 214.656 87.6994C216.011 85.9427 217.226 84.0702 218.461 82.2362C218.572 82.0721 218.683 81.9032 218.794 81.7343C217.188 86.1406 210.117 95.8653 207.904 99.0023C206.437 101.063 199.96 98.7706 199.787 98.5583C197.443 95.706 195.33 92.6366 193.14 89.6637C191.588 87.5546 187.898 83.9688 187.228 80.938C188.564 82.4631 189.986 83.9061 191.255 85.4891L191.25 85.4939Z" fill="#6ABCA9"/>
<path d="M165.53 98.37C165.737 98.4183 165.935 98.1432 165.751 97.9888C163.798 96.3237 161.372 94.9966 159.824 92.9068C160.277 93.1674 160.711 93.4715 161.131 93.7804C162.448 94.7552 163.673 95.8508 165.038 96.7533C166.2 97.5206 167.574 98.2301 169.007 98.0708C169.166 98.0515 169.306 97.8874 169.205 97.7282C168.558 96.7484 167.893 95.7784 167.218 94.818C165.361 92.1733 163.446 89.5623 161.724 86.8259C161.989 87.1348 162.25 87.4485 162.515 87.7573C163.268 88.6405 164.039 89.5092 164.825 90.3586C165.356 90.9329 165.838 91.5555 166.34 92.1539C166.894 92.82 167.473 93.4811 168.129 94.0506C168.689 94.5381 169.325 94.9821 170.058 95.151C170.222 95.1896 170.391 95.0448 170.338 94.8711C169.914 93.4281 169.349 92.0285 168.703 90.6675C167.714 88.5778 166.538 86.5846 165.361 84.5962C166.427 85.8027 167.497 87.0044 168.568 88.211C170.584 90.4889 172.34 93.0275 174.683 94.9966C174.886 95.1655 175.147 94.9579 175.04 94.7215C174.529 93.5873 173.999 92.4676 173.454 91.348C171.915 88.1869 170.275 85.0836 168.674 81.9563C168.872 82.2169 169.065 82.4775 169.262 82.7381C170.526 84.4128 171.751 86.102 172.836 87.9021C173.864 89.6057 174.838 91.3528 176.048 92.9358C176.208 93.1433 176.507 93.0227 176.463 92.762C176.217 91.2129 175.831 89.6926 175.344 88.2062C173.796 83.52 171.293 79.2537 168.906 74.9536C169.658 75.803 170.377 76.6861 171.052 77.5935C174.765 82.5837 177.336 88.3268 179.043 94.2919C179.101 94.4898 179.449 94.5284 179.482 94.2919C179.642 93.124 179.777 91.9561 179.868 90.7785C180.051 88.4523 180.105 86.0778 179.902 83.7323C180.65 86.9803 181.122 90.2862 181.252 93.6259C181.262 93.8914 181.614 93.9251 181.701 93.6887C182.217 92.236 182.593 90.7447 182.907 89.2341C183.186 87.878 183.418 86.517 183.645 85.1512C183.77 84.3983 183.944 83.6503 184.108 82.907C183.919 88.1338 181.474 98.4183 180.703 101.893C180.138 104.359 173.285 104.741 173.039 104.61C169.841 102.911 156.216 95.9907 155.04 92.6607C158.247 95.011 161.623 97.4241 165.53 98.3749V98.37Z" fill="#6ABCA9"/>
<path d="M225.575 83.4959C225.339 86.3481 225.459 89.3259 226.52 91.9706C226.598 92.1637 226.81 92.1878 226.935 92.0237C228.589 89.8809 229.631 87.3713 230.866 84.9775C230.789 85.2092 230.707 85.4408 230.634 85.6773C230.287 86.7584 229.969 87.8491 229.641 88.935C229.448 89.5817 229.197 90.2091 228.97 90.8413C228.71 91.5797 228.454 92.3277 228.324 93.1048C228.218 93.7129 228.165 94.3789 228.459 94.9484C228.546 95.1124 228.758 95.0787 228.85 94.9484C229.564 93.9638 230.268 92.9696 230.967 91.9706C233.166 88.8336 235.337 85.6725 237.758 82.7044C237.464 83.3994 237.16 84.0943 236.842 84.7748C235.004 88.6744 232.795 92.4629 231.753 96.6809C231.705 96.8836 231.985 97.0912 232.134 96.9029C233.147 95.6047 234.131 94.2823 235.091 92.9407C237.174 90.0353 239.147 87.0576 241.105 84.0654C239.764 86.9321 238.472 89.8278 236.962 92.6125C236.311 93.8142 235.66 95.0256 235.134 96.29C234.686 97.3759 234.281 98.568 234.363 99.76C234.372 99.9096 234.498 100.016 234.652 99.9772C236.022 99.6345 237.17 98.5728 238.134 97.5931C239.118 96.5892 240.001 95.4985 240.878 94.403C241.737 93.3364 242.653 92.3326 243.574 91.3191C244.443 90.3635 245.325 89.3741 246.135 88.3269C243.946 92.8635 241.192 97.096 238.52 101.357C238.395 101.555 238.641 101.777 238.829 101.666C239.904 101.049 240.956 100.392 241.983 99.6925C244.645 97.8827 247.168 95.8122 249.357 93.4378C248.272 95.1221 247.158 96.8402 245.817 98.3363C244.539 99.7649 243.068 101.015 241.877 102.516C241.732 102.699 241.867 102.931 242.099 102.897C245.422 102.405 248.701 101.536 251.851 100.349C249.574 103.003 236.104 107.685 232.11 109.142C229.733 109.996 225.715 104.422 225.696 104.147C225.426 100.846 224.143 87.8201 225.59 83.5007L225.575 83.4959Z" fill="#6ABCA9"/>
<path d="M249.922 117.786C250.703 115.073 253.838 103.389 256.158 102.366C256.486 102.221 257.026 102.047 257.72 101.869C257.658 101.99 257.595 102.105 257.532 102.226C256.548 104.2 255.777 106.251 254.918 108.273C254.229 109.89 253.332 111.801 253.78 113.601C253.814 113.741 253.992 113.814 254.113 113.736C254.875 113.259 255.478 112.573 256.037 111.883C256.544 111.261 257.007 110.595 257.552 110.006C258.179 109.33 258.82 108.669 259.433 107.984C260.142 107.192 260.851 106.396 261.593 105.633C261.386 105.923 261.169 106.208 260.966 106.497C260.416 107.269 259.896 108.066 259.336 108.828C258.849 109.489 258.338 110.131 257.836 110.788C256.862 112.067 255.844 113.428 255.386 114.991C255.338 115.16 255.502 115.315 255.666 115.271C256.505 115.049 257.209 114.427 257.846 113.867C258.473 113.312 259.071 112.723 259.717 112.192C260.402 111.632 261.043 111.014 261.685 110.402C262.765 109.374 263.87 108.302 265.148 107.511C264.569 108.249 263.961 108.963 263.334 109.663C262.664 110.411 261.998 111.193 261.26 111.883C260.715 112.39 260.142 112.863 259.582 113.355C258.97 113.896 258.367 114.455 257.841 115.083C257.426 115.58 257.021 116.149 256.896 116.801C256.876 116.907 256.925 117.062 257.055 117.081C258.174 117.245 259.312 116.902 260.349 116.502C261.314 116.13 262.244 115.667 263.166 115.199C264.265 114.639 265.37 114.094 266.445 113.481C267.955 112.617 269.411 111.666 270.815 110.638C270.501 110.952 270.193 111.275 269.865 111.574C266.349 114.837 262.211 117.288 258.208 119.885C258.01 120.015 258.101 120.285 258.323 120.31C259.206 120.392 260.084 120.334 260.957 120.184C263.749 119.711 266.32 118.35 269.088 117.781C266.257 119.272 263.137 120.16 260.325 121.695C260.151 121.791 260.199 122.057 260.378 122.11C262.158 122.641 264.043 122.694 265.881 122.621C266.894 122.583 267.902 122.501 268.905 122.419C265.572 123.369 256.143 123.123 253.158 123.089C251.229 123.056 249.864 117.988 249.922 117.786Z" fill="#6ABCA9"/>
<path d="M140.392 117.433C141.805 117.8 143.507 118.133 144.887 117.462C145.046 117.385 145.022 117.153 144.887 117.071C144.154 116.622 143.411 116.183 142.678 115.734C141.25 114.861 139.828 113.958 138.521 112.906C137.503 112.091 136.529 111.179 135.791 110.098C136.389 110.373 136.953 110.72 137.493 111.097C138.873 112.047 140.131 113.162 141.516 114.113C142.784 114.982 144.207 115.734 145.779 115.788C145.967 115.792 146.093 115.527 145.938 115.401C143.382 113.215 140.406 111.41 138.279 108.77C138.636 108.997 138.988 109.229 139.336 109.465C140.686 110.377 142.012 111.338 143.464 112.091C144.713 112.737 146.117 113.273 147.544 113.061C147.684 113.041 147.757 112.839 147.679 112.728C147.067 111.825 146.218 111.13 145.35 110.488C144.52 109.88 143.652 109.325 142.813 108.732C141.964 108.128 141.139 107.487 140.295 106.883C138.742 105.773 137.17 104.644 135.839 103.269C136.77 103.722 137.691 104.21 138.598 104.712C140.647 105.846 142.702 106.97 144.718 108.157C146.498 109.205 148.403 110.368 150.506 110.556C150.674 110.57 150.79 110.348 150.703 110.213C150.1 109.296 149.194 108.616 148.311 107.988C147.501 107.414 146.676 106.864 145.88 106.27C145.007 105.614 144.106 105.001 143.208 104.379C141.67 103.312 140.117 102.226 138.776 100.913C139.644 101.304 140.493 101.739 141.327 102.192C143.271 103.254 145.171 104.388 146.941 105.72C148.62 106.985 150.274 108.35 152.208 109.21C152.454 109.316 152.642 109.06 152.483 108.852C151.557 107.66 150.496 106.589 149.396 105.561C148.432 104.663 147.448 103.78 146.449 102.916C145.577 102.158 144.607 101.512 143.647 100.87C141.887 99.702 140.02 98.5823 138.535 97.0573C139.828 97.4144 141.077 97.9115 142.278 98.5196C147.462 101.15 151.62 105.411 155.681 109.475C155.835 109.629 156.139 109.475 156.062 109.253C154.894 106.01 153.332 102.95 151.61 99.9722C153.53 102.014 155.14 104.325 156.751 106.613C156.872 106.782 157.185 106.743 157.176 106.497C157.128 105.542 157.031 104.596 156.886 103.65C156.631 101.965 156.23 100.291 155.7 98.6644C157.523 101.333 159.394 112.617 160.016 116.034C160.383 118.123 155.208 120.647 154.976 120.628C151.895 120.353 137.71 119.209 136.128 116.927C135.945 116.666 135.728 116.236 135.492 115.696C137.103 116.343 138.718 116.994 140.401 117.428L140.392 117.433Z" fill="#6ABCA9"/>
</g>
<path d="M122.204 134.691C121.032 133.562 115.601 128.417 115.708 126.96C115.823 125.348 119.383 116.801 121.283 116.869C122.99 116.926 129.458 123.823 129.738 125.686C129.94 127.037 126.704 132.78 125.783 134.474C125.243 135.449 122.291 134.778 122.204 134.696V134.691Z" fill="#009B7F"/>
<g style="mix-blend-mode:screen">
<path d="M125.928 121.497C125.445 120.985 124.958 120.474 124.471 119.967C123.984 119.46 123.463 118.953 122.846 118.611C122.325 118.321 121.732 118.176 121.153 118.389C120.569 118.606 120.116 119.074 119.74 119.557C119.325 120.092 118.992 120.676 118.674 121.27C118.283 121.999 117.897 122.732 117.536 123.476C116.894 124.798 116.315 126.149 115.852 127.544C115.751 127.312 115.693 127.114 115.708 126.96C115.824 125.348 119.383 116.801 121.283 116.869C122.99 116.926 129.458 123.823 129.738 125.686C129.747 125.739 129.738 125.811 129.738 125.879C128.46 124.426 127.259 122.906 125.932 121.502L125.928 121.497Z" fill="#6ABCA9"/>
</g>
<g style="mix-blend-mode:multiply">
<path d="M117.01 128.683C117.704 129.388 118.394 130.329 119.364 130.662C119.532 130.72 119.687 130.541 119.643 130.382C119.407 129.489 118.934 128.702 118.481 127.906C118.679 128.186 118.881 128.461 119.074 128.746C119.537 129.431 120.044 130.305 120.82 130.676C120.984 130.753 121.143 130.657 121.163 130.478C121.22 129.943 121.037 129.397 120.854 128.9C120.666 128.393 120.473 127.896 120.309 127.385C120.048 126.555 119.658 125.744 119.412 124.899C119.875 125.725 120.241 126.613 120.656 127.452C121.187 128.524 121.601 129.706 122.431 130.599C122.571 130.753 122.807 130.623 122.817 130.44C122.884 129.233 122.532 128.022 122.339 126.839C122.238 126.202 122.117 125.57 122.007 124.933C122.238 125.614 122.46 126.294 122.682 126.975C123.053 128.104 123.381 129.306 124.124 130.261C124.23 130.396 124.471 130.314 124.505 130.16C124.65 129.484 124.621 128.794 124.563 128.109C124.505 127.409 124.471 126.709 124.428 126.009C124.375 125.232 124.302 124.455 124.215 123.683C124.225 123.722 124.24 123.76 124.249 123.799C124.461 124.513 124.693 125.218 124.871 125.942C125.204 127.303 125.416 128.707 126.01 129.986C126.077 130.131 126.265 130.116 126.366 130.034C126.728 129.75 126.834 129.195 126.911 128.765C127.008 128.225 127.047 127.674 127.09 127.129C127.148 126.41 127.153 125.681 127.129 124.952C127.51 126.458 127.746 127.993 127.5 129.547C127.461 129.793 127.775 129.957 127.915 129.721C128.595 128.582 129.212 127.404 129.694 126.169C129.347 128.065 126.608 132.93 125.773 134.465C125.233 135.44 122.281 134.769 122.195 134.687C121.148 133.678 116.701 129.465 115.843 127.539C116.229 127.916 116.624 128.292 117.005 128.683H117.01Z" fill="#6ABCA9"/>
</g>
<path d="M100.819 131.27C100.158 130.208 97.0861 125.367 97.4382 124.306C97.8288 123.128 102.078 117.443 103.472 117.848C104.73 118.215 108.246 124.552 108.107 125.99C108.005 127.032 104.518 130.695 103.52 131.781C102.936 132.409 100.867 131.352 100.819 131.275V131.27Z" fill="#009B7F"/>
<g style="mix-blend-mode:screen">
<path d="M106.202 121.719C105.628 120.744 105.088 119.648 104.215 118.905C103.848 118.591 103.414 118.355 102.922 118.476C102.406 118.601 101.967 118.992 101.601 119.354C101.181 119.769 100.81 120.228 100.443 120.686C99.9995 121.241 99.5365 121.777 99.1025 122.341C98.5092 123.114 97.9498 123.915 97.4385 124.745C97.4096 124.566 97.4 124.412 97.4385 124.306C97.8292 123.128 102.078 117.443 103.472 117.848C104.687 118.201 108.001 124.113 108.107 125.816C107.591 124.397 106.969 123.017 106.202 121.719Z" fill="#6ABCA9"/>
</g>
<g style="mix-blend-mode:multiply">
<path d="M98.0271 125.821C98.4274 126.613 98.7602 127.501 99.4306 128.114C99.5463 128.22 99.7007 128.191 99.7875 128.065C100.005 127.747 100.024 127.303 100.043 126.931C100.067 126.487 100.043 126.043 100.067 125.604C100.096 125.078 100.12 124.552 100.14 124.021C100.193 124.6 100.236 125.175 100.265 125.754C100.313 126.647 100.299 127.776 100.863 128.524C100.979 128.678 101.21 128.669 101.278 128.471C101.721 127.177 101.673 125.778 101.934 124.446C102.083 123.688 102.204 122.93 102.353 122.173C102.315 123.037 102.252 123.9 102.185 124.755C102.078 126.087 101.895 127.452 102.199 128.77C102.247 128.978 102.508 128.968 102.614 128.823C103.289 127.935 103.453 126.7 103.781 125.662C104.022 124.899 104.22 124.118 104.471 123.35C104.35 124.122 104.191 124.895 104.022 125.643C103.757 126.806 103.453 127.998 103.511 129.2C103.52 129.354 103.704 129.504 103.853 129.397C104.635 128.828 104.909 127.843 105.382 127.042C105.614 126.651 105.835 126.251 106.043 125.85C105.749 127.004 105.406 128.147 105.064 129.291C104.987 129.552 105.339 129.668 105.479 129.465C106.217 128.423 107.109 127.506 107.909 126.511C107.147 127.93 104.389 130.836 103.516 131.782C102.932 132.409 100.863 131.352 100.815 131.275C100.188 130.266 97.3905 125.86 97.4098 124.504C97.6027 124.948 97.8004 125.387 98.0223 125.821H98.0271Z" fill="#6ABCA9"/>
</g>
<path d="M87.7103 125.676C87.4065 124.837 85.9644 120.995 86.3696 120.3C86.8133 119.533 90.6282 116.178 91.5446 116.671C92.3693 117.11 93.8982 122.066 93.5895 123.051C93.3629 123.765 90.3871 125.816 89.5238 126.429C89.0222 126.781 87.7296 125.739 87.7055 125.676H87.7103Z" fill="#009B7F"/>
<g style="mix-blend-mode:screen">
<path d="M92.5334 120.039C92.2922 119.262 92.0366 118.292 91.3228 117.805C90.6958 117.375 89.8904 117.559 89.2586 117.872C88.1396 118.423 87.2619 119.335 86.4082 120.247C86.9821 119.393 90.6428 116.193 91.5447 116.676C92.3694 117.115 93.8983 122.071 93.5896 123.056C93.5703 123.123 93.5173 123.201 93.4546 123.287C93.387 122.158 92.8662 121.111 92.5334 120.039Z" fill="#6ABCA9"/>
</g>
<g style="mix-blend-mode:multiply">
<path d="M86.495 121.622C86.6975 122.327 86.7795 123.104 87.2474 123.698C87.339 123.818 87.5367 123.765 87.6043 123.649C87.9081 123.152 88.0817 122.592 88.2361 122.033C88.3711 121.55 88.5254 121.077 88.6653 120.594C88.8727 119.904 89.0511 119.127 89.4129 118.476C89.2923 119.2 88.945 119.904 88.7955 120.614C88.5737 121.656 88.1734 122.713 88.2409 123.794C88.2505 123.977 88.4917 124.113 88.6267 123.953C89.0222 123.504 89.3068 122.978 89.5672 122.443C89.8228 121.912 90.0833 121.391 90.3341 120.86C90.6958 120.088 90.99 119.253 91.4433 118.524C91.371 118.77 91.2794 119.016 91.1877 119.253C90.9948 119.759 90.8019 120.261 90.6283 120.778C90.2231 121.979 89.7457 123.162 89.5286 124.417C89.4949 124.619 89.7457 124.827 89.9096 124.639C90.6668 123.78 91.3179 122.843 91.9594 121.897C91.5494 122.848 91.0816 123.78 90.609 124.701C90.5077 124.899 90.7151 125.126 90.9176 125.01C91.8726 124.47 92.7359 123.799 93.5703 123.094C93.2423 123.847 90.3726 125.821 89.5286 126.424C89.027 126.777 87.7345 125.734 87.7104 125.671C87.4644 125.001 86.495 122.399 86.3262 121.034C86.384 121.227 86.4371 121.42 86.495 121.613V121.622Z" fill="#6ABCA9"/>
</g>
<path d="M68.0191 108.404C69.3213 107.834 70.3148 109.412 70.9756 110.295C85.5554 129.788 113.939 137.833 136.496 127.848C141.415 125.672 145.934 122.737 150.092 119.33C151.104 118.5 152.069 117.607 153.019 116.695C153.357 116.676 153.694 116.69 154.042 116.748C155.648 117.028 156.95 118.138 157.963 119.354C159.289 120.942 160.249 122.829 161.054 124.726C161.97 126.893 168.018 169.84 161.363 171.703C146.715 175.801 112.632 162.307 99.6867 153.403C88.6276 145.792 79.0203 135.995 72.654 124.098C71.3036 121.579 70.0978 118.983 69.0078 116.338C68.4001 114.875 67.749 113.394 67.3632 111.854C67.0931 110.793 66.7314 108.959 68.0191 108.394V108.404Z" fill="#F58E8E"/>
<g style="mix-blend-mode:multiply" opacity="0.63">
<path d="M68.0186 108.404C68.0957 108.37 68.1729 108.346 68.2501 108.326C70.4735 115.561 72.9428 122.868 77.5536 128.963C78.7979 130.604 80.1724 132.143 81.6724 133.553C83.2157 134.996 84.9038 136.275 86.6111 137.515C90.0499 140.005 93.7009 142.206 97.4869 144.132C101.432 146.139 105.546 147.857 109.805 149.083C113.755 150.222 117.903 150.97 122.031 150.782C123.811 150.7 125.561 150.386 127.11 149.46C128.426 148.668 129.473 147.51 130.273 146.212C132.063 143.306 132.786 139.88 134.035 136.733C135.487 133.085 137.397 129.475 139.784 126.251C143.445 124.315 146.874 121.97 150.086 119.34C151.099 118.51 152.064 117.617 153.014 116.705C153.351 116.685 153.689 116.7 154.036 116.758C155.642 117.038 156.944 118.148 157.957 119.364C159.284 120.952 160.243 122.839 161.049 124.735C161.965 126.902 168.013 169.85 161.357 171.713C146.71 175.81 112.626 162.316 99.6813 153.412C88.6223 145.801 79.0149 136.004 72.6486 124.108C71.2982 121.589 70.0924 118.992 69.0025 116.347C68.3948 114.885 67.7437 113.403 67.3578 111.864C67.0877 110.802 66.726 108.968 68.0137 108.404H68.0186Z" fill="#DE717C"/>
</g>
<g style="mix-blend-mode:multiply" opacity="0.63">
<path d="M85.4244 140.739C88.7523 143.272 92.2779 145.541 95.8661 147.683C99.985 150.14 104.186 152.461 108.56 154.435C110.817 155.454 113.113 156.385 115.452 157.196C117.208 157.804 118.997 158.287 120.748 158.904C122.238 159.425 123.733 159.942 125.272 160.304C126.666 160.632 128.19 160.912 129.612 160.608C132.897 159.908 132.14 155.584 131.952 153.127C131.899 152.408 131.826 151.68 131.865 150.96C131.932 149.715 132.226 148.446 132.506 147.23C133.066 144.826 133.857 142.486 134.633 140.15C135.429 137.766 136.215 135.391 137.271 133.104C138.294 130.888 139.519 128.828 141.096 126.965C142.196 125.667 143.401 124.479 144.66 123.345C146.536 122.105 148.345 120.763 150.091 119.339C151.104 118.509 152.068 117.617 153.018 116.704C153.356 116.685 153.694 116.7 154.041 116.757C155.647 117.037 156.949 118.147 157.962 119.364C159.288 120.951 160.248 122.838 161.053 124.735C161.97 126.902 168.018 169.85 161.362 171.713C146.715 175.81 112.631 162.316 99.6859 153.412C93.5752 149.209 87.9131 144.334 82.9937 138.808C83.7894 139.469 84.5997 140.111 85.4244 140.739Z" fill="#DE717C"/>
</g>
<path d="M135.603 161.395C126.941 146.453 140.479 125.025 154.803 113.413C170.53 100.662 186.263 91.6279 207.45 94.4657C220.902 96.2659 233.499 102.303 244.158 110.58C254.257 118.423 263.652 129.47 276.39 133.065C288.11 136.371 302.569 130.285 312.181 140.179C314.824 142.896 316.903 146.173 318.383 149.653C319.811 153.007 320.742 156.704 320.53 160.372C320.423 162.215 320.057 164.112 319.097 165.719C314.646 173.151 303.123 167.123 297.746 164.199C289.913 159.942 280.75 151.236 271.157 155.048C265.818 157.172 261.694 164.841 256.915 168.369C250.794 172.886 243.758 176.095 236.485 178.238C208.314 186.525 176.829 183.523 149.83 172.601C142.736 169.73 138.183 165.854 135.598 161.4L135.603 161.395Z" fill="#F58E8E"/>
<g style="mix-blend-mode:screen">
<path d="M191.921 104.171C193.681 103.949 195.456 103.848 197.226 103.703C202.198 103.298 207.233 103.606 212.129 104.572C216.117 105.358 220.019 106.575 223.781 108.114C227.683 109.712 231.44 111.676 234.941 114.021C237.107 115.469 239.181 117.071 241.1 118.833C238.018 117.004 234.85 115.324 231.585 113.848C228.141 112.284 224.596 110.937 220.984 109.823C217.169 108.645 213.277 107.762 209.336 107.12C205.401 106.478 201.417 106.029 197.438 105.783C195.335 105.653 193.232 105.547 191.125 105.595C190.155 105.614 189.176 105.648 188.212 105.744C187.493 105.817 186.75 105.923 186.027 105.86C186.196 105.759 186.369 105.667 186.543 105.576C188.202 104.745 190.097 104.403 191.925 104.171H191.921Z" fill="#F79F95"/>
</g>
<g style="mix-blend-mode:multiply" opacity="0.25">
<path d="M282.052 138.924C279.366 139.798 276.568 140.478 273.728 140.415C270.525 140.343 267.699 139.161 265.104 137.332C262.519 135.507 260.291 133.225 258.101 130.961C255.757 128.538 253.273 126.285 250.751 124.055C245.484 119.398 239.976 114.958 233.909 111.372C222.021 104.345 208.203 100.865 194.409 101.512C181.604 102.115 168.563 105.995 157.861 113.138C150.631 117.964 144.66 124.243 139.35 131.053C143.459 124.296 149.073 118.066 154.813 113.413C170.54 100.662 186.273 91.6279 207.46 94.4657C220.911 96.2659 233.509 102.303 244.168 110.58C254.267 118.423 263.662 129.47 276.399 133.065C282.785 134.865 289.986 133.881 296.772 134.209C291.683 135.01 286.938 137.341 282.062 138.924H282.052Z" fill="#DE717C"/>
</g>
<g style="mix-blend-mode:multiply" opacity="0.39">
<path d="M294.273 153.794C295.021 153.953 295.735 154.218 296.473 154.406C296.68 154.46 296.806 154.247 296.728 154.073C296.164 152.799 295.764 151.39 295.884 149.981C296.015 148.461 296.878 147.23 298.156 146.434C298.387 146.289 298.228 145.975 297.982 146.019C296.955 146.202 296.019 146.704 295.224 147.375C295.47 145.7 296.159 144.083 297.515 143.007C299.868 141.139 303.312 141.496 305.781 142.93C306.355 143.263 306.89 143.663 307.373 144.112C307.373 144.151 307.373 144.194 307.406 144.238C308.323 145.681 308.988 147.307 309.384 148.967C309.692 150.256 309.852 151.656 309.596 152.973C309.475 152.519 309.278 152.09 308.969 151.709C308.839 151.545 308.588 151.689 308.583 151.868C308.559 152.683 308.424 153.514 308.057 154.252C306.881 156.631 303.915 157.264 301.609 157.987C301.45 158.036 301.378 158.248 301.508 158.369C302.882 159.657 304.46 161.308 304.792 163.248C304.112 162.447 303.427 161.655 302.714 160.888C301.233 159.29 299.646 157.79 297.881 156.511C296.275 155.348 294.524 154.406 292.663 153.731C293.198 153.658 293.733 153.678 294.278 153.794H294.273Z" fill="#DE717C"/>
</g>
<g style="mix-blend-mode:multiply" opacity="0.39">
<path d="M308.767 145.811C308.858 145.961 308.95 146.115 309.032 146.274C309.476 147.119 309.736 148.036 309.847 148.972C309.746 148.548 309.63 148.123 309.5 147.708C309.292 147.066 309.051 146.429 308.771 145.816L308.767 145.811Z" fill="#DE717C"/>
</g>
<g style="mix-blend-mode:multiply" opacity="0.39">
<path d="M144.082 124.277C143.416 125.879 142.837 127.515 142.369 129.204C141.159 133.548 140.604 138.147 140.542 142.655C140.479 147.138 140.956 151.771 142.64 155.965C143.445 157.968 144.516 159.85 145.929 161.486C147.086 162.828 148.504 163.909 150.024 164.812C153.294 166.752 157.041 167.944 160.813 168.373C164.401 168.779 168.307 168.446 171.457 166.539C174.326 164.802 176.039 161.959 176.55 158.682C177.109 155.121 176.719 151.323 175.508 147.925C175.416 147.664 175.315 147.409 175.209 147.148C176.439 148.166 177.577 149.296 178.633 150.492C180.799 152.954 182.8 155.782 184.194 158.755C185.685 161.93 186.027 165.511 187.459 168.716C188.014 169.956 188.737 170.979 189.842 171.781C190.845 172.509 192.027 172.987 193.213 173.315C195.779 174.02 198.494 174.116 201.142 174.121C203.756 174.131 206.394 174.174 209.004 173.967C211.512 173.769 214.106 173.31 216.286 171.988C218.611 170.574 220.149 168.233 220.854 165.632C222.464 159.662 222.706 153.156 225.956 147.785C226.188 150.266 225.855 152.804 225.841 155.28C225.831 157.495 226.183 159.628 226.699 161.771C227.114 163.504 227.62 165.222 228.329 166.863C228.942 168.291 229.747 169.802 231.059 170.704C233.856 172.64 237.363 169.348 239.21 167.48C240.57 166.105 241.805 164.599 242.948 163.04C243.97 161.641 244.901 160.203 245.586 158.605C246.526 156.409 246.927 154.078 246.845 151.694C246.772 149.571 246.406 147.466 246.145 145.353C247.385 146.028 248.489 146.911 249.42 147.992C251.451 150.357 252.521 153.417 253.158 156.424C253.814 159.532 254.016 162.712 254.103 165.878C254.113 166.322 254.595 166.617 254.991 166.39C260.248 163.344 263.354 157.958 267.111 153.34C269.074 152.186 271.234 151.39 273.516 151.158C279.26 150.579 284.705 153.489 289.494 156.322C294.385 159.213 299.039 162.447 304.146 164.961C307.416 166.573 310.937 168.074 314.612 168.344C315.215 168.388 315.832 168.388 316.44 168.34C311.082 171.279 302.26 166.65 297.756 164.204C289.923 159.947 280.76 151.24 271.167 155.053C265.828 157.177 261.704 164.845 256.925 168.373C250.804 172.891 243.768 176.1 236.494 178.243C208.324 186.529 176.839 183.527 149.84 172.606C142.746 169.734 138.193 165.859 135.608 161.404C129.217 150.377 134.913 135.821 144.091 124.286L144.082 124.277Z" fill="#DE717C"/>
</g>
<g style="mix-blend-mode:multiply" opacity="0.39">
<path d="M152.787 171.52C162.346 174.025 172.074 175.786 181.86 177.113C191.877 178.47 201.914 179.044 212.013 178.426C221.341 177.857 230.639 176.462 239.673 174.034C246.015 172.331 252.222 170.106 258.174 167.336C257.759 167.707 257.339 168.055 256.92 168.364C250.799 172.881 243.763 176.09 236.49 178.233C208.319 186.52 176.834 183.518 149.835 172.596C146.778 171.361 144.192 169.932 142.032 168.354C145.586 169.522 149.175 170.569 152.787 171.515V171.52Z" fill="#DE717C"/>
</g>
<path d="M151.538 172.558C150.819 169.759 149.72 166.988 149.035 164.29C146.913 155.912 147.554 146.511 153.737 139.938C159.004 134.335 168.216 134.73 173.83 139.667C180.485 145.526 182.559 155.825 181.879 164.334C181.542 168.537 180.263 172.746 177.895 176.259C175.561 179.729 171.172 181.771 169.913 185.945C169.402 187.635 169.368 189.425 169.325 191.172C169.248 194.14 169.407 197.422 170.092 200.438C170.55 202.465 174.423 207.668 171.886 209.318C171.235 209.743 170.425 209.811 169.653 209.864C167.198 210.038 164.724 210.192 162.279 209.893C143.98 207.668 154.451 183.899 151.538 172.553V172.558Z" fill="#F79F95"/>
<g style="mix-blend-mode:screen">
<path d="M169.913 185.95C169.402 187.639 169.368 189.43 169.325 191.177C169.248 194.145 169.407 197.427 170.092 200.443C170.299 201.36 171.206 202.929 171.9 204.521C171.302 203.879 170.801 203.131 170.4 202.359C169.426 200.491 168.876 198.411 168.529 196.346C167.724 191.582 167.974 186.264 170.854 182.205C172.566 179.792 174.818 177.852 176.651 175.545C177.562 174.396 178.334 173.166 178.884 171.805C179.525 170.217 179.979 168.552 180.273 166.863C180.847 163.576 180.89 160.159 180.601 156.839C180.36 154.078 179.786 151.342 178.826 148.741C177.471 145.068 175.373 141.767 172.807 138.852C173.159 139.108 173.502 139.383 173.829 139.672C180.485 145.531 182.559 155.83 181.879 164.339C181.541 168.542 180.263 172.751 177.895 176.264C175.561 179.734 171.172 181.776 169.913 185.95Z" fill="#F79F95"/>
</g>
<g style="mix-blend-mode:multiply" opacity="0.63">
<path d="M149.035 164.29C146.913 155.912 147.554 146.511 153.737 139.938C159.004 134.335 168.216 134.73 173.83 139.667C175.349 141.004 176.632 142.578 177.693 144.305C177.095 143.528 176.453 142.785 175.744 142.11C173.482 139.943 170.454 138.36 167.251 138.567C164.208 138.76 161.608 140.551 159.809 142.935C157.634 145.811 156.732 149.45 156.428 152.992C155.758 160.772 158.044 168.465 157.46 176.24C157.253 179.02 156.587 181.752 155.975 184.464C155.324 187.34 154.673 190.221 154.35 193.156C154.051 195.878 154.036 198.715 154.856 201.355C155.69 204.029 157.407 206.225 159.713 207.789C159.867 207.895 160.128 207.827 160.214 207.658C160.711 206.674 161.328 205.631 162.226 204.951C162.602 204.666 163.065 204.439 163.542 204.516C164.188 204.618 164.666 205.192 165.013 205.699C165.192 205.959 165.577 205.921 165.684 205.612C166.204 204.043 168.061 203.976 169.146 205.018C169.354 205.221 169.667 205.115 169.759 204.859C170.024 204.111 170.622 203.556 171.322 203.276C172.416 205.54 173.574 208.223 171.886 209.323C171.235 209.748 170.425 209.816 169.653 209.869C167.198 210.042 164.724 210.197 162.279 209.898C143.98 207.673 154.451 183.909 151.538 172.558C150.819 169.759 149.72 166.988 149.035 164.29Z" fill="#DE717C"/>
</g>
<path d="M225.131 149.363C226.187 146.134 227.933 143.335 230.634 141.357C235.939 137.467 243.54 140.063 247.119 144.971C249.101 147.693 250.278 150.941 250.968 154.3C251.58 159.633 251.373 165.058 250.939 170.396C250.413 176.809 249.637 183.204 249.048 189.613C248.783 192.475 248.58 195.434 249.14 198.276C249.371 199.463 249.752 200.602 250.447 201.601C251.455 203.059 253.389 204.41 253.437 206.341C253.495 208.696 251.19 209.753 249.183 210.091C245.547 210.699 241.327 210.216 237.729 209.536C227.639 207.624 230.33 196.148 229.207 188.802C227.205 175.748 220.762 162.746 225.141 149.363H225.131Z" fill="#F79F95"/>
<g style="mix-blend-mode:screen">
<path d="M249.043 189.609C248.778 192.47 248.576 195.429 249.135 198.271C249.367 199.459 249.748 200.598 250.442 201.597C250.948 202.325 251.686 203.035 252.304 203.797C251.493 203.18 250.77 202.436 250.157 201.679C249.579 200.969 249.067 200.192 248.686 199.357C248.252 198.411 248.122 197.383 248.074 196.351C248.011 195.038 248.108 193.72 248.18 192.413C248.252 191.023 248.305 189.633 248.392 188.243C248.566 185.487 248.807 182.741 249.067 179.995C249.588 174.464 250.157 168.938 250.49 163.393C250.649 160.69 250.741 157.959 250.49 155.256C250.375 154.006 250.182 152.766 249.878 151.545C249.588 150.377 249.169 149.267 248.696 148.162C248.185 146.965 247.592 145.797 246.912 144.682C246.984 144.778 247.061 144.87 247.129 144.967C249.111 147.689 250.288 150.937 250.977 154.296C251.59 159.628 251.383 165.053 250.948 170.391C250.423 176.805 249.646 183.199 249.058 189.609H249.043Z" fill="#F79F95"/>
</g>
<g style="mix-blend-mode:multiply" opacity="0.63">
<path d="M225.131 149.363C226.187 146.134 227.933 143.335 230.634 141.357C235.939 137.467 243.54 140.063 247.119 144.971C247.399 145.353 247.654 145.748 247.9 146.149C245.74 144.117 243.097 142.664 240.082 142.312C237.521 142.013 234.893 142.621 233.07 144.532C232.095 145.555 231.478 146.815 230.943 148.108C230.35 149.551 229.915 151.057 229.612 152.587C228.338 158.986 229.12 165.651 230.186 172.027C230.721 175.236 231.353 178.426 231.975 181.616C232.351 183.537 232.708 185.463 232.997 187.398C233.287 189.328 233.571 191.302 233.61 193.257C233.644 194.98 233.412 196.693 233.325 198.411C233.243 200.033 233.229 201.814 233.865 203.334C234.955 205.94 237.844 206.997 240.401 207.542C240.531 207.571 240.637 207.504 240.68 207.383C241.066 206.355 241.683 205.197 242.778 204.796C243.883 204.391 245.026 204.931 245.928 205.559C246.043 205.636 246.236 205.559 246.26 205.424C246.584 203.681 248.966 203.735 250.153 204.502C250.268 204.579 250.461 204.507 250.485 204.367C250.611 203.696 250.905 203.136 251.358 202.721C252.318 203.792 253.389 204.907 253.427 206.336C253.485 208.691 251.18 209.748 249.174 210.086C245.537 210.694 241.317 210.211 237.719 209.531C227.629 207.62 230.321 196.143 229.197 188.798C227.195 175.743 220.752 162.741 225.131 149.358V149.363Z" fill="#DE717C"/>
</g>
<path d="M296.8 151.632C296.8 154.662 299.255 157.114 302.284 157.114C305.313 157.114 307.768 154.658 307.768 151.632C307.768 148.606 305.313 146.149 302.284 146.149C299.255 146.149 296.8 148.606 296.8 151.632Z" fill="#BCBEC0"/>
<path d="M297.186 151.641C297.186 154.479 299.487 156.781 302.322 156.781C305.158 156.781 307.459 154.479 307.459 151.641C307.459 148.803 305.158 146.501 302.322 146.501C299.487 146.501 297.186 148.803 297.186 151.641Z" fill="white"/>
<path d="M297.152 151.936C297.152 154.194 298.98 156.023 301.237 156.023C303.495 156.023 305.322 154.194 305.322 151.936C305.322 149.677 303.495 147.848 301.237 147.848C298.98 147.848 297.152 149.677 297.152 151.936Z" fill="#313239"/>
<path d="M299.086 152.327C299.086 153.412 299.964 154.291 301.049 154.291C302.135 154.291 303.012 153.412 303.012 152.327C303.012 151.241 302.135 150.362 301.049 150.362C299.964 150.362 299.086 151.241 299.086 152.327Z" fill="#231F20"/>
<path d="M301.189 150.589C301.189 151.304 301.768 151.883 302.482 151.883C303.196 151.883 303.775 151.304 303.775 150.589C303.775 149.875 303.196 149.296 302.482 149.296C301.768 149.296 301.189 149.875 301.189 150.589Z" fill="white"/>
<path d="M251.084 205.453C251.05 204.98 251.108 204.458 251.282 204.087C251.523 203.575 252 203.44 252.42 203.57C252.897 203.715 253.336 204.092 253.717 204.497C254.05 204.844 254.359 205.231 254.638 205.65C255.145 206.408 255.897 207.759 255.097 208.59C254.701 209 254.185 209.072 253.698 208.99C253.216 208.913 252.714 208.691 252.285 208.368C251.508 207.774 251.021 206.611 251.084 205.457V205.453Z" fill="#656668"/>
<g style="mix-blend-mode:multiply">
<path d="M251.084 204.989C252.266 205.916 253.211 207.349 253.814 209.004C253.775 209.004 253.737 208.995 253.698 208.99C253.216 208.913 252.714 208.691 252.285 208.367C251.508 207.774 251.021 206.611 251.084 205.457C251.074 205.303 251.074 205.148 251.084 204.994V204.989Z" fill="#656668"/>
</g>
<path d="M247.081 206.601C247.143 206.225 247.235 205.839 247.433 205.554C247.452 205.525 247.481 205.515 247.51 205.52C247.631 205.288 247.785 205.086 247.963 204.931C248.422 204.531 248.986 204.41 249.521 204.589C250.114 204.787 250.645 205.245 251.103 205.79C251.315 206.041 251.499 206.316 251.687 206.596C251.86 206.857 252.039 207.118 252.193 207.398C252.478 207.919 252.724 208.604 252.454 209.212C252.193 209.801 251.658 210.052 251.18 210.153C250.187 210.366 249.111 210.047 248.19 209.497C247.645 209.174 247.182 208.696 247.061 207.87C247.004 207.455 247.018 207.016 247.086 206.606L247.081 206.601Z" fill="#656668"/>
<g style="mix-blend-mode:multiply">
<path d="M247.153 206.244C248.397 206.76 249.391 208.396 249.767 210.124C249.222 210.008 248.682 209.786 248.185 209.487C247.64 209.164 247.177 208.686 247.057 207.861C246.999 207.441 247.013 207.006 247.081 206.596C247.1 206.476 247.124 206.36 247.153 206.244Z" fill="#656668"/>
</g>
<path d="M241.915 208.807C242.045 207.899 242.248 206.9 242.745 206.273C243.121 205.8 243.647 205.568 244.163 205.554C244.77 205.535 245.388 205.771 245.947 206.104C246.878 206.654 248.175 207.788 248.498 209.183C248.556 209.429 248.58 209.695 248.537 209.941C248.455 210.409 248.151 210.752 247.818 210.906C247.293 211.152 246.68 211.07 246.13 211.085C245.175 211.114 244.221 211.036 243.266 210.959C242.803 210.921 242.272 210.834 242.007 210.317C241.833 209.979 241.823 209.535 241.877 209.135C241.891 209.029 241.905 208.918 241.92 208.807H241.915Z" fill="#656668"/>
<g style="mix-blend-mode:multiply">
<path d="M241.867 209.135C241.881 209.029 241.896 208.918 241.91 208.807C242.04 207.899 242.243 206.9 242.74 206.273C242.937 206.022 243.183 205.839 243.444 205.723C242.735 206.321 242.257 207.287 242.412 208.517C242.566 209.719 243.222 210.501 243.989 211.022C243.743 211.003 243.502 210.983 243.256 210.964C242.793 210.925 242.262 210.839 241.997 210.322C241.823 209.984 241.814 209.54 241.867 209.14V209.135Z" fill="#656668"/>
</g>
<path d="M170.145 205.863C170.116 205.438 170.164 204.965 170.323 204.627C170.54 204.164 170.969 204.043 171.35 204.159C171.78 204.29 172.175 204.627 172.522 204.994C172.821 205.308 173.101 205.655 173.352 206.037C173.81 206.722 174.485 207.938 173.762 208.686C173.405 209.053 172.937 209.12 172.503 209.048C172.069 208.976 171.616 208.778 171.23 208.483C170.53 207.948 170.092 206.896 170.149 205.858L170.145 205.863Z" fill="#656668"/>
<g style="mix-blend-mode:multiply">
<path d="M170.145 205.443C171.211 206.283 172.06 207.571 172.605 209.063C172.571 209.063 172.532 209.058 172.499 209.048C172.064 208.976 171.611 208.778 171.225 208.483C170.526 207.948 170.087 206.896 170.145 205.858C170.135 205.723 170.135 205.578 170.145 205.438V205.443Z" fill="#656668"/>
</g>
<path d="M166.532 206.901C166.585 206.558 166.672 206.21 166.851 205.959C166.87 205.935 166.894 205.926 166.918 205.931C167.024 205.718 167.169 205.54 167.328 205.4C167.738 205.038 168.249 204.927 168.732 205.091C169.267 205.269 169.744 205.684 170.159 206.172C170.347 206.399 170.516 206.645 170.685 206.896C170.844 207.132 171.003 207.364 171.143 207.62C171.403 208.088 171.62 208.71 171.379 209.256C171.143 209.787 170.661 210.013 170.231 210.105C169.334 210.293 168.365 210.009 167.535 209.512C167.043 209.217 166.624 208.788 166.518 208.044C166.465 207.668 166.479 207.272 166.537 206.905L166.532 206.901Z" fill="#656668"/>
<g style="mix-blend-mode:multiply">
<path d="M166.6 206.577C167.719 207.04 168.621 208.517 168.958 210.076C168.466 209.97 167.979 209.772 167.531 209.502C167.039 209.207 166.619 208.778 166.513 208.035C166.46 207.658 166.474 207.262 166.532 206.896C166.551 206.79 166.571 206.683 166.595 206.577H166.6Z" fill="#656668"/>
</g>
<path d="M161.873 208.889C161.989 208.069 162.172 207.171 162.621 206.601C162.959 206.172 163.431 205.969 163.899 205.95C164.449 205.931 165.004 206.148 165.51 206.442C166.349 206.939 167.521 207.962 167.81 209.222C167.864 209.444 167.883 209.68 167.844 209.907C167.772 210.327 167.497 210.636 167.193 210.781C166.72 211.003 166.166 210.93 165.669 210.945C164.806 210.974 163.947 210.901 163.084 210.834C162.669 210.8 162.187 210.723 161.951 210.255C161.796 209.951 161.787 209.55 161.83 209.188C161.844 209.092 161.854 208.995 161.869 208.894L161.873 208.889Z" fill="#656668"/>
<g style="mix-blend-mode:multiply">
<path d="M161.83 209.183C161.844 209.087 161.854 208.99 161.869 208.889C161.984 208.069 162.168 207.171 162.616 206.601C162.795 206.375 163.016 206.21 163.253 206.104C162.616 206.645 162.182 207.514 162.322 208.624C162.457 209.709 163.055 210.414 163.745 210.882C163.523 210.868 163.306 210.848 163.084 210.829C162.669 210.795 162.187 210.718 161.951 210.25C161.796 209.946 161.787 209.545 161.83 209.183Z" fill="#656668"/>
</g>
<path d="M296.68 145.348C297.177 144.677 297.727 144.05 298.397 143.533C299.719 142.515 301.32 142.047 302.974 142.356C306.061 142.935 308.361 145.787 309.177 148.688C309.432 149.595 309.543 150.521 309.553 151.448C309.509 151.631 309.461 151.81 309.413 151.989C309.413 149.653 308.651 147.259 307.18 145.464C306.235 144.31 304.995 143.297 303.538 142.891C302.772 142.674 301.957 142.607 301.17 142.751C300.394 142.896 299.666 143.248 299.015 143.688C297.876 144.45 297.032 145.536 296.212 146.622C296.314 146.173 296.482 145.753 296.685 145.343L296.68 145.348Z" fill="#B85062"/>
<path d="M304.151 165.342C304.956 165.844 305.825 166.255 306.693 166.612C308.424 167.316 310.209 167.891 312.037 168.296C312.596 168.422 313.16 168.537 313.72 168.663C314.226 168.779 314.79 168.943 315.273 168.682C315.287 168.673 315.311 168.697 315.297 168.706C314.993 168.967 314.602 168.967 314.221 168.928C313.763 168.88 313.305 168.788 312.852 168.706C311.728 168.504 310.604 168.277 309.514 167.934C307.792 167.394 306.071 166.79 304.493 165.902C303.852 165.54 303.244 165.135 302.704 164.648C303.177 164.889 303.659 165.12 304.141 165.342H304.151Z" fill="#B85062"/>
<g style="mix-blend-mode:multiply" opacity="0.63">
<path d="M245.286 151.492C245.33 151.414 245.407 151.352 245.474 151.298C245.576 151.216 245.711 151.163 245.836 151.134C245.86 151.13 245.884 151.125 245.909 151.125C245.942 151.081 245.981 151.043 246.019 151.004C246.14 150.893 246.304 150.83 246.468 150.83C246.593 150.83 246.709 150.859 246.825 150.903C246.839 150.908 246.854 150.912 246.863 150.917C247.027 151.009 247.182 151.115 247.302 151.265C247.346 151.313 247.384 151.366 247.418 151.419C247.437 151.429 247.452 151.438 247.471 151.448C247.867 151.685 248.262 152.206 248.127 152.693C248.089 152.833 248.002 152.959 247.896 153.05C247.876 153.2 247.833 153.35 247.746 153.47C247.466 153.852 246.912 153.808 246.536 153.615C246.415 153.552 246.28 153.485 246.169 153.398C246.034 153.292 245.904 153.176 245.783 153.055C245.629 152.906 245.479 152.732 245.373 152.544C245.272 152.365 245.171 152.143 245.175 151.926C245.18 151.747 245.2 151.656 245.291 151.496L245.286 151.492Z" fill="#DE717C"/>
<path d="M246.821 150.898C246.787 150.888 246.758 150.879 246.724 150.869C246.763 150.879 246.792 150.888 246.821 150.898Z" fill="#DE717C"/>
<path d="M246.865 150.917C246.865 150.917 246.86 150.917 246.854 150.917C246.854 150.917 246.854 150.917 246.849 150.917C246.849 150.917 246.86 150.923 246.865 150.928V150.917Z" fill="#DE717C"/>
<path d="M246.863 150.917C246.892 150.932 246.926 150.951 246.965 150.976C246.931 150.956 246.897 150.937 246.863 150.917Z" fill="#DE717C"/>
<path d="M246.846 150.908C246.846 150.908 246.831 150.908 246.82 150.898C246.82 150.898 246.836 150.903 246.846 150.908Z" fill="#DE717C"/>
<path d="M240.111 150.454C240.767 150.454 241.38 151.617 240.512 151.617C239.856 151.617 239.243 150.454 240.111 150.454Z" fill="#DE717C"/>
<path d="M234.29 161.641C234.492 161.211 234.84 160.811 235.327 160.705C235.771 160.608 236.229 160.719 236.619 160.941C236.759 160.941 236.899 160.941 237.034 160.965C238.433 161.182 239.171 162.727 239.079 164.025C239.045 164.498 238.925 164.976 238.602 165.333C238.307 165.656 237.926 165.873 237.497 165.955C236.465 166.149 235.341 165.753 234.652 164.961C234.266 164.517 234.015 163.996 233.943 163.407C233.87 162.799 234.039 162.191 234.3 161.641H234.29Z" fill="#DE717C"/>
<path d="M233.205 156.897C233.745 156.897 234.252 157.857 233.533 157.857C232.993 157.857 232.486 156.897 233.205 156.897Z" fill="#DE717C"/>
<path d="M245.282 172.92C245.301 172.857 245.33 172.799 245.359 172.741C245.368 172.722 245.383 172.702 245.397 172.688C245.436 172.635 245.489 172.591 245.537 172.548C245.556 172.529 245.576 172.514 245.595 172.5C245.682 172.437 245.788 172.393 245.884 172.35C245.952 172.321 246.029 172.297 246.101 172.287C246.217 172.258 246.328 172.253 246.444 172.282C246.574 172.311 246.695 172.365 246.806 172.442C246.917 172.519 247.008 172.615 247.081 172.726C247.143 172.828 247.182 172.934 247.191 173.05C247.191 173.117 247.182 173.185 247.172 173.253C247.191 173.32 247.206 173.388 247.206 173.455C247.206 173.571 247.196 173.682 247.153 173.788C247.105 173.914 247.042 174.039 246.97 174.155C246.873 174.305 246.651 174.338 246.492 174.3C246 174.174 245.513 173.909 245.31 173.421C245.248 173.272 245.224 173.069 245.277 172.915L245.282 172.92Z" fill="#DE717C"/>
<path d="M234.603 172.128C234.618 172.075 234.647 172.031 234.69 171.998C234.71 171.978 234.724 171.959 234.734 171.935C234.734 171.93 234.734 171.925 234.738 171.916C234.738 171.911 234.738 171.901 234.738 171.896C234.753 171.867 234.763 171.838 234.777 171.809C234.777 171.809 234.777 171.805 234.782 171.8C234.787 171.79 234.791 171.78 234.796 171.771C234.796 171.766 234.796 171.761 234.801 171.756C234.825 171.718 234.864 171.689 234.907 171.674C234.936 171.655 234.965 171.65 234.999 171.65C235.052 171.64 235.1 171.64 235.153 171.65C235.187 171.66 235.226 171.674 235.259 171.684C235.293 171.703 235.332 171.723 235.365 171.742C235.418 171.776 235.457 171.814 235.491 171.867C235.529 171.906 235.554 171.954 235.573 172.007C235.578 172.022 235.582 172.036 235.587 172.056V172.065C235.587 172.084 235.597 172.104 235.597 172.118C235.602 172.138 235.607 172.157 235.607 172.171C235.607 172.205 235.602 172.234 235.597 172.268C235.597 172.268 235.597 172.268 235.597 172.273C235.597 172.273 235.597 172.278 235.597 172.282C235.597 172.297 235.587 172.311 235.582 172.326C235.568 172.369 235.549 172.408 235.529 172.446C235.515 172.471 235.5 172.495 235.481 172.519C235.443 172.567 235.394 172.611 235.346 172.649C235.303 172.678 235.259 172.693 235.211 172.697C235.158 172.707 235.105 172.707 235.052 172.697C234.989 172.688 234.936 172.664 234.883 172.63C234.825 172.601 234.777 172.562 234.734 172.514C234.71 172.485 234.685 172.451 234.661 172.422C234.623 172.36 234.599 172.297 234.594 172.224C234.594 172.191 234.599 172.162 234.603 172.128Z" fill="#DE717C"/>
<path d="M230.514 177.21C230.538 177.143 230.567 177.075 230.606 177.012C230.644 176.95 230.707 176.896 230.76 176.848C230.784 176.824 230.813 176.81 230.842 176.795C230.91 176.761 230.982 176.723 231.059 176.703C231.141 176.684 231.228 176.67 231.31 176.67C231.406 176.67 231.503 176.679 231.594 176.694C231.701 176.713 231.802 176.752 231.898 176.785C231.956 176.805 232.009 176.829 232.057 176.858C232.139 176.901 232.221 176.945 232.303 176.998C232.303 176.998 232.313 177.003 232.318 177.007C232.371 177.051 232.424 177.099 232.477 177.143C232.545 177.21 232.598 177.292 232.636 177.379C232.651 177.408 232.66 177.432 232.675 177.461C232.684 177.514 232.699 177.572 232.709 177.625C232.709 177.635 232.709 177.645 232.709 177.654C232.718 177.712 232.709 177.765 232.709 177.818C232.709 177.867 232.709 177.92 232.689 177.968C232.67 178.026 232.641 178.084 232.612 178.137C232.607 178.146 232.602 178.156 232.593 178.166C232.583 178.185 232.569 178.2 232.554 178.214C232.487 178.286 232.424 178.339 232.342 178.388C232.231 178.455 232.106 178.489 231.975 178.484C231.956 178.484 231.937 178.484 231.913 178.484C231.956 178.479 231.995 178.47 232.038 178.465C231.985 178.479 231.927 178.484 231.874 178.479C231.874 178.484 231.869 178.494 231.864 178.499C231.811 178.59 231.662 178.644 231.565 178.639C231.522 178.639 231.479 178.629 231.435 178.624C231.339 178.605 231.252 178.566 231.17 178.508C231.122 178.479 231.074 178.45 231.025 178.412C230.948 178.349 230.871 178.286 230.808 178.214C230.688 178.079 230.591 177.929 230.529 177.76C230.48 177.625 230.466 177.495 230.475 177.355C230.48 177.297 230.485 177.244 230.504 177.191L230.514 177.21Z" fill="#DE717C"/>
<path d="M228.228 169.874C228.768 169.874 229.274 170.835 228.556 170.835C228.015 170.835 227.509 169.874 228.228 169.874Z" fill="#DE717C"/>
<path d="M246.034 164.401C246.034 164.401 246.034 164.358 246.039 164.334C246.048 164.3 246.063 164.271 246.092 164.247C246.106 164.228 246.126 164.213 246.145 164.208C246.179 164.189 246.212 164.179 246.246 164.184C246.256 164.184 246.265 164.184 246.27 164.184C246.27 164.184 246.27 164.184 246.275 164.184C246.304 164.184 246.338 164.189 246.367 164.194C246.381 164.199 246.4 164.204 246.415 164.208C246.429 164.208 246.449 164.218 246.463 164.223C246.463 164.223 246.463 164.223 246.468 164.223H246.478C246.507 164.232 246.535 164.247 246.564 164.257C246.642 164.29 246.714 164.339 246.772 164.401C246.825 164.459 246.868 164.522 246.892 164.594C246.916 164.657 246.921 164.725 246.907 164.792C246.892 164.855 246.854 164.908 246.801 164.947C246.743 164.985 246.68 165 246.613 165C246.535 165 246.458 164.985 246.386 164.952C246.309 164.918 246.236 164.87 246.179 164.807C246.126 164.749 246.082 164.686 246.058 164.614L246.034 164.537C246.024 164.498 246.01 164.459 246.01 164.421C246.01 164.411 246.01 164.401 246.01 164.392L246.034 164.401Z" fill="#DE717C"/>
<path d="M231.015 147.746C231.324 147.746 231.609 148.292 231.204 148.292C230.895 148.292 230.61 147.746 231.015 147.746Z" fill="#DE717C"/>
</g>
<g style="mix-blend-mode:multiply" opacity="0.63">
<path d="M171.814 149.527C171.857 149.45 171.934 149.387 172.002 149.334C172.103 149.252 172.238 149.199 172.364 149.17C172.388 149.165 172.412 149.16 172.436 149.16C172.47 149.117 172.508 149.078 172.547 149.04C172.667 148.929 172.831 148.866 172.995 148.866C173.121 148.866 173.237 148.895 173.352 148.938C173.367 148.943 173.381 148.948 173.391 148.953C173.555 149.045 173.709 149.151 173.83 149.296C173.873 149.344 173.912 149.397 173.945 149.45C173.965 149.46 173.979 149.469 173.999 149.479C174.394 149.715 174.789 150.232 174.654 150.724C174.616 150.864 174.529 150.99 174.423 151.081C174.404 151.231 174.36 151.381 174.273 151.501C173.994 151.882 173.439 151.839 173.063 151.641C172.942 151.578 172.807 151.511 172.696 151.424C172.561 151.318 172.431 151.202 172.311 151.081C172.156 150.932 172.007 150.758 171.901 150.57C171.799 150.391 171.698 150.169 171.703 149.952C171.708 149.773 171.722 149.682 171.819 149.522L171.814 149.527Z" fill="#DE717C"/>
<path d="M173.353 148.939C173.319 148.929 173.29 148.919 173.256 148.91C173.295 148.919 173.324 148.929 173.353 148.939Z" fill="#DE717C"/>
<path d="M173.397 148.958C173.397 148.958 173.392 148.958 173.387 148.958C173.387 148.958 173.387 148.958 173.381 148.958C173.381 148.958 173.392 148.963 173.397 148.968V148.958Z" fill="#DE717C"/>
<path d="M173.396 148.958C173.425 148.972 173.459 148.992 173.498 149.016C173.464 148.997 173.43 148.977 173.396 148.958Z" fill="#DE717C"/>
<path d="M173.373 148.944C173.373 148.944 173.357 148.944 173.347 148.934C173.347 148.934 173.363 148.939 173.373 148.944Z" fill="#DE717C"/>
<path d="M166.643 148.495C167.299 148.495 167.912 149.658 167.044 149.658C166.388 149.658 165.775 148.495 166.643 148.495Z" fill="#DE717C"/>
<path d="M156.901 159.981C157.103 159.551 157.451 159.151 157.938 159.044C158.381 158.948 158.84 159.059 159.23 159.281C159.37 159.281 159.51 159.281 159.645 159.305C161.044 159.522 161.782 161.066 161.69 162.365C161.656 162.838 161.536 163.315 161.212 163.673C160.918 163.996 160.537 164.213 160.108 164.295C159.076 164.488 157.952 164.092 157.262 163.301C156.877 162.857 156.626 162.336 156.553 161.747C156.481 161.139 156.65 160.531 156.91 159.981H156.901Z" fill="#DE717C"/>
<path d="M159.737 154.933C160.277 154.933 160.784 155.893 160.065 155.893C159.525 155.893 159.019 154.933 159.737 154.933Z" fill="#DE717C"/>
<path d="M176.342 171.409C176.361 171.346 176.39 171.288 176.419 171.231C176.429 171.211 176.443 171.192 176.453 171.177C176.492 171.124 176.545 171.081 176.593 171.038C176.612 171.018 176.632 171.004 176.651 170.989C176.738 170.927 176.844 170.883 176.94 170.84C177.008 170.811 177.085 170.787 177.157 170.772C177.273 170.743 177.384 170.738 177.5 170.767C177.63 170.796 177.75 170.849 177.861 170.927C177.972 171.004 178.064 171.1 178.136 171.211C178.199 171.313 178.238 171.419 178.247 171.535C178.247 171.602 178.238 171.67 178.233 171.737C178.252 171.805 178.267 171.872 178.267 171.94C178.267 172.056 178.257 172.167 178.218 172.273C178.17 172.398 178.107 172.524 178.035 172.64C177.939 172.789 177.717 172.823 177.558 172.785C177.066 172.659 176.578 172.394 176.376 171.906C176.313 171.757 176.289 171.554 176.342 171.399V171.409Z" fill="#DE717C"/>
<path d="M161.136 170.169C161.15 170.116 161.179 170.072 161.222 170.038C161.242 170.019 161.256 170 161.266 169.976C161.266 169.971 161.266 169.966 161.271 169.956C161.271 169.951 161.271 169.942 161.271 169.937C161.285 169.908 161.295 169.879 161.309 169.85C161.309 169.85 161.309 169.845 161.309 169.84C161.314 169.831 161.319 169.821 161.324 169.811C161.324 169.811 161.324 169.802 161.328 169.797C161.353 169.758 161.391 169.729 161.435 169.715C161.464 169.696 161.492 169.691 161.526 169.691C161.574 169.681 161.628 169.681 161.681 169.691C161.714 169.7 161.753 169.715 161.787 169.725C161.82 169.744 161.859 169.763 161.893 169.783C161.946 169.816 161.984 169.855 162.018 169.908C162.057 169.947 162.081 169.995 162.1 170.048C162.105 170.062 162.11 170.077 162.115 170.096V170.106C162.115 170.125 162.124 170.144 162.124 170.159C162.129 170.178 162.134 170.198 162.134 170.212C162.134 170.246 162.129 170.275 162.124 170.309C162.124 170.309 162.124 170.309 162.124 170.313V170.323C162.124 170.338 162.115 170.352 162.11 170.366C162.095 170.41 162.076 170.449 162.057 170.487C162.042 170.511 162.028 170.535 162.009 170.56C161.97 170.608 161.922 170.651 161.873 170.69C161.83 170.719 161.787 170.733 161.738 170.738C161.685 170.748 161.632 170.748 161.579 170.738C161.517 170.728 161.464 170.704 161.41 170.671C161.353 170.642 161.304 170.603 161.261 170.555C161.237 170.526 161.213 170.492 161.189 170.463C161.15 170.4 161.126 170.338 161.121 170.265C161.121 170.231 161.126 170.202 161.131 170.169H161.136Z" fill="#DE717C"/>
<path d="M155.232 178.721C155.256 178.653 155.285 178.585 155.324 178.523C155.363 178.46 155.425 178.407 155.478 178.359C155.502 178.334 155.531 178.32 155.56 178.305C155.628 178.272 155.7 178.233 155.777 178.214C155.859 178.194 155.946 178.18 156.028 178.18C156.125 178.18 156.221 178.19 156.313 178.204C156.419 178.219 156.52 178.262 156.617 178.296C156.674 178.315 156.727 178.339 156.776 178.368C156.858 178.412 156.94 178.455 157.022 178.508C157.022 178.508 157.031 178.513 157.036 178.518C157.089 178.561 157.142 178.61 157.195 178.653C157.263 178.721 157.316 178.803 157.354 178.889C157.369 178.918 157.379 178.943 157.393 178.971C157.403 179.025 157.417 179.082 157.427 179.136C157.427 179.145 157.427 179.155 157.427 179.165C157.436 179.222 157.427 179.276 157.427 179.329C157.427 179.377 157.427 179.43 157.407 179.478C157.388 179.536 157.359 179.594 157.33 179.647C157.325 179.657 157.321 179.666 157.311 179.676C157.301 179.695 157.287 179.71 157.272 179.724C157.205 179.797 157.142 179.85 157.06 179.898C156.949 179.966 156.824 179.999 156.694 179.995C156.674 179.995 156.655 179.995 156.631 179.995C156.674 179.99 156.713 179.98 156.756 179.975C156.703 179.99 156.645 179.995 156.592 179.99C156.592 179.995 156.588 180.004 156.583 180.009C156.53 180.101 156.385 180.154 156.284 180.149C156.24 180.149 156.197 180.139 156.154 180.135C156.057 180.115 155.97 180.077 155.888 180.019C155.84 179.99 155.792 179.961 155.744 179.922C155.666 179.86 155.589 179.797 155.527 179.724C155.406 179.589 155.309 179.44 155.247 179.271C155.199 179.136 155.184 179.005 155.194 178.865C155.199 178.807 155.203 178.754 155.223 178.701L155.232 178.721Z" fill="#DE717C"/>
<path d="M154.76 167.91C155.3 167.91 155.806 168.871 155.088 168.871C154.548 168.871 154.041 167.91 154.76 167.91Z" fill="#DE717C"/>
<path d="M172.561 162.442C172.561 162.442 172.561 162.399 172.566 162.374C172.576 162.341 172.59 162.312 172.619 162.288C172.634 162.268 172.653 162.254 172.672 162.249C172.706 162.23 172.74 162.22 172.773 162.225C172.783 162.225 172.793 162.225 172.798 162.225C172.798 162.225 172.798 162.225 172.802 162.225C172.831 162.225 172.865 162.23 172.894 162.234C172.908 162.239 172.928 162.244 172.942 162.249C172.957 162.249 172.976 162.259 172.99 162.263C172.99 162.263 172.99 162.263 172.995 162.263H173.005C173.034 162.273 173.063 162.288 173.092 162.297C173.169 162.331 173.241 162.379 173.299 162.442C173.352 162.5 173.396 162.563 173.42 162.635C173.444 162.698 173.449 162.765 173.434 162.833C173.42 162.896 173.381 162.949 173.328 162.987C173.27 163.026 173.208 163.04 173.14 163.04C173.063 163.04 172.986 163.026 172.913 162.992C172.836 162.958 172.764 162.91 172.706 162.847C172.653 162.789 172.609 162.727 172.585 162.654L172.561 162.577C172.552 162.539 172.537 162.5 172.537 162.461C172.537 162.452 172.537 162.442 172.537 162.432L172.561 162.442Z" fill="#DE717C"/>
<path d="M157.548 145.787C157.856 145.787 158.141 146.332 157.736 146.332C157.427 146.332 157.143 145.787 157.548 145.787Z" fill="#DE717C"/>
</g>
<g style="mix-blend-mode:multiply" opacity="0.39">
<path d="M257.836 147.076C258.126 146.704 258.536 146.39 259.003 146.294C259.495 146.197 260.007 146.27 260.455 146.497C260.841 146.569 261.217 146.733 261.526 146.97C262.008 147.346 262.351 147.853 262.471 148.451C262.582 148.987 262.49 149.556 262.245 150.039C261.868 150.782 261.005 151.096 260.214 151.028C259.225 150.946 258.299 150.449 257.721 149.634C257.479 149.296 257.311 148.852 257.325 148.432C257.335 147.925 257.528 147.467 257.841 147.071L257.836 147.076Z" fill="#DE717C"/>
<path d="M257.841 154.214C257.87 154.185 257.899 154.151 257.923 154.122C257.957 154.074 258 154.045 258.058 154.03C258.121 154.016 258.179 154.011 258.241 154.03C258.314 154.045 258.376 154.074 258.439 154.117C258.497 154.16 258.55 154.209 258.589 154.271C258.613 154.315 258.642 154.358 258.666 154.402C258.709 154.469 258.733 154.542 258.738 154.619C258.743 154.691 258.728 154.754 258.685 154.817C258.642 154.875 258.589 154.913 258.516 154.933C258.439 154.952 258.362 154.952 258.285 154.933C258.198 154.913 258.116 154.88 258.044 154.826C257.971 154.773 257.909 154.711 257.86 154.633C257.817 154.566 257.793 154.493 257.788 154.416C257.783 154.344 257.798 154.281 257.841 154.218V154.214Z" fill="#DE717C"/>
<path d="M254.711 146.492C254.72 146.448 254.74 146.414 254.773 146.385C254.802 146.352 254.836 146.328 254.879 146.318C254.899 146.313 254.923 146.308 254.942 146.303C254.952 146.303 254.961 146.303 254.971 146.299C254.976 146.299 254.981 146.299 254.986 146.299C255.034 146.284 255.087 146.279 255.135 146.289C255.193 146.289 255.246 146.303 255.299 146.328C255.338 146.342 255.376 146.366 255.41 146.39C255.463 146.424 255.502 146.463 255.535 146.516C255.574 146.554 255.598 146.603 255.617 146.656C255.622 146.69 255.632 146.718 255.637 146.752C255.642 146.815 255.627 146.873 255.593 146.926C255.555 146.979 255.506 147.013 255.444 147.027C255.376 147.047 255.309 147.047 255.241 147.027C255.198 147.018 255.154 147.008 255.111 147.003C255.077 146.994 255.043 146.979 255.01 146.969C254.957 146.945 254.908 146.916 254.865 146.878C254.836 146.858 254.807 146.829 254.788 146.801C254.754 146.762 254.73 146.718 254.711 146.67C254.706 146.641 254.696 146.612 254.691 146.579C254.691 146.55 254.696 146.521 254.701 146.492H254.711Z" fill="#DE717C"/>
<path d="M268.046 149.672C268.046 149.624 268.046 149.58 268.056 149.532C268.066 149.441 268.075 149.349 268.095 149.262C268.104 149.214 268.119 149.17 268.133 149.127C268.133 149.103 268.133 149.083 268.138 149.064C268.162 149.016 268.181 148.963 268.206 148.914C268.234 148.861 268.278 148.823 268.326 148.799C268.326 148.799 268.336 148.799 268.336 148.794C268.374 148.774 268.418 148.755 268.456 148.736C268.48 148.721 268.509 148.707 268.533 148.702C268.538 148.702 268.548 148.702 268.553 148.692C268.582 148.692 268.611 148.683 268.64 148.678C268.697 148.663 268.755 148.663 268.818 148.678C268.915 148.678 269.011 148.707 269.098 148.75C269.199 148.789 269.286 148.847 269.363 148.924C269.445 148.987 269.513 149.059 269.566 149.151C269.648 149.296 269.72 149.479 269.667 149.643C269.667 149.653 269.657 149.663 269.657 149.672C269.657 149.687 269.652 149.696 269.648 149.711V149.72C269.638 149.774 269.614 149.827 269.58 149.87C269.58 149.87 269.58 149.87 269.575 149.875C269.575 149.894 269.575 149.913 269.566 149.933C269.566 149.957 269.566 149.981 269.556 150.005C269.546 150.044 269.542 150.078 269.517 150.111C269.464 150.184 269.402 150.213 269.32 150.246C269.353 150.232 269.382 150.218 269.416 150.203C269.382 150.222 269.339 150.237 269.3 150.256C269.291 150.266 269.281 150.275 269.271 150.285C269.233 150.304 269.194 150.324 269.156 150.338C269.146 150.338 269.136 150.343 269.132 150.348C269.117 150.353 269.103 150.357 269.088 150.362C269.04 150.367 268.992 150.377 268.943 150.382C268.943 150.382 268.934 150.382 268.929 150.382H268.91C268.91 150.382 268.9 150.382 268.895 150.382H268.886C268.886 150.382 268.89 150.382 268.895 150.382C268.89 150.382 268.886 150.382 268.881 150.382C268.833 150.382 268.789 150.382 268.736 150.367C268.683 150.348 268.625 150.333 268.572 150.314C268.485 150.28 268.403 150.227 268.336 150.16C268.288 150.126 268.244 150.082 268.21 150.029C268.152 149.967 268.114 149.894 268.085 149.812C268.066 149.764 268.056 149.716 268.056 149.663L268.046 149.672Z" fill="#DE717C"/>
<path d="M255.482 137.66C255.482 137.597 255.482 137.525 255.497 137.472C255.497 137.467 255.56 137.327 255.564 137.322C255.569 137.312 255.675 137.211 255.685 137.206C255.69 137.206 255.695 137.197 255.699 137.197C255.719 137.182 255.738 137.168 255.762 137.148C255.849 137.09 255.941 137.047 256.037 137.008C256.056 136.999 256.08 136.994 256.1 136.984C256.105 136.984 256.109 136.984 256.114 136.984C256.172 136.97 256.235 136.965 256.298 136.955C256.307 136.955 256.312 136.955 256.322 136.955C256.452 136.955 256.582 136.984 256.703 137.037C256.838 137.095 256.953 137.177 257.055 137.283C257.098 137.337 257.137 137.39 257.18 137.443C257.248 137.549 257.286 137.66 257.296 137.785C257.306 137.872 257.296 137.949 257.248 138.022C257.224 138.099 257.175 138.162 257.103 138.205C257.084 138.215 257.064 138.22 257.045 138.229C257.026 138.244 257.002 138.253 256.982 138.268C256.949 138.292 256.91 138.316 256.876 138.34C256.862 138.355 256.843 138.365 256.828 138.379C256.828 138.379 256.818 138.384 256.814 138.389C256.814 138.389 256.814 138.389 256.809 138.393C256.789 138.403 256.77 138.413 256.746 138.422C256.732 138.432 256.722 138.442 256.707 138.447C256.693 138.456 256.674 138.461 256.659 138.471C256.65 138.471 256.64 138.48 256.63 138.485C256.606 138.495 256.587 138.504 256.563 138.514C256.548 138.514 256.539 138.514 256.524 138.514C256.539 138.514 256.553 138.514 256.563 138.514C256.553 138.514 256.548 138.524 256.539 138.524C256.5 138.529 256.466 138.533 256.428 138.538C256.428 138.538 256.428 138.533 256.428 138.529C256.423 138.529 256.418 138.529 256.413 138.529C256.331 138.529 256.259 138.504 256.187 138.466C256.187 138.466 256.182 138.466 256.177 138.466L256.008 138.413L255.844 138.321C255.844 138.321 255.699 138.2 255.699 138.196C255.69 138.186 255.598 138.065 255.589 138.056C255.579 138.036 255.521 137.92 255.516 137.901C255.516 137.901 255.516 137.901 255.516 137.896C255.516 137.896 255.516 137.896 255.516 137.892C255.516 137.882 255.482 137.747 255.482 137.732C255.482 137.727 255.482 137.718 255.482 137.713C255.482 137.698 255.482 137.679 255.482 137.665V137.66Z" fill="#DE717C"/>
<path d="M256.568 138.514C256.872 138.543 257.296 138.586 256.568 138.514V138.514Z" fill="#DE717C"/>
<path d="M251.378 144.416C251.696 144.416 251.99 144.981 251.571 144.981C251.252 144.981 250.958 144.416 251.378 144.416Z" fill="#DE717C"/>
<path d="M255.743 161.926L255.854 161.873C255.912 161.858 255.97 161.853 256.032 161.858C256.047 161.858 256.061 161.858 256.076 161.858C256.095 161.728 256.177 161.622 256.317 161.578C256.341 161.573 256.365 161.573 256.389 161.569C256.418 161.554 256.452 161.54 256.476 161.53C256.524 161.511 256.587 161.506 256.65 161.511C256.669 161.501 256.688 161.487 256.712 161.482C256.765 161.472 256.814 161.467 256.867 161.458C256.953 161.458 257.035 161.467 257.117 161.501C257.18 161.515 257.233 161.54 257.286 161.573C257.344 161.598 257.397 161.636 257.441 161.684C257.494 161.718 257.532 161.766 257.566 161.82C257.624 161.882 257.667 161.959 257.691 162.042C257.74 162.177 257.769 162.307 257.797 162.447C257.812 162.51 257.822 162.577 257.817 162.64C257.817 162.732 257.817 162.833 257.778 162.925C257.72 163.06 257.677 163.142 257.556 163.234C257.494 163.287 257.407 163.32 257.325 163.335C257.161 163.369 257.055 163.364 256.881 163.335C256.814 163.325 256.751 163.306 256.683 163.282C256.558 163.263 256.433 163.219 256.326 163.142C256.302 163.127 256.283 163.103 256.264 163.089C256.177 163.041 256.095 162.987 256.013 162.93C255.849 162.809 255.68 162.65 255.637 162.447C255.622 162.375 255.603 162.302 255.593 162.23C255.579 162.119 255.642 161.979 255.738 161.916L255.743 161.926Z" fill="#DE717C"/>
</g>
<g style="mix-blend-mode:multiply" opacity="0.39">
<path d="M114.401 147.418C114.372 146.984 114.463 146.511 114.729 146.158C115.008 145.787 115.409 145.526 115.857 145.406C116.171 145.217 116.532 145.102 116.889 145.077C117.454 145.044 118.003 145.184 118.457 145.526C118.862 145.83 119.146 146.279 119.277 146.767C119.47 147.515 119.069 148.263 118.481 148.702C117.743 149.252 116.798 149.479 115.896 149.271C115.52 149.184 115.134 148.982 114.883 148.683C114.579 148.325 114.43 147.886 114.401 147.423V147.418Z" fill="#DE717C"/>
<path d="M118.79 152.365C118.79 152.326 118.79 152.288 118.79 152.249C118.785 152.196 118.795 152.148 118.824 152.104C118.857 152.056 118.896 152.018 118.949 151.989C119.007 151.955 119.069 151.936 119.137 151.931C119.205 151.921 119.272 151.931 119.335 151.945C119.378 151.96 119.422 151.974 119.47 151.984C119.542 152.003 119.6 152.037 119.653 152.09C119.701 152.138 119.73 152.191 119.74 152.259C119.745 152.326 119.73 152.384 119.696 152.442C119.658 152.505 119.605 152.553 119.542 152.587C119.47 152.626 119.393 152.655 119.306 152.664C119.224 152.674 119.142 152.664 119.06 152.645C118.988 152.626 118.93 152.592 118.877 152.539C118.828 152.491 118.799 152.437 118.79 152.37V152.365Z" fill="#DE717C"/>
<path d="M111.879 148.938C111.859 148.9 111.85 148.866 111.859 148.827C111.859 148.789 111.869 148.75 111.893 148.716C111.903 148.702 111.917 148.683 111.927 148.668C111.932 148.659 111.936 148.654 111.946 148.644C111.946 148.644 111.951 148.634 111.956 148.634C111.98 148.591 112.014 148.562 112.052 148.538C112.091 148.504 112.139 148.48 112.187 148.465C112.226 148.451 112.26 148.446 112.298 148.441C112.356 148.432 112.409 148.437 112.462 148.451C112.51 148.456 112.559 148.47 112.607 148.499C112.631 148.519 112.655 148.538 112.679 148.552C112.723 148.591 112.747 148.644 112.756 148.702C112.761 148.76 112.747 148.813 112.718 148.861C112.684 148.914 112.636 148.958 112.578 148.987C112.544 149.006 112.506 149.025 112.472 149.049C112.443 149.064 112.414 149.074 112.38 149.088C112.327 149.107 112.279 149.112 112.226 149.112C112.192 149.112 112.158 149.112 112.125 149.103C112.076 149.098 112.033 149.083 111.989 149.059C111.965 149.045 111.946 149.025 111.922 149.006C111.907 148.987 111.888 148.963 111.874 148.943L111.879 148.938Z" fill="#DE717C"/>
<path d="M123.072 142.935C123.043 142.906 123.015 142.872 122.995 142.833C122.947 142.766 122.894 142.693 122.855 142.621C122.831 142.582 122.817 142.544 122.798 142.505C122.783 142.491 122.769 142.476 122.764 142.457C122.749 142.409 122.735 142.36 122.72 142.312C122.711 142.259 122.716 142.206 122.73 142.158V142.148C122.744 142.109 122.764 142.071 122.778 142.032C122.788 142.008 122.798 141.984 122.812 141.96C122.812 141.955 122.817 141.95 122.822 141.941C122.822 141.941 122.851 141.897 122.87 141.878C122.899 141.83 122.942 141.796 122.99 141.767C123.058 141.709 123.14 141.665 123.227 141.641C123.323 141.608 123.42 141.593 123.516 141.598C123.613 141.588 123.704 141.598 123.796 141.632C123.941 141.68 124.105 141.762 124.167 141.912C124.167 141.921 124.177 141.931 124.177 141.941C124.182 141.95 124.187 141.965 124.196 141.974C124.196 141.974 124.196 141.979 124.201 141.984C124.225 142.027 124.244 142.076 124.244 142.134C124.244 142.134 124.244 142.138 124.244 142.143C124.254 142.158 124.264 142.172 124.273 142.187C124.288 142.206 124.302 142.225 124.312 142.245C124.331 142.274 124.346 142.307 124.351 142.341C124.36 142.423 124.331 142.486 124.293 142.558C124.307 142.529 124.317 142.5 124.331 142.471C124.322 142.51 124.302 142.544 124.283 142.578C124.283 142.587 124.283 142.602 124.283 142.611C124.269 142.65 124.249 142.684 124.235 142.722C124.235 142.732 124.225 142.737 124.225 142.747C124.22 142.761 124.211 142.771 124.206 142.785C124.177 142.819 124.148 142.853 124.119 142.891C124.119 142.891 124.114 142.896 124.109 142.901C124.109 142.901 124.1 142.911 124.095 142.915C124.095 142.915 124.09 142.92 124.085 142.925C124.085 142.925 124.08 142.925 124.076 142.93C124.076 142.93 124.076 142.93 124.08 142.93C124.08 142.93 124.071 142.935 124.071 142.94C124.037 142.969 124.008 142.993 123.96 143.017C123.912 143.036 123.859 143.06 123.81 143.08C123.728 143.108 123.642 143.123 123.555 143.118C123.497 143.123 123.444 143.118 123.391 143.104C123.314 143.094 123.241 143.07 123.174 143.031C123.13 143.007 123.097 142.978 123.063 142.949L123.072 142.935Z" fill="#DE717C"/>
<path d="M106.983 142.341C106.949 142.298 106.901 142.249 106.877 142.201C106.877 142.196 106.833 142.061 106.833 142.056C106.833 142.047 106.843 141.912 106.843 141.902C106.843 141.897 106.843 141.892 106.843 141.883C106.843 141.858 106.853 141.834 106.858 141.81C106.882 141.719 106.92 141.627 106.964 141.545C106.973 141.525 106.983 141.506 106.993 141.492C106.993 141.492 106.997 141.482 107.002 141.477C107.036 141.434 107.075 141.386 107.113 141.347C107.118 141.342 107.123 141.337 107.128 141.332C107.219 141.25 107.325 141.192 107.441 141.154C107.571 141.11 107.702 141.096 107.837 141.11C107.899 141.12 107.962 141.135 108.02 141.144C108.131 141.173 108.227 141.231 108.309 141.308C108.367 141.361 108.406 141.424 108.42 141.501C108.449 141.569 108.454 141.641 108.43 141.719C108.425 141.738 108.415 141.752 108.406 141.772C108.396 141.796 108.391 141.815 108.386 141.839C108.377 141.878 108.367 141.916 108.358 141.955C108.358 141.974 108.348 141.994 108.348 142.013C108.348 142.018 108.348 142.023 108.348 142.027C108.348 142.027 108.348 142.032 108.348 142.037C108.338 142.056 108.333 142.076 108.324 142.095C108.324 142.109 108.319 142.124 108.314 142.138C108.309 142.153 108.3 142.167 108.295 142.187C108.295 142.196 108.29 142.201 108.285 142.211C108.276 142.23 108.266 142.254 108.256 142.274C108.256 142.283 108.251 142.288 108.247 142.298C108.227 142.327 108.203 142.351 108.179 142.375C108.179 142.375 108.179 142.375 108.174 142.37C108.174 142.37 108.174 142.38 108.165 142.385C108.107 142.433 108.039 142.462 107.972 142.481C107.972 142.481 107.972 142.481 107.967 142.481L107.817 142.549L107.649 142.587H107.475C107.46 142.587 107.325 142.558 107.311 142.558C107.292 142.553 107.186 142.505 107.166 142.496C107.166 142.496 107.166 142.496 107.161 142.496C107.161 142.496 107.161 142.496 107.157 142.496C107.147 142.491 107.046 142.413 107.036 142.404C107.036 142.404 107.026 142.394 107.022 142.389C107.012 142.38 107.002 142.365 106.993 142.356L106.983 142.341Z" fill="#DE717C"/>
<path d="M108.256 142.264C108.483 142.1 108.806 141.868 108.256 142.264V142.264Z" fill="#DE717C"/>
<path d="M108.29 149.551C108.512 149.358 109.061 149.566 108.772 149.822C108.55 150.015 108 149.807 108.29 149.551Z" fill="#DE717C"/>
<path d="M122.079 159.001L122.123 158.9C122.152 158.851 122.195 158.813 122.238 158.779C122.248 158.769 122.263 158.76 122.272 158.755C122.205 158.654 122.2 158.528 122.267 158.417C122.282 158.398 122.296 158.383 122.311 158.364C122.325 158.335 122.34 158.301 122.349 158.282C122.374 158.238 122.412 158.2 122.456 158.161C122.465 158.142 122.47 158.118 122.48 158.099C122.509 158.06 122.542 158.026 122.571 157.988C122.629 157.93 122.697 157.891 122.774 157.862C122.827 157.833 122.88 157.819 122.938 157.809C122.996 157.79 123.054 157.785 123.111 157.79C123.169 157.785 123.227 157.79 123.28 157.804C123.357 157.814 123.435 157.838 123.502 157.881C123.618 157.944 123.719 158.016 123.825 158.099C123.873 158.137 123.922 158.176 123.96 158.219C124.013 158.287 124.076 158.359 124.105 158.441C124.148 158.571 124.168 158.654 124.144 158.793C124.129 158.871 124.095 158.943 124.047 159.006C123.951 159.131 123.878 159.194 123.743 159.281C123.69 159.315 123.632 159.344 123.574 159.368C123.473 159.431 123.357 159.479 123.242 159.488C123.218 159.488 123.189 159.488 123.164 159.488C123.073 159.508 122.986 159.522 122.894 159.532C122.706 159.546 122.489 159.546 122.335 159.431C122.282 159.392 122.224 159.349 122.171 159.305C122.094 159.238 122.05 159.098 122.079 159.001Z" fill="#DE717C"/>
</g>
<g style="mix-blend-mode:screen">
<path d="M218.765 79.9534C216.754 75.9284 214.468 72.0385 211.801 68.4093C211.266 67.6805 210.697 66.9711 210.171 66.2327C209.775 65.6825 209.38 65.1275 208.97 64.5869C208.015 63.3273 206.997 62.087 205.782 61.0687C204.769 60.2144 203.486 59.394 202.107 59.4857C200.573 59.587 199.146 60.6729 198.06 61.6768C195.398 64.1429 193.59 67.4054 191.709 70.4652C190.672 72.1543 189.635 73.8628 188.685 75.6147C191.921 68.8967 199.339 56.8748 202.338 56.9954C206.211 57.1498 218.963 75.9767 219.108 80.2478C219.108 80.3588 219.103 80.4843 219.084 80.6146C218.973 80.3926 218.867 80.1706 218.756 79.9486L218.765 79.9534Z" fill="#6ABCA9"/>
<path d="M181.763 78.3078C180.042 76.9275 178.166 75.7644 176.227 74.7171C174.592 73.8339 172.904 73.0472 171.269 72.1592C169.754 71.3388 168.225 70.5232 166.619 69.8909C165.11 69.2973 163.446 68.8051 161.806 68.9643C160.364 69.1043 159.192 69.8137 158.372 71.001C157.523 72.2268 157.084 73.7181 156.766 75.1563C156.438 76.6379 156.216 78.1485 155.965 79.6446C155.305 83.5634 154.948 87.5209 154.842 91.488C154.326 86.184 155.145 68.6603 159.501 67.2559C163.074 66.1024 180.886 75.7354 183.615 79.8666C183.017 79.3261 182.39 78.8048 181.763 78.3029V78.3078Z" fill="#6ABCA9"/>
<path d="M252.13 86.3915C251.836 83.6117 251.663 80.716 250.737 78.0616C250.317 76.8551 249.704 75.6196 248.643 74.8522C247.438 73.9787 245.88 73.8773 244.452 74.0607C242.759 74.2779 241.124 74.8474 239.552 75.4989C238.018 76.136 236.509 76.8502 235.009 77.5597C231.864 79.0558 228.787 80.7305 225.927 82.7188C226.009 82.5885 226.091 82.4727 226.183 82.381C228.802 79.8087 246.058 69.4952 249.849 72.6225C252.762 75.026 254.243 95.4454 252.174 99.8131C251.894 95.3441 252.608 90.8557 252.13 86.3915Z" fill="#6ABCA9"/>
<path d="M272.044 115.233C272.425 114.002 272.782 112.757 273.115 111.512C273.453 110.247 273.732 108.934 273.699 107.622C273.67 106.483 273.38 105.281 272.666 104.374C272.03 103.568 271.089 103.109 270.12 102.849C269.117 102.578 268.07 102.482 267.043 102.356C265.659 102.188 264.26 102.077 262.871 101.999C260.778 101.883 258.641 101.879 256.567 102.212C260.006 101.015 273.925 98.6644 275.705 101.787C277.176 104.359 272.445 120.083 269.821 122.028C269.749 122.081 269.662 122.129 269.565 122.177C270.38 119.856 271.33 117.583 272.054 115.233H272.044Z" fill="#6ABCA9"/>
<path d="M148.152 95.8845C146.7 95.759 145.239 95.7011 143.792 95.5418C142.123 95.3585 140.445 95.2233 138.767 95.2957C137.305 95.3585 135.743 95.5177 134.469 96.3044C133.505 96.9028 132.863 97.8246 132.588 98.9202C132.434 99.5427 132.386 100.185 132.376 100.826C132.367 101.69 132.391 102.554 132.458 103.418C132.593 105.209 132.883 106.989 133.264 108.741C133.394 109.349 133.539 109.953 133.688 110.556C131.942 104.649 130.437 96.7629 132.352 95.3295C134.026 94.0747 141.993 94.6635 148.167 95.8893C148.167 95.8893 148.167 95.8893 148.162 95.8893L148.152 95.8845Z" fill="#6ABCA9"/>
</g>
<g style="mix-blend-mode:screen">
<path d="M317.617 149.397C318.316 151.009 318.895 152.679 319.285 154.392C319.565 155.613 319.748 156.868 319.729 158.123C319.28 156.704 318.827 155.285 318.34 153.88C317.235 150.686 315.962 147.524 314.226 144.614C313.488 143.374 312.654 142.192 311.737 141.086C314.24 143.446 316.252 146.236 317.621 149.397H317.617Z" fill="#F79F95"/>
</g>
<path d="M315.079 164.788C315.156 164.667 315.238 164.546 315.33 164.44C315.562 164.16 315.865 163.832 316.227 163.74C316.357 163.707 316.541 163.818 316.545 163.962C316.55 164.266 316.372 164.561 316.198 164.797C316.189 164.812 316.179 164.821 316.169 164.831C316.111 164.913 316.049 164.99 315.981 165.063C315.962 165.087 315.938 165.106 315.919 165.125C315.875 165.174 315.832 165.217 315.783 165.261C315.755 165.289 315.726 165.309 315.692 165.338C315.61 165.41 315.538 165.483 315.451 165.545C315.32 165.637 315.176 165.724 315.021 165.758C314.872 165.791 314.655 165.651 314.693 165.478C314.756 165.222 314.911 164.985 315.079 164.788Z" fill="#712B39"/>
<path d="M315.571 162.326C315.62 162.302 315.668 162.278 315.716 162.254C316.193 162.051 316.738 161.964 317.235 162.157C317.616 162.307 317.886 162.616 317.91 163.031C317.935 163.431 317.78 163.832 317.602 164.184C317.409 164.575 317.139 164.937 316.849 165.26C316.801 165.314 316.685 165.231 316.729 165.178C316.946 164.927 317.11 164.638 317.255 164.343C317.423 164.001 317.578 163.634 317.611 163.253C317.64 162.963 317.587 162.635 317.312 162.476C316.912 162.244 316.415 162.336 316.01 162.49C315.755 162.587 315.513 162.722 315.282 162.876C315.205 162.929 315.132 162.983 315.06 163.04C315.219 162.794 315.388 162.558 315.562 162.321L315.571 162.326Z" fill="#B85062"/>
</g>
<defs>
<filter id="filter0_d_48_15597" x="0" y="0" width="405" height="274" filterUnits="userSpaceOnUse" color-interpolation-filters="sRGB">
<feFlood flood-opacity="0" result="BackgroundImageFix"/>
<feColorMatrix in="SourceAlpha" type="matrix" values="0 0 0 0 0 0 0 0 0 0 0 0 0 0 0 0 0 0 127 0" result="hardAlpha"/>
<feOffset dx="2" dy="2"/>
<feGaussianBlur stdDeviation="2.5"/>
<feComposite in2="hardAlpha" operator="out"/>
<feColorMatrix type="matrix" values="0 0 0 0 0 0 0 0 0 0 0 0 0 0 0 0 0 0 0.25 0"/>
<feBlend mode="normal" in2="BackgroundImageFix" result="effect1_dropShadow_48_15597"/>
<feBlend mode="normal" in="SourceGraphic" in2="effect1_dropShadow_48_15597" result="shape"/>
</filter>
<filter id="filter1_d_48_15597" x="27.0962" y="16.9945" width="333.463" height="234.096" filterUnits="userSpaceOnUse" color-interpolation-filters="sRGB">
<feFlood flood-opacity="0" result="BackgroundImageFix"/>
<feColorMatrix in="SourceAlpha" type="matrix" values="0 0 0 0 0 0 0 0 0 0 0 0 0 0 0 0 0 0 127 0" result="hardAlpha"/>
<feOffset/>
<feGaussianBlur stdDeviation="20"/>
<feColorMatrix type="matrix" values="0 0 0 0 1 0 0 0 0 1 0 0 0 0 1 0 0 0 1 0"/>
<feBlend mode="normal" in2="BackgroundImageFix" result="effect1_dropShadow_48_15597"/>
<feBlend mode="normal" in="SourceGraphic" in2="effect1_dropShadow_48_15597" result="shape"/>
</filter>
</defs>
</svg>
