<svg width="225" height="225" viewBox="0 0 225 225" fill="none" xmlns="http://www.w3.org/2000/svg">
<g filter="url(#filter0_d_57_7910)">
<path d="M132.295 105.213C135.42 102.588 138.645 99.7875 141.945 96.8625C162.695 78.3875 177.845 61.5625 175.795 59.2625C173.745 56.9625 155.27 70.0625 134.52 88.5375C131.22 91.4625 128.07 94.3625 125.12 97.1625L132.295 105.213Z" fill="#FF383C"/>
<path d="M129.945 107.188C130.42 106.788 130.895 106.413 131.37 106.013L124.245 98.0125C123.795 98.4375 123.345 98.8625 122.92 99.2875L129.945 107.188Z" fill="#FF383C"/>
<path d="M140.345 126.963C138.395 125.188 135.945 124.163 133.72 122.763C131.495 121.388 129.37 119.438 128.87 116.863C128.445 114.713 129.245 112.538 130.22 110.538L125.695 113.213C125.67 113.638 125.62 114.063 125.52 114.488C124.32 120.288 119.195 124.438 110.695 126.513C104.895 127.938 96.3451 128.663 95.9701 128.688H95.7201C94.4451 128.688 93.2951 127.838 92.9701 126.563C92.6201 125.238 93.2451 123.838 94.4951 123.238C95.3951 122.813 96.3951 122.288 96.7701 122.063C96.8451 122.013 96.8951 121.963 96.9701 121.888C98.1951 120.963 99.2701 119.538 100.12 117.738V117.713C100.745 116.413 101.27 114.963 101.795 113.563C101.995 113.013 102.195 112.463 102.395 111.938C103.27 109.663 104.42 107.088 106.82 105.088C108.595 103.513 111.32 102.588 114.12 102.588C114.82 102.588 115.545 102.638 116.22 102.763L119.745 98.2875C119.945 98.0125 120.22 97.7875 120.495 97.6125C120.62 97.4375 120.745 97.2875 120.895 97.1375C121.345 96.7125 121.795 96.2875 122.245 95.8625C122.395 95.7125 122.57 95.5875 122.72 95.4875C122.845 95.3125 122.97 95.1625 123.12 95.0125C126.17 92.1375 129.345 89.2125 132.595 86.3375C134.42 84.7125 136.27 83.1125 138.07 81.5375C137.745 80.4375 137.295 79.3125 136.745 78.1625C127.745 59.8625 97.7951 59.0625 80.9451 63.8125C70.5201 66.8125 60.8451 73.3125 55.5951 82.9875C40.9951 109.863 63.8451 143.338 86.8701 156.888C102.27 165.938 126.645 174.088 139.97 157.213C144.82 151.063 146.645 142.638 144.745 135.063C144.02 132.038 142.645 129.063 140.345 126.963ZM105.82 72.2375C111.395 72.2375 115.92 76.7625 115.92 82.3375C115.92 87.9125 111.395 92.4375 105.82 92.4375C100.245 92.4375 95.7451 87.9125 95.7451 82.3375C95.7451 76.7625 100.245 72.2375 105.82 72.2375ZM63.5701 92.4375C63.5701 86.8625 68.0951 82.3375 73.6701 82.3375C79.2451 82.3375 83.7701 86.8625 83.7701 92.4375C83.7701 98.0125 79.2451 102.538 73.6701 102.538C68.0701 102.513 63.5701 98.0125 63.5701 92.4375ZM80.6201 135.488C75.0451 135.488 70.5201 130.963 70.5201 125.388C70.5201 119.813 75.0451 115.288 80.6201 115.288C86.1951 115.288 90.7201 119.813 90.7201 125.388C90.6951 130.963 86.1951 135.488 80.6201 135.488ZM106.145 155.663C100.57 155.663 96.0451 151.138 96.0451 145.563C96.0451 139.988 100.57 135.463 106.145 135.463C111.72 135.463 116.245 139.988 116.245 145.563C116.245 151.138 111.72 155.663 106.145 155.663Z" fill="#FF383C"/>
<path d="M122.72 113.938C122.87 113.188 122.895 112.413 122.795 111.638L129.02 107.938L122.045 100.088L117.37 106.013C113.82 104.763 110.295 105.863 108.72 107.288C106.92 108.763 105.97 110.738 105.095 112.988C104.345 114.913 103.645 117.038 102.72 118.963C101.745 121.038 100.42 122.888 98.695 124.188C98.62 124.438 95.72 125.813 95.72 125.813C95.72 125.813 104.345 125.088 109.995 123.713C115.495 122.413 121.545 119.588 122.72 113.938Z" fill="#FF383C"/>
</g>
<defs>
<filter id="filter0_d_57_7910" x="40.9998" y="53.0005" width="144.981" height="128.019" filterUnits="userSpaceOnUse" color-interpolation-filters="sRGB">
<feFlood flood-opacity="0" result="BackgroundImageFix"/>
<feColorMatrix in="SourceAlpha" type="matrix" values="0 0 0 0 0 0 0 0 0 0 0 0 0 0 0 0 0 0 127 0" result="hardAlpha"/>
<feOffset dy="4"/>
<feGaussianBlur stdDeviation="5"/>
<feComposite in2="hardAlpha" operator="out"/>
<feColorMatrix type="matrix" values="0 0 0 0 1 0 0 0 0 1 0 0 0 0 1 0 0 0 1 0"/>
<feBlend mode="normal" in2="BackgroundImageFix" result="effect1_dropShadow_57_7910"/>
<feBlend mode="normal" in="SourceGraphic" in2="effect1_dropShadow_57_7910" result="shape"/>
</filter>
</defs>
</svg>
