<svg width="404" height="244" viewBox="0 0 404 244" fill="none" xmlns="http://www.w3.org/2000/svg">
<g filter="url(#filter0_d_0_1424)">
<path d="M376.59 6.1681H21.2415C12.9165 6.1681 6.16785 13.9128 6.16785 23.4663V214.16C6.16785 223.713 12.9165 231.458 21.2415 231.458H376.59C384.915 231.458 391.664 223.713 391.664 214.16V23.4663C391.664 13.9128 384.915 6.1681 376.59 6.1681Z" fill="#D8EFEE"/>
<path d="M21.2419 8.67132H376.591C383.221 8.67163 389.161 14.9612 389.161 23.4667V214.159C389.161 222.665 383.221 228.955 376.591 228.955H21.2419C14.612 228.955 8.67107 222.665 8.67107 214.159V23.4667C8.67107 14.961 14.612 8.67132 21.2419 8.67132Z" stroke="white" stroke-width="5" stroke-miterlimit="10"/>
</g>
<defs>
<filter id="filter0_d_0_1424" x="-8.78511e-05" y="0.000156604" width="404" height="243.794" filterUnits="userSpaceOnUse" color-interpolation-filters="sRGB">
<feFlood flood-opacity="0" result="BackgroundImageFix"/>
<feColorMatrix in="SourceAlpha" type="matrix" values="0 0 0 0 0 0 0 0 0 0 0 0 0 0 0 0 0 0 127 0" result="hardAlpha"/>
<feOffset dx="3.08" dy="3.08"/>
<feGaussianBlur stdDeviation="4.62"/>
<feColorMatrix type="matrix" values="0 0 0 0 0 0 0 0 0 0 0 0 0 0 0 0 0 0 0.4 0"/>
<feBlend mode="normal" in2="BackgroundImageFix" result="effect1_dropShadow_0_1424"/>
<feBlend mode="normal" in="SourceGraphic" in2="effect1_dropShadow_0_1424" result="shape"/>
</filter>
</defs>
</svg>
