<svg width="22" height="21" viewBox="0 0 22 21" fill="none" xmlns="http://www.w3.org/2000/svg">
<path d="M21.45 1.36996V13.24H0.449951V1.36996C0.449951 0.869961 0.859951 0.459961 1.35995 0.459961H20.53C21.03 0.459961 21.44 0.869961 21.44 1.36996H21.45Z" fill="#9ED9F1"/>
<path d="M21.4501 1.36996V12.33H13.6901C7.15007 12.33 1.82007 7.02996 1.82007 0.459961H20.5401C21.0401 0.459961 21.4501 0.869961 21.4501 1.36996Z" fill="#AFE3F8"/>
<path d="M21.45 13.24V15.07C21.45 15.57 21.04 15.98 20.54 15.98H1.36996C0.869961 15.98 0.459961 15.57 0.459961 15.07V13.24H21.46H21.45Z" fill="#D7D5E3"/>
<path d="M21.4501 13.24V15.07H3.65007C2.65007 15.07 1.82007 14.25 1.82007 13.24H21.4501Z" fill="#EBE9F0"/>
<path d="M13.7 15.98H8.21997V20.55H13.7V15.98Z" fill="#C3C1D6"/>
<path d="M13.6901 16.8899V20.5399H9.12012V18.7099C9.12012 17.6999 9.94012 16.8799 10.9501 16.8799H13.6901V16.8899Z" fill="#D7D5E3"/>
<path opacity="0.2" d="M21.4499 1.37012V13.2401H16.8899L21.4499 1.37012Z" fill="#EBE9F0"/>
<path opacity="0.2" d="M17.8 0.459961L12.32 13.24H8.21997L13.69 0.459961H17.8Z" fill="#EBE9F0"/>
<path opacity="0.2" d="M10.0401 0.459961L4.56007 13.24H1.82007L7.30007 0.459961H10.0401Z" fill="#EBE9F0"/>
<path d="M20.54 0H1.37C0.61 0 0 0.609999 0 1.37V15.07C0 15.83 0.61 16.44 1.37 16.44H7.76V20.09H6.85C6.25 20.09 6.25 21 6.85 21H15.07C15.67 21 15.67 20.09 15.07 20.09H14.16V16.44H20.55C21.31 16.44 21.92 15.83 21.92 15.07V1.37C21.92 0.609999 21.31 0 20.55 0H20.54ZM0.91 1.37C0.91 1.12 1.11 0.91 1.37 0.91H20.54C20.79 0.91 21 1.11 21 1.37V12.78H0.91V1.37ZM13.24 20.09H8.67V16.44H13.24V20.09ZM21 15.07C21 15.32 20.8 15.53 20.54 15.53H1.37C1.12 15.53 0.91 15.33 0.91 15.07V13.7H21V15.07Z" fill="black"/>
<path d="M10.95 15.0699C11.55 15.0699 11.55 14.1599 10.95 14.1599C10.35 14.1599 10.35 15.0699 10.95 15.0699Z" fill="black"/>
</svg>
