<svg width="22" height="22" viewBox="0 0 22 22" fill="none" xmlns="http://www.w3.org/2000/svg">
<path d="M12.3599 11.46V18.7899C12.3599 19.2899 11.9499 19.71 11.4399 19.71H5.47994L2.72994 21.5399V19.71H1.35994C0.85994 19.71 0.439941 19.2999 0.439941 18.7899V9.61995C0.439941 9.11995 0.84994 8.69995 1.35994 8.69995H9.60994V10.53C9.60994 11.03 10.0199 11.45 10.5299 11.45H12.3599V11.46Z" fill="#6FA9E4"/>
<path d="M12.3601 12.3699V18.7899C5.87007 18.7899 1.82007 13.97 1.82007 8.70996H8.69007V11.46C8.69007 11.96 9.10007 12.38 9.61007 12.38H12.3601V12.3699Z" fill="#81BAF2"/>
<path d="M21.5301 1.36993C21.5301 11.1899 21.6501 10.8099 21.2601 11.1799C20.9201 11.5299 20.6201 11.4499 19.2401 11.4499V13.2799L16.4901 11.4499H10.5301C10.0301 11.4499 9.61011 11.0399 9.61011 10.5299V1.35994C9.61011 0.85994 10.0201 0.439941 10.5301 0.439941H20.6101C21.1101 0.439941 21.5301 0.84994 21.5301 1.35994V1.36993Z" fill="#D7D5E3"/>
<path d="M21.53 1.36995V10.5399C15.04 10.5399 10.99 5.70996 10.99 0.459961H20.61C21.11 0.459961 21.53 0.869959 21.53 1.37996V1.36995Z" fill="#EBE9F0"/>
<path d="M20.61 0H10.53C9.77 0 9.16 0.619995 9.16 1.37V8.24001H1.37C0.610003 8.24001 0 8.86 0 9.61V18.78C0 19.55 0.620003 20.15 1.37 20.15H2.29V21.52C2.29 21.77 2.5 21.98 2.75 21.98C2.95 21.98 2.78 22.05 5.64 20.15H11.46C12.22 20.15 12.83 19.53 12.83 18.78V11.91H16.36C19.2 13.81 19.05 13.74 19.25 13.74C19.5 13.74 19.71 13.54 19.71 13.28V11.91H20.63C21.39 11.91 22 11.29 22 10.54V1.37C22 0.609995 21.38 0 20.63 0H20.61ZM11.9 18.79C11.9 19.04 11.69 19.25 11.44 19.25H5.48C5.29 19.25 5.38 19.22 3.19 20.69V19.71C3.19 18.8 1.46 19.55 1.03 19.11C0.840003 18.92 0.900002 19.6 0.900002 9.63C0.900002 9.38 1.11 9.17 1.36 9.17H9.15V10.54C9.15 11.3 9.77 11.91 10.52 11.91H11.89V18.78L11.9 18.79ZM21.07 10.54C21.07 10.79 20.86 11 20.61 11H19.24C18.99 11 18.78 11.2 18.78 11.46V12.44C16.58 10.98 16.68 11 16.49 11H10.53C10.28 11 10.07 10.79 10.07 10.54V1.37C10.07 1.12 10.28 0.910004 10.53 0.910004H20.61C20.86 0.910004 21.07 1.12 21.07 1.37V10.54Z" fill="black"/>
<path d="M6.8299 12.2101C6.6799 11.8201 6.1199 11.8101 5.9699 12.2101L4.5999 15.8801C4.3899 16.4501 5.24991 16.7701 5.45991 16.2001L5.68991 15.5801H7.11991L7.3499 16.2001C7.5599 16.7701 8.41991 16.4501 8.20991 15.8801L6.8399 12.2101H6.8299ZM6.02991 14.6701L6.3999 13.6801L6.7699 14.6701H6.02991Z" fill="black"/>
<path d="M17.4 3.66993H16.03V3.20994C16.03 2.59994 15.11 2.59994 15.11 3.20994V3.66993H13.74C13.13 3.66993 13.13 4.58993 13.74 4.58993H16.44C16.32 5.20993 15.97 5.73993 15.57 6.17993C15.44 6.02993 15.31 5.87994 15.19 5.70994C14.85 5.20994 14.09 5.72993 14.44 6.22993C14.58 6.43993 14.74 6.61994 14.9 6.79994C14.42 7.17994 14.01 7.38993 14 7.38993C13.46 7.65993 13.87 8.47994 14.41 8.20994C14.46 8.17994 14.98 7.90993 15.58 7.42993C16.18 7.91993 16.72 8.18994 16.75 8.20994C17.29 8.47994 17.7 7.65993 17.16 7.38993C17.16 7.38993 16.74 7.17994 16.26 6.79994C16.79 6.21994 17.26 5.47993 17.38 4.58993C18.05 4.58993 18.01 3.66993 17.41 3.66993H17.4Z" fill="black"/>
</svg>
