<svg width="20" height="20" viewBox="0 0 20 20" fill="none" xmlns="http://www.w3.org/2000/svg">
<path d="M13.9475 9.37864L9.36548 13.9607L14.987 19.5822L19.569 15.0001L13.9475 9.37864Z" fill="#D7D5E3"/>
<path d="M4.99343 0.411598L0.411377 4.99365L6.03288 10.6152L10.6149 6.0331L4.99343 0.411598Z" fill="#D7D5E3"/>
<path d="M4.9962 0.41908L1.24854 4.16675L6.87003 9.78825L10.6177 6.04058L4.9962 0.41908Z" fill="#EBE9F0"/>
<path d="M18.7401 14.16C16.6701 16.23 13.3101 16.23 11.2401 14.16L10.8201 13.74L14.5701 9.98999L18.7401 14.16Z" fill="#EBE9F0"/>
<path d="M16.24 7.08L4.58 18.74C4.58 16.91 3.09 15.41 1.25 15.41L12.91 3.75L16.24 7.08Z" fill="#FDCA66"/>
<path d="M15.62 6.46L6.46999 15.61C6.01999 16.06 5.32998 16.08 4.84998 15.73C4.43998 15.44 4.13998 14.39 2.72998 13.93L12.91 3.75L15.62 6.46Z" fill="#FFDC75"/>
<path d="M19.4301 2.92001C19.4301 4.10001 18.7401 4.59001 17.7001 5.63001L14.3701 2.30001L15.4101 1.26001C16.8901 -0.219993 19.4301 0.830008 19.4301 2.93001V2.92001Z" fill="#D95769"/>
<path d="M19.35 2.29008C18.96 3.73008 17.53 4.20008 16.66 3.33008L14.99 1.66008L15.36 1.29008C16.68 -0.0299154 18.87 0.540085 19.35 2.28008V2.29008Z" fill="#F06774"/>
<path d="M4.58011 18.7499L2.6601 19.1299C2.3201 18.3199 1.67011 17.6699 0.860107 17.3299C1.05011 16.3699 0.960105 16.7999 1.2401 15.4099C3.0801 15.4099 4.57011 16.8999 4.57011 18.7399L4.58011 18.7499Z" fill="#DD8561"/>
<path d="M4.48 17.9299C1.91 18.4399 2.72001 17.3799 1.01001 16.5699L1.24001 15.4099C2.80001 15.4099 4.11001 16.4799 4.47001 17.9299H4.48Z" fill="#F09975"/>
<path d="M2.65991 19.1301L0.409912 19.5801C0.629912 18.4901 0.529917 18.9801 0.859917 17.3301C1.68992 17.6701 2.32991 18.3501 2.65991 19.1301Z" fill="#747575"/>
<path d="M2.22009 18.3801L0.590088 18.7101L0.860092 17.3301C1.40009 17.5501 1.87009 17.9201 2.22009 18.3801Z" fill="#7C7D7D"/>
<path d="M14.3717 2.29043L12.915 3.74707L16.2455 7.07754L17.7022 5.62091L14.3717 2.29043Z" fill="#D7D5E3"/>
<path d="M17.0801 5.00004C16.3901 5.69004 15.2701 5.69004 14.5801 5.00004L13.1201 3.54004L14.3701 2.29004L17.0801 5.00004Z" fill="#EBE9F0"/>
<path d="M4.85004 15.7301L3.88004 16.7001C3.71004 16.4801 3.51004 16.2801 3.29004 16.1101L4.33004 15.0701C4.53004 15.3501 4.59004 15.5401 4.86004 15.7201L4.85004 15.7301Z" fill="#FDB855"/>
<path d="M14.8701 5.71012L4.85007 15.7301C4.59007 15.5401 4.53007 15.3601 4.32007 15.0801L14.2801 5.12012L14.8701 5.71012Z" fill="#FDCA66"/>
<path d="M19.87 14.7L14.54 9.37C15.86 8.05 16.94 6.97 19.04 4.87C20.13 3.78 20.13 2.03 19.04 0.95C17.95 -0.13 16.2 -0.13 15.12 0.95L10.62 5.45L5.29 0.12C5.13 -0.04 4.85999 -0.04 4.69999 0.12L0.12 4.7C-0.04 4.86 -0.04 5.13 0.12 5.29L5.44999 10.62C0.669994 15.4 0.859997 15.25 0.889997 15.2C0.839997 15.29 0.919999 14.95 0.00999939 19.49C-0.0400006 19.75 0.159995 19.99 0.419995 19.99C0.459995 19.99 4.69 19.18 4.83 19.07C4.91 19.01 6.01999 17.9 9.37999 14.54C15.2 20.36 14.76 19.99 15 19.99C15.24 19.99 14.89 20.27 19.88 15.29C20.04 15.13 20.04 14.86 19.88 14.7H19.87ZM4.87999 17.85C4.74999 17.31 4.5 16.82 4.17 16.41L14.57 6.01L15.65 7.09L4.87999 17.86V17.85ZM12.91 4.34L13.99 5.42L3.58999 15.82C3.16999 15.49 2.68 15.24 2.15 15.11L12.92 4.34H12.91ZM1.15999 17.96C1.50999 18.18 1.8 18.48 2.03 18.83L0.94 19.05L1.15999 17.96ZM2.9 18.66C2.55 18 1.99999 17.45 1.33999 17.1L1.58999 15.85C2.92999 16 3.99 17.07 4.15 18.41L2.9 18.66ZM15.7 1.54C16.92 0.32 19.01 1.19 19.01 2.91C19.01 3.88 18.42 4.3 17.69 5.03L14.95 2.29L15.7 1.54ZM14.37 2.88L17.11 5.62L16.24 6.49L13.5 3.75L14.37 2.88ZM0.999997 5L4.99 1.01L5.65 1.67L5.11 2.21C4.72 2.6 5.30999 3.19 5.69999 2.8L6.24 2.26L7.32 3.34L5.94999 4.71C5.55999 5.1 6.15 5.69 6.54 5.3L7.90999 3.93L8.78 4.8L8.24 5.34C7.85 5.73 8.44 6.32 8.83 5.93L9.37 5.39L10.03 6.05L6.04 10.04L1.01 5.01L0.999997 5ZM14.99 18.99L9.96 13.96L13.95 9.97L14.61 10.63L13.24 12C12.98 12.26 13.17 12.71 13.53 12.71C13.77 12.71 13.71 12.71 15.2 11.22L16.07 12.09L15.53 12.63C15.27 12.89 15.46 13.34 15.82 13.34C16.05 13.34 16.11 13.23 16.65 12.68L17.73 13.76L16.36 15.13C16.1 15.39 16.29 15.84 16.65 15.84C16.89 15.84 16.83 15.84 18.32 14.35L18.98 15.01L14.99 19V18.99Z" fill="black"/>
</svg>
