<svg width="20" height="21" viewBox="0 0 20 21" fill="none" xmlns="http://www.w3.org/2000/svg">
<path d="M12.2894 9.73948C11.7327 9.83058 11.2165 10.1545 10.8824 10.6606C10.2548 11.6425 10.9634 14.3351 10.9634 14.3351C10.9634 15.4081 11.7125 16.0255 12.5324 16.0255H13.16C14.9213 16.0255 15.3869 18.465 13.7572 19.1129C7.60275 21.603 0.921928 17.2503 0.456295 10.8631C-0.282644 0.963311 12.7348 -3.23751 15.9437 4.26323C15.9437 4.35433 12.168 9.6585 12.2894 9.73948Z" fill="#D7D5E3"/>
<path d="M12.2894 9.73925C11.7327 9.83035 11.2164 10.1543 10.8824 10.6604C10.2548 11.6423 10.9634 14.3348 10.9634 14.3348C10.9634 15.4078 11.7124 16.0253 12.5323 16.0253H13.1599C14.2734 16.0253 15.0225 17.1185 14.6884 18.1206C4.94049 21.1776 -2.29707 8.78773 5.18342 1.783C9.13118 -0.565412 14.1519 0.0722991 15.9436 4.26299C15.9436 4.3541 12.1679 9.65827 12.2894 9.73925Z" fill="#EBE9F0"/>
<path d="M11.8137 3.79751C11.8137 4.74902 11.0343 5.48796 10.1232 5.48796C8.76684 5.48796 7.96716 3.95947 8.73647 2.83588C9.66773 1.48959 11.8036 2.13743 11.8036 3.79751H11.8137Z" fill="#6FA9E4"/>
<path d="M11.0848 5.18431C9.5563 6.24717 7.67353 4.38463 8.73639 2.8359C10.275 1.76292 12.1375 3.64569 11.0848 5.18431Z" fill="#81BAF2"/>
<path d="M6.32716 7.16837C6.32716 8.11988 5.54773 8.85882 4.63671 8.85882C3.2803 8.85882 2.48062 7.33032 3.24993 6.20673C4.18119 4.86045 6.31703 5.50829 6.31703 7.16837H6.32716Z" fill="#9BCA6C"/>
<path d="M5.60864 8.55516C4.08015 9.61802 2.19737 7.75549 3.26023 6.20675C4.79884 5.13377 6.66137 7.01655 5.60864 8.55516Z" fill="#B3DE8A"/>
<path d="M5.06201 12.6547C5.06201 13.3835 4.46479 13.92 3.7967 13.92C2.79458 13.92 2.20748 12.8167 2.7136 11.9967C3.36144 10.9136 5.06201 11.3691 5.06201 12.6547Z" fill="#FDCA66"/>
<path d="M4.45446 13.7276C3.34099 14.416 2.02507 13.1102 2.71339 11.9866C3.83699 11.2881 5.14278 12.6142 4.45446 13.7276Z" fill="#FFDC75"/>
<path d="M8.85793 16.4506C8.85793 17.1794 8.26071 17.7159 7.59262 17.7159C6.5905 17.7159 6.0034 16.6126 6.50952 15.7927C7.15736 14.7095 8.85793 15.1651 8.85793 16.4506Z" fill="#D95769"/>
<path d="M8.25038 17.5235C7.13691 18.2119 5.82099 16.9061 6.50931 15.7825C7.63291 15.084 8.9387 16.4101 8.25038 17.5235Z" fill="#F06774"/>
<path d="M19.5067 1.9045C14.405 12.1181 14.7998 11.3994 14.7087 11.3488C14.4556 10.215 13.3725 9.52671 12.2894 9.73928C12.2084 9.68867 12.1578 9.82026 12.7753 8.90924C18.535 0.467118 18.1807 0.740424 18.7779 0.740424C19.3751 0.740424 19.7699 1.36801 19.5067 1.91462V1.9045Z" fill="#EBB794"/>
<path d="M14.7895 9.83049C14.6377 10.124 14.2328 10.1443 14.0506 9.86085C13.7267 9.34461 13.4129 9.04094 12.7751 8.89922C17.5226 1.92485 13.3623 8.03881 18.1097 1.08469C18.3526 0.730404 18.8486 0.608935 19.2333 0.872119C19.294 0.872119 14.7693 9.87098 14.7895 9.83049Z" fill="#F4CAAD"/>
<path d="M14.4252 12.9582C13.7875 13.9401 10.9633 14.345 10.9633 14.345C10.7305 13.4846 10.3661 11.4601 10.8823 10.6706C11.2164 10.1644 11.7326 9.84051 12.2893 9.74941C14.0911 9.40525 15.4172 11.4297 14.4252 12.9684V12.9582Z" fill="#D95769"/>
<path d="M14.0001 12.5331C13.4939 13.3126 11.601 13.7276 10.852 13.8693C10.6799 13.0494 10.4066 11.3893 10.8722 10.6605C11.5099 9.6786 12.8259 9.41542 13.7875 10.0329C14.2329 10.3264 14.6175 11.5513 13.9899 12.5331H14.0001Z" fill="#F06774"/>
<path d="M12.2286 3.79757C12.2286 2.63349 11.2872 1.6921 10.1231 1.6921C8.95904 1.6921 8.01765 2.63349 8.01765 3.79757C8.01765 4.96165 8.95904 5.90304 10.1231 5.90304C11.2872 5.90304 12.2286 4.96165 12.2286 3.79757ZM10.1231 5.06288C9.42467 5.06288 8.85781 4.49602 8.85781 3.79757C8.85781 3.09912 9.42467 2.53227 10.1231 2.53227C10.8216 2.53227 11.3884 3.09912 11.3884 3.79757C11.3884 4.49602 10.8216 5.06288 10.1231 5.06288Z" fill="black"/>
<path d="M4.64695 9.27365C5.81103 9.27365 6.75242 8.33226 6.75242 7.16818C6.75242 6.0041 5.81103 5.06271 4.64695 5.06271C3.48287 5.06271 2.54149 6.0041 2.54149 7.16818C2.54149 8.33226 3.48287 9.27365 4.64695 9.27365ZM4.64695 5.90287C5.3454 5.90287 5.91226 6.46973 5.91226 7.16818C5.91226 7.86663 5.3454 8.43349 4.64695 8.43349C3.9485 8.43349 3.38164 7.86663 3.38164 7.16818C3.38164 6.46973 3.9485 5.90287 4.64695 5.90287Z" fill="black"/>
<path d="M3.79649 10.9642C2.86523 10.9642 2.10604 11.7234 2.10604 12.6546C2.10604 13.5859 2.86523 14.3451 3.79649 14.3451C4.72776 14.3451 5.48694 13.5859 5.48694 12.6546C5.48694 11.7234 4.72776 10.9642 3.79649 10.9642ZM3.79649 13.4948C3.33086 13.4948 2.95633 13.1203 2.95633 12.6546C2.95633 12.189 3.33086 11.8145 3.79649 11.8145C4.26212 11.8145 4.63666 12.189 4.63666 12.6546C4.63666 13.1203 4.26212 13.4948 3.79649 13.4948Z" fill="black"/>
<path d="M7.59241 14.7601C6.66115 14.7601 5.90196 15.5193 5.90196 16.4505C5.90196 17.3818 6.66115 18.141 7.59241 18.141C8.52368 18.141 9.28286 17.3818 9.28286 16.4505C9.28286 15.5193 8.52368 14.7601 7.59241 14.7601ZM7.59241 17.2907C7.12678 17.2907 6.75225 16.9162 6.75225 16.4505C6.75225 15.9849 7.12678 15.6104 7.59241 15.6104C8.05804 15.6104 8.43258 15.9849 8.43258 16.4505C8.43258 16.9162 8.05804 17.2907 7.59241 17.2907Z" fill="black"/>
<path d="M19.456 0.517813C18.8993 0.143282 18.13 0.295113 17.7555 0.851848L15.9942 3.43308C11.9452 -3.71337 -0.707881 1.03406 0.031058 10.8933C0.516936 17.483 7.45082 22.1191 13.9089 19.5075C15.9436 18.6876 15.3868 15.6003 13.1498 15.6003H12.5222C11.9755 15.6003 11.5099 15.2055 11.3986 14.6892C13.5142 14.2945 15.3868 13.596 15.154 11.5209C22.179 -2.52905 19.0107 3.81773 19.8711 2.09691C20.1444 1.54018 19.9723 0.861977 19.456 0.517813ZM12.5323 16.4506H13.1599C14.4556 16.4506 14.7997 18.2422 13.6053 18.7281C7.73425 21.0968 1.32673 16.9263 0.88134 10.8326C0.182891 1.51993 12.259 -2.53917 15.4577 4.22263L11.9351 9.38508C11.3783 9.54704 10.8722 9.90133 10.528 10.4277C9.77898 11.5817 10.5382 14.3147 10.5382 14.4564C10.5382 15.5497 11.4289 16.4404 12.5222 16.4404L12.5323 16.4506ZM14.0709 12.7255C13.7267 13.2519 12.3096 13.6669 11.2872 13.8592C11.0645 12.8571 10.9026 11.4197 11.2366 10.8933C11.7225 10.1443 12.7752 9.88108 13.5648 10.3973C14.3442 10.9034 14.5669 11.9461 14.0608 12.7255H14.0709ZM19.122 1.72238L14.7693 10.4277C14.3847 9.84059 13.7571 9.41545 13.008 9.3041L18.4539 1.31749C18.7272 0.91259 19.3447 1.277 19.122 1.71226V1.72238Z" fill="black"/>
</svg>
