<svg width="22" height="21" viewBox="0 0 22 21" fill="none" xmlns="http://www.w3.org/2000/svg">
<path d="M9.18994 2.18994C9.18994 7.79994 9.26994 7.75994 8.95994 8.29994C8.65994 8.82994 8.08994 9.18994 7.43994 9.18994H2.18994C1.21994 9.18994 0.439941 8.40994 0.439941 7.43994V2.18994C0.439941 1.21994 1.22994 0.439941 2.18994 0.439941H7.43994C8.40994 0.439941 9.18994 1.21994 9.18994 2.18994Z" fill="#6FA9E4"/>
<path d="M9.19001 2.18994C9.19001 8.49994 9.30001 7.99994 8.78001 8.31994C4.84001 8.31994 1.76001 5.14994 1.76001 1.31994C1.76001 1.06994 1.82001 0.819941 1.91001 0.599941L2.17001 0.439941H7.44001C8.41001 0.439941 9.19001 1.21994 9.19001 2.18994Z" fill="#81BAF2"/>
<path d="M20.5701 2.18994C20.5701 7.79994 20.6501 7.75994 20.3401 8.29994C20.0401 8.82994 19.4701 9.18994 18.8201 9.18994H13.5701C12.6001 9.18994 11.8201 8.40994 11.8201 7.43994V2.18994C11.8201 1.21994 12.6101 0.439941 13.5701 0.439941H18.8201C19.7901 0.439941 20.5701 1.21994 20.5701 2.18994Z" fill="#FDCA66"/>
<path d="M20.5699 2.18994C20.5699 8.49994 20.6799 7.99994 20.1599 8.31994C16.2199 8.31994 13.1399 5.14994 13.1399 1.31994C13.1399 1.06994 13.1999 0.819941 13.2899 0.599941L13.5499 0.439941H18.8199C19.7899 0.439941 20.5699 1.21994 20.5699 2.18994Z" fill="#FFDC75"/>
<path d="M9.18994 13.5601C9.18994 19.1701 9.26994 19.1301 8.95994 19.6701C8.65994 20.2001 8.08994 20.5601 7.43994 20.5601H2.18994C1.21994 20.5601 0.439941 19.7801 0.439941 18.8101V13.5601C0.439941 12.5901 1.22994 11.8101 2.18994 11.8101H7.43994C8.40994 11.8101 9.18994 12.5901 9.18994 13.5601Z" fill="#D95769"/>
<path d="M9.19001 13.5601C9.19001 19.8701 9.30001 19.3701 8.78001 19.6901C4.84001 19.6901 1.76001 16.5201 1.76001 12.6901C1.76001 12.4401 1.82001 12.1901 1.91001 11.9701L2.17001 11.8101H7.44001C8.41001 11.8101 9.19001 12.5901 9.19001 13.5601Z" fill="#F06774"/>
<path d="M20.5701 13.5601C20.5701 19.1701 20.6501 19.1301 20.3401 19.6701C20.0401 20.2001 19.4701 20.5601 18.8201 20.5601H13.5701C12.6001 20.5601 11.8201 19.7801 11.8201 18.8101V13.5601C11.8201 12.5901 12.6101 11.8101 13.5701 11.8101H18.8201C19.7901 11.8101 20.5701 12.5901 20.5701 13.5601Z" fill="#82B54A"/>
<path d="M20.5699 13.5601C20.5699 19.8701 20.6799 19.3701 20.1599 19.6901C16.2199 19.6901 13.1399 16.5201 13.1399 12.6901C13.1399 12.4401 13.1999 12.1901 13.2899 11.9701L13.5499 11.8101H18.8199C19.7899 11.8101 20.5699 12.5901 20.5699 13.5601Z" fill="#9BCA6C"/>
<path d="M6.99994 3.93994H5.68994V2.62994C5.68994 2.38994 5.48994 2.18994 5.24994 2.18994H4.37994C4.13994 2.18994 3.93994 2.38994 3.93994 2.62994V3.93994H2.62994C2.38994 3.93994 2.18994 4.13994 2.18994 4.37994V5.24994C2.18994 5.48994 2.38994 5.68994 2.62994 5.68994H3.93994V6.99994C3.93994 7.23994 4.13994 7.43994 4.37994 7.43994H5.24994C5.48994 7.43994 5.68994 7.23994 5.68994 6.99994V5.68994H6.99994C7.23994 5.68994 7.43994 5.48994 7.43994 5.24994V4.37994C7.43994 4.13994 7.23994 3.93994 6.99994 3.93994Z" fill="#EBE9F0"/>
<path d="M6.97995 17.1201L6.04995 16.1901L6.97995 15.2601C7.14995 15.0901 7.14995 14.8101 6.97995 14.6401L6.35995 14.0201C6.18995 13.8501 5.90995 13.8501 5.73995 14.0201L4.80995 14.9501L3.87995 14.0201C3.70995 13.8501 3.42995 13.8501 3.25995 14.0201L2.63995 14.6401C2.46995 14.8101 2.46995 15.0901 2.63995 15.2601L3.56995 16.1901L2.63995 17.1201C2.46995 17.2901 2.46995 17.5701 2.63995 17.7401L3.25995 18.3601C3.42995 18.5301 3.70995 18.5301 3.87995 18.3601L4.80995 17.4301L5.73995 18.3601C5.90995 18.5301 6.18995 18.5301 6.35995 18.3601L6.97995 17.7401C7.14995 17.5701 7.14995 17.2901 6.97995 17.1201Z" fill="#EBE9F0"/>
<path d="M18.8101 5.28994V4.33994C18.8101 4.11903 18.631 3.93994 18.4101 3.93994L13.9601 3.93994C13.7391 3.93994 13.5601 4.11903 13.5601 4.33994V5.28994C13.5601 5.51086 13.7391 5.68994 13.9601 5.68994H18.4101C18.631 5.68994 18.8101 5.51086 18.8101 5.28994Z" fill="#EBE9F0"/>
<path d="M16.1901 15.3101C16.6706 15.3101 17.0601 14.9206 17.0601 14.4401C17.0601 13.9596 16.6706 13.5701 16.1901 13.5701C15.7096 13.5701 15.3201 13.9596 15.3201 14.4401C15.3201 14.9206 15.7096 15.3101 16.1901 15.3101Z" fill="#EBE9F0"/>
<path d="M16.1901 18.8101C16.6706 18.8101 17.0601 18.4206 17.0601 17.9401C17.0601 17.4596 16.6706 17.0701 16.1901 17.0701C15.7096 17.0701 15.3201 17.4596 15.3201 17.9401C15.3201 18.4206 15.7096 18.8101 16.1901 18.8101Z" fill="#EBE9F0"/>
<path d="M7.44 0H2.19C0.99 0 0 0.98 0 2.19V7.44C0 8.65 0.98 9.63 2.19 9.63H7.44C8.65 9.63 9.63 8.65 9.63 7.44V2.19C9.63 0.98 8.65 0 7.44 0ZM8.75 7.44C8.75 8.16 8.16 8.75 7.44 8.75H2.19C1.47 8.75 0.88 8.16 0.88 7.44V2.19C0.88 1.47 1.47 0.88 2.19 0.88H7.44C8.16 0.88 8.75 1.47 8.75 2.19V7.44Z" fill="#231F20"/>
<path d="M18.8199 0H13.5699C12.3599 0 11.3799 0.98 11.3799 2.19V7.44C11.3799 8.65 12.3599 9.63 13.5699 9.63H18.8199C20.0299 9.63 21.0099 8.65 21.0099 7.44V2.19C21.0099 0.98 20.0299 0 18.8199 0ZM20.1299 7.44C20.1299 8.16 19.5399 8.75 18.8199 8.75H13.5699C12.8499 8.75 12.2599 8.16 12.2599 7.44V2.19C12.2599 1.47 12.8499 0.88 13.5699 0.88H18.8199C19.5399 0.88 20.1299 1.47 20.1299 2.19V7.44Z" fill="#231F20"/>
<path d="M7.44 11.3701H2.19C0.98 11.3701 0 12.3501 0 13.5601V18.8101C0 20.0201 0.98 21.0001 2.19 21.0001H7.44C8.65 21.0001 9.63 20.0201 9.63 18.8101V13.5601C9.63 12.3501 8.65 11.3701 7.44 11.3701ZM8.75 18.8101C8.75 19.5301 8.16 20.1201 7.44 20.1201H2.19C1.47 20.1201 0.88 19.5301 0.88 18.8101V13.5601C0.88 12.8401 1.47 12.2501 2.19 12.2501H7.44C8.16 12.2501 8.75 12.8401 8.75 13.5601V18.8101Z" fill="#231F20"/>
<path d="M18.8199 11.3701H13.5699C12.3599 11.3701 11.3799 12.3501 11.3799 13.5601V18.8101C11.3799 20.0201 12.3599 21.0001 13.5699 21.0001H18.8199C20.0299 21.0001 21.0099 20.0201 21.0099 18.8101V13.5601C21.0099 12.3501 20.0299 11.3701 18.8199 11.3701ZM20.1299 18.8101C20.1299 19.5301 19.5399 20.1201 18.8199 20.1201H13.5699C12.8499 20.1201 12.2599 19.5301 12.2599 18.8101V13.5601C12.2599 12.8401 12.8499 12.2501 13.5699 12.2501H18.8199C19.5399 12.2501 20.1299 12.8401 20.1299 13.5601V18.8101Z" fill="#231F20"/>
<path d="M7.00001 3.50001H6.12001V2.63001C6.12001 2.15001 5.73001 1.76001 5.25001 1.76001H4.38001C3.90001 1.76001 3.50001 2.15001 3.50001 2.63001V3.50001H2.63001C2.15001 3.50001 1.76001 3.89001 1.76001 4.38001V5.25001C1.76001 5.73001 2.15001 6.12001 2.63001 6.12001H3.50001V7.00001C3.50001 7.48001 3.89001 7.87001 4.38001 7.87001H5.25001C5.73001 7.87001 6.12001 7.48001 6.12001 7.00001V6.12001H7.00001C7.48001 6.12001 7.87001 5.73001 7.87001 5.25001V4.38001C7.87001 3.90001 7.48001 3.50001 7.00001 3.50001ZM7.00001 5.25001H5.69001C5.45001 5.25001 5.25001 5.45001 5.25001 5.69001V7.00001H4.38001V5.69001C4.38001 5.45001 4.18001 5.25001 3.94001 5.25001H2.63001V4.38001H3.94001C4.18001 4.38001 4.38001 4.18001 4.38001 3.94001V2.63001H5.25001V3.94001C5.25001 4.18001 5.45001 4.38001 5.69001 4.38001H7.00001V5.25001Z" fill="#231F20"/>
<path d="M7.28995 14.3301L6.66995 13.7101C6.32995 13.3701 5.76995 13.3701 5.42995 13.7101L4.80995 14.3301L4.18995 13.7101C3.84995 13.3701 3.28995 13.3701 2.94995 13.7101L2.32995 14.3301C1.98995 14.6701 1.98995 15.2301 2.32995 15.5701L2.94995 16.1901L2.32995 16.8101C1.98995 17.1501 1.98995 17.7101 2.32995 18.0501L2.94995 18.6701C3.28995 19.0101 3.84995 19.0101 4.18995 18.6701L4.80995 18.0501L5.42995 18.6701C5.76995 19.0101 6.32995 19.0101 6.66995 18.6701L7.28995 18.0501C7.62995 17.7101 7.62995 17.1501 7.28995 16.8101L6.66995 16.1901L7.28995 15.5701C7.62995 15.2301 7.62995 14.6701 7.28995 14.3301ZM5.74995 15.8801C5.57995 16.0501 5.57995 16.3301 5.74995 16.5001L6.67995 17.4301L6.05995 18.0501L5.12995 17.1201C4.95995 16.9501 4.67995 16.9501 4.50995 17.1201L3.57995 18.0501L2.95995 17.4301C4.37995 16.0101 4.37995 16.3701 2.95995 14.9601L3.57995 14.3401L4.50995 15.2701C4.67995 15.4401 4.95995 15.4401 5.12995 15.2701L6.05995 14.3401L6.67995 14.9601L5.74995 15.8901V15.8801Z" fill="#231F20"/>
<path d="M18.3799 3.5H13.9999C13.5199 3.5 13.1299 3.89 13.1299 4.38V5.25C13.1299 5.73 13.5199 6.12 13.9999 6.12H18.3799C18.8599 6.12 19.2499 5.73 19.2499 5.25V4.38C19.2499 3.9 18.8599 3.5 18.3799 3.5ZM18.3799 5.25H13.9999V4.38H18.3799V5.25Z" fill="#231F20"/>
<path d="M16.1899 13.1201C15.4699 13.1201 14.8799 13.7101 14.8799 14.4301C14.8799 15.1501 15.4699 15.7401 16.1899 15.7401C16.9099 15.7401 17.4999 15.1501 17.4999 14.4301C17.4999 13.7101 16.9099 13.1201 16.1899 13.1201ZM16.1899 14.8701C15.6099 14.8701 15.6099 13.9901 16.1899 13.9901C16.7699 13.9901 16.7699 14.8701 16.1899 14.8701Z" fill="#231F20"/>
<path d="M16.1899 16.6299C15.4699 16.6299 14.8799 17.2199 14.8799 17.9399C14.8799 18.6599 15.4699 19.2499 16.1899 19.2499C16.9099 19.2499 17.4999 18.6599 17.4999 17.9399C17.4999 17.2199 16.9099 16.6299 16.1899 16.6299ZM16.1899 18.3799C15.6099 18.3799 15.6099 17.5099 16.1899 17.5099C16.7699 17.5099 16.7699 18.3799 16.1899 18.3799Z" fill="#231F20"/>
</svg>
