<svg width="24" height="21" viewBox="0 0 24 21" fill="none" xmlns="http://www.w3.org/2000/svg">
<path d="M4.49503 0.49999V20.4996H2.49507C1.94508 20.4996 1.49509 20.0496 1.49509 19.4996V1.49997C1.49509 0.949981 1.94508 0.49999 2.49507 0.49999H4.49503Z" fill="#374F68"/>
<path d="M4.49503 0.49999C4.49503 20.1196 4.44503 19.4996 4.49503 19.4996C3.39505 19.4996 2.49507 18.5996 2.49507 17.4996V0.49999H4.49503Z" fill="#425B72"/>
<path d="M17.4948 1.49997V19.4996C17.4948 20.0496 17.0448 20.4996 16.4948 20.4996H4.49503V0.49999H16.4948C17.0448 0.49999 17.4948 0.949981 17.4948 1.49997Z" fill="#D95769"/>
<path d="M17.4948 1.49997V18.4996C17.4948 19.0496 17.0448 19.4996 16.4948 19.4996H4.49503V0.49999H16.4948C17.0448 0.49999 17.4948 0.949981 17.4948 1.49997Z" fill="#F06774"/>
<path d="M14.9948 3.49993H6.99497V7.49985H14.9948V3.49993Z" fill="#9ED9F1"/>
<path d="M14.9948 3.49993V6.49987H10.9949C9.33493 6.49987 7.99495 5.15989 7.99495 3.49993H14.9948Z" fill="#AFE3F8"/>
<path d="M23.4946 5.99988V17.4096C22.5547 16.8597 21.3747 16.8797 20.4947 17.4096V5.99988H23.4946Z" fill="#FDCA66"/>
<path d="M23.4946 2.49999V3.99996H20.4947V2.49999C20.4947 1.71001 21.1047 1.06002 21.8747 1.01002C22.5047 0.850027 23.4946 1.49002 23.4946 2.49999Z" fill="#D95769"/>
<path d="M23.4946 3.99992H20.4947V5.99988H23.4946V3.99992Z" fill="#D7D5E3"/>
<path d="M23.4944 17.4096C23.4944 17.5496 23.6544 17.1796 21.9945 20.5095C20.3345 17.1796 20.4945 17.5496 20.4945 17.4096C21.3745 16.8796 22.5544 16.8596 23.4944 17.4096Z" fill="#DD8561"/>
<path d="M23.4944 17.4097C23.4944 17.5497 23.5944 17.3097 22.6144 19.2596L21.5044 17.0497C22.2144 16.9397 22.9144 17.0797 23.4844 17.4197L23.4944 17.4097Z" fill="#F09975"/>
<path d="M23.4946 5.99988V17.4096C22.3247 16.7197 21.5647 17.1497 21.4947 16.9997V5.99988H23.4946Z" fill="#FFDC75"/>
<path d="M23.4946 3.99992V5.99988C22.3947 5.99988 21.4947 5.0999 21.4947 3.99992H23.4946Z" fill="#EBE9F0"/>
<path d="M23.4945 2.49991V3.99988C21.8445 3.99988 20.9346 2.06992 21.8745 1.00994H21.8845C22.7545 0.939939 23.4945 1.63993 23.4945 2.49991Z" fill="#F06774"/>
<path d="M16.4947 0H2.49495C1.66497 0 0.99498 0.669986 0.99498 1.49997V2.49995H0.49499C-0.164997 2.49995 -0.164997 3.49993 0.49499 3.49993H0.99498V5.49989H0.49499C-0.164997 5.49989 -0.164997 6.49987 0.49499 6.49987H0.99498V8.49983H0.49499C-0.164997 8.49983 -0.164997 9.49981 0.49499 9.49981H0.99498V11.4998H0.49499C-0.164997 11.4998 -0.164997 12.4997 0.49499 12.4997H0.99498V14.4997H0.49499C-0.164997 14.4997 -0.164997 15.4997 0.49499 15.4997H0.99498V17.4996H0.49499C-0.164997 17.4996 -0.164997 18.4996 0.49499 18.4996H0.99498V19.4996C0.99498 20.3296 1.66497 20.9996 2.49495 20.9996H16.4947C17.3246 20.9996 17.9946 20.3296 17.9946 19.4996V1.49997C17.9946 0.669986 17.3246 0 16.4947 0ZM1.99496 19.4996V18.4996H2.49495C3.15494 18.4996 3.15494 17.4996 2.49495 17.4996H1.99496V15.4997H2.49495C3.15494 15.4997 3.15494 14.4997 2.49495 14.4997H1.99496V12.4997H2.49495C3.15494 12.4997 3.15494 11.4998 2.49495 11.4998H1.99496V9.49981H2.49495C3.15494 9.49981 3.15494 8.49983 2.49495 8.49983H1.99496V6.49987H2.49495C3.15494 6.49987 3.15494 5.49989 2.49495 5.49989H1.99496V3.49993H2.49495C3.15494 3.49993 3.15494 2.49995 2.49495 2.49995H1.99496V1.49997C1.99496 1.21998 2.21496 0.99998 2.49495 0.99998H3.99492V19.9996H2.49495C2.21496 19.9996 1.99496 19.7796 1.99496 19.4996ZM16.9947 19.4996C16.9947 19.7796 16.7747 19.9996 16.4947 19.9996H4.9949V0.99998H16.4947C16.7747 0.99998 16.9947 1.21998 16.9947 1.49997V19.4996Z" fill="black"/>
<path d="M14.9948 2.99994H6.99497C6.71498 2.99994 6.49499 3.21993 6.49499 3.49993V7.49985C6.49499 7.77984 6.71498 7.99984 6.99497 7.99984H14.9948C15.2748 7.99984 15.4948 7.77984 15.4948 7.49985V3.49993C15.4948 3.21993 15.2748 2.99994 14.9948 2.99994ZM14.4948 6.99986H7.49496V3.99992H14.4948V6.99986Z" fill="black"/>
<path d="M13.4947 13.4997H8.49483C7.83484 13.4997 7.83484 14.4997 8.49483 14.4997H13.4947C14.1547 14.4997 14.1547 13.4997 13.4947 13.4997Z" fill="black"/>
<path d="M12.4947 15.4997H9.49481C8.83482 15.4997 8.83482 16.4997 9.49481 16.4997H12.4947C13.1547 16.4997 13.1547 15.4997 12.4947 15.4997Z" fill="black"/>
<path d="M21.9946 0.49999C20.8946 0.49999 19.9946 1.39997 19.9946 2.49995C19.9946 18.5196 19.9646 17.5696 20.0446 17.7196C21.6646 20.9496 21.5746 20.9996 21.9946 20.9996C22.4146 20.9996 22.3246 20.9496 23.9445 17.7196C24.0245 17.5696 23.9945 18.5196 23.9945 2.49995C23.9945 1.39997 23.0945 0.49999 21.9946 0.49999ZM20.9946 4.49991H22.9945V5.49989H20.9946V4.49991ZM22.9945 6.49987V16.6597C22.3446 16.4697 21.6446 16.4697 20.9946 16.6597V6.49987H22.9945ZM22.7345 17.6196L21.9946 18.9696L21.2546 17.6196C21.7346 17.4696 22.2646 17.4696 22.7445 17.6196H22.7345ZM21.9946 1.49997C22.5446 1.49997 22.9945 1.94996 22.9945 2.49995V3.49993H20.9946V2.49995C20.9946 1.94996 21.4446 1.49997 21.9946 1.49997Z" fill="black"/>
</svg>
