<svg width="18" height="21" viewBox="0 0 18 21" fill="none" xmlns="http://www.w3.org/2000/svg">
<path d="M17.0601 0.439941H3.06006V17.0599H17.0601V0.439941Z" fill="#6FA9E4"/>
<path d="M17.0601 0.439941C17.0601 16.7399 17.0201 16.1899 17.0601 16.1899C10.0501 16.1899 4.37012 10.5099 4.37012 3.49994V0.439941H17.0601Z" fill="#81BAF2"/>
<path d="M17.0599 17.0601V20.5601H2.17993C1.21993 20.5601 0.429932 19.7801 0.429932 18.8101C0.429932 17.8401 1.20993 17.0601 2.17993 17.0601H17.0599Z" fill="#C3C1D6"/>
<path d="M17.06 17.5V20.56C1 20.56 1.84 20.7 1.19 20.24C0.390003 19.08 1.21001 17.49 2.63001 17.49H17.07L17.06 17.5Z" fill="#D7D5E3"/>
<path d="M3.05993 0.439941V17.0599H2.17993C1.20993 17.0599 0.429932 17.8399 0.429932 18.8099V3.05994C0.429932 1.60994 1.59993 0.439941 3.04993 0.439941H3.05993Z" fill="#5C98D6"/>
<path d="M14.4299 3.06006H5.67993V6.56006H14.4299V3.06006Z" fill="#9ED9F1"/>
<path d="M14.4301 3.06006V5.69006H9.18006C7.73006 5.69006 6.56006 4.51006 6.56006 3.06006H14.4401H14.4301Z" fill="#AFE3F8"/>
<path d="M17.06 0H3.06C1.37 0 0 1.37 0 3.06V18.81C0 20.02 0.979999 21 2.19 21H17.07C17.31 21 17.51 20.8 17.51 20.56V0.439999C17.51 0.199999 17.31 0 17.07 0H17.06ZM16.62 16.62H3.5V0.869999H16.62V16.62ZM2.62 0.919998V16.63C2.03 16.63 1.51 16.59 0.869999 17.08V3.07C0.869999 2.01 1.62 1.13 2.62 0.93V0.919998ZM2.18 20.12C1.46 20.12 0.869999 19.53 0.869999 18.81C0.869999 18.09 1.46 17.5 2.18 17.5H16.62V18.38H3.06C2.48 18.38 2.48 19.25 3.06 19.25H16.62V20.13H2.18V20.12Z" fill="#231F20"/>
<path d="M5.67999 7.00012H14.43C14.67 7.00012 14.87 6.80012 14.87 6.56012V3.06012C14.87 2.82012 14.67 2.62012 14.43 2.62012H5.67999C5.43999 2.62012 5.23999 2.82012 5.23999 3.06012V6.56012C5.23999 6.80012 5.43999 7.00012 5.67999 7.00012ZM6.11999 3.50012H13.99V6.12012H6.11999V3.50012Z" fill="#231F20"/>
<path d="M13.1199 9.18994H6.98993C6.40993 9.18994 6.40993 10.0699 6.98993 10.0699H13.1199C13.6999 10.0699 13.6999 9.18994 13.1199 9.18994Z" fill="#231F20"/>
<path d="M12.2401 10.9399H7.87006C7.29006 10.9399 7.29006 11.8199 7.87006 11.8199H12.2401C12.8201 11.8199 12.8201 10.9399 12.2401 10.9399Z" fill="#231F20"/>
</svg>
