<svg width="56" height="56" viewBox="0 0 56 56" fill="none" xmlns="http://www.w3.org/2000/svg">
<g filter="url(#filter0_d_17_1350)">
<circle cx="27" cy="27" r="24" fill="white"/>
</g>
<path d="M16.9141 22.1429C17.1754 22.1231 17.4987 22.1297 17.7633 22.1297H19.0991H23.3452H37.1514L36.1944 33.679L35.8939 37.3362C35.8613 37.7587 35.8417 38.1845 35.8025 38.607C35.7829 38.8017 35.7796 39.0229 35.7371 39.2143C35.6228 39.6995 35.3387 40.1451 34.9631 40.4653C34.741 40.6534 34.447 40.8053 34.1694 40.8977C34.0616 40.934 33.8885 40.9505 33.7905 41.0066H20.4089C20.2978 40.9571 19.9876 40.934 19.8438 40.8977C19.1449 40.726 18.6125 40.2276 18.3381 39.5642C18.1715 39.1747 18.1781 38.6466 18.1389 38.2076L18.0017 36.379L17.6947 32.4973C17.502 30.1934 17.3223 27.8862 17.1656 25.579C17.1002 24.8033 17.0414 24.0243 16.9892 23.2487C16.9631 22.8757 16.9304 22.5225 16.9141 22.1462V22.1429ZM27.196 38.2835C27.2777 38.2637 27.3365 38.2472 27.4116 38.2109C28.0942 37.8841 28.0028 37.2405 28.0028 36.6166V35.2732V30.738V26.754V25.8232C28.0028 25.6054 28.0191 25.3083 27.9701 25.1037C27.8427 24.5888 27.3692 24.3214 26.8727 24.3511C26.3632 24.4204 26.0104 24.8033 25.9908 25.3248C25.9778 25.6351 25.9843 25.9421 25.9876 26.2523V27.7707V32.9759V36.0984L25.981 36.9599C25.981 37.082 25.9745 37.323 25.9908 37.4385C26.0333 37.7191 26.2162 37.9798 26.4481 38.1383C26.6604 38.2868 26.9249 38.3429 27.1797 38.2901C27.1862 38.2901 27.1928 38.2901 27.1993 38.2868L27.196 38.2835ZM31.6381 38.3099C32.1378 38.2043 32.4644 37.8709 32.4775 37.3329C32.484 37.1117 32.4775 36.8906 32.4775 36.6694V35.1973L32.4742 30.771V26.9983V25.9751C32.4742 25.4139 32.5526 24.8264 32.0104 24.4963C31.8177 24.3808 31.5793 24.3115 31.3572 24.3511C30.8803 24.4303 30.5243 24.7802 30.5014 25.2786C30.4884 25.579 30.4949 25.8827 30.4949 26.183V27.9291V33.1443V36.0951V36.9005C30.4949 37.0523 30.4884 37.2867 30.5112 37.4286C30.557 37.7092 30.717 37.9567 30.9489 38.1152C31.1645 38.2637 31.3833 38.3132 31.6413 38.2967L31.6381 38.3099ZM22.5972 38.3033C23.0578 38.2274 23.4563 37.861 23.466 37.3692C23.4726 37.0589 23.466 36.7487 23.466 36.4384V34.9564V29.5168V26.5461V25.678C23.466 25.5031 23.4726 25.305 23.4465 25.1334C23.3648 24.5921 22.8977 24.3115 22.3817 24.3445C21.8983 24.4006 21.5455 24.7769 21.5194 25.272C21.5063 25.5526 21.5161 25.8364 21.5194 26.117C21.5194 26.5296 21.5194 26.9422 21.5194 27.3548V32.1144V35.6627V36.851C21.5227 37.3296 21.4573 37.762 21.8852 38.0822C22.1269 38.2604 22.3 38.3132 22.5972 38.3033Z" fill="#EF7C2E"/>
<path d="M23.136 14.0066H30.6515C30.7136 14.033 30.9324 14.0726 31.0141 14.0957C31.3472 14.1914 31.615 14.406 31.8208 14.6733C32.0952 15.0265 32.1638 15.4424 32.154 15.8814C32.154 16.0101 32.1605 16.1224 32.1442 16.2544C32.7974 16.2709 33.4996 16.261 34.1561 16.261L37.5628 16.2478C38.0168 16.2478 38.2977 16.2478 38.6406 16.5878C39.0718 17.0169 38.9934 17.5648 38.9934 18.1292V19.0534C38.9901 19.4264 38.9803 19.7565 38.706 20.0337C38.3107 20.4331 37.749 20.3374 37.2329 20.3374H35.6521H29.9428H21.3853L17.8121 20.3407C17.1719 20.3407 16.4664 20.3572 15.8328 20.3308C15.4898 20.3176 15.0979 19.938 15.0391 19.6079C15.0064 19.4264 14.9934 19.2284 15.0032 19.0402C15.0032 18.5154 15.0032 17.9906 15.0032 17.4658C15.0032 16.898 15.369 16.3666 15.9471 16.2874C16.228 16.2478 16.5024 16.2577 16.7865 16.2544C17.2667 16.2544 17.7501 16.2544 18.2302 16.2544C19.4158 16.2577 20.6733 16.2313 21.8524 16.261C21.8099 15.482 21.8622 14.8087 22.5187 14.3004C22.7245 14.1419 22.8976 14.0858 23.1393 14L23.136 14.0066ZM23.5247 15.6933C23.5247 15.855 23.5345 16.0366 23.528 16.1983C23.7696 16.1884 24.0375 16.1917 24.2824 16.195H25.4648H28.7963C29.3091 16.195 29.9166 16.2115 30.4229 16.1884C30.4164 16.0233 30.4229 15.8484 30.4229 15.6801C28.6493 15.6702 26.8758 15.6735 25.1023 15.6867L24.0636 15.6966C23.9199 15.6966 23.6586 15.7065 23.5247 15.6933Z" fill="#EF7C2E"/>
<defs>
<filter id="filter0_d_17_1350" x="0" y="0" width="56" height="56" filterUnits="userSpaceOnUse" color-interpolation-filters="sRGB">
<feFlood flood-opacity="0" result="BackgroundImageFix"/>
<feColorMatrix in="SourceAlpha" type="matrix" values="0 0 0 0 0 0 0 0 0 0 0 0 0 0 0 0 0 0 127 0" result="hardAlpha"/>
<feOffset dx="1" dy="1"/>
<feGaussianBlur stdDeviation="2"/>
<feComposite in2="hardAlpha" operator="out"/>
<feColorMatrix type="matrix" values="0 0 0 0 0 0 0 0 0 0 0 0 0 0 0 0 0 0 0.25 0"/>
<feBlend mode="normal" in2="BackgroundImageFix" result="effect1_dropShadow_17_1350"/>
<feBlend mode="normal" in="SourceGraphic" in2="effect1_dropShadow_17_1350" result="shape"/>
</filter>
</defs>
</svg>
