<svg width="17" height="23" viewBox="0 0 17 23" fill="none" xmlns="http://www.w3.org/2000/svg">
<path d="M8.50998 18.4202V22.2002C4.10998 22.2002 0.47998 18.6302 0.47998 14.1702V8.98022H4.25998V14.1702C4.25998 16.5202 6.15998 18.4202 8.50998 18.4202Z" fill="#6FA9E4"/>
<path d="M16.54 8.98021V14.1702C16.54 18.6502 12.9 22.2002 8.51001 22.2002V18.4202C9.93001 18.4202 11.2 17.7102 11.95 16.6602C13.03 15.1802 12.76 14.0702 12.76 8.97021H16.54V8.98021Z" fill="#D95769"/>
<path d="M16.54 8.98021V14.1702C16.54 16.1502 15.83 17.9602 14.64 19.3502C12.88 20.8402 10.63 21.4502 8.51001 21.1902V18.4102C9.93001 18.4102 11.2 17.7002 11.95 16.6502C13 15.9102 13.71 14.6402 13.71 13.2102V8.96021H16.54V8.98021Z" fill="#F06774"/>
<path d="M8.51001 18.4202V21.2002C6.67001 20.9902 5.02002 20.1502 3.78001 18.9002C0.960015 16.0802 1.43001 13.2202 1.43001 8.97021H4.26001V14.1602C4.26001 16.5102 6.16001 18.4102 8.51001 18.4102V18.4202Z" fill="#81BAF2"/>
<path d="M4.25998 7.09015V8.98015H0.47998V7.09015C0.47998 6.57015 0.909983 6.15015 1.41998 6.15015H3.30998C3.82998 6.15015 4.24998 6.57015 4.24998 7.09015H4.25998Z" fill="#D7D5E3"/>
<path d="M4.25993 7.09015V8.98015H1.42993V7.09015C1.42993 6.57015 1.85993 6.15015 2.36993 6.15015H3.30994C3.82994 6.15015 4.24993 6.57015 4.24993 7.09015H4.25993Z" fill="#EBE9F0"/>
<path d="M16.54 7.09015V8.98015H12.76V7.09015C12.76 6.57015 13.19 6.15015 13.7 6.15015H15.59C16.11 6.15015 16.53 6.57015 16.53 7.09015H16.54Z" fill="#D7D5E3"/>
<path d="M16.54 7.09015V8.98015H13.71V7.09015C13.71 6.57015 14.14 6.15015 14.65 6.15015H15.59C16.11 6.15015 16.53 6.57015 16.53 7.09015H16.54Z" fill="#EBE9F0"/>
<path d="M10.8799 3.31021C9.75991 5.77021 9.51991 6.29021 8.51991 8.50021V5.19022H6.15991L8.51991 0.470215V3.30022H10.8799V3.31021Z" fill="#FDCA66"/>
<path d="M9.46005 6.43015V5.20015C9.46005 4.94015 9.25005 4.73015 8.99005 4.73015H7.87004C7.52004 4.73015 7.29005 4.36016 7.45005 4.05016L8.52005 1.90015V3.32014H10.88L9.46005 6.44016V6.43015Z" fill="#FFDC75"/>
<path d="M15.6 5.67017H13.71C12.93 5.67017 12.29 6.31016 12.29 7.09016V14.1702C12.29 16.2502 10.6 17.9502 8.51 17.9502C6.42 17.9502 4.73 16.2602 4.73 14.1702V7.09016C4.73 6.31016 4.09 5.67017 3.31001 5.67017H1.42001C0.640006 5.67017 0 6.31016 0 7.09016V14.1702C0 18.8602 3.81 22.6702 8.5 22.6702C13.19 22.6702 17 18.8602 17 14.1702V7.09016C17 6.31016 16.36 5.67017 15.58 5.67017H15.6ZM13.24 7.09016C13.24 6.83016 13.45 6.62016 13.71 6.62016H15.6C15.86 6.62016 16.07 6.83016 16.07 7.09016V8.51016H13.24V7.09016ZM0.960007 7.09016C0.960007 6.83016 1.17 6.62016 1.43 6.62016H3.32001C3.58001 6.62016 3.79 6.83016 3.79 7.09016V8.51016H0.960007V7.09016ZM0.960007 14.1702V9.45016H3.79V14.1702C3.79 16.6102 5.66 18.6302 8.04 18.8702V21.7002C4.09 21.4502 0.960007 18.1802 0.960007 14.1702ZM8.99001 21.7002V18.8702C11.37 18.6302 13.24 16.6202 13.24 14.1702V9.45016H16.07V14.1702C16.07 18.1802 12.93 21.4602 8.99001 21.7002Z" fill="black"/>
<path d="M8.04005 5.67022V8.50023C8.04005 8.76023 8.25005 8.97023 8.51005 8.97023C8.94005 8.97023 8.81005 8.98023 11.3 3.50023C11.44 3.19023 11.21 2.83023 10.87 2.83023H8.98005V0.470227C8.98005 -0.0297735 8.31005 -0.17978 8.09005 0.26022C5.58005 5.28022 5.55004 5.12023 5.75004 5.44023C5.93004 5.74023 6.04005 5.66023 8.04005 5.66023V5.67022ZM8.04005 2.48022V3.31022C8.04005 3.57022 8.25005 3.78022 8.51005 3.78022H10.1401L8.98005 6.32022V5.19023C8.98005 4.93023 8.77005 4.72023 8.51005 4.72023H6.91005L8.03005 2.47023L8.04005 2.48022Z" fill="black"/>
</svg>
