<svg width="23" height="23" viewBox="0 0 23 23" fill="none" xmlns="http://www.w3.org/2000/svg">
<path d="M13.4198 9.07617V11.4762C13.4198 11.4762 12.9398 12.4362 11.4998 12.4362C10.0598 12.4362 9.57983 11.4762 9.57983 11.4762V9.07617H13.4098H13.4198Z" fill="#FDD083"/>
<path d="M14.8599 5.24638V7.16639C14.8599 8.75639 13.5699 10.0464 11.9899 10.0464H11.0299C9.4399 10.0464 8.1499 8.75639 8.1499 7.16639V4.29639L14.8599 5.25639V5.24638Z" fill="#FDD083"/>
<path d="M11.4999 0.936287C13.2999 0.846287 14.8499 2.43629 14.8499 4.28629V5.24628L8.13993 4.28629L7.17993 1.40629H9.57993L10.0599 0.446289L11.4999 0.926285V0.936287Z" fill="#A77C51"/>
<path d="M4.32005 19.6264V15.7963C4.32005 13.6763 6.04005 11.0063 8.15005 11.0063L11.5 11.9663L14.85 11.0063C16.97 11.0063 18.68 13.6763 18.68 15.7963V19.6264H4.30005H4.32005Z" fill="#6DDFEE"/>
<path d="M23 19.6262H0V22.9762H23V19.6262Z" fill="#EFF0F0"/>
<path d="M5.75 15.3062C6.68 14.9762 7.65 14.8262 8.62 14.8262C9.59 14.8262 10.57 14.9662 11.5 15.3062V22.4962C10.57 22.1662 9.6 22.0162 8.63 22.0162C7.66 22.0162 6.68 22.1562 5.75 22.4962V15.3062Z" fill="#EC4237"/>
<path d="M17.25 15.3062C16.32 14.9762 15.35 14.8262 14.38 14.8262C13.41 14.8262 12.43 14.9662 11.5 15.3062V22.4962C12.43 22.1662 13.4 22.0162 14.37 22.0162C15.34 22.0162 16.32 22.1562 17.24 22.4962C17.24 22.0362 17.24 15.6162 17.24 15.3062H17.25Z" fill="#EC4237"/>
<path d="M18.36 17.2263H18.06C17.6127 17.2263 17.25 17.589 17.25 18.0363V19.2863C17.25 19.7337 17.6127 20.0963 18.06 20.0963H18.36C18.8074 20.0963 19.17 19.7337 19.17 19.2863V18.0363C19.17 17.589 18.8074 17.2263 18.36 17.2263Z" fill="#FDD083"/>
<path d="M4.95009 17.2263H4.65009C4.20273 17.2263 3.84009 17.589 3.84009 18.0363V19.2863C3.84009 19.7337 4.20273 20.0963 4.65009 20.0963H4.95009C5.39744 20.0963 5.76009 19.7337 5.76009 19.2863V18.0363C5.76009 17.589 5.39744 17.2263 4.95009 17.2263Z" fill="#FDD083"/>
<path d="M17.25 20.5762C16.99 20.5762 16.77 20.7862 16.77 21.0562V21.8462C15.26 21.4362 13.49 21.4362 11.98 21.8462V15.6562C13.47 15.1962 15.28 15.1962 16.77 15.6562V16.2662C16.77 16.5262 16.98 16.7462 17.25 16.7462C17.52 16.7462 17.73 16.5362 17.73 16.2662V15.3062C17.73 15.1062 17.6 14.9262 17.41 14.8562C16.47 14.5162 15.45 14.3462 14.37 14.3462C13.35 14.3462 12.39 14.5062 11.49 14.8062C10.6 14.5062 9.63001 14.3462 8.62001 14.3462C7.54001 14.3462 6.52001 14.5162 5.58001 14.8562C5.39001 14.9262 5.26001 15.1062 5.26001 15.3062V16.2662C5.26001 16.5262 5.47001 16.7462 5.74001 16.7462C6.01001 16.7462 6.22001 16.5362 6.22001 16.2662V15.6562C7.71001 15.1962 9.52001 15.1962 11.01 15.6562V21.8462C9.50001 21.4362 7.73001 21.4362 6.22001 21.8462V21.0562C6.22001 20.7962 6.01001 20.5762 5.74001 20.5762C5.47001 20.5762 5.26001 20.7862 5.26001 21.0562V22.4962C5.26001 22.6562 5.34001 22.7962 5.46001 22.8862C5.59001 22.9762 5.75001 22.9962 5.90001 22.9462C6.73001 22.6462 7.64001 22.4962 8.61001 22.4962C10.05 22.4962 10.29 22.9762 11.48 22.9762C12.67 22.9762 12.92 22.4962 14.36 22.4962C15.33 22.4962 16.4 22.6762 17.23 22.9762C17.23 22.9762 17.42 22.9462 17.51 22.8862C17.64 22.7962 17.71 22.6462 17.71 22.4962V21.0562C17.71 20.7962 17.5 20.5762 17.23 20.5762H17.25Z" fill="black"/>
<path d="M22.53 19.1462H19.66V18.1862C19.66 17.7662 19.47 17.3862 19.18 17.1262V15.7962C19.18 13.4062 17.26 10.5262 14.87 10.5262C14.83 10.5262 14.78 10.5262 14.74 10.5462L13.91 10.7862V10.0562C13.91 10.0562 13.9 9.98617 13.89 9.94617C14.77 9.33617 15.35 8.32617 15.35 7.17617V4.30617C15.35 3.25617 14.9 2.22617 14.13 1.48617C13.42 0.806172 12.52 0.45617 11.59 0.47617L10.23 0.0261731C10 -0.0538269 9.76 0.056171 9.65 0.266171L9.3 0.956173H7.2C7.05 0.956173 6.90001 1.02617 6.81001 1.15617C6.72001 1.27617 6.7 1.44617 6.74 1.58617L7.67 4.38617V7.18617C7.67 8.33617 8.25 9.34617 9.13 9.95617C9.13 9.99617 9.11 10.0262 9.11 10.0662V10.7962L8.28 10.5562C8.28 10.5562 8.19 10.5362 8.15 10.5362C5.76 10.5362 3.84 13.4162 3.84 15.8062V17.1362C3.55 17.3962 3.36 17.7762 3.36 18.1962V19.1562H0.480003C0.220003 19.1562 0 19.3662 0 19.6362C0 19.9062 0.210003 20.1162 0.480003 20.1162H3.73C3.99 20.4062 4.37 20.5962 4.79 20.5962C5.58 20.5962 6.23 19.9562 6.23 19.1562V18.1962C6.23 17.4062 5.59 16.7562 4.79 16.7562V15.7962C4.79 13.9162 6.33 11.5462 8.08 11.4862L11.37 12.4262C11.46 12.4462 11.55 12.4462 11.63 12.4262L14.92 11.4862C16.67 11.5462 18.21 13.9162 18.21 15.7962V16.7562C17.42 16.7562 16.77 17.3962 16.77 18.1962V19.1562C16.77 19.9462 17.41 20.5962 18.21 20.5962C18.63 20.5962 19.01 20.4062 19.27 20.1162H22.52C22.78 20.1162 23 19.9062 23 19.6362C23 19.3662 22.79 19.1562 22.52 19.1562L22.53 19.1462ZM5.28 18.1862V19.1462C5.28 19.4062 5.06 19.6262 4.8 19.6262C4.54 19.6262 4.32 19.4162 4.32 19.1462V18.1862C4.32 17.9262 4.54 17.7062 4.8 17.7062C5.06 17.7062 5.28 17.9162 5.28 18.1862ZM9.59 1.89617C9.77 1.89617 9.94 1.79617 10.02 1.63617L10.31 1.04617L11.35 1.39617C11.41 1.41617 11.47 1.42617 11.53 1.41617C12.23 1.38617 12.91 1.64617 13.46 2.16617C14.05 2.72617 14.39 3.49617 14.39 4.29617V4.70617L8.52 3.86617L7.87 1.90617H9.6L9.59 1.89617ZM8.63 7.16617V4.84617L14.38 5.66617V7.16617C14.38 8.48617 13.31 9.56617 11.98 9.56617H11.02C9.7 9.56617 8.62 8.49617 8.62 7.16617H8.63ZM11.5 11.4562L10.05 11.0462C10.05 11.0462 10.05 11.0162 10.05 10.9962V10.3762C10.35 10.4662 10.68 10.5162 11.01 10.5162H11.97C12.3 10.5162 12.62 10.4662 12.93 10.3762V10.9962C12.93 10.9962 12.93 11.0262 12.93 11.0462L11.48 11.4562H11.5ZM18.21 19.6262C17.95 19.6262 17.73 19.4162 17.73 19.1462V18.1862C17.73 17.9262 17.95 17.7062 18.21 17.7062C18.47 17.7062 18.69 17.9162 18.69 18.1862V19.1462C18.69 19.4062 18.47 19.6262 18.21 19.6262Z" fill="black"/>
</svg>
