<svg width="21" height="23" viewBox="0 0 21 23" fill="none" xmlns="http://www.w3.org/2000/svg">
<path d="M17.6787 11.4527V22.4264H3.36285C3.36285 10.5469 3.20668 10.5156 3.84178 8.88102C4.54977 7.03818 6.01779 5.59097 7.66282 4.8934C12.4313 2.8215 17.6787 6.35102 17.6787 11.4527Z" fill="#FDCA66"/>
<path d="M17.6787 11.4526V21.4685H15.7734C6.24685 21.4685 1.56165 9.99496 7.29841 5.05989C11.9315 2.65483 17.6787 6.06981 17.6787 11.4526Z" fill="#FFDC75"/>
<path d="M20.542 16.7002V21.4687C20.542 21.9893 20.1151 22.4266 19.5841 22.4266H17.6788V15.7424H19.5841C20.1047 15.7424 20.542 16.1692 20.542 16.7002Z" fill="#6FA9E4"/>
<path d="M20.542 16.7002V20.5213C20.542 22.1455 17.6788 21.6041 17.6788 19.5634V15.7424H19.5841C20.1047 15.7424 20.542 16.1692 20.542 16.7002Z" fill="#81BAF2"/>
<path d="M3.36291 15.7424V22.4266H1.45759C0.937017 22.4266 0.499734 21.9997 0.499734 21.4687V16.7002C0.499734 16.1797 0.926605 15.7424 1.45759 15.7424H3.36291Z" fill="#6FA9E4"/>
<path d="M2.40504 15.7424V19.5634C2.40504 20.615 1.5513 21.4687 0.499734 21.4687V16.7002C0.499734 16.1797 0.926605 15.7424 1.45759 15.7424H2.41545H2.40504Z" fill="#81BAF2"/>
<path d="M15.7736 13.837V19.5633C15.7736 20.0839 15.3467 20.5212 14.8157 20.5212H6.22617C5.70559 20.5212 5.2683 20.0943 5.2683 19.5633V13.837C5.2683 14.545 5.65353 15.1593 6.22617 15.4924C6.84045 15.8464 6.51769 15.7527 13.8578 15.7527C14.9094 15.7527 15.7631 14.899 15.7631 13.8474L15.7736 13.837Z" fill="#6FA9E4"/>
<path d="M15.2113 15.1905C14.4617 15.9297 14.4096 15.7527 7.18401 15.7527C5.57023 15.7527 4.82059 13.8786 5.55981 13.1706C5.94504 12.775 5.61187 12.8895 14.8261 12.8895C15.9609 12.8895 16.0547 14.3575 15.2217 15.1905H15.2113Z" fill="#5C98D6"/>
<path d="M15.5965 14.6179C15.0655 14.8678 15.2633 14.7845 8.13139 14.7845C7.07982 14.7845 6.22608 13.9308 6.22608 12.8792H14.8156C15.5548 12.8792 16.0442 13.6392 15.5965 14.6179Z" fill="#6FA9E4"/>
<path d="M7.65241 1.43675V4.89337C5.90327 5.65342 4.51854 7.10062 3.83138 8.881V1.43675C3.83138 0.916173 4.25825 0.47889 4.78924 0.47889H6.69455C7.21513 0.47889 7.65241 0.905762 7.65241 1.43675Z" fill="#FDB855"/>
<path d="M17.2 1.43675V8.881C16.5336 7.15268 15.1697 5.67424 13.3789 4.89337V1.43675C13.3789 0.916173 13.8058 0.47889 14.3368 0.47889H16.2421C16.7627 0.47889 17.2 0.905762 17.2 1.43675Z" fill="#FDB855"/>
<path d="M17.1999 1.43677V6.705C15.7736 4.73722 14.3368 4.96627 14.3368 3.2796C14.3368 0.801651 14.2951 0.780835 14.4617 0.489312H16.2421C16.7627 0.489312 17.1999 0.916183 17.1999 1.44717V1.43677Z" fill="#FDCA66"/>
<path d="M3.8418 1.43677V6.705C5.26818 4.73722 6.70497 4.96627 6.70497 3.2796C6.70497 0.801651 6.74662 0.780835 6.58003 0.489312H4.79966C4.27908 0.489312 3.8418 0.916183 3.8418 1.44717V1.43677Z" fill="#FDCA66"/>
<path d="M15.7734 13.837C15.7734 14.5762 15.7838 14.2743 15.7525 14.1181C15.7734 14.0244 15.7734 13.9411 15.7734 13.837Z" fill="#81BAF2"/>
<path d="M15.5965 15.0966C15.8568 14.5344 15.7631 12.2439 15.7631 19.5632H10.297C8.21471 19.5632 6.4968 18.0015 6.24693 15.9816C6.81956 16.3044 6.45515 16.2211 13.8578 16.2211C14.6074 16.2211 15.305 15.7734 15.5965 15.0966Z" fill="#81BAF2"/>
<path d="M19.5841 15.2737H18.1473C18.1473 11.4006 18.2723 10.4636 17.6684 8.82898V1.4368C17.6684 0.645521 17.0229 0 16.2316 0H14.3263C13.535 0 12.8895 0.645521 12.8895 1.4368V4.20626C11.3278 3.68568 9.68274 3.68568 8.12101 4.20626V1.4368C8.12101 0.645521 7.47549 0 6.68421 0H4.77889C3.98762 0 3.3421 0.645521 3.3421 1.4368V8.82898C2.76947 10.3907 2.86317 10.9842 2.86317 15.2737H1.43679C0.645513 15.2737 0 15.9193 0 16.7105V21.479C0 22.2703 0.645513 22.9158 1.43679 22.9158H19.5737C20.365 22.9158 21.0001 22.2703 21.0001 21.479V16.7105C21.0001 15.9193 20.3546 15.2737 19.5737 15.2737H19.5841ZM13.8578 1.4368C13.8578 1.17651 14.0764 0.95786 14.3367 0.95786H16.242C16.5023 0.95786 16.7209 1.17651 16.7209 1.4368V7.02779C15.9817 5.99705 15.003 5.16412 13.8578 4.6019V1.4368ZM4.32079 1.4368C4.32079 1.17651 4.53943 0.95786 4.79972 0.95786H6.70504C6.96532 0.95786 7.18397 1.17651 7.18397 1.4368V4.6019C6.0387 5.16412 5.06001 5.99705 4.32079 7.02779V1.4368ZM0.978688 21.4686V16.7001C0.978688 16.4398 1.19733 16.2212 1.45762 16.2212H2.88399V21.9475H1.45762C1.19733 21.9475 0.978688 21.7289 0.978688 21.4686ZM3.84186 11.4527C3.84186 7.76701 6.84038 4.76849 10.5261 4.76849C14.2118 4.76849 17.2103 7.76701 17.2103 11.4527V21.9475H3.85227V11.4527H3.84186ZM20.063 21.4686C20.063 21.7289 19.8444 21.9475 19.5841 21.9475H18.1473V16.2212H19.5841C19.8444 16.2212 20.063 16.4398 20.063 16.7001V21.4686Z" fill="black"/>
<path d="M14.8157 12.4105H6.22621C5.43493 12.4105 4.78941 13.056 4.78941 13.8369V19.5632C4.78941 20.3545 5.43493 21 6.22621 21H14.8157C15.607 21 16.2421 20.3545 16.2421 19.5632V13.8369C16.2421 13.0456 15.5966 12.4105 14.8157 12.4105ZM6.22621 13.3579H14.8157C15.7215 13.3579 15.2842 15.2632 13.8579 15.2632H7.17366C5.75769 15.2632 5.29958 13.3579 6.2158 13.3579H6.22621ZM14.8157 20.0421H6.22621C5.96592 20.0421 5.74727 19.8235 5.74727 19.5632V15.7318C6.14291 16.0337 6.64267 16.2211 7.18407 16.2211C14.3993 16.2211 14.4409 16.3877 15.2947 15.7318V19.5632C15.2947 19.8235 15.076 20.0421 14.8157 20.0421Z" fill="black"/>
<path d="M8.61035 7.63157H12.4314C13.0665 7.63157 13.0665 6.67371 12.4314 6.67371H8.61035C7.97524 6.67371 7.97524 7.63157 8.61035 7.63157Z" fill="black"/>
</svg>
