<svg width="23" height="20" viewBox="0 0 23 20" fill="none" xmlns="http://www.w3.org/2000/svg">
<path d="M11.4293 4.9975V6.0745H12.8586L21.0721 1.7866L18.9281 0.357305L13.1002 2.58178C12.0937 2.96427 11.4293 3.93055 11.4293 4.9975Z" fill="#F8ECC6"/>
<path d="M11.4293 4.9975V6.0745H12.8586L21.0721 1.7866L18.9281 0.357305L13.1002 2.58178C12.0937 2.96427 11.4293 3.93055 11.4293 4.9975Z" stroke="black" stroke-width="0.71" stroke-linecap="round" stroke-linejoin="round"/>
<path d="M12.8586 4.64517V19.6427L21.4344 16.0695V1.07192L12.8586 4.64517Z" fill="#FC8399"/>
<path d="M12.8586 19.6428L21.4344 16.0696V15.0026L12.8586 18.5759V19.6428Z" fill="#FA4D6D"/>
<path d="M21.4344 4.64517V1.07192L12.8586 4.64517V19.6427L21.4344 16.0695V6.42676" stroke="black" stroke-width="0.71" stroke-linecap="round" stroke-linejoin="round"/>
<path d="M11.4293 4.9975V6.0745H9.99997L1.78653 1.7866L3.93048 0.357305L9.75839 2.58178C10.7649 2.96427 11.4293 3.93055 11.4293 4.9975Z" stroke="black" stroke-width="0.71" stroke-linecap="round" stroke-linejoin="round"/>
<path d="M11.4293 4.9975V6.0745H9.99997L1.78653 1.7866L3.93048 0.357305L9.75839 2.58178C10.7649 2.96427 11.4293 3.93055 11.4293 4.9975Z" fill="#F8ECC6"/>
<path d="M11.4293 4.9975V6.0745H9.99997L1.78653 1.7866L3.93048 0.357305L9.75839 2.58178C10.7649 2.96427 11.4293 3.93055 11.4293 4.9975Z" stroke="black" stroke-width="0.71" stroke-linecap="round" stroke-linejoin="round"/>
<path d="M12.8688 4.64521H10.0102V19.6428H12.8688V4.64521Z" fill="#EA4F5F"/>
<path d="M12.8688 18.5759H10.0102V19.6429H12.8688V18.5759Z" fill="#CB4454"/>
<path d="M12.8688 4.64521H10.0102V19.6428H12.8688V4.64521Z" stroke="black" stroke-width="0.71" stroke-linecap="round" stroke-linejoin="round"/>
<path d="M10.0102 4.64517V19.6427L1.43438 16.0695V1.07192L10.0102 4.64517Z" fill="#FC8399"/>
<path d="M1.43438 16.0696L10.0102 19.6428V18.5759L1.43438 15.0026V16.0696Z" fill="#FA4D6D"/>
<path d="M1.43438 11.4293V1.07192L10.0102 4.64517V19.6427L1.43438 16.0695V13.2109" stroke="black" stroke-width="0.71" stroke-linecap="round" stroke-linejoin="round"/>
<path d="M2.36034 7.64481L0.890776 7.27239C0.578746 7.19186 0.367371 6.9201 0.367371 6.598H0.357305C0.357305 6.14505 0.780056 5.81289 1.22294 5.92361L2.6925 6.29603C3.00453 6.37656 3.2159 6.64832 3.2159 6.97042C3.2159 7.42337 2.79315 7.75553 2.35027 7.64481H2.36034Z" fill="#E9C3A9"/>
<path d="M2.36034 7.64481L0.890776 7.27239C0.578746 7.19186 0.367371 6.9201 0.367371 6.598H0.357305C0.357305 6.14505 0.780056 5.81289 1.22294 5.92361L2.6925 6.29603C3.00453 6.37656 3.2159 6.64832 3.2159 6.97042C3.2159 7.42337 2.79315 7.75553 2.35027 7.64481H2.36034Z" stroke="black" stroke-width="0.71" stroke-linecap="round" stroke-linejoin="round"/>
<path d="M2.36034 9.07403L0.890776 8.7016C0.578746 8.62108 0.367371 8.34931 0.367371 8.02721H0.357305C0.357305 7.57427 0.780056 7.24211 1.22294 7.35283L2.6925 7.72525C3.00453 7.80577 3.2159 8.07754 3.2159 8.39964C3.2159 8.85259 2.79315 9.18475 2.35027 9.07403H2.36034Z" fill="#E9C3A9"/>
<path d="M2.36034 9.07403L0.890776 8.7016C0.578746 8.62108 0.367371 8.34931 0.367371 8.02721H0.357305C0.357305 7.57427 0.780056 7.24211 1.22294 7.35283L2.6925 7.72525C3.00453 7.80577 3.2159 8.07754 3.2159 8.39964C3.2159 8.85259 2.79315 9.18475 2.35027 9.07403H2.36034Z" stroke="black" stroke-width="0.71" stroke-linecap="round" stroke-linejoin="round"/>
<path d="M2.36034 10.5035L0.890776 10.1311C0.578746 10.0505 0.367371 9.77878 0.367371 9.45668H0.357305C0.357305 9.00373 0.780056 8.67157 1.22294 8.7823L2.6925 9.15472C3.00453 9.23524 3.2159 9.50701 3.2159 9.82911C3.2159 10.2821 2.79315 10.6142 2.35027 10.5035H2.36034Z" fill="#E9C3A9"/>
<path d="M2.36034 10.5035L0.890776 10.1311C0.578746 10.0505 0.367371 9.77878 0.367371 9.45668H0.357305C0.357305 9.00373 0.780056 8.67157 1.22294 8.7823L2.6925 9.15472C3.00453 9.23524 3.2159 9.50701 3.2159 9.82911C3.2159 10.2821 2.79315 10.6142 2.35027 10.5035H2.36034Z" stroke="black" stroke-width="0.71" stroke-linecap="round" stroke-linejoin="round"/>
<path d="M2.36034 11.9327L0.890776 11.5603C0.578746 11.4798 0.367371 11.208 0.367371 10.8859H0.357305C0.357305 10.433 0.780056 10.1008 1.22294 10.2115L2.6925 10.5839C3.00453 10.6645 3.2159 10.9362 3.2159 11.2583C3.2159 11.7113 2.79315 12.0434 2.35027 11.9327H2.36034Z" fill="#E9C3A9"/>
<path d="M2.36034 11.9327L0.890776 11.5603C0.578746 11.4798 0.367371 11.208 0.367371 10.8859H0.357305C0.357305 10.433 0.780056 10.1008 1.22294 10.2115L2.6925 10.5839C3.00453 10.6645 3.2159 10.9362 3.2159 11.2583C3.2159 11.7113 2.79315 12.0434 2.35027 11.9327H2.36034Z" stroke="black" stroke-width="0.71" stroke-linecap="round" stroke-linejoin="round"/>
<path d="M20.5083 7.64481L21.9779 7.27239C22.2899 7.19186 22.5013 6.9201 22.5013 6.598C22.5013 6.14505 22.0785 5.81289 21.6357 5.92361L20.1661 6.29603C19.8541 6.37656 19.6427 6.64832 19.6427 6.97042C19.6427 7.42337 20.0654 7.75553 20.5083 7.64481Z" fill="#E9C3A9"/>
<path d="M20.5083 7.64481L21.9779 7.27239C22.2899 7.19186 22.5013 6.9201 22.5013 6.598C22.5013 6.14505 22.0785 5.81289 21.6357 5.92361L20.1661 6.29603C19.8541 6.37656 19.6427 6.64832 19.6427 6.97042C19.6427 7.42337 20.0654 7.75553 20.5083 7.64481Z" stroke="black" stroke-width="0.71" stroke-linecap="round" stroke-linejoin="round"/>
<path d="M20.5083 9.07403L21.9779 8.7016C22.2899 8.62108 22.5013 8.34931 22.5013 8.02721C22.5013 7.57427 22.0785 7.24211 21.6357 7.35283L20.1661 7.72525C19.8541 7.80577 19.6427 8.07754 19.6427 8.39964C19.6427 8.85259 20.0654 9.18475 20.5083 9.07403Z" fill="#E9C3A9"/>
<path d="M20.5083 9.07403L21.9779 8.7016C22.2899 8.62108 22.5013 8.34931 22.5013 8.02721C22.5013 7.57427 22.0785 7.24211 21.6357 7.35283L20.1661 7.72525C19.8541 7.80577 19.6427 8.07754 19.6427 8.39964C19.6427 8.85259 20.0654 9.18475 20.5083 9.07403Z" stroke="black" stroke-width="0.71" stroke-linecap="round" stroke-linejoin="round"/>
<path d="M20.5083 10.5035L21.9779 10.1311C22.2899 10.0505 22.5013 9.77878 22.5013 9.45668C22.5013 9.00373 22.0785 8.67157 21.6357 8.7823L20.1661 9.15472C19.8541 9.23524 19.6427 9.50701 19.6427 9.82911C19.6427 10.2821 20.0654 10.6142 20.5083 10.5035Z" fill="#E9C3A9"/>
<path d="M20.5083 10.5035L21.9779 10.1311C22.2899 10.0505 22.5013 9.77878 22.5013 9.45668C22.5013 9.00373 22.0785 8.67157 21.6357 8.7823L20.1661 9.15472C19.8541 9.23524 19.6427 9.50701 19.6427 9.82911C19.6427 10.2821 20.0654 10.6142 20.5083 10.5035Z" stroke="black" stroke-width="0.71" stroke-linecap="round" stroke-linejoin="round"/>
<path d="M20.5083 11.9327L21.9779 11.5603C22.2899 11.4798 22.5013 11.208 22.5013 10.8859C22.5013 10.433 22.0785 10.1008 21.6357 10.2115L20.1661 10.5839C19.8541 10.6645 19.6427 10.9362 19.6427 11.2583C19.6427 11.7113 20.0654 12.0434 20.5083 11.9327Z" fill="#E9C3A9"/>
<path d="M20.5083 11.9327L21.9779 11.5603C22.2899 11.4798 22.5013 11.208 22.5013 10.8859C22.5013 10.433 22.0785 10.1008 21.6357 10.2115L20.1661 10.5839C19.8541 10.6645 19.6427 10.9362 19.6427 11.2583C19.6427 11.7113 20.0654 12.0434 20.5083 11.9327Z" stroke="black" stroke-width="0.71" stroke-linecap="round" stroke-linejoin="round"/>
<path d="M12.8688 6.42682H10.0102V7.85613H12.8688V6.42682Z" fill="#E5F0FD"/>
<path d="M12.8688 6.42682H10.0102V7.85613H12.8688V6.42682Z" stroke="black" stroke-width="0.71" stroke-linecap="round" stroke-linejoin="round"/>
<path d="M12.8688 16.4319H10.0102V17.8612H12.8688V16.4319Z" fill="#E5F0FD"/>
<path d="M12.8688 16.4319H10.0102V17.8612H12.8688V16.4319Z" stroke="black" stroke-width="0.71" stroke-linecap="round" stroke-linejoin="round"/>
<path d="M11.4293 9.64773V14.6402" stroke="black" stroke-width="0.71" stroke-linecap="round" stroke-linejoin="round"/>
</svg>
