<svg width="23" height="20" viewBox="0 0 23 20" fill="none" xmlns="http://www.w3.org/2000/svg">
<path d="M21.57 2.3999H1.44995V16.7699H21.57V2.3999Z" fill="#DD8561"/>
<path d="M21.5799 2.3999V15.8199H16.3099C8.91989 15.8199 2.88989 9.8299 2.88989 2.3999H21.5799Z" fill="#F09975"/>
<path d="M19.6601 4.32007H3.37012V14.8601H19.6601V4.32007Z" fill="#82B54A"/>
<path d="M19.6601 4.32007V13.9001H14.3901C9.11006 13.9001 4.81006 9.62007 4.81006 4.32007H19.6601Z" fill="#9BCA6C"/>
<path d="M22.53 16.77H0.48999V18.69H22.53V16.77Z" fill="#DD8561"/>
<path d="M22.5399 16.77V17.73H2.88993C2.49993 17.73 1.92993 17.43 1.92993 16.77H22.5299H22.5399Z" fill="#F09975"/>
<path d="M5.29009 1.43989V2.39989H3.37009C3.37009 1.61989 3.23009 0.889895 3.94009 0.569895C4.55009 0.279895 5.29009 0.739895 5.29009 1.43989Z" fill="#C3C1D6"/>
<path d="M5.29008 1.43996V1.91996H4.81008C4.10008 1.91996 3.65007 1.17996 3.94007 0.569956C4.54007 0.279956 5.29008 0.729956 5.29008 1.43996Z" fill="#D7D5E3"/>
<path d="M19.66 1.43989V2.39989H17.74C17.74 1.61989 17.6 0.889895 18.31 0.569895C18.92 0.279895 19.66 0.739895 19.66 1.43989Z" fill="#C3C1D6"/>
<path d="M19.6599 1.43996V1.91996H19.1799C18.4699 1.91996 18.0199 1.17996 18.3099 0.569956C18.9099 0.279956 19.6599 0.729956 19.6599 1.43996Z" fill="#D7D5E3"/>
<path d="M19.6599 3.84009H3.36989C3.10989 3.84009 2.88989 4.05009 2.88989 4.32009V14.8601C2.88989 15.1201 3.09989 15.3401 3.36989 15.3401H19.6599C19.9199 15.3401 20.1399 15.1301 20.1399 14.8601V4.32009C20.1399 4.06009 19.9299 3.84009 19.6599 3.84009ZM19.1799 14.3801H3.84989V4.79009H19.1799V14.3701V14.3801Z" fill="#231F20"/>
<path d="M22.54 16.29H22.06V2.4C22.06 2.14 21.85 1.92 21.58 1.92H20.14V1.44C20.14 0.65 19.5 0 18.7 0C17.9 0 17.26 0.64 17.26 1.44V1.92H5.76V1.44C5.76 0.65 5.12 0 4.32 0C3.52 0 2.88 0.64 2.88 1.44V1.92H1.44C1.18 1.92 0.959999 2.13 0.959999 2.4V16.3H0.48C0.22 16.3 0 16.51 0 16.78V18.7C0 18.96 0.21 19.18 0.48 19.18H22.52C22.78 19.18 23 18.97 23 18.7V16.78C23 16.52 22.79 16.3 22.52 16.3L22.54 16.29ZM18.22 1.44C18.22 0.81 19.18 0.81 19.18 1.44V1.92H18.22V1.44ZM3.85 1.44C3.85 0.81 4.81 0.81 4.81 1.44V1.92H3.85V1.44ZM1.93 2.88H21.1V16.3H1.93V2.88ZM22.06 18.21H0.98V17.25H22.06V18.21Z" fill="#231F20"/>
<path d="M7.20004 8.62992H7.68004V11.0299C7.68004 11.6599 8.64004 11.6599 8.64004 11.0299V8.14992C8.64004 7.88992 8.43004 7.66992 8.16004 7.66992H7.20004C6.57004 7.66992 6.57004 8.62992 7.20004 8.62992Z" fill="#231F20"/>
<path d="M10.5601 11.4999H12.0001C12.6301 11.4999 12.6301 10.5399 12.0001 10.5399H10.5601V10.0599H11.5201C12.0501 10.0599 12.4801 9.62991 12.4801 9.09991V8.61991C12.4801 8.08991 12.0501 7.65991 11.5201 7.65991H10.0801C9.4501 7.65991 9.4501 8.61991 10.0801 8.61991H11.5201V9.09991H10.5601C10.0301 9.09991 9.6001 9.52991 9.6001 10.0599V10.5399C9.6001 11.0699 10.0301 11.4999 10.5601 11.4999Z" fill="#231F20"/>
<path d="M15.11 10.5499H13.91C13.28 10.5499 13.28 11.5099 13.91 11.5099H15.11C16.1 11.5099 16.65 10.3699 16.07 9.58992C16.66 8.80992 16.1 7.66992 15.11 7.66992H13.91C13.28 7.66992 13.28 8.62992 13.91 8.62992H15.11C15.43 8.62992 15.43 9.10992 15.11 9.10992H14.87C14.24 9.10992 14.24 10.0699 14.87 10.0699H15.11C15.43 10.0699 15.43 10.5499 15.11 10.5499Z" fill="#231F20"/>
</svg>
