<svg width="20" height="24" viewBox="0 0 20 24" fill="none" xmlns="http://www.w3.org/2000/svg">
<path d="M15.65 0.5H1.35C0.880558 0.5 0.5 0.880564 0.5 1.35001V17.65C0.5 18.1194 0.880558 18.5 1.35 18.5H15.65C16.1194 18.5 16.5 18.1194 16.5 17.65V1.35001C16.5 0.880564 16.1194 0.5 15.65 0.5Z" fill="#5FAFD5"/>
<path d="M14.5 2.5H2.5V16.5H14.5V2.5Z" fill="#EFF0F0"/>
<path d="M19.5 15V19.5L17.5 22V24H11.5V22L9.5 19.5V16C9.5 15.45 9.95 14.5 10.5 14.5H11.5V9.5C11.5 8.95 11.95 8.5 12.5 8.5C13.05 8.5 13.5 8.95 13.5 9.5V14C13.5 13.45 13.95 13 14.5 13C15.05 13 15.5 13.45 15.5 14V14.5C15.5 13.95 15.95 13.5 16.5 13.5C17.05 13.5 17.5 13.95 17.5 14.5V15C17.5 14.45 17.95 14 18.5 14C19.05 14 19.5 14.45 19.5 15Z" fill="#FDD083"/>
<path d="M11 19.5V16C11 15.45 11.45 14.5 12 14.5H10.5C9.95 14.5 9.5 15.45 9.5 16V19.5L11.5 22V24H13V22L11 19.5Z" fill="#EDAF75"/>
<path d="M18.5 13.5C18.23 13.5 17.98 13.58 17.76 13.7C17.49 13.28 17.03 13 16.5 13C16.23 13 15.98 13.08 15.76 13.2C15.49 12.78 15.03 12.5 14.5 12.5C14.32 12.5 14.16 12.54 14 12.59V9.5C14 8.67 13.33 8 12.5 8C11.67 8 11 8.67 11 9.5V14H10.5C9.6 14 9 15.2 9 16V19.5C9 19.61 9.04 19.72 9.11 19.81L11 22.17V23.49C11 23.77 11.22 23.99 11.5 23.99C11.78 23.99 12 23.77 12 23.49V21.99C12 21.88 11.96 21.77 11.89 21.68L10 19.32V16C10 15.59 10.34 15.02 10.5 15H11V16.5C11 16.78 11.22 17 11.5 17C11.78 17 12 16.78 12 16.5V9.5C12 9.22 12.22 9 12.5 9C12.78 9 13 9.22 13 9.5V15C13 15.28 13.22 15.5 13.5 15.5C13.78 15.5 14 15.28 14 15V14C14 13.72 14.22 13.5 14.5 13.5C14.78 13.5 15 13.72 15 14V15.5C15 15.78 15.22 16 15.5 16C15.78 16 16 15.78 16 15.5V14.5C16 14.22 16.22 14 16.5 14C16.78 14 17 14.22 17 14.5V16C17 16.28 17.22 16.5 17.5 16.5C17.78 16.5 18 16.28 18 16V15C18 14.72 18.22 14.5 18.5 14.5C18.78 14.5 19 14.72 19 15V19.32L17.11 21.68C17.04 21.77 17 21.88 17 21.99V23.49C17 23.77 17.22 23.99 17.5 23.99C17.78 23.99 18 23.77 18 23.49V22.17L19.89 19.81C19.96 19.72 20 19.61 20 19.5V15C20 14.17 19.33 13.5 18.5 13.5Z" fill="black"/>
<path d="M7.5 18H1.5C1.22 18 1 17.78 1 17.5V1.5C1 1.22 1.22 1 1.5 1H15.5C15.78 1 16 1.22 16 1.5V11.5C16 11.78 16.22 12 16.5 12C16.78 12 17 11.78 17 11.5V1.5C17 0.67 16.33 0 15.5 0H1.5C0.67 0 0 0.67 0 1.5V17.5C0 18.33 0.67 19 1.5 19H7.5C7.78 19 8 18.78 8 18.5C8 18.22 7.78 18 7.5 18Z" fill="black"/>
<path d="M7.5 16H3V3H14V7C14 7.28 14.22 7.5 14.5 7.5C14.78 7.5 15 7.28 15 7V2.5C15 2.22 14.78 2 14.5 2H2.5C2.22 2 2 2.22 2 2.5V16.5C2 16.78 2.22 17 2.5 17H7.5C7.78 17 8 16.78 8 16.5C8 16.22 7.78 16 7.5 16Z" fill="black"/>
<path d="M12.5 4.5H4.5C4.22 4.5 4 4.72 4 5C4 5.28 4.22 5.5 4.5 5.5H12.5C12.78 5.5 13 5.28 13 5C13 4.72 12.78 4.5 12.5 4.5Z" fill="black"/>
<path d="M9.5 6.5H4.5C4.22 6.5 4 6.72 4 7C4 7.28 4.22 7.5 4.5 7.5H9.5C9.78 7.5 10 7.28 10 7C10 6.72 9.78 6.5 9.5 6.5Z" fill="black"/>
<path d="M9.5 8.5H4.5C4.22 8.5 4 8.72 4 9C4 9.28 4.22 9.5 4.5 9.5H9.5C9.78 9.5 10 9.28 10 9C10 8.72 9.78 8.5 9.5 8.5Z" fill="black"/>
<path d="M8.5 10.5H4.5C4.22 10.5 4 10.72 4 11C4 11.28 4.22 11.5 4.5 11.5H8.5C8.78 11.5 9 11.28 9 11C9 10.72 8.78 10.5 8.5 10.5Z" fill="black"/>
<path d="M12.5 6.5H11.5C11.22 6.5 11 6.72 11 7C11 7.28 11.22 7.5 11.5 7.5H12.5C12.78 7.5 13 7.28 13 7C13 6.72 12.78 6.5 12.5 6.5Z" fill="black"/>
</svg>
