<svg width="21" height="22" viewBox="0 0 21 22" fill="none" xmlns="http://www.w3.org/2000/svg">
<path d="M19.7289 15.127V16.9578C19.7289 17.4581 19.3187 17.8783 18.8085 17.8783H1.38059C0.88036 17.8783 0.46017 17.4681 0.46017 16.9578V15.127H19.7189H19.7289Z" fill="#7C7D7D"/>
<path d="M19.7291 15.127V16.9578H3.68177C2.67131 16.9578 1.85094 16.1275 1.85094 15.127H19.7291Z" fill="#8F8F8F"/>
<path d="M13.306 21.5497H6.89303L7.34325 17.888H12.8457L13.306 21.5497Z" fill="#747575"/>
<path d="M12.2757 21.5498H6.88326L7.22341 18.7986H9.49445C10.8851 18.7986 12.0556 19.8291 12.2257 21.2097L12.2657 21.5498H12.2757Z" fill="#7C7D7D"/>
<path d="M1.33058 3.21142H18.8686C19.3388 3.21142 19.7289 3.5916 19.7289 4.07181V15.1368H0.470185V4.07181C0.470185 3.6016 0.850358 3.21142 1.33058 3.21142Z" fill="#81BAF2"/>
<path d="M14.2264 21.5499H5.97267C5.36239 21.5499 5.36239 20.6295 5.97267 20.6295H14.2264C14.8367 20.6295 14.8367 21.5499 14.2264 21.5499Z" fill="#8F8F8F"/>
<path d="M11.4752 7.45329C12.0555 7.30323 12.7258 7.30323 13.306 7.45329" stroke="black" stroke-width="0.92" stroke-linecap="round" stroke-linejoin="round"/>
<path d="M11.4752 9.2842C12.0555 9.13414 12.7258 9.13414 13.306 9.2842" stroke="black" stroke-width="0.92" stroke-linecap="round" stroke-linejoin="round"/>
<path d="M16.9777 3.21142H3.22144V15.1368H16.9777V3.21142Z" fill="#D7D5E3"/>
<path d="M16.9778 3.21142V14.2164H15.5972C9.53443 14.2164 4.59218 9.30419 4.59218 3.21142H16.9778Z" fill="#EBE9F0"/>
<path d="M16.9777 0.46017H3.22144V3.21142H16.9777V0.46017Z" fill="#7C7D7D"/>
<path d="M16.9778 0.46017V2.29101H6.43303C5.42257 2.29101 4.60219 1.47063 4.60219 0.46017H16.9878H16.9778Z" fill="#8F8F8F"/>
<path d="M10.5549 16.5075C10.5549 15.8972 9.63451 15.8972 9.63451 16.5075C9.63451 17.1178 10.5549 17.1178 10.5549 16.5075Z" fill="#374F68"/>
<path d="M5.51259 1.83089C5.51259 1.22061 4.59218 1.22061 4.59218 1.83089C4.59218 2.44117 5.51259 2.44117 5.51259 1.83089Z" fill="#D95769"/>
<path d="M7.34328 1.83089C7.34328 1.22061 6.42284 1.22061 6.42284 1.83089C6.42284 2.44117 7.34328 2.44117 7.34328 1.83089Z" fill="#6FA9E4"/>
<path d="M9.18419 1.83089C9.18419 1.22061 8.26377 1.22061 8.26377 1.83089C8.26377 2.44117 9.18419 2.44117 9.18419 1.83089Z" fill="#9BCA6C"/>
<path d="M10.0946 6.42296V11.9255C10.0946 12.2756 9.71442 12.5057 9.42429 12.3256C8.52388 11.7954 7.08323 11.7954 6.18282 12.3256C5.88268 12.5057 5.51252 12.2756 5.51252 11.9255V6.42296C5.51252 5.51254 6.82311 5.04233 7.80355 5.04233C9.07413 5.04233 10.0946 5.65261 10.0946 6.42296Z" fill="#FDCA66"/>
<path d="M10.0945 6.42297V11.2852C9.59432 11.0551 8.98404 10.985 8.43379 11.0251C7.3533 11.1051 6.42286 10.3047 6.42286 9.22425C6.42286 5.68263 6.37285 5.53256 6.54293 5.28245C8.14366 4.65216 10.0845 5.3925 10.0845 6.43298L10.0945 6.42297Z" fill="#FFDC75"/>
<path d="M14.6868 6.42296V11.9255C14.6868 12.2756 14.3066 12.5057 14.0165 12.3256C13.1161 11.7954 11.6754 11.7954 10.775 12.3256C10.4749 12.5057 10.1047 12.2756 10.1047 11.9255V6.42296C10.1047 5.51254 11.4153 5.04233 12.3957 5.04233C13.6663 5.04233 14.6868 5.65261 14.6868 6.42296Z" fill="#FDCA66"/>
<path d="M14.6867 6.42297V11.2852C14.1865 11.0551 13.5762 10.985 13.026 11.0251C11.9455 11.1051 11.015 10.3047 11.015 9.22425C11.015 5.68263 10.965 5.53256 11.1351 5.28245C12.7358 4.65216 14.6767 5.3925 14.6767 6.43298L14.6867 6.42297Z" fill="#FFDC75"/>
<path d="M13.3061 7.91349C13.136 7.91349 12.4857 7.66337 11.5853 7.90348C11.005 8.06355 10.7649 7.17315 11.3552 7.01308C12.1155 6.81298 13.9664 6.73295 13.7463 7.57333C13.6962 7.78342 13.5062 7.91349 13.3061 7.91349Z" fill="#374F68"/>
<path d="M13.3061 9.7444C13.136 9.7444 12.4857 9.49429 11.5853 9.7344C10.995 9.88447 10.7649 9.00406 11.3552 8.84398C12.1155 8.64389 13.9664 8.56386 13.7463 9.40424C13.6962 9.61434 13.5062 9.7444 13.3061 9.7444Z" fill="#374F68"/>
<path d="M8.7239 7.91349C8.55382 7.91349 7.90353 7.66337 7.00312 7.90348C6.41285 8.05355 6.18275 7.17315 6.77302 7.01308C7.53336 6.81298 9.3842 6.73295 9.1641 7.57333C9.11408 7.78342 8.92399 7.91349 8.7239 7.91349Z" fill="#374F68"/>
<path d="M8.7239 9.7444C8.55382 9.7444 7.90353 9.49429 7.00312 9.7344C6.41285 9.88447 6.18275 9.00406 6.77302 8.84398C7.53336 8.64389 9.3842 8.56386 9.1641 9.40424C9.11408 9.61434 8.92399 9.7444 8.7239 9.7444Z" fill="#374F68"/>
<path d="M18.8086 2.75125H17.4279V0.460208C17.4279 0.210095 17.2178 0 16.9677 0H3.21147C2.96135 0 2.75125 0.210095 2.75125 0.460208V2.75125H1.37063C0.610288 2.75125 0 3.37154 0 4.12188V16.9577C0 17.7181 0.620293 18.3283 1.37063 18.3283H6.81311L6.47295 21.0796H5.5025C4.89223 21.0796 4.89223 22 5.5025 22H14.6767C15.287 22 15.287 21.0796 14.6767 21.0796H13.7062L13.3661 18.3283H18.8086C19.5689 18.3283 20.1792 17.7081 20.1792 16.9577V4.12188C20.1792 3.36153 19.5589 2.75125 18.8086 2.75125ZM19.2688 4.12188V14.6667H17.4379V3.66167H18.8186C19.0687 3.66167 19.2788 3.87176 19.2788 4.12188H19.2688ZM3.68168 3.67167H16.5175V14.6767H3.68168V3.67167ZM3.68168 0.920417H16.5175V2.75125H3.68168V0.920417ZM0.930431 4.12188C0.930431 3.87176 1.14052 3.66167 1.39063 3.66167H2.77127V14.6667H0.94043V4.12188H0.930431ZM12.7858 21.0896H7.40338L7.74353 18.3383H12.4357L12.7758 21.0896H12.7858ZM19.2688 16.9677C19.2688 17.2178 19.0587 17.4279 18.8086 17.4279H1.38063C1.13052 17.4279 0.920417 17.2178 0.920417 16.9677V15.5871H19.2588V16.9677H19.2688Z" fill="black"/>
<path d="M10.0947 5.39241C8.64399 3.94175 5.05235 4.55203 5.05235 6.42288V11.9254C5.05235 12.6257 5.81269 13.0859 6.42297 12.7257C7.13329 12.2956 8.47391 12.2956 9.18423 12.7257C9.45436 12.8858 9.79451 12.9058 10.0947 12.7257C10.3948 12.9058 10.7349 12.8958 11.0051 12.7257C11.7154 12.2956 13.056 12.2956 13.7663 12.7257C14.3766 13.0859 15.1369 12.6257 15.1369 11.9254V6.42288C15.1369 4.56203 11.5453 3.94175 10.0947 5.39241ZM5.97276 11.9154V6.41288C5.97276 5.98268 6.75312 5.49245 7.8036 5.49245C8.85408 5.49245 9.63443 5.97268 9.63443 6.41288C9.63443 12.2755 9.63443 11.8453 9.63443 11.9154C8.56395 11.2851 6.94321 11.3251 5.96277 11.9154H5.97276ZM10.5549 11.9154V6.41288C10.5549 5.98268 11.3352 5.49245 12.3857 5.49245C13.4362 5.49245 14.2165 5.97268 14.2165 6.41288L14.2365 11.9254C13.1761 11.2951 11.5453 11.3151 10.5549 11.9254V11.9154Z" fill="black"/>
<path d="M13.4261 7.00306C12.6658 6.80297 10.8149 6.72293 11.035 7.56331C11.0951 7.80342 11.3452 7.95349 11.5953 7.89347C12.0955 7.76341 12.6958 7.76341 13.196 7.89347C13.7863 8.04353 14.0164 7.16313 13.4261 7.00306Z" fill="black"/>
<path d="M13.4261 8.84398C12.6658 8.64389 10.8149 8.56386 11.035 9.40424C11.0951 9.64435 11.3452 9.79442 11.5953 9.7344C12.0955 9.60434 12.6958 9.60434 13.196 9.7344C13.7863 9.88447 14.0164 9.00406 13.4261 8.84398Z" fill="black"/>
<path d="M8.84395 7.00306C8.0836 6.80297 6.23276 6.72293 6.45286 7.56331C6.51289 7.80342 6.763 7.95349 7.01312 7.89347C7.51334 7.76341 8.11361 7.76341 8.61383 7.89347C9.2041 8.04353 9.43422 7.16313 8.84395 7.00306Z" fill="black"/>
<path d="M8.84395 8.84398C8.0836 8.64389 6.23276 8.56386 6.45286 9.40424C6.51289 9.64435 6.763 9.79442 7.01312 9.7344C7.51334 9.60434 8.11361 9.60434 8.61383 9.7344C9.2041 9.88447 9.43422 9.00406 8.84395 8.84398Z" fill="black"/>
<path d="M10.0947 16.0473C9.48438 16.0473 9.48438 16.9678 10.0947 16.9678C10.7049 16.9678 10.7049 16.0473 10.0947 16.0473Z" fill="black"/>
<path d="M5.05233 1.37074C4.44205 1.37074 4.44205 2.29116 5.05233 2.29116C5.66261 2.29116 5.66261 1.37074 5.05233 1.37074Z" fill="black"/>
<path d="M6.89301 1.37074C6.28273 1.37074 6.28273 2.29116 6.89301 2.29116C7.50329 2.29116 7.50329 1.37074 6.89301 1.37074Z" fill="black"/>
<path d="M8.72392 1.37074C8.11364 1.37074 8.11364 2.29116 8.72392 2.29116C9.3342 2.29116 9.3342 1.37074 8.72392 1.37074Z" fill="black"/>
</svg>
