<svg width="23" height="20" viewBox="0 0 23 20" fill="none" xmlns="http://www.w3.org/2000/svg">
<path d="M21.5799 2.3999H1.44995V16.7799H21.5799V2.3999Z" fill="#DD8561"/>
<path d="M21.5799 2.3999V15.8199H16.3099C8.91989 15.8199 2.88989 9.8299 2.88989 2.3999H21.5799Z" fill="#F09975"/>
<path d="M19.6601 4.32007H3.37012V14.8601H19.6601V4.32007Z" fill="#82B54A"/>
<path d="M19.6601 4.32007V13.9001H14.3901C9.11006 13.9001 4.81006 9.62007 4.81006 4.32007H19.6601Z" fill="#9BCA6C"/>
<path d="M22.53 16.77H0.48999V18.69H22.53V16.77Z" fill="#DD8561"/>
<path d="M22.5399 16.77V17.73H2.88994C2.49994 17.73 1.92993 17.43 1.92993 16.77H22.5299H22.5399Z" fill="#F09975"/>
<path d="M5.29008 1.43989V2.3999H3.37009C3.37009 1.6199 3.23009 0.889895 3.94009 0.569895C4.55009 0.279895 5.29008 0.739891 5.29008 1.43989Z" fill="#C3C1D6"/>
<path d="M5.29007 1.43995V1.91996H4.81008C4.10008 1.91996 3.65007 1.17996 3.94007 0.569957C4.54007 0.279957 5.29007 0.729952 5.29007 1.43995Z" fill="#D7D5E3"/>
<path d="M19.66 1.43989V2.3999H17.74C17.74 1.6199 17.6 0.889895 18.31 0.569895C18.92 0.279895 19.66 0.739891 19.66 1.43989Z" fill="#C3C1D6"/>
<path d="M19.6599 1.43995V1.91996H19.1799C18.4699 1.91996 18.0199 1.17996 18.3099 0.569957C18.9099 0.279957 19.6599 0.729952 19.6599 1.43995Z" fill="#D7D5E3"/>
<path d="M19.6599 3.84009H3.36989C3.10989 3.84009 2.88989 4.05009 2.88989 4.32009V14.8601C2.88989 15.1201 3.09989 15.3401 3.36989 15.3401H19.6599C19.9199 15.3401 20.1399 15.1301 20.1399 14.8601V4.32009C20.1399 4.06009 19.9299 3.84009 19.6599 3.84009ZM19.1799 14.3801H3.84989V4.80009H19.1799V14.3801Z" fill="#231F20"/>
<path d="M22.54 16.3H22.06V2.4C22.06 2.14 21.85 1.92 21.58 1.92H20.14V1.43999C20.14 0.649995 19.5 0 18.7 0C17.9 0 17.26 0.639995 17.26 1.43999V1.92H5.76V1.43999C5.76 0.649995 5.12001 0 4.32001 0C3.52001 0 2.88 0.639995 2.88 1.43999V1.92H1.44C1.18 1.92 0.960007 2.13 0.960007 2.4V16.3H0.480003C0.220003 16.3 0 16.51 0 16.78V18.7C0 18.96 0.210003 19.18 0.480003 19.18H22.52C22.78 19.18 23 18.97 23 18.7V16.78C23 16.52 22.79 16.3 22.52 16.3H22.54ZM18.22 1.43999C18.22 0.809995 19.18 0.809995 19.18 1.43999V1.92H18.22V1.43999ZM3.85001 1.43999C3.85001 0.809995 4.81001 0.809995 4.81001 1.43999V1.92H3.85001V1.43999ZM1.93 2.88H21.1V16.3H1.93V2.88ZM22.06 18.21H0.980003V17.25H22.06V18.21Z" fill="#231F20"/>
<path d="M6.69011 11.21L6.77011 11.03H8.13011L8.21011 11.21C8.45011 11.8 9.34011 11.43 9.09011 10.84L7.89011 7.96999C7.73011 7.57999 7.17011 7.57999 7.01011 7.96999L5.81011 10.84C5.57011 11.42 6.45011 11.8 6.69011 11.21ZM7.72011 10.07H7.16011L7.44011 9.39999L7.72011 10.07Z" fill="#231F20"/>
<path d="M15.8299 11.4999H16.3099C16.9399 11.4999 16.9399 10.5399 16.3099 10.5399H15.8299C15.2999 10.5399 14.8699 10.1099 14.8699 9.57992C14.8699 9.04992 15.2999 8.61991 15.8299 8.61991H16.3099C16.9399 8.61991 16.9399 7.65991 16.3099 7.65991H15.8299C14.7699 7.65991 13.9099 8.51992 13.9099 9.57992C13.9099 10.6399 14.7699 11.4999 15.8299 11.4999Z" fill="#231F20"/>
<path d="M10.5601 11.4999H11.7601C12.7501 11.4999 13.3001 10.3599 12.7201 9.57992C13.3101 8.79992 12.7501 7.65991 11.7601 7.65991H10.5601C10.3001 7.65991 10.0801 7.86992 10.0801 8.13992V11.0099C10.0801 11.2699 10.2901 11.4899 10.5601 11.4899V11.4999ZM11.0401 8.62991H11.7601C11.8901 8.62991 12.0001 8.73991 12.0001 8.86991C12.0001 9.16991 11.7101 9.10992 11.0401 9.10992V8.62991ZM11.0401 10.0699H11.7601C11.8901 10.0699 12.0001 10.1799 12.0001 10.3099C12.0001 10.6099 11.7101 10.5499 11.0401 10.5499V10.0699Z" fill="#231F20"/>
</svg>
