<svg width="24" height="20" viewBox="0 0 24 20" fill="none" xmlns="http://www.w3.org/2000/svg">
<path d="M18.9981 0.526571V13.0314H0.490912L18.9981 0.526571Z" fill="#FDCA66"/>
<path d="M18.9981 0.536584V12.031H1.99149L18.9981 0.536584Z" fill="#FFDC75"/>
<path d="M19.2382 0.0864724C18.8481 -0.123609 20.2886 -0.943926 0.220877 12.6213C-0.189282 12.8914 0.0107942 13.5317 0.500984 13.5317H19.0081C19.2882 13.5317 19.5083 13.3116 19.5083 13.0315C19.5083 -0.553774 19.6184 0.28655 19.2382 0.0864724ZM18.4979 1.46701V8.55975C16.4171 8.78984 14.7565 10.4505 14.5264 12.5313H2.12161L18.4979 1.46701ZM15.5368 12.5313C15.7569 11.0007 16.9673 9.79022 18.4979 9.57014V12.5313H15.5368Z" fill="black"/>
<path d="M10.995 15.0322H9.99459C9.33433 15.0322 9.33433 16.0326 9.99459 16.0326H10.995V16.5328H10.2447C9.55442 16.5328 8.9942 17.093 8.9942 17.7832C8.9942 18.4735 9.55442 19.0337 10.2447 19.0337H10.7449C11.4351 19.0337 11.9954 18.4735 11.9954 17.7832V16.0326C11.9954 15.4824 11.5452 15.0322 10.995 15.0322ZM10.995 17.7832C10.995 17.9233 10.8849 18.0333 10.7449 18.0333H10.2447C9.91456 18.0333 9.91456 17.5331 10.2447 17.5331H10.995V17.7832Z" fill="black"/>
<path d="M22.7495 7.02921H21.9992V6.02882C21.9992 5.36857 20.9988 5.36857 20.9988 6.02882V9.02998C20.9988 9.31009 21.2189 9.53018 21.499 9.53018H22.7495C23.4398 9.53018 24 8.96996 24 8.27969C24 7.58943 23.4398 7.02921 22.7495 7.02921ZM22.7495 8.52979H21.9992V8.0296H22.7495C23.0796 8.0296 23.0796 8.52979 22.7495 8.52979Z" fill="black"/>
<path d="M7.99381 5.02831H8.49401C9.15426 5.02831 9.15426 4.02792 8.49401 4.02792H7.99381C7.7137 4.02792 7.49362 3.80784 7.49362 3.52773V3.02754C7.49362 2.74743 7.7137 2.52734 7.99381 2.52734H8.49401C9.15426 2.52734 9.15426 1.52696 8.49401 1.52696H7.99381C7.16349 1.52696 6.49323 2.19722 6.49323 3.02754V3.52773C6.49323 4.35805 7.16349 5.02831 7.99381 5.02831Z" fill="black"/>
</svg>
