<?xml version="1.0" encoding="UTF-8"?>
<svg version="1.1" xmlns="http://www.w3.org/2000/svg" width="50" height="50">
<path d="M0 0 C1.65 0 3.3 0 5 0 C5.33 1.32 5.66 2.64 6 4 C10.95 4 15.9 4 21 4 C21.33 2.68 21.66 1.36 22 0 C23.65 0 25.3 0 27 0 C27.495 1.98 27.495 1.98 28 4 C28.969375 3.979375 29.93875 3.95875 30.9375 3.9375 C34 4 34 4 35 5 C35.08685603 6.56172745 35.10702219 8.12729344 35.09765625 9.69140625 C35.09443359 10.63564453 35.09121094 11.57988281 35.08789062 12.55273438 C35.07532227 14.04256836 35.07532227 14.04256836 35.0625 15.5625 C35.05798828 16.55958984 35.05347656 17.55667969 35.04882812 18.58398438 C35.03700007 21.05604849 35.02051849 23.52799518 35 26 C35.78632812 26.27714844 36.57265625 26.55429687 37.3828125 26.83984375 C40 28 40 28 41.875 30.5625 C43.33628052 35.02752382 43.22521152 38.48255346 42 43 C40.20867928 46.00685978 38.75317877 47.52657334 35.8125 49.375 C31.78884496 50.26914557 28.00665243 49.93038371 24 49 C23.01 48.34 22.02 47.68 21 47 C17.9957293 46.63072954 17.9957293 46.63072954 14.58203125 46.5859375 C13.4525708 46.55032715 12.32311035 46.5147168 11.15942383 46.47802734 C9.72493896 46.44402832 8.2904541 46.4100293 6.8125 46.375 C2.254375 46.25125 -2.30375 46.1275 -7 46 C-7 32.14 -7 18.28 -7 4 C-5.02 4 -3.04 4 -1 4 C-0.67 2.68 -0.34 1.36 0 0 Z " fill="#0D0A0B" transform="translate(7,0)"/>
<path d="M0 0 C12.21 0 24.42 0 37 0 C37 3.63 37 7.26 37 11 C31.376827 11.86510354 26.57740697 12.23942377 21 11 C21 10.67 21 10.34 21 10 C22.65 9.67 24.3 9.34 26 9 C26 7.35 26 5.7 26 4 C24.35 4 22.7 4 21 4 C20.67 5.65 20.34 7.3 20 9 C19.67 9 19.34 9 19 9 C19 7.35 19 5.7 19 4 C16.69 4 14.38 4 12 4 C12.33 5.65 12.66 7.3 13 9 C14.65 9.33 16.3 9.66 18 10 C18 10.33 18 10.66 18 11 C16.35 11.33 14.7 11.66 13 12 C12.67 13.98 12.34 15.96 12 18 C14.31 18 16.62 18 19 18 C19 16.35 19 14.7 19 13 C19.268125 13.61875 19.53625 14.2375 19.8125 14.875 C20.95556848 17.2995233 20.95556848 17.2995233 24 19 C24 22.3 24 25.6 24 29 C16.08 29 8.16 29 0 29 C0 19.43 0 9.86 0 0 Z " fill="#E4E2E8" transform="translate(2,14)"/>
<path d="M0 0 C2.8100346 1.79363911 4.50940468 3.01880935 6 6 C6.5811138 13.08958838 6.5811138 13.08958838 4.125 16.9375 C0.8698054 20.09695358 -1.42413238 20.33421243 -5.9609375 20.29296875 C-9.13134567 19.83745033 -10.8192402 18.24684343 -13 16 C-14.60086627 12.79826746 -14.49917089 9.47422941 -14 6 C-10.32759145 0.24655994 -6.71744997 -0.96515086 0 0 Z " fill="#F4D981" transform="translate(41,27)"/>
<path d="M0 0 C12.21 0 24.42 0 37 0 C37 0.33 37 0.66 37 1 C25.45 1 13.9 1 2 1 C2.66 4.63 3.32 8.26 4 12 C5.98 12 7.96 12 10 12 C10 13.98 10 15.96 10 18 C9.01 18.33 8.02 18.66 7 19 C8.32 19.66 9.64 20.32 11 21 C11.33 20.67 11.66 20.34 12 20 C14.33297433 19.95907063 16.66705225 19.95758277 19 20 C19.125 25.75 19.125 25.75 18 28 C19.32 28 20.64 28 22 28 C22 25.69 22 23.38 22 21 C22.33 21 22.66 21 23 21 C23.33 23.64 23.66 26.28 24 29 C16.08 29 8.16 29 0 29 C0 19.43 0 9.86 0 0 Z " fill="#C4C3CD" transform="translate(2,14)"/>
<path d="M0 0 C1.32 0 2.64 0 4 0 C4.33 0.99 4.66 1.98 5 3 C6.32 3 7.64 3 9 3 C9.33 2.01 9.66 1.02 10 0 C15.61 0 21.22 0 27 0 C27.33 0.99 27.66 1.98 28 3 C29.32 3 30.64 3 32 3 C32.33 2.01 32.66 1.02 33 0 C34.32 0 35.64 0 37 0 C37 1.98 37 3.96 37 6 C24.79 6 12.58 6 0 6 C0 4.02 0 2.04 0 0 Z " fill="#DF8B8B" transform="translate(2,6)"/>
<path d="M0 0 C2.5 0.125 2.5 0.125 3.5 1.125 C3.6613058 4.18981021 3.48150241 6.18049278 2.5 9.125 C0.85 9.125 -0.8 9.125 -2.5 9.125 C-2.5 10.775 -2.5 12.425 -2.5 14.125 C-5.45664519 15.6033226 -8.24229737 15.18532783 -11.5 15.125 C-11.5 10.45833333 -11.5 5.79166667 -11.5 1.125 C-10.200625 1.145625 -8.90125 1.16625 -7.5625 1.1875 C-6.20834367 1.20899454 -4.85243917 1.19648199 -3.5 1.125 C-2.5 0.125 -2.5 0.125 0 0 Z " fill="#A9A8AC" transform="translate(25.5,16.875)"/>
<path d="M0 0 C1.32 0 2.64 0 4 0 C4.33 0.99 4.66 1.98 5 3 C7.89944831 3.96648277 9.7658148 4.12878732 12.78125 4.1328125 C13.70550781 4.13410156 14.62976563 4.13539062 15.58203125 4.13671875 C17.02642578 4.13091797 17.02642578 4.13091797 18.5 4.125 C19.46292969 4.12886719 20.42585938 4.13273438 21.41796875 4.13671875 C22.80435547 4.13478516 22.80435547 4.13478516 24.21875 4.1328125 C25.06373047 4.13168457 25.90871094 4.13055664 26.77929688 4.12939453 C29.17443433 4.08658224 29.17443433 4.08658224 32 3 C32.33 2.01 32.66 1.02 33 0 C34.32 0 35.64 0 37 0 C37 1.98 37 3.96 37 6 C24.79 6 12.58 6 0 6 C0 4.02 0 2.04 0 0 Z " fill="#E27E7E" transform="translate(2,6)"/>
<path d="M0 0 C0.268125 0.61875 0.53625 1.2375 0.8125 1.875 C1.95556848 4.2995233 1.95556848 4.2995233 5 6 C4.34 8.97 3.68 11.94 3 15 C1.68 15 0.36 15 -1 15 C-0.67 12.36 -0.34 9.72 0 7 C-2.31 7 -4.62 7 -7 7 C-7.33 8.32 -7.66 9.64 -8 11 C-8.33 10.01 -8.66 9.02 -9 8 C-11.00016466 6.79117904 -11.00016466 6.79117904 -13 6 C-9.8250906 4.0921416 -7.89414789 3.8390959 -4.25 4.375 C-3.45078125 4.48585938 -2.6515625 4.59671875 -1.828125 4.7109375 C-0.92320313 4.85402344 -0.92320313 4.85402344 0 5 C0 3.35 0 1.7 0 0 Z " fill="#E7E5EC" transform="translate(21,27)"/>
<path d="M0 0 C1.4540625 0.0309375 1.4540625 0.0309375 2.9375 0.0625 C2.9375 0.7225 2.9375 1.3825 2.9375 2.0625 C1.2978125 2.43375 1.2978125 2.43375 -0.375 2.8125 C-4.18771564 4.10494598 -5.26897966 4.57509934 -7.0625 8.0625 C-7.77683121 10.71184822 -7.77683121 10.71184822 -8.0625 13.0625 C-8.35125 12.44375 -8.64 11.825 -8.9375 11.1875 C-9.99970042 8.92924235 -9.99970042 8.92924235 -12.0625 7.0625 C-12.1875 3.9375 -12.1875 3.9375 -12.0625 1.0625 C-10.763125 1.083125 -9.46375 1.10375 -8.125 1.125 C-6.77084367 1.14649454 -5.41493917 1.13398199 -4.0625 1.0625 C-3.0625 0.0625 -3.0625 0.0625 0 0 Z " fill="#141413" transform="translate(35.0625,24.9375)"/>
<path d="M0 0 C0.66 0.33 1.32 0.66 2 1 C1.505 1.350625 1.01 1.70125 0.5 2.0625 C-1.78116718 5.0090076 -1.31765543 7.37872805 -1 11 C-0.35375416 13.1623144 -0.35375416 13.1623144 1 15 C3.16281282 16.1225649 3.16281282 16.1225649 5.625 16.75 C6.85089844 17.11351562 6.85089844 17.11351562 8.1015625 17.484375 C8.72804688 17.65453125 9.35453125 17.8246875 10 18 C10 18.33 10 18.66 10 19 C2.76813075 19.49029622 2.76813075 19.49029622 -0.9375 17.125 C-4.09771844 13.86901736 -4.32556608 11.57859267 -4.30078125 7.04296875 C-3.84084984 3.91901903 -2.18000297 2.18000297 0 0 Z " fill="#EBC673" transform="translate(31,28)"/>
<path d="M0 0 C2.31 0 4.62 0 7 0 C7 1.98 7 3.96 7 6 C4.69 6 2.38 6 0 6 C0 4.02 0 2.04 0 0 Z " fill="#27282C" transform="translate(14,34)"/>
<path d="M0 0 C1.66611905 -0.042721 3.33382885 -0.04063832 5 0 C6 1 6 1 6.125 3.5 C6 6 6 6 5 7 C3.33382885 7.04063832 1.66611905 7.042721 0 7 C0 4.69 0 2.38 0 0 Z " fill="#1C1C1D" transform="translate(23,17)"/>
<path d="M0 0 C1.66611905 -0.042721 3.33382885 -0.04063832 5 0 C6 1 6 1 6.125 3.5 C6 6 6 6 5 7 C3.33382885 7.04063832 1.66611905 7.042721 0 7 C0 4.69 0 2.38 0 0 Z " fill="#1E2023" transform="translate(31,17)"/>
<path d="M0 0 C1.98 0 3.96 0 6 0 C6 1.98 6 3.96 6 6 C4.02 6 2.04 6 0 6 C0 4.02 0 2.04 0 0 Z " fill="#0F1114" transform="translate(6,34)"/>
<path d="M0 0 C1.98 0 3.96 0 6 0 C6 1.98 6 3.96 6 6 C4.02 6 2.04 6 0 6 C0 4.02 0 2.04 0 0 Z " fill="#181A1D" transform="translate(14,26)"/>
<path d="M0 0 C1.98 0 3.96 0 6 0 C6 1.98 6 3.96 6 6 C4.02 6 2.04 6 0 6 C0 4.02 0 2.04 0 0 Z " fill="#0F1113" transform="translate(6,26)"/>
<path d="M0 0 C1.98 0 3.96 0 6 0 C6 1.98 6 3.96 6 6 C4.33388095 6.042721 2.66617115 6.04063832 1 6 C0 5 0 5 -0.0625 2.4375 C-0.041875 1.633125 -0.02125 0.82875 0 0 Z " fill="#1D1F23" transform="translate(14,18)"/>
<path d="M0 0 C1.32 0 2.64 0 4 0 C4.33 0.99 4.66 1.98 5 3 C5.99 3.66 6.98 4.32 8 5 C7 6 7 6 3.4375 6.0625 C2.303125 6.041875 1.16875 6.02125 0 6 C0 4.02 0 2.04 0 0 Z " fill="#DD7676" transform="translate(2,6)"/>
<path d="M0 0 C0.33 0 0.66 0 1 0 C1 1.98 1 3.96 1 6 C1.94875 5.79375 2.8975 5.5875 3.875 5.375 C5.421875 5.189375 5.421875 5.189375 7 5 C7.66 5.66 8.32 6.32 9 7 C3.376827 7.86510354 -1.42259303 8.23942377 -7 7 C-7 6.67 -7 6.34 -7 6 C-3.535 5.505 -3.535 5.505 0 5 C0 3.35 0 1.7 0 0 Z " fill="#D2D0D6" transform="translate(30,18)"/>
<path d="M0 0 C0.66 0 1.32 0 2 0 C2.12375 1.2375 2.2475 2.475 2.375 3.75 C2.75746305 6.8762197 3.30549523 9.28879237 5 12 C1.125 10.125 1.125 10.125 0 9 C-0.07179964 7.48071962 -0.08392007 5.95832518 -0.0625 4.4375 C-0.05347656 3.61121094 -0.04445312 2.78492188 -0.03515625 1.93359375 C-0.02355469 1.29550781 -0.01195312 0.65742188 0 0 Z " fill="#0C0B06" transform="translate(36,29)"/>
<path d="M0 0 C1.32 0 2.64 0 4 0 C4 1.65 4 3.3 4 5 C2.02 5 0.04 5 -2 5 C-1.34 3.35 -0.68 1.7 0 0 Z " fill="#E38E8E" transform="translate(35,6)"/>
<path d="M0 0 C1.65 0 3.3 0 5 0 C4.67 1.65 4.34 3.3 4 5 C3.01 5 2.02 5 1 5 C0.67 3.35 0.34 1.7 0 0 Z " fill="#2E3238" transform="translate(23,17)"/>
</svg>
