<svg width="22" height="22" viewBox="0 0 22 22" fill="none" xmlns="http://www.w3.org/2000/svg">
<path d="M1.38155 2.7631C2.13877 2.7631 2.75263 2.14925 2.75263 1.39202C2.75263 0.634801 2.13877 0.0209529 1.38155 0.0209529C0.624325 0.0209529 0.0104764 0.634801 0.0104764 1.39202C0.0104764 2.14925 0.624325 2.7631 1.38155 2.7631Z" fill="#FDD041"/>
<path d="M3.21314 5.96583C3.97036 5.96583 4.58421 5.35198 4.58421 4.59475C4.58421 3.83753 3.97036 3.22368 3.21314 3.22368C2.45591 3.22368 1.84206 3.83753 1.84206 4.59475C1.84206 5.35198 2.45591 5.96583 3.21314 5.96583Z" fill="#FDD041"/>
<path d="M15.1133 4.59469C15.8706 4.59469 16.4844 3.98083 16.4844 3.22361C16.4844 2.46639 15.8706 1.85254 15.1133 1.85254C14.3561 1.85254 13.7423 2.46639 13.7423 3.22361C13.7423 3.98083 14.3561 4.59469 15.1133 4.59469Z" fill="#FDD041"/>
<path d="M8.70796 17.4159L14.2027 19.708L21.5291 3.22368L1.38161 14.2132L6.41587 16.5053V21.5395L8.70796 17.4159Z" fill="#EFF0F0"/>
<path d="M10.9897 17.8764L6.41592 21.5396L8.70802 17.4159L10.9897 17.8764Z" fill="#CFD1D2"/>
<path d="M21.5291 3.22368L1.38161 14.2132L6.41587 16.5053V17.2589L21.3093 3.71559L21.5291 3.22368Z" fill="#CFD1D2"/>
<path d="M1.38154 2.76308C1.63273 2.76308 1.84206 2.55375 1.84206 2.30256V1.84205H2.30257C2.55376 1.84205 2.76308 1.63273 2.76308 1.38154C2.76308 1.13035 2.55376 0.921024 2.30257 0.921024H1.84206V0.460508C1.84206 0.209319 1.63273 0 1.38154 0C1.13035 0 0.921032 0.209319 0.921032 0.460508V0.921024H0.460516C0.209327 0.921024 0 1.13035 0 1.38154C0 1.63273 0.209327 1.84205 0.460516 1.84205H0.921032V2.30256C0.921032 2.55375 1.13035 2.76308 1.38154 2.76308Z" fill="black"/>
<path d="M2.75262 4.14471H2.2921C2.04091 4.14471 1.83159 4.35403 1.83159 4.60522C1.83159 4.8564 2.04091 5.06573 2.2921 5.06573H2.75262V5.52625C2.75262 5.77744 2.96194 5.98675 3.21313 5.98675C3.46432 5.98675 3.67364 5.77744 3.67364 5.52625V5.06573H4.13416C4.38535 5.06573 4.59467 4.8564 4.59467 4.60522C4.59467 4.35403 4.38535 4.14471 4.13416 4.14471H3.67364V3.68419C3.67364 3.433 3.46432 3.22368 3.21313 3.22368C2.96194 3.22368 2.75262 3.433 2.75262 3.68419V4.14471Z" fill="black"/>
<path d="M14.2025 3.68412H14.663V4.14464C14.663 4.39582 14.8724 4.60514 15.1236 4.60514C15.3747 4.60514 15.5841 4.39582 15.5841 4.14464V3.68412H16.0446C16.2958 3.68412 16.5051 3.47479 16.5051 3.2236C16.5051 2.97241 16.2958 2.7631 16.0446 2.7631H15.5841V2.30258C15.5841 2.05139 15.3747 1.84206 15.1236 1.84206C14.8724 1.84206 14.663 2.05139 14.663 2.30258V2.7631H14.2025C13.9513 2.7631 13.742 2.97241 13.742 3.2236C13.742 3.47479 13.9513 3.68412 14.2025 3.68412Z" fill="black"/>
<path d="M21.8326 2.88868C21.6861 2.75262 21.4768 2.73169 21.2989 2.82588L1.1514 13.8154C0.994408 13.8991 0.910683 14.0561 0.910683 14.2341C0.910683 14.412 1.02581 14.5585 1.18281 14.6318L5.9554 16.7983V21.5395C5.9554 21.5395 5.97633 22 6.41591 22L10.7385 18.7659L14.0248 20.137C14.2551 20.2312 14.5168 20.137 14.6214 19.8963L21.9478 3.41199C22.0315 3.23406 21.9792 3.02474 21.8431 2.88868H21.8326ZM7.90211 19.8021L8.90687 18.0019L9.7651 18.3577L7.90211 19.8021ZM13.9621 19.1113L8.87547 16.9971C8.65568 16.9029 8.41496 16.9971 8.29983 17.196L6.86596 19.7707V16.5052C6.86596 16.3273 6.7613 16.1598 6.59384 16.0866L2.39688 14.1817L20.5558 4.28068L13.9621 19.1218V19.1113Z" fill="black"/>
<path d="M8.55084 15.9295L18.6193 6.77161C18.8077 6.60415 18.8182 6.3111 18.6507 6.1227C18.4833 5.93431 18.1902 5.92385 18.0018 6.09131L7.93334 15.2492C7.74495 15.4167 7.73448 15.7098 7.90194 15.8981C7.99614 15.9923 8.34152 16.1075 8.55084 15.9295Z" fill="black"/>
<path d="M18.4938 15.6261C18.2636 15.5319 17.9914 15.6366 17.8972 15.8773L15.6051 21.372C15.5109 21.6023 15.6156 21.8744 15.8563 21.9686C15.9191 21.9895 16.1703 22.0942 16.4529 21.7174L18.745 16.2227C18.8392 15.9924 18.7345 15.7203 18.4938 15.6261Z" fill="black"/>
<path d="M21.707 13.3341C21.4768 13.2399 21.2046 13.3445 21.1104 13.5852L18.8183 19.08C18.7241 19.3103 18.8288 19.5824 19.0695 19.6766C19.1323 19.6975 19.4986 19.7812 19.6661 19.4254L21.9582 13.9306C22.0524 13.7004 21.9477 13.4283 21.707 13.3341Z" fill="black"/>
<path d="M8.94856 6.02856L2.99328 9.23123C2.77349 9.34636 2.68976 9.62894 2.80489 9.84873C2.88862 10.0057 3.09794 10.2046 3.4224 10.0371L9.37767 6.83446C9.59746 6.71934 9.68119 6.43674 9.56606 6.21695C9.45093 5.99716 9.16835 5.91343 8.94856 6.02856Z" fill="black"/>
<path d="M5.25398 6.8344L11.2093 3.63173C11.429 3.51661 11.5128 3.23402 11.3976 3.01423C11.2825 2.79444 10.9999 2.71071 10.7801 2.82584L4.82487 6.0285C4.60508 6.14363 4.52135 6.42622 4.63647 6.64601C4.7202 6.803 4.86673 7.00186 5.25398 6.8344Z" fill="black"/>
</svg>
