<svg width="21" height="22" viewBox="0 0 21 22" fill="none" xmlns="http://www.w3.org/2000/svg">
<path d="M15.3198 0.439936H0.439936V20.5697H15.3198V0.439936Z" fill="#D7D5E3"/>
<path d="M15.3198 0.439936C15.3198 20.2697 15.2798 19.6897 15.3198 19.6897C7.82992 19.6897 1.75999 13.6198 1.75999 6.12987V0.439936H15.3198Z" fill="#EBE9F0"/>
<path d="M20.5697 5.24994V16.9798C19.7497 16.4998 18.7197 16.5198 17.9497 16.9798V5.24994H20.5697Z" fill="#FDCA66"/>
<path d="M20.5697 2.61995V3.49994H17.9497V2.61995C17.9497 1.92996 18.4797 1.35996 19.1597 1.31997C19.6997 1.17997 20.5797 1.73996 20.5797 2.61995H20.5697Z" fill="#D95769"/>
<path d="M20.5597 3.49996H17.9397V5.24994H20.5597V3.49996Z" fill="#D7D5E3"/>
<path d="M20.5697 16.9798C20.5697 17.0998 20.7097 16.7698 19.2597 19.6898C17.7997 16.7798 17.9497 17.0998 17.9497 16.9798C18.7197 16.5198 19.7597 16.4998 20.5697 16.9798Z" fill="#DD8561"/>
<path d="M20.5698 16.9799C20.5698 17.0999 20.6598 16.8899 19.7998 18.5898L18.8299 16.6599C19.4499 16.5599 20.0598 16.6799 20.5598 16.9799H20.5698Z" fill="#F09975"/>
<path d="M20.5698 5.24994V16.9798C19.5498 16.3698 18.8798 16.7498 18.8198 16.6298V5.24994H20.5698Z" fill="#FFDC75"/>
<path d="M20.5698 3.49996V5.24994C19.5998 5.24994 18.8198 4.46995 18.8198 3.49996H20.5698Z" fill="#EBE9F0"/>
<path d="M20.5697 2.61997V3.49996H20.1297C18.9997 3.49996 18.3997 2.15997 19.1497 1.31998H19.1597C19.9297 1.25998 20.5697 1.86997 20.5697 2.61997Z" fill="#F06774"/>
<path d="M2.18986 4.80988H6.5698C7.1498 4.80988 7.1498 3.92989 6.5698 3.92989H2.18986C1.60986 3.92989 1.60986 4.80988 2.18986 4.80988Z" fill="black"/>
<path d="M2.18986 8.75002H13.5697C14.1497 8.75002 14.1497 7.87003 13.5697 7.87003H2.18986C1.60986 7.87003 1.60986 8.75002 2.18986 8.75002Z" fill="black"/>
<path d="M2.18986 10.9399H13.5697C14.1497 10.9399 14.1497 10.07 13.5697 10.07H2.18986C1.60986 10.07 1.60986 10.9399 2.18986 10.9399Z" fill="black"/>
<path d="M2.18986 13.1299H13.5697C14.1497 13.1299 14.1497 12.2599 13.5697 12.2599H2.18986C1.60986 12.2599 1.60986 13.1299 2.18986 13.1299Z" fill="black"/>
<path d="M2.18986 15.3098H13.5697C14.1497 15.3098 14.1497 14.4398 13.5697 14.4398H2.18986C1.60986 14.4398 1.60986 15.3098 2.18986 15.3098Z" fill="black"/>
<path d="M2.18986 17.4999H7.4398C8.01979 17.4999 8.01979 16.6199 7.4398 16.6199H2.18986C1.60986 16.6199 1.60986 17.4999 2.18986 17.4999Z" fill="black"/>
<path d="M20.4896 1.3899C19.3996 0.299918 17.4997 1.05991 17.4997 2.62989V17.0697C17.4997 17.2197 17.4397 17.0497 18.8597 19.8897C19.0197 20.2097 19.4796 20.2097 19.6396 19.8897C21.0596 17.0497 20.9996 17.2197 20.9996 17.0697V2.62989C20.9996 2.1599 20.8196 1.7199 20.4896 1.3899ZM18.3797 5.68985H20.1296V16.3297C19.5597 16.1597 18.9497 16.1597 18.3797 16.3297V5.68985ZM18.3797 3.93987H20.1296V4.81987H18.3797V3.93987ZM19.2497 1.7499C19.7296 1.7499 20.1296 2.1399 20.1296 2.61989V3.05989H18.3797V2.61989C18.3797 2.1399 18.7697 1.7499 19.2597 1.7499H19.2497ZM18.4997 17.1997C18.9797 17.0197 19.5397 17.0197 20.0096 17.1997L19.2497 18.7097L18.4897 17.1997H18.4997Z" fill="black"/>
<path d="M15.3198 0H0.439997C0.2 0 0 0.199996 0 0.439994V20.5698C0 20.8098 0.2 21.0098 0.439997 21.0098H15.3198C15.5598 21.0098 15.7598 20.8098 15.7598 20.5698V0.439994C15.7598 0.199996 15.5598 0 15.3198 0ZM14.8798 20.1298H0.879995V0.879991H14.8798V20.1298Z" fill="black"/>
<path d="M9.15993 6.29988L9.41993 5.68988H10.7199L10.9799 6.29988C11.2099 6.82987 12.0099 6.48987 11.7799 5.95988L10.4699 2.89992C10.3199 2.54992 9.81992 2.54992 9.66992 2.89992L8.35994 5.95988C8.12994 6.48987 8.93994 6.83987 9.15993 6.29988ZM10.3399 4.8099H9.78992L10.0599 4.1699L10.3299 4.8099H10.3399Z" fill="black"/>
<path d="M11.8199 3.94002H12.2599V4.38002C12.2599 4.96001 13.1299 4.96001 13.1299 4.38002V3.94002H13.5699C14.1498 3.94002 14.1498 3.07003 13.5699 3.07003H13.1299V2.63004C13.1299 2.05004 12.2599 2.05004 12.2599 2.63004V3.07003H11.8199C11.2399 3.07003 11.2399 3.94002 11.8199 3.94002Z" fill="black"/>
</svg>
