<svg width="23" height="22" viewBox="0 0 23 22" fill="none" xmlns="http://www.w3.org/2000/svg">
<path d="M16.962 10.3149C16.1019 11.345 15.2418 12.5552 14.5217 13.9253C15.0418 13.6153 16.0619 13.3553 16.962 13.0652V18.7959H3.21035V3.21402H16.962V10.3249V10.3149Z" fill="#F4CAAD"/>
<path d="M16.9622 10.3149C16.1021 11.345 15.2419 12.5552 14.5219 13.9253C15.0419 13.6153 16.062 13.3553 16.9622 13.0652C16.9622 18.1558 16.9122 17.8758 16.9622 17.8758C10.1313 17.8758 4.59065 12.3351 4.59065 5.5043V3.21402H16.9622V10.3249V10.3149Z" fill="#FFDCC5"/>
<path d="M17.8822 1.3737H2.30033V3.20393H17.8822V1.3737Z" fill="#7C7D7D"/>
<path d="M17.8821 1.3737V2.29382H4.13047C3.76042 2.29382 3.21035 2.00378 3.21035 1.3737H17.8821Z" fill="#8F8F8F"/>
<path d="M17.8822 18.786H2.30033V20.6162H17.8822V18.786Z" fill="#7C7D7D"/>
<path d="M17.8821 18.786V19.7061H4.13047C3.76042 19.7061 3.21035 19.4161 3.21035 18.786H17.8821Z" fill="#8F8F8F"/>
<path d="M19.7123 1.37385C19.7123 3.30409 19.7423 3.34409 19.6323 3.58412C19.2222 4.48423 17.8821 4.1842 17.8821 3.20408V1.37385C17.8821 1.00381 18.1021 0.683775 18.4221 0.543757C19.0022 0.263723 19.7123 0.703771 19.7123 1.37385Z" fill="#FDCA66"/>
<path d="M19.7123 1.37385C19.7123 3.30409 19.7423 3.34409 19.6323 3.58412C19.0622 3.85415 18.3422 3.43411 18.3422 2.75403C18.3422 0.823791 18.3122 0.783787 18.4222 0.543757C19.0022 0.263723 19.7123 0.703771 19.7123 1.37385Z" fill="#FFDC75"/>
<path d="M2.30025 1.37385C2.30025 3.30409 2.33026 3.34409 2.22024 3.58412C1.81019 4.48423 0.470028 4.1842 0.470028 3.20408V1.37385C0.470028 1.00381 0.690055 0.683775 1.01009 0.543757C1.59016 0.263723 2.30025 0.703771 2.30025 1.37385Z" fill="#FDCA66"/>
<path d="M2.30029 1.37385C2.30029 3.30409 2.33029 3.34409 2.22028 3.58412C1.65021 3.85415 0.93012 3.43411 0.93012 2.75403C0.93012 0.823791 0.900116 0.783787 1.01013 0.543757C1.5902 0.263723 2.30029 0.703771 2.30029 1.37385Z" fill="#FFDC75"/>
<path d="M19.7123 18.7859C19.7123 20.7161 19.7423 20.7561 19.6323 20.9962C19.2222 21.8963 17.8821 21.5962 17.8821 20.6161V18.7859C17.8821 18.4159 18.1021 18.0958 18.4221 17.9558C19.0022 17.6758 19.7123 18.1158 19.7123 18.7859Z" fill="#FDCA66"/>
<path d="M19.7123 18.7859C19.7123 20.7161 19.7423 20.7561 19.6323 20.9962C19.0622 21.2662 18.3422 20.8461 18.3422 20.1661C18.3422 18.2358 18.3122 18.1958 18.4222 17.9558C19.0022 17.6758 19.7123 18.1158 19.7123 18.7859Z" fill="#FFDC75"/>
<path d="M2.30025 18.7859C2.30025 20.7161 2.33026 20.7561 2.22024 20.9962C1.81019 21.8963 0.470028 21.5962 0.470028 20.6161V18.7859C0.470028 18.4159 0.690055 18.0958 1.01009 17.9558C1.59016 17.6758 2.30025 18.1158 2.30025 18.7859Z" fill="#FDCA66"/>
<path d="M2.30029 18.7859C2.30029 20.7161 2.33029 20.7561 2.22028 20.9962C1.65021 21.2662 0.93012 20.8461 0.93012 20.1661C0.93012 18.2358 0.900116 18.1958 1.01013 17.9558C1.5902 17.6758 2.30029 18.1158 2.30029 18.7859Z" fill="#FFDC75"/>
<path d="M20.1725 9.16469C20.1725 9.16469 21.0926 10.0848 18.3423 11.455C19.9825 12.6851 15.782 13.1752 14.5318 13.9253C14.6818 13.6352 14.8418 13.3552 15.0019 13.0752C16.7021 10.1948 19.6524 7.32447 21.0926 6.41436C21.0926 6.41436 21.5527 6.87442 21.5527 7.78453C21.5527 8.69464 20.1725 9.16469 20.1725 9.16469Z" fill="#D7D5E3"/>
<path d="M19.7124 8.70474C19.7124 8.70474 20.6325 9.62485 17.8822 10.995C19.2123 11.9951 16.672 12.5152 15.0018 13.0753C17.1721 9.40483 20.2725 7.01453 20.9526 6.51447C21.0326 6.72449 21.0926 7.00453 21.0926 7.33457C21.0926 8.25468 19.7124 8.70474 19.7124 8.70474Z" fill="#EBE9F0"/>
<path d="M22.0027 7.78461C22.0027 6.94451 21.4826 5.58434 20.8225 6.03439C20.7225 6.1044 19.1723 7.19453 17.4121 9.09477C17.4121 3.05403 17.3721 3.6641 17.4921 3.6641C18.0122 5.12428 20.1625 4.73423 20.1625 3.20405V1.37382C20.1625 -0.156365 18.0122 -0.546411 17.4921 0.913767H2.67033C2.15026 -0.546411 0 -0.156365 0 1.37382V3.20405C0 4.73423 2.15026 5.12428 2.67033 3.6641C2.80034 3.6641 2.75034 2.53396 2.75034 18.3359H2.67033C2.15026 16.8757 0 17.2658 0 18.796V20.6262C0 22.1564 2.15026 22.5464 2.67033 21.0862H17.5121C18.0322 22.5464 20.1825 22.1564 20.1825 20.6262V18.796C20.1825 17.2658 18.0322 16.8757 17.5121 18.3359C17.3921 18.3359 17.4321 18.886 17.4321 13.3953C18.4222 13.0553 19.5624 12.5052 19.0823 11.5951C19.9124 11.125 20.9226 10.3649 20.7825 9.4148C21.2826 9.15477 22.0227 8.64472 22.0227 7.79461L22.0027 7.78461ZM19.2524 1.37382V3.20405C19.2524 3.81412 18.3322 3.81412 18.3322 3.20405V1.37382C18.3322 0.763748 19.2524 0.763748 19.2524 1.37382ZM17.4221 2.74399H2.75034V1.82388H17.4221V2.74399ZM0.920112 3.20405V1.37382C0.920112 0.763748 1.84022 0.763748 1.84022 1.37382V3.20405C1.84022 3.81412 0.920112 3.81412 0.920112 3.20405ZM0.920112 20.6162V18.786C0.920112 18.1759 1.84022 18.1759 1.84022 18.786V20.6162C1.84022 21.2263 0.920112 21.2263 0.920112 20.6162ZM2.75034 19.246H17.4221V20.1661H2.75034V19.246ZM19.2524 18.786V20.6162C19.2524 21.2263 18.3322 21.2263 18.3322 20.6162V18.786C18.3322 18.1759 19.2524 18.1759 19.2524 18.786ZM16.502 18.3259H3.67045V3.65411H16.502V10.1449C14.8918 12.1051 13.5617 14.3454 12.8516 16.8257C12.7716 17.1158 12.9816 17.4058 13.2916 17.4058C13.9217 17.4058 13.5617 16.7757 14.8618 14.2454C15.2719 14.0354 16.032 13.8153 16.502 13.6653V18.3159V18.3259ZM20.0324 8.72473C19.6824 8.84474 19.6124 9.24479 19.8324 9.46481C19.8324 9.46481 19.8824 9.53482 19.8524 9.64484C19.8124 9.82486 19.5624 10.3349 18.1322 11.045C17.8222 11.195 17.7922 11.6151 18.0622 11.8251C18.1622 11.9051 18.2122 11.9551 18.2422 11.9851C17.9822 12.3152 16.222 12.8052 15.5719 13.0052C17.4721 9.93487 20.0024 7.81461 20.9626 7.07452C21.0326 7.24454 21.0926 7.48457 21.0926 7.78461C21.0926 8.25467 20.3025 8.63471 20.0324 8.72473Z" fill="black"/>
<path d="M6.42086 6.41441H5.50075V5.4943C5.50075 4.88423 4.58064 4.88423 4.58064 5.4943V6.87447C4.58064 7.1245 4.79066 7.33452 5.04069 7.33452H6.42086C7.03094 7.33452 7.03094 6.41441 6.42086 6.41441Z" fill="black"/>
<path d="M9.17112 6.87447V5.4943C9.17112 4.88423 8.25101 4.88423 8.25101 5.4943V6.87447C8.25101 7.48454 9.17112 7.48454 9.17112 6.87447Z" fill="black"/>
<path d="M13.7517 5.95442H15.1318C15.7419 5.95442 15.7419 5.03431 15.1318 5.03431H13.7517C13.1416 5.03431 13.1416 5.95442 13.7517 5.95442Z" fill="black"/>
<path d="M15.1318 6.41436H14.2117C13.6016 6.41436 13.6016 7.33447 14.2117 7.33447H15.1318C15.7419 7.33447 15.7419 6.41436 15.1318 6.41436Z" fill="black"/>
<path d="M9.63121 8.70468H8.25105C8.00102 8.70468 7.79099 8.9047 7.79099 9.16473V10.5449C7.79099 11.155 8.7111 11.155 8.7111 10.5449V9.62479H9.63121C10.2413 9.62479 10.2413 8.70468 9.63121 8.70468Z" fill="black"/>
<path d="M11.0013 9.16467V10.5448C11.0013 11.1549 11.9215 11.1549 11.9215 10.5448V9.16467C11.9215 8.5546 11.0013 8.5546 11.0013 9.16467Z" fill="black"/>
<path d="M15.1318 8.70468H14.2117C13.9617 8.70468 13.7517 8.9047 13.7517 9.16473V10.5449C13.7517 11.155 14.6718 11.155 14.6718 10.5449V9.62479H15.1318C15.7419 9.62479 15.7419 8.70468 15.1318 8.70468Z" fill="black"/>
<path d="M6.4208 8.70468H5.04063C4.43056 8.70468 4.43056 9.62479 5.04063 9.62479H6.4208C7.03088 9.62479 7.03088 8.70468 6.4208 8.70468Z" fill="black"/>
<path d="M5.05065 10.9951H5.97076C6.58083 10.9951 6.58083 10.075 5.97076 10.075H5.05065C4.44057 10.075 4.44057 10.9951 5.05065 10.9951Z" fill="black"/>
<path d="M11.4614 6.87447H11.9215C12.1715 6.87447 12.3815 6.67445 12.3815 6.41441V5.4943C12.3815 4.88423 11.4614 4.88423 11.4614 5.4943V5.95436H10.5413C9.93123 5.95436 9.93123 6.87447 10.5413 6.87447C10.5413 7.48454 11.4614 7.48454 11.4614 6.87447Z" fill="black"/>
<path d="M12.3815 13.7454H11.9215V12.8253C11.9215 12.2152 11.0013 12.2152 11.0013 12.8253V14.2054C11.0013 14.4555 11.2114 14.6655 11.4614 14.6655H12.3815C12.9916 14.6655 12.9916 13.7454 12.3815 13.7454Z" fill="black"/>
<path d="M9.17104 12.8253V14.2054C9.17104 14.8155 10.0912 14.8155 10.0912 14.2054V12.8253C10.0912 12.2152 9.17104 12.2152 9.17104 12.8253Z" fill="black"/>
<path d="M7.801 13.2853V14.2054C7.801 14.8155 8.72111 14.8155 8.72111 14.2054V13.2853C8.72111 12.6752 7.801 12.6752 7.801 13.2853Z" fill="black"/>
<path d="M5.96081 12.8253V13.7454H5.50075V12.8253C5.50075 12.2152 4.58064 12.2152 4.58064 12.8253V14.2054C4.58064 14.4555 4.79066 14.6655 5.04069 14.6655H6.42086C6.67089 14.6655 6.88092 14.4655 6.88092 14.2054V12.8253C6.88092 12.2152 5.96081 12.2152 5.96081 12.8253Z" fill="black"/>
</svg>
