<svg width="22" height="19" viewBox="0 0 22 19" fill="none" xmlns="http://www.w3.org/2000/svg">
<path d="M11.1543 10.9118C11.1543 9.60794 10.0949 8.54854 8.79105 8.54854H5.40912L3.03566 12.1036C2.44485 12.9899 1.32433 13.3362 0.336235 12.9389L3.38201 6.51124L8.68918 4.44338C9.2087 4.23964 9.75877 4.13778 10.3088 4.13778C10.6959 4.13778 11.083 4.18871 11.4599 4.29058C11.8368 4.39244 12.1933 4.53505 12.5295 4.7286L15.3002 6.31769C15.8911 6.65385 16.5939 6.72515 17.2459 6.51124V12.6028" fill="#E9C3A9"/>
<path d="M21.3 5.16663H18.5904V13.9576H21.3V5.16663Z" fill="#556060"/>
<path d="M21.3 12.949H18.5904V13.9677H21.3V12.949Z" fill="#465556"/>
<path d="M21.3 13.9576H18.5904V5.16663H21.3" stroke="black" stroke-width="0.66" stroke-linecap="round" stroke-linejoin="round"/>
<path d="M18.5906 5.83885H17.2358V13.275H18.5906V5.83885Z" fill="#E5F0FD"/>
<path d="M18.5906 12.2666H17.2358V13.2853H18.5906V12.2666Z" fill="#BAD0F6"/>
<path d="M18.5906 5.83885H17.2358V13.275H18.5906V5.83885Z" stroke="black" stroke-width="0.66" stroke-linecap="round" stroke-linejoin="round"/>
<path d="M7.43621 4.94252L8.67896 4.45357C9.19848 4.24984 9.74855 4.14797 10.2986 4.14797C11.0728 4.14797 11.847 4.35171 12.5193 4.73879L15.29 6.32789C15.8808 6.66404 16.5837 6.73535 17.2356 6.52143V12.613" stroke="black" stroke-width="0.66" stroke-linecap="round" stroke-linejoin="round"/>
<path d="M11.1543 10.9117C11.1543 9.60787 10.0949 8.54847 8.79105 8.54847H5.40912L3.03566 12.1036C2.44485 12.9898 1.32433 13.3361 0.336235 12.9389L3.38201 6.51117L5.74528 5.59438" stroke="black" stroke-width="0.66" stroke-linecap="round" stroke-linejoin="round"/>
<path d="M8.50475 2.88939L0.952997 16.1022L2.71294 17.1081L10.2647 3.89528L8.50475 2.88939Z" fill="#EA4F5F"/>
<path d="M9.61626 3.52649L2.08843 16.6875L0.98828 16.0559L0.957722 16.1068L2.71999 17.1153L10.2682 3.90339L9.61626 3.52649Z" fill="#CB4454"/>
<path d="M8.50475 2.88939L0.952997 16.1022L2.71294 17.1081L10.2647 3.89528L8.50475 2.88939Z" stroke="black" stroke-width="0.66" stroke-linecap="round" stroke-linejoin="round"/>
<path d="M0.957683 16.1069L0.662273 18.6638L2.71995 17.1154L0.957683 16.1069Z" fill="#B2806F"/>
<path d="M0.957683 16.1069L0.662273 18.6638L2.71995 17.1154L0.957683 16.1069Z" stroke="black" stroke-width="0.66" stroke-linecap="round" stroke-linejoin="round"/>
<path d="M11.0703 0.464606C11.5567 0.742616 11.7272 1.36805 11.4492 1.85447L10.9437 2.73886L9.18378 1.73297L9.68926 0.848581C9.96727 0.362165 10.5927 0.19165 11.0791 0.46966L11.0703 0.464606Z" fill="#556060"/>
<path d="M11.0728 0.460476C10.8895 0.35861 10.6857 0.317867 10.482 0.328054C10.8283 0.643836 10.9302 1.16335 10.6857 1.59118L10.2579 2.3348L10.9404 2.72188L11.4395 1.84584C11.7146 1.35689 11.5516 0.735512 11.0626 0.460476H11.0728Z" fill="#465556"/>
<path d="M11.0703 0.464606C11.5567 0.742616 11.7272 1.36805 11.4492 1.85447L10.9437 2.73886L9.18378 1.73297L9.68926 0.848581C9.96727 0.362165 10.5927 0.19165 11.0791 0.46966L11.0703 0.464606Z" stroke="black" stroke-width="0.66" stroke-linecap="round" stroke-linejoin="round"/>
<path d="M10.9472 2.71691L9.18727 1.71102L8.51499 2.88726L10.2749 3.89315L10.9472 2.71691Z" fill="#F4F4F4"/>
<path d="M9.17824 1.72345L9.10694 1.85587L10.1867 2.47725L9.58571 3.50609L10.2682 3.90337L10.9405 2.72173L9.17824 1.72345Z" fill="#BAD0F6"/>
<path d="M17.2358 12.6027H16.2171L15.0763 13.4176C14.2715 13.988 13.314 14.2936 12.3361 14.2936C12.0509 14.2936 11.7758 14.2733 11.4906 14.2223C11.2156 14.1714 10.9405 14.1001 10.6757 13.9982L9.34124 13.4991C8.96434 13.3565 8.55688 13.2852 8.14942 13.2852H5.04253V12.6129C5.04253 11.6757 5.79633 10.9219 6.73349 10.9219H11.1341" fill="#E9C3A9"/>
<path d="M16.8994 11.9304V12.6027H16.2271L15.0862 13.4176C14.2815 13.988 13.3239 14.2936 12.346 14.2936C12.0608 14.2936 11.7858 14.2733 11.5005 14.2223C11.2255 14.1714 10.9505 14.1001 10.6856 13.9982L9.35118 13.4991C8.97428 13.3565 8.56682 13.2852 8.15936 13.2852H5.05247V12.6129C5.05247 12.5008 5.06266 12.3888 5.08303 12.2767H8.15936C8.56682 12.2767 8.9641 12.348 9.35118 12.4906L10.6856 12.9898C10.9505 13.0916 11.2255 13.1629 11.5005 13.2139C11.7756 13.2648 12.0608 13.2852 12.346 13.2852C13.3341 13.2852 14.2916 12.9796 15.0862 12.4091L15.4427 12.0424C15.5038 11.9813 15.5955 11.9406 15.6872 11.9406H16.8994V11.9304Z" fill="#DEA37D"/>
<path d="M10.9472 2.71691L9.18727 1.71102L8.51499 2.88726L10.2749 3.89315L10.9472 2.71691Z" stroke="black" stroke-width="0.66" stroke-linecap="round" stroke-linejoin="round"/>
<path d="M17.2358 12.6027H16.2171L15.0763 13.4176C14.2715 13.988 13.314 14.2936 12.3361 14.2936C11.7656 14.2936 11.2054 14.1918 10.6757 13.9982L9.34124 13.4991C8.96434 13.3565 8.55688 13.2852 8.14942 13.2852H5.04253V12.6129C5.04253 11.6757 5.79633 10.9219 6.73349 10.9219H11.1341" stroke="black" stroke-width="0.66" stroke-linecap="round" stroke-linejoin="round"/>
</svg>
