<svg width="20" height="19" viewBox="0 0 20 19" fill="none" xmlns="http://www.w3.org/2000/svg">
<path d="M0.311085 12.8082L4.06234 0.310836L5.93796 0.932647" stroke="black" stroke-width="0.61" stroke-linecap="round" stroke-linejoin="round"/>
<path d="M19.6789 12.8082L15.9379 0.310836L14.0623 0.932647" stroke="black" stroke-width="0.61" stroke-linecap="round" stroke-linejoin="round"/>
<path d="M4.69435 17.1812C7.10953 17.1812 9.06741 15.2234 9.06741 12.8082C9.06741 10.393 7.10953 8.43512 4.69435 8.43512C2.27918 8.43512 0.321288 10.393 0.321288 12.8082C0.321288 15.2234 2.27918 17.1812 4.69435 17.1812Z" fill="#80ECFC"/>
<path d="M4.69435 16.2435C2.44156 16.2435 0.576129 14.531 0.341676 12.3394C0.321289 12.4923 0.321288 12.6452 0.321288 12.8083C0.321288 15.2241 2.27846 17.1813 4.69435 17.1813C7.11024 17.1813 9.06741 15.2241 9.06741 12.8083C9.06741 12.6452 9.06741 12.4923 9.04702 12.3394C8.81257 14.531 6.95734 16.2435 4.69435 16.2435Z" fill="#5BD3DD"/>
<path d="M1.98284 16.2434C2.72698 16.8347 3.66479 17.1812 4.68415 17.1812C7.10004 17.1812 9.05721 15.2241 9.05721 12.8082C9.05721 10.3923 7.10004 8.43512 4.68415 8.43512C2.26826 8.43512 0.311085 10.3923 0.311085 12.8082C0.311085 13.7358 0.596506 14.6023 1.09599 15.3056" stroke="black" stroke-width="0.61" stroke-linecap="round" stroke-linejoin="round"/>
<path d="M15.3058 17.1812C17.721 17.1812 19.6789 15.2234 19.6789 12.8082C19.6789 10.393 17.721 8.43512 15.3058 8.43512C12.8906 8.43512 10.9328 10.393 10.9328 12.8082C10.9328 15.2234 12.8906 17.1812 15.3058 17.1812Z" fill="#80ECFC"/>
<path d="M15.3058 16.2435C13.053 16.2435 11.1876 14.531 10.9531 12.3394C10.9328 12.4923 10.9328 12.6452 10.9328 12.8083C10.9328 15.2241 12.8899 17.1813 15.3058 17.1813C17.7217 17.1813 19.6789 15.2241 19.6789 12.8083C19.6789 12.6452 19.6789 12.4923 19.6585 12.3394C19.424 14.531 17.5688 16.2435 15.3058 16.2435Z" fill="#5BD3DD"/>
<path d="M14.0622 8.6084C12.2579 9.14866 10.943 10.8204 10.943 12.798C10.943 15.2139 12.9001 17.171 15.316 17.171C17.7319 17.171 19.6891 15.2139 19.6891 12.798C19.6891 10.3821 17.7319 8.42492 15.316 8.42492" stroke="black" stroke-width="0.61" stroke-linecap="round" stroke-linejoin="round"/>
<path d="M9.06749 12.8082C9.5364 12.1864 10.4742 12.1864 10.9431 12.8082" stroke="black" stroke-width="0.61" stroke-linecap="round" stroke-linejoin="round"/>
<path d="M5.31608 11.5544L4.06227 12.4922" stroke="black" stroke-width="0.61" stroke-linecap="round" stroke-linejoin="round"/>
<path d="M5.62195 13.1141L4.37833 14.0519" stroke="black" stroke-width="0.61" stroke-linecap="round" stroke-linejoin="round"/>
<path d="M15.6219 11.5544L14.3783 12.4922" stroke="black" stroke-width="0.61" stroke-linecap="round" stroke-linejoin="round"/>
<path d="M15.938 13.1141L14.6842 14.0519" stroke="black" stroke-width="0.61" stroke-linecap="round" stroke-linejoin="round"/>
<path d="M19.3732 15.9276C18.5781 16.3251 17.9665 17.0285 17.681 17.8746L17.4975 18.425L17.3141 17.8746C17.0286 17.0285 16.4272 16.3251 15.6219 15.9276C16.417 15.53 17.0286 14.8267 17.3141 13.9806L17.4975 13.4301L17.681 13.9806C17.9665 14.8267 18.5679 15.53 19.3732 15.9276Z" fill="#F1D48C"/>
<path d="M19.3732 15.9276C18.5781 16.3251 17.9665 17.0285 17.681 17.8746L17.4975 18.425L17.3141 17.8746C17.0286 17.0285 16.4272 16.3251 15.6219 15.9276C16.417 15.53 17.0286 14.8267 17.3141 13.9806L17.4975 13.4301L17.681 13.9806C17.9665 14.8267 18.5679 15.53 19.3732 15.9276Z" stroke="black" stroke-width="0.61" stroke-linecap="round" stroke-linejoin="round"/>
<path d="M8.1297 7.49724C7.34479 7.89479 6.78414 8.62873 6.61085 9.49519L6.57008 9.68887L6.5293 9.49519C6.35601 8.62873 5.79536 7.89479 5.01045 7.49724C5.79536 7.09969 6.35601 6.36575 6.5293 5.49929L6.57008 5.30561L6.61085 5.49929C6.78414 6.36575 7.34479 7.09969 8.1297 7.49724Z" fill="#F1D48C"/>
<path d="M8.1297 7.49724C7.34479 7.89479 6.78414 8.62873 6.61085 9.49519L6.57008 9.68887L6.5293 9.49519C6.35601 8.62873 5.79536 7.89479 5.01045 7.49724C5.79536 7.09969 6.35601 6.36575 6.5293 5.49929L6.57008 5.30561L6.61085 5.49929C6.78414 6.36575 7.34479 7.09969 8.1297 7.49724Z" stroke="black" stroke-width="0.61" stroke-linecap="round" stroke-linejoin="round"/>
</svg>
