<svg width="21" height="21" viewBox="0 0 21 21" fill="none" xmlns="http://www.w3.org/2000/svg">
<path d="M20.528 10.3885C20.508 10.9286 20.0779 11.4086 19.4478 11.4086L18.3477 11.3886V14.4491C18.3477 15.4192 17.5676 16.1993 16.5974 16.1993H14.4171V18.8197H6.11596V14.189C1.14527 9.7584 3.69562 1.53726 10.0365 0.577123C10.8066 0.437104 11.9568 0.427103 12.7369 0.447105C15.6073 0.517115 17.9076 2.83744 17.9076 5.70784C20.638 10.2685 20.528 9.96843 20.518 10.3885H20.528Z" fill="#FFDCC5"/>
<path d="M7.42615 16.1892C7.42615 14.849 7.47616 13.6288 6.366 12.1586C3.89566 8.85818 4.36572 4.09752 7.69619 1.36713C2.7655 3.9775 2.07539 10.5884 6.10596 14.1889V18.8196H14.4071V17.9494H9.16638C8.19625 17.9494 7.41614 17.1693 7.41614 16.1992L7.42615 16.1892Z" fill="#F4CAAD"/>
<path d="M10.4865 6.57789C10.4865 8.58817 9.2763 8.99823 8.5962 10.9485C8.5762 10.9885 8.50618 11.2085 8.30615 11.8186H4.81567L4.55563 11.0485C3.87553 9.00823 2.62537 8.62818 2.62537 6.57789C2.62537 4.35758 4.44561 2.64734 6.55591 2.64734C8.6662 2.64734 10.4865 4.40759 10.4865 6.57789Z" fill="#FDCA66"/>
<path d="M10.4265 5.92777C10.8166 8.32811 9.31636 8.86818 8.58626 10.9485H6.81601C5.12577 10.9485 5.15577 9.26824 4.24564 8.02807C3.2355 6.63787 3.2355 4.76761 4.24564 3.39742C6.61597 1.66718 9.96645 3.07738 10.4265 5.92777Z" fill="#FFDC75"/>
<path d="M17.0375 20.5598H5.24585V18.8195H15.7273L17.0375 20.5598Z" fill="#6FA9E4"/>
<path d="M16.3774 19.6898H7.41612C6.93605 19.6898 6.546 19.2998 6.546 18.8197C6.546 18.7797 6.10594 18.8197 15.7173 18.8197L16.3774 19.6898Z" fill="#81BAF2"/>
<path d="M9.17634 12.6987C9.17634 13.1787 8.78628 13.5688 8.30621 13.5688H4.81574C4.33567 13.5688 3.94562 13.1787 3.94562 12.6987C3.94562 12.2186 4.33567 11.8286 4.81574 11.8286H8.30621C8.78628 11.8286 9.17634 12.2186 9.17634 12.6987Z" fill="#D7D5E3"/>
<path d="M9.17622 12.6987H5.68573C5.20566 12.6987 4.81561 12.3086 4.81561 11.8286H8.30609C8.78616 11.8286 9.17622 12.2186 9.17622 12.6987Z" fill="#EBE9F0"/>
<path d="M8.29609 13.5688C8.29609 14.0088 8.12608 14.4589 7.78603 14.809C6.67587 15.8991 4.8056 15.129 4.8056 13.5688H8.29609Z" fill="#D7D5E3"/>
<path d="M8.29625 13.5688C8.29625 13.6788 8.29625 13.7788 8.26624 13.8788C7.69616 14.6489 6.12595 14.6989 5.47586 13.5688H8.29625Z" fill="#EBE9F0"/>
<path d="M17.0375 20.5598H5.24585V20.9998H17.0375V20.5598Z" fill="#6FA9E4"/>
<path d="M20.7478 9.58834L18.3475 5.58778C18.2875 2.51735 15.8471 0.0770088 12.7467 0.00699904C11.2265 -0.0230051 9.9363 0.0270018 8.61612 0.487066C8.07604 0.677093 8.36607 1.50721 8.90615 1.30718C10.1163 0.87712 11.3265 0.837115 12.7167 0.87712C15.377 0.937129 17.4673 3.05742 17.4673 5.70779C17.4673 5.78781 17.4873 5.86782 17.5273 5.92782C20.1877 10.3684 20.0877 10.1084 20.0777 10.3684C20.0677 10.7085 19.7877 10.9885 19.4476 10.9685L18.3475 10.9485C18.1074 10.9485 17.8974 11.1386 17.8974 11.3886V12.6988C16.7873 12.6988 16.4172 12.7888 16.0171 12.3887C15.8471 12.2187 15.5671 12.2187 15.3971 12.3887C14.867 12.9188 15.9871 13.5689 16.7573 13.5689H17.8874V14.439C17.8874 15.1591 17.2973 15.7492 16.5772 15.7492H13.5168C12.7967 15.7492 12.2066 15.1591 12.2066 14.439C12.2066 14.199 12.0066 13.999 11.7665 13.999C10.7664 13.999 11.4865 16.6193 13.5168 16.6193H13.9569V18.3696H6.52581V17.0594C6.52581 16.4793 5.6557 16.4793 5.6557 17.0594V18.3696H5.21563C4.9756 18.3696 4.77557 18.5696 4.77557 18.8096V20.5599C4.77557 21.1399 5.6457 21.1399 5.6457 20.5599V19.2497H15.4771C16.7573 20.9599 16.7172 20.9999 17.0073 20.9999C17.3573 20.9999 17.5774 20.5899 17.3573 20.2998C15.9571 18.4296 15.9871 18.3796 15.6971 18.3796H14.827V16.6293H16.5772C17.7774 16.6293 18.7575 15.6492 18.7575 14.449V11.8386H19.4076C20.6178 11.8487 21.3079 10.5685 20.7178 9.58834H20.7478Z" fill="black"/>
<path d="M8.69627 13.939C9.82642 13.5689 9.92643 12.0287 8.85628 11.5186C9.7264 8.89827 10.9166 8.87827 10.9166 6.57795C10.9166 4.27763 8.95629 2.20734 6.54596 2.20734C4.13562 2.20734 2.17535 4.16761 2.17535 6.57795C2.17535 8.98828 3.37552 8.93828 4.23564 11.5186C3.16549 12.0287 3.26551 13.5789 4.39566 13.939C4.80572 16.3493 8.2762 16.3493 8.68626 13.939H8.69627ZM5.31579 14.009H7.78614C7.37608 15.1691 5.72585 15.1691 5.31579 14.009ZM8.2962 13.1389H4.80571C4.22563 13.1389 4.22563 12.2687 4.80571 12.2687H8.2962C8.87628 12.2687 8.87628 13.1389 8.2962 13.1389ZM3.73557 8.64824C2.05533 6.36792 3.68555 3.08746 6.55595 3.08746C9.42635 3.08746 11.0566 6.36792 9.37635 8.64824C8.47623 9.87841 8.2462 10.6185 7.98616 11.3886H7.15604L8.27619 8.02815C8.45622 7.47807 7.62612 7.19804 7.44609 7.74811L6.54596 10.4385L5.64584 7.74811C5.46581 7.19804 4.63569 7.47807 4.81572 8.02815L5.93587 11.3886H5.10575C4.85572 10.6485 4.62569 9.87841 3.71556 8.64824H3.73557Z" fill="black"/>
<path d="M1.30518 6.14783H0.435061C-0.14502 6.14783 -0.14502 7.01795 0.435061 7.01795H1.30518C1.88526 7.01795 1.88526 6.14783 1.30518 6.14783Z" fill="black"/>
<path d="M6.98596 1.33717V0.467048C6.98596 -0.113033 6.11584 -0.113033 6.11584 0.467048V1.33717C6.11584 1.91725 6.98596 1.91725 6.98596 1.33717Z" fill="black"/>
<path d="M11.7968 7.01795H12.6669C13.247 7.01795 13.247 6.14783 12.6669 6.14783H11.7968C11.2167 6.14783 11.2167 7.01795 11.7968 7.01795Z" fill="black"/>
<path d="M2.31539 2.95746C2.72545 3.36752 3.34553 2.74743 2.93548 2.33737L2.06536 1.46725C1.6553 1.0572 1.03522 1.67728 1.44528 2.08734L2.31539 2.95746Z" fill="black"/>
<path d="M11.0466 1.46725L10.1765 2.33737C9.76642 2.74743 10.3865 3.36752 10.7966 2.95746L11.6667 2.08734C12.0767 1.67728 11.4567 1.0572 11.0466 1.46725Z" fill="black"/>
</svg>
